<?xml version="1.0" encoding="UTF-8" standalone="no"?>
<!DOCTYPE svg PUBLIC "-//W3C//DTD SVG 1.1//EN"
 "http://www.w3.org/Graphics/SVG/1.1/DTD/svg11.dtd">
<!-- Generated by graphviz version 2.46.0 (20210119.1425)
 -->
<!-- Title: dependencies Pages: 1 -->
<svg width="1110pt" height="284pt"
 viewBox="0.00 0.00 1110.00 284.00" xmlns="http://www.w3.org/2000/svg" xmlns:xlink="http://www.w3.org/1999/xlink">
<g id="graph0" class="graph" transform="scale(1 1) rotate(0) translate(4 280)">
<title>dependencies</title>
<polygon fill="white" stroke="transparent" points="-4,4 -4,-280 1106,-280 1106,4 -4,4"/>
<text text-anchor="start" x="530.01" y="-42.4" font-family="sans-serif" font-weight="bold" font-size="14.00">Legend</text>
<polygon fill="#ffffb3" stroke="transparent" points="317,-10 317,-30 337,-30 337,-10 317,-10"/>
<text text-anchor="start" x="340.63" y="-15.4" font-family="sans-serif" font-size="14.00"> &#160;Declarations</text>
<polygon fill="#8dd3c7" stroke="transparent" points="430,-10 430,-30 450,-30 450,-10 430,-10"/>
<text text-anchor="start" x="453.73" y="-15.4" font-family="sans-serif" font-size="14.00"> &#160;Module</text>
<polygon fill="#80b1d3" stroke="transparent" points="516,-10 516,-30 536,-30 536,-10 516,-10"/>
<text text-anchor="start" x="539.78" y="-15.4" font-family="sans-serif" font-size="14.00"> &#160;Bootstrap</text>
<polygon fill="#fdb462" stroke="transparent" points="613,-10 613,-30 633,-30 633,-10 613,-10"/>
<text text-anchor="start" x="636.67" y="-15.4" font-family="sans-serif" font-size="14.00"> &#160;Providers</text>
<polygon fill="#fb8072" stroke="transparent" points="709,-10 709,-30 729,-30 729,-10 709,-10"/>
<text text-anchor="start" x="732.73" y="-15.4" font-family="sans-serif" font-size="14.00"> &#160;Exports</text>
<g id="clust1" class="cluster">
<title>cluster_TeachersModule</title>
<polygon fill="none" stroke="black" stroke-dasharray="1,5" points="8,-70 8,-268 1094,-268 1094,-70 8,-70"/>
</g>
<g id="clust5" class="cluster">
<title>cluster_TeachersModule_exports</title>
<polygon fill="none" stroke="black" points="488,-208 488,-260 680,-260 680,-208 488,-208"/>
</g>
<g id="clust2" class="cluster">
<title>cluster_TeachersModule_declarations</title>
<polygon fill="none" stroke="black" points="898,-78 898,-130 1086,-130 1086,-78 898,-78"/>
</g>
<g id="clust4" class="cluster">
<title>cluster_TeachersModule_imports</title>
<polygon fill="none" stroke="black" points="594,-78 594,-130 890,-130 890,-78 594,-78"/>
</g>
<g id="clust7" class="cluster">
<title>cluster_TeachersModule_providers</title>
<polygon fill="none" stroke="black" points="16,-78 16,-130 586,-130 586,-78 16,-78"/>
</g>
<!-- CourseTeachersComponent -->
<g id="node1" class="node">
<title>CourseTeachersComponent</title>
<polygon fill="#ffffb3" stroke="black" points="1077.51,-122 906.49,-122 906.49,-86 1077.51,-86 1077.51,-122"/>
<text text-anchor="middle" x="992" y="-99.8" font-family="Times,serif" font-size="14.00">CourseTeachersComponent</text>
</g>
<!-- TeachersModule -->
<g id="node2" class="node">
<title>TeachersModule</title>
<polygon fill="#8dd3c7" stroke="black" points="639.07,-187 636.07,-191 615.07,-191 612.07,-187 528.93,-187 528.93,-151 639.07,-151 639.07,-187"/>
<text text-anchor="middle" x="584" y="-164.8" font-family="Times,serif" font-size="14.00">TeachersModule</text>
</g>
<!-- CourseTeachersComponent&#45;&gt;TeachersModule -->
<g id="edge1" class="edge">
<title>CourseTeachersComponent&#45;&gt;TeachersModule</title>
<path fill="none" stroke="black" d="M992,-122.28C992,-143.32 992,-175 992,-175 992,-175 649.45,-175 649.45,-175"/>
<polygon fill="black" stroke="black" points="649.45,-171.5 639.45,-175 649.45,-178.5 649.45,-171.5"/>
</g>
<!-- CourseTeachersComponent  -->
<g id="node5" class="node">
<title>CourseTeachersComponent </title>
<polygon fill="#fb8072" stroke="black" points="671.51,-252 496.49,-252 496.49,-216 671.51,-216 671.51,-252"/>
<text text-anchor="middle" x="584" y="-229.8" font-family="Times,serif" font-size="14.00">CourseTeachersComponent </text>
</g>
<!-- TeachersModule&#45;&gt;CourseTeachersComponent  -->
<g id="edge4" class="edge">
<title>TeachersModule&#45;&gt;CourseTeachersComponent </title>
<path fill="none" stroke="black" stroke-dasharray="5,2" d="M584,-187.11C584,-187.11 584,-205.99 584,-205.99"/>
<polygon fill="black" stroke="black" points="580.5,-205.99 584,-215.99 587.5,-205.99 580.5,-205.99"/>
</g>
<!-- MaterialModule -->
<g id="node3" class="node">
<title>MaterialModule</title>
<polygon fill="#8dd3c7" stroke="black" points="882.47,-122 879.47,-126 858.47,-126 855.47,-122 775.53,-122 775.53,-86 882.47,-86 882.47,-122"/>
<text text-anchor="middle" x="829" y="-99.8" font-family="Times,serif" font-size="14.00">MaterialModule</text>
</g>
<!-- MaterialModule&#45;&gt;TeachersModule -->
<g id="edge2" class="edge">
<title>MaterialModule&#45;&gt;TeachersModule</title>
<path fill="none" stroke="black" d="M829,-122.02C829,-139.37 829,-163 829,-163 829,-163 649.29,-163 649.29,-163"/>
<polygon fill="black" stroke="black" points="649.29,-159.5 639.29,-163 649.29,-166.5 649.29,-159.5"/>
</g>
<!-- TeachersRoutingModule -->
<g id="node4" class="node">
<title>TeachersRoutingModule</title>
<polygon fill="#8dd3c7" stroke="black" points="757.68,-122 754.68,-126 733.68,-126 730.68,-122 602.32,-122 602.32,-86 757.68,-86 757.68,-122"/>
<text text-anchor="middle" x="680" y="-99.8" font-family="Times,serif" font-size="14.00">TeachersRoutingModule</text>
</g>
<!-- TeachersRoutingModule&#45;&gt;TeachersModule -->
<g id="edge3" class="edge">
<title>TeachersRoutingModule&#45;&gt;TeachersModule</title>
<path fill="none" stroke="black" d="M620.72,-122.11C620.72,-122.11 620.72,-140.99 620.72,-140.99"/>
<polygon fill="black" stroke="black" points="617.22,-140.99 620.72,-150.99 624.22,-140.99 617.22,-140.99"/>
</g>
<!-- TeacherDataService -->
<g id="node6" class="node">
<title>TeacherDataService</title>
<ellipse fill="#fdb462" stroke="black" cx="489" cy="-104" rx="89.12" ry="18"/>
<text text-anchor="middle" x="489" y="-99.8" font-family="Times,serif" font-size="14.00">TeacherDataService</text>
</g>
<!-- TeacherDataService&#45;&gt;TeachersModule -->
<g id="edge5" class="edge">
<title>TeacherDataService&#45;&gt;TeachersModule</title>
<path fill="none" stroke="black" d="M553.64,-116.53C553.64,-116.53 553.64,-140.85 553.64,-140.85"/>
<polygon fill="black" stroke="black" points="550.14,-140.85 553.64,-150.85 557.14,-140.85 550.14,-140.85"/>
</g>
<!-- TeacherEntityService -->
<g id="node7" class="node">
<title>TeacherEntityService</title>
<ellipse fill="#fdb462" stroke="black" cx="287" cy="-104" rx="94.88" ry="18"/>
<text text-anchor="middle" x="287" y="-99.8" font-family="Times,serif" font-size="14.00">TeacherEntityService</text>
</g>
<!-- TeacherEntityService&#45;&gt;TeachersModule -->
<g id="edge6" class="edge">
<title>TeacherEntityService&#45;&gt;TeachersModule</title>
<path fill="none" stroke="black" d="M287,-122.02C287,-139.37 287,-163 287,-163 287,-163 518.83,-163 518.83,-163"/>
<polygon fill="black" stroke="black" points="518.83,-166.5 528.83,-163 518.83,-159.5 518.83,-166.5"/>
</g>
<!-- TeachersService -->
<g id="node8" class="node">
<title>TeachersService</title>
<ellipse fill="#fdb462" stroke="black" cx="99" cy="-104" rx="74.67" ry="18"/>
<text text-anchor="middle" x="99" y="-99.8" font-family="Times,serif" font-size="14.00">TeachersService</text>
</g>
<!-- TeachersService&#45;&gt;TeachersModule -->
<g id="edge7" class="edge">
<title>TeachersService&#45;&gt;TeachersModule</title>
<path fill="none" stroke="black" d="M99,-122.28C99,-143.32 99,-175 99,-175 99,-175 518.84,-175 518.84,-175"/>
<polygon fill="black" stroke="black" points="518.84,-178.5 528.84,-175 518.84,-171.5 518.84,-178.5"/>
</g>
</g>
</svg>
