<?xml version="1.0" encoding="UTF-8" standalone="no"?>
<!DOCTYPE svg PUBLIC "-//W3C//DTD SVG 1.1//EN"
 "http://www.w3.org/Graphics/SVG/1.1/DTD/svg11.dtd">
<!-- Generated by graphviz version 2.46.0 (20210119.1425)
 -->
<!-- Title: dependencies Pages: 1 -->
<svg width="1110pt" height="284pt"
 viewBox="0.00 0.00 1110.00 284.00" xmlns="http://www.w3.org/2000/svg" xmlns:xlink="http://www.w3.org/1999/xlink">
<g id="graph0" class="graph" transform="scale(1 1) rotate(0) translate(4 280)">
<title>dependencies</title>
<polygon fill="white" stroke="transparent" points="-4,4 -4,-280 1106,-280 1106,4 -4,4"/>
<text text-anchor="start" x="530.01" y="-42.4" font-family="sans-serif" font-weight="bold" font-size="14.00">Legend</text>
<polygon fill="#ffffb3" stroke="transparent" points="317,-10 317,-30 337,-30 337,-10 317,-10"/>
<text text-anchor="start" x="340.63" y="-15.4" font-family="sans-serif" font-size="14.00"> &#160;Declarations</text>
<polygon fill="#8dd3c7" stroke="transparent" points="430,-10 430,-30 450,-30 450,-10 430,-10"/>
<text text-anchor="start" x="453.73" y="-15.4" font-family="sans-serif" font-size="14.00"> &#160;Module</text>
<polygon fill="#80b1d3" stroke="transparent" points="516,-10 516,-30 536,-30 536,-10 516,-10"/>
<text text-anchor="start" x="539.78" y="-15.4" font-family="sans-serif" font-size="14.00"> &#160;Bootstrap</text>
<polygon fill="#fdb462" stroke="transparent" points="613,-10 613,-30 633,-30 633,-10 613,-10"/>
<text text-anchor="start" x="636.67" y="-15.4" font-family="sans-serif" font-size="14.00"> &#160;Providers</text>
<polygon fill="#fb8072" stroke="transparent" points="709,-10 709,-30 729,-30 729,-10 709,-10"/>
<text text-anchor="start" x="732.73" y="-15.4" font-family="sans-serif" font-size="14.00"> &#160;Exports</text>
<g id="clust1" class="cluster">
<title>cluster_TeachersModule</title>
<polygon fill="none" stroke="black" stroke-dasharray="1,5" points="8,-70 8,-268 1094,-268 1094,-70 8,-70"/>
</g>
<g id="clust4" class="cluster">
<title>cluster_TeachersModule_imports</title>
<polygon fill="none" stroke="black" points="790,-78 790,-130 1086,-130 1086,-78 790,-78"/>
</g>
<g id="clust2" class="cluster">
<title>cluster_TeachersModule_declarations</title>
<polygon fill="none" stroke="black" points="594,-78 594,-130 782,-130 782,-78 594,-78"/>
</g>
<g id="clust7" class="cluster">
<title>cluster_TeachersModule_providers</title>
<polygon fill="none" stroke="black" points="16,-78 16,-130 586,-130 586,-78 16,-78"/>
</g>
<g id="clust5" class="cluster">
<title>cluster_TeachersModule_exports</title>
<polygon fill="none" stroke="black" points="492,-208 492,-260 684,-260 684,-208 492,-208"/>
</g>
<!-- CourseTeachersComponent -->
<g id="node1" class="node">
<title>CourseTeachersComponent</title>
<polygon fill="#ffffb3" stroke="black" points="773.51,-122 602.49,-122 602.49,-86 773.51,-86 773.51,-122"/>
<text text-anchor="middle" x="688" y="-99.8" font-family="Times,serif" font-size="14.00">CourseTeachersComponent</text>
</g>
<!-- TeachersModule -->
<g id="node2" class="node">
<title>TeachersModule</title>
<polygon fill="#8dd3c7" stroke="black" points="643.07,-187 640.07,-191 619.07,-191 616.07,-187 532.93,-187 532.93,-151 643.07,-151 643.07,-187"/>
<text text-anchor="middle" x="588" y="-164.8" font-family="Times,serif" font-size="14.00">TeachersModule</text>
</g>
<!-- CourseTeachersComponent&#45;&gt;TeachersModule -->
<g id="edge1" class="edge">
<title>CourseTeachersComponent&#45;&gt;TeachersModule</title>
<path fill="none" stroke="black" d="M622.64,-122.11C622.64,-122.11 622.64,-140.99 622.64,-140.99"/>
<polygon fill="black" stroke="black" points="619.14,-140.99 622.64,-150.99 626.14,-140.99 619.14,-140.99"/>
</g>
<!-- CourseTeachersComponent  -->
<g id="node5" class="node">
<title>CourseTeachersComponent </title>
<polygon fill="#fb8072" stroke="black" points="675.51,-252 500.49,-252 500.49,-216 675.51,-216 675.51,-252"/>
<text text-anchor="middle" x="588" y="-229.8" font-family="Times,serif" font-size="14.00">CourseTeachersComponent </text>
</g>
<!-- TeachersModule&#45;&gt;CourseTeachersComponent  -->
<g id="edge4" class="edge">
<title>TeachersModule&#45;&gt;CourseTeachersComponent </title>
<path fill="none" stroke="black" stroke-dasharray="5,2" d="M588,-187.11C588,-187.11 588,-205.99 588,-205.99"/>
<polygon fill="black" stroke="black" points="584.5,-205.99 588,-215.99 591.5,-205.99 584.5,-205.99"/>
</g>
<!-- MaterialModule -->
<g id="node3" class="node">
<title>MaterialModule</title>
<polygon fill="#8dd3c7" stroke="black" points="1078.47,-122 1075.47,-126 1054.47,-126 1051.47,-122 971.53,-122 971.53,-86 1078.47,-86 1078.47,-122"/>
<text text-anchor="middle" x="1025" y="-99.8" font-family="Times,serif" font-size="14.00">MaterialModule</text>
</g>
<!-- MaterialModule&#45;&gt;TeachersModule -->
<g id="edge2" class="edge">
<title>MaterialModule&#45;&gt;TeachersModule</title>
<path fill="none" stroke="black" d="M1025,-122.28C1025,-143.32 1025,-175 1025,-175 1025,-175 653.35,-175 653.35,-175"/>
<polygon fill="black" stroke="black" points="653.35,-171.5 643.35,-175 653.35,-178.5 653.35,-171.5"/>
</g>
<!-- TeachersRoutingModule -->
<g id="node4" class="node">
<title>TeachersRoutingModule</title>
<polygon fill="#8dd3c7" stroke="black" points="953.68,-122 950.68,-126 929.68,-126 926.68,-122 798.32,-122 798.32,-86 953.68,-86 953.68,-122"/>
<text text-anchor="middle" x="876" y="-99.8" font-family="Times,serif" font-size="14.00">TeachersRoutingModule</text>
</g>
<!-- TeachersRoutingModule&#45;&gt;TeachersModule -->
<g id="edge3" class="edge">
<title>TeachersRoutingModule&#45;&gt;TeachersModule</title>
<path fill="none" stroke="black" d="M876,-122.02C876,-139.37 876,-163 876,-163 876,-163 653.19,-163 653.19,-163"/>
<polygon fill="black" stroke="black" points="653.19,-159.5 643.19,-163 653.19,-166.5 653.19,-159.5"/>
</g>
<!-- TeacherDataService -->
<g id="node6" class="node">
<title>TeacherDataService</title>
<ellipse fill="#fdb462" stroke="black" cx="489" cy="-104" rx="89.12" ry="18"/>
<text text-anchor="middle" x="489" y="-99.8" font-family="Times,serif" font-size="14.00">TeacherDataService</text>
</g>
<!-- TeacherDataService&#45;&gt;TeachersModule -->
<g id="edge5" class="edge">
<title>TeacherDataService&#45;&gt;TeachersModule</title>
<path fill="none" stroke="black" d="M555.64,-116.23C555.64,-116.23 555.64,-140.68 555.64,-140.68"/>
<polygon fill="black" stroke="black" points="552.14,-140.68 555.64,-150.68 559.14,-140.68 552.14,-140.68"/>
</g>
<!-- TeacherEntityService -->
<g id="node7" class="node">
<title>TeacherEntityService</title>
<ellipse fill="#fdb462" stroke="black" cx="287" cy="-104" rx="94.88" ry="18"/>
<text text-anchor="middle" x="287" y="-99.8" font-family="Times,serif" font-size="14.00">TeacherEntityService</text>
</g>
<!-- TeacherEntityService&#45;&gt;TeachersModule -->
<g id="edge6" class="edge">
<title>TeacherEntityService&#45;&gt;TeachersModule</title>
<path fill="none" stroke="black" d="M287,-122.02C287,-139.37 287,-163 287,-163 287,-163 522.79,-163 522.79,-163"/>
<polygon fill="black" stroke="black" points="522.79,-166.5 532.79,-163 522.79,-159.5 522.79,-166.5"/>
</g>
<!-- TeachersService -->
<g id="node8" class="node">
<title>TeachersService</title>
<ellipse fill="#fdb462" stroke="black" cx="99" cy="-104" rx="74.67" ry="18"/>
<text text-anchor="middle" x="99" y="-99.8" font-family="Times,serif" font-size="14.00">TeachersService</text>
</g>
<!-- TeachersService&#45;&gt;TeachersModule -->
<g id="edge7" class="edge">
<title>TeachersService&#45;&gt;TeachersModule</title>
<path fill="none" stroke="black" d="M99,-122.28C99,-143.32 99,-175 99,-175 99,-175 522.86,-175 522.86,-175"/>
<polygon fill="black" stroke="black" points="522.86,-178.5 532.86,-175 522.86,-171.5 522.86,-178.5"/>
</g>
</g>
</svg>
