<?xml version="1.0" encoding="UTF-8" standalone="no"?>
<!DOCTYPE svg PUBLIC "-//W3C//DTD SVG 1.1//EN"
 "http://www.w3.org/Graphics/SVG/1.1/DTD/svg11.dtd">
<!-- Generated by graphviz version 2.46.0 (20210119.1425)
 -->
<!-- Title: dependencies Pages: 1 -->
<svg width="1110pt" height="284pt"
 viewBox="0.00 0.00 1110.00 284.00" xmlns="http://www.w3.org/2000/svg" xmlns:xlink="http://www.w3.org/1999/xlink">
<g id="graph0" class="graph" transform="scale(1 1) rotate(0) translate(4 280)">
<title>dependencies</title>
<polygon fill="white" stroke="transparent" points="-4,4 -4,-280 1106,-280 1106,4 -4,4"/>
<text text-anchor="start" x="530.01" y="-42.4" font-family="sans-serif" font-weight="bold" font-size="14.00">Legend</text>
<polygon fill="#ffffb3" stroke="transparent" points="317,-10 317,-30 337,-30 337,-10 317,-10"/>
<text text-anchor="start" x="340.63" y="-15.4" font-family="sans-serif" font-size="14.00"> &#160;Declarations</text>
<polygon fill="#8dd3c7" stroke="transparent" points="430,-10 430,-30 450,-30 450,-10 430,-10"/>
<text text-anchor="start" x="453.73" y="-15.4" font-family="sans-serif" font-size="14.00"> &#160;Module</text>
<polygon fill="#80b1d3" stroke="transparent" points="516,-10 516,-30 536,-30 536,-10 516,-10"/>
<text text-anchor="start" x="539.78" y="-15.4" font-family="sans-serif" font-size="14.00"> &#160;Bootstrap</text>
<polygon fill="#fdb462" stroke="transparent" points="613,-10 613,-30 633,-30 633,-10 613,-10"/>
<text text-anchor="start" x="636.67" y="-15.4" font-family="sans-serif" font-size="14.00"> &#160;Providers</text>
<polygon fill="#fb8072" stroke="transparent" points="709,-10 709,-30 729,-30 729,-10 709,-10"/>
<text text-anchor="start" x="732.73" y="-15.4" font-family="sans-serif" font-size="14.00"> &#160;Exports</text>
<g id="clust1" class="cluster">
<title>cluster_TeachersModule</title>
<polygon fill="none" stroke="black" stroke-dasharray="1,5" points="8,-70 8,-268 1094,-268 1094,-70 8,-70"/>
</g>
<g id="clust7" class="cluster">
<title>cluster_TeachersModule_providers</title>
<polygon fill="none" stroke="black" points="516,-78 516,-130 1086,-130 1086,-78 516,-78"/>
</g>
<g id="clust5" class="cluster">
<title>cluster_TeachersModule_exports</title>
<polygon fill="none" stroke="black" points="427,-208 427,-260 619,-260 619,-208 427,-208"/>
</g>
<g id="clust4" class="cluster">
<title>cluster_TeachersModule_imports</title>
<polygon fill="none" stroke="black" points="212,-78 212,-130 508,-130 508,-78 212,-78"/>
</g>
<g id="clust2" class="cluster">
<title>cluster_TeachersModule_declarations</title>
<polygon fill="none" stroke="black" points="16,-78 16,-130 204,-130 204,-78 16,-78"/>
</g>
<!-- CourseTeachersComponent -->
<g id="node1" class="node">
<title>CourseTeachersComponent</title>
<polygon fill="#ffffb3" stroke="black" points="195.51,-122 24.49,-122 24.49,-86 195.51,-86 195.51,-122"/>
<text text-anchor="middle" x="110" y="-99.8" font-family="Times,serif" font-size="14.00">CourseTeachersComponent</text>
</g>
<!-- TeachersModule -->
<g id="node2" class="node">
<title>TeachersModule</title>
<polygon fill="#8dd3c7" stroke="black" points="578.07,-187 575.07,-191 554.07,-191 551.07,-187 467.93,-187 467.93,-151 578.07,-151 578.07,-187"/>
<text text-anchor="middle" x="523" y="-164.8" font-family="Times,serif" font-size="14.00">TeachersModule</text>
</g>
<!-- CourseTeachersComponent&#45;&gt;TeachersModule -->
<g id="edge1" class="edge">
<title>CourseTeachersComponent&#45;&gt;TeachersModule</title>
<path fill="none" stroke="black" d="M110,-122.28C110,-143.32 110,-175 110,-175 110,-175 457.73,-175 457.73,-175"/>
<polygon fill="black" stroke="black" points="457.73,-178.5 467.73,-175 457.73,-171.5 457.73,-178.5"/>
</g>
<!-- CourseTeachersComponent  -->
<g id="node5" class="node">
<title>CourseTeachersComponent </title>
<polygon fill="#fb8072" stroke="black" points="610.51,-252 435.49,-252 435.49,-216 610.51,-216 610.51,-252"/>
<text text-anchor="middle" x="523" y="-229.8" font-family="Times,serif" font-size="14.00">CourseTeachersComponent </text>
</g>
<!-- TeachersModule&#45;&gt;CourseTeachersComponent  -->
<g id="edge4" class="edge">
<title>TeachersModule&#45;&gt;CourseTeachersComponent </title>
<path fill="none" stroke="black" stroke-dasharray="5,2" d="M523,-187.11C523,-187.11 523,-205.99 523,-205.99"/>
<polygon fill="black" stroke="black" points="519.5,-205.99 523,-215.99 526.5,-205.99 519.5,-205.99"/>
</g>
<!-- MaterialModule -->
<g id="node3" class="node">
<title>MaterialModule</title>
<polygon fill="#8dd3c7" stroke="black" points="500.47,-122 497.47,-126 476.47,-126 473.47,-122 393.53,-122 393.53,-86 500.47,-86 500.47,-122"/>
<text text-anchor="middle" x="447" y="-99.8" font-family="Times,serif" font-size="14.00">MaterialModule</text>
</g>
<!-- MaterialModule&#45;&gt;TeachersModule -->
<g id="edge2" class="edge">
<title>MaterialModule&#45;&gt;TeachersModule</title>
<path fill="none" stroke="black" d="M484.23,-122.11C484.23,-122.11 484.23,-140.99 484.23,-140.99"/>
<polygon fill="black" stroke="black" points="480.73,-140.99 484.23,-150.99 487.73,-140.99 480.73,-140.99"/>
</g>
<!-- TeachersRoutingModule -->
<g id="node4" class="node">
<title>TeachersRoutingModule</title>
<polygon fill="#8dd3c7" stroke="black" points="375.68,-122 372.68,-126 351.68,-126 348.68,-122 220.32,-122 220.32,-86 375.68,-86 375.68,-122"/>
<text text-anchor="middle" x="298" y="-99.8" font-family="Times,serif" font-size="14.00">TeachersRoutingModule</text>
</g>
<!-- TeachersRoutingModule&#45;&gt;TeachersModule -->
<g id="edge3" class="edge">
<title>TeachersRoutingModule&#45;&gt;TeachersModule</title>
<path fill="none" stroke="black" d="M298,-122.02C298,-139.37 298,-163 298,-163 298,-163 457.96,-163 457.96,-163"/>
<polygon fill="black" stroke="black" points="457.96,-166.5 467.96,-163 457.96,-159.5 457.96,-166.5"/>
</g>
<!-- TeacherDataService -->
<g id="node6" class="node">
<title>TeacherDataService</title>
<ellipse fill="#fdb462" stroke="black" cx="989" cy="-104" rx="89.12" ry="18"/>
<text text-anchor="middle" x="989" y="-99.8" font-family="Times,serif" font-size="14.00">TeacherDataService</text>
</g>
<!-- TeacherDataService&#45;&gt;TeachersModule -->
<g id="edge5" class="edge">
<title>TeacherDataService&#45;&gt;TeachersModule</title>
<path fill="none" stroke="black" d="M989,-122.28C989,-143.32 989,-175 989,-175 989,-175 588.29,-175 588.29,-175"/>
<polygon fill="black" stroke="black" points="588.29,-171.5 578.29,-175 588.29,-178.5 588.29,-171.5"/>
</g>
<!-- TeacherEntityService -->
<g id="node7" class="node">
<title>TeacherEntityService</title>
<ellipse fill="#fdb462" stroke="black" cx="787" cy="-104" rx="94.88" ry="18"/>
<text text-anchor="middle" x="787" y="-99.8" font-family="Times,serif" font-size="14.00">TeacherEntityService</text>
</g>
<!-- TeacherEntityService&#45;&gt;TeachersModule -->
<g id="edge6" class="edge">
<title>TeacherEntityService&#45;&gt;TeachersModule</title>
<path fill="none" stroke="black" d="M787,-122.02C787,-139.37 787,-163 787,-163 787,-163 588.34,-163 588.34,-163"/>
<polygon fill="black" stroke="black" points="588.34,-159.5 578.34,-163 588.34,-166.5 588.34,-159.5"/>
</g>
<!-- TeachersService -->
<g id="node8" class="node">
<title>TeachersService</title>
<ellipse fill="#fdb462" stroke="black" cx="599" cy="-104" rx="74.67" ry="18"/>
<text text-anchor="middle" x="599" y="-99.8" font-family="Times,serif" font-size="14.00">TeachersService</text>
</g>
<!-- TeachersService&#45;&gt;TeachersModule -->
<g id="edge7" class="edge">
<title>TeachersService&#45;&gt;TeachersModule</title>
<path fill="none" stroke="black" d="M551.1,-118.1C551.1,-118.1 551.1,-140.72 551.1,-140.72"/>
<polygon fill="black" stroke="black" points="547.6,-140.72 551.1,-150.72 554.6,-140.72 547.6,-140.72"/>
</g>
</g>
</svg>
