<?xml version="1.0" encoding="UTF-8" standalone="no"?>
<!DOCTYPE svg PUBLIC "-//W3C//DTD SVG 1.1//EN"
 "http://www.w3.org/Graphics/SVG/1.1/DTD/svg11.dtd">
<!-- Generated by graphviz version 2.47.0 (20210316.0004)
 -->
<!-- Title: dependencies Pages: 1 -->
<svg width="1110pt" height="284pt"
 viewBox="0.00 0.00 1110.00 284.00" xmlns="http://www.w3.org/2000/svg" xmlns:xlink="http://www.w3.org/1999/xlink">
<g id="graph0" class="graph" transform="scale(1 1) rotate(0) translate(4 280)">
<title>dependencies</title>
<polygon fill="white" stroke="transparent" points="-4,4 -4,-280 1106,-280 1106,4 -4,4"/>
<text text-anchor="start" x="530.01" y="-42.4" font-family="sans-serif" font-weight="bold" font-size="14.00">Legend</text>
<polygon fill="#ffffb3" stroke="transparent" points="317,-10 317,-30 337,-30 337,-10 317,-10"/>
<text text-anchor="start" x="340.63" y="-15.4" font-family="sans-serif" font-size="14.00"> &#160;Declarations</text>
<polygon fill="#8dd3c7" stroke="transparent" points="430,-10 430,-30 450,-30 450,-10 430,-10"/>
<text text-anchor="start" x="453.73" y="-15.4" font-family="sans-serif" font-size="14.00"> &#160;Module</text>
<polygon fill="#80b1d3" stroke="transparent" points="516,-10 516,-30 536,-30 536,-10 516,-10"/>
<text text-anchor="start" x="539.78" y="-15.4" font-family="sans-serif" font-size="14.00"> &#160;Bootstrap</text>
<polygon fill="#fdb462" stroke="transparent" points="613,-10 613,-30 633,-30 633,-10 613,-10"/>
<text text-anchor="start" x="636.67" y="-15.4" font-family="sans-serif" font-size="14.00"> &#160;Providers</text>
<polygon fill="#fb8072" stroke="transparent" points="709,-10 709,-30 729,-30 729,-10 709,-10"/>
<text text-anchor="start" x="732.73" y="-15.4" font-family="sans-serif" font-size="14.00"> &#160;Exports</text>
<g id="clust1" class="cluster">
<title>cluster_TeachersModule</title>
<polygon fill="none" stroke="black" stroke-dasharray="1,5" points="8,-70 8,-268 1094,-268 1094,-70 8,-70"/>
</g>
<g id="clust4" class="cluster">
<title>cluster_TeachersModule_imports</title>
<polygon fill="none" stroke="black" points="790,-78 790,-130 1086,-130 1086,-78 790,-78"/>
</g>
<g id="clust7" class="cluster">
<title>cluster_TeachersModule_providers</title>
<polygon fill="none" stroke="black" points="212,-78 212,-130 782,-130 782,-78 212,-78"/>
</g>
<g id="clust5" class="cluster">
<title>cluster_TeachersModule_exports</title>
<polygon fill="none" stroke="black" points="488,-208 488,-260 680,-260 680,-208 488,-208"/>
</g>
<g id="clust2" class="cluster">
<title>cluster_TeachersModule_declarations</title>
<polygon fill="none" stroke="black" points="16,-78 16,-130 204,-130 204,-78 16,-78"/>
</g>
<!-- CourseTeachersComponent -->
<g id="node1" class="node">
<title>CourseTeachersComponent</title>
<polygon fill="#ffffb3" stroke="black" points="195.51,-122 24.49,-122 24.49,-86 195.51,-86 195.51,-122"/>
<text text-anchor="middle" x="110" y="-99.8" font-family="Times,serif" font-size="14.00">CourseTeachersComponent</text>
</g>
<!-- TeachersModule -->
<g id="node2" class="node">
<title>TeachersModule</title>
<polygon fill="#8dd3c7" stroke="black" points="639.07,-187 636.07,-191 615.07,-191 612.07,-187 528.93,-187 528.93,-151 639.07,-151 639.07,-187"/>
<text text-anchor="middle" x="584" y="-164.8" font-family="Times,serif" font-size="14.00">TeachersModule</text>
</g>
<!-- CourseTeachersComponent&#45;&gt;TeachersModule -->
<g id="edge1" class="edge">
<title>CourseTeachersComponent&#45;&gt;TeachersModule</title>
<path fill="none" stroke="black" d="M110,-122.28C110,-143.32 110,-175 110,-175 110,-175 518.7,-175 518.7,-175"/>
<polygon fill="black" stroke="black" points="518.7,-178.5 528.7,-175 518.7,-171.5 518.7,-178.5"/>
</g>
<!-- CourseTeachersComponent  -->
<g id="node5" class="node">
<title>CourseTeachersComponent </title>
<polygon fill="#fb8072" stroke="black" points="671.51,-252 496.49,-252 496.49,-216 671.51,-216 671.51,-252"/>
<text text-anchor="middle" x="584" y="-229.8" font-family="Times,serif" font-size="14.00">CourseTeachersComponent </text>
</g>
<!-- TeachersModule&#45;&gt;CourseTeachersComponent  -->
<g id="edge4" class="edge">
<title>TeachersModule&#45;&gt;CourseTeachersComponent </title>
<path fill="none" stroke="black" stroke-dasharray="5,2" d="M584,-187.11C584,-187.11 584,-205.99 584,-205.99"/>
<polygon fill="black" stroke="black" points="580.5,-205.99 584,-215.99 587.5,-205.99 580.5,-205.99"/>
</g>
<!-- MaterialModule -->
<g id="node3" class="node">
<title>MaterialModule</title>
<polygon fill="#8dd3c7" stroke="black" points="1078.47,-122 1075.47,-126 1054.47,-126 1051.47,-122 971.53,-122 971.53,-86 1078.47,-86 1078.47,-122"/>
<text text-anchor="middle" x="1025" y="-99.8" font-family="Times,serif" font-size="14.00">MaterialModule</text>
</g>
<!-- MaterialModule&#45;&gt;TeachersModule -->
<g id="edge2" class="edge">
<title>MaterialModule&#45;&gt;TeachersModule</title>
<path fill="none" stroke="black" d="M1025,-122.28C1025,-143.32 1025,-175 1025,-175 1025,-175 649.41,-175 649.41,-175"/>
<polygon fill="black" stroke="black" points="649.41,-171.5 639.41,-175 649.41,-178.5 649.41,-171.5"/>
</g>
<!-- TeachersRoutingModule -->
<g id="node4" class="node">
<title>TeachersRoutingModule</title>
<polygon fill="#8dd3c7" stroke="black" points="953.68,-122 950.68,-126 929.68,-126 926.68,-122 798.32,-122 798.32,-86 953.68,-86 953.68,-122"/>
<text text-anchor="middle" x="876" y="-99.8" font-family="Times,serif" font-size="14.00">TeachersRoutingModule</text>
</g>
<!-- TeachersRoutingModule&#45;&gt;TeachersModule -->
<g id="edge3" class="edge">
<title>TeachersRoutingModule&#45;&gt;TeachersModule</title>
<path fill="none" stroke="black" d="M876,-122.02C876,-139.37 876,-163 876,-163 876,-163 649.27,-163 649.27,-163"/>
<polygon fill="black" stroke="black" points="649.27,-159.5 639.27,-163 649.27,-166.5 649.27,-159.5"/>
</g>
<!-- TeacherDataService -->
<g id="node6" class="node">
<title>TeacherDataService</title>
<ellipse fill="#fdb462" stroke="black" cx="685" cy="-104" rx="89.12" ry="18"/>
<text text-anchor="middle" x="685" y="-99.8" font-family="Times,serif" font-size="14.00">TeacherDataService</text>
</g>
<!-- TeacherDataService&#45;&gt;TeachersModule -->
<g id="edge5" class="edge">
<title>TeacherDataService&#45;&gt;TeachersModule</title>
<path fill="none" stroke="black" d="M617.36,-115.92C617.36,-115.92 617.36,-140.77 617.36,-140.77"/>
<polygon fill="black" stroke="black" points="613.86,-140.77 617.36,-150.77 620.86,-140.77 613.86,-140.77"/>
</g>
<!-- TeacherEntityService -->
<g id="node7" class="node">
<title>TeacherEntityService</title>
<ellipse fill="#fdb462" stroke="black" cx="483" cy="-104" rx="94.88" ry="18"/>
<text text-anchor="middle" x="483" y="-99.8" font-family="Times,serif" font-size="14.00">TeacherEntityService</text>
</g>
<!-- TeacherEntityService&#45;&gt;TeachersModule -->
<g id="edge6" class="edge">
<title>TeacherEntityService&#45;&gt;TeachersModule</title>
<path fill="none" stroke="black" d="M553.33,-116.23C553.33,-116.23 553.33,-140.68 553.33,-140.68"/>
<polygon fill="black" stroke="black" points="549.83,-140.68 553.33,-150.68 556.83,-140.68 549.83,-140.68"/>
</g>
<!-- TeachersService -->
<g id="node8" class="node">
<title>TeachersService</title>
<ellipse fill="#fdb462" stroke="black" cx="295" cy="-104" rx="74.67" ry="18"/>
<text text-anchor="middle" x="295" y="-99.8" font-family="Times,serif" font-size="14.00">TeachersService</text>
</g>
<!-- TeachersService&#45;&gt;TeachersModule -->
<g id="edge7" class="edge">
<title>TeachersService&#45;&gt;TeachersModule</title>
<path fill="none" stroke="black" d="M295,-122.02C295,-139.37 295,-163 295,-163 295,-163 518.96,-163 518.96,-163"/>
<polygon fill="black" stroke="black" points="518.96,-166.5 528.96,-163 518.96,-159.5 518.96,-166.5"/>
</g>
</g>
</svg>
