<?xml version="1.0" encoding="UTF-8" standalone="no"?>
<!DOCTYPE svg PUBLIC "-//W3C//DTD SVG 1.1//EN"
 "http://www.w3.org/Graphics/SVG/1.1/DTD/svg11.dtd">
<!-- Generated by graphviz version 2.46.0 (20210119.1425)
 -->
<!-- Title: dependencies Pages: 1 -->
<svg width="3192pt" height="211pt"
 viewBox="0.00 0.00 3192.00 211.00" xmlns="http://www.w3.org/2000/svg" xmlns:xlink="http://www.w3.org/1999/xlink">
<g id="graph0" class="graph" transform="scale(1 1) rotate(0) translate(4 207)">
<title>dependencies</title>
<polygon fill="white" stroke="transparent" points="-4,4 -4,-207 3188,-207 3188,4 -4,4"/>
<text text-anchor="start" x="1571.01" y="-42.4" font-family="sans-serif" font-weight="bold" font-size="14.00">Legend</text>
<polygon fill="#ffffb3" stroke="transparent" points="1358,-10 1358,-30 1378,-30 1378,-10 1358,-10"/>
<text text-anchor="start" x="1381.63" y="-15.4" font-family="sans-serif" font-size="14.00"> &#160;Declarations</text>
<polygon fill="#8dd3c7" stroke="transparent" points="1471,-10 1471,-30 1491,-30 1491,-10 1471,-10"/>
<text text-anchor="start" x="1494.73" y="-15.4" font-family="sans-serif" font-size="14.00"> &#160;Module</text>
<polygon fill="#80b1d3" stroke="transparent" points="1557,-10 1557,-30 1577,-30 1577,-10 1557,-10"/>
<text text-anchor="start" x="1580.78" y="-15.4" font-family="sans-serif" font-size="14.00"> &#160;Bootstrap</text>
<polygon fill="#fdb462" stroke="transparent" points="1654,-10 1654,-30 1674,-30 1674,-10 1654,-10"/>
<text text-anchor="start" x="1677.67" y="-15.4" font-family="sans-serif" font-size="14.00"> &#160;Providers</text>
<polygon fill="#fb8072" stroke="transparent" points="1750,-10 1750,-30 1770,-30 1770,-10 1750,-10"/>
<text text-anchor="start" x="1773.73" y="-15.4" font-family="sans-serif" font-size="14.00"> &#160;Exports</text>
<g id="clust1" class="cluster">
<title>cluster_GradesModule</title>
<polygon fill="none" stroke="black" stroke-dasharray="1,5" points="8,-70 8,-195 3176,-195 3176,-70 8,-70"/>
</g>
<g id="clust10" class="cluster">
<title>cluster_GradesModule_providers</title>
<polygon fill="none" stroke="black" points="998,-78 998,-130 3168,-130 3168,-78 998,-78"/>
</g>
<g id="clust2" class="cluster">
<title>cluster_GradesModule_declarations</title>
<polygon fill="none" stroke="black" points="309,-78 309,-130 990,-130 990,-78 309,-78"/>
</g>
<g id="clust7" class="cluster">
<title>cluster_GradesModule_imports</title>
<polygon fill="none" stroke="black" points="16,-78 16,-130 301,-130 301,-78 16,-78"/>
</g>
<!-- GradeCourseComponent -->
<g id="node1" class="node">
<title>GradeCourseComponent</title>
<polygon fill="#ffffb3" stroke="black" points="981.69,-122 826.31,-122 826.31,-86 981.69,-86 981.69,-122"/>
<text text-anchor="middle" x="904" y="-99.8" font-family="Times,serif" font-size="14.00">GradeCourseComponent</text>
</g>
<!-- GradesModule -->
<g id="node5" class="node">
<title>GradesModule</title>
<polygon fill="#8dd3c7" stroke="black" points="1586.69,-187 1583.69,-191 1562.69,-191 1559.69,-187 1487.31,-187 1487.31,-151 1586.69,-151 1586.69,-187"/>
<text text-anchor="middle" x="1537" y="-164.8" font-family="Times,serif" font-size="14.00">GradesModule</text>
</g>
<!-- GradeCourseComponent&#45;&gt;GradesModule -->
<g id="edge1" class="edge">
<title>GradeCourseComponent&#45;&gt;GradesModule</title>
<path fill="none" stroke="black" d="M904,-122.02C904,-139.37 904,-163 904,-163 904,-163 1477.33,-163 1477.33,-163"/>
<polygon fill="black" stroke="black" points="1477.33,-166.5 1487.33,-163 1477.33,-159.5 1477.33,-166.5"/>
</g>
<!-- GradesComponent -->
<g id="node2" class="node">
<title>GradesComponent</title>
<polygon fill="#ffffb3" stroke="black" points="808.47,-122 687.53,-122 687.53,-86 808.47,-86 808.47,-122"/>
<text text-anchor="middle" x="748" y="-99.8" font-family="Times,serif" font-size="14.00">GradesComponent</text>
</g>
<!-- GradesComponent&#45;&gt;GradesModule -->
<g id="edge2" class="edge">
<title>GradesComponent&#45;&gt;GradesModule</title>
<path fill="none" stroke="black" d="M748,-122.22C748,-140.83 748,-167 748,-167 748,-167 1477.35,-167 1477.35,-167"/>
<polygon fill="black" stroke="black" points="1477.35,-170.5 1487.35,-167 1477.35,-163.5 1477.35,-170.5"/>
</g>
<!-- GradesWellcomeComponent -->
<g id="node3" class="node">
<title>GradesWellcomeComponent</title>
<polygon fill="#ffffb3" stroke="black" points="669,-122 491,-122 491,-86 669,-86 669,-122"/>
<text text-anchor="middle" x="580" y="-99.8" font-family="Times,serif" font-size="14.00">GradesWellcomeComponent</text>
</g>
<!-- GradesWellcomeComponent&#45;&gt;GradesModule -->
<g id="edge3" class="edge">
<title>GradesWellcomeComponent&#45;&gt;GradesModule</title>
<path fill="none" stroke="black" d="M580,-122.31C580,-142.15 580,-171 580,-171 580,-171 1477.23,-171 1477.23,-171"/>
<polygon fill="black" stroke="black" points="1477.23,-174.5 1487.23,-171 1477.23,-167.5 1477.23,-174.5"/>
</g>
<!-- SelectCourseComponent -->
<g id="node4" class="node">
<title>SelectCourseComponent</title>
<polygon fill="#ffffb3" stroke="black" points="472.7,-122 317.3,-122 317.3,-86 472.7,-86 472.7,-122"/>
<text text-anchor="middle" x="395" y="-99.8" font-family="Times,serif" font-size="14.00">SelectCourseComponent</text>
</g>
<!-- SelectCourseComponent&#45;&gt;GradesModule -->
<g id="edge4" class="edge">
<title>SelectCourseComponent&#45;&gt;GradesModule</title>
<path fill="none" stroke="black" d="M395,-122.28C395,-143.32 395,-175 395,-175 395,-175 1477.2,-175 1477.2,-175"/>
<polygon fill="black" stroke="black" points="1477.2,-178.5 1487.2,-175 1477.2,-171.5 1477.2,-178.5"/>
</g>
<!-- GradesRoutingModule -->
<g id="node6" class="node">
<title>GradesRoutingModule</title>
<polygon fill="#8dd3c7" stroke="black" points="293.31,-122 290.31,-126 269.31,-126 266.31,-122 148.69,-122 148.69,-86 293.31,-86 293.31,-122"/>
<text text-anchor="middle" x="221" y="-99.8" font-family="Times,serif" font-size="14.00">GradesRoutingModule</text>
</g>
<!-- GradesRoutingModule&#45;&gt;GradesModule -->
<g id="edge5" class="edge">
<title>GradesRoutingModule&#45;&gt;GradesModule</title>
<path fill="none" stroke="black" d="M221,-122.16C221,-144.35 221,-179 221,-179 221,-179 1477.02,-179 1477.02,-179"/>
<polygon fill="black" stroke="black" points="1477.02,-182.5 1487.02,-179 1477.02,-175.5 1477.02,-182.5"/>
</g>
<!-- MaterialModule -->
<g id="node7" class="node">
<title>MaterialModule</title>
<polygon fill="#8dd3c7" stroke="black" points="130.47,-122 127.47,-126 106.47,-126 103.47,-122 23.53,-122 23.53,-86 130.47,-86 130.47,-122"/>
<text text-anchor="middle" x="77" y="-99.8" font-family="Times,serif" font-size="14.00">MaterialModule</text>
</g>
<!-- MaterialModule&#45;&gt;GradesModule -->
<g id="edge6" class="edge">
<title>MaterialModule&#45;&gt;GradesModule</title>
<path fill="none" stroke="black" d="M77,-122.32C77,-145.66 77,-183 77,-183 77,-183 1477.17,-183 1477.17,-183"/>
<polygon fill="black" stroke="black" points="1477.17,-186.5 1487.17,-183 1477.17,-179.5 1477.17,-186.5"/>
</g>
<!-- CourseDataService -->
<g id="node8" class="node">
<title>CourseDataService</title>
<ellipse fill="#fdb462" stroke="black" cx="3074" cy="-104" rx="85.65" ry="18"/>
<text text-anchor="middle" x="3074" y="-99.8" font-family="Times,serif" font-size="14.00">CourseDataService</text>
</g>
<!-- CourseDataService&#45;&gt;GradesModule -->
<g id="edge7" class="edge">
<title>CourseDataService&#45;&gt;GradesModule</title>
<path fill="none" stroke="black" d="M3074,-122.32C3074,-145.66 3074,-183 3074,-183 3074,-183 1596.83,-183 1596.83,-183"/>
<polygon fill="black" stroke="black" points="1596.83,-179.5 1586.83,-183 1596.83,-186.5 1596.83,-179.5"/>
</g>
<!-- CourseEntityService -->
<g id="node9" class="node">
<title>CourseEntityService</title>
<ellipse fill="#fdb462" stroke="black" cx="2879" cy="-104" rx="90.91" ry="18"/>
<text text-anchor="middle" x="2879" y="-99.8" font-family="Times,serif" font-size="14.00">CourseEntityService</text>
</g>
<!-- CourseEntityService&#45;&gt;GradesModule -->
<g id="edge8" class="edge">
<title>CourseEntityService&#45;&gt;GradesModule</title>
<path fill="none" stroke="black" d="M2879,-122.16C2879,-144.35 2879,-179 2879,-179 2879,-179 1596.76,-179 1596.76,-179"/>
<polygon fill="black" stroke="black" points="1596.76,-175.5 1586.76,-179 1596.76,-182.5 1596.76,-175.5"/>
</g>
<!-- CoursesService -->
<g id="node10" class="node">
<title>CoursesService</title>
<ellipse fill="#fdb462" stroke="black" cx="2699" cy="-104" rx="71.2" ry="18"/>
<text text-anchor="middle" x="2699" y="-99.8" font-family="Times,serif" font-size="14.00">CoursesService</text>
</g>
<!-- CoursesService&#45;&gt;GradesModule -->
<g id="edge9" class="edge">
<title>CoursesService&#45;&gt;GradesModule</title>
<path fill="none" stroke="black" d="M2699,-122.28C2699,-143.32 2699,-175 2699,-175 2699,-175 1596.93,-175 1596.93,-175"/>
<polygon fill="black" stroke="black" points="1596.93,-171.5 1586.93,-175 1596.93,-178.5 1596.93,-171.5"/>
</g>
<!-- StudentDataService -->
<g id="node11" class="node">
<title>StudentDataService</title>
<ellipse fill="#fdb462" stroke="black" cx="2522" cy="-104" rx="87.96" ry="18"/>
<text text-anchor="middle" x="2522" y="-99.8" font-family="Times,serif" font-size="14.00">StudentDataService</text>
</g>
<!-- StudentDataService&#45;&gt;GradesModule -->
<g id="edge10" class="edge">
<title>StudentDataService&#45;&gt;GradesModule</title>
<path fill="none" stroke="black" d="M2522,-122.31C2522,-142.15 2522,-171 2522,-171 2522,-171 1596.86,-171 1596.86,-171"/>
<polygon fill="black" stroke="black" points="1596.86,-167.5 1586.86,-171 1596.86,-174.5 1596.86,-167.5"/>
</g>
<!-- StudentEntityService -->
<g id="node12" class="node">
<title>StudentEntityService</title>
<ellipse fill="#fdb462" stroke="black" cx="2323" cy="-104" rx="93.21" ry="18"/>
<text text-anchor="middle" x="2323" y="-99.8" font-family="Times,serif" font-size="14.00">StudentEntityService</text>
</g>
<!-- StudentEntityService&#45;&gt;GradesModule -->
<g id="edge11" class="edge">
<title>StudentEntityService&#45;&gt;GradesModule</title>
<path fill="none" stroke="black" d="M2323,-122.22C2323,-140.83 2323,-167 2323,-167 2323,-167 1596.76,-167 1596.76,-167"/>
<polygon fill="black" stroke="black" points="1596.76,-163.5 1586.76,-167 1596.76,-170.5 1596.76,-163.5"/>
</g>
<!-- TeacherDataService -->
<g id="node13" class="node">
<title>TeacherDataService</title>
<ellipse fill="#fdb462" stroke="black" cx="2123" cy="-104" rx="89.12" ry="18"/>
<text text-anchor="middle" x="2123" y="-99.8" font-family="Times,serif" font-size="14.00">TeacherDataService</text>
</g>
<!-- TeacherDataService&#45;&gt;GradesModule -->
<g id="edge12" class="edge">
<title>TeacherDataService&#45;&gt;GradesModule</title>
<path fill="none" stroke="black" d="M2123,-122.02C2123,-139.37 2123,-163 2123,-163 2123,-163 1596.71,-163 1596.71,-163"/>
<polygon fill="black" stroke="black" points="1596.71,-159.5 1586.71,-163 1596.71,-166.5 1596.71,-159.5"/>
</g>
<!-- TeacherEntityService -->
<g id="node14" class="node">
<title>TeacherEntityService</title>
<ellipse fill="#fdb462" stroke="black" cx="1921" cy="-104" rx="94.88" ry="18"/>
<text text-anchor="middle" x="1921" y="-99.8" font-family="Times,serif" font-size="14.00">TeacherEntityService</text>
</g>
<!-- TeacherEntityService&#45;&gt;GradesModule -->
<g id="edge13" class="edge">
<title>TeacherEntityService&#45;&gt;GradesModule</title>
<path fill="none" stroke="black" d="M1921,-122.01C1921,-138.05 1921,-159 1921,-159 1921,-159 1596.81,-159 1596.81,-159"/>
<polygon fill="black" stroke="black" points="1596.81,-155.5 1586.81,-159 1596.81,-162.5 1596.81,-155.5"/>
</g>
<!-- TeachersService -->
<g id="node15" class="node">
<title>TeachersService</title>
<ellipse fill="#fdb462" stroke="black" cx="1733" cy="-104" rx="74.67" ry="18"/>
<text text-anchor="middle" x="1733" y="-99.8" font-family="Times,serif" font-size="14.00">TeachersService</text>
</g>
<!-- TeachersService&#45;&gt;GradesModule -->
<g id="edge14" class="edge">
<title>TeachersService&#45;&gt;GradesModule</title>
<path fill="none" stroke="black" d="M1733,-122.12C1733,-136.78 1733,-155 1733,-155 1733,-155 1596.71,-155 1596.71,-155"/>
<polygon fill="black" stroke="black" points="1596.71,-151.5 1586.71,-155 1596.71,-158.5 1596.71,-151.5"/>
</g>
<!-- UserProfileDataService -->
<g id="node16" class="node">
<title>UserProfileDataService</title>
<ellipse fill="#fdb462" stroke="black" cx="1537" cy="-104" rx="102.96" ry="18"/>
<text text-anchor="middle" x="1537" y="-99.8" font-family="Times,serif" font-size="14.00">UserProfileDataService</text>
</g>
<!-- UserProfileDataService&#45;&gt;GradesModule -->
<g id="edge15" class="edge">
<title>UserProfileDataService&#45;&gt;GradesModule</title>
<path fill="none" stroke="black" d="M1537,-122.11C1537,-122.11 1537,-140.99 1537,-140.99"/>
<polygon fill="black" stroke="black" points="1533.5,-140.99 1537,-150.99 1540.5,-140.99 1533.5,-140.99"/>
</g>
<!-- UserProfileEntityService -->
<g id="node17" class="node">
<title>UserProfileEntityService</title>
<ellipse fill="#fdb462" stroke="black" cx="1308" cy="-104" rx="108.22" ry="18"/>
<text text-anchor="middle" x="1308" y="-99.8" font-family="Times,serif" font-size="14.00">UserProfileEntityService</text>
</g>
<!-- UserProfileEntityService&#45;&gt;GradesModule -->
<g id="edge16" class="edge">
<title>UserProfileEntityService&#45;&gt;GradesModule</title>
<path fill="none" stroke="black" d="M1308,-122.12C1308,-136.78 1308,-155 1308,-155 1308,-155 1477.31,-155 1477.31,-155"/>
<polygon fill="black" stroke="black" points="1477.31,-158.5 1487.31,-155 1477.31,-151.5 1477.31,-158.5"/>
</g>
<!-- UserProfilesService -->
<g id="node18" class="node">
<title>UserProfilesService</title>
<ellipse fill="#fdb462" stroke="black" cx="1094" cy="-104" rx="88.01" ry="18"/>
<text text-anchor="middle" x="1094" y="-99.8" font-family="Times,serif" font-size="14.00">UserProfilesService</text>
</g>
<!-- UserProfilesService&#45;&gt;GradesModule -->
<g id="edge17" class="edge">
<title>UserProfilesService&#45;&gt;GradesModule</title>
<path fill="none" stroke="black" d="M1094,-122.01C1094,-138.05 1094,-159 1094,-159 1094,-159 1477.04,-159 1477.04,-159"/>
<polygon fill="black" stroke="black" points="1477.04,-162.5 1487.04,-159 1477.04,-155.5 1477.04,-162.5"/>
</g>
</g>
</svg>
