<?xml version="1.0" encoding="UTF-8" standalone="no"?>
<!DOCTYPE svg PUBLIC "-//W3C//DTD SVG 1.1//EN"
 "http://www.w3.org/Graphics/SVG/1.1/DTD/svg11.dtd">
<!-- Generated by graphviz version 2.46.0 (20210119.1425)
 -->
<!-- Title: dependencies Pages: 1 -->
<svg width="3192pt" height="211pt"
 viewBox="0.00 0.00 3192.00 211.00" xmlns="http://www.w3.org/2000/svg" xmlns:xlink="http://www.w3.org/1999/xlink">
<g id="graph0" class="graph" transform="scale(1 1) rotate(0) translate(4 207)">
<title>dependencies</title>
<polygon fill="white" stroke="transparent" points="-4,4 -4,-207 3188,-207 3188,4 -4,4"/>
<text text-anchor="start" x="1571.01" y="-42.4" font-family="sans-serif" font-weight="bold" font-size="14.00">Legend</text>
<polygon fill="#ffffb3" stroke="transparent" points="1358,-10 1358,-30 1378,-30 1378,-10 1358,-10"/>
<text text-anchor="start" x="1381.63" y="-15.4" font-family="sans-serif" font-size="14.00"> &#160;Declarations</text>
<polygon fill="#8dd3c7" stroke="transparent" points="1471,-10 1471,-30 1491,-30 1491,-10 1471,-10"/>
<text text-anchor="start" x="1494.73" y="-15.4" font-family="sans-serif" font-size="14.00"> &#160;Module</text>
<polygon fill="#80b1d3" stroke="transparent" points="1557,-10 1557,-30 1577,-30 1577,-10 1557,-10"/>
<text text-anchor="start" x="1580.78" y="-15.4" font-family="sans-serif" font-size="14.00"> &#160;Bootstrap</text>
<polygon fill="#fdb462" stroke="transparent" points="1654,-10 1654,-30 1674,-30 1674,-10 1654,-10"/>
<text text-anchor="start" x="1677.67" y="-15.4" font-family="sans-serif" font-size="14.00"> &#160;Providers</text>
<polygon fill="#fb8072" stroke="transparent" points="1750,-10 1750,-30 1770,-30 1770,-10 1750,-10"/>
<text text-anchor="start" x="1773.73" y="-15.4" font-family="sans-serif" font-size="14.00"> &#160;Exports</text>
<g id="clust1" class="cluster">
<title>cluster_GradesModule</title>
<polygon fill="none" stroke="black" stroke-dasharray="1,5" points="8,-70 8,-195 3176,-195 3176,-70 8,-70"/>
</g>
<g id="clust2" class="cluster">
<title>cluster_GradesModule_declarations</title>
<polygon fill="none" stroke="black" points="2487,-78 2487,-130 3168,-130 3168,-78 2487,-78"/>
</g>
<g id="clust10" class="cluster">
<title>cluster_GradesModule_providers</title>
<polygon fill="none" stroke="black" points="309,-78 309,-130 2479,-130 2479,-78 309,-78"/>
</g>
<g id="clust7" class="cluster">
<title>cluster_GradesModule_imports</title>
<polygon fill="none" stroke="black" points="16,-78 16,-130 301,-130 301,-78 16,-78"/>
</g>
<!-- GradeCourseComponent -->
<g id="node1" class="node">
<title>GradeCourseComponent</title>
<polygon fill="#ffffb3" stroke="black" points="3159.69,-122 3004.31,-122 3004.31,-86 3159.69,-86 3159.69,-122"/>
<text text-anchor="middle" x="3082" y="-99.8" font-family="Times,serif" font-size="14.00">GradeCourseComponent</text>
</g>
<!-- GradesModule -->
<g id="node5" class="node">
<title>GradesModule</title>
<polygon fill="#8dd3c7" stroke="black" points="1683.69,-187 1680.69,-191 1659.69,-191 1656.69,-187 1584.31,-187 1584.31,-151 1683.69,-151 1683.69,-187"/>
<text text-anchor="middle" x="1634" y="-164.8" font-family="Times,serif" font-size="14.00">GradesModule</text>
</g>
<!-- GradeCourseComponent&#45;&gt;GradesModule -->
<g id="edge1" class="edge">
<title>GradeCourseComponent&#45;&gt;GradesModule</title>
<path fill="none" stroke="black" d="M3082,-122.32C3082,-145.66 3082,-183 3082,-183 3082,-183 1693.84,-183 1693.84,-183"/>
<polygon fill="black" stroke="black" points="1693.84,-179.5 1683.84,-183 1693.84,-186.5 1693.84,-179.5"/>
</g>
<!-- GradesComponent -->
<g id="node2" class="node">
<title>GradesComponent</title>
<polygon fill="#ffffb3" stroke="black" points="2986.47,-122 2865.53,-122 2865.53,-86 2986.47,-86 2986.47,-122"/>
<text text-anchor="middle" x="2926" y="-99.8" font-family="Times,serif" font-size="14.00">GradesComponent</text>
</g>
<!-- GradesComponent&#45;&gt;GradesModule -->
<g id="edge2" class="edge">
<title>GradesComponent&#45;&gt;GradesModule</title>
<path fill="none" stroke="black" d="M2926,-122.16C2926,-144.35 2926,-179 2926,-179 2926,-179 1693.86,-179 1693.86,-179"/>
<polygon fill="black" stroke="black" points="1693.86,-175.5 1683.86,-179 1693.86,-182.5 1693.86,-175.5"/>
</g>
<!-- GradesWellcomeComponent -->
<g id="node3" class="node">
<title>GradesWellcomeComponent</title>
<polygon fill="#ffffb3" stroke="black" points="2847,-122 2669,-122 2669,-86 2847,-86 2847,-122"/>
<text text-anchor="middle" x="2758" y="-99.8" font-family="Times,serif" font-size="14.00">GradesWellcomeComponent</text>
</g>
<!-- GradesWellcomeComponent&#45;&gt;GradesModule -->
<g id="edge3" class="edge">
<title>GradesWellcomeComponent&#45;&gt;GradesModule</title>
<path fill="none" stroke="black" d="M2758,-122.28C2758,-143.32 2758,-175 2758,-175 2758,-175 1693.75,-175 1693.75,-175"/>
<polygon fill="black" stroke="black" points="1693.75,-171.5 1683.75,-175 1693.75,-178.5 1693.75,-171.5"/>
</g>
<!-- SelectCourseComponent -->
<g id="node4" class="node">
<title>SelectCourseComponent</title>
<polygon fill="#ffffb3" stroke="black" points="2650.7,-122 2495.3,-122 2495.3,-86 2650.7,-86 2650.7,-122"/>
<text text-anchor="middle" x="2573" y="-99.8" font-family="Times,serif" font-size="14.00">SelectCourseComponent</text>
</g>
<!-- SelectCourseComponent&#45;&gt;GradesModule -->
<g id="edge4" class="edge">
<title>SelectCourseComponent&#45;&gt;GradesModule</title>
<path fill="none" stroke="black" d="M2573,-122.31C2573,-142.15 2573,-171 2573,-171 2573,-171 1693.82,-171 1693.82,-171"/>
<polygon fill="black" stroke="black" points="1693.82,-167.5 1683.82,-171 1693.82,-174.5 1693.82,-167.5"/>
</g>
<!-- GradesRoutingModule -->
<g id="node6" class="node">
<title>GradesRoutingModule</title>
<polygon fill="#8dd3c7" stroke="black" points="293.31,-122 290.31,-126 269.31,-126 266.31,-122 148.69,-122 148.69,-86 293.31,-86 293.31,-122"/>
<text text-anchor="middle" x="221" y="-99.8" font-family="Times,serif" font-size="14.00">GradesRoutingModule</text>
</g>
<!-- GradesRoutingModule&#45;&gt;GradesModule -->
<g id="edge5" class="edge">
<title>GradesRoutingModule&#45;&gt;GradesModule</title>
<path fill="none" stroke="black" d="M221,-122.16C221,-144.35 221,-179 221,-179 221,-179 1574.13,-179 1574.13,-179"/>
<polygon fill="black" stroke="black" points="1574.13,-182.5 1584.13,-179 1574.13,-175.5 1574.13,-182.5"/>
</g>
<!-- MaterialModule -->
<g id="node7" class="node">
<title>MaterialModule</title>
<polygon fill="#8dd3c7" stroke="black" points="130.47,-122 127.47,-126 106.47,-126 103.47,-122 23.53,-122 23.53,-86 130.47,-86 130.47,-122"/>
<text text-anchor="middle" x="77" y="-99.8" font-family="Times,serif" font-size="14.00">MaterialModule</text>
</g>
<!-- MaterialModule&#45;&gt;GradesModule -->
<g id="edge6" class="edge">
<title>MaterialModule&#45;&gt;GradesModule</title>
<path fill="none" stroke="black" d="M77,-122.32C77,-145.66 77,-183 77,-183 77,-183 1574.4,-183 1574.4,-183"/>
<polygon fill="black" stroke="black" points="1574.4,-186.5 1584.4,-183 1574.4,-179.5 1574.4,-186.5"/>
</g>
<!-- CourseDataService -->
<g id="node8" class="node">
<title>CourseDataService</title>
<ellipse fill="#fdb462" stroke="black" cx="2385" cy="-104" rx="85.65" ry="18"/>
<text text-anchor="middle" x="2385" y="-99.8" font-family="Times,serif" font-size="14.00">CourseDataService</text>
</g>
<!-- CourseDataService&#45;&gt;GradesModule -->
<g id="edge7" class="edge">
<title>CourseDataService&#45;&gt;GradesModule</title>
<path fill="none" stroke="black" d="M2385,-122.22C2385,-140.83 2385,-167 2385,-167 2385,-167 1693.86,-167 1693.86,-167"/>
<polygon fill="black" stroke="black" points="1693.86,-163.5 1683.86,-167 1693.86,-170.5 1693.86,-163.5"/>
</g>
<!-- CourseEntityService -->
<g id="node9" class="node">
<title>CourseEntityService</title>
<ellipse fill="#fdb462" stroke="black" cx="2190" cy="-104" rx="90.91" ry="18"/>
<text text-anchor="middle" x="2190" y="-99.8" font-family="Times,serif" font-size="14.00">CourseEntityService</text>
</g>
<!-- CourseEntityService&#45;&gt;GradesModule -->
<g id="edge8" class="edge">
<title>CourseEntityService&#45;&gt;GradesModule</title>
<path fill="none" stroke="black" d="M2190,-122.02C2190,-139.37 2190,-163 2190,-163 2190,-163 1693.83,-163 1693.83,-163"/>
<polygon fill="black" stroke="black" points="1693.83,-159.5 1683.83,-163 1693.83,-166.5 1693.83,-159.5"/>
</g>
<!-- CoursesService -->
<g id="node10" class="node">
<title>CoursesService</title>
<ellipse fill="#fdb462" stroke="black" cx="2010" cy="-104" rx="71.2" ry="18"/>
<text text-anchor="middle" x="2010" y="-99.8" font-family="Times,serif" font-size="14.00">CoursesService</text>
</g>
<!-- CoursesService&#45;&gt;GradesModule -->
<g id="edge9" class="edge">
<title>CoursesService&#45;&gt;GradesModule</title>
<path fill="none" stroke="black" d="M2010,-122.01C2010,-138.05 2010,-159 2010,-159 2010,-159 1693.93,-159 1693.93,-159"/>
<polygon fill="black" stroke="black" points="1693.93,-155.5 1683.93,-159 1693.93,-162.5 1693.93,-155.5"/>
</g>
<!-- StudentDataService -->
<g id="node11" class="node">
<title>StudentDataService</title>
<ellipse fill="#fdb462" stroke="black" cx="1833" cy="-104" rx="87.96" ry="18"/>
<text text-anchor="middle" x="1833" y="-99.8" font-family="Times,serif" font-size="14.00">StudentDataService</text>
</g>
<!-- StudentDataService&#45;&gt;GradesModule -->
<g id="edge10" class="edge">
<title>StudentDataService&#45;&gt;GradesModule</title>
<path fill="none" stroke="black" d="M1833,-122.12C1833,-136.78 1833,-155 1833,-155 1833,-155 1693.7,-155 1693.7,-155"/>
<polygon fill="black" stroke="black" points="1693.7,-151.5 1683.7,-155 1693.7,-158.5 1693.7,-151.5"/>
</g>
<!-- StudentEntityService -->
<g id="node12" class="node">
<title>StudentEntityService</title>
<ellipse fill="#fdb462" stroke="black" cx="1634" cy="-104" rx="93.21" ry="18"/>
<text text-anchor="middle" x="1634" y="-99.8" font-family="Times,serif" font-size="14.00">StudentEntityService</text>
</g>
<!-- StudentEntityService&#45;&gt;GradesModule -->
<g id="edge11" class="edge">
<title>StudentEntityService&#45;&gt;GradesModule</title>
<path fill="none" stroke="black" d="M1634,-122.11C1634,-122.11 1634,-140.99 1634,-140.99"/>
<polygon fill="black" stroke="black" points="1630.5,-140.99 1634,-150.99 1637.5,-140.99 1630.5,-140.99"/>
</g>
<!-- TeacherDataService -->
<g id="node13" class="node">
<title>TeacherDataService</title>
<ellipse fill="#fdb462" stroke="black" cx="1434" cy="-104" rx="89.12" ry="18"/>
<text text-anchor="middle" x="1434" y="-99.8" font-family="Times,serif" font-size="14.00">TeacherDataService</text>
</g>
<!-- TeacherDataService&#45;&gt;GradesModule -->
<g id="edge12" class="edge">
<title>TeacherDataService&#45;&gt;GradesModule</title>
<path fill="none" stroke="black" d="M1434,-122.12C1434,-136.78 1434,-155 1434,-155 1434,-155 1574.3,-155 1574.3,-155"/>
<polygon fill="black" stroke="black" points="1574.3,-158.5 1584.3,-155 1574.3,-151.5 1574.3,-158.5"/>
</g>
<!-- TeacherEntityService -->
<g id="node14" class="node">
<title>TeacherEntityService</title>
<ellipse fill="#fdb462" stroke="black" cx="1232" cy="-104" rx="94.88" ry="18"/>
<text text-anchor="middle" x="1232" y="-99.8" font-family="Times,serif" font-size="14.00">TeacherEntityService</text>
</g>
<!-- TeacherEntityService&#45;&gt;GradesModule -->
<g id="edge13" class="edge">
<title>TeacherEntityService&#45;&gt;GradesModule</title>
<path fill="none" stroke="black" d="M1232,-122.01C1232,-138.05 1232,-159 1232,-159 1232,-159 1574.3,-159 1574.3,-159"/>
<polygon fill="black" stroke="black" points="1574.3,-162.5 1584.3,-159 1574.3,-155.5 1574.3,-162.5"/>
</g>
<!-- TeachersService -->
<g id="node15" class="node">
<title>TeachersService</title>
<ellipse fill="#fdb462" stroke="black" cx="1044" cy="-104" rx="74.67" ry="18"/>
<text text-anchor="middle" x="1044" y="-99.8" font-family="Times,serif" font-size="14.00">TeachersService</text>
</g>
<!-- TeachersService&#45;&gt;GradesModule -->
<g id="edge14" class="edge">
<title>TeachersService&#45;&gt;GradesModule</title>
<path fill="none" stroke="black" d="M1044,-122.02C1044,-139.37 1044,-163 1044,-163 1044,-163 1574.21,-163 1574.21,-163"/>
<polygon fill="black" stroke="black" points="1574.21,-166.5 1584.21,-163 1574.21,-159.5 1574.21,-166.5"/>
</g>
<!-- UserProfileDataService -->
<g id="node16" class="node">
<title>UserProfileDataService</title>
<ellipse fill="#fdb462" stroke="black" cx="848" cy="-104" rx="102.96" ry="18"/>
<text text-anchor="middle" x="848" y="-99.8" font-family="Times,serif" font-size="14.00">UserProfileDataService</text>
</g>
<!-- UserProfileDataService&#45;&gt;GradesModule -->
<g id="edge15" class="edge">
<title>UserProfileDataService&#45;&gt;GradesModule</title>
<path fill="none" stroke="black" d="M848,-122.22C848,-140.83 848,-167 848,-167 848,-167 1574.24,-167 1574.24,-167"/>
<polygon fill="black" stroke="black" points="1574.24,-170.5 1584.24,-167 1574.24,-163.5 1574.24,-170.5"/>
</g>
<!-- UserProfileEntityService -->
<g id="node17" class="node">
<title>UserProfileEntityService</title>
<ellipse fill="#fdb462" stroke="black" cx="619" cy="-104" rx="108.22" ry="18"/>
<text text-anchor="middle" x="619" y="-99.8" font-family="Times,serif" font-size="14.00">UserProfileEntityService</text>
</g>
<!-- UserProfileEntityService&#45;&gt;GradesModule -->
<g id="edge16" class="edge">
<title>UserProfileEntityService&#45;&gt;GradesModule</title>
<path fill="none" stroke="black" d="M619,-122.31C619,-142.15 619,-171 619,-171 619,-171 1574.36,-171 1574.36,-171"/>
<polygon fill="black" stroke="black" points="1574.36,-174.5 1584.36,-171 1574.36,-167.5 1574.36,-174.5"/>
</g>
<!-- UserProfilesService -->
<g id="node18" class="node">
<title>UserProfilesService</title>
<ellipse fill="#fdb462" stroke="black" cx="405" cy="-104" rx="88.01" ry="18"/>
<text text-anchor="middle" x="405" y="-99.8" font-family="Times,serif" font-size="14.00">UserProfilesService</text>
</g>
<!-- UserProfilesService&#45;&gt;GradesModule -->
<g id="edge17" class="edge">
<title>UserProfilesService&#45;&gt;GradesModule</title>
<path fill="none" stroke="black" d="M405,-122.28C405,-143.32 405,-175 405,-175 405,-175 1574.3,-175 1574.3,-175"/>
<polygon fill="black" stroke="black" points="1574.3,-178.5 1584.3,-175 1574.3,-171.5 1574.3,-178.5"/>
</g>
</g>
</svg>
