<?xml version="1.0" encoding="UTF-8" standalone="no"?>
<!DOCTYPE svg PUBLIC "-//W3C//DTD SVG 1.1//EN"
 "http://www.w3.org/Graphics/SVG/1.1/DTD/svg11.dtd">
<!-- Generated by graphviz version 2.47.0 (20210316.0004)
 -->
<!-- Title: dependencies Pages: 1 -->
<svg width="3192pt" height="211pt"
 viewBox="0.00 0.00 3192.00 211.00" xmlns="http://www.w3.org/2000/svg" xmlns:xlink="http://www.w3.org/1999/xlink">
<g id="graph0" class="graph" transform="scale(1 1) rotate(0) translate(4 207)">
<title>dependencies</title>
<polygon fill="white" stroke="transparent" points="-4,4 -4,-207 3188,-207 3188,4 -4,4"/>
<text text-anchor="start" x="1571.01" y="-42.4" font-family="sans-serif" font-weight="bold" font-size="14.00">Legend</text>
<polygon fill="#ffffb3" stroke="transparent" points="1358,-10 1358,-30 1378,-30 1378,-10 1358,-10"/>
<text text-anchor="start" x="1381.63" y="-15.4" font-family="sans-serif" font-size="14.00"> &#160;Declarations</text>
<polygon fill="#8dd3c7" stroke="transparent" points="1471,-10 1471,-30 1491,-30 1491,-10 1471,-10"/>
<text text-anchor="start" x="1494.73" y="-15.4" font-family="sans-serif" font-size="14.00"> &#160;Module</text>
<polygon fill="#80b1d3" stroke="transparent" points="1557,-10 1557,-30 1577,-30 1577,-10 1557,-10"/>
<text text-anchor="start" x="1580.78" y="-15.4" font-family="sans-serif" font-size="14.00"> &#160;Bootstrap</text>
<polygon fill="#fdb462" stroke="transparent" points="1654,-10 1654,-30 1674,-30 1674,-10 1654,-10"/>
<text text-anchor="start" x="1677.67" y="-15.4" font-family="sans-serif" font-size="14.00"> &#160;Providers</text>
<polygon fill="#fb8072" stroke="transparent" points="1750,-10 1750,-30 1770,-30 1770,-10 1750,-10"/>
<text text-anchor="start" x="1773.73" y="-15.4" font-family="sans-serif" font-size="14.00"> &#160;Exports</text>
<g id="clust1" class="cluster">
<title>cluster_GradesModule</title>
<polygon fill="none" stroke="black" stroke-dasharray="1,5" points="8,-70 8,-195 3176,-195 3176,-70 8,-70"/>
</g>
<g id="clust2" class="cluster">
<title>cluster_GradesModule_declarations</title>
<polygon fill="none" stroke="black" points="2487,-78 2487,-130 3168,-130 3168,-78 2487,-78"/>
</g>
<g id="clust7" class="cluster">
<title>cluster_GradesModule_imports</title>
<polygon fill="none" stroke="black" points="2194,-78 2194,-130 2479,-130 2479,-78 2194,-78"/>
</g>
<g id="clust10" class="cluster">
<title>cluster_GradesModule_providers</title>
<polygon fill="none" stroke="black" points="16,-78 16,-130 2186,-130 2186,-78 16,-78"/>
</g>
<!-- GradeCourseComponent -->
<g id="node1" class="node">
<title>GradeCourseComponent</title>
<polygon fill="#ffffb3" stroke="black" points="3159.69,-122 3004.31,-122 3004.31,-86 3159.69,-86 3159.69,-122"/>
<text text-anchor="middle" x="3082" y="-99.8" font-family="Times,serif" font-size="14.00">GradeCourseComponent</text>
</g>
<!-- GradesModule -->
<g id="node5" class="node">
<title>GradesModule</title>
<polygon fill="#8dd3c7" stroke="black" points="1766.69,-187 1763.69,-191 1742.69,-191 1739.69,-187 1667.31,-187 1667.31,-151 1766.69,-151 1766.69,-187"/>
<text text-anchor="middle" x="1717" y="-164.8" font-family="Times,serif" font-size="14.00">GradesModule</text>
</g>
<!-- GradeCourseComponent&#45;&gt;GradesModule -->
<g id="edge1" class="edge">
<title>GradeCourseComponent&#45;&gt;GradesModule</title>
<path fill="none" stroke="black" d="M3082,-122.32C3082,-145.66 3082,-183 3082,-183 3082,-183 1776.79,-183 1776.79,-183"/>
<polygon fill="black" stroke="black" points="1776.79,-179.5 1766.79,-183 1776.79,-186.5 1776.79,-179.5"/>
</g>
<!-- GradesComponent -->
<g id="node2" class="node">
<title>GradesComponent</title>
<polygon fill="#ffffb3" stroke="black" points="2986.47,-122 2865.53,-122 2865.53,-86 2986.47,-86 2986.47,-122"/>
<text text-anchor="middle" x="2926" y="-99.8" font-family="Times,serif" font-size="14.00">GradesComponent</text>
</g>
<!-- GradesComponent&#45;&gt;GradesModule -->
<g id="edge2" class="edge">
<title>GradesComponent&#45;&gt;GradesModule</title>
<path fill="none" stroke="black" d="M2926,-122.16C2926,-144.35 2926,-179 2926,-179 2926,-179 1776.65,-179 1776.65,-179"/>
<polygon fill="black" stroke="black" points="1776.65,-175.5 1766.65,-179 1776.65,-182.5 1776.65,-175.5"/>
</g>
<!-- GradesWellcomeComponent -->
<g id="node3" class="node">
<title>GradesWellcomeComponent</title>
<polygon fill="#ffffb3" stroke="black" points="2847,-122 2669,-122 2669,-86 2847,-86 2847,-122"/>
<text text-anchor="middle" x="2758" y="-99.8" font-family="Times,serif" font-size="14.00">GradesWellcomeComponent</text>
</g>
<!-- GradesWellcomeComponent&#45;&gt;GradesModule -->
<g id="edge3" class="edge">
<title>GradesWellcomeComponent&#45;&gt;GradesModule</title>
<path fill="none" stroke="black" d="M2758,-122.28C2758,-143.32 2758,-175 2758,-175 2758,-175 1776.86,-175 1776.86,-175"/>
<polygon fill="black" stroke="black" points="1776.86,-171.5 1766.86,-175 1776.86,-178.5 1776.86,-171.5"/>
</g>
<!-- SelectCourseComponent -->
<g id="node4" class="node">
<title>SelectCourseComponent</title>
<polygon fill="#ffffb3" stroke="black" points="2650.7,-122 2495.3,-122 2495.3,-86 2650.7,-86 2650.7,-122"/>
<text text-anchor="middle" x="2573" y="-99.8" font-family="Times,serif" font-size="14.00">SelectCourseComponent</text>
</g>
<!-- SelectCourseComponent&#45;&gt;GradesModule -->
<g id="edge4" class="edge">
<title>SelectCourseComponent&#45;&gt;GradesModule</title>
<path fill="none" stroke="black" d="M2573,-122.31C2573,-142.15 2573,-171 2573,-171 2573,-171 1776.72,-171 1776.72,-171"/>
<polygon fill="black" stroke="black" points="1776.72,-167.5 1766.72,-171 1776.72,-174.5 1776.72,-167.5"/>
</g>
<!-- GradesRoutingModule -->
<g id="node6" class="node">
<title>GradesRoutingModule</title>
<polygon fill="#8dd3c7" stroke="black" points="2471.31,-122 2468.31,-126 2447.31,-126 2444.31,-122 2326.69,-122 2326.69,-86 2471.31,-86 2471.31,-122"/>
<text text-anchor="middle" x="2399" y="-99.8" font-family="Times,serif" font-size="14.00">GradesRoutingModule</text>
</g>
<!-- GradesRoutingModule&#45;&gt;GradesModule -->
<g id="edge5" class="edge">
<title>GradesRoutingModule&#45;&gt;GradesModule</title>
<path fill="none" stroke="black" d="M2399,-122.22C2399,-140.83 2399,-167 2399,-167 2399,-167 1776.6,-167 1776.6,-167"/>
<polygon fill="black" stroke="black" points="1776.6,-163.5 1766.6,-167 1776.6,-170.5 1776.6,-163.5"/>
</g>
<!-- MaterialModule -->
<g id="node7" class="node">
<title>MaterialModule</title>
<polygon fill="#8dd3c7" stroke="black" points="2308.47,-122 2305.47,-126 2284.47,-126 2281.47,-122 2201.53,-122 2201.53,-86 2308.47,-86 2308.47,-122"/>
<text text-anchor="middle" x="2255" y="-99.8" font-family="Times,serif" font-size="14.00">MaterialModule</text>
</g>
<!-- MaterialModule&#45;&gt;GradesModule -->
<g id="edge6" class="edge">
<title>MaterialModule&#45;&gt;GradesModule</title>
<path fill="none" stroke="black" d="M2255,-122.02C2255,-139.37 2255,-163 2255,-163 2255,-163 1776.65,-163 1776.65,-163"/>
<polygon fill="black" stroke="black" points="1776.65,-159.5 1766.65,-163 1776.65,-166.5 1776.65,-159.5"/>
</g>
<!-- CourseDataService -->
<g id="node8" class="node">
<title>CourseDataService</title>
<ellipse fill="#fdb462" stroke="black" cx="2092" cy="-104" rx="85.65" ry="18"/>
<text text-anchor="middle" x="2092" y="-99.8" font-family="Times,serif" font-size="14.00">CourseDataService</text>
</g>
<!-- CourseDataService&#45;&gt;GradesModule -->
<g id="edge7" class="edge">
<title>CourseDataService&#45;&gt;GradesModule</title>
<path fill="none" stroke="black" d="M2092,-122.01C2092,-138.05 2092,-159 2092,-159 2092,-159 1776.8,-159 1776.8,-159"/>
<polygon fill="black" stroke="black" points="1776.8,-155.5 1766.8,-159 1776.8,-162.5 1776.8,-155.5"/>
</g>
<!-- CourseEntityService -->
<g id="node9" class="node">
<title>CourseEntityService</title>
<ellipse fill="#fdb462" stroke="black" cx="1897" cy="-104" rx="90.91" ry="18"/>
<text text-anchor="middle" x="1897" y="-99.8" font-family="Times,serif" font-size="14.00">CourseEntityService</text>
</g>
<!-- CourseEntityService&#45;&gt;GradesModule -->
<g id="edge8" class="edge">
<title>CourseEntityService&#45;&gt;GradesModule</title>
<path fill="none" stroke="black" d="M1897,-122.12C1897,-136.78 1897,-155 1897,-155 1897,-155 1776.66,-155 1776.66,-155"/>
<polygon fill="black" stroke="black" points="1776.66,-151.5 1766.66,-155 1776.66,-158.5 1776.66,-151.5"/>
</g>
<!-- CoursesService -->
<g id="node10" class="node">
<title>CoursesService</title>
<ellipse fill="#fdb462" stroke="black" cx="1717" cy="-104" rx="71.2" ry="18"/>
<text text-anchor="middle" x="1717" y="-99.8" font-family="Times,serif" font-size="14.00">CoursesService</text>
</g>
<!-- CoursesService&#45;&gt;GradesModule -->
<g id="edge9" class="edge">
<title>CoursesService&#45;&gt;GradesModule</title>
<path fill="none" stroke="black" d="M1717,-122.11C1717,-122.11 1717,-140.99 1717,-140.99"/>
<polygon fill="black" stroke="black" points="1713.5,-140.99 1717,-150.99 1720.5,-140.99 1713.5,-140.99"/>
</g>
<!-- StudentDataService -->
<g id="node11" class="node">
<title>StudentDataService</title>
<ellipse fill="#fdb462" stroke="black" cx="1540" cy="-104" rx="87.96" ry="18"/>
<text text-anchor="middle" x="1540" y="-99.8" font-family="Times,serif" font-size="14.00">StudentDataService</text>
</g>
<!-- StudentDataService&#45;&gt;GradesModule -->
<g id="edge10" class="edge">
<title>StudentDataService&#45;&gt;GradesModule</title>
<path fill="none" stroke="black" d="M1540,-122.12C1540,-136.78 1540,-155 1540,-155 1540,-155 1657.22,-155 1657.22,-155"/>
<polygon fill="black" stroke="black" points="1657.22,-158.5 1667.22,-155 1657.22,-151.5 1657.22,-158.5"/>
</g>
<!-- StudentEntityService -->
<g id="node12" class="node">
<title>StudentEntityService</title>
<ellipse fill="#fdb462" stroke="black" cx="1341" cy="-104" rx="93.21" ry="18"/>
<text text-anchor="middle" x="1341" y="-99.8" font-family="Times,serif" font-size="14.00">StudentEntityService</text>
</g>
<!-- StudentEntityService&#45;&gt;GradesModule -->
<g id="edge11" class="edge">
<title>StudentEntityService&#45;&gt;GradesModule</title>
<path fill="none" stroke="black" d="M1341,-122.01C1341,-138.05 1341,-159 1341,-159 1341,-159 1657.07,-159 1657.07,-159"/>
<polygon fill="black" stroke="black" points="1657.07,-162.5 1667.07,-159 1657.07,-155.5 1657.07,-162.5"/>
</g>
<!-- TeacherDataService -->
<g id="node13" class="node">
<title>TeacherDataService</title>
<ellipse fill="#fdb462" stroke="black" cx="1141" cy="-104" rx="89.12" ry="18"/>
<text text-anchor="middle" x="1141" y="-99.8" font-family="Times,serif" font-size="14.00">TeacherDataService</text>
</g>
<!-- TeacherDataService&#45;&gt;GradesModule -->
<g id="edge12" class="edge">
<title>TeacherDataService&#45;&gt;GradesModule</title>
<path fill="none" stroke="black" d="M1141,-122.02C1141,-139.37 1141,-163 1141,-163 1141,-163 1657.39,-163 1657.39,-163"/>
<polygon fill="black" stroke="black" points="1657.39,-166.5 1667.39,-163 1657.39,-159.5 1657.39,-166.5"/>
</g>
<!-- TeacherEntityService -->
<g id="node14" class="node">
<title>TeacherEntityService</title>
<ellipse fill="#fdb462" stroke="black" cx="939" cy="-104" rx="94.88" ry="18"/>
<text text-anchor="middle" x="939" y="-99.8" font-family="Times,serif" font-size="14.00">TeacherEntityService</text>
</g>
<!-- TeacherEntityService&#45;&gt;GradesModule -->
<g id="edge13" class="edge">
<title>TeacherEntityService&#45;&gt;GradesModule</title>
<path fill="none" stroke="black" d="M939,-122.22C939,-140.83 939,-167 939,-167 939,-167 1657.15,-167 1657.15,-167"/>
<polygon fill="black" stroke="black" points="1657.15,-170.5 1667.15,-167 1657.15,-163.5 1657.15,-170.5"/>
</g>
<!-- TeachersService -->
<g id="node15" class="node">
<title>TeachersService</title>
<ellipse fill="#fdb462" stroke="black" cx="751" cy="-104" rx="74.67" ry="18"/>
<text text-anchor="middle" x="751" y="-99.8" font-family="Times,serif" font-size="14.00">TeachersService</text>
</g>
<!-- TeachersService&#45;&gt;GradesModule -->
<g id="edge14" class="edge">
<title>TeachersService&#45;&gt;GradesModule</title>
<path fill="none" stroke="black" d="M751,-122.31C751,-142.15 751,-171 751,-171 751,-171 1657.1,-171 1657.1,-171"/>
<polygon fill="black" stroke="black" points="1657.1,-174.5 1667.1,-171 1657.1,-167.5 1657.1,-174.5"/>
</g>
<!-- UserProfileDataService -->
<g id="node16" class="node">
<title>UserProfileDataService</title>
<ellipse fill="#fdb462" stroke="black" cx="555" cy="-104" rx="102.96" ry="18"/>
<text text-anchor="middle" x="555" y="-99.8" font-family="Times,serif" font-size="14.00">UserProfileDataService</text>
</g>
<!-- UserProfileDataService&#45;&gt;GradesModule -->
<g id="edge15" class="edge">
<title>UserProfileDataService&#45;&gt;GradesModule</title>
<path fill="none" stroke="black" d="M555,-122.28C555,-143.32 555,-175 555,-175 555,-175 1657.07,-175 1657.07,-175"/>
<polygon fill="black" stroke="black" points="1657.07,-178.5 1667.07,-175 1657.07,-171.5 1657.07,-178.5"/>
</g>
<!-- UserProfileEntityService -->
<g id="node17" class="node">
<title>UserProfileEntityService</title>
<ellipse fill="#fdb462" stroke="black" cx="326" cy="-104" rx="108.22" ry="18"/>
<text text-anchor="middle" x="326" y="-99.8" font-family="Times,serif" font-size="14.00">UserProfileEntityService</text>
</g>
<!-- UserProfileEntityService&#45;&gt;GradesModule -->
<g id="edge16" class="edge">
<title>UserProfileEntityService&#45;&gt;GradesModule</title>
<path fill="none" stroke="black" d="M326,-122.16C326,-144.35 326,-179 326,-179 326,-179 1657.08,-179 1657.08,-179"/>
<polygon fill="black" stroke="black" points="1657.08,-182.5 1667.08,-179 1657.08,-175.5 1657.08,-182.5"/>
</g>
<!-- UserProfilesService -->
<g id="node18" class="node">
<title>UserProfilesService</title>
<ellipse fill="#fdb462" stroke="black" cx="112" cy="-104" rx="88.01" ry="18"/>
<text text-anchor="middle" x="112" y="-99.8" font-family="Times,serif" font-size="14.00">UserProfilesService</text>
</g>
<!-- UserProfilesService&#45;&gt;GradesModule -->
<g id="edge17" class="edge">
<title>UserProfilesService&#45;&gt;GradesModule</title>
<path fill="none" stroke="black" d="M112,-122.32C112,-145.66 112,-183 112,-183 112,-183 1657.21,-183 1657.21,-183"/>
<polygon fill="black" stroke="black" points="1657.21,-186.5 1667.21,-183 1657.21,-179.5 1657.21,-186.5"/>
</g>
</g>
</svg>
