<?xml version="1.0" encoding="UTF-8" standalone="no"?>
<!DOCTYPE svg PUBLIC "-//W3C//DTD SVG 1.1//EN"
 "http://www.w3.org/Graphics/SVG/1.1/DTD/svg11.dtd">
<!-- Generated by graphviz version 2.47.0 (20210316.0004)
 -->
<!-- Title: dependencies Pages: 1 -->
<svg width="504pt" height="211pt"
 viewBox="0.00 0.00 504.00 211.00" xmlns="http://www.w3.org/2000/svg" xmlns:xlink="http://www.w3.org/1999/xlink">
<g id="graph0" class="graph" transform="scale(1 1) rotate(0) translate(4 207)">
<title>dependencies</title>
<polygon fill="white" stroke="transparent" points="-4,4 -4,-207 500,-207 500,4 -4,4"/>
<text text-anchor="start" x="227.01" y="-42.4" font-family="sans-serif" font-weight="bold" font-size="14.00">Legend</text>
<polygon fill="#ffffb3" stroke="transparent" points="14,-10 14,-30 34,-30 34,-10 14,-10"/>
<text text-anchor="start" x="37.63" y="-15.4" font-family="sans-serif" font-size="14.00"> &#160;Declarations</text>
<polygon fill="#8dd3c7" stroke="transparent" points="127,-10 127,-30 147,-30 147,-10 127,-10"/>
<text text-anchor="start" x="150.73" y="-15.4" font-family="sans-serif" font-size="14.00"> &#160;Module</text>
<polygon fill="#80b1d3" stroke="transparent" points="213,-10 213,-30 233,-30 233,-10 213,-10"/>
<text text-anchor="start" x="236.78" y="-15.4" font-family="sans-serif" font-size="14.00"> &#160;Bootstrap</text>
<polygon fill="#fdb462" stroke="transparent" points="310,-10 310,-30 330,-30 330,-10 310,-10"/>
<text text-anchor="start" x="333.67" y="-15.4" font-family="sans-serif" font-size="14.00"> &#160;Providers</text>
<polygon fill="#fb8072" stroke="transparent" points="406,-10 406,-30 426,-30 426,-10 406,-10"/>
<text text-anchor="start" x="429.73" y="-15.4" font-family="sans-serif" font-size="14.00"> &#160;Exports</text>
<g id="clust1" class="cluster">
<title>cluster_AppStoreModule</title>
<polygon fill="none" stroke="black" stroke-dasharray="1,5" points="93,-70 93,-195 403,-195 403,-70 93,-70"/>
</g>
<g id="clust3" class="cluster">
<title>cluster_AppStoreModule_imports</title>
<polygon fill="none" stroke="black" points="287,-78 287,-130 395,-130 395,-78 287,-78"/>
</g>
<g id="clust6" class="cluster">
<title>cluster_AppStoreModule_providers</title>
<polygon fill="none" stroke="black" points="101,-78 101,-130 279,-130 279,-78 101,-78"/>
</g>
<!-- !environment -->
<g id="node1" class="node">
<title>!environment</title>
<polygon fill="#8dd3c7" stroke="black" points="386.92,-122 383.92,-126 362.92,-126 359.92,-122 295.08,-122 295.08,-86 386.92,-86 386.92,-122"/>
<text text-anchor="middle" x="341" y="-99.8" font-family="Times,serif" font-size="14.00">!environment</text>
</g>
<!-- AppStoreModule -->
<g id="node2" class="node">
<title>AppStoreModule</title>
<polygon fill="#8dd3c7" stroke="black" points="320.7,-187 317.7,-191 296.7,-191 293.7,-187 207.3,-187 207.3,-151 320.7,-151 320.7,-187"/>
<text text-anchor="middle" x="264" y="-164.8" font-family="Times,serif" font-size="14.00">AppStoreModule</text>
</g>
<!-- !environment&#45;&gt;AppStoreModule -->
<g id="edge1" class="edge">
<title>!environment&#45;&gt;AppStoreModule</title>
<path fill="none" stroke="black" d="M307.95,-122.11C307.95,-122.11 307.95,-140.99 307.95,-140.99"/>
<polygon fill="black" stroke="black" points="304.45,-140.99 307.95,-150.99 311.45,-140.99 304.45,-140.99"/>
</g>
<!-- NgrxToastService -->
<g id="node3" class="node">
<title>NgrxToastService</title>
<ellipse fill="#fdb462" stroke="black" cx="190" cy="-104" rx="81.08" ry="18"/>
<text text-anchor="middle" x="190" y="-99.8" font-family="Times,serif" font-size="14.00">NgrxToastService</text>
</g>
<!-- NgrxToastService&#45;&gt;AppStoreModule -->
<g id="edge2" class="edge">
<title>NgrxToastService&#45;&gt;AppStoreModule</title>
<path fill="none" stroke="black" d="M239.34,-118.43C239.34,-118.43 239.34,-140.89 239.34,-140.89"/>
<polygon fill="black" stroke="black" points="235.84,-140.89 239.34,-150.89 242.84,-140.89 235.84,-140.89"/>
</g>
</g>
</svg>
