<?xml version="1.0" encoding="UTF-8" standalone="no"?>
<!DOCTYPE svg PUBLIC "-//W3C//DTD SVG 1.1//EN"
 "http://www.w3.org/Graphics/SVG/1.1/DTD/svg11.dtd">
<!-- Generated by graphviz version 2.46.0 (20210119.1425)
 -->
<!-- Title: dependencies Pages: 1 -->
<svg width="758pt" height="211pt"
 viewBox="0.00 0.00 758.00 211.00" xmlns="http://www.w3.org/2000/svg" xmlns:xlink="http://www.w3.org/1999/xlink">
<g id="graph0" class="graph" transform="scale(1 1) rotate(0) translate(4 207)">
<title>dependencies</title>
<polygon fill="white" stroke="transparent" points="-4,4 -4,-207 754,-207 754,4 -4,4"/>
<text text-anchor="start" x="354.01" y="-42.4" font-family="sans-serif" font-weight="bold" font-size="14.00">Legend</text>
<polygon fill="#ffffb3" stroke="transparent" points="141,-10 141,-30 161,-30 161,-10 141,-10"/>
<text text-anchor="start" x="164.63" y="-15.4" font-family="sans-serif" font-size="14.00"> &#160;Declarations</text>
<polygon fill="#8dd3c7" stroke="transparent" points="254,-10 254,-30 274,-30 274,-10 254,-10"/>
<text text-anchor="start" x="277.73" y="-15.4" font-family="sans-serif" font-size="14.00"> &#160;Module</text>
<polygon fill="#80b1d3" stroke="transparent" points="340,-10 340,-30 360,-30 360,-10 340,-10"/>
<text text-anchor="start" x="363.78" y="-15.4" font-family="sans-serif" font-size="14.00"> &#160;Bootstrap</text>
<polygon fill="#fdb462" stroke="transparent" points="437,-10 437,-30 457,-30 457,-10 437,-10"/>
<text text-anchor="start" x="460.67" y="-15.4" font-family="sans-serif" font-size="14.00"> &#160;Providers</text>
<polygon fill="#fb8072" stroke="transparent" points="533,-10 533,-30 553,-30 553,-10 533,-10"/>
<text text-anchor="start" x="556.73" y="-15.4" font-family="sans-serif" font-size="14.00"> &#160;Exports</text>
<g id="clust1" class="cluster">
<title>cluster_AppStoreModule</title>
<polygon fill="none" stroke="black" stroke-dasharray="1,5" points="8,-70 8,-195 742,-195 742,-70 8,-70"/>
</g>
<g id="clust6" class="cluster">
<title>cluster_AppStoreModule_providers</title>
<polygon fill="none" stroke="black" points="132,-78 132,-130 734,-130 734,-78 132,-78"/>
</g>
<g id="clust3" class="cluster">
<title>cluster_AppStoreModule_imports</title>
<polygon fill="none" stroke="black" points="16,-78 16,-130 124,-130 124,-78 16,-78"/>
</g>
<!-- !environment -->
<g id="node1" class="node">
<title>!environment</title>
<polygon fill="#8dd3c7" stroke="black" points="115.92,-122 112.92,-126 91.92,-126 88.92,-122 24.08,-122 24.08,-86 115.92,-86 115.92,-122"/>
<text text-anchor="middle" x="70" y="-99.8" font-family="Times,serif" font-size="14.00">!environment</text>
</g>
<!-- AppStoreModule -->
<g id="node2" class="node">
<title>AppStoreModule</title>
<polygon fill="#8dd3c7" stroke="black" points="376.7,-187 373.7,-191 352.7,-191 349.7,-187 263.3,-187 263.3,-151 376.7,-151 376.7,-187"/>
<text text-anchor="middle" x="320" y="-164.8" font-family="Times,serif" font-size="14.00">AppStoreModule</text>
</g>
<!-- !environment&#45;&gt;AppStoreModule -->
<g id="edge1" class="edge">
<title>!environment&#45;&gt;AppStoreModule</title>
<path fill="none" stroke="black" d="M70,-122.11C70,-141.34 70,-169 70,-169 70,-169 253.27,-169 253.27,-169"/>
<polygon fill="black" stroke="black" points="253.27,-172.5 263.27,-169 253.27,-165.5 253.27,-172.5"/>
</g>
<!-- GuardianDataService -->
<g id="node3" class="node">
<title>GuardianDataService</title>
<ellipse fill="#fdb462" stroke="black" cx="632" cy="-104" rx="94.3" ry="18"/>
<text text-anchor="middle" x="632" y="-99.8" font-family="Times,serif" font-size="14.00">GuardianDataService</text>
</g>
<!-- GuardianDataService&#45;&gt;AppStoreModule -->
<g id="edge2" class="edge">
<title>GuardianDataService&#45;&gt;AppStoreModule</title>
<path fill="none" stroke="black" d="M632,-122.11C632,-141.34 632,-169 632,-169 632,-169 386.86,-169 386.86,-169"/>
<polygon fill="black" stroke="black" points="386.86,-165.5 376.86,-169 386.86,-172.5 386.86,-165.5"/>
</g>
<!-- GuardianEntityService -->
<g id="node4" class="node">
<title>GuardianEntityService</title>
<ellipse fill="#fdb462" stroke="black" cx="420" cy="-104" rx="99.56" ry="18"/>
<text text-anchor="middle" x="420" y="-99.8" font-family="Times,serif" font-size="14.00">GuardianEntityService</text>
</g>
<!-- GuardianEntityService&#45;&gt;AppStoreModule -->
<g id="edge3" class="edge">
<title>GuardianEntityService&#45;&gt;AppStoreModule</title>
<path fill="none" stroke="black" d="M348.54,-116.53C348.54,-116.53 348.54,-140.85 348.54,-140.85"/>
<polygon fill="black" stroke="black" points="345.04,-140.85 348.54,-150.85 352.04,-140.85 345.04,-140.85"/>
</g>
<!-- NgrxToastService -->
<g id="node5" class="node">
<title>NgrxToastService</title>
<ellipse fill="#fdb462" stroke="black" cx="221" cy="-104" rx="81.08" ry="18"/>
<text text-anchor="middle" x="221" y="-99.8" font-family="Times,serif" font-size="14.00">NgrxToastService</text>
</g>
<!-- NgrxToastService&#45;&gt;AppStoreModule -->
<g id="edge4" class="edge">
<title>NgrxToastService&#45;&gt;AppStoreModule</title>
<path fill="none" stroke="black" d="M282.84,-115.92C282.84,-115.92 282.84,-140.77 282.84,-140.77"/>
<polygon fill="black" stroke="black" points="279.34,-140.77 282.84,-150.77 286.34,-140.77 279.34,-140.77"/>
</g>
</g>
</svg>
