<?xml version="1.0" encoding="UTF-8" standalone="no"?>
<!DOCTYPE svg PUBLIC "-//W3C//DTD SVG 1.1//EN"
 "http://www.w3.org/Graphics/SVG/1.1/DTD/svg11.dtd">
<!-- Generated by graphviz version 2.46.0 (20210119.1425)
 -->
<!-- Title: dependencies Pages: 1 -->
<svg width="1455pt" height="211pt"
 viewBox="0.00 0.00 1455.00 211.00" xmlns="http://www.w3.org/2000/svg" xmlns:xlink="http://www.w3.org/1999/xlink">
<g id="graph0" class="graph" transform="scale(1 1) rotate(0) translate(4 207)">
<title>dependencies</title>
<polygon fill="white" stroke="transparent" points="-4,4 -4,-207 1451,-207 1451,4 -4,4"/>
<text text-anchor="start" x="702.51" y="-42.4" font-family="sans-serif" font-weight="bold" font-size="14.00">Legend</text>
<polygon fill="#ffffb3" stroke="transparent" points="489.5,-10 489.5,-30 509.5,-30 509.5,-10 489.5,-10"/>
<text text-anchor="start" x="513.13" y="-15.4" font-family="sans-serif" font-size="14.00"> &#160;Declarations</text>
<polygon fill="#8dd3c7" stroke="transparent" points="602.5,-10 602.5,-30 622.5,-30 622.5,-10 602.5,-10"/>
<text text-anchor="start" x="626.23" y="-15.4" font-family="sans-serif" font-size="14.00"> &#160;Module</text>
<polygon fill="#80b1d3" stroke="transparent" points="688.5,-10 688.5,-30 708.5,-30 708.5,-10 688.5,-10"/>
<text text-anchor="start" x="712.28" y="-15.4" font-family="sans-serif" font-size="14.00"> &#160;Bootstrap</text>
<polygon fill="#fdb462" stroke="transparent" points="785.5,-10 785.5,-30 805.5,-30 805.5,-10 785.5,-10"/>
<text text-anchor="start" x="809.17" y="-15.4" font-family="sans-serif" font-size="14.00"> &#160;Providers</text>
<polygon fill="#fb8072" stroke="transparent" points="881.5,-10 881.5,-30 901.5,-30 901.5,-10 881.5,-10"/>
<text text-anchor="start" x="905.23" y="-15.4" font-family="sans-serif" font-size="14.00"> &#160;Exports</text>
<g id="clust1" class="cluster">
<title>cluster_UserModule</title>
<polygon fill="none" stroke="black" stroke-dasharray="1,5" points="8,-70 8,-195 1439,-195 1439,-70 8,-70"/>
</g>
<g id="clust2" class="cluster">
<title>cluster_UserModule_declarations</title>
<polygon fill="none" stroke="black" points="488,-78 488,-130 1431,-130 1431,-78 488,-78"/>
</g>
<g id="clust12" class="cluster">
<title>cluster_UserModule_providers</title>
<polygon fill="none" stroke="black" points="296,-78 296,-130 480,-130 480,-78 296,-78"/>
</g>
<g id="clust9" class="cluster">
<title>cluster_UserModule_imports</title>
<polygon fill="none" stroke="black" points="16,-78 16,-130 288,-130 288,-78 16,-78"/>
</g>
<!-- GradesTableComponent -->
<g id="node1" class="node">
<title>GradesTableComponent</title>
<polygon fill="#ffffb3" stroke="black" points="1423.35,-122 1270.65,-122 1270.65,-86 1423.35,-86 1423.35,-122"/>
<text text-anchor="middle" x="1347" y="-99.8" font-family="Times,serif" font-size="14.00">GradesTableComponent</text>
</g>
<!-- UserModule -->
<g id="node7" class="node">
<title>UserModule</title>
<polygon fill="#8dd3c7" stroke="black" points="767.98,-187 764.98,-191 743.98,-191 740.98,-187 682.02,-187 682.02,-151 767.98,-151 767.98,-187"/>
<text text-anchor="middle" x="725" y="-164.8" font-family="Times,serif" font-size="14.00">UserModule</text>
</g>
<!-- GradesTableComponent&#45;&gt;UserModule -->
<g id="edge1" class="edge">
<title>GradesTableComponent&#45;&gt;UserModule</title>
<path fill="none" stroke="black" d="M1347,-122.01C1347,-144.49 1347,-180 1347,-180 1347,-180 778.24,-180 778.24,-180"/>
<polygon fill="black" stroke="black" points="778.24,-176.5 768.24,-180 778.24,-183.5 778.24,-176.5"/>
</g>
<!-- UserComponent -->
<g id="node2" class="node">
<title>UserComponent</title>
<polygon fill="#ffffb3" stroke="black" points="1252.76,-122 1145.24,-122 1145.24,-86 1252.76,-86 1252.76,-122"/>
<text text-anchor="middle" x="1199" y="-99.8" font-family="Times,serif" font-size="14.00">UserComponent</text>
</g>
<!-- UserComponent&#45;&gt;UserModule -->
<g id="edge2" class="edge">
<title>UserComponent&#45;&gt;UserModule</title>
<path fill="none" stroke="black" d="M1199,-122.13C1199,-142.57 1199,-173 1199,-173 1199,-173 778.32,-173 778.32,-173"/>
<polygon fill="black" stroke="black" points="778.32,-169.5 768.32,-173 778.32,-176.5 778.32,-169.5"/>
</g>
<!-- UserDetailsComponent -->
<g id="node3" class="node">
<title>UserDetailsComponent</title>
<polygon fill="#ffffb3" stroke="black" points="1126.91,-122 979.09,-122 979.09,-86 1126.91,-86 1126.91,-122"/>
<text text-anchor="middle" x="1053" y="-99.8" font-family="Times,serif" font-size="14.00">UserDetailsComponent</text>
</g>
<!-- UserDetailsComponent&#45;&gt;UserModule -->
<g id="edge3" class="edge">
<title>UserDetailsComponent&#45;&gt;UserModule</title>
<path fill="none" stroke="black" d="M1053,-122.27C1053,-140.56 1053,-166 1053,-166 1053,-166 778.22,-166 778.22,-166"/>
<polygon fill="black" stroke="black" points="778.22,-162.5 768.22,-166 778.22,-169.5 778.22,-162.5"/>
</g>
<!-- UserGradesComponent -->
<g id="node4" class="node">
<title>UserGradesComponent</title>
<polygon fill="#ffffb3" stroke="black" points="961.9,-122 814.1,-122 814.1,-86 961.9,-86 961.9,-122"/>
<text text-anchor="middle" x="888" y="-99.8" font-family="Times,serif" font-size="14.00">UserGradesComponent</text>
</g>
<!-- UserGradesComponent&#45;&gt;UserModule -->
<g id="edge4" class="edge">
<title>UserGradesComponent&#45;&gt;UserModule</title>
<path fill="none" stroke="black" d="M888,-122.01C888,-138.05 888,-159 888,-159 888,-159 778.25,-159 778.25,-159"/>
<polygon fill="black" stroke="black" points="778.25,-155.5 768.25,-159 778.25,-162.5 778.25,-155.5"/>
</g>
<!-- UserHomeComponent -->
<g id="node5" class="node">
<title>UserHomeComponent</title>
<polygon fill="#ffffb3" stroke="black" points="795.97,-122 654.03,-122 654.03,-86 795.97,-86 795.97,-122"/>
<text text-anchor="middle" x="725" y="-99.8" font-family="Times,serif" font-size="14.00">UserHomeComponent</text>
</g>
<!-- UserHomeComponent&#45;&gt;UserModule -->
<g id="edge5" class="edge">
<title>UserHomeComponent&#45;&gt;UserModule</title>
<path fill="none" stroke="black" d="M725,-122.11C725,-122.11 725,-140.99 725,-140.99"/>
<polygon fill="black" stroke="black" points="721.5,-140.99 725,-150.99 728.5,-140.99 721.5,-140.99"/>
</g>
<!-- UserMenuComponent -->
<g id="node6" class="node">
<title>UserMenuComponent</title>
<polygon fill="#ffffb3" stroke="black" points="636.42,-122 495.58,-122 495.58,-86 636.42,-86 636.42,-122"/>
<text text-anchor="middle" x="566" y="-99.8" font-family="Times,serif" font-size="14.00">UserMenuComponent</text>
</g>
<!-- UserMenuComponent&#45;&gt;UserModule -->
<g id="edge6" class="edge">
<title>UserMenuComponent&#45;&gt;UserModule</title>
<path fill="none" stroke="black" d="M566,-122.01C566,-138.05 566,-159 566,-159 566,-159 671.97,-159 671.97,-159"/>
<polygon fill="black" stroke="black" points="671.97,-162.5 681.97,-159 671.97,-155.5 671.97,-162.5"/>
</g>
<!-- MaterialModule -->
<g id="node8" class="node">
<title>MaterialModule</title>
<polygon fill="#8dd3c7" stroke="black" points="280.47,-122 277.47,-126 256.47,-126 253.47,-122 173.53,-122 173.53,-86 280.47,-86 280.47,-122"/>
<text text-anchor="middle" x="227" y="-99.8" font-family="Times,serif" font-size="14.00">MaterialModule</text>
</g>
<!-- MaterialModule&#45;&gt;UserModule -->
<g id="edge7" class="edge">
<title>MaterialModule&#45;&gt;UserModule</title>
<path fill="none" stroke="black" d="M227,-122.13C227,-142.57 227,-173 227,-173 227,-173 671.68,-173 671.68,-173"/>
<polygon fill="black" stroke="black" points="671.68,-176.5 681.68,-173 671.68,-169.5 671.68,-176.5"/>
</g>
<!-- UserRoutingModule -->
<g id="node9" class="node">
<title>UserRoutingModule</title>
<polygon fill="#8dd3c7" stroke="black" points="155.59,-122 152.59,-126 131.59,-126 128.59,-122 24.41,-122 24.41,-86 155.59,-86 155.59,-122"/>
<text text-anchor="middle" x="90" y="-99.8" font-family="Times,serif" font-size="14.00">UserRoutingModule</text>
</g>
<!-- UserRoutingModule&#45;&gt;UserModule -->
<g id="edge8" class="edge">
<title>UserRoutingModule&#45;&gt;UserModule</title>
<path fill="none" stroke="black" d="M90,-122.01C90,-144.49 90,-180 90,-180 90,-180 671.85,-180 671.85,-180"/>
<polygon fill="black" stroke="black" points="671.85,-183.5 681.85,-180 671.85,-176.5 671.85,-183.5"/>
</g>
<!-- UserScoresService -->
<g id="node10" class="node">
<title>UserScoresService</title>
<ellipse fill="#fdb462" stroke="black" cx="388" cy="-104" rx="83.92" ry="18"/>
<text text-anchor="middle" x="388" y="-99.8" font-family="Times,serif" font-size="14.00">UserScoresService</text>
</g>
<!-- UserScoresService&#45;&gt;UserModule -->
<g id="edge9" class="edge">
<title>UserScoresService&#45;&gt;UserModule</title>
<path fill="none" stroke="black" d="M388,-122.27C388,-140.56 388,-166 388,-166 388,-166 671.98,-166 671.98,-166"/>
<polygon fill="black" stroke="black" points="671.98,-169.5 681.98,-166 671.98,-162.5 671.98,-169.5"/>
</g>
</g>
</svg>
