<?xml version="1.0" encoding="UTF-8" standalone="no"?>
<!DOCTYPE svg PUBLIC "-//W3C//DTD SVG 1.1//EN"
 "http://www.w3.org/Graphics/SVG/1.1/DTD/svg11.dtd">
<!-- Generated by graphviz version 2.46.0 (20210119.1425)
 -->
<!-- Title: dependencies Pages: 1 -->
<svg width="1813pt" height="211pt"
 viewBox="0.00 0.00 1813.00 211.00" xmlns="http://www.w3.org/2000/svg" xmlns:xlink="http://www.w3.org/1999/xlink">
<g id="graph0" class="graph" transform="scale(1 1) rotate(0) translate(4 207)">
<title>dependencies</title>
<polygon fill="white" stroke="transparent" points="-4,4 -4,-207 1809,-207 1809,4 -4,4"/>
<text text-anchor="start" x="881.51" y="-42.4" font-family="sans-serif" font-weight="bold" font-size="14.00">Legend</text>
<polygon fill="#ffffb3" stroke="transparent" points="668.5,-10 668.5,-30 688.5,-30 688.5,-10 668.5,-10"/>
<text text-anchor="start" x="692.13" y="-15.4" font-family="sans-serif" font-size="14.00"> &#160;Declarations</text>
<polygon fill="#8dd3c7" stroke="transparent" points="781.5,-10 781.5,-30 801.5,-30 801.5,-10 781.5,-10"/>
<text text-anchor="start" x="805.23" y="-15.4" font-family="sans-serif" font-size="14.00"> &#160;Module</text>
<polygon fill="#80b1d3" stroke="transparent" points="867.5,-10 867.5,-30 887.5,-30 887.5,-10 867.5,-10"/>
<text text-anchor="start" x="891.28" y="-15.4" font-family="sans-serif" font-size="14.00"> &#160;Bootstrap</text>
<polygon fill="#fdb462" stroke="transparent" points="964.5,-10 964.5,-30 984.5,-30 984.5,-10 964.5,-10"/>
<text text-anchor="start" x="988.17" y="-15.4" font-family="sans-serif" font-size="14.00"> &#160;Providers</text>
<polygon fill="#fb8072" stroke="transparent" points="1060.5,-10 1060.5,-30 1080.5,-30 1080.5,-10 1060.5,-10"/>
<text text-anchor="start" x="1084.23" y="-15.4" font-family="sans-serif" font-size="14.00"> &#160;Exports</text>
<g id="clust1" class="cluster">
<title>cluster_UserModule</title>
<polygon fill="none" stroke="black" stroke-dasharray="1,5" points="8,-70 8,-195 1797,-195 1797,-70 8,-70"/>
</g>
<g id="clust11" class="cluster">
<title>cluster_UserModule_imports</title>
<polygon fill="none" stroke="black" points="1517,-78 1517,-130 1789,-130 1789,-78 1517,-78"/>
</g>
<g id="clust14" class="cluster">
<title>cluster_UserModule_providers</title>
<polygon fill="none" stroke="black" points="1359,-78 1359,-130 1509,-130 1509,-78 1359,-78"/>
</g>
<g id="clust2" class="cluster">
<title>cluster_UserModule_declarations</title>
<polygon fill="none" stroke="black" points="16,-78 16,-130 1351,-130 1351,-78 16,-78"/>
</g>
<!-- GradesBarChartComponent -->
<g id="node1" class="node">
<title>GradesBarChartComponent</title>
<polygon fill="#ffffb3" stroke="black" points="1343.29,-122 1170.71,-122 1170.71,-86 1343.29,-86 1343.29,-122"/>
<text text-anchor="middle" x="1257" y="-99.8" font-family="Times,serif" font-size="14.00">GradesBarChartComponent</text>
</g>
<!-- UserModule -->
<g id="node9" class="node">
<title>UserModule</title>
<polygon fill="#8dd3c7" stroke="black" points="970.98,-187 967.98,-191 946.98,-191 943.98,-187 885.02,-187 885.02,-151 970.98,-151 970.98,-187"/>
<text text-anchor="middle" x="928" y="-164.8" font-family="Times,serif" font-size="14.00">UserModule</text>
</g>
<!-- GradesBarChartComponent&#45;&gt;UserModule -->
<g id="edge1" class="edge">
<title>GradesBarChartComponent&#45;&gt;UserModule</title>
<path fill="none" stroke="black" d="M1257,-122.02C1257,-139.37 1257,-163 1257,-163 1257,-163 981.01,-163 981.01,-163"/>
<polygon fill="black" stroke="black" points="981.01,-159.5 971.01,-163 981.01,-166.5 981.01,-159.5"/>
</g>
<!-- GradesTableComponent -->
<g id="node2" class="node">
<title>GradesTableComponent</title>
<polygon fill="#ffffb3" stroke="black" points="1152.35,-122 999.65,-122 999.65,-86 1152.35,-86 1152.35,-122"/>
<text text-anchor="middle" x="1076" y="-99.8" font-family="Times,serif" font-size="14.00">GradesTableComponent</text>
</g>
<!-- GradesTableComponent&#45;&gt;UserModule -->
<g id="edge2" class="edge">
<title>GradesTableComponent&#45;&gt;UserModule</title>
<path fill="none" stroke="black" d="M1076,-122.24C1076,-137.57 1076,-157 1076,-157 1076,-157 981.21,-157 981.21,-157"/>
<polygon fill="black" stroke="black" points="981.21,-153.5 971.21,-157 981.21,-160.5 981.21,-153.5"/>
</g>
<!-- UserComponent -->
<g id="node3" class="node">
<title>UserComponent</title>
<polygon fill="#ffffb3" stroke="black" points="981.76,-122 874.24,-122 874.24,-86 981.76,-86 981.76,-122"/>
<text text-anchor="middle" x="928" y="-99.8" font-family="Times,serif" font-size="14.00">UserComponent</text>
</g>
<!-- UserComponent&#45;&gt;UserModule -->
<g id="edge3" class="edge">
<title>UserComponent&#45;&gt;UserModule</title>
<path fill="none" stroke="black" d="M928,-122.11C928,-122.11 928,-140.99 928,-140.99"/>
<polygon fill="black" stroke="black" points="924.5,-140.99 928,-150.99 931.5,-140.99 924.5,-140.99"/>
</g>
<!-- UserGradesComponent -->
<g id="node4" class="node">
<title>UserGradesComponent</title>
<polygon fill="#ffffb3" stroke="black" points="855.9,-122 708.1,-122 708.1,-86 855.9,-86 855.9,-122"/>
<text text-anchor="middle" x="782" y="-99.8" font-family="Times,serif" font-size="14.00">UserGradesComponent</text>
</g>
<!-- UserGradesComponent&#45;&gt;UserModule -->
<g id="edge4" class="edge">
<title>UserGradesComponent&#45;&gt;UserModule</title>
<path fill="none" stroke="black" d="M782,-122.24C782,-137.57 782,-157 782,-157 782,-157 874.98,-157 874.98,-157"/>
<polygon fill="black" stroke="black" points="874.98,-160.5 884.98,-157 874.98,-153.5 874.98,-160.5"/>
</g>
<!-- UserGradesPrintableComponent -->
<g id="node5" class="node">
<title>UserGradesPrintableComponent</title>
<polygon fill="#ffffb3" stroke="black" points="689.94,-122 492.06,-122 492.06,-86 689.94,-86 689.94,-122"/>
<text text-anchor="middle" x="591" y="-99.8" font-family="Times,serif" font-size="14.00">UserGradesPrintableComponent</text>
</g>
<!-- UserGradesPrintableComponent&#45;&gt;UserModule -->
<g id="edge5" class="edge">
<title>UserGradesPrintableComponent&#45;&gt;UserModule</title>
<path fill="none" stroke="black" d="M591,-122.02C591,-139.37 591,-163 591,-163 591,-163 874.98,-163 874.98,-163"/>
<polygon fill="black" stroke="black" points="874.98,-166.5 884.98,-163 874.98,-159.5 874.98,-166.5"/>
</g>
<!-- UserHomeComponent -->
<g id="node6" class="node">
<title>UserHomeComponent</title>
<polygon fill="#ffffb3" stroke="black" points="473.97,-122 332.03,-122 332.03,-86 473.97,-86 473.97,-122"/>
<text text-anchor="middle" x="403" y="-99.8" font-family="Times,serif" font-size="14.00">UserHomeComponent</text>
</g>
<!-- UserHomeComponent&#45;&gt;UserModule -->
<g id="edge6" class="edge">
<title>UserHomeComponent&#45;&gt;UserModule</title>
<path fill="none" stroke="black" d="M403,-122.11C403,-141.34 403,-169 403,-169 403,-169 874.59,-169 874.59,-169"/>
<polygon fill="black" stroke="black" points="874.59,-172.5 884.59,-169 874.59,-165.5 874.59,-172.5"/>
</g>
<!-- UserInfoComponent -->
<g id="node7" class="node">
<title>UserInfoComponent</title>
<polygon fill="#ffffb3" stroke="black" points="313.58,-122 182.42,-122 182.42,-86 313.58,-86 313.58,-122"/>
<text text-anchor="middle" x="248" y="-99.8" font-family="Times,serif" font-size="14.00">UserInfoComponent</text>
</g>
<!-- UserInfoComponent&#45;&gt;UserModule -->
<g id="edge7" class="edge">
<title>UserInfoComponent&#45;&gt;UserModule</title>
<path fill="none" stroke="black" d="M248,-122.28C248,-143.32 248,-175 248,-175 248,-175 874.95,-175 874.95,-175"/>
<polygon fill="black" stroke="black" points="874.95,-178.5 884.95,-175 874.95,-171.5 874.95,-178.5"/>
</g>
<!-- UserMenuComponent -->
<g id="node8" class="node">
<title>UserMenuComponent</title>
<polygon fill="#ffffb3" stroke="black" points="164.42,-122 23.58,-122 23.58,-86 164.42,-86 164.42,-122"/>
<text text-anchor="middle" x="94" y="-99.8" font-family="Times,serif" font-size="14.00">UserMenuComponent</text>
</g>
<!-- UserMenuComponent&#45;&gt;UserModule -->
<g id="edge8" class="edge">
<title>UserMenuComponent&#45;&gt;UserModule</title>
<path fill="none" stroke="black" d="M94,-122.09C94,-145.13 94,-182 94,-182 94,-182 874.92,-182 874.92,-182"/>
<polygon fill="black" stroke="black" points="874.92,-185.5 884.92,-182 874.92,-178.5 874.92,-185.5"/>
</g>
<!-- MaterialModule -->
<g id="node10" class="node">
<title>MaterialModule</title>
<polygon fill="#8dd3c7" stroke="black" points="1781.47,-122 1778.47,-126 1757.47,-126 1754.47,-122 1674.53,-122 1674.53,-86 1781.47,-86 1781.47,-122"/>
<text text-anchor="middle" x="1728" y="-99.8" font-family="Times,serif" font-size="14.00">MaterialModule</text>
</g>
<!-- MaterialModule&#45;&gt;UserModule -->
<g id="edge9" class="edge">
<title>MaterialModule&#45;&gt;UserModule</title>
<path fill="none" stroke="black" d="M1728,-122.09C1728,-145.13 1728,-182 1728,-182 1728,-182 981.01,-182 981.01,-182"/>
<polygon fill="black" stroke="black" points="981.01,-178.5 971.01,-182 981.01,-185.5 981.01,-178.5"/>
</g>
<!-- UserRoutingModule -->
<g id="node11" class="node">
<title>UserRoutingModule</title>
<polygon fill="#8dd3c7" stroke="black" points="1656.59,-122 1653.59,-126 1632.59,-126 1629.59,-122 1525.41,-122 1525.41,-86 1656.59,-86 1656.59,-122"/>
<text text-anchor="middle" x="1591" y="-99.8" font-family="Times,serif" font-size="14.00">UserRoutingModule</text>
</g>
<!-- UserRoutingModule&#45;&gt;UserModule -->
<g id="edge10" class="edge">
<title>UserRoutingModule&#45;&gt;UserModule</title>
<path fill="none" stroke="black" d="M1591,-122.28C1591,-143.32 1591,-175 1591,-175 1591,-175 980.99,-175 980.99,-175"/>
<polygon fill="black" stroke="black" points="980.99,-171.5 970.99,-175 980.99,-178.5 980.99,-171.5"/>
</g>
<!-- SchoolService -->
<g id="node12" class="node">
<title>SchoolService</title>
<ellipse fill="#fdb462" stroke="black" cx="1434" cy="-104" rx="66.63" ry="18"/>
<text text-anchor="middle" x="1434" y="-99.8" font-family="Times,serif" font-size="14.00">SchoolService</text>
</g>
<!-- SchoolService&#45;&gt;UserModule -->
<g id="edge11" class="edge">
<title>SchoolService&#45;&gt;UserModule</title>
<path fill="none" stroke="black" d="M1434,-122.11C1434,-141.34 1434,-169 1434,-169 1434,-169 981.14,-169 981.14,-169"/>
<polygon fill="black" stroke="black" points="981.14,-165.5 971.14,-169 981.14,-172.5 981.14,-165.5"/>
</g>
</g>
</svg>
