<?xml version="1.0" encoding="UTF-8" standalone="no"?>
<!DOCTYPE svg PUBLIC "-//W3C//DTD SVG 1.1//EN"
 "http://www.w3.org/Graphics/SVG/1.1/DTD/svg11.dtd">
<!-- Generated by graphviz version 2.47.0 (20210316.0004)
 -->
<!-- Title: dependencies Pages: 1 -->
<svg width="2899pt" height="211pt"
 viewBox="0.00 0.00 2899.00 211.00" xmlns="http://www.w3.org/2000/svg" xmlns:xlink="http://www.w3.org/1999/xlink">
<g id="graph0" class="graph" transform="scale(1 1) rotate(0) translate(4 207)">
<title>dependencies</title>
<polygon fill="white" stroke="transparent" points="-4,4 -4,-207 2895,-207 2895,4 -4,4"/>
<text text-anchor="start" x="1424.51" y="-42.4" font-family="sans-serif" font-weight="bold" font-size="14.00">Legend</text>
<polygon fill="#ffffb3" stroke="transparent" points="1211.5,-10 1211.5,-30 1231.5,-30 1231.5,-10 1211.5,-10"/>
<text text-anchor="start" x="1235.13" y="-15.4" font-family="sans-serif" font-size="14.00"> &#160;Declarations</text>
<polygon fill="#8dd3c7" stroke="transparent" points="1324.5,-10 1324.5,-30 1344.5,-30 1344.5,-10 1324.5,-10"/>
<text text-anchor="start" x="1348.23" y="-15.4" font-family="sans-serif" font-size="14.00"> &#160;Module</text>
<polygon fill="#80b1d3" stroke="transparent" points="1410.5,-10 1410.5,-30 1430.5,-30 1430.5,-10 1410.5,-10"/>
<text text-anchor="start" x="1434.28" y="-15.4" font-family="sans-serif" font-size="14.00"> &#160;Bootstrap</text>
<polygon fill="#fdb462" stroke="transparent" points="1507.5,-10 1507.5,-30 1527.5,-30 1527.5,-10 1507.5,-10"/>
<text text-anchor="start" x="1531.17" y="-15.4" font-family="sans-serif" font-size="14.00"> &#160;Providers</text>
<polygon fill="#fb8072" stroke="transparent" points="1603.5,-10 1603.5,-30 1623.5,-30 1623.5,-10 1603.5,-10"/>
<text text-anchor="start" x="1627.23" y="-15.4" font-family="sans-serif" font-size="14.00"> &#160;Exports</text>
<g id="clust1" class="cluster">
<title>cluster_UserModule</title>
<polygon fill="none" stroke="black" stroke-dasharray="1,5" points="8,-70 8,-195 2883,-195 2883,-70 8,-70"/>
</g>
<g id="clust2" class="cluster">
<title>cluster_UserModule_declarations</title>
<polygon fill="none" stroke="black" points="806,-78 806,-130 2875,-130 2875,-78 806,-78"/>
</g>
<g id="clust15" class="cluster">
<title>cluster_UserModule_imports</title>
<polygon fill="none" stroke="black" points="526,-78 526,-130 798,-130 798,-78 526,-78"/>
</g>
<g id="clust18" class="cluster">
<title>cluster_UserModule_providers</title>
<polygon fill="none" stroke="black" points="16,-78 16,-130 518,-130 518,-78 16,-78"/>
</g>
<!-- GradeRecomendationComponent -->
<g id="node1" class="node">
<title>GradeRecomendationComponent</title>
<polygon fill="#ffffb3" stroke="black" points="2866.9,-122 2663.1,-122 2663.1,-86 2866.9,-86 2866.9,-122"/>
<text text-anchor="middle" x="2765" y="-99.8" font-family="Times,serif" font-size="14.00">GradeRecomendationComponent</text>
</g>
<!-- UserModule -->
<g id="node13" class="node">
<title>UserModule</title>
<polygon fill="#8dd3c7" stroke="black" points="1441.98,-187 1438.98,-191 1417.98,-191 1414.98,-187 1356.02,-187 1356.02,-151 1441.98,-151 1441.98,-187"/>
<text text-anchor="middle" x="1399" y="-164.8" font-family="Times,serif" font-size="14.00">UserModule</text>
</g>
<!-- GradeRecomendationComponent&#45;&gt;UserModule -->
<g id="edge1" class="edge">
<title>GradeRecomendationComponent&#45;&gt;UserModule</title>
<path fill="none" stroke="black" d="M2765,-122.32C2765,-145.66 2765,-183 2765,-183 2765,-183 1452.14,-183 1452.14,-183"/>
<polygon fill="black" stroke="black" points="1452.14,-179.5 1442.14,-183 1452.14,-186.5 1452.14,-179.5"/>
</g>
<!-- GradesBarChartComponent -->
<g id="node2" class="node">
<title>GradesBarChartComponent</title>
<polygon fill="#ffffb3" stroke="black" points="2645.29,-122 2472.71,-122 2472.71,-86 2645.29,-86 2645.29,-122"/>
<text text-anchor="middle" x="2559" y="-99.8" font-family="Times,serif" font-size="14.00">GradesBarChartComponent</text>
</g>
<!-- GradesBarChartComponent&#45;&gt;UserModule -->
<g id="edge2" class="edge">
<title>GradesBarChartComponent&#45;&gt;UserModule</title>
<path fill="none" stroke="black" d="M2559,-122.16C2559,-144.35 2559,-179 2559,-179 2559,-179 1452.01,-179 1452.01,-179"/>
<polygon fill="black" stroke="black" points="1452.01,-175.5 1442.01,-179 1452.01,-182.5 1452.01,-175.5"/>
</g>
<!-- GradesListComponent -->
<g id="node3" class="node">
<title>GradesListComponent</title>
<polygon fill="#ffffb3" stroke="black" points="2454.25,-122 2311.75,-122 2311.75,-86 2454.25,-86 2454.25,-122"/>
<text text-anchor="middle" x="2383" y="-99.8" font-family="Times,serif" font-size="14.00">GradesListComponent</text>
</g>
<!-- GradesListComponent&#45;&gt;UserModule -->
<g id="edge3" class="edge">
<title>GradesListComponent&#45;&gt;UserModule</title>
<path fill="none" stroke="black" d="M2383,-122.28C2383,-143.32 2383,-175 2383,-175 2383,-175 1452.23,-175 1452.23,-175"/>
<polygon fill="black" stroke="black" points="1452.23,-171.5 1442.23,-175 1452.23,-178.5 1452.23,-171.5"/>
</g>
<!-- GradesTableComponent -->
<g id="node4" class="node">
<title>GradesTableComponent</title>
<polygon fill="#ffffb3" stroke="black" points="2293.35,-122 2140.65,-122 2140.65,-86 2293.35,-86 2293.35,-122"/>
<text text-anchor="middle" x="2217" y="-99.8" font-family="Times,serif" font-size="14.00">GradesTableComponent</text>
</g>
<!-- GradesTableComponent&#45;&gt;UserModule -->
<g id="edge4" class="edge">
<title>GradesTableComponent&#45;&gt;UserModule</title>
<path fill="none" stroke="black" d="M2217,-122.31C2217,-142.15 2217,-171 2217,-171 2217,-171 1452.11,-171 1452.11,-171"/>
<polygon fill="black" stroke="black" points="1452.11,-167.5 1442.11,-171 1452.11,-174.5 1452.11,-167.5"/>
</g>
<!-- ResumeComponent -->
<g id="node5" class="node">
<title>ResumeComponent</title>
<polygon fill="#ffffb3" stroke="black" points="2122.43,-122 1995.57,-122 1995.57,-86 2122.43,-86 2122.43,-122"/>
<text text-anchor="middle" x="2059" y="-99.8" font-family="Times,serif" font-size="14.00">ResumeComponent</text>
</g>
<!-- ResumeComponent&#45;&gt;UserModule -->
<g id="edge5" class="edge">
<title>ResumeComponent&#45;&gt;UserModule</title>
<path fill="none" stroke="black" d="M2059,-122.22C2059,-140.83 2059,-167 2059,-167 2059,-167 1452.05,-167 1452.05,-167"/>
<polygon fill="black" stroke="black" points="1452.05,-163.5 1442.05,-167 1452.05,-170.5 1452.05,-163.5"/>
</g>
<!-- UserComponent -->
<g id="node6" class="node">
<title>UserComponent</title>
<polygon fill="#ffffb3" stroke="black" points="1977.76,-122 1870.24,-122 1870.24,-86 1977.76,-86 1977.76,-122"/>
<text text-anchor="middle" x="1924" y="-99.8" font-family="Times,serif" font-size="14.00">UserComponent</text>
</g>
<!-- UserComponent&#45;&gt;UserModule -->
<g id="edge6" class="edge">
<title>UserComponent&#45;&gt;UserModule</title>
<path fill="none" stroke="black" d="M1924,-122.02C1924,-139.37 1924,-163 1924,-163 1924,-163 1452.41,-163 1452.41,-163"/>
<polygon fill="black" stroke="black" points="1452.41,-159.5 1442.41,-163 1452.41,-166.5 1452.41,-159.5"/>
</g>
<!-- UserGradesComponent -->
<g id="node7" class="node">
<title>UserGradesComponent</title>
<polygon fill="#ffffb3" stroke="black" points="1851.9,-122 1704.1,-122 1704.1,-86 1851.9,-86 1851.9,-122"/>
<text text-anchor="middle" x="1778" y="-99.8" font-family="Times,serif" font-size="14.00">UserGradesComponent</text>
</g>
<!-- UserGradesComponent&#45;&gt;UserModule -->
<g id="edge7" class="edge">
<title>UserGradesComponent&#45;&gt;UserModule</title>
<path fill="none" stroke="black" d="M1778,-122.01C1778,-138.05 1778,-159 1778,-159 1778,-159 1452.11,-159 1452.11,-159"/>
<polygon fill="black" stroke="black" points="1452.11,-155.5 1442.11,-159 1452.11,-162.5 1452.11,-155.5"/>
</g>
<!-- UserGradesPrintableComponent -->
<g id="node8" class="node">
<title>UserGradesPrintableComponent</title>
<polygon fill="#ffffb3" stroke="black" points="1685.94,-122 1488.06,-122 1488.06,-86 1685.94,-86 1685.94,-122"/>
<text text-anchor="middle" x="1587" y="-99.8" font-family="Times,serif" font-size="14.00">UserGradesPrintableComponent</text>
</g>
<!-- UserGradesPrintableComponent&#45;&gt;UserModule -->
<g id="edge8" class="edge">
<title>UserGradesPrintableComponent&#45;&gt;UserModule</title>
<path fill="none" stroke="black" d="M1587,-122.12C1587,-136.78 1587,-155 1587,-155 1587,-155 1452.13,-155 1452.13,-155"/>
<polygon fill="black" stroke="black" points="1452.13,-151.5 1442.13,-155 1452.13,-158.5 1452.13,-151.5"/>
</g>
<!-- UserHomeComponent -->
<g id="node9" class="node">
<title>UserHomeComponent</title>
<polygon fill="#ffffb3" stroke="black" points="1469.97,-122 1328.03,-122 1328.03,-86 1469.97,-86 1469.97,-122"/>
<text text-anchor="middle" x="1399" y="-99.8" font-family="Times,serif" font-size="14.00">UserHomeComponent</text>
</g>
<!-- UserHomeComponent&#45;&gt;UserModule -->
<g id="edge9" class="edge">
<title>UserHomeComponent&#45;&gt;UserModule</title>
<path fill="none" stroke="black" d="M1399,-122.11C1399,-122.11 1399,-140.99 1399,-140.99"/>
<polygon fill="black" stroke="black" points="1395.5,-140.99 1399,-150.99 1402.5,-140.99 1395.5,-140.99"/>
</g>
<!-- UserInfoComponent -->
<g id="node10" class="node">
<title>UserInfoComponent</title>
<polygon fill="#ffffb3" stroke="black" points="1309.58,-122 1178.42,-122 1178.42,-86 1309.58,-86 1309.58,-122"/>
<text text-anchor="middle" x="1244" y="-99.8" font-family="Times,serif" font-size="14.00">UserInfoComponent</text>
</g>
<!-- UserInfoComponent&#45;&gt;UserModule -->
<g id="edge10" class="edge">
<title>UserInfoComponent&#45;&gt;UserModule</title>
<path fill="none" stroke="black" d="M1244,-122.12C1244,-136.78 1244,-155 1244,-155 1244,-155 1345.82,-155 1345.82,-155"/>
<polygon fill="black" stroke="black" points="1345.82,-158.5 1355.82,-155 1345.82,-151.5 1345.82,-158.5"/>
</g>
<!-- UserMenuComponent -->
<g id="node11" class="node">
<title>UserMenuComponent</title>
<polygon fill="#ffffb3" stroke="black" points="1160.42,-122 1019.58,-122 1019.58,-86 1160.42,-86 1160.42,-122"/>
<text text-anchor="middle" x="1090" y="-99.8" font-family="Times,serif" font-size="14.00">UserMenuComponent</text>
</g>
<!-- UserMenuComponent&#45;&gt;UserModule -->
<g id="edge11" class="edge">
<title>UserMenuComponent&#45;&gt;UserModule</title>
<path fill="none" stroke="black" d="M1090,-122.01C1090,-138.05 1090,-159 1090,-159 1090,-159 1345.71,-159 1345.71,-159"/>
<polygon fill="black" stroke="black" points="1345.71,-162.5 1355.71,-159 1345.71,-155.5 1345.71,-162.5"/>
</g>
<!-- WorkingOnGradesComponent -->
<g id="node12" class="node">
<title>WorkingOnGradesComponent</title>
<polygon fill="#ffffb3" stroke="black" points="1001.85,-122 814.15,-122 814.15,-86 1001.85,-86 1001.85,-122"/>
<text text-anchor="middle" x="908" y="-99.8" font-family="Times,serif" font-size="14.00">WorkingOnGradesComponent</text>
</g>
<!-- WorkingOnGradesComponent&#45;&gt;UserModule -->
<g id="edge12" class="edge">
<title>WorkingOnGradesComponent&#45;&gt;UserModule</title>
<path fill="none" stroke="black" d="M908,-122.02C908,-139.37 908,-163 908,-163 908,-163 1345.86,-163 1345.86,-163"/>
<polygon fill="black" stroke="black" points="1345.86,-166.5 1355.86,-163 1345.86,-159.5 1345.86,-166.5"/>
</g>
<!-- MaterialModule -->
<g id="node14" class="node">
<title>MaterialModule</title>
<polygon fill="#8dd3c7" stroke="black" points="790.47,-122 787.47,-126 766.47,-126 763.47,-122 683.53,-122 683.53,-86 790.47,-86 790.47,-122"/>
<text text-anchor="middle" x="737" y="-99.8" font-family="Times,serif" font-size="14.00">MaterialModule</text>
</g>
<!-- MaterialModule&#45;&gt;UserModule -->
<g id="edge13" class="edge">
<title>MaterialModule&#45;&gt;UserModule</title>
<path fill="none" stroke="black" d="M737,-122.22C737,-140.83 737,-167 737,-167 737,-167 1345.82,-167 1345.82,-167"/>
<polygon fill="black" stroke="black" points="1345.82,-170.5 1355.82,-167 1345.82,-163.5 1345.82,-170.5"/>
</g>
<!-- UserRoutingModule -->
<g id="node15" class="node">
<title>UserRoutingModule</title>
<polygon fill="#8dd3c7" stroke="black" points="665.59,-122 662.59,-126 641.59,-126 638.59,-122 534.41,-122 534.41,-86 665.59,-86 665.59,-122"/>
<text text-anchor="middle" x="600" y="-99.8" font-family="Times,serif" font-size="14.00">UserRoutingModule</text>
</g>
<!-- UserRoutingModule&#45;&gt;UserModule -->
<g id="edge14" class="edge">
<title>UserRoutingModule&#45;&gt;UserModule</title>
<path fill="none" stroke="black" d="M600,-122.31C600,-142.15 600,-171 600,-171 600,-171 1345.76,-171 1345.76,-171"/>
<polygon fill="black" stroke="black" points="1345.76,-174.5 1355.76,-171 1345.76,-167.5 1345.76,-174.5"/>
</g>
<!-- SchoolService -->
<g id="node16" class="node">
<title>SchoolService</title>
<ellipse fill="#fdb462" stroke="black" cx="443" cy="-104" rx="66.63" ry="18"/>
<text text-anchor="middle" x="443" y="-99.8" font-family="Times,serif" font-size="14.00">SchoolService</text>
</g>
<!-- SchoolService&#45;&gt;UserModule -->
<g id="edge15" class="edge">
<title>SchoolService&#45;&gt;UserModule</title>
<path fill="none" stroke="black" d="M443,-122.28C443,-143.32 443,-175 443,-175 443,-175 1345.75,-175 1345.75,-175"/>
<polygon fill="black" stroke="black" points="1345.75,-178.5 1355.75,-175 1345.75,-171.5 1345.75,-178.5"/>
</g>
<!-- UserDataService -->
<g id="node17" class="node">
<title>UserDataService</title>
<ellipse fill="#fdb462" stroke="black" cx="282" cy="-104" rx="76.4" ry="18"/>
<text text-anchor="middle" x="282" y="-99.8" font-family="Times,serif" font-size="14.00">UserDataService</text>
</g>
<!-- UserDataService&#45;&gt;UserModule -->
<g id="edge16" class="edge">
<title>UserDataService&#45;&gt;UserModule</title>
<path fill="none" stroke="black" d="M282,-122.16C282,-144.35 282,-179 282,-179 282,-179 1345.9,-179 1345.9,-179"/>
<polygon fill="black" stroke="black" points="1345.9,-182.5 1355.9,-179 1345.9,-175.5 1345.9,-182.5"/>
</g>
<!-- UserEntityService -->
<g id="node18" class="node">
<title>UserEntityService</title>
<ellipse fill="#fdb462" stroke="black" cx="106" cy="-104" rx="81.66" ry="18"/>
<text text-anchor="middle" x="106" y="-99.8" font-family="Times,serif" font-size="14.00">UserEntityService</text>
</g>
<!-- UserEntityService&#45;&gt;UserModule -->
<g id="edge17" class="edge">
<title>UserEntityService&#45;&gt;UserModule</title>
<path fill="none" stroke="black" d="M106,-122.32C106,-145.66 106,-183 106,-183 106,-183 1345.98,-183 1345.98,-183"/>
<polygon fill="black" stroke="black" points="1345.98,-186.5 1355.98,-183 1345.98,-179.5 1345.98,-186.5"/>
</g>
</g>
</svg>
