<?xml version="1.0" encoding="UTF-8" standalone="no"?>
<!DOCTYPE svg PUBLIC "-//W3C//DTD SVG 1.1//EN"
 "http://www.w3.org/Graphics/SVG/1.1/DTD/svg11.dtd">
<!-- Generated by graphviz version 2.46.0 (20210119.1425)
 -->
<!-- Title: dependencies Pages: 1 -->
<svg width="1455pt" height="211pt"
 viewBox="0.00 0.00 1455.00 211.00" xmlns="http://www.w3.org/2000/svg" xmlns:xlink="http://www.w3.org/1999/xlink">
<g id="graph0" class="graph" transform="scale(1 1) rotate(0) translate(4 207)">
<title>dependencies</title>
<polygon fill="white" stroke="transparent" points="-4,4 -4,-207 1451,-207 1451,4 -4,4"/>
<text text-anchor="start" x="702.51" y="-42.4" font-family="sans-serif" font-weight="bold" font-size="14.00">Legend</text>
<polygon fill="#ffffb3" stroke="transparent" points="489.5,-10 489.5,-30 509.5,-30 509.5,-10 489.5,-10"/>
<text text-anchor="start" x="513.13" y="-15.4" font-family="sans-serif" font-size="14.00"> &#160;Declarations</text>
<polygon fill="#8dd3c7" stroke="transparent" points="602.5,-10 602.5,-30 622.5,-30 622.5,-10 602.5,-10"/>
<text text-anchor="start" x="626.23" y="-15.4" font-family="sans-serif" font-size="14.00"> &#160;Module</text>
<polygon fill="#80b1d3" stroke="transparent" points="688.5,-10 688.5,-30 708.5,-30 708.5,-10 688.5,-10"/>
<text text-anchor="start" x="712.28" y="-15.4" font-family="sans-serif" font-size="14.00"> &#160;Bootstrap</text>
<polygon fill="#fdb462" stroke="transparent" points="785.5,-10 785.5,-30 805.5,-30 805.5,-10 785.5,-10"/>
<text text-anchor="start" x="809.17" y="-15.4" font-family="sans-serif" font-size="14.00"> &#160;Providers</text>
<polygon fill="#fb8072" stroke="transparent" points="881.5,-10 881.5,-30 901.5,-30 901.5,-10 881.5,-10"/>
<text text-anchor="start" x="905.23" y="-15.4" font-family="sans-serif" font-size="14.00"> &#160;Exports</text>
<g id="clust1" class="cluster">
<title>cluster_UserModule</title>
<polygon fill="none" stroke="black" stroke-dasharray="1,5" points="8,-70 8,-195 1439,-195 1439,-70 8,-70"/>
</g>
<g id="clust9" class="cluster">
<title>cluster_UserModule_imports</title>
<polygon fill="none" stroke="black" points="1159,-78 1159,-130 1431,-130 1431,-78 1159,-78"/>
</g>
<g id="clust12" class="cluster">
<title>cluster_UserModule_providers</title>
<polygon fill="none" stroke="black" points="967,-78 967,-130 1151,-130 1151,-78 967,-78"/>
</g>
<g id="clust2" class="cluster">
<title>cluster_UserModule_declarations</title>
<polygon fill="none" stroke="black" points="16,-78 16,-130 959,-130 959,-78 16,-78"/>
</g>
<!-- GradesTableComponent -->
<g id="node1" class="node">
<title>GradesTableComponent</title>
<polygon fill="#ffffb3" stroke="black" points="951.35,-122 798.65,-122 798.65,-86 951.35,-86 951.35,-122"/>
<text text-anchor="middle" x="875" y="-99.8" font-family="Times,serif" font-size="14.00">GradesTableComponent</text>
</g>
<!-- UserModule -->
<g id="node7" class="node">
<title>UserModule</title>
<polygon fill="#8dd3c7" stroke="black" points="769.98,-187 766.98,-191 745.98,-191 742.98,-187 684.02,-187 684.02,-151 769.98,-151 769.98,-187"/>
<text text-anchor="middle" x="727" y="-164.8" font-family="Times,serif" font-size="14.00">UserModule</text>
</g>
<!-- GradesTableComponent&#45;&gt;UserModule -->
<g id="edge1" class="edge">
<title>GradesTableComponent&#45;&gt;UserModule</title>
<path fill="none" stroke="black" d="M875,-122.01C875,-138.05 875,-159 875,-159 875,-159 780.21,-159 780.21,-159"/>
<polygon fill="black" stroke="black" points="780.21,-155.5 770.21,-159 780.21,-162.5 780.21,-155.5"/>
</g>
<!-- UserComponent -->
<g id="node2" class="node">
<title>UserComponent</title>
<polygon fill="#ffffb3" stroke="black" points="780.76,-122 673.24,-122 673.24,-86 780.76,-86 780.76,-122"/>
<text text-anchor="middle" x="727" y="-99.8" font-family="Times,serif" font-size="14.00">UserComponent</text>
</g>
<!-- UserComponent&#45;&gt;UserModule -->
<g id="edge2" class="edge">
<title>UserComponent&#45;&gt;UserModule</title>
<path fill="none" stroke="black" d="M727,-122.11C727,-122.11 727,-140.99 727,-140.99"/>
<polygon fill="black" stroke="black" points="723.5,-140.99 727,-150.99 730.5,-140.99 723.5,-140.99"/>
</g>
<!-- UserDetailsComponent -->
<g id="node3" class="node">
<title>UserDetailsComponent</title>
<polygon fill="#ffffb3" stroke="black" points="654.91,-122 507.09,-122 507.09,-86 654.91,-86 654.91,-122"/>
<text text-anchor="middle" x="581" y="-99.8" font-family="Times,serif" font-size="14.00">UserDetailsComponent</text>
</g>
<!-- UserDetailsComponent&#45;&gt;UserModule -->
<g id="edge3" class="edge">
<title>UserDetailsComponent&#45;&gt;UserModule</title>
<path fill="none" stroke="black" d="M581,-122.01C581,-138.05 581,-159 581,-159 581,-159 673.98,-159 673.98,-159"/>
<polygon fill="black" stroke="black" points="673.98,-162.5 683.98,-159 673.98,-155.5 673.98,-162.5"/>
</g>
<!-- UserGradesComponent -->
<g id="node4" class="node">
<title>UserGradesComponent</title>
<polygon fill="#ffffb3" stroke="black" points="489.9,-122 342.1,-122 342.1,-86 489.9,-86 489.9,-122"/>
<text text-anchor="middle" x="416" y="-99.8" font-family="Times,serif" font-size="14.00">UserGradesComponent</text>
</g>
<!-- UserGradesComponent&#45;&gt;UserModule -->
<g id="edge4" class="edge">
<title>UserGradesComponent&#45;&gt;UserModule</title>
<path fill="none" stroke="black" d="M416,-122.27C416,-140.56 416,-166 416,-166 416,-166 673.76,-166 673.76,-166"/>
<polygon fill="black" stroke="black" points="673.76,-169.5 683.76,-166 673.76,-162.5 673.76,-169.5"/>
</g>
<!-- UserHomeComponent -->
<g id="node5" class="node">
<title>UserHomeComponent</title>
<polygon fill="#ffffb3" stroke="black" points="323.97,-122 182.03,-122 182.03,-86 323.97,-86 323.97,-122"/>
<text text-anchor="middle" x="253" y="-99.8" font-family="Times,serif" font-size="14.00">UserHomeComponent</text>
</g>
<!-- UserHomeComponent&#45;&gt;UserModule -->
<g id="edge5" class="edge">
<title>UserHomeComponent&#45;&gt;UserModule</title>
<path fill="none" stroke="black" d="M253,-122.13C253,-142.57 253,-173 253,-173 253,-173 673.68,-173 673.68,-173"/>
<polygon fill="black" stroke="black" points="673.68,-176.5 683.68,-173 673.68,-169.5 673.68,-176.5"/>
</g>
<!-- UserMenuComponent -->
<g id="node6" class="node">
<title>UserMenuComponent</title>
<polygon fill="#ffffb3" stroke="black" points="164.42,-122 23.58,-122 23.58,-86 164.42,-86 164.42,-122"/>
<text text-anchor="middle" x="94" y="-99.8" font-family="Times,serif" font-size="14.00">UserMenuComponent</text>
</g>
<!-- UserMenuComponent&#45;&gt;UserModule -->
<g id="edge6" class="edge">
<title>UserMenuComponent&#45;&gt;UserModule</title>
<path fill="none" stroke="black" d="M94,-122.01C94,-144.49 94,-180 94,-180 94,-180 673.99,-180 673.99,-180"/>
<polygon fill="black" stroke="black" points="673.99,-183.5 683.99,-180 673.99,-176.5 673.99,-183.5"/>
</g>
<!-- MaterialModule -->
<g id="node8" class="node">
<title>MaterialModule</title>
<polygon fill="#8dd3c7" stroke="black" points="1423.47,-122 1420.47,-126 1399.47,-126 1396.47,-122 1316.53,-122 1316.53,-86 1423.47,-86 1423.47,-122"/>
<text text-anchor="middle" x="1370" y="-99.8" font-family="Times,serif" font-size="14.00">MaterialModule</text>
</g>
<!-- MaterialModule&#45;&gt;UserModule -->
<g id="edge7" class="edge">
<title>MaterialModule&#45;&gt;UserModule</title>
<path fill="none" stroke="black" d="M1370,-122.01C1370,-144.49 1370,-180 1370,-180 1370,-180 780.19,-180 780.19,-180"/>
<polygon fill="black" stroke="black" points="780.19,-176.5 770.19,-180 780.19,-183.5 780.19,-176.5"/>
</g>
<!-- UserRoutingModule -->
<g id="node9" class="node">
<title>UserRoutingModule</title>
<polygon fill="#8dd3c7" stroke="black" points="1298.59,-122 1295.59,-126 1274.59,-126 1271.59,-122 1167.41,-122 1167.41,-86 1298.59,-86 1298.59,-122"/>
<text text-anchor="middle" x="1233" y="-99.8" font-family="Times,serif" font-size="14.00">UserRoutingModule</text>
</g>
<!-- UserRoutingModule&#45;&gt;UserModule -->
<g id="edge8" class="edge">
<title>UserRoutingModule&#45;&gt;UserModule</title>
<path fill="none" stroke="black" d="M1233,-122.13C1233,-142.57 1233,-173 1233,-173 1233,-173 780.14,-173 780.14,-173"/>
<polygon fill="black" stroke="black" points="780.14,-169.5 770.14,-173 780.14,-176.5 780.14,-169.5"/>
</g>
<!-- UserScoresService -->
<g id="node10" class="node">
<title>UserScoresService</title>
<ellipse fill="#fdb462" stroke="black" cx="1059" cy="-104" rx="83.92" ry="18"/>
<text text-anchor="middle" x="1059" y="-99.8" font-family="Times,serif" font-size="14.00">UserScoresService</text>
</g>
<!-- UserScoresService&#45;&gt;UserModule -->
<g id="edge9" class="edge">
<title>UserScoresService&#45;&gt;UserModule</title>
<path fill="none" stroke="black" d="M1059,-122.27C1059,-140.56 1059,-166 1059,-166 1059,-166 780.06,-166 780.06,-166"/>
<polygon fill="black" stroke="black" points="780.06,-162.5 770.06,-166 780.06,-169.5 780.06,-162.5"/>
</g>
</g>
</svg>
