<?xml version="1.0" encoding="UTF-8" standalone="no"?>
<!DOCTYPE svg PUBLIC "-//W3C//DTD SVG 1.1//EN"
 "http://www.w3.org/Graphics/SVG/1.1/DTD/svg11.dtd">
<!-- Generated by graphviz version 2.46.0 (20210119.1425)
 -->
<!-- Title: dependencies Pages: 1 -->
<svg width="2899pt" height="211pt"
 viewBox="0.00 0.00 2899.00 211.00" xmlns="http://www.w3.org/2000/svg" xmlns:xlink="http://www.w3.org/1999/xlink">
<g id="graph0" class="graph" transform="scale(1 1) rotate(0) translate(4 207)">
<title>dependencies</title>
<polygon fill="white" stroke="transparent" points="-4,4 -4,-207 2895,-207 2895,4 -4,4"/>
<text text-anchor="start" x="1424.51" y="-42.4" font-family="sans-serif" font-weight="bold" font-size="14.00">Legend</text>
<polygon fill="#ffffb3" stroke="transparent" points="1211.5,-10 1211.5,-30 1231.5,-30 1231.5,-10 1211.5,-10"/>
<text text-anchor="start" x="1235.13" y="-15.4" font-family="sans-serif" font-size="14.00"> &#160;Declarations</text>
<polygon fill="#8dd3c7" stroke="transparent" points="1324.5,-10 1324.5,-30 1344.5,-30 1344.5,-10 1324.5,-10"/>
<text text-anchor="start" x="1348.23" y="-15.4" font-family="sans-serif" font-size="14.00"> &#160;Module</text>
<polygon fill="#80b1d3" stroke="transparent" points="1410.5,-10 1410.5,-30 1430.5,-30 1430.5,-10 1410.5,-10"/>
<text text-anchor="start" x="1434.28" y="-15.4" font-family="sans-serif" font-size="14.00"> &#160;Bootstrap</text>
<polygon fill="#fdb462" stroke="transparent" points="1507.5,-10 1507.5,-30 1527.5,-30 1527.5,-10 1507.5,-10"/>
<text text-anchor="start" x="1531.17" y="-15.4" font-family="sans-serif" font-size="14.00"> &#160;Providers</text>
<polygon fill="#fb8072" stroke="transparent" points="1603.5,-10 1603.5,-30 1623.5,-30 1623.5,-10 1603.5,-10"/>
<text text-anchor="start" x="1627.23" y="-15.4" font-family="sans-serif" font-size="14.00"> &#160;Exports</text>
<g id="clust1" class="cluster">
<title>cluster_UserModule</title>
<polygon fill="none" stroke="black" stroke-dasharray="1,5" points="8,-70 8,-195 2883,-195 2883,-70 8,-70"/>
</g>
<g id="clust18" class="cluster">
<title>cluster_UserModule_providers</title>
<polygon fill="none" stroke="black" points="2373,-78 2373,-130 2875,-130 2875,-78 2373,-78"/>
</g>
<g id="clust2" class="cluster">
<title>cluster_UserModule_declarations</title>
<polygon fill="none" stroke="black" points="296,-78 296,-130 2365,-130 2365,-78 296,-78"/>
</g>
<g id="clust15" class="cluster">
<title>cluster_UserModule_imports</title>
<polygon fill="none" stroke="black" points="16,-78 16,-130 288,-130 288,-78 16,-78"/>
</g>
<!-- GradeRecomendationComponent -->
<g id="node1" class="node">
<title>GradeRecomendationComponent</title>
<polygon fill="#ffffb3" stroke="black" points="2356.9,-122 2153.1,-122 2153.1,-86 2356.9,-86 2356.9,-122"/>
<text text-anchor="middle" x="2255" y="-99.8" font-family="Times,serif" font-size="14.00">GradeRecomendationComponent</text>
</g>
<!-- UserModule -->
<g id="node13" class="node">
<title>UserModule</title>
<polygon fill="#8dd3c7" stroke="black" points="1456.98,-187 1453.98,-191 1432.98,-191 1429.98,-187 1371.02,-187 1371.02,-151 1456.98,-151 1456.98,-187"/>
<text text-anchor="middle" x="1414" y="-164.8" font-family="Times,serif" font-size="14.00">UserModule</text>
</g>
<!-- GradeRecomendationComponent&#45;&gt;UserModule -->
<g id="edge1" class="edge">
<title>GradeRecomendationComponent&#45;&gt;UserModule</title>
<path fill="none" stroke="black" d="M2255,-122.31C2255,-142.15 2255,-171 2255,-171 2255,-171 1467.15,-171 1467.15,-171"/>
<polygon fill="black" stroke="black" points="1467.15,-167.5 1457.15,-171 1467.15,-174.5 1467.15,-167.5"/>
</g>
<!-- GradesBarChartComponent -->
<g id="node2" class="node">
<title>GradesBarChartComponent</title>
<polygon fill="#ffffb3" stroke="black" points="2135.29,-122 1962.71,-122 1962.71,-86 2135.29,-86 2135.29,-122"/>
<text text-anchor="middle" x="2049" y="-99.8" font-family="Times,serif" font-size="14.00">GradesBarChartComponent</text>
</g>
<!-- GradesBarChartComponent&#45;&gt;UserModule -->
<g id="edge2" class="edge">
<title>GradesBarChartComponent&#45;&gt;UserModule</title>
<path fill="none" stroke="black" d="M2049,-122.22C2049,-140.83 2049,-167 2049,-167 2049,-167 1467.15,-167 1467.15,-167"/>
<polygon fill="black" stroke="black" points="1467.15,-163.5 1457.15,-167 1467.15,-170.5 1467.15,-163.5"/>
</g>
<!-- GradesListComponent -->
<g id="node3" class="node">
<title>GradesListComponent</title>
<polygon fill="#ffffb3" stroke="black" points="1944.25,-122 1801.75,-122 1801.75,-86 1944.25,-86 1944.25,-122"/>
<text text-anchor="middle" x="1873" y="-99.8" font-family="Times,serif" font-size="14.00">GradesListComponent</text>
</g>
<!-- GradesListComponent&#45;&gt;UserModule -->
<g id="edge3" class="edge">
<title>GradesListComponent&#45;&gt;UserModule</title>
<path fill="none" stroke="black" d="M1873,-122.02C1873,-139.37 1873,-163 1873,-163 1873,-163 1467.18,-163 1467.18,-163"/>
<polygon fill="black" stroke="black" points="1467.18,-159.5 1457.18,-163 1467.18,-166.5 1467.18,-159.5"/>
</g>
<!-- GradesTableComponent -->
<g id="node4" class="node">
<title>GradesTableComponent</title>
<polygon fill="#ffffb3" stroke="black" points="1783.35,-122 1630.65,-122 1630.65,-86 1783.35,-86 1783.35,-122"/>
<text text-anchor="middle" x="1707" y="-99.8" font-family="Times,serif" font-size="14.00">GradesTableComponent</text>
</g>
<!-- GradesTableComponent&#45;&gt;UserModule -->
<g id="edge4" class="edge">
<title>GradesTableComponent&#45;&gt;UserModule</title>
<path fill="none" stroke="black" d="M1707,-122.01C1707,-138.05 1707,-159 1707,-159 1707,-159 1467.23,-159 1467.23,-159"/>
<polygon fill="black" stroke="black" points="1467.23,-155.5 1457.23,-159 1467.23,-162.5 1467.23,-155.5"/>
</g>
<!-- ResumeComponent -->
<g id="node5" class="node">
<title>ResumeComponent</title>
<polygon fill="#ffffb3" stroke="black" points="1612.43,-122 1485.57,-122 1485.57,-86 1612.43,-86 1612.43,-122"/>
<text text-anchor="middle" x="1549" y="-99.8" font-family="Times,serif" font-size="14.00">ResumeComponent</text>
</g>
<!-- ResumeComponent&#45;&gt;UserModule -->
<g id="edge5" class="edge">
<title>ResumeComponent&#45;&gt;UserModule</title>
<path fill="none" stroke="black" d="M1549,-122.12C1549,-136.78 1549,-155 1549,-155 1549,-155 1467.09,-155 1467.09,-155"/>
<polygon fill="black" stroke="black" points="1467.09,-151.5 1457.09,-155 1467.09,-158.5 1467.09,-151.5"/>
</g>
<!-- UserComponent -->
<g id="node6" class="node">
<title>UserComponent</title>
<polygon fill="#ffffb3" stroke="black" points="1467.76,-122 1360.24,-122 1360.24,-86 1467.76,-86 1467.76,-122"/>
<text text-anchor="middle" x="1414" y="-99.8" font-family="Times,serif" font-size="14.00">UserComponent</text>
</g>
<!-- UserComponent&#45;&gt;UserModule -->
<g id="edge6" class="edge">
<title>UserComponent&#45;&gt;UserModule</title>
<path fill="none" stroke="black" d="M1414,-122.11C1414,-122.11 1414,-140.99 1414,-140.99"/>
<polygon fill="black" stroke="black" points="1410.5,-140.99 1414,-150.99 1417.5,-140.99 1410.5,-140.99"/>
</g>
<!-- UserGradesComponent -->
<g id="node7" class="node">
<title>UserGradesComponent</title>
<polygon fill="#ffffb3" stroke="black" points="1341.9,-122 1194.1,-122 1194.1,-86 1341.9,-86 1341.9,-122"/>
<text text-anchor="middle" x="1268" y="-99.8" font-family="Times,serif" font-size="14.00">UserGradesComponent</text>
</g>
<!-- UserGradesComponent&#45;&gt;UserModule -->
<g id="edge7" class="edge">
<title>UserGradesComponent&#45;&gt;UserModule</title>
<path fill="none" stroke="black" d="M1268,-122.12C1268,-136.78 1268,-155 1268,-155 1268,-155 1360.98,-155 1360.98,-155"/>
<polygon fill="black" stroke="black" points="1360.98,-158.5 1370.98,-155 1360.98,-151.5 1360.98,-158.5"/>
</g>
<!-- UserGradesPrintableComponent -->
<g id="node8" class="node">
<title>UserGradesPrintableComponent</title>
<polygon fill="#ffffb3" stroke="black" points="1175.94,-122 978.06,-122 978.06,-86 1175.94,-86 1175.94,-122"/>
<text text-anchor="middle" x="1077" y="-99.8" font-family="Times,serif" font-size="14.00">UserGradesPrintableComponent</text>
</g>
<!-- UserGradesPrintableComponent&#45;&gt;UserModule -->
<g id="edge8" class="edge">
<title>UserGradesPrintableComponent&#45;&gt;UserModule</title>
<path fill="none" stroke="black" d="M1077,-122.01C1077,-138.05 1077,-159 1077,-159 1077,-159 1360.98,-159 1360.98,-159"/>
<polygon fill="black" stroke="black" points="1360.98,-162.5 1370.98,-159 1360.98,-155.5 1360.98,-162.5"/>
</g>
<!-- UserHomeComponent -->
<g id="node9" class="node">
<title>UserHomeComponent</title>
<polygon fill="#ffffb3" stroke="black" points="959.97,-122 818.03,-122 818.03,-86 959.97,-86 959.97,-122"/>
<text text-anchor="middle" x="889" y="-99.8" font-family="Times,serif" font-size="14.00">UserHomeComponent</text>
</g>
<!-- UserHomeComponent&#45;&gt;UserModule -->
<g id="edge9" class="edge">
<title>UserHomeComponent&#45;&gt;UserModule</title>
<path fill="none" stroke="black" d="M889,-122.02C889,-139.37 889,-163 889,-163 889,-163 1360.59,-163 1360.59,-163"/>
<polygon fill="black" stroke="black" points="1360.59,-166.5 1370.59,-163 1360.59,-159.5 1360.59,-166.5"/>
</g>
<!-- UserInfoComponent -->
<g id="node10" class="node">
<title>UserInfoComponent</title>
<polygon fill="#ffffb3" stroke="black" points="799.58,-122 668.42,-122 668.42,-86 799.58,-86 799.58,-122"/>
<text text-anchor="middle" x="734" y="-99.8" font-family="Times,serif" font-size="14.00">UserInfoComponent</text>
</g>
<!-- UserInfoComponent&#45;&gt;UserModule -->
<g id="edge10" class="edge">
<title>UserInfoComponent&#45;&gt;UserModule</title>
<path fill="none" stroke="black" d="M734,-122.22C734,-140.83 734,-167 734,-167 734,-167 1360.95,-167 1360.95,-167"/>
<polygon fill="black" stroke="black" points="1360.95,-170.5 1370.95,-167 1360.95,-163.5 1360.95,-170.5"/>
</g>
<!-- UserMenuComponent -->
<g id="node11" class="node">
<title>UserMenuComponent</title>
<polygon fill="#ffffb3" stroke="black" points="650.42,-122 509.58,-122 509.58,-86 650.42,-86 650.42,-122"/>
<text text-anchor="middle" x="580" y="-99.8" font-family="Times,serif" font-size="14.00">UserMenuComponent</text>
</g>
<!-- UserMenuComponent&#45;&gt;UserModule -->
<g id="edge11" class="edge">
<title>UserMenuComponent&#45;&gt;UserModule</title>
<path fill="none" stroke="black" d="M580,-122.31C580,-142.15 580,-171 580,-171 580,-171 1360.92,-171 1360.92,-171"/>
<polygon fill="black" stroke="black" points="1360.92,-174.5 1370.92,-171 1360.92,-167.5 1360.92,-174.5"/>
</g>
<!-- WorkingOnGradesComponent -->
<g id="node12" class="node">
<title>WorkingOnGradesComponent</title>
<polygon fill="#ffffb3" stroke="black" points="491.85,-122 304.15,-122 304.15,-86 491.85,-86 491.85,-122"/>
<text text-anchor="middle" x="398" y="-99.8" font-family="Times,serif" font-size="14.00">WorkingOnGradesComponent</text>
</g>
<!-- WorkingOnGradesComponent&#45;&gt;UserModule -->
<g id="edge12" class="edge">
<title>WorkingOnGradesComponent&#45;&gt;UserModule</title>
<path fill="none" stroke="black" d="M398,-122.28C398,-143.32 398,-175 398,-175 398,-175 1360.99,-175 1360.99,-175"/>
<polygon fill="black" stroke="black" points="1360.99,-178.5 1370.99,-175 1360.99,-171.5 1360.99,-178.5"/>
</g>
<!-- MaterialModule -->
<g id="node14" class="node">
<title>MaterialModule</title>
<polygon fill="#8dd3c7" stroke="black" points="280.47,-122 277.47,-126 256.47,-126 253.47,-122 173.53,-122 173.53,-86 280.47,-86 280.47,-122"/>
<text text-anchor="middle" x="227" y="-99.8" font-family="Times,serif" font-size="14.00">MaterialModule</text>
</g>
<!-- MaterialModule&#45;&gt;UserModule -->
<g id="edge13" class="edge">
<title>MaterialModule&#45;&gt;UserModule</title>
<path fill="none" stroke="black" d="M227,-122.16C227,-144.35 227,-179 227,-179 227,-179 1360.7,-179 1360.7,-179"/>
<polygon fill="black" stroke="black" points="1360.7,-182.5 1370.7,-179 1360.7,-175.5 1360.7,-182.5"/>
</g>
<!-- UserRoutingModule -->
<g id="node15" class="node">
<title>UserRoutingModule</title>
<polygon fill="#8dd3c7" stroke="black" points="155.59,-122 152.59,-126 131.59,-126 128.59,-122 24.41,-122 24.41,-86 155.59,-86 155.59,-122"/>
<text text-anchor="middle" x="90" y="-99.8" font-family="Times,serif" font-size="14.00">UserRoutingModule</text>
</g>
<!-- UserRoutingModule&#45;&gt;UserModule -->
<g id="edge14" class="edge">
<title>UserRoutingModule&#45;&gt;UserModule</title>
<path fill="none" stroke="black" d="M90,-122.32C90,-145.66 90,-183 90,-183 90,-183 1360.7,-183 1360.7,-183"/>
<polygon fill="black" stroke="black" points="1360.7,-186.5 1370.7,-183 1360.7,-179.5 1360.7,-186.5"/>
</g>
<!-- SchoolService -->
<g id="node16" class="node">
<title>SchoolService</title>
<ellipse fill="#fdb462" stroke="black" cx="2800" cy="-104" rx="66.63" ry="18"/>
<text text-anchor="middle" x="2800" y="-99.8" font-family="Times,serif" font-size="14.00">SchoolService</text>
</g>
<!-- SchoolService&#45;&gt;UserModule -->
<g id="edge15" class="edge">
<title>SchoolService&#45;&gt;UserModule</title>
<path fill="none" stroke="black" d="M2800,-122.32C2800,-145.66 2800,-183 2800,-183 2800,-183 1467,-183 1467,-183"/>
<polygon fill="black" stroke="black" points="1467,-179.5 1457,-183 1467,-186.5 1467,-179.5"/>
</g>
<!-- UserDataService -->
<g id="node17" class="node">
<title>UserDataService</title>
<ellipse fill="#fdb462" stroke="black" cx="2639" cy="-104" rx="76.4" ry="18"/>
<text text-anchor="middle" x="2639" y="-99.8" font-family="Times,serif" font-size="14.00">UserDataService</text>
</g>
<!-- UserDataService&#45;&gt;UserModule -->
<g id="edge16" class="edge">
<title>UserDataService&#45;&gt;UserModule</title>
<path fill="none" stroke="black" d="M2639,-122.16C2639,-144.35 2639,-179 2639,-179 2639,-179 1467.24,-179 1467.24,-179"/>
<polygon fill="black" stroke="black" points="1467.24,-175.5 1457.24,-179 1467.24,-182.5 1467.24,-175.5"/>
</g>
<!-- UserEntityService -->
<g id="node18" class="node">
<title>UserEntityService</title>
<ellipse fill="#fdb462" stroke="black" cx="2463" cy="-104" rx="81.66" ry="18"/>
<text text-anchor="middle" x="2463" y="-99.8" font-family="Times,serif" font-size="14.00">UserEntityService</text>
</g>
<!-- UserEntityService&#45;&gt;UserModule -->
<g id="edge17" class="edge">
<title>UserEntityService&#45;&gt;UserModule</title>
<path fill="none" stroke="black" d="M2463,-122.28C2463,-143.32 2463,-175 2463,-175 2463,-175 1467.08,-175 1467.08,-175"/>
<polygon fill="black" stroke="black" points="1467.08,-171.5 1457.08,-175 1467.08,-178.5 1467.08,-171.5"/>
</g>
</g>
</svg>
