<?xml version="1.0" encoding="UTF-8" standalone="no"?>
<!DOCTYPE svg PUBLIC "-//W3C//DTD SVG 1.1//EN"
 "http://www.w3.org/Graphics/SVG/1.1/DTD/svg11.dtd">
<!-- Generated by graphviz version 2.47.0 (20210316.0004)
 -->
<!-- Title: dependencies Pages: 1 -->
<svg width="2754pt" height="211pt"
 viewBox="0.00 0.00 2754.00 211.00" xmlns="http://www.w3.org/2000/svg" xmlns:xlink="http://www.w3.org/1999/xlink">
<g id="graph0" class="graph" transform="scale(1 1) rotate(0) translate(4 207)">
<title>dependencies</title>
<polygon fill="white" stroke="transparent" points="-4,4 -4,-207 2750,-207 2750,4 -4,4"/>
<text text-anchor="start" x="1352.01" y="-42.4" font-family="sans-serif" font-weight="bold" font-size="14.00">Legend</text>
<polygon fill="#ffffb3" stroke="transparent" points="1139,-10 1139,-30 1159,-30 1159,-10 1139,-10"/>
<text text-anchor="start" x="1162.63" y="-15.4" font-family="sans-serif" font-size="14.00"> &#160;Declarations</text>
<polygon fill="#8dd3c7" stroke="transparent" points="1252,-10 1252,-30 1272,-30 1272,-10 1252,-10"/>
<text text-anchor="start" x="1275.73" y="-15.4" font-family="sans-serif" font-size="14.00"> &#160;Module</text>
<polygon fill="#80b1d3" stroke="transparent" points="1338,-10 1338,-30 1358,-30 1358,-10 1338,-10"/>
<text text-anchor="start" x="1361.78" y="-15.4" font-family="sans-serif" font-size="14.00"> &#160;Bootstrap</text>
<polygon fill="#fdb462" stroke="transparent" points="1435,-10 1435,-30 1455,-30 1455,-10 1435,-10"/>
<text text-anchor="start" x="1458.67" y="-15.4" font-family="sans-serif" font-size="14.00"> &#160;Providers</text>
<polygon fill="#fb8072" stroke="transparent" points="1531,-10 1531,-30 1551,-30 1551,-10 1531,-10"/>
<text text-anchor="start" x="1554.73" y="-15.4" font-family="sans-serif" font-size="14.00"> &#160;Exports</text>
<g id="clust1" class="cluster">
<title>cluster_UserModule</title>
<polygon fill="none" stroke="black" stroke-dasharray="1,5" points="8,-70 8,-195 2738,-195 2738,-70 8,-70"/>
</g>
<g id="clust2" class="cluster">
<title>cluster_UserModule_declarations</title>
<polygon fill="none" stroke="black" points="806,-78 806,-130 2730,-130 2730,-78 806,-78"/>
</g>
<g id="clust14" class="cluster">
<title>cluster_UserModule_imports</title>
<polygon fill="none" stroke="black" points="526,-78 526,-130 798,-130 798,-78 526,-78"/>
</g>
<g id="clust17" class="cluster">
<title>cluster_UserModule_providers</title>
<polygon fill="none" stroke="black" points="16,-78 16,-130 518,-130 518,-78 16,-78"/>
</g>
<!-- GradeRecomendationComponent -->
<g id="node1" class="node">
<title>GradeRecomendationComponent</title>
<polygon fill="#ffffb3" stroke="black" points="2721.9,-122 2518.1,-122 2518.1,-86 2721.9,-86 2721.9,-122"/>
<text text-anchor="middle" x="2620" y="-99.8" font-family="Times,serif" font-size="14.00">GradeRecomendationComponent</text>
</g>
<!-- UserModule -->
<g id="node12" class="node">
<title>UserModule</title>
<polygon fill="#8dd3c7" stroke="black" points="1363.98,-187 1360.98,-191 1339.98,-191 1336.98,-187 1278.02,-187 1278.02,-151 1363.98,-151 1363.98,-187"/>
<text text-anchor="middle" x="1321" y="-164.8" font-family="Times,serif" font-size="14.00">UserModule</text>
</g>
<!-- GradeRecomendationComponent&#45;&gt;UserModule -->
<g id="edge1" class="edge">
<title>GradeRecomendationComponent&#45;&gt;UserModule</title>
<path fill="none" stroke="black" d="M2620,-122.32C2620,-145.66 2620,-183 2620,-183 2620,-183 1374.22,-183 1374.22,-183"/>
<polygon fill="black" stroke="black" points="1374.22,-179.5 1364.22,-183 1374.22,-186.5 1374.22,-179.5"/>
</g>
<!-- GradesBarChartComponent -->
<g id="node2" class="node">
<title>GradesBarChartComponent</title>
<polygon fill="#ffffb3" stroke="black" points="2500.29,-122 2327.71,-122 2327.71,-86 2500.29,-86 2500.29,-122"/>
<text text-anchor="middle" x="2414" y="-99.8" font-family="Times,serif" font-size="14.00">GradesBarChartComponent</text>
</g>
<!-- GradesBarChartComponent&#45;&gt;UserModule -->
<g id="edge2" class="edge">
<title>GradesBarChartComponent&#45;&gt;UserModule</title>
<path fill="none" stroke="black" d="M2414,-122.29C2414,-144.21 2414,-178 2414,-178 2414,-178 1374.18,-178 1374.18,-178"/>
<polygon fill="black" stroke="black" points="1374.18,-174.5 1364.18,-178 1374.18,-181.5 1374.18,-174.5"/>
</g>
<!-- GradesListComponent -->
<g id="node3" class="node">
<title>GradesListComponent</title>
<polygon fill="#ffffb3" stroke="black" points="2309.25,-122 2166.75,-122 2166.75,-86 2309.25,-86 2309.25,-122"/>
<text text-anchor="middle" x="2238" y="-99.8" font-family="Times,serif" font-size="14.00">GradesListComponent</text>
</g>
<!-- GradesListComponent&#45;&gt;UserModule -->
<g id="edge3" class="edge">
<title>GradesListComponent&#45;&gt;UserModule</title>
<path fill="none" stroke="black" d="M2238,-122.03C2238,-142.77 2238,-174 2238,-174 2238,-174 1374,-174 1374,-174"/>
<polygon fill="black" stroke="black" points="1374,-170.5 1364,-174 1374,-177.5 1374,-170.5"/>
</g>
<!-- GradesTableComponent -->
<g id="node4" class="node">
<title>GradesTableComponent</title>
<polygon fill="#ffffb3" stroke="black" points="2148.35,-122 1995.65,-122 1995.65,-86 2148.35,-86 2148.35,-122"/>
<text text-anchor="middle" x="2072" y="-99.8" font-family="Times,serif" font-size="14.00">GradesTableComponent</text>
</g>
<!-- GradesTableComponent&#45;&gt;UserModule -->
<g id="edge4" class="edge">
<title>GradesTableComponent&#45;&gt;UserModule</title>
<path fill="none" stroke="black" d="M2072,-122.11C2072,-141.34 2072,-169 2072,-169 2072,-169 1374.07,-169 1374.07,-169"/>
<polygon fill="black" stroke="black" points="1374.07,-165.5 1364.07,-169 1374.07,-172.5 1374.07,-165.5"/>
</g>
<!-- UserComponent -->
<g id="node5" class="node">
<title>UserComponent</title>
<polygon fill="#ffffb3" stroke="black" points="1977.76,-122 1870.24,-122 1870.24,-86 1977.76,-86 1977.76,-122"/>
<text text-anchor="middle" x="1924" y="-99.8" font-family="Times,serif" font-size="14.00">UserComponent</text>
</g>
<!-- UserComponent&#45;&gt;UserModule -->
<g id="edge5" class="edge">
<title>UserComponent&#45;&gt;UserModule</title>
<path fill="none" stroke="black" d="M1924,-122.3C1924,-140.27 1924,-165 1924,-165 1924,-165 1374.37,-165 1374.37,-165"/>
<polygon fill="black" stroke="black" points="1374.37,-161.5 1364.37,-165 1374.37,-168.5 1374.37,-161.5"/>
</g>
<!-- UserGradesComponent -->
<g id="node6" class="node">
<title>UserGradesComponent</title>
<polygon fill="#ffffb3" stroke="black" points="1851.9,-122 1704.1,-122 1704.1,-86 1851.9,-86 1851.9,-122"/>
<text text-anchor="middle" x="1778" y="-99.8" font-family="Times,serif" font-size="14.00">UserGradesComponent</text>
</g>
<!-- UserGradesComponent&#45;&gt;UserModule -->
<g id="edge6" class="edge">
<title>UserGradesComponent&#45;&gt;UserModule</title>
<path fill="none" stroke="black" d="M1778,-122.03C1778,-138.4 1778,-160 1778,-160 1778,-160 1373.99,-160 1373.99,-160"/>
<polygon fill="black" stroke="black" points="1373.99,-156.5 1363.99,-160 1373.99,-163.5 1373.99,-156.5"/>
</g>
<!-- UserGradesPrintableComponent -->
<g id="node7" class="node">
<title>UserGradesPrintableComponent</title>
<polygon fill="#ffffb3" stroke="black" points="1685.94,-122 1488.06,-122 1488.06,-86 1685.94,-86 1685.94,-122"/>
<text text-anchor="middle" x="1587" y="-99.8" font-family="Times,serif" font-size="14.00">UserGradesPrintableComponent</text>
</g>
<!-- UserGradesPrintableComponent&#45;&gt;UserModule -->
<g id="edge7" class="edge">
<title>UserGradesPrintableComponent&#45;&gt;UserModule</title>
<path fill="none" stroke="black" d="M1587,-122.19C1587,-137.18 1587,-156 1587,-156 1587,-156 1374.03,-156 1374.03,-156"/>
<polygon fill="black" stroke="black" points="1374.03,-152.5 1364.03,-156 1374.03,-159.5 1374.03,-152.5"/>
</g>
<!-- UserHomeComponent -->
<g id="node8" class="node">
<title>UserHomeComponent</title>
<polygon fill="#ffffb3" stroke="black" points="1469.97,-122 1328.03,-122 1328.03,-86 1469.97,-86 1469.97,-122"/>
<text text-anchor="middle" x="1399" y="-99.8" font-family="Times,serif" font-size="14.00">UserHomeComponent</text>
</g>
<!-- UserHomeComponent&#45;&gt;UserModule -->
<g id="edge8" class="edge">
<title>UserHomeComponent&#45;&gt;UserModule</title>
<path fill="none" stroke="black" d="M1346,-122.11C1346,-122.11 1346,-140.99 1346,-140.99"/>
<polygon fill="black" stroke="black" points="1342.5,-140.99 1346,-150.99 1349.5,-140.99 1342.5,-140.99"/>
</g>
<!-- UserInfoComponent -->
<g id="node9" class="node">
<title>UserInfoComponent</title>
<polygon fill="#ffffb3" stroke="black" points="1309.58,-122 1178.42,-122 1178.42,-86 1309.58,-86 1309.58,-122"/>
<text text-anchor="middle" x="1244" y="-99.8" font-family="Times,serif" font-size="14.00">UserInfoComponent</text>
</g>
<!-- UserInfoComponent&#45;&gt;UserModule -->
<g id="edge9" class="edge">
<title>UserInfoComponent&#45;&gt;UserModule</title>
<path fill="none" stroke="black" d="M1293.78,-122.11C1293.78,-122.11 1293.78,-140.99 1293.78,-140.99"/>
<polygon fill="black" stroke="black" points="1290.28,-140.99 1293.78,-150.99 1297.28,-140.99 1290.28,-140.99"/>
</g>
<!-- UserMenuComponent -->
<g id="node10" class="node">
<title>UserMenuComponent</title>
<polygon fill="#ffffb3" stroke="black" points="1160.42,-122 1019.58,-122 1019.58,-86 1160.42,-86 1160.42,-122"/>
<text text-anchor="middle" x="1090" y="-99.8" font-family="Times,serif" font-size="14.00">UserMenuComponent</text>
</g>
<!-- UserMenuComponent&#45;&gt;UserModule -->
<g id="edge10" class="edge">
<title>UserMenuComponent&#45;&gt;UserModule</title>
<path fill="none" stroke="black" d="M1090,-122.19C1090,-137.18 1090,-156 1090,-156 1090,-156 1267.82,-156 1267.82,-156"/>
<polygon fill="black" stroke="black" points="1267.82,-159.5 1277.82,-156 1267.82,-152.5 1267.82,-159.5"/>
</g>
<!-- WorkingOnGradesComponent -->
<g id="node11" class="node">
<title>WorkingOnGradesComponent</title>
<polygon fill="#ffffb3" stroke="black" points="1001.85,-122 814.15,-122 814.15,-86 1001.85,-86 1001.85,-122"/>
<text text-anchor="middle" x="908" y="-99.8" font-family="Times,serif" font-size="14.00">WorkingOnGradesComponent</text>
</g>
<!-- WorkingOnGradesComponent&#45;&gt;UserModule -->
<g id="edge11" class="edge">
<title>WorkingOnGradesComponent&#45;&gt;UserModule</title>
<path fill="none" stroke="black" d="M908,-122.03C908,-138.4 908,-160 908,-160 908,-160 1267.97,-160 1267.97,-160"/>
<polygon fill="black" stroke="black" points="1267.97,-163.5 1277.97,-160 1267.97,-156.5 1267.97,-163.5"/>
</g>
<!-- MaterialModule -->
<g id="node13" class="node">
<title>MaterialModule</title>
<polygon fill="#8dd3c7" stroke="black" points="790.47,-122 787.47,-126 766.47,-126 763.47,-122 683.53,-122 683.53,-86 790.47,-86 790.47,-122"/>
<text text-anchor="middle" x="737" y="-99.8" font-family="Times,serif" font-size="14.00">MaterialModule</text>
</g>
<!-- MaterialModule&#45;&gt;UserModule -->
<g id="edge12" class="edge">
<title>MaterialModule&#45;&gt;UserModule</title>
<path fill="none" stroke="black" d="M737,-122.3C737,-140.27 737,-165 737,-165 737,-165 1267.58,-165 1267.58,-165"/>
<polygon fill="black" stroke="black" points="1267.58,-168.5 1277.58,-165 1267.58,-161.5 1267.58,-168.5"/>
</g>
<!-- UserRoutingModule -->
<g id="node14" class="node">
<title>UserRoutingModule</title>
<polygon fill="#8dd3c7" stroke="black" points="665.59,-122 662.59,-126 641.59,-126 638.59,-122 534.41,-122 534.41,-86 665.59,-86 665.59,-122"/>
<text text-anchor="middle" x="600" y="-99.8" font-family="Times,serif" font-size="14.00">UserRoutingModule</text>
</g>
<!-- UserRoutingModule&#45;&gt;UserModule -->
<g id="edge13" class="edge">
<title>UserRoutingModule&#45;&gt;UserModule</title>
<path fill="none" stroke="black" d="M600,-122.11C600,-141.34 600,-169 600,-169 600,-169 1267.79,-169 1267.79,-169"/>
<polygon fill="black" stroke="black" points="1267.79,-172.5 1277.79,-169 1267.79,-165.5 1267.79,-172.5"/>
</g>
<!-- SchoolService -->
<g id="node15" class="node">
<title>SchoolService</title>
<ellipse fill="#fdb462" stroke="black" cx="443" cy="-104" rx="66.63" ry="18"/>
<text text-anchor="middle" x="443" y="-99.8" font-family="Times,serif" font-size="14.00">SchoolService</text>
</g>
<!-- SchoolService&#45;&gt;UserModule -->
<g id="edge14" class="edge">
<title>SchoolService&#45;&gt;UserModule</title>
<path fill="none" stroke="black" d="M443,-122.03C443,-142.77 443,-174 443,-174 443,-174 1267.76,-174 1267.76,-174"/>
<polygon fill="black" stroke="black" points="1267.76,-177.5 1277.76,-174 1267.76,-170.5 1267.76,-177.5"/>
</g>
<!-- UserDataService -->
<g id="node16" class="node">
<title>UserDataService</title>
<ellipse fill="#fdb462" stroke="black" cx="282" cy="-104" rx="76.4" ry="18"/>
<text text-anchor="middle" x="282" y="-99.8" font-family="Times,serif" font-size="14.00">UserDataService</text>
</g>
<!-- UserDataService&#45;&gt;UserModule -->
<g id="edge15" class="edge">
<title>UserDataService&#45;&gt;UserModule</title>
<path fill="none" stroke="black" d="M282,-122.29C282,-144.21 282,-178 282,-178 282,-178 1268.01,-178 1268.01,-178"/>
<polygon fill="black" stroke="black" points="1268.01,-181.5 1278.01,-178 1268.01,-174.5 1268.01,-181.5"/>
</g>
<!-- UserEntityService -->
<g id="node17" class="node">
<title>UserEntityService</title>
<ellipse fill="#fdb462" stroke="black" cx="106" cy="-104" rx="81.66" ry="18"/>
<text text-anchor="middle" x="106" y="-99.8" font-family="Times,serif" font-size="14.00">UserEntityService</text>
</g>
<!-- UserEntityService&#45;&gt;UserModule -->
<g id="edge16" class="edge">
<title>UserEntityService&#45;&gt;UserModule</title>
<path fill="none" stroke="black" d="M106,-122.32C106,-145.66 106,-183 106,-183 106,-183 1267.76,-183 1267.76,-183"/>
<polygon fill="black" stroke="black" points="1267.76,-186.5 1277.76,-183 1267.76,-179.5 1267.76,-186.5"/>
</g>
</g>
</svg>
