<?xml version="1.0" encoding="UTF-8" standalone="no"?>
<!DOCTYPE svg PUBLIC "-//W3C//DTD SVG 1.1//EN"
 "http://www.w3.org/Graphics/SVG/1.1/DTD/svg11.dtd">
<!-- Generated by graphviz version 2.46.0 (20210119.1425)
 -->
<!-- Title: dependencies Pages: 1 -->
<svg width="1646pt" height="211pt"
 viewBox="0.00 0.00 1646.00 211.00" xmlns="http://www.w3.org/2000/svg" xmlns:xlink="http://www.w3.org/1999/xlink">
<g id="graph0" class="graph" transform="scale(1 1) rotate(0) translate(4 207)">
<title>dependencies</title>
<polygon fill="white" stroke="transparent" points="-4,4 -4,-207 1642,-207 1642,4 -4,4"/>
<text text-anchor="start" x="798.01" y="-42.4" font-family="sans-serif" font-weight="bold" font-size="14.00">Legend</text>
<polygon fill="#ffffb3" stroke="transparent" points="585,-10 585,-30 605,-30 605,-10 585,-10"/>
<text text-anchor="start" x="608.63" y="-15.4" font-family="sans-serif" font-size="14.00"> &#160;Declarations</text>
<polygon fill="#8dd3c7" stroke="transparent" points="698,-10 698,-30 718,-30 718,-10 698,-10"/>
<text text-anchor="start" x="721.73" y="-15.4" font-family="sans-serif" font-size="14.00"> &#160;Module</text>
<polygon fill="#80b1d3" stroke="transparent" points="784,-10 784,-30 804,-30 804,-10 784,-10"/>
<text text-anchor="start" x="807.78" y="-15.4" font-family="sans-serif" font-size="14.00"> &#160;Bootstrap</text>
<polygon fill="#fdb462" stroke="transparent" points="881,-10 881,-30 901,-30 901,-10 881,-10"/>
<text text-anchor="start" x="904.67" y="-15.4" font-family="sans-serif" font-size="14.00"> &#160;Providers</text>
<polygon fill="#fb8072" stroke="transparent" points="977,-10 977,-30 997,-30 997,-10 977,-10"/>
<text text-anchor="start" x="1000.73" y="-15.4" font-family="sans-serif" font-size="14.00"> &#160;Exports</text>
<g id="clust1" class="cluster">
<title>cluster_UserModule</title>
<polygon fill="none" stroke="black" stroke-dasharray="1,5" points="8,-70 8,-195 1630,-195 1630,-70 8,-70"/>
</g>
<g id="clust10" class="cluster">
<title>cluster_UserModule_imports</title>
<polygon fill="none" stroke="black" points="1350,-78 1350,-130 1622,-130 1622,-78 1350,-78"/>
</g>
<g id="clust2" class="cluster">
<title>cluster_UserModule_declarations</title>
<polygon fill="none" stroke="black" points="208,-78 208,-130 1342,-130 1342,-78 208,-78"/>
</g>
<g id="clust13" class="cluster">
<title>cluster_UserModule_providers</title>
<polygon fill="none" stroke="black" points="16,-78 16,-130 200,-130 200,-78 16,-78"/>
</g>
<!-- GradesBarChartComponent -->
<g id="node1" class="node">
<title>GradesBarChartComponent</title>
<polygon fill="#ffffb3" stroke="black" points="1334.29,-122 1161.71,-122 1161.71,-86 1334.29,-86 1334.29,-122"/>
<text text-anchor="middle" x="1248" y="-99.8" font-family="Times,serif" font-size="14.00">GradesBarChartComponent</text>
</g>
<!-- UserModule -->
<g id="node8" class="node">
<title>UserModule</title>
<polygon fill="#8dd3c7" stroke="black" points="888.98,-187 885.98,-191 864.98,-191 861.98,-187 803.02,-187 803.02,-151 888.98,-151 888.98,-187"/>
<text text-anchor="middle" x="846" y="-164.8" font-family="Times,serif" font-size="14.00">UserModule</text>
</g>
<!-- GradesBarChartComponent&#45;&gt;UserModule -->
<g id="edge1" class="edge">
<title>GradesBarChartComponent&#45;&gt;UserModule</title>
<path fill="none" stroke="black" d="M1248,-122.27C1248,-140.56 1248,-166 1248,-166 1248,-166 899.02,-166 899.02,-166"/>
<polygon fill="black" stroke="black" points="899.02,-162.5 889.02,-166 899.02,-169.5 899.02,-162.5"/>
</g>
<!-- GradesTableComponent -->
<g id="node2" class="node">
<title>GradesTableComponent</title>
<polygon fill="#ffffb3" stroke="black" points="1143.35,-122 990.65,-122 990.65,-86 1143.35,-86 1143.35,-122"/>
<text text-anchor="middle" x="1067" y="-99.8" font-family="Times,serif" font-size="14.00">GradesTableComponent</text>
</g>
<!-- GradesTableComponent&#45;&gt;UserModule -->
<g id="edge2" class="edge">
<title>GradesTableComponent&#45;&gt;UserModule</title>
<path fill="none" stroke="black" d="M1067,-122.01C1067,-138.05 1067,-159 1067,-159 1067,-159 899.14,-159 899.14,-159"/>
<polygon fill="black" stroke="black" points="899.14,-155.5 889.14,-159 899.14,-162.5 899.14,-155.5"/>
</g>
<!-- UserComponent -->
<g id="node3" class="node">
<title>UserComponent</title>
<polygon fill="#ffffb3" stroke="black" points="972.76,-122 865.24,-122 865.24,-86 972.76,-86 972.76,-122"/>
<text text-anchor="middle" x="919" y="-99.8" font-family="Times,serif" font-size="14.00">UserComponent</text>
</g>
<!-- UserComponent&#45;&gt;UserModule -->
<g id="edge3" class="edge">
<title>UserComponent&#45;&gt;UserModule</title>
<path fill="none" stroke="black" d="M877.05,-122.11C877.05,-122.11 877.05,-140.99 877.05,-140.99"/>
<polygon fill="black" stroke="black" points="873.55,-140.99 877.05,-150.99 880.55,-140.99 873.55,-140.99"/>
</g>
<!-- UserDetailsComponent -->
<g id="node4" class="node">
<title>UserDetailsComponent</title>
<polygon fill="#ffffb3" stroke="black" points="846.91,-122 699.09,-122 699.09,-86 846.91,-86 846.91,-122"/>
<text text-anchor="middle" x="773" y="-99.8" font-family="Times,serif" font-size="14.00">UserDetailsComponent</text>
</g>
<!-- UserDetailsComponent&#45;&gt;UserModule -->
<g id="edge4" class="edge">
<title>UserDetailsComponent&#45;&gt;UserModule</title>
<path fill="none" stroke="black" d="M824.86,-122.11C824.86,-122.11 824.86,-140.99 824.86,-140.99"/>
<polygon fill="black" stroke="black" points="821.36,-140.99 824.86,-150.99 828.36,-140.99 821.36,-140.99"/>
</g>
<!-- UserGradesComponent -->
<g id="node5" class="node">
<title>UserGradesComponent</title>
<polygon fill="#ffffb3" stroke="black" points="681.9,-122 534.1,-122 534.1,-86 681.9,-86 681.9,-122"/>
<text text-anchor="middle" x="608" y="-99.8" font-family="Times,serif" font-size="14.00">UserGradesComponent</text>
</g>
<!-- UserGradesComponent&#45;&gt;UserModule -->
<g id="edge5" class="edge">
<title>UserGradesComponent&#45;&gt;UserModule</title>
<path fill="none" stroke="black" d="M608,-122.01C608,-138.05 608,-159 608,-159 608,-159 792.9,-159 792.9,-159"/>
<polygon fill="black" stroke="black" points="792.9,-162.5 802.9,-159 792.9,-155.5 792.9,-162.5"/>
</g>
<!-- UserHomeComponent -->
<g id="node6" class="node">
<title>UserHomeComponent</title>
<polygon fill="#ffffb3" stroke="black" points="515.97,-122 374.03,-122 374.03,-86 515.97,-86 515.97,-122"/>
<text text-anchor="middle" x="445" y="-99.8" font-family="Times,serif" font-size="14.00">UserHomeComponent</text>
</g>
<!-- UserHomeComponent&#45;&gt;UserModule -->
<g id="edge6" class="edge">
<title>UserHomeComponent&#45;&gt;UserModule</title>
<path fill="none" stroke="black" d="M445,-122.27C445,-140.56 445,-166 445,-166 445,-166 792.7,-166 792.7,-166"/>
<polygon fill="black" stroke="black" points="792.71,-169.5 802.7,-166 792.7,-162.5 792.71,-169.5"/>
</g>
<!-- UserMenuComponent -->
<g id="node7" class="node">
<title>UserMenuComponent</title>
<polygon fill="#ffffb3" stroke="black" points="356.42,-122 215.58,-122 215.58,-86 356.42,-86 356.42,-122"/>
<text text-anchor="middle" x="286" y="-99.8" font-family="Times,serif" font-size="14.00">UserMenuComponent</text>
</g>
<!-- UserMenuComponent&#45;&gt;UserModule -->
<g id="edge7" class="edge">
<title>UserMenuComponent&#45;&gt;UserModule</title>
<path fill="none" stroke="black" d="M286,-122.13C286,-142.57 286,-173 286,-173 286,-173 792.99,-173 792.99,-173"/>
<polygon fill="black" stroke="black" points="792.99,-176.5 802.99,-173 792.99,-169.5 792.99,-176.5"/>
</g>
<!-- MaterialModule -->
<g id="node9" class="node">
<title>MaterialModule</title>
<polygon fill="#8dd3c7" stroke="black" points="1614.47,-122 1611.47,-126 1590.47,-126 1587.47,-122 1507.53,-122 1507.53,-86 1614.47,-86 1614.47,-122"/>
<text text-anchor="middle" x="1561" y="-99.8" font-family="Times,serif" font-size="14.00">MaterialModule</text>
</g>
<!-- MaterialModule&#45;&gt;UserModule -->
<g id="edge8" class="edge">
<title>MaterialModule&#45;&gt;UserModule</title>
<path fill="none" stroke="black" d="M1561,-122.01C1561,-144.49 1561,-180 1561,-180 1561,-180 899.12,-180 899.12,-180"/>
<polygon fill="black" stroke="black" points="899.12,-176.5 889.12,-180 899.12,-183.5 899.12,-176.5"/>
</g>
<!-- UserRoutingModule -->
<g id="node10" class="node">
<title>UserRoutingModule</title>
<polygon fill="#8dd3c7" stroke="black" points="1489.59,-122 1486.59,-126 1465.59,-126 1462.59,-122 1358.41,-122 1358.41,-86 1489.59,-86 1489.59,-122"/>
<text text-anchor="middle" x="1424" y="-99.8" font-family="Times,serif" font-size="14.00">UserRoutingModule</text>
</g>
<!-- UserRoutingModule&#45;&gt;UserModule -->
<g id="edge9" class="edge">
<title>UserRoutingModule&#45;&gt;UserModule</title>
<path fill="none" stroke="black" d="M1424,-122.13C1424,-142.57 1424,-173 1424,-173 1424,-173 899.44,-173 899.44,-173"/>
<polygon fill="black" stroke="black" points="899.44,-169.5 889.44,-173 899.44,-176.5 899.44,-169.5"/>
</g>
<!-- UserScoresService -->
<g id="node11" class="node">
<title>UserScoresService</title>
<ellipse fill="#fdb462" stroke="black" cx="108" cy="-104" rx="83.92" ry="18"/>
<text text-anchor="middle" x="108" y="-99.8" font-family="Times,serif" font-size="14.00">UserScoresService</text>
</g>
<!-- UserScoresService&#45;&gt;UserModule -->
<g id="edge10" class="edge">
<title>UserScoresService&#45;&gt;UserModule</title>
<path fill="none" stroke="black" d="M108,-122.01C108,-144.49 108,-180 108,-180 108,-180 792.86,-180 792.86,-180"/>
<polygon fill="black" stroke="black" points="792.86,-183.5 802.86,-180 792.86,-176.5 792.86,-183.5"/>
</g>
</g>
</svg>
