<?xml version="1.0" encoding="UTF-8" standalone="no"?>
<!DOCTYPE svg PUBLIC "-//W3C//DTD SVG 1.1//EN"
 "http://www.w3.org/Graphics/SVG/1.1/DTD/svg11.dtd">
<!-- Generated by graphviz version 2.46.0 (20210119.1425)
 -->
<!-- Title: dependencies Pages: 1 -->
<svg width="1205pt" height="284pt"
 viewBox="0.00 0.00 1205.00 284.00" xmlns="http://www.w3.org/2000/svg" xmlns:xlink="http://www.w3.org/1999/xlink">
<g id="graph0" class="graph" transform="scale(1 1) rotate(0) translate(4 280)">
<title>dependencies</title>
<polygon fill="white" stroke="transparent" points="-4,4 -4,-280 1201,-280 1201,4 -4,4"/>
<text text-anchor="start" x="577.51" y="-42.4" font-family="sans-serif" font-weight="bold" font-size="14.00">Legend</text>
<polygon fill="#ffffb3" stroke="transparent" points="364.5,-10 364.5,-30 384.5,-30 384.5,-10 364.5,-10"/>
<text text-anchor="start" x="388.13" y="-15.4" font-family="sans-serif" font-size="14.00"> &#160;Declarations</text>
<polygon fill="#8dd3c7" stroke="transparent" points="477.5,-10 477.5,-30 497.5,-30 497.5,-10 477.5,-10"/>
<text text-anchor="start" x="501.23" y="-15.4" font-family="sans-serif" font-size="14.00"> &#160;Module</text>
<polygon fill="#80b1d3" stroke="transparent" points="563.5,-10 563.5,-30 583.5,-30 583.5,-10 563.5,-10"/>
<text text-anchor="start" x="587.28" y="-15.4" font-family="sans-serif" font-size="14.00"> &#160;Bootstrap</text>
<polygon fill="#fdb462" stroke="transparent" points="660.5,-10 660.5,-30 680.5,-30 680.5,-10 660.5,-10"/>
<text text-anchor="start" x="684.17" y="-15.4" font-family="sans-serif" font-size="14.00"> &#160;Providers</text>
<polygon fill="#fb8072" stroke="transparent" points="756.5,-10 756.5,-30 776.5,-30 776.5,-10 756.5,-10"/>
<text text-anchor="start" x="780.23" y="-15.4" font-family="sans-serif" font-size="14.00"> &#160;Exports</text>
<g id="clust1" class="cluster">
<title>cluster_ClassroomModule</title>
<polygon fill="none" stroke="black" stroke-dasharray="1,5" points="8,-70 8,-268 1189,-268 1189,-70 8,-70"/>
</g>
<g id="clust4" class="cluster">
<title>cluster_ClassroomModule_imports</title>
<polygon fill="none" stroke="black" points="182,-78 182,-130 1181,-130 1181,-78 182,-78"/>
</g>
<g id="clust5" class="cluster">
<title>cluster_ClassroomModule_exports</title>
<polygon fill="none" stroke="black" points="502,-208 502,-260 662,-260 662,-208 502,-208"/>
</g>
<g id="clust2" class="cluster">
<title>cluster_ClassroomModule_declarations</title>
<polygon fill="none" stroke="black" points="16,-78 16,-130 174,-130 174,-78 16,-78"/>
</g>
<!-- ClassroomComponent -->
<g id="node1" class="node">
<title>ClassroomComponent</title>
<polygon fill="#ffffb3" stroke="black" points="165.71,-122 24.29,-122 24.29,-86 165.71,-86 165.71,-122"/>
<text text-anchor="middle" x="95" y="-99.8" font-family="Times,serif" font-size="14.00">ClassroomComponent</text>
</g>
<!-- ClassroomModule -->
<g id="node2" class="node">
<title>ClassroomModule</title>
<polygon fill="#8dd3c7" stroke="black" points="641.93,-187 638.93,-191 617.93,-191 614.93,-187 522.07,-187 522.07,-151 641.93,-151 641.93,-187"/>
<text text-anchor="middle" x="582" y="-164.8" font-family="Times,serif" font-size="14.00">ClassroomModule</text>
</g>
<!-- ClassroomComponent&#45;&gt;ClassroomModule -->
<g id="edge1" class="edge">
<title>ClassroomComponent&#45;&gt;ClassroomModule</title>
<path fill="none" stroke="black" d="M95,-122.29C95,-144.21 95,-178 95,-178 95,-178 511.8,-178 511.8,-178"/>
<polygon fill="black" stroke="black" points="511.8,-181.5 521.8,-178 511.8,-174.5 511.8,-181.5"/>
</g>
<!-- ClassroomComponent  -->
<g id="node10" class="node">
<title>ClassroomComponent </title>
<polygon fill="#fb8072" stroke="black" points="654.21,-252 509.79,-252 509.79,-216 654.21,-216 654.21,-252"/>
<text text-anchor="middle" x="582" y="-229.8" font-family="Times,serif" font-size="14.00">ClassroomComponent </text>
</g>
<!-- ClassroomModule&#45;&gt;ClassroomComponent  -->
<g id="edge9" class="edge">
<title>ClassroomModule&#45;&gt;ClassroomComponent </title>
<path fill="none" stroke="black" stroke-dasharray="5,2" d="M582,-187.11C582,-187.11 582,-205.99 582,-205.99"/>
<polygon fill="black" stroke="black" points="578.5,-205.99 582,-215.99 585.5,-205.99 578.5,-205.99"/>
</g>
<!-- AnnouncementsModule -->
<g id="node3" class="node">
<title>AnnouncementsModule</title>
<polygon fill="#8dd3c7" stroke="black" points="1173.03,-122 1170.03,-126 1149.03,-126 1146.03,-122 1022.97,-122 1022.97,-86 1173.03,-86 1173.03,-122"/>
<text text-anchor="middle" x="1098" y="-99.8" font-family="Times,serif" font-size="14.00">AnnouncementsModule</text>
</g>
<!-- AnnouncementsModule&#45;&gt;ClassroomModule -->
<g id="edge2" class="edge">
<title>AnnouncementsModule&#45;&gt;ClassroomModule</title>
<path fill="none" stroke="black" d="M1098,-122.29C1098,-144.21 1098,-178 1098,-178 1098,-178 651.95,-178 651.95,-178"/>
<polygon fill="black" stroke="black" points="651.95,-174.5 641.95,-178 651.95,-181.5 651.95,-174.5"/>
</g>
<!-- ClassroomRoutingModule -->
<g id="node4" class="node">
<title>ClassroomRoutingModule</title>
<polygon fill="#8dd3c7" stroke="black" points="1004.05,-122 1001.05,-126 980.05,-126 977.05,-122 839.95,-122 839.95,-86 1004.05,-86 1004.05,-122"/>
<text text-anchor="middle" x="922" y="-99.8" font-family="Times,serif" font-size="14.00">ClassroomRoutingModule</text>
</g>
<!-- ClassroomRoutingModule&#45;&gt;ClassroomModule -->
<g id="edge3" class="edge">
<title>ClassroomRoutingModule&#45;&gt;ClassroomModule</title>
<path fill="none" stroke="black" d="M922,-122.11C922,-141.34 922,-169 922,-169 922,-169 652,-169 652,-169"/>
<polygon fill="black" stroke="black" points="652,-165.5 642,-169 652,-172.5 652,-165.5"/>
</g>
<!-- CoursesModule -->
<g id="node5" class="node">
<title>CoursesModule</title>
<polygon fill="#8dd3c7" stroke="black" points="821.15,-122 818.15,-126 797.15,-126 794.15,-122 716.85,-122 716.85,-86 821.15,-86 821.15,-122"/>
<text text-anchor="middle" x="769" y="-99.8" font-family="Times,serif" font-size="14.00">CoursesModule</text>
</g>
<!-- CoursesModule&#45;&gt;ClassroomModule -->
<g id="edge4" class="edge">
<title>CoursesModule&#45;&gt;ClassroomModule</title>
<path fill="none" stroke="black" d="M769,-122.03C769,-138.4 769,-160 769,-160 769,-160 651.94,-160 651.94,-160"/>
<polygon fill="black" stroke="black" points="651.94,-156.5 641.94,-160 651.94,-163.5 651.94,-156.5"/>
</g>
<!-- MaterialModule -->
<g id="node6" class="node">
<title>MaterialModule</title>
<polygon fill="#8dd3c7" stroke="black" points="698.47,-122 695.47,-126 674.47,-126 671.47,-122 591.53,-122 591.53,-86 698.47,-86 698.47,-122"/>
<text text-anchor="middle" x="645" y="-99.8" font-family="Times,serif" font-size="14.00">MaterialModule</text>
</g>
<!-- MaterialModule&#45;&gt;ClassroomModule -->
<g id="edge5" class="edge">
<title>MaterialModule&#45;&gt;ClassroomModule</title>
<path fill="none" stroke="black" d="M616.62,-122.11C616.62,-122.11 616.62,-140.99 616.62,-140.99"/>
<polygon fill="black" stroke="black" points="613.12,-140.99 616.62,-150.99 620.12,-140.99 613.12,-140.99"/>
</g>
<!-- StudentsModule -->
<g id="node7" class="node">
<title>StudentsModule</title>
<polygon fill="#8dd3c7" stroke="black" points="573.77,-122 570.77,-126 549.77,-126 546.77,-122 466.23,-122 466.23,-86 573.77,-86 573.77,-122"/>
<text text-anchor="middle" x="520" y="-99.8" font-family="Times,serif" font-size="14.00">StudentsModule</text>
</g>
<!-- StudentsModule&#45;&gt;ClassroomModule -->
<g id="edge6" class="edge">
<title>StudentsModule&#45;&gt;ClassroomModule</title>
<path fill="none" stroke="black" d="M548.09,-122.11C548.09,-122.11 548.09,-140.99 548.09,-140.99"/>
<polygon fill="black" stroke="black" points="544.59,-140.99 548.09,-150.99 551.59,-140.99 544.59,-140.99"/>
</g>
<!-- TeachersModule -->
<g id="node8" class="node">
<title>TeachersModule</title>
<polygon fill="#8dd3c7" stroke="black" points="448.07,-122 445.07,-126 424.07,-126 421.07,-122 337.93,-122 337.93,-86 448.07,-86 448.07,-122"/>
<text text-anchor="middle" x="393" y="-99.8" font-family="Times,serif" font-size="14.00">TeachersModule</text>
</g>
<!-- TeachersModule&#45;&gt;ClassroomModule -->
<g id="edge7" class="edge">
<title>TeachersModule&#45;&gt;ClassroomModule</title>
<path fill="none" stroke="black" d="M393,-122.03C393,-138.4 393,-160 393,-160 393,-160 512.2,-160 512.2,-160"/>
<polygon fill="black" stroke="black" points="512.2,-163.5 522.2,-160 512.2,-156.5 512.2,-163.5"/>
</g>
<!-- UserProfilesModule -->
<g id="node9" class="node">
<title>UserProfilesModule</title>
<polygon fill="#8dd3c7" stroke="black" points="319.52,-122 316.52,-126 295.52,-126 292.52,-122 190.48,-122 190.48,-86 319.52,-86 319.52,-122"/>
<text text-anchor="middle" x="255" y="-99.8" font-family="Times,serif" font-size="14.00">UserProfilesModule</text>
</g>
<!-- UserProfilesModule&#45;&gt;ClassroomModule -->
<g id="edge8" class="edge">
<title>UserProfilesModule&#45;&gt;ClassroomModule</title>
<path fill="none" stroke="black" d="M255,-122.11C255,-141.34 255,-169 255,-169 255,-169 512.02,-169 512.02,-169"/>
<polygon fill="black" stroke="black" points="512.02,-172.5 522.02,-169 512.02,-165.5 512.02,-172.5"/>
</g>
</g>
</svg>
