<?xml version="1.0" encoding="UTF-8" standalone="no"?>
<!DOCTYPE svg PUBLIC "-//W3C//DTD SVG 1.1//EN"
 "http://www.w3.org/Graphics/SVG/1.1/DTD/svg11.dtd">
<!-- Generated by graphviz version 2.46.0 (20210119.1425)
 -->
<!-- Title: dependencies Pages: 1 -->
<svg width="1205pt" height="284pt"
 viewBox="0.00 0.00 1205.00 284.00" xmlns="http://www.w3.org/2000/svg" xmlns:xlink="http://www.w3.org/1999/xlink">
<g id="graph0" class="graph" transform="scale(1 1) rotate(0) translate(4 280)">
<title>dependencies</title>
<polygon fill="white" stroke="transparent" points="-4,4 -4,-280 1201,-280 1201,4 -4,4"/>
<text text-anchor="start" x="577.51" y="-42.4" font-family="sans-serif" font-weight="bold" font-size="14.00">Legend</text>
<polygon fill="#ffffb3" stroke="transparent" points="364.5,-10 364.5,-30 384.5,-30 384.5,-10 364.5,-10"/>
<text text-anchor="start" x="388.13" y="-15.4" font-family="sans-serif" font-size="14.00"> &#160;Declarations</text>
<polygon fill="#8dd3c7" stroke="transparent" points="477.5,-10 477.5,-30 497.5,-30 497.5,-10 477.5,-10"/>
<text text-anchor="start" x="501.23" y="-15.4" font-family="sans-serif" font-size="14.00"> &#160;Module</text>
<polygon fill="#80b1d3" stroke="transparent" points="563.5,-10 563.5,-30 583.5,-30 583.5,-10 563.5,-10"/>
<text text-anchor="start" x="587.28" y="-15.4" font-family="sans-serif" font-size="14.00"> &#160;Bootstrap</text>
<polygon fill="#fdb462" stroke="transparent" points="660.5,-10 660.5,-30 680.5,-30 680.5,-10 660.5,-10"/>
<text text-anchor="start" x="684.17" y="-15.4" font-family="sans-serif" font-size="14.00"> &#160;Providers</text>
<polygon fill="#fb8072" stroke="transparent" points="756.5,-10 756.5,-30 776.5,-30 776.5,-10 756.5,-10"/>
<text text-anchor="start" x="780.23" y="-15.4" font-family="sans-serif" font-size="14.00"> &#160;Exports</text>
<g id="clust1" class="cluster">
<title>cluster_ClassroomModule</title>
<polygon fill="none" stroke="black" stroke-dasharray="1,5" points="8,-70 8,-268 1189,-268 1189,-70 8,-70"/>
</g>
<g id="clust5" class="cluster">
<title>cluster_ClassroomModule_exports</title>
<polygon fill="none" stroke="black" points="461,-208 461,-260 621,-260 621,-208 461,-208"/>
</g>
<g id="clust2" class="cluster">
<title>cluster_ClassroomModule_declarations</title>
<polygon fill="none" stroke="black" points="1023,-78 1023,-130 1181,-130 1181,-78 1023,-78"/>
</g>
<g id="clust4" class="cluster">
<title>cluster_ClassroomModule_imports</title>
<polygon fill="none" stroke="black" points="16,-78 16,-130 1015,-130 1015,-78 16,-78"/>
</g>
<!-- ClassroomComponent -->
<g id="node1" class="node">
<title>ClassroomComponent</title>
<polygon fill="#ffffb3" stroke="black" points="1172.71,-122 1031.29,-122 1031.29,-86 1172.71,-86 1172.71,-122"/>
<text text-anchor="middle" x="1102" y="-99.8" font-family="Times,serif" font-size="14.00">ClassroomComponent</text>
</g>
<!-- ClassroomModule -->
<g id="node2" class="node">
<title>ClassroomModule</title>
<polygon fill="#8dd3c7" stroke="black" points="600.93,-187 597.93,-191 576.93,-191 573.93,-187 481.07,-187 481.07,-151 600.93,-151 600.93,-187"/>
<text text-anchor="middle" x="541" y="-164.8" font-family="Times,serif" font-size="14.00">ClassroomModule</text>
</g>
<!-- ClassroomComponent&#45;&gt;ClassroomModule -->
<g id="edge1" class="edge">
<title>ClassroomComponent&#45;&gt;ClassroomModule</title>
<path fill="none" stroke="black" d="M1102,-122.29C1102,-144.21 1102,-178 1102,-178 1102,-178 610.77,-178 610.77,-178"/>
<polygon fill="black" stroke="black" points="610.77,-174.5 600.77,-178 610.77,-181.5 610.77,-174.5"/>
</g>
<!-- ClassroomComponent  -->
<g id="node10" class="node">
<title>ClassroomComponent </title>
<polygon fill="#fb8072" stroke="black" points="613.21,-252 468.79,-252 468.79,-216 613.21,-216 613.21,-252"/>
<text text-anchor="middle" x="541" y="-229.8" font-family="Times,serif" font-size="14.00">ClassroomComponent </text>
</g>
<!-- ClassroomModule&#45;&gt;ClassroomComponent  -->
<g id="edge9" class="edge">
<title>ClassroomModule&#45;&gt;ClassroomComponent </title>
<path fill="none" stroke="black" stroke-dasharray="5,2" d="M541,-187.11C541,-187.11 541,-205.99 541,-205.99"/>
<polygon fill="black" stroke="black" points="537.5,-205.99 541,-215.99 544.5,-205.99 537.5,-205.99"/>
</g>
<!-- AnnouncementsModule -->
<g id="node3" class="node">
<title>AnnouncementsModule</title>
<polygon fill="#8dd3c7" stroke="black" points="1007.03,-122 1004.03,-126 983.03,-126 980.03,-122 856.97,-122 856.97,-86 1007.03,-86 1007.03,-122"/>
<text text-anchor="middle" x="932" y="-99.8" font-family="Times,serif" font-size="14.00">AnnouncementsModule</text>
</g>
<!-- AnnouncementsModule&#45;&gt;ClassroomModule -->
<g id="edge2" class="edge">
<title>AnnouncementsModule&#45;&gt;ClassroomModule</title>
<path fill="none" stroke="black" d="M932,-122.11C932,-141.34 932,-169 932,-169 932,-169 610.81,-169 610.81,-169"/>
<polygon fill="black" stroke="black" points="610.81,-165.5 600.81,-169 610.81,-172.5 610.81,-165.5"/>
</g>
<!-- ClassroomRoutingModule -->
<g id="node4" class="node">
<title>ClassroomRoutingModule</title>
<polygon fill="#8dd3c7" stroke="black" points="838.05,-122 835.05,-126 814.05,-126 811.05,-122 673.95,-122 673.95,-86 838.05,-86 838.05,-122"/>
<text text-anchor="middle" x="756" y="-99.8" font-family="Times,serif" font-size="14.00">ClassroomRoutingModule</text>
</g>
<!-- ClassroomRoutingModule&#45;&gt;ClassroomModule -->
<g id="edge3" class="edge">
<title>ClassroomRoutingModule&#45;&gt;ClassroomModule</title>
<path fill="none" stroke="black" d="M756,-122.03C756,-138.4 756,-160 756,-160 756,-160 610.89,-160 610.89,-160"/>
<polygon fill="black" stroke="black" points="610.89,-156.5 600.89,-160 610.89,-163.5 610.89,-156.5"/>
</g>
<!-- CoursesModule -->
<g id="node5" class="node">
<title>CoursesModule</title>
<polygon fill="#8dd3c7" stroke="black" points="655.15,-122 652.15,-126 631.15,-126 628.15,-122 550.85,-122 550.85,-86 655.15,-86 655.15,-122"/>
<text text-anchor="middle" x="603" y="-99.8" font-family="Times,serif" font-size="14.00">CoursesModule</text>
</g>
<!-- CoursesModule&#45;&gt;ClassroomModule -->
<g id="edge4" class="edge">
<title>CoursesModule&#45;&gt;ClassroomModule</title>
<path fill="none" stroke="black" d="M575.7,-122.11C575.7,-122.11 575.7,-140.99 575.7,-140.99"/>
<polygon fill="black" stroke="black" points="572.2,-140.99 575.7,-150.99 579.2,-140.99 572.2,-140.99"/>
</g>
<!-- MaterialModule -->
<g id="node6" class="node">
<title>MaterialModule</title>
<polygon fill="#8dd3c7" stroke="black" points="532.47,-122 529.47,-126 508.47,-126 505.47,-122 425.53,-122 425.53,-86 532.47,-86 532.47,-122"/>
<text text-anchor="middle" x="479" y="-99.8" font-family="Times,serif" font-size="14.00">MaterialModule</text>
</g>
<!-- MaterialModule&#45;&gt;ClassroomModule -->
<g id="edge5" class="edge">
<title>MaterialModule&#45;&gt;ClassroomModule</title>
<path fill="none" stroke="black" d="M506.88,-122.11C506.88,-122.11 506.88,-140.99 506.88,-140.99"/>
<polygon fill="black" stroke="black" points="503.38,-140.99 506.88,-150.99 510.38,-140.99 503.38,-140.99"/>
</g>
<!-- StudentsModule -->
<g id="node7" class="node">
<title>StudentsModule</title>
<polygon fill="#8dd3c7" stroke="black" points="407.77,-122 404.77,-126 383.77,-126 380.77,-122 300.23,-122 300.23,-86 407.77,-86 407.77,-122"/>
<text text-anchor="middle" x="354" y="-99.8" font-family="Times,serif" font-size="14.00">StudentsModule</text>
</g>
<!-- StudentsModule&#45;&gt;ClassroomModule -->
<g id="edge6" class="edge">
<title>StudentsModule&#45;&gt;ClassroomModule</title>
<path fill="none" stroke="black" d="M354,-122.03C354,-138.4 354,-160 354,-160 354,-160 471.06,-160 471.06,-160"/>
<polygon fill="black" stroke="black" points="471.06,-163.5 481.06,-160 471.06,-156.5 471.06,-163.5"/>
</g>
<!-- TeachersModule -->
<g id="node8" class="node">
<title>TeachersModule</title>
<polygon fill="#8dd3c7" stroke="black" points="282.07,-122 279.07,-126 258.07,-126 255.07,-122 171.93,-122 171.93,-86 282.07,-86 282.07,-122"/>
<text text-anchor="middle" x="227" y="-99.8" font-family="Times,serif" font-size="14.00">TeachersModule</text>
</g>
<!-- TeachersModule&#45;&gt;ClassroomModule -->
<g id="edge7" class="edge">
<title>TeachersModule&#45;&gt;ClassroomModule</title>
<path fill="none" stroke="black" d="M227,-122.11C227,-141.34 227,-169 227,-169 227,-169 471.2,-169 471.2,-169"/>
<polygon fill="black" stroke="black" points="471.2,-172.5 481.2,-169 471.2,-165.5 471.2,-172.5"/>
</g>
<!-- UserProfilesModule -->
<g id="node9" class="node">
<title>UserProfilesModule</title>
<polygon fill="#8dd3c7" stroke="black" points="153.52,-122 150.52,-126 129.52,-126 126.52,-122 24.48,-122 24.48,-86 153.52,-86 153.52,-122"/>
<text text-anchor="middle" x="89" y="-99.8" font-family="Times,serif" font-size="14.00">UserProfilesModule</text>
</g>
<!-- UserProfilesModule&#45;&gt;ClassroomModule -->
<g id="edge8" class="edge">
<title>UserProfilesModule&#45;&gt;ClassroomModule</title>
<path fill="none" stroke="black" d="M89,-122.29C89,-144.21 89,-178 89,-178 89,-178 470.98,-178 470.98,-178"/>
<polygon fill="black" stroke="black" points="470.98,-181.5 480.98,-178 470.98,-174.5 470.98,-181.5"/>
</g>
</g>
</svg>
