<?xml version="1.0" encoding="UTF-8" standalone="no"?>
<!DOCTYPE svg PUBLIC "-//W3C//DTD SVG 1.1//EN"
 "http://www.w3.org/Graphics/SVG/1.1/DTD/svg11.dtd">
<!-- Generated by graphviz version 2.44.1 (20200629.0846)
 -->
<!-- Title: dependencies Pages: 1 -->
<svg width="504pt" height="284pt"
 viewBox="0.00 0.00 504.00 284.00" xmlns="http://www.w3.org/2000/svg" xmlns:xlink="http://www.w3.org/1999/xlink">
<g id="graph0" class="graph" transform="scale(1 1) rotate(0) translate(4 280)">
<title>dependencies</title>
<polygon fill="white" stroke="transparent" points="-4,4 -4,-280 500,-280 500,4 -4,4"/>
<text text-anchor="start" x="227.01" y="-42.4" font-family="sans-serif" font-weight="bold" font-size="14.00">Legend</text>
<polygon fill="#ffffb3" stroke="transparent" points="14,-10 14,-30 34,-30 34,-10 14,-10"/>
<text text-anchor="start" x="37.63" y="-15.4" font-family="sans-serif" font-size="14.00"> &#160;Declarations</text>
<polygon fill="#8dd3c7" stroke="transparent" points="127,-10 127,-30 147,-30 147,-10 127,-10"/>
<text text-anchor="start" x="150.73" y="-15.4" font-family="sans-serif" font-size="14.00"> &#160;Module</text>
<polygon fill="#80b1d3" stroke="transparent" points="213,-10 213,-30 233,-30 233,-10 213,-10"/>
<text text-anchor="start" x="236.78" y="-15.4" font-family="sans-serif" font-size="14.00"> &#160;Bootstrap</text>
<polygon fill="#fdb462" stroke="transparent" points="310,-10 310,-30 330,-30 330,-10 310,-10"/>
<text text-anchor="start" x="333.67" y="-15.4" font-family="sans-serif" font-size="14.00"> &#160;Providers</text>
<polygon fill="#fb8072" stroke="transparent" points="406,-10 406,-30 426,-30 426,-10 406,-10"/>
<text text-anchor="start" x="429.73" y="-15.4" font-family="sans-serif" font-size="14.00"> &#160;Exports</text>
<g id="clust1" class="cluster">
<title>cluster_SharedModule</title>
<polygon fill="none" stroke="black" stroke-dasharray="1,5" points="49,-70 49,-268 447,-268 447,-70 49,-70"/>
</g>
<g id="clust5" class="cluster">
<title>cluster_SharedModule_imports</title>
<polygon fill="none" stroke="black" points="317,-78 317,-130 439,-130 439,-78 317,-78"/>
</g>
<g id="clust2" class="cluster">
<title>cluster_SharedModule_declarations</title>
<polygon fill="none" stroke="black" points="57,-78 57,-130 309,-130 309,-78 57,-78"/>
</g>
<g id="clust6" class="cluster">
<title>cluster_SharedModule_exports</title>
<polygon fill="none" stroke="black" points="118,-208 118,-260 378,-260 378,-208 118,-208"/>
</g>
<!-- LogoComponent -->
<g id="node1" class="node">
<title>LogoComponent</title>
<polygon fill="#ffffb3" stroke="black" points="301.39,-122 190.61,-122 190.61,-86 301.39,-86 301.39,-122"/>
<text text-anchor="middle" x="246" y="-99.8" font-family="Times,serif" font-size="14.00">LogoComponent</text>
</g>
<!-- SharedModule -->
<g id="node3" class="node">
<title>SharedModule</title>
<polygon fill="#8dd3c7" stroke="black" points="295.42,-187 292.42,-191 271.42,-191 268.42,-187 196.58,-187 196.58,-151 295.42,-151 295.42,-187"/>
<text text-anchor="middle" x="246" y="-164.8" font-family="Times,serif" font-size="14.00">SharedModule</text>
</g>
<!-- LogoComponent&#45;&gt;SharedModule -->
<g id="edge1" class="edge">
<title>LogoComponent&#45;&gt;SharedModule</title>
<path fill="none" stroke="black" d="M246,-122.11C246,-122.11 246,-140.99 246,-140.99"/>
<polygon fill="black" stroke="black" points="242.5,-140.99 246,-150.99 249.5,-140.99 242.5,-140.99"/>
</g>
<!-- UserComponent -->
<g id="node2" class="node">
<title>UserComponent</title>
<polygon fill="#ffffb3" stroke="black" points="172.76,-122 65.24,-122 65.24,-86 172.76,-86 172.76,-122"/>
<text text-anchor="middle" x="119" y="-99.8" font-family="Times,serif" font-size="14.00">UserComponent</text>
</g>
<!-- UserComponent&#45;&gt;SharedModule -->
<g id="edge2" class="edge">
<title>UserComponent&#45;&gt;SharedModule</title>
<path fill="none" stroke="black" d="M149.62,-122.11C149.62,-141.34 149.62,-169 149.62,-169 149.62,-169 186.68,-169 186.68,-169"/>
<polygon fill="black" stroke="black" points="186.68,-172.5 196.68,-169 186.68,-165.5 186.68,-172.5"/>
</g>
<!-- LogoComponent  -->
<g id="node5" class="node">
<title>LogoComponent </title>
<polygon fill="#fb8072" stroke="black" points="370.39,-252 255.61,-252 255.61,-216 370.39,-216 370.39,-252"/>
<text text-anchor="middle" x="313" y="-229.8" font-family="Times,serif" font-size="14.00">LogoComponent </text>
</g>
<!-- SharedModule&#45;&gt;LogoComponent  -->
<g id="edge4" class="edge">
<title>SharedModule&#45;&gt;LogoComponent </title>
<path fill="none" stroke="black" stroke-dasharray="5,2" d="M275.51,-187.11C275.51,-187.11 275.51,-205.99 275.51,-205.99"/>
<polygon fill="black" stroke="black" points="272.01,-205.99 275.51,-215.99 279.01,-205.99 272.01,-205.99"/>
</g>
<!-- UserComponent  -->
<g id="node6" class="node">
<title>UserComponent </title>
<polygon fill="#fb8072" stroke="black" points="237.76,-252 126.24,-252 126.24,-216 237.76,-216 237.76,-252"/>
<text text-anchor="middle" x="182" y="-229.8" font-family="Times,serif" font-size="14.00">UserComponent </text>
</g>
<!-- SharedModule&#45;&gt;UserComponent  -->
<g id="edge5" class="edge">
<title>SharedModule&#45;&gt;UserComponent </title>
<path fill="none" stroke="black" stroke-dasharray="5,2" d="M217.21,-187.11C217.21,-187.11 217.21,-205.99 217.21,-205.99"/>
<polygon fill="black" stroke="black" points="213.71,-205.99 217.21,-215.99 220.71,-205.99 213.71,-205.99"/>
</g>
<!-- MaterialModule -->
<g id="node4" class="node">
<title>MaterialModule</title>
<polygon fill="#8dd3c7" stroke="black" points="431.47,-122 428.47,-126 407.47,-126 404.47,-122 324.53,-122 324.53,-86 431.47,-86 431.47,-122"/>
<text text-anchor="middle" x="378" y="-99.8" font-family="Times,serif" font-size="14.00">MaterialModule</text>
</g>
<!-- MaterialModule&#45;&gt;SharedModule -->
<g id="edge3" class="edge">
<title>MaterialModule&#45;&gt;SharedModule</title>
<path fill="none" stroke="black" d="M347.35,-122.11C347.35,-141.34 347.35,-169 347.35,-169 347.35,-169 305.49,-169 305.49,-169"/>
<polygon fill="black" stroke="black" points="305.49,-165.5 295.49,-169 305.49,-172.5 305.49,-165.5"/>
</g>
</g>
</svg>
