<?xml version="1.0" encoding="UTF-8" standalone="no"?>
<!DOCTYPE svg PUBLIC "-//W3C//DTD SVG 1.1//EN"
 "http://www.w3.org/Graphics/SVG/1.1/DTD/svg11.dtd">
<!-- Generated by graphviz version 2.47.0 (20210316.0004)
 -->
<!-- Title: dependencies Pages: 1 -->
<svg width="5332pt" height="284pt"
 viewBox="0.00 0.00 5332.00 284.00" xmlns="http://www.w3.org/2000/svg" xmlns:xlink="http://www.w3.org/1999/xlink">
<g id="graph0" class="graph" transform="scale(1 1) rotate(0) translate(4 280)">
<title>dependencies</title>
<polygon fill="white" stroke="transparent" points="-4,4 -4,-280 5328,-280 5328,4 -4,4"/>
<text text-anchor="start" x="2641.01" y="-42.4" font-family="sans-serif" font-weight="bold" font-size="14.00">Legend</text>
<polygon fill="#ffffb3" stroke="transparent" points="2428,-10 2428,-30 2448,-30 2448,-10 2428,-10"/>
<text text-anchor="start" x="2451.63" y="-15.4" font-family="sans-serif" font-size="14.00"> &#160;Declarations</text>
<polygon fill="#8dd3c7" stroke="transparent" points="2541,-10 2541,-30 2561,-30 2561,-10 2541,-10"/>
<text text-anchor="start" x="2564.73" y="-15.4" font-family="sans-serif" font-size="14.00"> &#160;Module</text>
<polygon fill="#80b1d3" stroke="transparent" points="2627,-10 2627,-30 2647,-30 2647,-10 2627,-10"/>
<text text-anchor="start" x="2650.78" y="-15.4" font-family="sans-serif" font-size="14.00"> &#160;Bootstrap</text>
<polygon fill="#fdb462" stroke="transparent" points="2724,-10 2724,-30 2744,-30 2744,-10 2724,-10"/>
<text text-anchor="start" x="2747.67" y="-15.4" font-family="sans-serif" font-size="14.00"> &#160;Providers</text>
<polygon fill="#fb8072" stroke="transparent" points="2820,-10 2820,-30 2840,-30 2840,-10 2820,-10"/>
<text text-anchor="start" x="2843.73" y="-15.4" font-family="sans-serif" font-size="14.00"> &#160;Exports</text>
<g id="clust1" class="cluster">
<title>cluster_SharedModule</title>
<polygon fill="none" stroke="black" stroke-dasharray="1,5" points="8,-70 8,-268 5316,-268 5316,-70 8,-70"/>
</g>
<g id="clust2" class="cluster">
<title>cluster_SharedModule_declarations</title>
<polygon fill="none" stroke="black" points="759,-78 759,-130 5308,-130 5308,-78 759,-78"/>
</g>
<g id="clust34" class="cluster">
<title>cluster_SharedModule_providers</title>
<polygon fill="none" stroke="black" points="146,-78 146,-130 751,-130 751,-78 146,-78"/>
</g>
<g id="clust31" class="cluster">
<title>cluster_SharedModule_imports</title>
<polygon fill="none" stroke="black" points="16,-78 16,-130 138,-130 138,-78 16,-78"/>
</g>
<g id="clust32" class="cluster">
<title>cluster_SharedModule_exports</title>
<polygon fill="none" stroke="black" points="309,-208 309,-260 4955,-260 4955,-208 309,-208"/>
</g>
<!-- AboutComponent -->
<g id="node1" class="node">
<title>AboutComponent</title>
<polygon fill="#ffffb3" stroke="black" points="5300.33,-122 5183.67,-122 5183.67,-86 5300.33,-86 5300.33,-122"/>
<text text-anchor="middle" x="5242" y="-99.8" font-family="Times,serif" font-size="14.00">AboutComponent</text>
</g>
<!-- SharedModule -->
<g id="node29" class="node">
<title>SharedModule</title>
<polygon fill="#8dd3c7" stroke="black" points="2707.42,-187 2704.42,-191 2683.42,-191 2680.42,-187 2608.58,-187 2608.58,-151 2707.42,-151 2707.42,-187"/>
<text text-anchor="middle" x="2658" y="-164.8" font-family="Times,serif" font-size="14.00">SharedModule</text>
</g>
<!-- AboutComponent&#45;&gt;SharedModule -->
<g id="edge1" class="edge">
<title>AboutComponent&#45;&gt;SharedModule</title>
<path fill="none" stroke="black" d="M5242,-122.31C5242,-142.15 5242,-171 5242,-171 5242,-171 2717.31,-171 2717.31,-171"/>
<polygon fill="black" stroke="black" points="2717.31,-167.5 2707.31,-171 2717.31,-174.5 2717.31,-167.5"/>
</g>
<!-- AnimatedTextComponent -->
<g id="node2" class="node">
<title>AnimatedTextComponent</title>
<polygon fill="#ffffb3" stroke="black" points="5166.2,-122 5003.8,-122 5003.8,-86 5166.2,-86 5166.2,-122"/>
<text text-anchor="middle" x="5085" y="-99.8" font-family="Times,serif" font-size="14.00">AnimatedTextComponent</text>
</g>
<!-- AnimatedTextComponent&#45;&gt;SharedModule -->
<g id="edge2" class="edge">
<title>AnimatedTextComponent&#45;&gt;SharedModule</title>
<path fill="none" stroke="black" d="M5085,-122.11C5085,-141.34 5085,-169 5085,-169 5085,-169 2717.3,-169 2717.3,-169"/>
<polygon fill="black" stroke="black" points="2717.3,-165.5 2707.3,-169 2717.3,-172.5 2717.3,-165.5"/>
</g>
<!-- BreadcrumbComponent -->
<g id="node3" class="node">
<title>BreadcrumbComponent</title>
<polygon fill="#ffffb3" stroke="black" points="4986.03,-122 4835.97,-122 4835.97,-86 4986.03,-86 4986.03,-122"/>
<text text-anchor="middle" x="4911" y="-99.8" font-family="Times,serif" font-size="14.00">BreadcrumbComponent</text>
</g>
<!-- BreadcrumbComponent&#45;&gt;SharedModule -->
<g id="edge3" class="edge">
<title>BreadcrumbComponent&#45;&gt;SharedModule</title>
<path fill="none" stroke="black" d="M4891.33,-122.17C4891.33,-141.09 4891.33,-168 4891.33,-168 4891.33,-168 2717.25,-168 2717.25,-168"/>
<polygon fill="black" stroke="black" points="2717.25,-164.5 2707.25,-168 2717.25,-171.5 2717.25,-164.5"/>
</g>
<!-- CodeConductComponent -->
<g id="node4" class="node">
<title>CodeConductComponent</title>
<polygon fill="#ffffb3" stroke="black" points="4818.33,-122 4659.67,-122 4659.67,-86 4818.33,-86 4818.33,-122"/>
<text text-anchor="middle" x="4739" y="-99.8" font-family="Times,serif" font-size="14.00">CodeConductComponent</text>
</g>
<!-- CodeConductComponent&#45;&gt;SharedModule -->
<g id="edge4" class="edge">
<title>CodeConductComponent&#45;&gt;SharedModule</title>
<path fill="none" stroke="black" d="M4734.34,-122.22C4734.34,-140.83 4734.34,-167 4734.34,-167 4734.34,-167 2717.28,-167 2717.28,-167"/>
<polygon fill="black" stroke="black" points="2717.28,-163.5 2707.28,-167 2717.28,-170.5 2717.28,-163.5"/>
</g>
<!-- CodeConductSchoolComponent -->
<g id="node5" class="node">
<title>CodeConductSchoolComponent</title>
<polygon fill="#ffffb3" stroke="black" points="4641.71,-122 4444.29,-122 4444.29,-86 4641.71,-86 4641.71,-122"/>
<text text-anchor="middle" x="4543" y="-99.8" font-family="Times,serif" font-size="14.00">CodeConductSchoolComponent</text>
</g>
<!-- CodeConductSchoolComponent&#45;&gt;SharedModule -->
<g id="edge5" class="edge">
<title>CodeConductSchoolComponent&#45;&gt;SharedModule</title>
<path fill="none" stroke="black" d="M4448.65,-122.27C4448.65,-140.56 4448.65,-166 4448.65,-166 4448.65,-166 2717.29,-166 2717.29,-166"/>
<polygon fill="black" stroke="black" points="2717.29,-162.5 2707.29,-166 2717.29,-169.5 2717.29,-162.5"/>
</g>
<!-- DashboardComponent -->
<g id="node6" class="node">
<title>DashboardComponent</title>
<polygon fill="#ffffb3" stroke="black" points="4425.97,-122 4284.03,-122 4284.03,-86 4425.97,-86 4425.97,-122"/>
<text text-anchor="middle" x="4355" y="-99.8" font-family="Times,serif" font-size="14.00">DashboardComponent</text>
</g>
<!-- DashboardComponent&#45;&gt;SharedModule -->
<g id="edge6" class="edge">
<title>DashboardComponent&#45;&gt;SharedModule</title>
<path fill="none" stroke="black" d="M4287.55,-122.3C4287.55,-140.27 4287.55,-165 4287.55,-165 4287.55,-165 2717.21,-165 2717.21,-165"/>
<polygon fill="black" stroke="black" points="2717.21,-161.5 2707.21,-165 2717.21,-168.5 2717.21,-161.5"/>
</g>
<!-- DeleteButtonComponent -->
<g id="node7" class="node">
<title>DeleteButtonComponent</title>
<polygon fill="#ffffb3" stroke="black" points="4265.98,-122 4110.02,-122 4110.02,-86 4265.98,-86 4265.98,-122"/>
<text text-anchor="middle" x="4188" y="-99.8" font-family="Times,serif" font-size="14.00">DeleteButtonComponent</text>
</g>
<!-- DeleteButtonComponent&#45;&gt;SharedModule -->
<g id="edge7" class="edge">
<title>DeleteButtonComponent&#45;&gt;SharedModule</title>
<path fill="none" stroke="black" d="M4188,-122.02C4188,-139.37 4188,-163 4188,-163 4188,-163 2717.6,-163 2717.6,-163"/>
<polygon fill="black" stroke="black" points="2717.6,-159.5 2707.6,-163 2717.6,-166.5 2717.6,-159.5"/>
</g>
<!-- HomeComponent -->
<g id="node8" class="node">
<title>HomeComponent</title>
<polygon fill="#ffffb3" stroke="black" points="4091.55,-122 3976.45,-122 3976.45,-86 4091.55,-86 4091.55,-122"/>
<text text-anchor="middle" x="4034" y="-99.8" font-family="Times,serif" font-size="14.00">HomeComponent</text>
</g>
<!-- HomeComponent&#45;&gt;SharedModule -->
<g id="edge8" class="edge">
<title>HomeComponent&#45;&gt;SharedModule</title>
<path fill="none" stroke="black" d="M4015.48,-122.03C4015.48,-139.06 4015.48,-162 4015.48,-162 4015.48,-162 2717.52,-162 2717.52,-162"/>
<polygon fill="black" stroke="black" points="2717.52,-158.5 2707.52,-162 2717.52,-165.5 2717.52,-158.5"/>
</g>
<!-- LicenseComponent -->
<g id="node9" class="node">
<title>LicenseComponent</title>
<polygon fill="#ffffb3" stroke="black" points="3958.36,-122 3833.64,-122 3833.64,-86 3958.36,-86 3958.36,-122"/>
<text text-anchor="middle" x="3896" y="-99.8" font-family="Times,serif" font-size="14.00">LicenseComponent</text>
</g>
<!-- LicenseComponent&#45;&gt;SharedModule -->
<g id="edge9" class="edge">
<title>LicenseComponent&#45;&gt;SharedModule</title>
<path fill="none" stroke="black" d="M3862.65,-122.04C3862.65,-138.73 3862.65,-161 3862.65,-161 3862.65,-161 2717.47,-161 2717.47,-161"/>
<polygon fill="black" stroke="black" points="2717.47,-157.5 2707.47,-161 2717.47,-164.5 2717.47,-157.5"/>
</g>
<!-- LocationComponent -->
<g id="node10" class="node">
<title>LocationComponent</title>
<polygon fill="#ffffb3" stroke="black" points="3815.6,-122 3684.4,-122 3684.4,-86 3815.6,-86 3815.6,-122"/>
<text text-anchor="middle" x="3750" y="-99.8" font-family="Times,serif" font-size="14.00">LocationComponent</text>
</g>
<!-- LocationComponent&#45;&gt;SharedModule -->
<g id="edge10" class="edge">
<title>LocationComponent&#45;&gt;SharedModule</title>
<path fill="none" stroke="black" d="M3699.49,-122.03C3699.49,-138.4 3699.49,-160 3699.49,-160 3699.49,-160 2717.53,-160 2717.53,-160"/>
<polygon fill="black" stroke="black" points="2717.53,-156.5 2707.53,-160 2717.53,-163.5 2717.53,-156.5"/>
</g>
<!-- LogoAnimateComponent -->
<g id="node11" class="node">
<title>LogoAnimateComponent</title>
<polygon fill="#ffffb3" stroke="black" points="3666.59,-122 3507.41,-122 3507.41,-86 3666.59,-86 3666.59,-122"/>
<text text-anchor="middle" x="3587" y="-99.8" font-family="Times,serif" font-size="14.00">LogoAnimateComponent</text>
</g>
<!-- LogoAnimateComponent&#45;&gt;SharedModule -->
<g id="edge11" class="edge">
<title>LogoAnimateComponent&#45;&gt;SharedModule</title>
<path fill="none" stroke="black" d="M3542.32,-122.01C3542.32,-138.05 3542.32,-159 3542.32,-159 3542.32,-159 2717.44,-159 2717.44,-159"/>
<polygon fill="black" stroke="black" points="2717.44,-155.5 2707.44,-159 2717.44,-162.5 2717.44,-155.5"/>
</g>
<!-- LogoComponent -->
<g id="node12" class="node">
<title>LogoComponent</title>
<polygon fill="#ffffb3" stroke="black" points="3489.39,-122 3378.61,-122 3378.61,-86 3489.39,-86 3489.39,-122"/>
<text text-anchor="middle" x="3434" y="-99.8" font-family="Times,serif" font-size="14.00">LogoComponent</text>
</g>
<!-- LogoComponent&#45;&gt;SharedModule -->
<g id="edge12" class="edge">
<title>LogoComponent&#45;&gt;SharedModule</title>
<path fill="none" stroke="black" d="M3404.93,-122.24C3404.93,-137.57 3404.93,-157 3404.93,-157 3404.93,-157 2717.3,-157 2717.3,-157"/>
<polygon fill="black" stroke="black" points="2717.3,-153.5 2707.3,-157 2717.3,-160.5 2717.3,-153.5"/>
</g>
<!-- NotFoundComponent -->
<g id="node13" class="node">
<title>NotFoundComponent</title>
<polygon fill="#ffffb3" stroke="black" points="3361.11,-122 3222.89,-122 3222.89,-86 3361.11,-86 3361.11,-122"/>
<text text-anchor="middle" x="3292" y="-99.8" font-family="Times,serif" font-size="14.00">NotFoundComponent</text>
</g>
<!-- NotFoundComponent&#45;&gt;SharedModule -->
<g id="edge13" class="edge">
<title>NotFoundComponent&#45;&gt;SharedModule</title>
<path fill="none" stroke="black" d="M3250.62,-122.19C3250.62,-137.18 3250.62,-156 3250.62,-156 3250.62,-156 2717.25,-156 2717.25,-156"/>
<polygon fill="black" stroke="black" points="2717.25,-152.5 2707.25,-156 2717.25,-159.5 2717.25,-152.5"/>
</g>
<!-- ParallaxComponent -->
<g id="node14" class="node">
<title>ParallaxComponent</title>
<polygon fill="#ffffb3" stroke="black" points="3204.7,-122 3077.3,-122 3077.3,-86 3204.7,-86 3204.7,-122"/>
<text text-anchor="middle" x="3141" y="-99.8" font-family="Times,serif" font-size="14.00">ParallaxComponent</text>
</g>
<!-- ParallaxComponent&#45;&gt;SharedModule -->
<g id="edge14" class="edge">
<title>ParallaxComponent&#45;&gt;SharedModule</title>
<path fill="none" stroke="black" d="M3087.8,-122.12C3087.8,-136.78 3087.8,-155 3087.8,-155 3087.8,-155 2717.3,-155 2717.3,-155"/>
<polygon fill="black" stroke="black" points="2717.3,-151.5 2707.3,-155 2717.3,-158.5 2717.3,-151.5"/>
</g>
<!-- ParallaxSpaceComponent -->
<g id="node15" class="node">
<title>ParallaxSpaceComponent</title>
<polygon fill="#ffffb3" stroke="black" points="3059.13,-122 2898.87,-122 2898.87,-86 3059.13,-86 3059.13,-122"/>
<text text-anchor="middle" x="2979" y="-99.8" font-family="Times,serif" font-size="14.00">ParallaxSpaceComponent</text>
</g>
<!-- ParallaxSpaceComponent&#45;&gt;SharedModule -->
<g id="edge15" class="edge">
<title>ParallaxSpaceComponent&#45;&gt;SharedModule</title>
<path fill="none" stroke="black" d="M2932.25,-122.05C2932.25,-136.37 2932.25,-154 2932.25,-154 2932.25,-154 2717.35,-154 2717.35,-154"/>
<polygon fill="black" stroke="black" points="2717.35,-150.5 2707.35,-154 2717.35,-157.5 2717.35,-150.5"/>
</g>
<!-- PreescolarComponent -->
<g id="node16" class="node">
<title>PreescolarComponent</title>
<polygon fill="#ffffb3" stroke="black" points="2880.63,-122 2741.37,-122 2741.37,-86 2880.63,-86 2880.63,-122"/>
<text text-anchor="middle" x="2811" y="-99.8" font-family="Times,serif" font-size="14.00">PreescolarComponent</text>
</g>
<!-- PreescolarComponent&#45;&gt;SharedModule -->
<g id="edge16" class="edge">
<title>PreescolarComponent&#45;&gt;SharedModule</title>
<path fill="none" stroke="black" d="M2773.77,-122.25C2773.77,-136.18 2773.77,-153 2773.77,-153 2773.77,-153 2717.43,-153 2717.43,-153"/>
<polygon fill="black" stroke="black" points="2717.43,-149.5 2707.43,-153 2717.43,-156.5 2717.43,-149.5"/>
</g>
<!-- PrimariaComponent -->
<g id="node17" class="node">
<title>PrimariaComponent</title>
<polygon fill="#ffffb3" stroke="black" points="2722.54,-122 2593.46,-122 2593.46,-86 2722.54,-86 2722.54,-122"/>
<text text-anchor="middle" x="2658" y="-99.8" font-family="Times,serif" font-size="14.00">PrimariaComponent</text>
</g>
<!-- PrimariaComponent&#45;&gt;SharedModule -->
<g id="edge17" class="edge">
<title>PrimariaComponent&#45;&gt;SharedModule</title>
<path fill="none" stroke="black" d="M2658,-122.11C2658,-122.11 2658,-140.99 2658,-140.99"/>
<polygon fill="black" stroke="black" points="2654.5,-140.99 2658,-150.99 2661.5,-140.99 2654.5,-140.99"/>
</g>
<!-- PrivacyPolicyComponent -->
<g id="node18" class="node">
<title>PrivacyPolicyComponent</title>
<polygon fill="#ffffb3" stroke="black" points="2574.87,-122 2415.13,-122 2415.13,-86 2574.87,-86 2574.87,-122"/>
<text text-anchor="middle" x="2495" y="-99.8" font-family="Times,serif" font-size="14.00">PrivacyPolicyComponent</text>
</g>
<!-- PrivacyPolicyComponent&#45;&gt;SharedModule -->
<g id="edge18" class="edge">
<title>PrivacyPolicyComponent&#45;&gt;SharedModule</title>
<path fill="none" stroke="black" d="M2534.44,-122.25C2534.44,-136.18 2534.44,-153 2534.44,-153 2534.44,-153 2598.45,-153 2598.45,-153"/>
<polygon fill="black" stroke="black" points="2598.45,-156.5 2608.45,-153 2598.45,-149.5 2598.45,-156.5"/>
</g>
<!-- RemoteLearningComponent -->
<g id="node19" class="node">
<title>RemoteLearningComponent</title>
<polygon fill="#ffffb3" stroke="black" points="2396.91,-122 2221.09,-122 2221.09,-86 2396.91,-86 2396.91,-122"/>
<text text-anchor="middle" x="2309" y="-99.8" font-family="Times,serif" font-size="14.00">RemoteLearningComponent</text>
</g>
<!-- RemoteLearningComponent&#45;&gt;SharedModule -->
<g id="edge19" class="edge">
<title>RemoteLearningComponent&#45;&gt;SharedModule</title>
<path fill="none" stroke="black" d="M2364.57,-122.05C2364.57,-136.37 2364.57,-154 2364.57,-154 2364.57,-154 2598.56,-154 2598.56,-154"/>
<polygon fill="black" stroke="black" points="2598.56,-157.5 2608.56,-154 2598.56,-150.5 2598.56,-157.5"/>
</g>
<!-- RemoveConfirmComponent -->
<g id="node20" class="node">
<title>RemoveConfirmComponent</title>
<polygon fill="#ffffb3" stroke="black" points="2203.93,-122 2028.07,-122 2028.07,-86 2203.93,-86 2203.93,-122"/>
<text text-anchor="middle" x="2116" y="-99.8" font-family="Times,serif" font-size="14.00">RemoveConfirmComponent</text>
</g>
<!-- RemoveConfirmComponent&#45;&gt;SharedModule -->
<g id="edge20" class="edge">
<title>RemoveConfirmComponent&#45;&gt;SharedModule</title>
<path fill="none" stroke="black" d="M2192.6,-122.12C2192.6,-136.78 2192.6,-155 2192.6,-155 2192.6,-155 2598.63,-155 2598.63,-155"/>
<polygon fill="black" stroke="black" points="2598.63,-158.5 2608.63,-155 2598.63,-151.5 2598.63,-158.5"/>
</g>
<!-- ReopenningComponent -->
<g id="node21" class="node">
<title>ReopenningComponent</title>
<polygon fill="#ffffb3" stroke="black" points="2010.49,-122 1861.51,-122 1861.51,-86 2010.49,-86 2010.49,-122"/>
<text text-anchor="middle" x="1936" y="-99.8" font-family="Times,serif" font-size="14.00">ReopenningComponent</text>
</g>
<!-- ReopenningComponent&#45;&gt;SharedModule -->
<g id="edge21" class="edge">
<title>ReopenningComponent&#45;&gt;SharedModule</title>
<path fill="none" stroke="black" d="M2005.4,-122.19C2005.4,-137.18 2005.4,-156 2005.4,-156 2005.4,-156 2598.68,-156 2598.68,-156"/>
<polygon fill="black" stroke="black" points="2598.68,-159.5 2608.68,-156 2598.68,-152.5 2598.68,-159.5"/>
</g>
<!-- SecundariaComponent -->
<g id="node22" class="node">
<title>SecundariaComponent</title>
<polygon fill="#ffffb3" stroke="black" points="1843.53,-122 1700.47,-122 1700.47,-86 1843.53,-86 1843.53,-122"/>
<text text-anchor="middle" x="1772" y="-99.8" font-family="Times,serif" font-size="14.00">SecundariaComponent</text>
</g>
<!-- SecundariaComponent&#45;&gt;SharedModule -->
<g id="edge22" class="edge">
<title>SecundariaComponent&#45;&gt;SharedModule</title>
<path fill="none" stroke="black" d="M1823.65,-122.24C1823.65,-137.57 1823.65,-157 1823.65,-157 1823.65,-157 2598.62,-157 2598.62,-157"/>
<polygon fill="black" stroke="black" points="2598.62,-160.5 2608.62,-157 2598.61,-153.5 2598.62,-160.5"/>
</g>
<!-- SnackComponent -->
<g id="node23" class="node">
<title>SnackComponent</title>
<polygon fill="#ffffb3" stroke="black" points="1681.55,-122 1566.45,-122 1566.45,-86 1681.55,-86 1681.55,-122"/>
<text text-anchor="middle" x="1624" y="-99.8" font-family="Times,serif" font-size="14.00">SnackComponent</text>
</g>
<!-- SnackComponent&#45;&gt;SharedModule -->
<g id="edge23" class="edge">
<title>SnackComponent&#45;&gt;SharedModule</title>
<path fill="none" stroke="black" d="M1644.15,-122.01C1644.15,-138.05 1644.15,-159 1644.15,-159 1644.15,-159 2598.76,-159 2598.76,-159"/>
<polygon fill="black" stroke="black" points="2598.76,-162.5 2608.76,-159 2598.76,-155.5 2598.76,-162.5"/>
</g>
<!-- TermsComponent -->
<g id="node24" class="node">
<title>TermsComponent</title>
<polygon fill="#ffffb3" stroke="black" points="1548.6,-122 1431.4,-122 1431.4,-86 1548.6,-86 1548.6,-122"/>
<text text-anchor="middle" x="1490" y="-99.8" font-family="Times,serif" font-size="14.00">TermsComponent</text>
</g>
<!-- TermsComponent&#45;&gt;SharedModule -->
<g id="edge24" class="edge">
<title>TermsComponent&#45;&gt;SharedModule</title>
<path fill="none" stroke="black" d="M1492.15,-122.03C1492.15,-138.4 1492.15,-160 1492.15,-160 1492.15,-160 2598.65,-160 2598.65,-160"/>
<polygon fill="black" stroke="black" points="2598.65,-163.5 2608.65,-160 2598.65,-156.5 2598.65,-163.5"/>
</g>
<!-- UnderConstructionComponent -->
<g id="node25" class="node">
<title>UnderConstructionComponent</title>
<polygon fill="#ffffb3" stroke="black" points="1413.14,-122 1224.86,-122 1224.86,-86 1413.14,-86 1413.14,-122"/>
<text text-anchor="middle" x="1319" y="-99.8" font-family="Times,serif" font-size="14.00">UnderConstructionComponent</text>
</g>
<!-- UnderConstructionComponent&#45;&gt;SharedModule -->
<g id="edge25" class="edge">
<title>UnderConstructionComponent&#45;&gt;SharedModule</title>
<path fill="none" stroke="black" d="M1318.1,-122.04C1318.1,-138.73 1318.1,-161 1318.1,-161 1318.1,-161 2598.72,-161 2598.72,-161"/>
<polygon fill="black" stroke="black" points="2598.72,-164.5 2608.72,-161 2598.72,-157.5 2598.72,-164.5"/>
</g>
<!-- UserCardComponent -->
<g id="node26" class="node">
<title>UserCardComponent</title>
<polygon fill="#ffffb3" stroke="black" points="1206.47,-122 1071.53,-122 1071.53,-86 1206.47,-86 1206.47,-122"/>
<text text-anchor="middle" x="1139" y="-99.8" font-family="Times,serif" font-size="14.00">UserCardComponent</text>
</g>
<!-- UserCardComponent&#45;&gt;SharedModule -->
<g id="edge26" class="edge">
<title>UserCardComponent&#45;&gt;SharedModule</title>
<path fill="none" stroke="black" d="M1169.98,-122.03C1169.98,-139.06 1169.98,-162 1169.98,-162 1169.98,-162 2598.49,-162 2598.49,-162"/>
<polygon fill="black" stroke="black" points="2598.49,-165.5 2608.49,-162 2598.49,-158.5 2598.49,-165.5"/>
</g>
<!-- WellcomeComponent -->
<g id="node27" class="node">
<title>WellcomeComponent</title>
<polygon fill="#ffffb3" stroke="black" points="1053.36,-122 914.64,-122 914.64,-86 1053.36,-86 1053.36,-122"/>
<text text-anchor="middle" x="984" y="-99.8" font-family="Times,serif" font-size="14.00">WellcomeComponent</text>
</g>
<!-- WellcomeComponent&#45;&gt;SharedModule -->
<g id="edge27" class="edge">
<title>WellcomeComponent&#45;&gt;SharedModule</title>
<path fill="none" stroke="black" d="M1024.07,-122.02C1024.07,-139.37 1024.07,-163 1024.07,-163 1024.07,-163 2598.65,-163 2598.65,-163"/>
<polygon fill="black" stroke="black" points="2598.65,-166.5 2608.65,-163 2598.65,-159.5 2598.65,-166.5"/>
</g>
<!-- YoutubeComponent -->
<g id="node28" class="node">
<title>YoutubeComponent</title>
<polygon fill="#ffffb3" stroke="black" points="896.54,-122 767.46,-122 767.46,-86 896.54,-86 896.54,-122"/>
<text text-anchor="middle" x="832" y="-99.8" font-family="Times,serif" font-size="14.00">YoutubeComponent</text>
</g>
<!-- YoutubeComponent&#45;&gt;SharedModule -->
<g id="edge28" class="edge">
<title>YoutubeComponent&#45;&gt;SharedModule</title>
<path fill="none" stroke="black" d="M840.85,-122.3C840.85,-140.27 840.85,-165 840.85,-165 840.85,-165 2598.45,-165 2598.45,-165"/>
<polygon fill="black" stroke="black" points="2598.45,-168.5 2608.45,-165 2598.45,-161.5 2598.45,-168.5"/>
</g>
<!-- AboutComponent  -->
<g id="node31" class="node">
<title>AboutComponent </title>
<polygon fill="#fb8072" stroke="black" points="4946.83,-252 4827.17,-252 4827.17,-216 4946.83,-216 4946.83,-252"/>
<text text-anchor="middle" x="4887" y="-229.8" font-family="Times,serif" font-size="14.00">AboutComponent </text>
</g>
<!-- SharedModule&#45;&gt;AboutComponent  -->
<g id="edge30" class="edge">
<title>SharedModule&#45;&gt;AboutComponent </title>
<path fill="none" stroke="black" stroke-dasharray="5,2" d="M2707.22,-172C3030.03,-172 4831.41,-172 4831.41,-172 4831.41,-172 4831.41,-205.73 4831.41,-205.73"/>
<polygon fill="black" stroke="black" points="4827.91,-205.73 4831.41,-215.73 4834.91,-205.73 4827.91,-205.73"/>
</g>
<!-- AnimatedTextComponent  -->
<g id="node32" class="node">
<title>AnimatedTextComponent </title>
<polygon fill="#fb8072" stroke="black" points="4808.7,-252 4643.3,-252 4643.3,-216 4808.7,-216 4808.7,-252"/>
<text text-anchor="middle" x="4726" y="-229.8" font-family="Times,serif" font-size="14.00">AnimatedTextComponent </text>
</g>
<!-- SharedModule&#45;&gt;AnimatedTextComponent  -->
<g id="edge31" class="edge">
<title>SharedModule&#45;&gt;AnimatedTextComponent </title>
<path fill="none" stroke="black" stroke-dasharray="5,2" d="M2707.28,-173C3014.26,-173 4651.49,-173 4651.49,-173 4651.49,-173 4651.49,-205.7 4651.49,-205.7"/>
<polygon fill="black" stroke="black" points="4647.99,-205.7 4651.49,-215.7 4654.99,-205.7 4647.99,-205.7"/>
</g>
<!-- BreadcrumbComponent  -->
<g id="node33" class="node">
<title>BreadcrumbComponent </title>
<polygon fill="#fb8072" stroke="black" points="4625.02,-252 4470.98,-252 4470.98,-216 4625.02,-216 4625.02,-252"/>
<text text-anchor="middle" x="4548" y="-229.8" font-family="Times,serif" font-size="14.00">BreadcrumbComponent </text>
</g>
<!-- SharedModule&#45;&gt;BreadcrumbComponent  -->
<g id="edge32" class="edge">
<title>SharedModule&#45;&gt;BreadcrumbComponent </title>
<path fill="none" stroke="black" stroke-dasharray="5,2" d="M2707.58,-174C3005.78,-174 4548,-174 4548,-174 4548,-174 4548,-206 4548,-206"/>
<polygon fill="black" stroke="black" points="4544.5,-206 4548,-216 4551.5,-206 4544.5,-206"/>
</g>
<!-- CodeConductComponent  -->
<g id="node34" class="node">
<title>CodeConductComponent </title>
<polygon fill="#fb8072" stroke="black" points="4452.83,-252 4291.17,-252 4291.17,-216 4452.83,-216 4452.83,-252"/>
<text text-anchor="middle" x="4372" y="-229.8" font-family="Times,serif" font-size="14.00">CodeConductComponent </text>
</g>
<!-- SharedModule&#45;&gt;CodeConductComponent  -->
<g id="edge33" class="edge">
<title>SharedModule&#45;&gt;CodeConductComponent </title>
<path fill="none" stroke="black" stroke-dasharray="5,2" d="M2707.52,-175C2987.37,-175 4358.54,-175 4358.54,-175 4358.54,-175 4358.54,-205.98 4358.54,-205.98"/>
<polygon fill="black" stroke="black" points="4355.04,-205.98 4358.54,-215.98 4362.04,-205.98 4355.04,-205.98"/>
</g>
<!-- CodeConductSchoolComponent  -->
<g id="node35" class="node">
<title>CodeConductSchoolComponent </title>
<polygon fill="#fb8072" stroke="black" points="4273.21,-252 4072.79,-252 4072.79,-216 4273.21,-216 4273.21,-252"/>
<text text-anchor="middle" x="4173" y="-229.8" font-family="Times,serif" font-size="14.00">CodeConductSchoolComponent </text>
</g>
<!-- SharedModule&#45;&gt;CodeConductSchoolComponent  -->
<g id="edge34" class="edge">
<title>SharedModule&#45;&gt;CodeConductSchoolComponent </title>
<path fill="none" stroke="black" stroke-dasharray="5,2" d="M2707.44,-177C2958.69,-177 4082.21,-177 4082.21,-177 4082.21,-177 4082.21,-205.96 4082.21,-205.96"/>
<polygon fill="black" stroke="black" points="4078.71,-205.96 4082.21,-215.96 4085.71,-205.96 4078.71,-205.96"/>
</g>
<!-- DashboardComponent  -->
<g id="node36" class="node">
<title>DashboardComponent </title>
<polygon fill="#fb8072" stroke="black" points="4054.97,-252 3909.03,-252 3909.03,-216 4054.97,-216 4054.97,-252"/>
<text text-anchor="middle" x="3982" y="-229.8" font-family="Times,serif" font-size="14.00">DashboardComponent </text>
</g>
<!-- SharedModule&#45;&gt;DashboardComponent  -->
<g id="edge35" class="edge">
<title>SharedModule&#45;&gt;DashboardComponent </title>
<path fill="none" stroke="black" stroke-dasharray="5,2" d="M2707.23,-178C2941.7,-178 3933.85,-178 3933.85,-178 3933.85,-178 3933.85,-205.97 3933.85,-205.97"/>
<polygon fill="black" stroke="black" points="3930.35,-205.97 3933.85,-215.97 3937.35,-205.97 3930.35,-205.97"/>
</g>
<!-- DeleteButtonComponent  -->
<g id="node37" class="node">
<title>DeleteButtonComponent </title>
<polygon fill="#fb8072" stroke="black" points="3891.98,-252 3732.02,-252 3732.02,-216 3891.98,-216 3891.98,-252"/>
<text text-anchor="middle" x="3812" y="-229.8" font-family="Times,serif" font-size="14.00">DeleteButtonComponent </text>
</g>
<!-- SharedModule&#45;&gt;DeleteButtonComponent  -->
<g id="edge36" class="edge">
<title>SharedModule&#45;&gt;DeleteButtonComponent </title>
<path fill="none" stroke="black" stroke-dasharray="5,2" d="M2707.39,-179C2923.35,-179 3773.9,-179 3773.9,-179 3773.9,-179 3773.9,-205.99 3773.9,-205.99"/>
<polygon fill="black" stroke="black" points="3770.4,-205.99 3773.9,-215.99 3777.4,-205.99 3770.4,-205.99"/>
</g>
<!-- HomeComponent  -->
<g id="node38" class="node">
<title>HomeComponent </title>
<polygon fill="#fb8072" stroke="black" points="3714.54,-252 3595.46,-252 3595.46,-216 3714.54,-216 3714.54,-252"/>
<text text-anchor="middle" x="3655" y="-229.8" font-family="Times,serif" font-size="14.00">HomeComponent </text>
</g>
<!-- SharedModule&#45;&gt;HomeComponent  -->
<g id="edge37" class="edge">
<title>SharedModule&#45;&gt;HomeComponent </title>
<path fill="none" stroke="black" stroke-dasharray="5,2" d="M2707.25,-180C2905.05,-180 3631.01,-180 3631.01,-180 3631.01,-180 3631.01,-205.72 3631.01,-205.72"/>
<polygon fill="black" stroke="black" points="3627.51,-205.72 3631.01,-215.72 3634.51,-205.72 3627.51,-205.72"/>
</g>
<!-- LicenseComponent  -->
<g id="node39" class="node">
<title>LicenseComponent </title>
<polygon fill="#fb8072" stroke="black" points="3577.36,-252 3448.64,-252 3448.64,-216 3577.36,-216 3577.36,-252"/>
<text text-anchor="middle" x="3513" y="-229.8" font-family="Times,serif" font-size="14.00">LicenseComponent </text>
</g>
<!-- SharedModule&#45;&gt;LicenseComponent  -->
<g id="edge38" class="edge">
<title>SharedModule&#45;&gt;LicenseComponent </title>
<path fill="none" stroke="black" stroke-dasharray="5,2" d="M2707.22,-181C2882.95,-181 3469.13,-181 3469.13,-181 3469.13,-181 3469.13,-205.76 3469.13,-205.76"/>
<polygon fill="black" stroke="black" points="3465.63,-205.76 3469.13,-215.76 3472.63,-205.76 3465.63,-205.76"/>
</g>
<!-- LocationComponent  -->
<g id="node40" class="node">
<title>LocationComponent </title>
<polygon fill="#fb8072" stroke="black" points="3431.1,-252 3296.9,-252 3296.9,-216 3431.1,-216 3431.1,-252"/>
<text text-anchor="middle" x="3364" y="-229.8" font-family="Times,serif" font-size="14.00">LocationComponent </text>
</g>
<!-- SharedModule&#45;&gt;LocationComponent  -->
<g id="edge39" class="edge">
<title>SharedModule&#45;&gt;LocationComponent </title>
<path fill="none" stroke="black" stroke-dasharray="5,2" d="M2707.33,-183C2862.26,-183 3328.88,-183 3328.88,-183 3328.88,-183 3328.88,-205.88 3328.88,-205.88"/>
<polygon fill="black" stroke="black" points="3325.38,-205.88 3328.88,-215.88 3332.38,-205.88 3325.38,-205.88"/>
</g>
<!-- LogoAnimateComponent  -->
<g id="node41" class="node">
<title>LogoAnimateComponent </title>
<polygon fill="#fb8072" stroke="black" points="3278.09,-252 3115.91,-252 3115.91,-216 3278.09,-216 3278.09,-252"/>
<text text-anchor="middle" x="3197" y="-229.8" font-family="Times,serif" font-size="14.00">LogoAnimateComponent </text>
</g>
<!-- SharedModule&#45;&gt;LogoAnimateComponent  -->
<g id="edge40" class="edge">
<title>SharedModule&#45;&gt;LogoAnimateComponent </title>
<path fill="none" stroke="black" stroke-dasharray="5,2" d="M2707.52,-184C2834.21,-184 3160.15,-184 3160.15,-184 3160.15,-184 3160.15,-205.95 3160.15,-205.95"/>
<polygon fill="black" stroke="black" points="3156.65,-205.95 3160.15,-215.95 3163.65,-205.95 3156.65,-205.95"/>
</g>
<!-- LogoComponent  -->
<g id="node42" class="node">
<title>LogoComponent </title>
<polygon fill="#fb8072" stroke="black" points="3098.39,-252 2983.61,-252 2983.61,-216 3098.39,-216 3098.39,-252"/>
<text text-anchor="middle" x="3041" y="-229.8" font-family="Times,serif" font-size="14.00">LogoComponent </text>
</g>
<!-- SharedModule&#45;&gt;LogoComponent  -->
<g id="edge41" class="edge">
<title>SharedModule&#45;&gt;LogoComponent </title>
<path fill="none" stroke="black" stroke-dasharray="5,2" d="M2707.41,-185C2806.81,-185 3021.56,-185 3021.56,-185 3021.56,-185 3021.56,-205.75 3021.56,-205.75"/>
<polygon fill="black" stroke="black" points="3018.06,-205.75 3021.56,-215.75 3025.06,-205.75 3018.06,-205.75"/>
</g>
<!-- NotFoundComponent  -->
<g id="node43" class="node">
<title>NotFoundComponent </title>
<polygon fill="#fb8072" stroke="black" points="2965.61,-252 2824.39,-252 2824.39,-216 2965.61,-216 2965.61,-252"/>
<text text-anchor="middle" x="2895" y="-229.8" font-family="Times,serif" font-size="14.00">NotFoundComponent </text>
</g>
<!-- SharedModule&#45;&gt;NotFoundComponent  -->
<g id="edge42" class="edge">
<title>SharedModule&#45;&gt;NotFoundComponent </title>
<path fill="none" stroke="black" stroke-dasharray="5,2" d="M2707.33,-186C2764.96,-186 2852.5,-186 2852.5,-186 2852.5,-186 2852.5,-205.85 2852.5,-205.85"/>
<polygon fill="black" stroke="black" points="2849,-205.85 2852.5,-215.85 2856,-205.85 2849,-205.85"/>
</g>
<!-- ParallaxComponent  -->
<g id="node44" class="node">
<title>ParallaxComponent </title>
<polygon fill="#fb8072" stroke="black" points="2806.2,-252 2675.8,-252 2675.8,-216 2806.2,-216 2806.2,-252"/>
<text text-anchor="middle" x="2741" y="-229.8" font-family="Times,serif" font-size="14.00">ParallaxComponent </text>
</g>
<!-- SharedModule&#45;&gt;ParallaxComponent  -->
<g id="edge43" class="edge">
<title>SharedModule&#45;&gt;ParallaxComponent </title>
<path fill="none" stroke="black" stroke-dasharray="5,2" d="M2691.43,-187.11C2691.43,-187.11 2691.43,-205.99 2691.43,-205.99"/>
<polygon fill="black" stroke="black" points="2687.93,-205.99 2691.43,-215.99 2694.93,-205.99 2687.93,-205.99"/>
</g>
<!-- ParallaxSpaceComponent  -->
<g id="node45" class="node">
<title>ParallaxSpaceComponent </title>
<polygon fill="#fb8072" stroke="black" points="2658.13,-252 2493.87,-252 2493.87,-216 2658.13,-216 2658.13,-252"/>
<text text-anchor="middle" x="2576" y="-229.8" font-family="Times,serif" font-size="14.00">ParallaxSpaceComponent </text>
</g>
<!-- SharedModule&#45;&gt;ParallaxSpaceComponent  -->
<g id="edge44" class="edge">
<title>SharedModule&#45;&gt;ParallaxSpaceComponent </title>
<path fill="none" stroke="black" stroke-dasharray="5,2" d="M2633.43,-187.11C2633.43,-187.11 2633.43,-205.99 2633.43,-205.99"/>
<polygon fill="black" stroke="black" points="2629.93,-205.99 2633.43,-215.99 2636.93,-205.99 2629.93,-205.99"/>
</g>
<!-- PreescolarComponent  -->
<g id="node46" class="node">
<title>PreescolarComponent </title>
<polygon fill="#fb8072" stroke="black" points="2475.63,-252 2332.37,-252 2332.37,-216 2475.63,-216 2475.63,-252"/>
<text text-anchor="middle" x="2404" y="-229.8" font-family="Times,serif" font-size="14.00">PreescolarComponent </text>
</g>
<!-- SharedModule&#45;&gt;PreescolarComponent  -->
<g id="edge45" class="edge">
<title>SharedModule&#45;&gt;PreescolarComponent </title>
<path fill="none" stroke="black" stroke-dasharray="5,2" d="M2608.67,-186C2545.84,-186 2445.31,-186 2445.31,-186 2445.31,-186 2445.31,-205.85 2445.31,-205.85"/>
<polygon fill="black" stroke="black" points="2441.81,-205.85 2445.31,-215.85 2448.81,-205.85 2441.81,-205.85"/>
</g>
<!-- PrimariaComponent  -->
<g id="node47" class="node">
<title>PrimariaComponent </title>
<polygon fill="#fb8072" stroke="black" points="2314.54,-252 2181.46,-252 2181.46,-216 2314.54,-216 2314.54,-252"/>
<text text-anchor="middle" x="2248" y="-229.8" font-family="Times,serif" font-size="14.00">PrimariaComponent </text>
</g>
<!-- SharedModule&#45;&gt;PrimariaComponent  -->
<g id="edge46" class="edge">
<title>SharedModule&#45;&gt;PrimariaComponent </title>
<path fill="none" stroke="black" stroke-dasharray="5,2" d="M2608.59,-185C2503.63,-185 2267.91,-185 2267.91,-185 2267.91,-185 2267.91,-205.75 2267.91,-205.75"/>
<polygon fill="black" stroke="black" points="2264.41,-205.75 2267.91,-215.75 2271.41,-205.75 2264.41,-205.75"/>
</g>
<!-- PrivacyPolicyComponent  -->
<g id="node48" class="node">
<title>PrivacyPolicyComponent </title>
<polygon fill="#fb8072" stroke="black" points="2163.87,-252 2000.13,-252 2000.13,-216 2163.87,-216 2163.87,-252"/>
<text text-anchor="middle" x="2082" y="-229.8" font-family="Times,serif" font-size="14.00">PrivacyPolicyComponent </text>
</g>
<!-- SharedModule&#45;&gt;PrivacyPolicyComponent  -->
<g id="edge47" class="edge">
<title>SharedModule&#45;&gt;PrivacyPolicyComponent </title>
<path fill="none" stroke="black" stroke-dasharray="5,2" d="M2608.62,-184C2471.48,-184 2095.99,-184 2095.99,-184 2095.99,-184 2095.99,-205.95 2095.99,-205.95"/>
<polygon fill="black" stroke="black" points="2092.49,-205.95 2095.99,-215.95 2099.49,-205.95 2092.49,-205.95"/>
</g>
<!-- RemoteLearningComponent  -->
<g id="node49" class="node">
<title>RemoteLearningComponent </title>
<polygon fill="#fb8072" stroke="black" points="1982.41,-252 1803.59,-252 1803.59,-216 1982.41,-216 1982.41,-252"/>
<text text-anchor="middle" x="1893" y="-229.8" font-family="Times,serif" font-size="14.00">RemoteLearningComponent </text>
</g>
<!-- SharedModule&#45;&gt;RemoteLearningComponent  -->
<g id="edge48" class="edge">
<title>SharedModule&#45;&gt;RemoteLearningComponent </title>
<path fill="none" stroke="black" stroke-dasharray="5,2" d="M2608.56,-183C2443.54,-183 1921.98,-183 1921.98,-183 1921.98,-183 1921.98,-205.88 1921.98,-205.88"/>
<polygon fill="black" stroke="black" points="1918.48,-205.88 1921.98,-215.88 1925.48,-205.88 1918.48,-205.88"/>
</g>
<!-- RemoveConfirmComponent  -->
<g id="node50" class="node">
<title>RemoveConfirmComponent </title>
<polygon fill="#fb8072" stroke="black" points="1785.43,-252 1606.57,-252 1606.57,-216 1785.43,-216 1785.43,-252"/>
<text text-anchor="middle" x="1696" y="-229.8" font-family="Times,serif" font-size="14.00">RemoveConfirmComponent </text>
</g>
<!-- SharedModule&#45;&gt;RemoveConfirmComponent  -->
<g id="edge49" class="edge">
<title>SharedModule&#45;&gt;RemoveConfirmComponent </title>
<path fill="none" stroke="black" stroke-dasharray="5,2" d="M2608.47,-181C2417.94,-181 1742.85,-181 1742.85,-181 1742.85,-181 1742.85,-205.76 1742.85,-205.76"/>
<polygon fill="black" stroke="black" points="1739.35,-205.76 1742.85,-215.76 1746.35,-205.76 1739.35,-205.76"/>
</g>
<!-- ReopenningComponent  -->
<g id="node51" class="node">
<title>ReopenningComponent </title>
<polygon fill="#fb8072" stroke="black" points="1588.49,-252 1435.51,-252 1435.51,-216 1588.49,-216 1588.49,-252"/>
<text text-anchor="middle" x="1512" y="-229.8" font-family="Times,serif" font-size="14.00">ReopenningComponent </text>
</g>
<!-- SharedModule&#45;&gt;ReopenningComponent  -->
<g id="edge50" class="edge">
<title>SharedModule&#45;&gt;ReopenningComponent </title>
<path fill="none" stroke="black" stroke-dasharray="5,2" d="M2608.75,-180C2397.32,-180 1577.24,-180 1577.24,-180 1577.24,-180 1577.24,-205.72 1577.24,-205.72"/>
<polygon fill="black" stroke="black" points="1573.74,-205.72 1577.24,-215.72 1580.74,-205.72 1573.74,-205.72"/>
</g>
<!-- SecundariaComponent  -->
<g id="node52" class="node">
<title>SecundariaComponent </title>
<polygon fill="#fb8072" stroke="black" points="1417.52,-252 1270.48,-252 1270.48,-216 1417.52,-216 1417.52,-252"/>
<text text-anchor="middle" x="1344" y="-229.8" font-family="Times,serif" font-size="14.00">SecundariaComponent </text>
</g>
<!-- SharedModule&#45;&gt;SecundariaComponent  -->
<g id="edge51" class="edge">
<title>SharedModule&#45;&gt;SecundariaComponent </title>
<path fill="none" stroke="black" stroke-dasharray="5,2" d="M2608.53,-179C2371.75,-179 1365.71,-179 1365.71,-179 1365.71,-179 1365.71,-205.99 1365.71,-205.99"/>
<polygon fill="black" stroke="black" points="1362.21,-205.99 1365.71,-215.99 1369.21,-205.99 1362.21,-205.99"/>
</g>
<!-- SnackComponent  -->
<g id="node53" class="node">
<title>SnackComponent </title>
<polygon fill="#fb8072" stroke="black" points="1252.54,-252 1133.46,-252 1133.46,-216 1252.54,-216 1252.54,-252"/>
<text text-anchor="middle" x="1193" y="-229.8" font-family="Times,serif" font-size="14.00">SnackComponent </text>
</g>
<!-- SharedModule&#45;&gt;SnackComponent  -->
<g id="edge52" class="edge">
<title>SharedModule&#45;&gt;SnackComponent </title>
<path fill="none" stroke="black" stroke-dasharray="5,2" d="M2608.73,-178C2358.32,-178 1238.6,-178 1238.6,-178 1238.6,-178 1238.6,-205.97 1238.6,-205.97"/>
<polygon fill="black" stroke="black" points="1235.1,-205.97 1238.6,-215.97 1242.1,-205.97 1235.1,-205.97"/>
</g>
<!-- TermsComponent  -->
<g id="node54" class="node">
<title>TermsComponent </title>
<polygon fill="#fb8072" stroke="black" points="1115.1,-252 994.9,-252 994.9,-216 1115.1,-216 1115.1,-252"/>
<text text-anchor="middle" x="1055" y="-229.8" font-family="Times,serif" font-size="14.00">TermsComponent </text>
</g>
<!-- SharedModule&#45;&gt;TermsComponent  -->
<g id="edge53" class="edge">
<title>SharedModule&#45;&gt;TermsComponent </title>
<path fill="none" stroke="black" stroke-dasharray="5,2" d="M2608.59,-177C2342.64,-177 1093.41,-177 1093.41,-177 1093.41,-177 1093.41,-205.96 1093.41,-205.96"/>
<polygon fill="black" stroke="black" points="1089.91,-205.96 1093.41,-215.96 1096.91,-205.96 1089.91,-205.96"/>
</g>
<!-- UnderConstructionComponent  -->
<g id="node55" class="node">
<title>UnderConstructionComponent </title>
<polygon fill="#fb8072" stroke="black" points="977.14,-252 784.86,-252 784.86,-216 977.14,-216 977.14,-252"/>
<text text-anchor="middle" x="881" y="-229.8" font-family="Times,serif" font-size="14.00">UnderConstructionComponent </text>
</g>
<!-- SharedModule&#45;&gt;UnderConstructionComponent  -->
<g id="edge54" class="edge">
<title>SharedModule&#45;&gt;UnderConstructionComponent </title>
<path fill="none" stroke="black" stroke-dasharray="5,2" d="M2608.6,-175C2327.87,-175 945.82,-175 945.82,-175 945.82,-175 945.82,-205.98 945.82,-205.98"/>
<polygon fill="black" stroke="black" points="942.32,-205.98 945.82,-215.98 949.32,-205.98 942.32,-205.98"/>
</g>
<!-- UserCardComponent  -->
<g id="node56" class="node">
<title>UserCardComponent </title>
<polygon fill="#fb8072" stroke="black" points="767.47,-252 628.53,-252 628.53,-216 767.47,-216 767.47,-252"/>
<text text-anchor="middle" x="698" y="-229.8" font-family="Times,serif" font-size="14.00">UserCardComponent </text>
</g>
<!-- SharedModule&#45;&gt;UserCardComponent  -->
<g id="edge55" class="edge">
<title>SharedModule&#45;&gt;UserCardComponent </title>
<path fill="none" stroke="black" stroke-dasharray="5,2" d="M2608.57,-174C2309.57,-174 755.35,-174 755.35,-174 755.35,-174 755.35,-206 755.35,-206"/>
<polygon fill="black" stroke="black" points="751.85,-206 755.35,-216 758.85,-206 751.85,-206"/>
</g>
<!-- WellcomeComponent  -->
<g id="node57" class="node">
<title>WellcomeComponent </title>
<polygon fill="#fb8072" stroke="black" points="611.36,-252 468.64,-252 468.64,-216 611.36,-216 611.36,-252"/>
<text text-anchor="middle" x="540" y="-229.8" font-family="Times,serif" font-size="14.00">WellcomeComponent </text>
</g>
<!-- SharedModule&#45;&gt;WellcomeComponent  -->
<g id="edge56" class="edge">
<title>SharedModule&#45;&gt;WellcomeComponent </title>
<path fill="none" stroke="black" stroke-dasharray="5,2" d="M2608.79,-173C2289.97,-173 530,-173 530,-173 530,-173 530,-205.7 530,-205.7"/>
<polygon fill="black" stroke="black" points="526.5,-205.7 530,-215.7 533.5,-205.7 526.5,-205.7"/>
</g>
<!-- YoutubeComponent  -->
<g id="node58" class="node">
<title>YoutubeComponent </title>
<polygon fill="#fb8072" stroke="black" points="450.54,-252 317.46,-252 317.46,-216 450.54,-216 450.54,-252"/>
<text text-anchor="middle" x="384" y="-229.8" font-family="Times,serif" font-size="14.00">YoutubeComponent </text>
</g>
<!-- SharedModule&#45;&gt;YoutubeComponent  -->
<g id="edge57" class="edge">
<title>SharedModule&#45;&gt;YoutubeComponent </title>
<path fill="none" stroke="black" stroke-dasharray="5,2" d="M2608.66,-172C2276.85,-172 384,-172 384,-172 384,-172 384,-205.73 384,-205.73"/>
<polygon fill="black" stroke="black" points="380.5,-205.73 384,-215.73 387.5,-205.73 380.5,-205.73"/>
</g>
<!-- MaterialModule -->
<g id="node30" class="node">
<title>MaterialModule</title>
<polygon fill="#8dd3c7" stroke="black" points="130.47,-122 127.47,-126 106.47,-126 103.47,-122 23.53,-122 23.53,-86 130.47,-86 130.47,-122"/>
<text text-anchor="middle" x="77" y="-99.8" font-family="Times,serif" font-size="14.00">MaterialModule</text>
</g>
<!-- MaterialModule&#45;&gt;SharedModule -->
<g id="edge29" class="edge">
<title>MaterialModule&#45;&gt;SharedModule</title>
<path fill="none" stroke="black" d="M77,-122.31C77,-142.15 77,-171 77,-171 77,-171 2598.75,-171 2598.75,-171"/>
<polygon fill="black" stroke="black" points="2598.75,-174.5 2608.75,-171 2598.75,-167.5 2598.75,-174.5"/>
</g>
<!-- SeoService -->
<g id="node59" class="node">
<title>SeoService</title>
<ellipse fill="#fdb462" stroke="black" cx="689" cy="-104" rx="54.45" ry="18"/>
<text text-anchor="middle" x="689" y="-99.8" font-family="Times,serif" font-size="14.00">SeoService</text>
</g>
<!-- SeoService&#45;&gt;SharedModule -->
<g id="edge58" class="edge">
<title>SeoService&#45;&gt;SharedModule</title>
<path fill="none" stroke="black" d="M689,-122.27C689,-140.56 689,-166 689,-166 689,-166 2598.34,-166 2598.34,-166"/>
<polygon fill="black" stroke="black" points="2598.34,-169.5 2608.34,-166 2598.34,-162.5 2598.34,-169.5"/>
</g>
<!-- SnackService -->
<g id="node60" class="node">
<title>SnackService</title>
<ellipse fill="#fdb462" stroke="black" cx="553" cy="-104" rx="63.68" ry="18"/>
<text text-anchor="middle" x="553" y="-99.8" font-family="Times,serif" font-size="14.00">SnackService</text>
</g>
<!-- SnackService&#45;&gt;SharedModule -->
<g id="edge59" class="edge">
<title>SnackService&#45;&gt;SharedModule</title>
<path fill="none" stroke="black" d="M570.59,-121.55C570.59,-140.19 570.59,-167 570.59,-167 570.59,-167 2598.71,-167 2598.71,-167"/>
<polygon fill="black" stroke="black" points="2598.71,-170.5 2608.71,-167 2598.71,-163.5 2598.71,-170.5"/>
</g>
<!-- SubscriptionService -->
<g id="node61" class="node">
<title>SubscriptionService</title>
<ellipse fill="#fdb462" stroke="black" cx="383" cy="-104" rx="88.62" ry="18"/>
<text text-anchor="middle" x="383" y="-99.8" font-family="Times,serif" font-size="14.00">SubscriptionService</text>
</g>
<!-- SubscriptionService&#45;&gt;SharedModule -->
<g id="edge60" class="edge">
<title>SubscriptionService&#45;&gt;SharedModule</title>
<path fill="none" stroke="black" d="M459.67,-113.17C459.67,-130.87 459.67,-168 459.67,-168 459.67,-168 2598.74,-168 2598.74,-168"/>
<polygon fill="black" stroke="black" points="2598.74,-171.5 2608.74,-168 2598.74,-164.5 2598.74,-171.5"/>
</g>
<!-- ToastService -->
<g id="node62" class="node">
<title>ToastService</title>
<ellipse fill="#fdb462" stroke="black" cx="215" cy="-104" rx="61.39" ry="18"/>
<text text-anchor="middle" x="215" y="-99.8" font-family="Times,serif" font-size="14.00">ToastService</text>
</g>
<!-- ToastService&#45;&gt;SharedModule -->
<g id="edge61" class="edge">
<title>ToastService&#45;&gt;SharedModule</title>
<path fill="none" stroke="black" d="M215,-122.11C215,-141.34 215,-169 215,-169 215,-169 2598.65,-169 2598.65,-169"/>
<polygon fill="black" stroke="black" points="2598.65,-172.5 2608.65,-169 2598.65,-165.5 2598.65,-172.5"/>
</g>
</g>
</svg>
