<?xml version="1.0" encoding="UTF-8" standalone="no"?>
<!DOCTYPE svg PUBLIC "-//W3C//DTD SVG 1.1//EN"
 "http://www.w3.org/Graphics/SVG/1.1/DTD/svg11.dtd">
<!-- Generated by graphviz version 2.46.0 (20210119.1425)
 -->
<!-- Title: dependencies Pages: 1 -->
<svg width="1532pt" height="211pt"
 viewBox="0.00 0.00 1532.00 211.00" xmlns="http://www.w3.org/2000/svg" xmlns:xlink="http://www.w3.org/1999/xlink">
<g id="graph0" class="graph" transform="scale(1 1) rotate(0) translate(4 207)">
<title>dependencies</title>
<polygon fill="white" stroke="transparent" points="-4,4 -4,-207 1528,-207 1528,4 -4,4"/>
<text text-anchor="start" x="741.01" y="-42.4" font-family="sans-serif" font-weight="bold" font-size="14.00">Legend</text>
<polygon fill="#ffffb3" stroke="transparent" points="528,-10 528,-30 548,-30 548,-10 528,-10"/>
<text text-anchor="start" x="551.63" y="-15.4" font-family="sans-serif" font-size="14.00"> &#160;Declarations</text>
<polygon fill="#8dd3c7" stroke="transparent" points="641,-10 641,-30 661,-30 661,-10 641,-10"/>
<text text-anchor="start" x="664.73" y="-15.4" font-family="sans-serif" font-size="14.00"> &#160;Module</text>
<polygon fill="#80b1d3" stroke="transparent" points="727,-10 727,-30 747,-30 747,-10 727,-10"/>
<text text-anchor="start" x="750.78" y="-15.4" font-family="sans-serif" font-size="14.00"> &#160;Bootstrap</text>
<polygon fill="#fdb462" stroke="transparent" points="824,-10 824,-30 844,-30 844,-10 824,-10"/>
<text text-anchor="start" x="847.67" y="-15.4" font-family="sans-serif" font-size="14.00"> &#160;Providers</text>
<polygon fill="#fb8072" stroke="transparent" points="920,-10 920,-30 940,-30 940,-10 920,-10"/>
<text text-anchor="start" x="943.73" y="-15.4" font-family="sans-serif" font-size="14.00"> &#160;Exports</text>
<g id="clust1" class="cluster">
<title>cluster_SchoolModule</title>
<polygon fill="none" stroke="black" stroke-dasharray="1,5" points="8,-70 8,-195 1516,-195 1516,-70 8,-70"/>
</g>
<g id="clust7" class="cluster">
<title>cluster_SchoolModule_imports</title>
<polygon fill="none" stroke="black" points="1224,-78 1224,-130 1508,-130 1508,-78 1224,-78"/>
</g>
<g id="clust2" class="cluster">
<title>cluster_SchoolModule_declarations</title>
<polygon fill="none" stroke="black" points="526,-78 526,-130 1216,-130 1216,-78 526,-78"/>
</g>
<g id="clust10" class="cluster">
<title>cluster_SchoolModule_providers</title>
<polygon fill="none" stroke="black" points="16,-78 16,-130 518,-130 518,-78 16,-78"/>
</g>
<!-- SchoolComponent -->
<g id="node1" class="node">
<title>SchoolComponent</title>
<polygon fill="#ffffb3" stroke="black" points="1208.22,-122 1087.78,-122 1087.78,-86 1208.22,-86 1208.22,-122"/>
<text text-anchor="middle" x="1148" y="-99.8" font-family="Times,serif" font-size="14.00">SchoolComponent</text>
</g>
<!-- SchoolModule -->
<g id="node5" class="node">
<title>SchoolModule</title>
<polygon fill="#8dd3c7" stroke="black" points="844.44,-187 841.44,-191 820.44,-191 817.44,-187 745.56,-187 745.56,-151 844.44,-151 844.44,-187"/>
<text text-anchor="middle" x="795" y="-164.8" font-family="Times,serif" font-size="14.00">SchoolModule</text>
</g>
<!-- SchoolComponent&#45;&gt;SchoolModule -->
<g id="edge1" class="edge">
<title>SchoolComponent&#45;&gt;SchoolModule</title>
<path fill="none" stroke="black" d="M1148,-122.27C1148,-140.56 1148,-166 1148,-166 1148,-166 854.45,-166 854.45,-166"/>
<polygon fill="black" stroke="black" points="854.45,-162.5 844.45,-166 854.45,-169.5 854.45,-162.5"/>
</g>
<!-- SchoolDashboardComponent -->
<g id="node2" class="node">
<title>SchoolDashboardComponent</title>
<polygon fill="#ffffb3" stroke="black" points="1069.36,-122 888.64,-122 888.64,-86 1069.36,-86 1069.36,-122"/>
<text text-anchor="middle" x="979" y="-99.8" font-family="Times,serif" font-size="14.00">SchoolDashboardComponent</text>
</g>
<!-- SchoolDashboardComponent&#45;&gt;SchoolModule -->
<g id="edge2" class="edge">
<title>SchoolDashboardComponent&#45;&gt;SchoolModule</title>
<path fill="none" stroke="black" d="M979,-122.01C979,-138.05 979,-159 979,-159 979,-159 854.31,-159 854.31,-159"/>
<polygon fill="black" stroke="black" points="854.31,-155.5 844.31,-159 854.31,-162.5 854.31,-155.5"/>
</g>
<!-- SchoolFormComponent -->
<g id="node3" class="node">
<title>SchoolFormComponent</title>
<polygon fill="#ffffb3" stroke="black" points="870.05,-122 719.95,-122 719.95,-86 870.05,-86 870.05,-122"/>
<text text-anchor="middle" x="795" y="-99.8" font-family="Times,serif" font-size="14.00">SchoolFormComponent</text>
</g>
<!-- SchoolFormComponent&#45;&gt;SchoolModule -->
<g id="edge3" class="edge">
<title>SchoolFormComponent&#45;&gt;SchoolModule</title>
<path fill="none" stroke="black" d="M795,-122.11C795,-122.11 795,-140.99 795,-140.99"/>
<polygon fill="black" stroke="black" points="791.5,-140.99 795,-150.99 798.5,-140.99 791.5,-140.99"/>
</g>
<!-- SchoolStudentsComponent -->
<g id="node4" class="node">
<title>SchoolStudentsComponent</title>
<polygon fill="#ffffb3" stroke="black" points="702.44,-122 533.56,-122 533.56,-86 702.44,-86 702.44,-122"/>
<text text-anchor="middle" x="618" y="-99.8" font-family="Times,serif" font-size="14.00">SchoolStudentsComponent</text>
</g>
<!-- SchoolStudentsComponent&#45;&gt;SchoolModule -->
<g id="edge4" class="edge">
<title>SchoolStudentsComponent&#45;&gt;SchoolModule</title>
<path fill="none" stroke="black" d="M618,-122.01C618,-138.05 618,-159 618,-159 618,-159 735.7,-159 735.7,-159"/>
<polygon fill="black" stroke="black" points="735.7,-162.5 745.7,-159 735.7,-155.5 735.7,-162.5"/>
</g>
<!-- MaterialModule -->
<g id="node6" class="node">
<title>MaterialModule</title>
<polygon fill="#8dd3c7" stroke="black" points="1500.47,-122 1497.47,-126 1476.47,-126 1473.47,-122 1393.53,-122 1393.53,-86 1500.47,-86 1500.47,-122"/>
<text text-anchor="middle" x="1447" y="-99.8" font-family="Times,serif" font-size="14.00">MaterialModule</text>
</g>
<!-- MaterialModule&#45;&gt;SchoolModule -->
<g id="edge5" class="edge">
<title>MaterialModule&#45;&gt;SchoolModule</title>
<path fill="none" stroke="black" d="M1447,-122.01C1447,-144.49 1447,-180 1447,-180 1447,-180 854.27,-180 854.27,-180"/>
<polygon fill="black" stroke="black" points="854.27,-176.5 844.27,-180 854.27,-183.5 854.27,-176.5"/>
</g>
<!-- SchoolRoutingModule -->
<g id="node7" class="node">
<title>SchoolRoutingModule</title>
<polygon fill="#8dd3c7" stroke="black" points="1375.56,-122 1372.56,-126 1351.56,-126 1348.56,-122 1232.44,-122 1232.44,-86 1375.56,-86 1375.56,-122"/>
<text text-anchor="middle" x="1304" y="-99.8" font-family="Times,serif" font-size="14.00">SchoolRoutingModule</text>
</g>
<!-- SchoolRoutingModule&#45;&gt;SchoolModule -->
<g id="edge6" class="edge">
<title>SchoolRoutingModule&#45;&gt;SchoolModule</title>
<path fill="none" stroke="black" d="M1304,-122.13C1304,-142.57 1304,-173 1304,-173 1304,-173 854.27,-173 854.27,-173"/>
<polygon fill="black" stroke="black" points="854.27,-169.5 844.27,-173 854.27,-176.5 854.27,-169.5"/>
</g>
<!-- SchoolService -->
<g id="node8" class="node">
<title>SchoolService</title>
<ellipse fill="#fdb462" stroke="black" cx="443" cy="-104" rx="66.63" ry="18"/>
<text text-anchor="middle" x="443" y="-99.8" font-family="Times,serif" font-size="14.00">SchoolService</text>
</g>
<!-- SchoolService&#45;&gt;SchoolModule -->
<g id="edge7" class="edge">
<title>SchoolService&#45;&gt;SchoolModule</title>
<path fill="none" stroke="black" d="M443,-122.27C443,-140.56 443,-166 443,-166 443,-166 735.69,-166 735.69,-166"/>
<polygon fill="black" stroke="black" points="735.69,-169.5 745.69,-166 735.69,-162.5 735.69,-169.5"/>
</g>
<!-- UserDataService -->
<g id="node9" class="node">
<title>UserDataService</title>
<ellipse fill="#fdb462" stroke="black" cx="282" cy="-104" rx="76.4" ry="18"/>
<text text-anchor="middle" x="282" y="-99.8" font-family="Times,serif" font-size="14.00">UserDataService</text>
</g>
<!-- UserDataService&#45;&gt;SchoolModule -->
<g id="edge8" class="edge">
<title>UserDataService&#45;&gt;SchoolModule</title>
<path fill="none" stroke="black" d="M282,-122.13C282,-142.57 282,-173 282,-173 282,-173 735.35,-173 735.35,-173"/>
<polygon fill="black" stroke="black" points="735.35,-176.5 745.35,-173 735.35,-169.5 735.35,-176.5"/>
</g>
<!-- UserEntityService -->
<g id="node10" class="node">
<title>UserEntityService</title>
<ellipse fill="#fdb462" stroke="black" cx="106" cy="-104" rx="81.66" ry="18"/>
<text text-anchor="middle" x="106" y="-99.8" font-family="Times,serif" font-size="14.00">UserEntityService</text>
</g>
<!-- UserEntityService&#45;&gt;SchoolModule -->
<g id="edge9" class="edge">
<title>UserEntityService&#45;&gt;SchoolModule</title>
<path fill="none" stroke="black" d="M106,-122.01C106,-144.49 106,-180 106,-180 106,-180 735.73,-180 735.73,-180"/>
<polygon fill="black" stroke="black" points="735.73,-183.5 745.73,-180 735.73,-176.5 735.73,-183.5"/>
</g>
</g>
</svg>
