<?xml version="1.0" encoding="UTF-8" standalone="no"?>
<!DOCTYPE svg PUBLIC "-//W3C//DTD SVG 1.1//EN"
 "http://www.w3.org/Graphics/SVG/1.1/DTD/svg11.dtd">
<!-- Generated by graphviz version 2.46.0 (20210119.1425)
 -->
<!-- Title: dependencies Pages: 1 -->
<svg width="2048pt" height="211pt"
 viewBox="0.00 0.00 2048.00 211.00" xmlns="http://www.w3.org/2000/svg" xmlns:xlink="http://www.w3.org/1999/xlink">
<g id="graph0" class="graph" transform="scale(1 1) rotate(0) translate(4 207)">
<title>dependencies</title>
<polygon fill="white" stroke="transparent" points="-4,4 -4,-207 2044,-207 2044,4 -4,4"/>
<text text-anchor="start" x="999.01" y="-42.4" font-family="sans-serif" font-weight="bold" font-size="14.00">Legend</text>
<polygon fill="#ffffb3" stroke="transparent" points="786,-10 786,-30 806,-30 806,-10 786,-10"/>
<text text-anchor="start" x="809.63" y="-15.4" font-family="sans-serif" font-size="14.00"> &#160;Declarations</text>
<polygon fill="#8dd3c7" stroke="transparent" points="899,-10 899,-30 919,-30 919,-10 899,-10"/>
<text text-anchor="start" x="922.73" y="-15.4" font-family="sans-serif" font-size="14.00"> &#160;Module</text>
<polygon fill="#80b1d3" stroke="transparent" points="985,-10 985,-30 1005,-30 1005,-10 985,-10"/>
<text text-anchor="start" x="1008.78" y="-15.4" font-family="sans-serif" font-size="14.00"> &#160;Bootstrap</text>
<polygon fill="#fdb462" stroke="transparent" points="1082,-10 1082,-30 1102,-30 1102,-10 1082,-10"/>
<text text-anchor="start" x="1105.67" y="-15.4" font-family="sans-serif" font-size="14.00"> &#160;Providers</text>
<polygon fill="#fb8072" stroke="transparent" points="1178,-10 1178,-30 1198,-30 1198,-10 1178,-10"/>
<text text-anchor="start" x="1201.73" y="-15.4" font-family="sans-serif" font-size="14.00"> &#160;Exports</text>
<g id="clust1" class="cluster">
<title>cluster_SchoolModule</title>
<polygon fill="none" stroke="black" stroke-dasharray="1,5" points="8,-70 8,-195 2032,-195 2032,-70 8,-70"/>
</g>
<g id="clust2" class="cluster">
<title>cluster_SchoolModule_declarations</title>
<polygon fill="none" stroke="black" points="818,-78 818,-130 2024,-130 2024,-78 818,-78"/>
</g>
<g id="clust10" class="cluster">
<title>cluster_SchoolModule_imports</title>
<polygon fill="none" stroke="black" points="526,-78 526,-130 810,-130 810,-78 526,-78"/>
</g>
<g id="clust13" class="cluster">
<title>cluster_SchoolModule_providers</title>
<polygon fill="none" stroke="black" points="16,-78 16,-130 518,-130 518,-78 16,-78"/>
</g>
<!-- SchoolComponent -->
<g id="node1" class="node">
<title>SchoolComponent</title>
<polygon fill="#ffffb3" stroke="black" points="2016.22,-122 1895.78,-122 1895.78,-86 2016.22,-86 2016.22,-122"/>
<text text-anchor="middle" x="1956" y="-99.8" font-family="Times,serif" font-size="14.00">SchoolComponent</text>
</g>
<!-- SchoolModule -->
<g id="node8" class="node">
<title>SchoolModule</title>
<polygon fill="#8dd3c7" stroke="black" points="1037.44,-187 1034.44,-191 1013.44,-191 1010.44,-187 938.56,-187 938.56,-151 1037.44,-151 1037.44,-187"/>
<text text-anchor="middle" x="988" y="-164.8" font-family="Times,serif" font-size="14.00">SchoolModule</text>
</g>
<!-- SchoolComponent&#45;&gt;SchoolModule -->
<g id="edge1" class="edge">
<title>SchoolComponent&#45;&gt;SchoolModule</title>
<path fill="none" stroke="black" d="M1956,-122.09C1956,-145.13 1956,-182 1956,-182 1956,-182 1047.33,-182 1047.33,-182"/>
<polygon fill="black" stroke="black" points="1047.33,-178.5 1037.33,-182 1047.33,-185.5 1047.33,-178.5"/>
</g>
<!-- SchoolDashboardComponent -->
<g id="node2" class="node">
<title>SchoolDashboardComponent</title>
<polygon fill="#ffffb3" stroke="black" points="1877.36,-122 1696.64,-122 1696.64,-86 1877.36,-86 1877.36,-122"/>
<text text-anchor="middle" x="1787" y="-99.8" font-family="Times,serif" font-size="14.00">SchoolDashboardComponent</text>
</g>
<!-- SchoolDashboardComponent&#45;&gt;SchoolModule -->
<g id="edge2" class="edge">
<title>SchoolDashboardComponent&#45;&gt;SchoolModule</title>
<path fill="none" stroke="black" d="M1787,-122.28C1787,-143.32 1787,-175 1787,-175 1787,-175 1047.38,-175 1047.38,-175"/>
<polygon fill="black" stroke="black" points="1047.38,-171.5 1037.38,-175 1047.38,-178.5 1047.38,-171.5"/>
</g>
<!-- SchoolFormComponent -->
<g id="node3" class="node">
<title>SchoolFormComponent</title>
<polygon fill="#ffffb3" stroke="black" points="1678.05,-122 1527.95,-122 1527.95,-86 1678.05,-86 1678.05,-122"/>
<text text-anchor="middle" x="1603" y="-99.8" font-family="Times,serif" font-size="14.00">SchoolFormComponent</text>
</g>
<!-- SchoolFormComponent&#45;&gt;SchoolModule -->
<g id="edge3" class="edge">
<title>SchoolFormComponent&#45;&gt;SchoolModule</title>
<path fill="none" stroke="black" d="M1603,-122.11C1603,-141.34 1603,-169 1603,-169 1603,-169 1047.29,-169 1047.29,-169"/>
<polygon fill="black" stroke="black" points="1047.29,-165.5 1037.29,-169 1047.29,-172.5 1047.29,-165.5"/>
</g>
<!-- SchoolStudentsComponent -->
<g id="node4" class="node">
<title>SchoolStudentsComponent</title>
<polygon fill="#ffffb3" stroke="black" points="1510.44,-122 1341.56,-122 1341.56,-86 1510.44,-86 1510.44,-122"/>
<text text-anchor="middle" x="1426" y="-99.8" font-family="Times,serif" font-size="14.00">SchoolStudentsComponent</text>
</g>
<!-- SchoolStudentsComponent&#45;&gt;SchoolModule -->
<g id="edge4" class="edge">
<title>SchoolStudentsComponent&#45;&gt;SchoolModule</title>
<path fill="none" stroke="black" d="M1426,-122.02C1426,-139.37 1426,-163 1426,-163 1426,-163 1047.39,-163 1047.39,-163"/>
<polygon fill="black" stroke="black" points="1047.39,-159.5 1037.39,-163 1047.39,-166.5 1047.39,-159.5"/>
</g>
<!-- SchoolTeachersComponent -->
<g id="node5" class="node">
<title>SchoolTeachersComponent</title>
<polygon fill="#ffffb3" stroke="black" points="1323.24,-122 1152.76,-122 1152.76,-86 1323.24,-86 1323.24,-122"/>
<text text-anchor="middle" x="1238" y="-99.8" font-family="Times,serif" font-size="14.00">SchoolTeachersComponent</text>
</g>
<!-- SchoolTeachersComponent&#45;&gt;SchoolModule -->
<g id="edge5" class="edge">
<title>SchoolTeachersComponent&#45;&gt;SchoolModule</title>
<path fill="none" stroke="black" d="M1238,-122.24C1238,-137.57 1238,-157 1238,-157 1238,-157 1047.39,-157 1047.39,-157"/>
<polygon fill="black" stroke="black" points="1047.39,-153.5 1037.39,-157 1047.39,-160.5 1047.39,-153.5"/>
</g>
<!-- SubjectsComponent -->
<g id="node6" class="node">
<title>SubjectsComponent</title>
<polygon fill="#ffffb3" stroke="black" points="1134.27,-122 1005.73,-122 1005.73,-86 1134.27,-86 1134.27,-122"/>
<text text-anchor="middle" x="1070" y="-99.8" font-family="Times,serif" font-size="14.00">SubjectsComponent</text>
</g>
<!-- SubjectsComponent&#45;&gt;SchoolModule -->
<g id="edge6" class="edge">
<title>SubjectsComponent&#45;&gt;SchoolModule</title>
<path fill="none" stroke="black" d="M1021.42,-122.11C1021.42,-122.11 1021.42,-140.99 1021.42,-140.99"/>
<polygon fill="black" stroke="black" points="1017.92,-140.99 1021.42,-150.99 1024.92,-140.99 1017.92,-140.99"/>
</g>
<!-- TeachersFormComponent -->
<g id="node7" class="node">
<title>TeachersFormComponent</title>
<polygon fill="#ffffb3" stroke="black" points="988.18,-122 825.82,-122 825.82,-86 988.18,-86 988.18,-122"/>
<text text-anchor="middle" x="907" y="-99.8" font-family="Times,serif" font-size="14.00">TeachersFormComponent</text>
</g>
<!-- TeachersFormComponent&#45;&gt;SchoolModule -->
<g id="edge7" class="edge">
<title>TeachersFormComponent&#45;&gt;SchoolModule</title>
<path fill="none" stroke="black" d="M963.44,-122.11C963.44,-122.11 963.44,-140.99 963.44,-140.99"/>
<polygon fill="black" stroke="black" points="959.94,-140.99 963.44,-150.99 966.94,-140.99 959.94,-140.99"/>
</g>
<!-- MaterialModule -->
<g id="node9" class="node">
<title>MaterialModule</title>
<polygon fill="#8dd3c7" stroke="black" points="802.47,-122 799.47,-126 778.47,-126 775.47,-122 695.53,-122 695.53,-86 802.47,-86 802.47,-122"/>
<text text-anchor="middle" x="749" y="-99.8" font-family="Times,serif" font-size="14.00">MaterialModule</text>
</g>
<!-- MaterialModule&#45;&gt;SchoolModule -->
<g id="edge8" class="edge">
<title>MaterialModule&#45;&gt;SchoolModule</title>
<path fill="none" stroke="black" d="M749,-122.24C749,-137.57 749,-157 749,-157 749,-157 928.77,-157 928.77,-157"/>
<polygon fill="black" stroke="black" points="928.77,-160.5 938.77,-157 928.77,-153.5 928.77,-160.5"/>
</g>
<!-- SchoolRoutingModule -->
<g id="node10" class="node">
<title>SchoolRoutingModule</title>
<polygon fill="#8dd3c7" stroke="black" points="677.56,-122 674.56,-126 653.56,-126 650.56,-122 534.44,-122 534.44,-86 677.56,-86 677.56,-122"/>
<text text-anchor="middle" x="606" y="-99.8" font-family="Times,serif" font-size="14.00">SchoolRoutingModule</text>
</g>
<!-- SchoolRoutingModule&#45;&gt;SchoolModule -->
<g id="edge9" class="edge">
<title>SchoolRoutingModule&#45;&gt;SchoolModule</title>
<path fill="none" stroke="black" d="M606,-122.02C606,-139.37 606,-163 606,-163 606,-163 928.45,-163 928.45,-163"/>
<polygon fill="black" stroke="black" points="928.45,-166.5 938.45,-163 928.45,-159.5 928.45,-166.5"/>
</g>
<!-- SchoolService -->
<g id="node11" class="node">
<title>SchoolService</title>
<ellipse fill="#fdb462" stroke="black" cx="443" cy="-104" rx="66.63" ry="18"/>
<text text-anchor="middle" x="443" y="-99.8" font-family="Times,serif" font-size="14.00">SchoolService</text>
</g>
<!-- SchoolService&#45;&gt;SchoolModule -->
<g id="edge10" class="edge">
<title>SchoolService&#45;&gt;SchoolModule</title>
<path fill="none" stroke="black" d="M443,-122.11C443,-141.34 443,-169 443,-169 443,-169 928.67,-169 928.67,-169"/>
<polygon fill="black" stroke="black" points="928.67,-172.5 938.67,-169 928.67,-165.5 928.67,-172.5"/>
</g>
<!-- UserDataService -->
<g id="node12" class="node">
<title>UserDataService</title>
<ellipse fill="#fdb462" stroke="black" cx="282" cy="-104" rx="76.4" ry="18"/>
<text text-anchor="middle" x="282" y="-99.8" font-family="Times,serif" font-size="14.00">UserDataService</text>
</g>
<!-- UserDataService&#45;&gt;SchoolModule -->
<g id="edge11" class="edge">
<title>UserDataService&#45;&gt;SchoolModule</title>
<path fill="none" stroke="black" d="M282,-122.28C282,-143.32 282,-175 282,-175 282,-175 928.64,-175 928.64,-175"/>
<polygon fill="black" stroke="black" points="928.64,-178.5 938.64,-175 928.64,-171.5 928.64,-178.5"/>
</g>
<!-- UserEntityService -->
<g id="node13" class="node">
<title>UserEntityService</title>
<ellipse fill="#fdb462" stroke="black" cx="106" cy="-104" rx="81.66" ry="18"/>
<text text-anchor="middle" x="106" y="-99.8" font-family="Times,serif" font-size="14.00">UserEntityService</text>
</g>
<!-- UserEntityService&#45;&gt;SchoolModule -->
<g id="edge12" class="edge">
<title>UserEntityService&#45;&gt;SchoolModule</title>
<path fill="none" stroke="black" d="M106,-122.09C106,-145.13 106,-182 106,-182 106,-182 928.69,-182 928.69,-182"/>
<polygon fill="black" stroke="black" points="928.69,-185.5 938.69,-182 928.69,-178.5 928.69,-185.5"/>
</g>
</g>
</svg>
