<?xml version="1.0" encoding="UTF-8" standalone="no"?>
<!DOCTYPE svg PUBLIC "-//W3C//DTD SVG 1.1//EN"
 "http://www.w3.org/Graphics/SVG/1.1/DTD/svg11.dtd">
<!-- Generated by graphviz version 2.47.0 (20210316.0004)
 -->
<!-- Title: dependencies Pages: 1 -->
<svg width="3135pt" height="211pt"
 viewBox="0.00 0.00 3135.00 211.00" xmlns="http://www.w3.org/2000/svg" xmlns:xlink="http://www.w3.org/1999/xlink">
<g id="graph0" class="graph" transform="scale(1 1) rotate(0) translate(4 207)">
<title>dependencies</title>
<polygon fill="white" stroke="transparent" points="-4,4 -4,-207 3131,-207 3131,4 -4,4"/>
<text text-anchor="start" x="1542.51" y="-42.4" font-family="sans-serif" font-weight="bold" font-size="14.00">Legend</text>
<polygon fill="#ffffb3" stroke="transparent" points="1329.5,-10 1329.5,-30 1349.5,-30 1349.5,-10 1329.5,-10"/>
<text text-anchor="start" x="1353.13" y="-15.4" font-family="sans-serif" font-size="14.00"> &#160;Declarations</text>
<polygon fill="#8dd3c7" stroke="transparent" points="1442.5,-10 1442.5,-30 1462.5,-30 1462.5,-10 1442.5,-10"/>
<text text-anchor="start" x="1466.23" y="-15.4" font-family="sans-serif" font-size="14.00"> &#160;Module</text>
<polygon fill="#80b1d3" stroke="transparent" points="1528.5,-10 1528.5,-30 1548.5,-30 1548.5,-10 1528.5,-10"/>
<text text-anchor="start" x="1552.28" y="-15.4" font-family="sans-serif" font-size="14.00"> &#160;Bootstrap</text>
<polygon fill="#fdb462" stroke="transparent" points="1625.5,-10 1625.5,-30 1645.5,-30 1645.5,-10 1625.5,-10"/>
<text text-anchor="start" x="1649.17" y="-15.4" font-family="sans-serif" font-size="14.00"> &#160;Providers</text>
<polygon fill="#fb8072" stroke="transparent" points="1721.5,-10 1721.5,-30 1741.5,-30 1741.5,-10 1721.5,-10"/>
<text text-anchor="start" x="1745.23" y="-15.4" font-family="sans-serif" font-size="14.00"> &#160;Exports</text>
<g id="clust1" class="cluster">
<title>cluster_SchoolModule</title>
<polygon fill="none" stroke="black" stroke-dasharray="1,5" points="8,-70 8,-195 3119,-195 3119,-70 8,-70"/>
</g>
<g id="clust2" class="cluster">
<title>cluster_SchoolModule_declarations</title>
<polygon fill="none" stroke="black" points="1329,-78 1329,-130 3111,-130 3111,-78 1329,-78"/>
</g>
<g id="clust13" class="cluster">
<title>cluster_SchoolModule_imports</title>
<polygon fill="none" stroke="black" points="921,-78 921,-130 1321,-130 1321,-78 921,-78"/>
</g>
<g id="clust16" class="cluster">
<title>cluster_SchoolModule_providers</title>
<polygon fill="none" stroke="black" points="16,-78 16,-130 913,-130 913,-78 16,-78"/>
</g>
<!-- AssigmentsDashboardComponent -->
<g id="node1" class="node">
<title>AssigmentsDashboardComponent</title>
<polygon fill="#ffffb3" stroke="black" points="3102.8,-122 2895.2,-122 2895.2,-86 3102.8,-86 3102.8,-122"/>
<text text-anchor="middle" x="2999" y="-99.8" font-family="Times,serif" font-size="14.00">AssigmentsDashboardComponent</text>
</g>
<!-- SchoolModule -->
<g id="node11" class="node">
<title>SchoolModule</title>
<polygon fill="#8dd3c7" stroke="black" points="1548.44,-187 1545.44,-191 1524.44,-191 1521.44,-187 1449.56,-187 1449.56,-151 1548.44,-151 1548.44,-187"/>
<text text-anchor="middle" x="1499" y="-164.8" font-family="Times,serif" font-size="14.00">SchoolModule</text>
</g>
<!-- AssigmentsDashboardComponent&#45;&gt;SchoolModule -->
<g id="edge1" class="edge">
<title>AssigmentsDashboardComponent&#45;&gt;SchoolModule</title>
<path fill="none" stroke="black" d="M2999,-122.32C2999,-145.66 2999,-183 2999,-183 2999,-183 1558.48,-183 1558.48,-183"/>
<polygon fill="black" stroke="black" points="1558.48,-179.5 1548.48,-183 1558.48,-186.5 1558.48,-179.5"/>
</g>
<!-- AssignmentsComponent -->
<g id="node2" class="node">
<title>AssignmentsComponent</title>
<polygon fill="#ffffb3" stroke="black" points="2877.66,-122 2724.34,-122 2724.34,-86 2877.66,-86 2877.66,-122"/>
<text text-anchor="middle" x="2801" y="-99.8" font-family="Times,serif" font-size="14.00">AssignmentsComponent</text>
</g>
<!-- AssignmentsComponent&#45;&gt;SchoolModule -->
<g id="edge2" class="edge">
<title>AssignmentsComponent&#45;&gt;SchoolModule</title>
<path fill="none" stroke="black" d="M2801,-122.16C2801,-144.35 2801,-179 2801,-179 2801,-179 1558.45,-179 1558.45,-179"/>
<polygon fill="black" stroke="black" points="1558.45,-175.5 1548.45,-179 1558.45,-182.5 1558.45,-175.5"/>
</g>
<!-- SchoolComponent -->
<g id="node3" class="node">
<title>SchoolComponent</title>
<polygon fill="#ffffb3" stroke="black" points="2706.22,-122 2585.78,-122 2585.78,-86 2706.22,-86 2706.22,-122"/>
<text text-anchor="middle" x="2646" y="-99.8" font-family="Times,serif" font-size="14.00">SchoolComponent</text>
</g>
<!-- SchoolComponent&#45;&gt;SchoolModule -->
<g id="edge3" class="edge">
<title>SchoolComponent&#45;&gt;SchoolModule</title>
<path fill="none" stroke="black" d="M2646,-122.28C2646,-143.32 2646,-175 2646,-175 2646,-175 1558.29,-175 1558.29,-175"/>
<polygon fill="black" stroke="black" points="1558.29,-171.5 1548.29,-175 1558.29,-178.5 1558.29,-171.5"/>
</g>
<!-- SchoolDashboardComponent -->
<g id="node4" class="node">
<title>SchoolDashboardComponent</title>
<polygon fill="#ffffb3" stroke="black" points="2567.36,-122 2386.64,-122 2386.64,-86 2567.36,-86 2567.36,-122"/>
<text text-anchor="middle" x="2477" y="-99.8" font-family="Times,serif" font-size="14.00">SchoolDashboardComponent</text>
</g>
<!-- SchoolDashboardComponent&#45;&gt;SchoolModule -->
<g id="edge4" class="edge">
<title>SchoolDashboardComponent&#45;&gt;SchoolModule</title>
<path fill="none" stroke="black" d="M2477,-122.31C2477,-142.15 2477,-171 2477,-171 2477,-171 1558.51,-171 1558.51,-171"/>
<polygon fill="black" stroke="black" points="1558.51,-167.5 1548.51,-171 1558.51,-174.5 1558.51,-167.5"/>
</g>
<!-- SchoolFormComponent -->
<g id="node5" class="node">
<title>SchoolFormComponent</title>
<polygon fill="#ffffb3" stroke="black" points="2368.05,-122 2217.95,-122 2217.95,-86 2368.05,-86 2368.05,-122"/>
<text text-anchor="middle" x="2293" y="-99.8" font-family="Times,serif" font-size="14.00">SchoolFormComponent</text>
</g>
<!-- SchoolFormComponent&#45;&gt;SchoolModule -->
<g id="edge5" class="edge">
<title>SchoolFormComponent&#45;&gt;SchoolModule</title>
<path fill="none" stroke="black" d="M2293,-122.22C2293,-140.83 2293,-167 2293,-167 2293,-167 1558.37,-167 1558.37,-167"/>
<polygon fill="black" stroke="black" points="1558.37,-163.5 1548.37,-167 1558.37,-170.5 1558.37,-163.5"/>
</g>
<!-- SchoolStudentsComponent -->
<g id="node6" class="node">
<title>SchoolStudentsComponent</title>
<polygon fill="#ffffb3" stroke="black" points="2200.44,-122 2031.56,-122 2031.56,-86 2200.44,-86 2200.44,-122"/>
<text text-anchor="middle" x="2116" y="-99.8" font-family="Times,serif" font-size="14.00">SchoolStudentsComponent</text>
</g>
<!-- SchoolStudentsComponent&#45;&gt;SchoolModule -->
<g id="edge6" class="edge">
<title>SchoolStudentsComponent&#45;&gt;SchoolModule</title>
<path fill="none" stroke="black" d="M2116,-122.02C2116,-139.37 2116,-163 2116,-163 2116,-163 1558.45,-163 1558.45,-163"/>
<polygon fill="black" stroke="black" points="1558.45,-159.5 1548.45,-163 1558.45,-166.5 1558.45,-159.5"/>
</g>
<!-- SchoolTeachersComponent -->
<g id="node7" class="node">
<title>SchoolTeachersComponent</title>
<polygon fill="#ffffb3" stroke="black" points="2013.24,-122 1842.76,-122 1842.76,-86 2013.24,-86 2013.24,-122"/>
<text text-anchor="middle" x="1928" y="-99.8" font-family="Times,serif" font-size="14.00">SchoolTeachersComponent</text>
</g>
<!-- SchoolTeachersComponent&#45;&gt;SchoolModule -->
<g id="edge7" class="edge">
<title>SchoolTeachersComponent&#45;&gt;SchoolModule</title>
<path fill="none" stroke="black" d="M1928,-122.01C1928,-138.05 1928,-159 1928,-159 1928,-159 1558.63,-159 1558.63,-159"/>
<polygon fill="black" stroke="black" points="1558.63,-155.5 1548.63,-159 1558.63,-162.5 1558.63,-155.5"/>
</g>
<!-- SubjectDialogComponent -->
<g id="node8" class="node">
<title>SubjectDialogComponent</title>
<polygon fill="#ffffb3" stroke="black" points="1824.93,-122 1663.07,-122 1663.07,-86 1824.93,-86 1824.93,-122"/>
<text text-anchor="middle" x="1744" y="-99.8" font-family="Times,serif" font-size="14.00">SubjectDialogComponent</text>
</g>
<!-- SubjectDialogComponent&#45;&gt;SchoolModule -->
<g id="edge8" class="edge">
<title>SubjectDialogComponent&#45;&gt;SchoolModule</title>
<path fill="none" stroke="black" d="M1744,-122.12C1744,-136.78 1744,-155 1744,-155 1744,-155 1558.28,-155 1558.28,-155"/>
<polygon fill="black" stroke="black" points="1558.28,-151.5 1548.28,-155 1558.28,-158.5 1558.28,-151.5"/>
</g>
<!-- SubjectsComponent -->
<g id="node9" class="node">
<title>SubjectsComponent</title>
<polygon fill="#ffffb3" stroke="black" points="1645.27,-122 1516.73,-122 1516.73,-86 1645.27,-86 1645.27,-122"/>
<text text-anchor="middle" x="1581" y="-99.8" font-family="Times,serif" font-size="14.00">SubjectsComponent</text>
</g>
<!-- SubjectsComponent&#45;&gt;SchoolModule -->
<g id="edge9" class="edge">
<title>SubjectsComponent&#45;&gt;SchoolModule</title>
<path fill="none" stroke="black" d="M1532.42,-122.11C1532.42,-122.11 1532.42,-140.99 1532.42,-140.99"/>
<polygon fill="black" stroke="black" points="1528.92,-140.99 1532.42,-150.99 1535.92,-140.99 1528.92,-140.99"/>
</g>
<!-- TeachersFormComponent -->
<g id="node10" class="node">
<title>TeachersFormComponent</title>
<polygon fill="#ffffb3" stroke="black" points="1499.18,-122 1336.82,-122 1336.82,-86 1499.18,-86 1499.18,-122"/>
<text text-anchor="middle" x="1418" y="-99.8" font-family="Times,serif" font-size="14.00">TeachersFormComponent</text>
</g>
<!-- TeachersFormComponent&#45;&gt;SchoolModule -->
<g id="edge10" class="edge">
<title>TeachersFormComponent&#45;&gt;SchoolModule</title>
<path fill="none" stroke="black" d="M1474.44,-122.11C1474.44,-122.11 1474.44,-140.99 1474.44,-140.99"/>
<polygon fill="black" stroke="black" points="1470.94,-140.99 1474.44,-150.99 1477.94,-140.99 1470.94,-140.99"/>
</g>
<!-- MaterialModule -->
<g id="node12" class="node">
<title>MaterialModule</title>
<polygon fill="#8dd3c7" stroke="black" points="1313.47,-122 1310.47,-126 1289.47,-126 1286.47,-122 1206.53,-122 1206.53,-86 1313.47,-86 1313.47,-122"/>
<text text-anchor="middle" x="1260" y="-99.8" font-family="Times,serif" font-size="14.00">MaterialModule</text>
</g>
<!-- MaterialModule&#45;&gt;SchoolModule -->
<g id="edge11" class="edge">
<title>MaterialModule&#45;&gt;SchoolModule</title>
<path fill="none" stroke="black" d="M1260,-122.12C1260,-136.78 1260,-155 1260,-155 1260,-155 1439.77,-155 1439.77,-155"/>
<polygon fill="black" stroke="black" points="1439.77,-158.5 1449.77,-155 1439.77,-151.5 1439.77,-158.5"/>
</g>
<!-- SchoolRoutingModule -->
<g id="node13" class="node">
<title>SchoolRoutingModule</title>
<polygon fill="#8dd3c7" stroke="black" points="1188.56,-122 1185.56,-126 1164.56,-126 1161.56,-122 1045.44,-122 1045.44,-86 1188.56,-86 1188.56,-122"/>
<text text-anchor="middle" x="1117" y="-99.8" font-family="Times,serif" font-size="14.00">SchoolRoutingModule</text>
</g>
<!-- SchoolRoutingModule&#45;&gt;SchoolModule -->
<g id="edge12" class="edge">
<title>SchoolRoutingModule&#45;&gt;SchoolModule</title>
<path fill="none" stroke="black" d="M1117,-122.01C1117,-138.05 1117,-159 1117,-159 1117,-159 1439.45,-159 1439.45,-159"/>
<polygon fill="black" stroke="black" points="1439.45,-162.5 1449.45,-159 1439.45,-155.5 1439.45,-162.5"/>
</g>
<!-- SharedModule -->
<g id="node14" class="node">
<title>SharedModule</title>
<polygon fill="#8dd3c7" stroke="black" points="1027.42,-122 1024.42,-126 1003.42,-126 1000.42,-122 928.58,-122 928.58,-86 1027.42,-86 1027.42,-122"/>
<text text-anchor="middle" x="978" y="-99.8" font-family="Times,serif" font-size="14.00">SharedModule</text>
</g>
<!-- SharedModule&#45;&gt;SchoolModule -->
<g id="edge13" class="edge">
<title>SharedModule&#45;&gt;SchoolModule</title>
<path fill="none" stroke="black" d="M978,-122.02C978,-139.37 978,-163 978,-163 978,-163 1439.52,-163 1439.52,-163"/>
<polygon fill="black" stroke="black" points="1439.52,-166.5 1449.52,-163 1439.52,-159.5 1439.52,-166.5"/>
</g>
<!-- ClassesDataService -->
<g id="node15" class="node">
<title>ClassesDataService</title>
<ellipse fill="#fdb462" stroke="black" cx="818" cy="-104" rx="87.37" ry="18"/>
<text text-anchor="middle" x="818" y="-99.8" font-family="Times,serif" font-size="14.00">ClassesDataService</text>
</g>
<!-- ClassesDataService&#45;&gt;SchoolModule -->
<g id="edge14" class="edge">
<title>ClassesDataService&#45;&gt;SchoolModule</title>
<path fill="none" stroke="black" d="M818,-122.22C818,-140.83 818,-167 818,-167 818,-167 1439.75,-167 1439.75,-167"/>
<polygon fill="black" stroke="black" points="1439.75,-170.5 1449.75,-167 1439.75,-163.5 1439.75,-170.5"/>
</g>
<!-- ClassesEntityService -->
<g id="node16" class="node">
<title>ClassesEntityService</title>
<ellipse fill="#fdb462" stroke="black" cx="620" cy="-104" rx="92.63" ry="18"/>
<text text-anchor="middle" x="620" y="-99.8" font-family="Times,serif" font-size="14.00">ClassesEntityService</text>
</g>
<!-- ClassesEntityService&#45;&gt;SchoolModule -->
<g id="edge15" class="edge">
<title>ClassesEntityService&#45;&gt;SchoolModule</title>
<path fill="none" stroke="black" d="M620,-122.31C620,-142.15 620,-171 620,-171 620,-171 1439.54,-171 1439.54,-171"/>
<polygon fill="black" stroke="black" points="1439.54,-174.5 1449.54,-171 1439.54,-167.5 1439.54,-174.5"/>
</g>
<!-- SchoolService -->
<g id="node17" class="node">
<title>SchoolService</title>
<ellipse fill="#fdb462" stroke="black" cx="443" cy="-104" rx="66.63" ry="18"/>
<text text-anchor="middle" x="443" y="-99.8" font-family="Times,serif" font-size="14.00">SchoolService</text>
</g>
<!-- SchoolService&#45;&gt;SchoolModule -->
<g id="edge16" class="edge">
<title>SchoolService&#45;&gt;SchoolModule</title>
<path fill="none" stroke="black" d="M443,-122.28C443,-143.32 443,-175 443,-175 443,-175 1439.48,-175 1439.48,-175"/>
<polygon fill="black" stroke="black" points="1439.48,-178.5 1449.48,-175 1439.48,-171.5 1439.48,-178.5"/>
</g>
<!-- UserDataService -->
<g id="node18" class="node">
<title>UserDataService</title>
<ellipse fill="#fdb462" stroke="black" cx="282" cy="-104" rx="76.4" ry="18"/>
<text text-anchor="middle" x="282" y="-99.8" font-family="Times,serif" font-size="14.00">UserDataService</text>
</g>
<!-- UserDataService&#45;&gt;SchoolModule -->
<g id="edge17" class="edge">
<title>UserDataService&#45;&gt;SchoolModule</title>
<path fill="none" stroke="black" d="M282,-122.16C282,-144.35 282,-179 282,-179 282,-179 1439.4,-179 1439.4,-179"/>
<polygon fill="black" stroke="black" points="1439.4,-182.5 1449.4,-179 1439.4,-175.5 1439.4,-182.5"/>
</g>
<!-- UserEntityService -->
<g id="node19" class="node">
<title>UserEntityService</title>
<ellipse fill="#fdb462" stroke="black" cx="106" cy="-104" rx="81.66" ry="18"/>
<text text-anchor="middle" x="106" y="-99.8" font-family="Times,serif" font-size="14.00">UserEntityService</text>
</g>
<!-- UserEntityService&#45;&gt;SchoolModule -->
<g id="edge18" class="edge">
<title>UserEntityService&#45;&gt;SchoolModule</title>
<path fill="none" stroke="black" d="M106,-122.32C106,-145.66 106,-183 106,-183 106,-183 1439.42,-183 1439.42,-183"/>
<polygon fill="black" stroke="black" points="1439.42,-186.5 1449.42,-183 1439.42,-179.5 1439.42,-186.5"/>
</g>
</g>
</svg>
