<?xml version="1.0" encoding="UTF-8" standalone="no"?>
<!DOCTYPE svg PUBLIC "-//W3C//DTD SVG 1.1//EN"
 "http://www.w3.org/Graphics/SVG/1.1/DTD/svg11.dtd">
<!-- Generated by graphviz version 2.47.0 (20210316.0004)
 -->
<!-- Title: dependencies Pages: 1 -->
<svg width="1679pt" height="211pt"
 viewBox="0.00 0.00 1679.00 211.00" xmlns="http://www.w3.org/2000/svg" xmlns:xlink="http://www.w3.org/1999/xlink">
<g id="graph0" class="graph" transform="scale(1 1) rotate(0) translate(4 207)">
<title>dependencies</title>
<polygon fill="white" stroke="transparent" points="-4,4 -4,-207 1675,-207 1675,4 -4,4"/>
<text text-anchor="start" x="814.51" y="-42.4" font-family="sans-serif" font-weight="bold" font-size="14.00">Legend</text>
<polygon fill="#ffffb3" stroke="transparent" points="601.5,-10 601.5,-30 621.5,-30 621.5,-10 601.5,-10"/>
<text text-anchor="start" x="625.13" y="-15.4" font-family="sans-serif" font-size="14.00"> &#160;Declarations</text>
<polygon fill="#8dd3c7" stroke="transparent" points="714.5,-10 714.5,-30 734.5,-30 734.5,-10 714.5,-10"/>
<text text-anchor="start" x="738.23" y="-15.4" font-family="sans-serif" font-size="14.00"> &#160;Module</text>
<polygon fill="#80b1d3" stroke="transparent" points="800.5,-10 800.5,-30 820.5,-30 820.5,-10 800.5,-10"/>
<text text-anchor="start" x="824.28" y="-15.4" font-family="sans-serif" font-size="14.00"> &#160;Bootstrap</text>
<polygon fill="#fdb462" stroke="transparent" points="897.5,-10 897.5,-30 917.5,-30 917.5,-10 897.5,-10"/>
<text text-anchor="start" x="921.17" y="-15.4" font-family="sans-serif" font-size="14.00"> &#160;Providers</text>
<polygon fill="#fb8072" stroke="transparent" points="993.5,-10 993.5,-30 1013.5,-30 1013.5,-10 993.5,-10"/>
<text text-anchor="start" x="1017.23" y="-15.4" font-family="sans-serif" font-size="14.00"> &#160;Exports</text>
<g id="clust1" class="cluster">
<title>cluster_SchoolModule</title>
<polygon fill="none" stroke="black" stroke-dasharray="1,5" points="8,-70 8,-195 1663,-195 1663,-70 8,-70"/>
</g>
<g id="clust2" class="cluster">
<title>cluster_SchoolModule_declarations</title>
<polygon fill="none" stroke="black" points="818,-78 818,-130 1655,-130 1655,-78 818,-78"/>
</g>
<g id="clust11" class="cluster">
<title>cluster_SchoolModule_providers</title>
<polygon fill="none" stroke="black" points="308,-78 308,-130 810,-130 810,-78 308,-78"/>
</g>
<g id="clust8" class="cluster">
<title>cluster_SchoolModule_imports</title>
<polygon fill="none" stroke="black" points="16,-78 16,-130 300,-130 300,-78 16,-78"/>
</g>
<!-- SchoolComponent -->
<g id="node1" class="node">
<title>SchoolComponent</title>
<polygon fill="#ffffb3" stroke="black" points="1647.22,-122 1526.78,-122 1526.78,-86 1647.22,-86 1647.22,-122"/>
<text text-anchor="middle" x="1587" y="-99.8" font-family="Times,serif" font-size="14.00">SchoolComponent</text>
</g>
<!-- SchoolModule -->
<g id="node6" class="node">
<title>SchoolModule</title>
<polygon fill="#8dd3c7" stroke="black" points="861.44,-187 858.44,-191 837.44,-191 834.44,-187 762.56,-187 762.56,-151 861.44,-151 861.44,-187"/>
<text text-anchor="middle" x="812" y="-164.8" font-family="Times,serif" font-size="14.00">SchoolModule</text>
</g>
<!-- SchoolComponent&#45;&gt;SchoolModule -->
<g id="edge1" class="edge">
<title>SchoolComponent&#45;&gt;SchoolModule</title>
<path fill="none" stroke="black" d="M1587,-122.01C1587,-144.49 1587,-180 1587,-180 1587,-180 871.36,-180 871.36,-180"/>
<polygon fill="black" stroke="black" points="871.36,-176.5 861.36,-180 871.36,-183.5 871.36,-176.5"/>
</g>
<!-- SchoolDashboardComponent -->
<g id="node2" class="node">
<title>SchoolDashboardComponent</title>
<polygon fill="#ffffb3" stroke="black" points="1508.36,-122 1327.64,-122 1327.64,-86 1508.36,-86 1508.36,-122"/>
<text text-anchor="middle" x="1418" y="-99.8" font-family="Times,serif" font-size="14.00">SchoolDashboardComponent</text>
</g>
<!-- SchoolDashboardComponent&#45;&gt;SchoolModule -->
<g id="edge2" class="edge">
<title>SchoolDashboardComponent&#45;&gt;SchoolModule</title>
<path fill="none" stroke="black" d="M1418,-122.13C1418,-142.57 1418,-173 1418,-173 1418,-173 871.33,-173 871.33,-173"/>
<polygon fill="black" stroke="black" points="871.33,-169.5 861.33,-173 871.33,-176.5 871.33,-169.5"/>
</g>
<!-- SchoolFormComponent -->
<g id="node3" class="node">
<title>SchoolFormComponent</title>
<polygon fill="#ffffb3" stroke="black" points="1309.05,-122 1158.95,-122 1158.95,-86 1309.05,-86 1309.05,-122"/>
<text text-anchor="middle" x="1234" y="-99.8" font-family="Times,serif" font-size="14.00">SchoolFormComponent</text>
</g>
<!-- SchoolFormComponent&#45;&gt;SchoolModule -->
<g id="edge3" class="edge">
<title>SchoolFormComponent&#45;&gt;SchoolModule</title>
<path fill="none" stroke="black" d="M1234,-122.27C1234,-140.56 1234,-166 1234,-166 1234,-166 871.23,-166 871.23,-166"/>
<polygon fill="black" stroke="black" points="871.23,-162.5 861.23,-166 871.23,-169.5 871.23,-162.5"/>
</g>
<!-- SchoolStudentsComponent -->
<g id="node4" class="node">
<title>SchoolStudentsComponent</title>
<polygon fill="#ffffb3" stroke="black" points="1141.44,-122 972.56,-122 972.56,-86 1141.44,-86 1141.44,-122"/>
<text text-anchor="middle" x="1057" y="-99.8" font-family="Times,serif" font-size="14.00">SchoolStudentsComponent</text>
</g>
<!-- SchoolStudentsComponent&#45;&gt;SchoolModule -->
<g id="edge4" class="edge">
<title>SchoolStudentsComponent&#45;&gt;SchoolModule</title>
<path fill="none" stroke="black" d="M1057,-122.01C1057,-138.05 1057,-159 1057,-159 1057,-159 871.28,-159 871.28,-159"/>
<polygon fill="black" stroke="black" points="871.28,-155.5 861.28,-159 871.28,-162.5 871.28,-155.5"/>
</g>
<!-- SubjectsComponent -->
<g id="node5" class="node">
<title>SubjectsComponent</title>
<polygon fill="#ffffb3" stroke="black" points="954.27,-122 825.73,-122 825.73,-86 954.27,-86 954.27,-122"/>
<text text-anchor="middle" x="890" y="-99.8" font-family="Times,serif" font-size="14.00">SubjectsComponent</text>
</g>
<!-- SubjectsComponent&#45;&gt;SchoolModule -->
<g id="edge5" class="edge">
<title>SubjectsComponent&#45;&gt;SchoolModule</title>
<path fill="none" stroke="black" d="M843.42,-122.11C843.42,-122.11 843.42,-140.99 843.42,-140.99"/>
<polygon fill="black" stroke="black" points="839.92,-140.99 843.42,-150.99 846.92,-140.99 839.92,-140.99"/>
</g>
<!-- MaterialModule -->
<g id="node7" class="node">
<title>MaterialModule</title>
<polygon fill="#8dd3c7" stroke="black" points="292.47,-122 289.47,-126 268.47,-126 265.47,-122 185.53,-122 185.53,-86 292.47,-86 292.47,-122"/>
<text text-anchor="middle" x="239" y="-99.8" font-family="Times,serif" font-size="14.00">MaterialModule</text>
</g>
<!-- MaterialModule&#45;&gt;SchoolModule -->
<g id="edge6" class="edge">
<title>MaterialModule&#45;&gt;SchoolModule</title>
<path fill="none" stroke="black" d="M239,-122.13C239,-142.57 239,-173 239,-173 239,-173 752.65,-173 752.65,-173"/>
<polygon fill="black" stroke="black" points="752.65,-176.5 762.65,-173 752.65,-169.5 752.65,-176.5"/>
</g>
<!-- SchoolRoutingModule -->
<g id="node8" class="node">
<title>SchoolRoutingModule</title>
<polygon fill="#8dd3c7" stroke="black" points="167.56,-122 164.56,-126 143.56,-126 140.56,-122 24.44,-122 24.44,-86 167.56,-86 167.56,-122"/>
<text text-anchor="middle" x="96" y="-99.8" font-family="Times,serif" font-size="14.00">SchoolRoutingModule</text>
</g>
<!-- SchoolRoutingModule&#45;&gt;SchoolModule -->
<g id="edge7" class="edge">
<title>SchoolRoutingModule&#45;&gt;SchoolModule</title>
<path fill="none" stroke="black" d="M96,-122.01C96,-144.49 96,-180 96,-180 96,-180 752.5,-180 752.5,-180"/>
<polygon fill="black" stroke="black" points="752.5,-183.5 762.5,-180 752.5,-176.5 752.5,-183.5"/>
</g>
<!-- SchoolService -->
<g id="node9" class="node">
<title>SchoolService</title>
<ellipse fill="#fdb462" stroke="black" cx="735" cy="-104" rx="66.63" ry="18"/>
<text text-anchor="middle" x="735" y="-99.8" font-family="Times,serif" font-size="14.00">SchoolService</text>
</g>
<!-- SchoolService&#45;&gt;SchoolModule -->
<g id="edge8" class="edge">
<title>SchoolService&#45;&gt;SchoolModule</title>
<path fill="none" stroke="black" d="M782.3,-116.84C782.3,-116.84 782.3,-140.52 782.3,-140.52"/>
<polygon fill="black" stroke="black" points="778.8,-140.52 782.3,-150.52 785.8,-140.52 778.8,-140.52"/>
</g>
<!-- UserDataService -->
<g id="node10" class="node">
<title>UserDataService</title>
<ellipse fill="#fdb462" stroke="black" cx="574" cy="-104" rx="76.4" ry="18"/>
<text text-anchor="middle" x="574" y="-99.8" font-family="Times,serif" font-size="14.00">UserDataService</text>
</g>
<!-- UserDataService&#45;&gt;SchoolModule -->
<g id="edge9" class="edge">
<title>UserDataService&#45;&gt;SchoolModule</title>
<path fill="none" stroke="black" d="M574,-122.01C574,-138.05 574,-159 574,-159 574,-159 752.69,-159 752.69,-159"/>
<polygon fill="black" stroke="black" points="752.69,-162.5 762.69,-159 752.69,-155.5 752.69,-162.5"/>
</g>
<!-- UserEntityService -->
<g id="node11" class="node">
<title>UserEntityService</title>
<ellipse fill="#fdb462" stroke="black" cx="398" cy="-104" rx="81.66" ry="18"/>
<text text-anchor="middle" x="398" y="-99.8" font-family="Times,serif" font-size="14.00">UserEntityService</text>
</g>
<!-- UserEntityService&#45;&gt;SchoolModule -->
<g id="edge10" class="edge">
<title>UserEntityService&#45;&gt;SchoolModule</title>
<path fill="none" stroke="black" d="M398,-122.27C398,-140.56 398,-166 398,-166 398,-166 752.47,-166 752.47,-166"/>
<polygon fill="black" stroke="black" points="752.47,-169.5 762.47,-166 752.47,-162.5 752.47,-169.5"/>
</g>
</g>
</svg>
