<?xml version="1.0" encoding="UTF-8" standalone="no"?>
<!DOCTYPE svg PUBLIC "-//W3C//DTD SVG 1.1//EN"
 "http://www.w3.org/Graphics/SVG/1.1/DTD/svg11.dtd">
<!-- Generated by graphviz version 2.46.0 (20210119.1425)
 -->
<!-- Title: dependencies Pages: 1 -->
<svg width="504pt" height="284pt"
 viewBox="0.00 0.00 504.00 284.00" xmlns="http://www.w3.org/2000/svg" xmlns:xlink="http://www.w3.org/1999/xlink">
<g id="graph0" class="graph" transform="scale(1 1) rotate(0) translate(4 280)">
<title>dependencies</title>
<polygon fill="white" stroke="transparent" points="-4,4 -4,-280 500,-280 500,4 -4,4"/>
<text text-anchor="start" x="227.01" y="-42.4" font-family="sans-serif" font-weight="bold" font-size="14.00">Legend</text>
<polygon fill="#ffffb3" stroke="transparent" points="14,-10 14,-30 34,-30 34,-10 14,-10"/>
<text text-anchor="start" x="37.63" y="-15.4" font-family="sans-serif" font-size="14.00"> &#160;Declarations</text>
<polygon fill="#8dd3c7" stroke="transparent" points="127,-10 127,-30 147,-30 147,-10 127,-10"/>
<text text-anchor="start" x="150.73" y="-15.4" font-family="sans-serif" font-size="14.00"> &#160;Module</text>
<polygon fill="#80b1d3" stroke="transparent" points="213,-10 213,-30 233,-30 233,-10 213,-10"/>
<text text-anchor="start" x="236.78" y="-15.4" font-family="sans-serif" font-size="14.00"> &#160;Bootstrap</text>
<polygon fill="#fdb462" stroke="transparent" points="310,-10 310,-30 330,-30 330,-10 310,-10"/>
<text text-anchor="start" x="333.67" y="-15.4" font-family="sans-serif" font-size="14.00"> &#160;Providers</text>
<polygon fill="#fb8072" stroke="transparent" points="406,-10 406,-30 426,-30 426,-10 406,-10"/>
<text text-anchor="start" x="429.73" y="-15.4" font-family="sans-serif" font-size="14.00"> &#160;Exports</text>
<g id="clust1" class="cluster">
<title>cluster_AuthModule</title>
<polygon fill="none" stroke="black" stroke-dasharray="1,5" points="91,-70 91,-268 405,-268 405,-70 91,-70"/>
</g>
<g id="clust4" class="cluster">
<title>cluster_AuthModule_imports</title>
<polygon fill="none" stroke="black" points="275,-78 275,-130 397,-130 397,-78 275,-78"/>
</g>
<g id="clust5" class="cluster">
<title>cluster_AuthModule_exports</title>
<polygon fill="none" stroke="black" points="162,-208 162,-260 334,-260 334,-208 162,-208"/>
</g>
<g id="clust2" class="cluster">
<title>cluster_AuthModule_declarations</title>
<polygon fill="none" stroke="black" points="99,-78 99,-130 267,-130 267,-78 99,-78"/>
</g>
<!-- LoginDialogComponent -->
<g id="node1" class="node">
<title>LoginDialogComponent</title>
<polygon fill="#ffffb3" stroke="black" points="259.38,-122 106.62,-122 106.62,-86 259.38,-86 259.38,-122"/>
<text text-anchor="middle" x="183" y="-99.8" font-family="Times,serif" font-size="14.00">LoginDialogComponent</text>
</g>
<!-- AuthModule -->
<g id="node2" class="node">
<title>AuthModule</title>
<polygon fill="#8dd3c7" stroke="black" points="291.55,-187 288.55,-191 267.55,-191 264.55,-187 204.45,-187 204.45,-151 291.55,-151 291.55,-187"/>
<text text-anchor="middle" x="248" y="-164.8" font-family="Times,serif" font-size="14.00">AuthModule</text>
</g>
<!-- LoginDialogComponent&#45;&gt;AuthModule -->
<g id="edge1" class="edge">
<title>LoginDialogComponent&#45;&gt;AuthModule</title>
<path fill="none" stroke="black" d="M231.83,-122.11C231.83,-122.11 231.83,-140.99 231.83,-140.99"/>
<polygon fill="black" stroke="black" points="228.33,-140.99 231.83,-150.99 235.33,-140.99 228.33,-140.99"/>
</g>
<!-- LoginDialogComponent  -->
<g id="node4" class="node">
<title>LoginDialogComponent </title>
<polygon fill="#fb8072" stroke="black" points="326.38,-252 169.62,-252 169.62,-216 326.38,-216 326.38,-252"/>
<text text-anchor="middle" x="248" y="-229.8" font-family="Times,serif" font-size="14.00">LoginDialogComponent </text>
</g>
<!-- AuthModule&#45;&gt;LoginDialogComponent  -->
<g id="edge3" class="edge">
<title>AuthModule&#45;&gt;LoginDialogComponent </title>
<path fill="none" stroke="black" stroke-dasharray="5,2" d="M248,-187.11C248,-187.11 248,-205.99 248,-205.99"/>
<polygon fill="black" stroke="black" points="244.5,-205.99 248,-215.99 251.5,-205.99 244.5,-205.99"/>
</g>
<!-- MaterialModule -->
<g id="node3" class="node">
<title>MaterialModule</title>
<polygon fill="#8dd3c7" stroke="black" points="389.47,-122 386.47,-126 365.47,-126 362.47,-122 282.53,-122 282.53,-86 389.47,-86 389.47,-122"/>
<text text-anchor="middle" x="336" y="-99.8" font-family="Times,serif" font-size="14.00">MaterialModule</text>
</g>
<!-- MaterialModule&#45;&gt;AuthModule -->
<g id="edge2" class="edge">
<title>MaterialModule&#45;&gt;AuthModule</title>
<path fill="none" stroke="black" d="M287.14,-122.11C287.14,-122.11 287.14,-140.99 287.14,-140.99"/>
<polygon fill="black" stroke="black" points="283.64,-140.99 287.14,-150.99 290.64,-140.99 283.64,-140.99"/>
</g>
</g>
</svg>
