<?xml version="1.0" encoding="UTF-8" standalone="no"?>
<!DOCTYPE svg PUBLIC "-//W3C//DTD SVG 1.1//EN"
 "http://www.w3.org/Graphics/SVG/1.1/DTD/svg11.dtd">
<!-- Generated by graphviz version 2.46.0 (20210119.1425)
 -->
<!-- Title: dependencies Pages: 1 -->
<svg width="807pt" height="284pt"
 viewBox="0.00 0.00 807.00 284.00" xmlns="http://www.w3.org/2000/svg" xmlns:xlink="http://www.w3.org/1999/xlink">
<g id="graph0" class="graph" transform="scale(1 1) rotate(0) translate(4 280)">
<title>dependencies</title>
<polygon fill="white" stroke="transparent" points="-4,4 -4,-280 803,-280 803,4 -4,4"/>
<text text-anchor="start" x="378.51" y="-42.4" font-family="sans-serif" font-weight="bold" font-size="14.00">Legend</text>
<polygon fill="#ffffb3" stroke="transparent" points="165.5,-10 165.5,-30 185.5,-30 185.5,-10 165.5,-10"/>
<text text-anchor="start" x="189.13" y="-15.4" font-family="sans-serif" font-size="14.00"> &#160;Declarations</text>
<polygon fill="#8dd3c7" stroke="transparent" points="278.5,-10 278.5,-30 298.5,-30 298.5,-10 278.5,-10"/>
<text text-anchor="start" x="302.23" y="-15.4" font-family="sans-serif" font-size="14.00"> &#160;Module</text>
<polygon fill="#80b1d3" stroke="transparent" points="364.5,-10 364.5,-30 384.5,-30 384.5,-10 364.5,-10"/>
<text text-anchor="start" x="388.28" y="-15.4" font-family="sans-serif" font-size="14.00"> &#160;Bootstrap</text>
<polygon fill="#fdb462" stroke="transparent" points="461.5,-10 461.5,-30 481.5,-30 481.5,-10 461.5,-10"/>
<text text-anchor="start" x="485.17" y="-15.4" font-family="sans-serif" font-size="14.00"> &#160;Providers</text>
<polygon fill="#fb8072" stroke="transparent" points="557.5,-10 557.5,-30 577.5,-30 577.5,-10 557.5,-10"/>
<text text-anchor="start" x="581.23" y="-15.4" font-family="sans-serif" font-size="14.00"> &#160;Exports</text>
<g id="clust1" class="cluster">
<title>cluster_AuthModule</title>
<polygon fill="none" stroke="black" stroke-dasharray="1,5" points="8,-70 8,-268 791,-268 791,-70 8,-70"/>
</g>
<g id="clust2" class="cluster">
<title>cluster_AuthModule_declarations</title>
<polygon fill="none" stroke="black" points="146,-78 146,-130 783,-130 783,-78 146,-78"/>
</g>
<g id="clust7" class="cluster">
<title>cluster_AuthModule_imports</title>
<polygon fill="none" stroke="black" points="16,-78 16,-130 138,-130 138,-78 16,-78"/>
</g>
<g id="clust8" class="cluster">
<title>cluster_AuthModule_exports</title>
<polygon fill="none" stroke="black" points="292,-208 292,-260 464,-260 464,-208 292,-208"/>
</g>
<!-- LoginDialogComponent -->
<g id="node1" class="node">
<title>LoginDialogComponent</title>
<polygon fill="#ffffb3" stroke="black" points="775.38,-122 622.62,-122 622.62,-86 775.38,-86 775.38,-122"/>
<text text-anchor="middle" x="699" y="-99.8" font-family="Times,serif" font-size="14.00">LoginDialogComponent</text>
</g>
<!-- AuthModule -->
<g id="node5" class="node">
<title>AuthModule</title>
<polygon fill="#8dd3c7" stroke="black" points="421.55,-187 418.55,-191 397.55,-191 394.55,-187 334.45,-187 334.45,-151 421.55,-151 421.55,-187"/>
<text text-anchor="middle" x="378" y="-164.8" font-family="Times,serif" font-size="14.00">AuthModule</text>
</g>
<!-- LoginDialogComponent&#45;&gt;AuthModule -->
<g id="edge1" class="edge">
<title>LoginDialogComponent&#45;&gt;AuthModule</title>
<path fill="none" stroke="black" d="M699,-122.28C699,-143.32 699,-175 699,-175 699,-175 431.63,-175 431.63,-175"/>
<polygon fill="black" stroke="black" points="431.63,-171.5 421.63,-175 431.63,-178.5 431.63,-171.5"/>
</g>
<!-- MainProfileComponent -->
<g id="node2" class="node">
<title>MainProfileComponent</title>
<polygon fill="#ffffb3" stroke="black" points="604.48,-122 455.52,-122 455.52,-86 604.48,-86 604.48,-122"/>
<text text-anchor="middle" x="530" y="-99.8" font-family="Times,serif" font-size="14.00">MainProfileComponent</text>
</g>
<!-- MainProfileComponent&#45;&gt;AuthModule -->
<g id="edge2" class="edge">
<title>MainProfileComponent&#45;&gt;AuthModule</title>
<path fill="none" stroke="black" d="M530.34,-122.02C530.34,-139.37 530.34,-163 530.34,-163 530.34,-163 431.65,-163 431.65,-163"/>
<polygon fill="black" stroke="black" points="431.65,-159.5 421.65,-163 431.65,-166.5 431.65,-159.5"/>
</g>
<!-- ProfileComponent -->
<g id="node3" class="node">
<title>ProfileComponent</title>
<polygon fill="#ffffb3" stroke="black" points="437.93,-122 318.07,-122 318.07,-86 437.93,-86 437.93,-122"/>
<text text-anchor="middle" x="378" y="-99.8" font-family="Times,serif" font-size="14.00">ProfileComponent</text>
</g>
<!-- ProfileComponent&#45;&gt;AuthModule -->
<g id="edge3" class="edge">
<title>ProfileComponent&#45;&gt;AuthModule</title>
<path fill="none" stroke="black" d="M378,-122.11C378,-122.11 378,-140.99 378,-140.99"/>
<polygon fill="black" stroke="black" points="374.5,-140.99 378,-150.99 381.5,-140.99 374.5,-140.99"/>
</g>
<!-- ProfileUserComponent -->
<g id="node4" class="node">
<title>ProfileUserComponent</title>
<polygon fill="#ffffb3" stroke="black" points="299.86,-122 154.14,-122 154.14,-86 299.86,-86 299.86,-122"/>
<text text-anchor="middle" x="227" y="-99.8" font-family="Times,serif" font-size="14.00">ProfileUserComponent</text>
</g>
<!-- ProfileUserComponent&#45;&gt;AuthModule -->
<g id="edge4" class="edge">
<title>ProfileUserComponent&#45;&gt;AuthModule</title>
<path fill="none" stroke="black" d="M226.94,-122.02C226.94,-139.37 226.94,-163 226.94,-163 226.94,-163 324.31,-163 324.31,-163"/>
<polygon fill="black" stroke="black" points="324.31,-166.5 334.31,-163 324.31,-159.5 324.31,-166.5"/>
</g>
<!-- LoginDialogComponent  -->
<g id="node7" class="node">
<title>LoginDialogComponent </title>
<polygon fill="#fb8072" stroke="black" points="456.38,-252 299.62,-252 299.62,-216 456.38,-216 456.38,-252"/>
<text text-anchor="middle" x="378" y="-229.8" font-family="Times,serif" font-size="14.00">LoginDialogComponent </text>
</g>
<!-- AuthModule&#45;&gt;LoginDialogComponent  -->
<g id="edge6" class="edge">
<title>AuthModule&#45;&gt;LoginDialogComponent </title>
<path fill="none" stroke="black" stroke-dasharray="5,2" d="M378,-187.11C378,-187.11 378,-205.99 378,-205.99"/>
<polygon fill="black" stroke="black" points="374.5,-205.99 378,-215.99 381.5,-205.99 374.5,-205.99"/>
</g>
<!-- MaterialModule -->
<g id="node6" class="node">
<title>MaterialModule</title>
<polygon fill="#8dd3c7" stroke="black" points="130.47,-122 127.47,-126 106.47,-126 103.47,-122 23.53,-122 23.53,-86 130.47,-86 130.47,-122"/>
<text text-anchor="middle" x="77" y="-99.8" font-family="Times,serif" font-size="14.00">MaterialModule</text>
</g>
<!-- MaterialModule&#45;&gt;AuthModule -->
<g id="edge5" class="edge">
<title>MaterialModule&#45;&gt;AuthModule</title>
<path fill="none" stroke="black" d="M77,-122.28C77,-143.32 77,-175 77,-175 77,-175 324.23,-175 324.23,-175"/>
<polygon fill="black" stroke="black" points="324.23,-178.5 334.23,-175 324.23,-171.5 324.23,-178.5"/>
</g>
</g>
</svg>
