<?xml version="1.0" encoding="UTF-8" standalone="no"?>
<!DOCTYPE svg PUBLIC "-//W3C//DTD SVG 1.1//EN"
 "http://www.w3.org/Graphics/SVG/1.1/DTD/svg11.dtd">
<!-- Generated by graphviz version 2.44.1 (20200629.0846)
 -->
<!-- Title: dependencies Pages: 1 -->
<svg width="636pt" height="211pt"
 viewBox="0.00 0.00 636.00 211.00" xmlns="http://www.w3.org/2000/svg" xmlns:xlink="http://www.w3.org/1999/xlink">
<g id="graph0" class="graph" transform="scale(1 1) rotate(0) translate(4 207)">
<title>dependencies</title>
<polygon fill="white" stroke="transparent" points="-4,4 -4,-207 632,-207 632,4 -4,4"/>
<text text-anchor="start" x="293.01" y="-42.4" font-family="sans-serif" font-weight="bold" font-size="14.00">Legend</text>
<polygon fill="#ffffb3" stroke="transparent" points="80,-10 80,-30 100,-30 100,-10 80,-10"/>
<text text-anchor="start" x="103.63" y="-15.4" font-family="sans-serif" font-size="14.00"> &#160;Declarations</text>
<polygon fill="#8dd3c7" stroke="transparent" points="193,-10 193,-30 213,-30 213,-10 193,-10"/>
<text text-anchor="start" x="216.73" y="-15.4" font-family="sans-serif" font-size="14.00"> &#160;Module</text>
<polygon fill="#80b1d3" stroke="transparent" points="279,-10 279,-30 299,-30 299,-10 279,-10"/>
<text text-anchor="start" x="302.78" y="-15.4" font-family="sans-serif" font-size="14.00"> &#160;Bootstrap</text>
<polygon fill="#fdb462" stroke="transparent" points="376,-10 376,-30 396,-30 396,-10 376,-10"/>
<text text-anchor="start" x="399.67" y="-15.4" font-family="sans-serif" font-size="14.00"> &#160;Providers</text>
<polygon fill="#fb8072" stroke="transparent" points="472,-10 472,-30 492,-30 492,-10 472,-10"/>
<text text-anchor="start" x="495.73" y="-15.4" font-family="sans-serif" font-size="14.00"> &#160;Exports</text>
<g id="clust1" class="cluster">
<title>cluster_AuthModule</title>
<polygon fill="none" stroke="black" stroke-dasharray="1,5" points="8,-70 8,-195 620,-195 620,-70 8,-70"/>
</g>
<g id="clust2" class="cluster">
<title>cluster_AuthModule_declarations</title>
<polygon fill="none" stroke="black" points="146,-78 146,-130 612,-130 612,-78 146,-78"/>
</g>
<g id="clust6" class="cluster">
<title>cluster_AuthModule_imports</title>
<polygon fill="none" stroke="black" points="16,-78 16,-130 138,-130 138,-78 16,-78"/>
</g>
<!-- MainProfileComponent -->
<g id="node1" class="node">
<title>MainProfileComponent</title>
<polygon fill="#ffffb3" stroke="black" points="604.48,-122 455.52,-122 455.52,-86 604.48,-86 604.48,-122"/>
<text text-anchor="middle" x="530" y="-99.8" font-family="Times,serif" font-size="14.00">MainProfileComponent</text>
</g>
<!-- AuthModule -->
<g id="node4" class="node">
<title>AuthModule</title>
<polygon fill="#8dd3c7" stroke="black" points="345.55,-187 342.55,-191 321.55,-191 318.55,-187 258.45,-187 258.45,-151 345.55,-151 345.55,-187"/>
<text text-anchor="middle" x="302" y="-164.8" font-family="Times,serif" font-size="14.00">AuthModule</text>
</g>
<!-- MainProfileComponent&#45;&gt;AuthModule -->
<g id="edge1" class="edge">
<title>MainProfileComponent&#45;&gt;AuthModule</title>
<path fill="none" stroke="black" d="M530,-122.11C530,-141.34 530,-169 530,-169 530,-169 355.69,-169 355.69,-169"/>
<polygon fill="black" stroke="black" points="355.69,-165.5 345.69,-169 355.69,-172.5 355.69,-165.5"/>
</g>
<!-- ProfileComponent -->
<g id="node2" class="node">
<title>ProfileComponent</title>
<polygon fill="#ffffb3" stroke="black" points="437.93,-122 318.07,-122 318.07,-86 437.93,-86 437.93,-122"/>
<text text-anchor="middle" x="378" y="-99.8" font-family="Times,serif" font-size="14.00">ProfileComponent</text>
</g>
<!-- ProfileComponent&#45;&gt;AuthModule -->
<g id="edge2" class="edge">
<title>ProfileComponent&#45;&gt;AuthModule</title>
<path fill="none" stroke="black" d="M332.03,-122.11C332.03,-122.11 332.03,-140.99 332.03,-140.99"/>
<polygon fill="black" stroke="black" points="328.53,-140.99 332.03,-150.99 335.53,-140.99 328.53,-140.99"/>
</g>
<!-- ProfileUserComponent -->
<g id="node3" class="node">
<title>ProfileUserComponent</title>
<polygon fill="#ffffb3" stroke="black" points="299.86,-122 154.14,-122 154.14,-86 299.86,-86 299.86,-122"/>
<text text-anchor="middle" x="227" y="-99.8" font-family="Times,serif" font-size="14.00">ProfileUserComponent</text>
</g>
<!-- ProfileUserComponent&#45;&gt;AuthModule -->
<g id="edge3" class="edge">
<title>ProfileUserComponent&#45;&gt;AuthModule</title>
<path fill="none" stroke="black" d="M279.08,-122.11C279.08,-122.11 279.08,-140.99 279.08,-140.99"/>
<polygon fill="black" stroke="black" points="275.58,-140.99 279.08,-150.99 282.58,-140.99 275.58,-140.99"/>
</g>
<!-- MaterialModule -->
<g id="node5" class="node">
<title>MaterialModule</title>
<polygon fill="#8dd3c7" stroke="black" points="130.47,-122 127.47,-126 106.47,-126 103.47,-122 23.53,-122 23.53,-86 130.47,-86 130.47,-122"/>
<text text-anchor="middle" x="77" y="-99.8" font-family="Times,serif" font-size="14.00">MaterialModule</text>
</g>
<!-- MaterialModule&#45;&gt;AuthModule -->
<g id="edge4" class="edge">
<title>MaterialModule&#45;&gt;AuthModule</title>
<path fill="none" stroke="black" d="M77,-122.11C77,-141.34 77,-169 77,-169 77,-169 248.35,-169 248.35,-169"/>
<polygon fill="black" stroke="black" points="248.35,-172.5 258.35,-169 248.35,-165.5 248.35,-172.5"/>
</g>
</g>
</svg>
