<?xml version="1.0" encoding="UTF-8" standalone="no"?>
<!DOCTYPE svg PUBLIC "-//W3C//DTD SVG 1.1//EN"
 "http://www.w3.org/Graphics/SVG/1.1/DTD/svg11.dtd">
<!-- Generated by graphviz version 2.46.0 (20210119.1425)
 -->
<!-- Title: dependencies Pages: 1 -->
<svg width="1930pt" height="211pt"
 viewBox="0.00 0.00 1930.00 211.00" xmlns="http://www.w3.org/2000/svg" xmlns:xlink="http://www.w3.org/1999/xlink">
<g id="graph0" class="graph" transform="scale(1 1) rotate(0) translate(4 207)">
<title>dependencies</title>
<polygon fill="white" stroke="transparent" points="-4,4 -4,-207 1926,-207 1926,4 -4,4"/>
<text text-anchor="start" x="940.01" y="-42.4" font-family="sans-serif" font-weight="bold" font-size="14.00">Legend</text>
<polygon fill="#ffffb3" stroke="transparent" points="727,-10 727,-30 747,-30 747,-10 727,-10"/>
<text text-anchor="start" x="750.63" y="-15.4" font-family="sans-serif" font-size="14.00"> &#160;Declarations</text>
<polygon fill="#8dd3c7" stroke="transparent" points="840,-10 840,-30 860,-30 860,-10 840,-10"/>
<text text-anchor="start" x="863.73" y="-15.4" font-family="sans-serif" font-size="14.00"> &#160;Module</text>
<polygon fill="#80b1d3" stroke="transparent" points="926,-10 926,-30 946,-30 946,-10 926,-10"/>
<text text-anchor="start" x="949.78" y="-15.4" font-family="sans-serif" font-size="14.00"> &#160;Bootstrap</text>
<polygon fill="#fdb462" stroke="transparent" points="1023,-10 1023,-30 1043,-30 1043,-10 1023,-10"/>
<text text-anchor="start" x="1046.67" y="-15.4" font-family="sans-serif" font-size="14.00"> &#160;Providers</text>
<polygon fill="#fb8072" stroke="transparent" points="1119,-10 1119,-30 1139,-30 1139,-10 1119,-10"/>
<text text-anchor="start" x="1142.73" y="-15.4" font-family="sans-serif" font-size="14.00"> &#160;Exports</text>
<g id="clust1" class="cluster">
<title>cluster_UserProfilesModule</title>
<polygon fill="none" stroke="black" stroke-dasharray="1,5" points="8,-70 8,-195 1914,-195 1914,-70 8,-70"/>
</g>
<g id="clust6" class="cluster">
<title>cluster_UserProfilesModule_imports</title>
<polygon fill="none" stroke="black" points="1591,-78 1591,-130 1906,-130 1906,-78 1591,-78"/>
</g>
<g id="clust9" class="cluster">
<title>cluster_UserProfilesModule_providers</title>
<polygon fill="none" stroke="black" points="510,-78 510,-130 1583,-130 1583,-78 510,-78"/>
</g>
<g id="clust2" class="cluster">
<title>cluster_UserProfilesModule_declarations</title>
<polygon fill="none" stroke="black" points="16,-78 16,-130 502,-130 502,-78 16,-78"/>
</g>
<!-- EditProfileComponent -->
<g id="node1" class="node">
<title>EditProfileComponent</title>
<polygon fill="#ffffb3" stroke="black" points="494.27,-122 351.73,-122 351.73,-86 494.27,-86 494.27,-122"/>
<text text-anchor="middle" x="423" y="-99.8" font-family="Times,serif" font-size="14.00">EditProfileComponent</text>
</g>
<!-- UserProfilesModule -->
<g id="node4" class="node">
<title>UserProfilesModule</title>
<polygon fill="#8dd3c7" stroke="black" points="998.52,-187 995.52,-191 974.52,-191 971.52,-187 869.48,-187 869.48,-151 998.52,-151 998.52,-187"/>
<text text-anchor="middle" x="934" y="-164.8" font-family="Times,serif" font-size="14.00">UserProfilesModule</text>
</g>
<!-- EditProfileComponent&#45;&gt;UserProfilesModule -->
<g id="edge1" class="edge">
<title>EditProfileComponent&#45;&gt;UserProfilesModule</title>
<path fill="none" stroke="black" d="M423,-122.27C423,-140.56 423,-166 423,-166 423,-166 859.28,-166 859.28,-166"/>
<polygon fill="black" stroke="black" points="859.28,-169.5 869.28,-166 859.28,-162.5 859.28,-169.5"/>
</g>
<!-- ProfileUserComponent -->
<g id="node2" class="node">
<title>ProfileUserComponent</title>
<polygon fill="#ffffb3" stroke="black" points="333.86,-122 188.14,-122 188.14,-86 333.86,-86 333.86,-122"/>
<text text-anchor="middle" x="261" y="-99.8" font-family="Times,serif" font-size="14.00">ProfileUserComponent</text>
</g>
<!-- ProfileUserComponent&#45;&gt;UserProfilesModule -->
<g id="edge2" class="edge">
<title>ProfileUserComponent&#45;&gt;UserProfilesModule</title>
<path fill="none" stroke="black" d="M261,-122.13C261,-142.57 261,-173 261,-173 261,-173 859.47,-173 859.47,-173"/>
<polygon fill="black" stroke="black" points="859.47,-176.5 869.47,-173 859.47,-169.5 859.47,-176.5"/>
</g>
<!-- UserProfileComponent -->
<g id="node3" class="node">
<title>UserProfileComponent</title>
<polygon fill="#ffffb3" stroke="black" points="169.86,-122 24.14,-122 24.14,-86 169.86,-86 169.86,-122"/>
<text text-anchor="middle" x="97" y="-99.8" font-family="Times,serif" font-size="14.00">UserProfileComponent</text>
</g>
<!-- UserProfileComponent&#45;&gt;UserProfilesModule -->
<g id="edge3" class="edge">
<title>UserProfileComponent&#45;&gt;UserProfilesModule</title>
<path fill="none" stroke="black" d="M97,-122.01C97,-144.49 97,-180 97,-180 97,-180 859.37,-180 859.37,-180"/>
<polygon fill="black" stroke="black" points="859.37,-183.5 869.37,-180 859.37,-176.5 859.37,-183.5"/>
</g>
<!-- MaterialModule -->
<g id="node5" class="node">
<title>MaterialModule</title>
<polygon fill="#8dd3c7" stroke="black" points="1898.47,-122 1895.47,-126 1874.47,-126 1871.47,-122 1791.53,-122 1791.53,-86 1898.47,-86 1898.47,-122"/>
<text text-anchor="middle" x="1845" y="-99.8" font-family="Times,serif" font-size="14.00">MaterialModule</text>
</g>
<!-- MaterialModule&#45;&gt;UserProfilesModule -->
<g id="edge4" class="edge">
<title>MaterialModule&#45;&gt;UserProfilesModule</title>
<path fill="none" stroke="black" d="M1845,-122.01C1845,-144.49 1845,-180 1845,-180 1845,-180 1008.79,-180 1008.79,-180"/>
<polygon fill="black" stroke="black" points="1008.79,-176.5 998.79,-180 1008.79,-183.5 1008.79,-176.5"/>
</g>
<!-- UserProfilesRoutingModule -->
<g id="node6" class="node">
<title>UserProfilesRoutingModule</title>
<polygon fill="#8dd3c7" stroke="black" points="1773.14,-122 1770.14,-126 1749.14,-126 1746.14,-122 1598.86,-122 1598.86,-86 1773.14,-86 1773.14,-122"/>
<text text-anchor="middle" x="1686" y="-99.8" font-family="Times,serif" font-size="14.00">UserProfilesRoutingModule</text>
</g>
<!-- UserProfilesRoutingModule&#45;&gt;UserProfilesModule -->
<g id="edge5" class="edge">
<title>UserProfilesRoutingModule&#45;&gt;UserProfilesModule</title>
<path fill="none" stroke="black" d="M1686,-122.13C1686,-142.57 1686,-173 1686,-173 1686,-173 1008.77,-173 1008.77,-173"/>
<polygon fill="black" stroke="black" points="1008.77,-169.5 998.77,-173 1008.77,-176.5 1008.77,-169.5"/>
</g>
<!-- GuardianDataService -->
<g id="node7" class="node">
<title>GuardianDataService</title>
<ellipse fill="#fdb462" stroke="black" cx="1481" cy="-104" rx="94.3" ry="18"/>
<text text-anchor="middle" x="1481" y="-99.8" font-family="Times,serif" font-size="14.00">GuardianDataService</text>
</g>
<!-- GuardianDataService&#45;&gt;UserProfilesModule -->
<g id="edge6" class="edge">
<title>GuardianDataService&#45;&gt;UserProfilesModule</title>
<path fill="none" stroke="black" d="M1481,-122.27C1481,-140.56 1481,-166 1481,-166 1481,-166 1008.63,-166 1008.63,-166"/>
<polygon fill="black" stroke="black" points="1008.63,-162.5 998.63,-166 1008.63,-169.5 1008.63,-162.5"/>
</g>
<!-- GuardianEntityService -->
<g id="node8" class="node">
<title>GuardianEntityService</title>
<ellipse fill="#fdb462" stroke="black" cx="1269" cy="-104" rx="99.56" ry="18"/>
<text text-anchor="middle" x="1269" y="-99.8" font-family="Times,serif" font-size="14.00">GuardianEntityService</text>
</g>
<!-- GuardianEntityService&#45;&gt;UserProfilesModule -->
<g id="edge7" class="edge">
<title>GuardianEntityService&#45;&gt;UserProfilesModule</title>
<path fill="none" stroke="black" d="M1269,-122.01C1269,-138.05 1269,-159 1269,-159 1269,-159 1008.59,-159 1008.59,-159"/>
<polygon fill="black" stroke="black" points="1008.59,-155.5 998.59,-159 1008.59,-162.5 1008.59,-155.5"/>
</g>
<!-- UserProfileDataService -->
<g id="node9" class="node">
<title>UserProfileDataService</title>
<ellipse fill="#fdb462" stroke="black" cx="1049" cy="-104" rx="102.96" ry="18"/>
<text text-anchor="middle" x="1049" y="-99.8" font-family="Times,serif" font-size="14.00">UserProfileDataService</text>
</g>
<!-- UserProfileDataService&#45;&gt;UserProfilesModule -->
<g id="edge8" class="edge">
<title>UserProfileDataService&#45;&gt;UserProfilesModule</title>
<path fill="none" stroke="black" d="M972.52,-116.23C972.52,-116.23 972.52,-140.68 972.52,-140.68"/>
<polygon fill="black" stroke="black" points="969.02,-140.68 972.52,-150.68 976.02,-140.68 969.02,-140.68"/>
</g>
<!-- UserProfileEntityService -->
<g id="node10" class="node">
<title>UserProfileEntityService</title>
<ellipse fill="#fdb462" stroke="black" cx="820" cy="-104" rx="108.22" ry="18"/>
<text text-anchor="middle" x="820" y="-99.8" font-family="Times,serif" font-size="14.00">UserProfileEntityService</text>
</g>
<!-- UserProfileEntityService&#45;&gt;UserProfilesModule -->
<g id="edge9" class="edge">
<title>UserProfileEntityService&#45;&gt;UserProfilesModule</title>
<path fill="none" stroke="black" d="M898.67,-116.53C898.67,-116.53 898.67,-140.85 898.67,-140.85"/>
<polygon fill="black" stroke="black" points="895.17,-140.85 898.67,-150.85 902.17,-140.85 895.17,-140.85"/>
</g>
<!-- UserProfilesService -->
<g id="node11" class="node">
<title>UserProfilesService</title>
<ellipse fill="#fdb462" stroke="black" cx="606" cy="-104" rx="88.01" ry="18"/>
<text text-anchor="middle" x="606" y="-99.8" font-family="Times,serif" font-size="14.00">UserProfilesService</text>
</g>
<!-- UserProfilesService&#45;&gt;UserProfilesModule -->
<g id="edge10" class="edge">
<title>UserProfilesService&#45;&gt;UserProfilesModule</title>
<path fill="none" stroke="black" d="M606,-122.01C606,-138.05 606,-159 606,-159 606,-159 859.2,-159 859.2,-159"/>
<polygon fill="black" stroke="black" points="859.2,-162.5 869.2,-159 859.2,-155.5 859.2,-162.5"/>
</g>
</g>
</svg>
