<?xml version="1.0" encoding="UTF-8" standalone="no"?>
<!DOCTYPE svg PUBLIC "-//W3C//DTD SVG 1.1//EN"
 "http://www.w3.org/Graphics/SVG/1.1/DTD/svg11.dtd">
<!-- Generated by graphviz version 2.47.0 (20210316.0004)
 -->
<!-- Title: dependencies Pages: 1 -->
<svg width="1930pt" height="211pt"
 viewBox="0.00 0.00 1930.00 211.00" xmlns="http://www.w3.org/2000/svg" xmlns:xlink="http://www.w3.org/1999/xlink">
<g id="graph0" class="graph" transform="scale(1 1) rotate(0) translate(4 207)">
<title>dependencies</title>
<polygon fill="white" stroke="transparent" points="-4,4 -4,-207 1926,-207 1926,4 -4,4"/>
<text text-anchor="start" x="940.01" y="-42.4" font-family="sans-serif" font-weight="bold" font-size="14.00">Legend</text>
<polygon fill="#ffffb3" stroke="transparent" points="727,-10 727,-30 747,-30 747,-10 727,-10"/>
<text text-anchor="start" x="750.63" y="-15.4" font-family="sans-serif" font-size="14.00"> &#160;Declarations</text>
<polygon fill="#8dd3c7" stroke="transparent" points="840,-10 840,-30 860,-30 860,-10 840,-10"/>
<text text-anchor="start" x="863.73" y="-15.4" font-family="sans-serif" font-size="14.00"> &#160;Module</text>
<polygon fill="#80b1d3" stroke="transparent" points="926,-10 926,-30 946,-30 946,-10 926,-10"/>
<text text-anchor="start" x="949.78" y="-15.4" font-family="sans-serif" font-size="14.00"> &#160;Bootstrap</text>
<polygon fill="#fdb462" stroke="transparent" points="1023,-10 1023,-30 1043,-30 1043,-10 1023,-10"/>
<text text-anchor="start" x="1046.67" y="-15.4" font-family="sans-serif" font-size="14.00"> &#160;Providers</text>
<polygon fill="#fb8072" stroke="transparent" points="1119,-10 1119,-30 1139,-30 1139,-10 1119,-10"/>
<text text-anchor="start" x="1142.73" y="-15.4" font-family="sans-serif" font-size="14.00"> &#160;Exports</text>
<g id="clust1" class="cluster">
<title>cluster_UserProfilesModule</title>
<polygon fill="none" stroke="black" stroke-dasharray="1,5" points="8,-70 8,-195 1914,-195 1914,-70 8,-70"/>
</g>
<g id="clust9" class="cluster">
<title>cluster_UserProfilesModule_providers</title>
<polygon fill="none" stroke="black" points="833,-78 833,-130 1906,-130 1906,-78 833,-78"/>
</g>
<g id="clust2" class="cluster">
<title>cluster_UserProfilesModule_declarations</title>
<polygon fill="none" stroke="black" points="339,-78 339,-130 825,-130 825,-78 339,-78"/>
</g>
<g id="clust6" class="cluster">
<title>cluster_UserProfilesModule_imports</title>
<polygon fill="none" stroke="black" points="16,-78 16,-130 331,-130 331,-78 16,-78"/>
</g>
<!-- EditProfileComponent -->
<g id="node1" class="node">
<title>EditProfileComponent</title>
<polygon fill="#ffffb3" stroke="black" points="817.27,-122 674.73,-122 674.73,-86 817.27,-86 817.27,-122"/>
<text text-anchor="middle" x="746" y="-99.8" font-family="Times,serif" font-size="14.00">EditProfileComponent</text>
</g>
<!-- UserProfilesModule -->
<g id="node4" class="node">
<title>UserProfilesModule</title>
<polygon fill="#8dd3c7" stroke="black" points="901.52,-187 898.52,-191 877.52,-191 874.52,-187 772.48,-187 772.48,-151 901.52,-151 901.52,-187"/>
<text text-anchor="middle" x="837" y="-164.8" font-family="Times,serif" font-size="14.00">UserProfilesModule</text>
</g>
<!-- EditProfileComponent&#45;&gt;UserProfilesModule -->
<g id="edge1" class="edge">
<title>EditProfileComponent&#45;&gt;UserProfilesModule</title>
<path fill="none" stroke="black" d="M794.81,-122.11C794.81,-122.11 794.81,-140.99 794.81,-140.99"/>
<polygon fill="black" stroke="black" points="791.31,-140.99 794.81,-150.99 798.31,-140.99 791.31,-140.99"/>
</g>
<!-- ProfileUserComponent -->
<g id="node2" class="node">
<title>ProfileUserComponent</title>
<polygon fill="#ffffb3" stroke="black" points="656.86,-122 511.14,-122 511.14,-86 656.86,-86 656.86,-122"/>
<text text-anchor="middle" x="584" y="-99.8" font-family="Times,serif" font-size="14.00">ProfileUserComponent</text>
</g>
<!-- ProfileUserComponent&#45;&gt;UserProfilesModule -->
<g id="edge2" class="edge">
<title>ProfileUserComponent&#45;&gt;UserProfilesModule</title>
<path fill="none" stroke="black" d="M584,-122.01C584,-138.05 584,-159 584,-159 584,-159 762.17,-159 762.17,-159"/>
<polygon fill="black" stroke="black" points="762.17,-162.5 772.17,-159 762.17,-155.5 762.17,-162.5"/>
</g>
<!-- UserProfileComponent -->
<g id="node3" class="node">
<title>UserProfileComponent</title>
<polygon fill="#ffffb3" stroke="black" points="492.86,-122 347.14,-122 347.14,-86 492.86,-86 492.86,-122"/>
<text text-anchor="middle" x="420" y="-99.8" font-family="Times,serif" font-size="14.00">UserProfileComponent</text>
</g>
<!-- UserProfileComponent&#45;&gt;UserProfilesModule -->
<g id="edge3" class="edge">
<title>UserProfileComponent&#45;&gt;UserProfilesModule</title>
<path fill="none" stroke="black" d="M420,-122.27C420,-140.56 420,-166 420,-166 420,-166 762.3,-166 762.3,-166"/>
<polygon fill="black" stroke="black" points="762.3,-169.5 772.3,-166 762.3,-162.5 762.3,-169.5"/>
</g>
<!-- MaterialModule -->
<g id="node5" class="node">
<title>MaterialModule</title>
<polygon fill="#8dd3c7" stroke="black" points="323.47,-122 320.47,-126 299.47,-126 296.47,-122 216.53,-122 216.53,-86 323.47,-86 323.47,-122"/>
<text text-anchor="middle" x="270" y="-99.8" font-family="Times,serif" font-size="14.00">MaterialModule</text>
</g>
<!-- MaterialModule&#45;&gt;UserProfilesModule -->
<g id="edge4" class="edge">
<title>MaterialModule&#45;&gt;UserProfilesModule</title>
<path fill="none" stroke="black" d="M270,-122.13C270,-142.57 270,-173 270,-173 270,-173 762.23,-173 762.23,-173"/>
<polygon fill="black" stroke="black" points="762.23,-176.5 772.23,-173 762.23,-169.5 762.23,-176.5"/>
</g>
<!-- UserProfilesRoutingModule -->
<g id="node6" class="node">
<title>UserProfilesRoutingModule</title>
<polygon fill="#8dd3c7" stroke="black" points="198.14,-122 195.14,-126 174.14,-126 171.14,-122 23.86,-122 23.86,-86 198.14,-86 198.14,-122"/>
<text text-anchor="middle" x="111" y="-99.8" font-family="Times,serif" font-size="14.00">UserProfilesRoutingModule</text>
</g>
<!-- UserProfilesRoutingModule&#45;&gt;UserProfilesModule -->
<g id="edge5" class="edge">
<title>UserProfilesRoutingModule&#45;&gt;UserProfilesModule</title>
<path fill="none" stroke="black" d="M111,-122.01C111,-144.49 111,-180 111,-180 111,-180 762.25,-180 762.25,-180"/>
<polygon fill="black" stroke="black" points="762.25,-183.5 772.25,-180 762.25,-176.5 762.25,-183.5"/>
</g>
<!-- GuardianDataService -->
<g id="node7" class="node">
<title>GuardianDataService</title>
<ellipse fill="#fdb462" stroke="black" cx="1804" cy="-104" rx="94.3" ry="18"/>
<text text-anchor="middle" x="1804" y="-99.8" font-family="Times,serif" font-size="14.00">GuardianDataService</text>
</g>
<!-- GuardianDataService&#45;&gt;UserProfilesModule -->
<g id="edge6" class="edge">
<title>GuardianDataService&#45;&gt;UserProfilesModule</title>
<path fill="none" stroke="black" d="M1804,-122.01C1804,-144.49 1804,-180 1804,-180 1804,-180 911.57,-180 911.57,-180"/>
<polygon fill="black" stroke="black" points="911.57,-176.5 901.57,-180 911.57,-183.5 911.57,-176.5"/>
</g>
<!-- GuardianEntityService -->
<g id="node8" class="node">
<title>GuardianEntityService</title>
<ellipse fill="#fdb462" stroke="black" cx="1592" cy="-104" rx="99.56" ry="18"/>
<text text-anchor="middle" x="1592" y="-99.8" font-family="Times,serif" font-size="14.00">GuardianEntityService</text>
</g>
<!-- GuardianEntityService&#45;&gt;UserProfilesModule -->
<g id="edge7" class="edge">
<title>GuardianEntityService&#45;&gt;UserProfilesModule</title>
<path fill="none" stroke="black" d="M1592,-122.13C1592,-142.57 1592,-173 1592,-173 1592,-173 911.7,-173 911.7,-173"/>
<polygon fill="black" stroke="black" points="911.7,-169.5 901.7,-173 911.7,-176.5 911.7,-169.5"/>
</g>
<!-- UserProfileDataService -->
<g id="node9" class="node">
<title>UserProfileDataService</title>
<ellipse fill="#fdb462" stroke="black" cx="1372" cy="-104" rx="102.96" ry="18"/>
<text text-anchor="middle" x="1372" y="-99.8" font-family="Times,serif" font-size="14.00">UserProfileDataService</text>
</g>
<!-- UserProfileDataService&#45;&gt;UserProfilesModule -->
<g id="edge8" class="edge">
<title>UserProfileDataService&#45;&gt;UserProfilesModule</title>
<path fill="none" stroke="black" d="M1372,-122.27C1372,-140.56 1372,-166 1372,-166 1372,-166 911.53,-166 911.53,-166"/>
<polygon fill="black" stroke="black" points="911.53,-162.5 901.53,-166 911.53,-169.5 911.53,-162.5"/>
</g>
<!-- UserProfileEntityService -->
<g id="node10" class="node">
<title>UserProfileEntityService</title>
<ellipse fill="#fdb462" stroke="black" cx="1143" cy="-104" rx="108.22" ry="18"/>
<text text-anchor="middle" x="1143" y="-99.8" font-family="Times,serif" font-size="14.00">UserProfileEntityService</text>
</g>
<!-- UserProfileEntityService&#45;&gt;UserProfilesModule -->
<g id="edge9" class="edge">
<title>UserProfileEntityService&#45;&gt;UserProfilesModule</title>
<path fill="none" stroke="black" d="M1143,-122.01C1143,-138.05 1143,-159 1143,-159 1143,-159 911.89,-159 911.89,-159"/>
<polygon fill="black" stroke="black" points="911.89,-155.5 901.89,-159 911.89,-162.5 911.89,-155.5"/>
</g>
<!-- UserProfilesService -->
<g id="node11" class="node">
<title>UserProfilesService</title>
<ellipse fill="#fdb462" stroke="black" cx="929" cy="-104" rx="88.01" ry="18"/>
<text text-anchor="middle" x="929" y="-99.8" font-family="Times,serif" font-size="14.00">UserProfilesService</text>
</g>
<!-- UserProfilesService&#45;&gt;UserProfilesModule -->
<g id="edge10" class="edge">
<title>UserProfilesService&#45;&gt;UserProfilesModule</title>
<path fill="none" stroke="black" d="M871.25,-117.78C871.25,-117.78 871.25,-140.55 871.25,-140.55"/>
<polygon fill="black" stroke="black" points="867.75,-140.55 871.25,-150.55 874.75,-140.55 867.75,-140.55"/>
</g>
</g>
</svg>
