<?xml version="1.0" encoding="UTF-8" standalone="no"?>
<!DOCTYPE svg PUBLIC "-//W3C//DTD SVG 1.1//EN"
 "http://www.w3.org/Graphics/SVG/1.1/DTD/svg11.dtd">
<!-- Generated by graphviz version 2.46.0 (20210119.1425)
 -->
<!-- Title: dependencies Pages: 1 -->
<svg width="2383pt" height="211pt"
 viewBox="0.00 0.00 2383.00 211.00" xmlns="http://www.w3.org/2000/svg" xmlns:xlink="http://www.w3.org/1999/xlink">
<g id="graph0" class="graph" transform="scale(1 1) rotate(0) translate(4 207)">
<title>dependencies</title>
<polygon fill="white" stroke="transparent" points="-4,4 -4,-207 2379,-207 2379,4 -4,4"/>
<text text-anchor="start" x="1166.51" y="-42.4" font-family="sans-serif" font-weight="bold" font-size="14.00">Legend</text>
<polygon fill="#ffffb3" stroke="transparent" points="953.5,-10 953.5,-30 973.5,-30 973.5,-10 953.5,-10"/>
<text text-anchor="start" x="977.13" y="-15.4" font-family="sans-serif" font-size="14.00"> &#160;Declarations</text>
<polygon fill="#8dd3c7" stroke="transparent" points="1066.5,-10 1066.5,-30 1086.5,-30 1086.5,-10 1066.5,-10"/>
<text text-anchor="start" x="1090.23" y="-15.4" font-family="sans-serif" font-size="14.00"> &#160;Module</text>
<polygon fill="#80b1d3" stroke="transparent" points="1152.5,-10 1152.5,-30 1172.5,-30 1172.5,-10 1152.5,-10"/>
<text text-anchor="start" x="1176.28" y="-15.4" font-family="sans-serif" font-size="14.00"> &#160;Bootstrap</text>
<polygon fill="#fdb462" stroke="transparent" points="1249.5,-10 1249.5,-30 1269.5,-30 1269.5,-10 1249.5,-10"/>
<text text-anchor="start" x="1273.17" y="-15.4" font-family="sans-serif" font-size="14.00"> &#160;Providers</text>
<polygon fill="#fb8072" stroke="transparent" points="1345.5,-10 1345.5,-30 1365.5,-30 1365.5,-10 1345.5,-10"/>
<text text-anchor="start" x="1369.23" y="-15.4" font-family="sans-serif" font-size="14.00"> &#160;Exports</text>
<g id="clust1" class="cluster">
<title>cluster_UserProfilesModule</title>
<polygon fill="none" stroke="black" stroke-dasharray="1,5" points="8,-70 8,-195 2367,-195 2367,-70 8,-70"/>
</g>
<g id="clust11" class="cluster">
<title>cluster_UserProfilesModule_providers</title>
<polygon fill="none" stroke="black" points="1159,-78 1159,-130 2359,-130 2359,-78 1159,-78"/>
</g>
<g id="clust2" class="cluster">
<title>cluster_UserProfilesModule_declarations</title>
<polygon fill="none" stroke="black" points="339,-78 339,-130 1151,-130 1151,-78 339,-78"/>
</g>
<g id="clust8" class="cluster">
<title>cluster_UserProfilesModule_imports</title>
<polygon fill="none" stroke="black" points="16,-78 16,-130 331,-130 331,-78 16,-78"/>
</g>
<!-- EditProfileComponent -->
<g id="node1" class="node">
<title>EditProfileComponent</title>
<polygon fill="#ffffb3" stroke="black" points="1143.27,-122 1000.73,-122 1000.73,-86 1143.27,-86 1143.27,-122"/>
<text text-anchor="middle" x="1072" y="-99.8" font-family="Times,serif" font-size="14.00">EditProfileComponent</text>
</g>
<!-- UserProfilesModule -->
<g id="node6" class="node">
<title>UserProfilesModule</title>
<polygon fill="#8dd3c7" stroke="black" points="1136.52,-187 1133.52,-191 1112.52,-191 1109.52,-187 1007.48,-187 1007.48,-151 1136.52,-151 1136.52,-187"/>
<text text-anchor="middle" x="1072" y="-164.8" font-family="Times,serif" font-size="14.00">UserProfilesModule</text>
</g>
<!-- EditProfileComponent&#45;&gt;UserProfilesModule -->
<g id="edge1" class="edge">
<title>EditProfileComponent&#45;&gt;UserProfilesModule</title>
<path fill="none" stroke="black" d="M1072,-122.11C1072,-122.11 1072,-140.99 1072,-140.99"/>
<polygon fill="black" stroke="black" points="1068.5,-140.99 1072,-150.99 1075.5,-140.99 1068.5,-140.99"/>
</g>
<!-- ProfileUserComponent -->
<g id="node2" class="node">
<title>ProfileUserComponent</title>
<polygon fill="#ffffb3" stroke="black" points="982.86,-122 837.14,-122 837.14,-86 982.86,-86 982.86,-122"/>
<text text-anchor="middle" x="910" y="-99.8" font-family="Times,serif" font-size="14.00">ProfileUserComponent</text>
</g>
<!-- ProfileUserComponent&#45;&gt;UserProfilesModule -->
<g id="edge2" class="edge">
<title>ProfileUserComponent&#45;&gt;UserProfilesModule</title>
<path fill="none" stroke="black" d="M910,-122.24C910,-137.57 910,-157 910,-157 910,-157 997.04,-157 997.04,-157"/>
<polygon fill="black" stroke="black" points="997.04,-160.5 1007.04,-157 997.04,-153.5 997.04,-160.5"/>
</g>
<!-- UserGradesComponent -->
<g id="node3" class="node">
<title>UserGradesComponent</title>
<polygon fill="#ffffb3" stroke="black" points="818.9,-122 671.1,-122 671.1,-86 818.9,-86 818.9,-122"/>
<text text-anchor="middle" x="745" y="-99.8" font-family="Times,serif" font-size="14.00">UserGradesComponent</text>
</g>
<!-- UserGradesComponent&#45;&gt;UserProfilesModule -->
<g id="edge3" class="edge">
<title>UserGradesComponent&#45;&gt;UserProfilesModule</title>
<path fill="none" stroke="black" d="M745,-122.03C745,-139.06 745,-162 745,-162 745,-162 997.4,-162 997.4,-162"/>
<polygon fill="black" stroke="black" points="997.4,-165.5 1007.4,-162 997.4,-158.5 997.4,-165.5"/>
</g>
<!-- UserHomeComponent -->
<g id="node4" class="node">
<title>UserHomeComponent</title>
<polygon fill="#ffffb3" stroke="black" points="652.97,-122 511.03,-122 511.03,-86 652.97,-86 652.97,-122"/>
<text text-anchor="middle" x="582" y="-99.8" font-family="Times,serif" font-size="14.00">UserHomeComponent</text>
</g>
<!-- UserHomeComponent&#45;&gt;UserProfilesModule -->
<g id="edge4" class="edge">
<title>UserHomeComponent&#45;&gt;UserProfilesModule</title>
<path fill="none" stroke="black" d="M582,-122.22C582,-140.83 582,-167 582,-167 582,-167 997.44,-167 997.44,-167"/>
<polygon fill="black" stroke="black" points="997.44,-170.5 1007.44,-167 997.44,-163.5 997.44,-170.5"/>
</g>
<!-- UserProfileComponent -->
<g id="node5" class="node">
<title>UserProfileComponent</title>
<polygon fill="#ffffb3" stroke="black" points="492.86,-122 347.14,-122 347.14,-86 492.86,-86 492.86,-122"/>
<text text-anchor="middle" x="420" y="-99.8" font-family="Times,serif" font-size="14.00">UserProfileComponent</text>
</g>
<!-- UserProfileComponent&#45;&gt;UserProfilesModule -->
<g id="edge5" class="edge">
<title>UserProfileComponent&#45;&gt;UserProfilesModule</title>
<path fill="none" stroke="black" d="M420,-122.22C420,-142.37 420,-172 420,-172 420,-172 997.4,-172 997.4,-172"/>
<polygon fill="black" stroke="black" points="997.4,-175.5 1007.4,-172 997.4,-168.5 997.4,-175.5"/>
</g>
<!-- MaterialModule -->
<g id="node7" class="node">
<title>MaterialModule</title>
<polygon fill="#8dd3c7" stroke="black" points="323.47,-122 320.47,-126 299.47,-126 296.47,-122 216.53,-122 216.53,-86 323.47,-86 323.47,-122"/>
<text text-anchor="middle" x="270" y="-99.8" font-family="Times,serif" font-size="14.00">MaterialModule</text>
</g>
<!-- MaterialModule&#45;&gt;UserProfilesModule -->
<g id="edge6" class="edge">
<title>MaterialModule&#45;&gt;UserProfilesModule</title>
<path fill="none" stroke="black" d="M270,-122.04C270,-143.66 270,-177 270,-177 270,-177 997.39,-177 997.39,-177"/>
<polygon fill="black" stroke="black" points="997.39,-180.5 1007.39,-177 997.39,-173.5 997.39,-180.5"/>
</g>
<!-- UserProfilesRoutingModule -->
<g id="node8" class="node">
<title>UserProfilesRoutingModule</title>
<polygon fill="#8dd3c7" stroke="black" points="198.14,-122 195.14,-126 174.14,-126 171.14,-122 23.86,-122 23.86,-86 198.14,-86 198.14,-122"/>
<text text-anchor="middle" x="111" y="-99.8" font-family="Times,serif" font-size="14.00">UserProfilesRoutingModule</text>
</g>
<!-- UserProfilesRoutingModule&#45;&gt;UserProfilesModule -->
<g id="edge7" class="edge">
<title>UserProfilesRoutingModule&#45;&gt;UserProfilesModule</title>
<path fill="none" stroke="black" d="M111,-122.09C111,-145.13 111,-182 111,-182 111,-182 997.45,-182 997.45,-182"/>
<polygon fill="black" stroke="black" points="997.45,-185.5 1007.45,-182 997.45,-178.5 997.45,-185.5"/>
</g>
<!-- CourseDataService -->
<g id="node9" class="node">
<title>CourseDataService</title>
<ellipse fill="#fdb462" stroke="black" cx="2265" cy="-104" rx="85.65" ry="18"/>
<text text-anchor="middle" x="2265" y="-99.8" font-family="Times,serif" font-size="14.00">CourseDataService</text>
</g>
<!-- CourseDataService&#45;&gt;UserProfilesModule -->
<g id="edge8" class="edge">
<title>CourseDataService&#45;&gt;UserProfilesModule</title>
<path fill="none" stroke="black" d="M2265,-122.09C2265,-145.13 2265,-182 2265,-182 2265,-182 1146.56,-182 1146.56,-182"/>
<polygon fill="black" stroke="black" points="1146.56,-178.5 1136.56,-182 1146.56,-185.5 1146.56,-178.5"/>
</g>
<!-- CourseEntityService -->
<g id="node10" class="node">
<title>CourseEntityService</title>
<ellipse fill="#fdb462" stroke="black" cx="2070" cy="-104" rx="90.91" ry="18"/>
<text text-anchor="middle" x="2070" y="-99.8" font-family="Times,serif" font-size="14.00">CourseEntityService</text>
</g>
<!-- CourseEntityService&#45;&gt;UserProfilesModule -->
<g id="edge9" class="edge">
<title>CourseEntityService&#45;&gt;UserProfilesModule</title>
<path fill="none" stroke="black" d="M2070,-122.04C2070,-143.66 2070,-177 2070,-177 2070,-177 1146.71,-177 1146.71,-177"/>
<polygon fill="black" stroke="black" points="1146.71,-173.5 1136.71,-177 1146.71,-180.5 1146.71,-173.5"/>
</g>
<!-- CoursesService -->
<g id="node11" class="node">
<title>CoursesService</title>
<ellipse fill="#fdb462" stroke="black" cx="1890" cy="-104" rx="71.2" ry="18"/>
<text text-anchor="middle" x="1890" y="-99.8" font-family="Times,serif" font-size="14.00">CoursesService</text>
</g>
<!-- CoursesService&#45;&gt;UserProfilesModule -->
<g id="edge10" class="edge">
<title>CoursesService&#45;&gt;UserProfilesModule</title>
<path fill="none" stroke="black" d="M1890,-122.22C1890,-142.37 1890,-172 1890,-172 1890,-172 1146.53,-172 1146.53,-172"/>
<polygon fill="black" stroke="black" points="1146.53,-168.5 1136.53,-172 1146.53,-175.5 1146.53,-168.5"/>
</g>
<!-- UserProfileDataService -->
<g id="node12" class="node">
<title>UserProfileDataService</title>
<ellipse fill="#fdb462" stroke="black" cx="1698" cy="-104" rx="102.96" ry="18"/>
<text text-anchor="middle" x="1698" y="-99.8" font-family="Times,serif" font-size="14.00">UserProfileDataService</text>
</g>
<!-- UserProfileDataService&#45;&gt;UserProfilesModule -->
<g id="edge11" class="edge">
<title>UserProfileDataService&#45;&gt;UserProfilesModule</title>
<path fill="none" stroke="black" d="M1698,-122.22C1698,-140.83 1698,-167 1698,-167 1698,-167 1146.64,-167 1146.64,-167"/>
<polygon fill="black" stroke="black" points="1146.64,-163.5 1136.64,-167 1146.64,-170.5 1146.64,-163.5"/>
</g>
<!-- UserProfileEntityService -->
<g id="node13" class="node">
<title>UserProfileEntityService</title>
<ellipse fill="#fdb462" stroke="black" cx="1469" cy="-104" rx="108.22" ry="18"/>
<text text-anchor="middle" x="1469" y="-99.8" font-family="Times,serif" font-size="14.00">UserProfileEntityService</text>
</g>
<!-- UserProfileEntityService&#45;&gt;UserProfilesModule -->
<g id="edge12" class="edge">
<title>UserProfileEntityService&#45;&gt;UserProfilesModule</title>
<path fill="none" stroke="black" d="M1469,-122.03C1469,-139.06 1469,-162 1469,-162 1469,-162 1146.67,-162 1146.67,-162"/>
<polygon fill="black" stroke="black" points="1146.67,-158.5 1136.67,-162 1146.67,-165.5 1146.67,-158.5"/>
</g>
<!-- UserProfilesService -->
<g id="node14" class="node">
<title>UserProfilesService</title>
<ellipse fill="#fdb462" stroke="black" cx="1255" cy="-104" rx="88.01" ry="18"/>
<text text-anchor="middle" x="1255" y="-99.8" font-family="Times,serif" font-size="14.00">UserProfilesService</text>
</g>
<!-- UserProfilesService&#45;&gt;UserProfilesModule -->
<g id="edge13" class="edge">
<title>UserProfilesService&#45;&gt;UserProfilesModule</title>
<path fill="none" stroke="black" d="M1255,-122.24C1255,-137.57 1255,-157 1255,-157 1255,-157 1146.78,-157 1146.78,-157"/>
<polygon fill="black" stroke="black" points="1146.78,-153.5 1136.78,-157 1146.78,-160.5 1146.78,-153.5"/>
</g>
</g>
</svg>
