<?xml version="1.0" encoding="UTF-8" standalone="no"?>
<!DOCTYPE svg PUBLIC "-//W3C//DTD SVG 1.1//EN"
 "http://www.w3.org/Graphics/SVG/1.1/DTD/svg11.dtd">
<!-- Generated by graphviz version 2.46.0 (20210119.1425)
 -->
<!-- Title: dependencies Pages: 1 -->
<svg width="1318pt" height="211pt"
 viewBox="0.00 0.00 1318.00 211.00" xmlns="http://www.w3.org/2000/svg" xmlns:xlink="http://www.w3.org/1999/xlink">
<g id="graph0" class="graph" transform="scale(1 1) rotate(0) translate(4 207)">
<title>dependencies</title>
<polygon fill="white" stroke="transparent" points="-4,4 -4,-207 1314,-207 1314,4 -4,4"/>
<text text-anchor="start" x="634.01" y="-42.4" font-family="sans-serif" font-weight="bold" font-size="14.00">Legend</text>
<polygon fill="#ffffb3" stroke="transparent" points="421,-10 421,-30 441,-30 441,-10 421,-10"/>
<text text-anchor="start" x="444.63" y="-15.4" font-family="sans-serif" font-size="14.00"> &#160;Declarations</text>
<polygon fill="#8dd3c7" stroke="transparent" points="534,-10 534,-30 554,-30 554,-10 534,-10"/>
<text text-anchor="start" x="557.73" y="-15.4" font-family="sans-serif" font-size="14.00"> &#160;Module</text>
<polygon fill="#80b1d3" stroke="transparent" points="620,-10 620,-30 640,-30 640,-10 620,-10"/>
<text text-anchor="start" x="643.78" y="-15.4" font-family="sans-serif" font-size="14.00"> &#160;Bootstrap</text>
<polygon fill="#fdb462" stroke="transparent" points="717,-10 717,-30 737,-30 737,-10 717,-10"/>
<text text-anchor="start" x="740.67" y="-15.4" font-family="sans-serif" font-size="14.00"> &#160;Providers</text>
<polygon fill="#fb8072" stroke="transparent" points="813,-10 813,-30 833,-30 833,-10 813,-10"/>
<text text-anchor="start" x="836.73" y="-15.4" font-family="sans-serif" font-size="14.00"> &#160;Exports</text>
<g id="clust1" class="cluster">
<title>cluster_CoreModule</title>
<polygon fill="none" stroke="black" stroke-dasharray="1,5" points="8,-70 8,-195 1302,-195 1302,-70 8,-70"/>
</g>
<g id="clust2" class="cluster">
<title>cluster_CoreModule_declarations</title>
<polygon fill="none" stroke="black" points="421,-78 421,-130 1294,-130 1294,-78 421,-78"/>
</g>
<g id="clust9" class="cluster">
<title>cluster_CoreModule_imports</title>
<polygon fill="none" stroke="black" points="174,-78 174,-130 413,-130 413,-78 174,-78"/>
</g>
<g id="clust12" class="cluster">
<title>cluster_CoreModule_providers</title>
<polygon fill="none" stroke="black" points="16,-78 16,-130 166,-130 166,-78 16,-78"/>
</g>
<!-- ConfigComponent -->
<g id="node1" class="node">
<title>ConfigComponent</title>
<polygon fill="#ffffb3" stroke="black" points="1286.22,-122 1165.78,-122 1165.78,-86 1286.22,-86 1286.22,-122"/>
<text text-anchor="middle" x="1226" y="-99.8" font-family="Times,serif" font-size="14.00">ConfigComponent</text>
</g>
<!-- CoreModule -->
<g id="node7" class="node">
<title>CoreModule</title>
<polygon fill="#8dd3c7" stroke="black" points="677.26,-187 674.26,-191 653.26,-191 650.26,-187 590.74,-187 590.74,-151 677.26,-151 677.26,-187"/>
<text text-anchor="middle" x="634" y="-164.8" font-family="Times,serif" font-size="14.00">CoreModule</text>
</g>
<!-- ConfigComponent&#45;&gt;CoreModule -->
<g id="edge1" class="edge">
<title>ConfigComponent&#45;&gt;CoreModule</title>
<path fill="none" stroke="black" d="M1226,-122.01C1226,-144.49 1226,-180 1226,-180 1226,-180 687.53,-180 687.53,-180"/>
<polygon fill="black" stroke="black" points="687.53,-176.5 677.53,-180 687.53,-183.5 687.53,-176.5"/>
</g>
<!-- ConfigurationComponent -->
<g id="node2" class="node">
<title>ConfigurationComponent</title>
<polygon fill="#ffffb3" stroke="black" points="1147.88,-122 988.12,-122 988.12,-86 1147.88,-86 1147.88,-122"/>
<text text-anchor="middle" x="1068" y="-99.8" font-family="Times,serif" font-size="14.00">ConfigurationComponent</text>
</g>
<!-- ConfigurationComponent&#45;&gt;CoreModule -->
<g id="edge2" class="edge">
<title>ConfigurationComponent&#45;&gt;CoreModule</title>
<path fill="none" stroke="black" d="M1068,-122.13C1068,-142.57 1068,-173 1068,-173 1068,-173 687.6,-173 687.6,-173"/>
<polygon fill="black" stroke="black" points="687.6,-169.5 677.6,-173 687.6,-176.5 687.6,-169.5"/>
</g>
<!-- FooterComponent -->
<g id="node3" class="node">
<title>FooterComponent</title>
<polygon fill="#ffffb3" stroke="black" points="969.88,-122 852.12,-122 852.12,-86 969.88,-86 969.88,-122"/>
<text text-anchor="middle" x="911" y="-99.8" font-family="Times,serif" font-size="14.00">FooterComponent</text>
</g>
<!-- FooterComponent&#45;&gt;CoreModule -->
<g id="edge3" class="edge">
<title>FooterComponent&#45;&gt;CoreModule</title>
<path fill="none" stroke="black" d="M911,-122.27C911,-140.56 911,-166 911,-166 911,-166 687.28,-166 687.28,-166"/>
<polygon fill="black" stroke="black" points="687.28,-162.5 677.28,-166 687.28,-169.5 687.28,-162.5"/>
</g>
<!-- HeaderComponent -->
<g id="node4" class="node">
<title>HeaderComponent</title>
<polygon fill="#ffffb3" stroke="black" points="833.74,-122 712.26,-122 712.26,-86 833.74,-86 833.74,-122"/>
<text text-anchor="middle" x="773" y="-99.8" font-family="Times,serif" font-size="14.00">HeaderComponent</text>
</g>
<!-- HeaderComponent&#45;&gt;CoreModule -->
<g id="edge4" class="edge">
<title>HeaderComponent&#45;&gt;CoreModule</title>
<path fill="none" stroke="black" d="M773,-122.01C773,-138.05 773,-159 773,-159 773,-159 687.6,-159 687.6,-159"/>
<polygon fill="black" stroke="black" points="687.6,-155.5 677.6,-159 687.6,-162.5 687.6,-155.5"/>
</g>
<!-- LayoutComponent -->
<g id="node5" class="node">
<title>LayoutComponent</title>
<polygon fill="#ffffb3" stroke="black" points="694.49,-122 573.51,-122 573.51,-86 694.49,-86 694.49,-122"/>
<text text-anchor="middle" x="634" y="-99.8" font-family="Times,serif" font-size="14.00">LayoutComponent</text>
</g>
<!-- LayoutComponent&#45;&gt;CoreModule -->
<g id="edge5" class="edge">
<title>LayoutComponent&#45;&gt;CoreModule</title>
<path fill="none" stroke="black" d="M634,-122.11C634,-122.11 634,-140.99 634,-140.99"/>
<polygon fill="black" stroke="black" points="630.5,-140.99 634,-150.99 637.5,-140.99 630.5,-140.99"/>
</g>
<!-- SidenavComponent -->
<g id="node6" class="node">
<title>SidenavComponent</title>
<polygon fill="#ffffb3" stroke="black" points="555.44,-122 428.56,-122 428.56,-86 555.44,-86 555.44,-122"/>
<text text-anchor="middle" x="492" y="-99.8" font-family="Times,serif" font-size="14.00">SidenavComponent</text>
</g>
<!-- SidenavComponent&#45;&gt;CoreModule -->
<g id="edge6" class="edge">
<title>SidenavComponent&#45;&gt;CoreModule</title>
<path fill="none" stroke="black" d="M492,-122.01C492,-138.05 492,-159 492,-159 492,-159 580.62,-159 580.62,-159"/>
<polygon fill="black" stroke="black" points="580.62,-162.5 590.62,-159 580.62,-155.5 580.62,-162.5"/>
</g>
<!-- MaterialModule -->
<g id="node8" class="node">
<title>MaterialModule</title>
<polygon fill="#8dd3c7" stroke="black" points="405.47,-122 402.47,-126 381.47,-126 378.47,-122 298.53,-122 298.53,-86 405.47,-86 405.47,-122"/>
<text text-anchor="middle" x="352" y="-99.8" font-family="Times,serif" font-size="14.00">MaterialModule</text>
</g>
<!-- MaterialModule&#45;&gt;CoreModule -->
<g id="edge7" class="edge">
<title>MaterialModule&#45;&gt;CoreModule</title>
<path fill="none" stroke="black" d="M352,-122.27C352,-140.56 352,-166 352,-166 352,-166 580.56,-166 580.56,-166"/>
<polygon fill="black" stroke="black" points="580.56,-169.5 590.56,-166 580.56,-162.5 580.56,-169.5"/>
</g>
<!-- SharedModule -->
<g id="node9" class="node">
<title>SharedModule</title>
<polygon fill="#8dd3c7" stroke="black" points="280.42,-122 277.42,-126 256.42,-126 253.42,-122 181.58,-122 181.58,-86 280.42,-86 280.42,-122"/>
<text text-anchor="middle" x="231" y="-99.8" font-family="Times,serif" font-size="14.00">SharedModule</text>
</g>
<!-- SharedModule&#45;&gt;CoreModule -->
<g id="edge8" class="edge">
<title>SharedModule&#45;&gt;CoreModule</title>
<path fill="none" stroke="black" d="M231,-122.13C231,-142.57 231,-173 231,-173 231,-173 580.49,-173 580.49,-173"/>
<polygon fill="black" stroke="black" points="580.49,-176.5 590.49,-173 580.49,-169.5 580.49,-176.5"/>
</g>
<!-- LayoutService -->
<g id="node10" class="node">
<title>LayoutService</title>
<ellipse fill="#fdb462" stroke="black" cx="91" cy="-104" rx="67.19" ry="18"/>
<text text-anchor="middle" x="91" y="-99.8" font-family="Times,serif" font-size="14.00">LayoutService</text>
</g>
<!-- LayoutService&#45;&gt;CoreModule -->
<g id="edge9" class="edge">
<title>LayoutService&#45;&gt;CoreModule</title>
<path fill="none" stroke="black" d="M91,-122.01C91,-144.49 91,-180 91,-180 91,-180 580.48,-180 580.48,-180"/>
<polygon fill="black" stroke="black" points="580.48,-183.5 590.48,-180 580.48,-176.5 580.48,-183.5"/>
</g>
</g>
</svg>
