<?xml version="1.0" encoding="UTF-8" standalone="no"?>
<!DOCTYPE svg PUBLIC "-//W3C//DTD SVG 1.1//EN"
 "http://www.w3.org/Graphics/SVG/1.1/DTD/svg11.dtd">
<!-- Generated by graphviz version 2.46.0 (20210119.1425)
 -->
<!-- Title: dependencies Pages: 1 -->
<svg width="1140pt" height="211pt"
 viewBox="0.00 0.00 1140.00 211.00" xmlns="http://www.w3.org/2000/svg" xmlns:xlink="http://www.w3.org/1999/xlink">
<g id="graph0" class="graph" transform="scale(1 1) rotate(0) translate(4 207)">
<title>dependencies</title>
<polygon fill="white" stroke="transparent" points="-4,4 -4,-207 1136,-207 1136,4 -4,4"/>
<text text-anchor="start" x="545.01" y="-42.4" font-family="sans-serif" font-weight="bold" font-size="14.00">Legend</text>
<polygon fill="#ffffb3" stroke="transparent" points="332,-10 332,-30 352,-30 352,-10 332,-10"/>
<text text-anchor="start" x="355.63" y="-15.4" font-family="sans-serif" font-size="14.00"> &#160;Declarations</text>
<polygon fill="#8dd3c7" stroke="transparent" points="445,-10 445,-30 465,-30 465,-10 445,-10"/>
<text text-anchor="start" x="468.73" y="-15.4" font-family="sans-serif" font-size="14.00"> &#160;Module</text>
<polygon fill="#80b1d3" stroke="transparent" points="531,-10 531,-30 551,-30 551,-10 531,-10"/>
<text text-anchor="start" x="554.78" y="-15.4" font-family="sans-serif" font-size="14.00"> &#160;Bootstrap</text>
<polygon fill="#fdb462" stroke="transparent" points="628,-10 628,-30 648,-30 648,-10 628,-10"/>
<text text-anchor="start" x="651.67" y="-15.4" font-family="sans-serif" font-size="14.00"> &#160;Providers</text>
<polygon fill="#fb8072" stroke="transparent" points="724,-10 724,-30 744,-30 744,-10 724,-10"/>
<text text-anchor="start" x="747.73" y="-15.4" font-family="sans-serif" font-size="14.00"> &#160;Exports</text>
<g id="clust1" class="cluster">
<title>cluster_CoreModule</title>
<polygon fill="none" stroke="black" stroke-dasharray="1,5" points="8,-70 8,-195 1124,-195 1124,-70 8,-70"/>
</g>
<g id="clust2" class="cluster">
<title>cluster_CoreModule_declarations</title>
<polygon fill="none" stroke="black" points="421,-78 421,-130 1116,-130 1116,-78 421,-78"/>
</g>
<g id="clust8" class="cluster">
<title>cluster_CoreModule_imports</title>
<polygon fill="none" stroke="black" points="174,-78 174,-130 413,-130 413,-78 174,-78"/>
</g>
<g id="clust11" class="cluster">
<title>cluster_CoreModule_providers</title>
<polygon fill="none" stroke="black" points="16,-78 16,-130 166,-130 166,-78 16,-78"/>
</g>
<!-- ConfigComponent -->
<g id="node1" class="node">
<title>ConfigComponent</title>
<polygon fill="#ffffb3" stroke="black" points="1108.22,-122 987.78,-122 987.78,-86 1108.22,-86 1108.22,-122"/>
<text text-anchor="middle" x="1048" y="-99.8" font-family="Times,serif" font-size="14.00">ConfigComponent</text>
</g>
<!-- CoreModule -->
<g id="node6" class="node">
<title>CoreModule</title>
<polygon fill="#8dd3c7" stroke="black" points="606.26,-187 603.26,-191 582.26,-191 579.26,-187 519.74,-187 519.74,-151 606.26,-151 606.26,-187"/>
<text text-anchor="middle" x="563" y="-164.8" font-family="Times,serif" font-size="14.00">CoreModule</text>
</g>
<!-- ConfigComponent&#45;&gt;CoreModule -->
<g id="edge1" class="edge">
<title>ConfigComponent&#45;&gt;CoreModule</title>
<path fill="none" stroke="black" d="M1048,-122.29C1048,-144.21 1048,-178 1048,-178 1048,-178 616.47,-178 616.47,-178"/>
<polygon fill="black" stroke="black" points="616.47,-174.5 606.47,-178 616.47,-181.5 616.47,-174.5"/>
</g>
<!-- FooterComponent -->
<g id="node2" class="node">
<title>FooterComponent</title>
<polygon fill="#ffffb3" stroke="black" points="969.88,-122 852.12,-122 852.12,-86 969.88,-86 969.88,-122"/>
<text text-anchor="middle" x="911" y="-99.8" font-family="Times,serif" font-size="14.00">FooterComponent</text>
</g>
<!-- FooterComponent&#45;&gt;CoreModule -->
<g id="edge2" class="edge">
<title>FooterComponent&#45;&gt;CoreModule</title>
<path fill="none" stroke="black" d="M911,-122.11C911,-141.34 911,-169 911,-169 911,-169 616.37,-169 616.37,-169"/>
<polygon fill="black" stroke="black" points="616.37,-165.5 606.37,-169 616.37,-172.5 616.37,-165.5"/>
</g>
<!-- HeaderComponent -->
<g id="node3" class="node">
<title>HeaderComponent</title>
<polygon fill="#ffffb3" stroke="black" points="833.74,-122 712.26,-122 712.26,-86 833.74,-86 833.74,-122"/>
<text text-anchor="middle" x="773" y="-99.8" font-family="Times,serif" font-size="14.00">HeaderComponent</text>
</g>
<!-- HeaderComponent&#45;&gt;CoreModule -->
<g id="edge3" class="edge">
<title>HeaderComponent&#45;&gt;CoreModule</title>
<path fill="none" stroke="black" d="M773,-122.03C773,-138.4 773,-160 773,-160 773,-160 616.51,-160 616.51,-160"/>
<polygon fill="black" stroke="black" points="616.51,-156.5 606.51,-160 616.51,-163.5 616.51,-156.5"/>
</g>
<!-- LayoutComponent -->
<g id="node4" class="node">
<title>LayoutComponent</title>
<polygon fill="#ffffb3" stroke="black" points="694.49,-122 573.51,-122 573.51,-86 694.49,-86 694.49,-122"/>
<text text-anchor="middle" x="634" y="-99.8" font-family="Times,serif" font-size="14.00">LayoutComponent</text>
</g>
<!-- LayoutComponent&#45;&gt;CoreModule -->
<g id="edge4" class="edge">
<title>LayoutComponent&#45;&gt;CoreModule</title>
<path fill="none" stroke="black" d="M589.94,-122.11C589.94,-122.11 589.94,-140.99 589.94,-140.99"/>
<polygon fill="black" stroke="black" points="586.44,-140.99 589.94,-150.99 593.44,-140.99 586.44,-140.99"/>
</g>
<!-- SidenavComponent -->
<g id="node5" class="node">
<title>SidenavComponent</title>
<polygon fill="#ffffb3" stroke="black" points="555.44,-122 428.56,-122 428.56,-86 555.44,-86 555.44,-122"/>
<text text-anchor="middle" x="492" y="-99.8" font-family="Times,serif" font-size="14.00">SidenavComponent</text>
</g>
<!-- SidenavComponent&#45;&gt;CoreModule -->
<g id="edge5" class="edge">
<title>SidenavComponent&#45;&gt;CoreModule</title>
<path fill="none" stroke="black" d="M537.42,-122.11C537.42,-122.11 537.42,-140.99 537.42,-140.99"/>
<polygon fill="black" stroke="black" points="533.92,-140.99 537.42,-150.99 540.92,-140.99 533.92,-140.99"/>
</g>
<!-- MaterialModule -->
<g id="node7" class="node">
<title>MaterialModule</title>
<polygon fill="#8dd3c7" stroke="black" points="405.47,-122 402.47,-126 381.47,-126 378.47,-122 298.53,-122 298.53,-86 405.47,-86 405.47,-122"/>
<text text-anchor="middle" x="352" y="-99.8" font-family="Times,serif" font-size="14.00">MaterialModule</text>
</g>
<!-- MaterialModule&#45;&gt;CoreModule -->
<g id="edge6" class="edge">
<title>MaterialModule&#45;&gt;CoreModule</title>
<path fill="none" stroke="black" d="M352,-122.03C352,-138.4 352,-160 352,-160 352,-160 509.54,-160 509.54,-160"/>
<polygon fill="black" stroke="black" points="509.54,-163.5 519.54,-160 509.54,-156.5 509.54,-163.5"/>
</g>
<!-- SharedModule -->
<g id="node8" class="node">
<title>SharedModule</title>
<polygon fill="#8dd3c7" stroke="black" points="280.42,-122 277.42,-126 256.42,-126 253.42,-122 181.58,-122 181.58,-86 280.42,-86 280.42,-122"/>
<text text-anchor="middle" x="231" y="-99.8" font-family="Times,serif" font-size="14.00">SharedModule</text>
</g>
<!-- SharedModule&#45;&gt;CoreModule -->
<g id="edge7" class="edge">
<title>SharedModule&#45;&gt;CoreModule</title>
<path fill="none" stroke="black" d="M231,-122.11C231,-141.34 231,-169 231,-169 231,-169 509.6,-169 509.6,-169"/>
<polygon fill="black" stroke="black" points="509.6,-172.5 519.6,-169 509.6,-165.5 509.6,-172.5"/>
</g>
<!-- LayoutService -->
<g id="node9" class="node">
<title>LayoutService</title>
<ellipse fill="#fdb462" stroke="black" cx="91" cy="-104" rx="67.19" ry="18"/>
<text text-anchor="middle" x="91" y="-99.8" font-family="Times,serif" font-size="14.00">LayoutService</text>
</g>
<!-- LayoutService&#45;&gt;CoreModule -->
<g id="edge8" class="edge">
<title>LayoutService&#45;&gt;CoreModule</title>
<path fill="none" stroke="black" d="M91,-122.29C91,-144.21 91,-178 91,-178 91,-178 509.44,-178 509.44,-178"/>
<polygon fill="black" stroke="black" points="509.44,-181.5 519.44,-178 509.44,-174.5 509.44,-181.5"/>
</g>
</g>
</svg>
