<?xml version="1.0" encoding="UTF-8" standalone="no"?>
<!DOCTYPE svg PUBLIC "-//W3C//DTD SVG 1.1//EN"
 "http://www.w3.org/Graphics/SVG/1.1/DTD/svg11.dtd">
<!-- Generated by graphviz version 2.44.1 (20200629.0846)
 -->
<!-- Title: dependencies Pages: 1 -->
<svg width="1453pt" height="211pt"
 viewBox="0.00 0.00 1453.00 211.00" xmlns="http://www.w3.org/2000/svg" xmlns:xlink="http://www.w3.org/1999/xlink">
<g id="graph0" class="graph" transform="scale(1 1) rotate(0) translate(4 207)">
<title>dependencies</title>
<polygon fill="white" stroke="transparent" points="-4,4 -4,-207 1449,-207 1449,4 -4,4"/>
<text text-anchor="start" x="701.51" y="-42.4" font-family="sans-serif" font-weight="bold" font-size="14.00">Legend</text>
<polygon fill="#ffffb3" stroke="transparent" points="488.5,-10 488.5,-30 508.5,-30 508.5,-10 488.5,-10"/>
<text text-anchor="start" x="512.13" y="-15.4" font-family="sans-serif" font-size="14.00"> &#160;Declarations</text>
<polygon fill="#8dd3c7" stroke="transparent" points="601.5,-10 601.5,-30 621.5,-30 621.5,-10 601.5,-10"/>
<text text-anchor="start" x="625.23" y="-15.4" font-family="sans-serif" font-size="14.00"> &#160;Module</text>
<polygon fill="#80b1d3" stroke="transparent" points="687.5,-10 687.5,-30 707.5,-30 707.5,-10 687.5,-10"/>
<text text-anchor="start" x="711.28" y="-15.4" font-family="sans-serif" font-size="14.00"> &#160;Bootstrap</text>
<polygon fill="#fdb462" stroke="transparent" points="784.5,-10 784.5,-30 804.5,-30 804.5,-10 784.5,-10"/>
<text text-anchor="start" x="808.17" y="-15.4" font-family="sans-serif" font-size="14.00"> &#160;Providers</text>
<polygon fill="#fb8072" stroke="transparent" points="880.5,-10 880.5,-30 900.5,-30 900.5,-10 880.5,-10"/>
<text text-anchor="start" x="904.23" y="-15.4" font-family="sans-serif" font-size="14.00"> &#160;Exports</text>
<g id="clust1" class="cluster">
<title>cluster_CoreModule</title>
<polygon fill="none" stroke="black" stroke-dasharray="1,5" points="8,-70 8,-195 1437,-195 1437,-70 8,-70"/>
</g>
<g id="clust2" class="cluster">
<title>cluster_CoreModule_declarations</title>
<polygon fill="none" stroke="black" points="421,-78 421,-130 1429,-130 1429,-78 421,-78"/>
</g>
<g id="clust10" class="cluster">
<title>cluster_CoreModule_imports</title>
<polygon fill="none" stroke="black" points="174,-78 174,-130 413,-130 413,-78 174,-78"/>
</g>
<g id="clust13" class="cluster">
<title>cluster_CoreModule_providers</title>
<polygon fill="none" stroke="black" points="16,-78 16,-130 166,-130 166,-78 16,-78"/>
</g>
<!-- DashboardComponent -->
<g id="node1" class="node">
<title>DashboardComponent</title>
<polygon fill="#ffffb3" stroke="black" points="1420.97,-122 1279.03,-122 1279.03,-86 1420.97,-86 1420.97,-122"/>
<text text-anchor="middle" x="1350" y="-99.8" font-family="Times,serif" font-size="14.00">DashboardComponent</text>
</g>
<!-- CoreModule -->
<g id="node8" class="node">
<title>CoreModule</title>
<polygon fill="#8dd3c7" stroke="black" points="763.26,-187 760.26,-191 739.26,-191 736.26,-187 676.74,-187 676.74,-151 763.26,-151 763.26,-187"/>
<text text-anchor="middle" x="720" y="-164.8" font-family="Times,serif" font-size="14.00">CoreModule</text>
</g>
<!-- DashboardComponent&#45;&gt;CoreModule -->
<g id="edge1" class="edge">
<title>DashboardComponent&#45;&gt;CoreModule</title>
<path fill="none" stroke="black" d="M1350,-122.01C1350,-144.49 1350,-180 1350,-180 1350,-180 773.3,-180 773.3,-180"/>
<polygon fill="black" stroke="black" points="773.3,-176.5 763.3,-180 773.3,-183.5 773.3,-176.5"/>
</g>
<!-- FooterComponent -->
<g id="node2" class="node">
<title>FooterComponent</title>
<polygon fill="#ffffb3" stroke="black" points="1260.88,-122 1143.12,-122 1143.12,-86 1260.88,-86 1260.88,-122"/>
<text text-anchor="middle" x="1202" y="-99.8" font-family="Times,serif" font-size="14.00">FooterComponent</text>
</g>
<!-- FooterComponent&#45;&gt;CoreModule -->
<g id="edge2" class="edge">
<title>FooterComponent&#45;&gt;CoreModule</title>
<path fill="none" stroke="black" d="M1202,-122.13C1202,-142.57 1202,-173 1202,-173 1202,-173 773.62,-173 773.62,-173"/>
<polygon fill="black" stroke="black" points="773.62,-169.5 763.62,-173 773.62,-176.5 773.62,-169.5"/>
</g>
<!-- HeaderComponent -->
<g id="node3" class="node">
<title>HeaderComponent</title>
<polygon fill="#ffffb3" stroke="black" points="1124.74,-122 1003.26,-122 1003.26,-86 1124.74,-86 1124.74,-122"/>
<text text-anchor="middle" x="1064" y="-99.8" font-family="Times,serif" font-size="14.00">HeaderComponent</text>
</g>
<!-- HeaderComponent&#45;&gt;CoreModule -->
<g id="edge3" class="edge">
<title>HeaderComponent&#45;&gt;CoreModule</title>
<path fill="none" stroke="black" d="M1064,-122.27C1064,-140.56 1064,-166 1064,-166 1064,-166 773.57,-166 773.57,-166"/>
<polygon fill="black" stroke="black" points="773.57,-162.5 763.57,-166 773.57,-169.5 773.57,-162.5"/>
</g>
<!-- HomeComponent -->
<g id="node4" class="node">
<title>HomeComponent</title>
<polygon fill="#ffffb3" stroke="black" points="984.55,-122 869.45,-122 869.45,-86 984.55,-86 984.55,-122"/>
<text text-anchor="middle" x="927" y="-99.8" font-family="Times,serif" font-size="14.00">HomeComponent</text>
</g>
<!-- HomeComponent&#45;&gt;CoreModule -->
<g id="edge4" class="edge">
<title>HomeComponent&#45;&gt;CoreModule</title>
<path fill="none" stroke="black" d="M927,-122.01C927,-138.05 927,-159 927,-159 927,-159 773.39,-159 773.39,-159"/>
<polygon fill="black" stroke="black" points="773.39,-155.5 763.39,-159 773.39,-162.5 773.39,-155.5"/>
</g>
<!-- LayoutComponent -->
<g id="node5" class="node">
<title>LayoutComponent</title>
<polygon fill="#ffffb3" stroke="black" points="851.49,-122 730.51,-122 730.51,-86 851.49,-86 851.49,-122"/>
<text text-anchor="middle" x="791" y="-99.8" font-family="Times,serif" font-size="14.00">LayoutComponent</text>
</g>
<!-- LayoutComponent&#45;&gt;CoreModule -->
<g id="edge5" class="edge">
<title>LayoutComponent&#45;&gt;CoreModule</title>
<path fill="none" stroke="black" d="M746.94,-122.11C746.94,-122.11 746.94,-140.99 746.94,-140.99"/>
<polygon fill="black" stroke="black" points="743.44,-140.99 746.94,-150.99 750.44,-140.99 743.44,-140.99"/>
</g>
<!-- SidenavComponent -->
<g id="node6" class="node">
<title>SidenavComponent</title>
<polygon fill="#ffffb3" stroke="black" points="712.44,-122 585.56,-122 585.56,-86 712.44,-86 712.44,-122"/>
<text text-anchor="middle" x="649" y="-99.8" font-family="Times,serif" font-size="14.00">SidenavComponent</text>
</g>
<!-- SidenavComponent&#45;&gt;CoreModule -->
<g id="edge6" class="edge">
<title>SidenavComponent&#45;&gt;CoreModule</title>
<path fill="none" stroke="black" d="M694.42,-122.11C694.42,-122.11 694.42,-140.99 694.42,-140.99"/>
<polygon fill="black" stroke="black" points="690.92,-140.99 694.42,-150.99 697.92,-140.99 690.92,-140.99"/>
</g>
<!-- WellcomeComponent -->
<g id="node7" class="node">
<title>WellcomeComponent</title>
<polygon fill="#ffffb3" stroke="black" points="567.36,-122 428.64,-122 428.64,-86 567.36,-86 567.36,-122"/>
<text text-anchor="middle" x="498" y="-99.8" font-family="Times,serif" font-size="14.00">WellcomeComponent</text>
</g>
<!-- WellcomeComponent&#45;&gt;CoreModule -->
<g id="edge7" class="edge">
<title>WellcomeComponent&#45;&gt;CoreModule</title>
<path fill="none" stroke="black" d="M498,-122.01C498,-138.05 498,-159 498,-159 498,-159 666.67,-159 666.67,-159"/>
<polygon fill="black" stroke="black" points="666.67,-162.5 676.67,-159 666.67,-155.5 666.67,-162.5"/>
</g>
<!-- MaterialModule -->
<g id="node9" class="node">
<title>MaterialModule</title>
<polygon fill="#8dd3c7" stroke="black" points="405.47,-122 402.47,-126 381.47,-126 378.47,-122 298.53,-122 298.53,-86 405.47,-86 405.47,-122"/>
<text text-anchor="middle" x="352" y="-99.8" font-family="Times,serif" font-size="14.00">MaterialModule</text>
</g>
<!-- MaterialModule&#45;&gt;CoreModule -->
<g id="edge8" class="edge">
<title>MaterialModule&#45;&gt;CoreModule</title>
<path fill="none" stroke="black" d="M352,-122.27C352,-140.56 352,-166 352,-166 352,-166 666.7,-166 666.7,-166"/>
<polygon fill="black" stroke="black" points="666.7,-169.5 676.7,-166 666.7,-162.5 666.7,-169.5"/>
</g>
<!-- SharedModule -->
<g id="node10" class="node">
<title>SharedModule</title>
<polygon fill="#8dd3c7" stroke="black" points="280.42,-122 277.42,-126 256.42,-126 253.42,-122 181.58,-122 181.58,-86 280.42,-86 280.42,-122"/>
<text text-anchor="middle" x="231" y="-99.8" font-family="Times,serif" font-size="14.00">SharedModule</text>
</g>
<!-- SharedModule&#45;&gt;CoreModule -->
<g id="edge9" class="edge">
<title>SharedModule&#45;&gt;CoreModule</title>
<path fill="none" stroke="black" d="M231,-122.13C231,-142.57 231,-173 231,-173 231,-173 666.6,-173 666.6,-173"/>
<polygon fill="black" stroke="black" points="666.6,-176.5 676.6,-173 666.6,-169.5 666.6,-176.5"/>
</g>
<!-- LayoutService -->
<g id="node11" class="node">
<title>LayoutService</title>
<ellipse fill="#fdb462" stroke="black" cx="91" cy="-104" rx="67.19" ry="18"/>
<text text-anchor="middle" x="91" y="-99.8" font-family="Times,serif" font-size="14.00">LayoutService</text>
</g>
<!-- LayoutService&#45;&gt;CoreModule -->
<g id="edge10" class="edge">
<title>LayoutService&#45;&gt;CoreModule</title>
<path fill="none" stroke="black" d="M91,-122.01C91,-144.49 91,-180 91,-180 91,-180 666.27,-180 666.27,-180"/>
<polygon fill="black" stroke="black" points="666.27,-183.5 676.27,-180 666.27,-176.5 666.27,-183.5"/>
</g>
</g>
</svg>
