<?xml version="1.0" encoding="UTF-8" standalone="no"?>
<!DOCTYPE svg PUBLIC "-//W3C//DTD SVG 1.1//EN"
 "http://www.w3.org/Graphics/SVG/1.1/DTD/svg11.dtd">
<!-- Generated by graphviz version 2.47.0 (20210316.0004)
 -->
<!-- Title: dependencies Pages: 1 -->
<svg width="1471pt" height="284pt"
 viewBox="0.00 0.00 1471.00 284.00" xmlns="http://www.w3.org/2000/svg" xmlns:xlink="http://www.w3.org/1999/xlink">
<g id="graph0" class="graph" transform="scale(1 1) rotate(0) translate(4 280)">
<title>dependencies</title>
<polygon fill="white" stroke="transparent" points="-4,4 -4,-280 1467,-280 1467,4 -4,4"/>
<text text-anchor="start" x="710.51" y="-42.4" font-family="sans-serif" font-weight="bold" font-size="14.00">Legend</text>
<polygon fill="#ffffb3" stroke="transparent" points="497.5,-10 497.5,-30 517.5,-30 517.5,-10 497.5,-10"/>
<text text-anchor="start" x="521.13" y="-15.4" font-family="sans-serif" font-size="14.00"> &#160;Declarations</text>
<polygon fill="#8dd3c7" stroke="transparent" points="610.5,-10 610.5,-30 630.5,-30 630.5,-10 610.5,-10"/>
<text text-anchor="start" x="634.23" y="-15.4" font-family="sans-serif" font-size="14.00"> &#160;Module</text>
<polygon fill="#80b1d3" stroke="transparent" points="696.5,-10 696.5,-30 716.5,-30 716.5,-10 696.5,-10"/>
<text text-anchor="start" x="720.28" y="-15.4" font-family="sans-serif" font-size="14.00"> &#160;Bootstrap</text>
<polygon fill="#fdb462" stroke="transparent" points="793.5,-10 793.5,-30 813.5,-30 813.5,-10 793.5,-10"/>
<text text-anchor="start" x="817.17" y="-15.4" font-family="sans-serif" font-size="14.00"> &#160;Providers</text>
<polygon fill="#fb8072" stroke="transparent" points="889.5,-10 889.5,-30 909.5,-30 909.5,-10 889.5,-10"/>
<text text-anchor="start" x="913.23" y="-15.4" font-family="sans-serif" font-size="14.00"> &#160;Exports</text>
<g id="clust1" class="cluster">
<title>cluster_CoreModule</title>
<polygon fill="none" stroke="black" stroke-dasharray="1,5" points="8,-70 8,-268 1455,-268 1455,-70 8,-70"/>
</g>
<g id="clust2" class="cluster">
<title>cluster_CoreModule_declarations</title>
<polygon fill="none" stroke="black" points="573,-78 573,-130 1447,-130 1447,-78 573,-78"/>
</g>
<g id="clust10" class="cluster">
<title>cluster_CoreModule_exports</title>
<polygon fill="none" stroke="black" points="333,-208 333,-260 1086,-260 1086,-208 333,-208"/>
</g>
<g id="clust9" class="cluster">
<title>cluster_CoreModule_imports</title>
<polygon fill="none" stroke="black" points="326,-78 326,-130 565,-130 565,-78 326,-78"/>
</g>
<g id="clust12" class="cluster">
<title>cluster_CoreModule_providers</title>
<polygon fill="none" stroke="black" points="16,-78 16,-130 318,-130 318,-78 16,-78"/>
</g>
<!-- FooterComponent -->
<g id="node1" class="node">
<title>FooterComponent</title>
<polygon fill="#ffffb3" stroke="black" points="1438.88,-122 1321.12,-122 1321.12,-86 1438.88,-86 1438.88,-122"/>
<text text-anchor="middle" x="1380" y="-99.8" font-family="Times,serif" font-size="14.00">FooterComponent</text>
</g>
<!-- CoreModule -->
<g id="node7" class="node">
<title>CoreModule</title>
<polygon fill="#8dd3c7" stroke="black" points="759.26,-187 756.26,-191 735.26,-191 732.26,-187 672.74,-187 672.74,-151 759.26,-151 759.26,-187"/>
<text text-anchor="middle" x="716" y="-164.8" font-family="Times,serif" font-size="14.00">CoreModule</text>
</g>
<!-- FooterComponent&#45;&gt;CoreModule -->
<g id="edge1" class="edge">
<title>FooterComponent&#45;&gt;CoreModule</title>
<path fill="none" stroke="black" d="M1380,-122.22C1380,-142.37 1380,-172 1380,-172 1380,-172 769.31,-172 769.31,-172"/>
<polygon fill="black" stroke="black" points="769.31,-168.5 759.31,-172 769.31,-175.5 769.31,-168.5"/>
</g>
<!-- HeaderComponent -->
<g id="node2" class="node">
<title>HeaderComponent</title>
<polygon fill="#ffffb3" stroke="black" points="1302.74,-122 1181.26,-122 1181.26,-86 1302.74,-86 1302.74,-122"/>
<text text-anchor="middle" x="1242" y="-99.8" font-family="Times,serif" font-size="14.00">HeaderComponent</text>
</g>
<!-- HeaderComponent&#45;&gt;CoreModule -->
<g id="edge2" class="edge">
<title>HeaderComponent&#45;&gt;CoreModule</title>
<path fill="none" stroke="black" d="M1242,-122.22C1242,-140.83 1242,-167 1242,-167 1242,-167 769.49,-167 769.49,-167"/>
<polygon fill="black" stroke="black" points="769.49,-163.5 759.49,-167 769.49,-170.5 769.49,-163.5"/>
</g>
<!-- LayoutComponent -->
<g id="node3" class="node">
<title>LayoutComponent</title>
<polygon fill="#ffffb3" stroke="black" points="1163.49,-122 1042.51,-122 1042.51,-86 1163.49,-86 1163.49,-122"/>
<text text-anchor="middle" x="1103" y="-99.8" font-family="Times,serif" font-size="14.00">LayoutComponent</text>
</g>
<!-- LayoutComponent&#45;&gt;CoreModule -->
<g id="edge3" class="edge">
<title>LayoutComponent&#45;&gt;CoreModule</title>
<path fill="none" stroke="black" d="M1060.1,-122.03C1060.1,-139.06 1060.1,-162 1060.1,-162 1060.1,-162 769.58,-162 769.58,-162"/>
<polygon fill="black" stroke="black" points="769.58,-158.5 759.58,-162 769.58,-165.5 769.58,-158.5"/>
</g>
<!-- MainContentComponent -->
<g id="node4" class="node">
<title>MainContentComponent</title>
<polygon fill="#ffffb3" stroke="black" points="1024.71,-122 869.29,-122 869.29,-86 1024.71,-86 1024.71,-122"/>
<text text-anchor="middle" x="947" y="-99.8" font-family="Times,serif" font-size="14.00">MainContentComponent</text>
</g>
<!-- MainContentComponent&#45;&gt;CoreModule -->
<g id="edge4" class="edge">
<title>MainContentComponent&#45;&gt;CoreModule</title>
<path fill="none" stroke="black" d="M904.01,-122.24C904.01,-137.57 904.01,-157 904.01,-157 904.01,-157 769.61,-157 769.61,-157"/>
<polygon fill="black" stroke="black" points="769.61,-153.5 759.61,-157 769.61,-160.5 769.61,-153.5"/>
</g>
<!-- SettingsComponent -->
<g id="node5" class="node">
<title>SettingsComponent</title>
<polygon fill="#ffffb3" stroke="black" points="851.45,-122 724.55,-122 724.55,-86 851.45,-86 851.45,-122"/>
<text text-anchor="middle" x="788" y="-99.8" font-family="Times,serif" font-size="14.00">SettingsComponent</text>
</g>
<!-- SettingsComponent&#45;&gt;CoreModule -->
<g id="edge5" class="edge">
<title>SettingsComponent&#45;&gt;CoreModule</title>
<path fill="none" stroke="black" d="M742.08,-122.11C742.08,-122.11 742.08,-140.99 742.08,-140.99"/>
<polygon fill="black" stroke="black" points="738.58,-140.99 742.08,-150.99 745.58,-140.99 738.58,-140.99"/>
</g>
<!-- SidenavComponent -->
<g id="node6" class="node">
<title>SidenavComponent</title>
<polygon fill="#ffffb3" stroke="black" points="707.44,-122 580.56,-122 580.56,-86 707.44,-86 707.44,-122"/>
<text text-anchor="middle" x="644" y="-99.8" font-family="Times,serif" font-size="14.00">SidenavComponent</text>
</g>
<!-- SidenavComponent&#45;&gt;CoreModule -->
<g id="edge6" class="edge">
<title>SidenavComponent&#45;&gt;CoreModule</title>
<path fill="none" stroke="black" d="M689.92,-122.11C689.92,-122.11 689.92,-140.99 689.92,-140.99"/>
<polygon fill="black" stroke="black" points="686.42,-140.99 689.92,-150.99 693.42,-140.99 686.42,-140.99"/>
</g>
<!-- FooterComponent  -->
<g id="node10" class="node">
<title>FooterComponent </title>
<polygon fill="#fb8072" stroke="black" points="1077.88,-252 956.12,-252 956.12,-216 1077.88,-216 1077.88,-252"/>
<text text-anchor="middle" x="1017" y="-229.8" font-family="Times,serif" font-size="14.00">FooterComponent </text>
</g>
<!-- CoreModule&#45;&gt;FooterComponent  -->
<g id="edge9" class="edge">
<title>CoreModule&#45;&gt;FooterComponent </title>
<path fill="none" stroke="black" stroke-dasharray="5,2" d="M759.49,-177C836.88,-177 990.46,-177 990.46,-177 990.46,-177 990.46,-205.96 990.46,-205.96"/>
<polygon fill="black" stroke="black" points="986.96,-205.96 990.46,-215.96 993.96,-205.96 986.96,-205.96"/>
</g>
<!-- HeaderComponent  -->
<g id="node11" class="node">
<title>HeaderComponent </title>
<polygon fill="#fb8072" stroke="black" points="938.74,-252 813.26,-252 813.26,-216 938.74,-216 938.74,-252"/>
<text text-anchor="middle" x="876" y="-229.8" font-family="Times,serif" font-size="14.00">HeaderComponent </text>
</g>
<!-- CoreModule&#45;&gt;HeaderComponent  -->
<g id="edge10" class="edge">
<title>CoreModule&#45;&gt;HeaderComponent </title>
<path fill="none" stroke="black" stroke-dasharray="5,2" d="M759.31,-182C792.37,-182 832.3,-182 832.3,-182 832.3,-182 832.3,-205.81 832.3,-205.81"/>
<polygon fill="black" stroke="black" points="828.8,-205.81 832.3,-215.81 835.8,-205.81 828.8,-205.81"/>
</g>
<!-- MainContentComponent  -->
<g id="node12" class="node">
<title>MainContentComponent </title>
<polygon fill="#fb8072" stroke="black" points="795.21,-252 636.79,-252 636.79,-216 795.21,-216 795.21,-252"/>
<text text-anchor="middle" x="716" y="-229.8" font-family="Times,serif" font-size="14.00">MainContentComponent </text>
</g>
<!-- CoreModule&#45;&gt;MainContentComponent  -->
<g id="edge11" class="edge">
<title>CoreModule&#45;&gt;MainContentComponent </title>
<path fill="none" stroke="black" stroke-dasharray="5,2" d="M716,-187.11C716,-187.11 716,-205.99 716,-205.99"/>
<polygon fill="black" stroke="black" points="712.5,-205.99 716,-215.99 719.5,-205.99 712.5,-205.99"/>
</g>
<!-- SettingsComponent  -->
<g id="node13" class="node">
<title>SettingsComponent </title>
<polygon fill="#fb8072" stroke="black" points="618.95,-252 489.05,-252 489.05,-216 618.95,-216 618.95,-252"/>
<text text-anchor="middle" x="554" y="-229.8" font-family="Times,serif" font-size="14.00">SettingsComponent </text>
</g>
<!-- CoreModule&#45;&gt;SettingsComponent  -->
<g id="edge12" class="edge">
<title>CoreModule&#45;&gt;SettingsComponent </title>
<path fill="none" stroke="black" stroke-dasharray="5,2" d="M672.43,-182C639.48,-182 599.88,-182 599.88,-182 599.88,-182 599.88,-205.81 599.88,-205.81"/>
<polygon fill="black" stroke="black" points="596.38,-205.81 599.88,-215.81 603.38,-205.81 596.38,-205.81"/>
</g>
<!-- SidenavComponent  -->
<g id="node14" class="node">
<title>SidenavComponent </title>
<polygon fill="#fb8072" stroke="black" points="470.93,-252 341.07,-252 341.07,-216 470.93,-216 470.93,-252"/>
<text text-anchor="middle" x="406" y="-229.8" font-family="Times,serif" font-size="14.00">SidenavComponent </text>
</g>
<!-- CoreModule&#45;&gt;SidenavComponent  -->
<g id="edge13" class="edge">
<title>CoreModule&#45;&gt;SidenavComponent </title>
<path fill="none" stroke="black" stroke-dasharray="5,2" d="M672.7,-177C599.87,-177 460.74,-177 460.74,-177 460.74,-177 460.74,-205.96 460.74,-205.96"/>
<polygon fill="black" stroke="black" points="457.24,-205.96 460.74,-215.96 464.24,-205.96 457.24,-205.96"/>
</g>
<!-- MaterialModule -->
<g id="node8" class="node">
<title>MaterialModule</title>
<polygon fill="#8dd3c7" stroke="black" points="557.47,-122 554.47,-126 533.47,-126 530.47,-122 450.53,-122 450.53,-86 557.47,-86 557.47,-122"/>
<text text-anchor="middle" x="504" y="-99.8" font-family="Times,serif" font-size="14.00">MaterialModule</text>
</g>
<!-- MaterialModule&#45;&gt;CoreModule -->
<g id="edge7" class="edge">
<title>MaterialModule&#45;&gt;CoreModule</title>
<path fill="none" stroke="black" d="M523.26,-122.24C523.26,-137.57 523.26,-157 523.26,-157 523.26,-157 662.26,-157 662.26,-157"/>
<polygon fill="black" stroke="black" points="662.26,-160.5 672.26,-157 662.26,-153.5 662.26,-160.5"/>
</g>
<!-- SharedModule -->
<g id="node9" class="node">
<title>SharedModule</title>
<polygon fill="#8dd3c7" stroke="black" points="432.42,-122 429.42,-126 408.42,-126 405.42,-122 333.58,-122 333.58,-86 432.42,-86 432.42,-122"/>
<text text-anchor="middle" x="383" y="-99.8" font-family="Times,serif" font-size="14.00">SharedModule</text>
</g>
<!-- SharedModule&#45;&gt;CoreModule -->
<g id="edge8" class="edge">
<title>SharedModule&#45;&gt;CoreModule</title>
<path fill="none" stroke="black" d="M386.62,-122.03C386.62,-139.06 386.62,-162 386.62,-162 386.62,-162 662.6,-162 662.6,-162"/>
<polygon fill="black" stroke="black" points="662.6,-165.5 672.6,-162 662.6,-158.5 662.6,-165.5"/>
</g>
<!-- LayoutService -->
<g id="node15" class="node">
<title>LayoutService</title>
<ellipse fill="#fdb462" stroke="black" cx="243" cy="-104" rx="67.19" ry="18"/>
<text text-anchor="middle" x="243" y="-99.8" font-family="Times,serif" font-size="14.00">LayoutService</text>
</g>
<!-- LayoutService&#45;&gt;CoreModule -->
<g id="edge14" class="edge">
<title>LayoutService&#45;&gt;CoreModule</title>
<path fill="none" stroke="black" d="M243,-122.22C243,-140.83 243,-167 243,-167 243,-167 662.35,-167 662.35,-167"/>
<polygon fill="black" stroke="black" points="662.35,-170.5 672.35,-167 662.35,-163.5 662.35,-170.5"/>
</g>
<!-- ThemeService -->
<g id="node16" class="node">
<title>ThemeService</title>
<ellipse fill="#fdb462" stroke="black" cx="91" cy="-104" rx="66.61" ry="18"/>
<text text-anchor="middle" x="91" y="-99.8" font-family="Times,serif" font-size="14.00">ThemeService</text>
</g>
<!-- ThemeService&#45;&gt;CoreModule -->
<g id="edge15" class="edge">
<title>ThemeService&#45;&gt;CoreModule</title>
<path fill="none" stroke="black" d="M91,-122.22C91,-142.37 91,-172 91,-172 91,-172 662.55,-172 662.55,-172"/>
<polygon fill="black" stroke="black" points="662.55,-175.5 672.55,-172 662.55,-168.5 662.55,-175.5"/>
</g>
</g>
</svg>
