<?xml version="1.0" encoding="UTF-8" standalone="no"?>
<!DOCTYPE svg PUBLIC "-//W3C//DTD SVG 1.1//EN"
 "http://www.w3.org/Graphics/SVG/1.1/DTD/svg11.dtd">
<!-- Generated by graphviz version 2.46.0 (20210119.1425)
 -->
<!-- Title: dependencies Pages: 1 -->
<svg width="1318pt" height="211pt"
 viewBox="0.00 0.00 1318.00 211.00" xmlns="http://www.w3.org/2000/svg" xmlns:xlink="http://www.w3.org/1999/xlink">
<g id="graph0" class="graph" transform="scale(1 1) rotate(0) translate(4 207)">
<title>dependencies</title>
<polygon fill="white" stroke="transparent" points="-4,4 -4,-207 1314,-207 1314,4 -4,4"/>
<text text-anchor="start" x="634.01" y="-42.4" font-family="sans-serif" font-weight="bold" font-size="14.00">Legend</text>
<polygon fill="#ffffb3" stroke="transparent" points="421,-10 421,-30 441,-30 441,-10 421,-10"/>
<text text-anchor="start" x="444.63" y="-15.4" font-family="sans-serif" font-size="14.00"> &#160;Declarations</text>
<polygon fill="#8dd3c7" stroke="transparent" points="534,-10 534,-30 554,-30 554,-10 534,-10"/>
<text text-anchor="start" x="557.73" y="-15.4" font-family="sans-serif" font-size="14.00"> &#160;Module</text>
<polygon fill="#80b1d3" stroke="transparent" points="620,-10 620,-30 640,-30 640,-10 620,-10"/>
<text text-anchor="start" x="643.78" y="-15.4" font-family="sans-serif" font-size="14.00"> &#160;Bootstrap</text>
<polygon fill="#fdb462" stroke="transparent" points="717,-10 717,-30 737,-30 737,-10 717,-10"/>
<text text-anchor="start" x="740.67" y="-15.4" font-family="sans-serif" font-size="14.00"> &#160;Providers</text>
<polygon fill="#fb8072" stroke="transparent" points="813,-10 813,-30 833,-30 833,-10 813,-10"/>
<text text-anchor="start" x="836.73" y="-15.4" font-family="sans-serif" font-size="14.00"> &#160;Exports</text>
<g id="clust1" class="cluster">
<title>cluster_CoreModule</title>
<polygon fill="none" stroke="black" stroke-dasharray="1,5" points="8,-70 8,-195 1302,-195 1302,-70 8,-70"/>
</g>
<g id="clust12" class="cluster">
<title>cluster_CoreModule_providers</title>
<polygon fill="none" stroke="black" points="1144,-78 1144,-130 1294,-130 1294,-78 1144,-78"/>
</g>
<g id="clust2" class="cluster">
<title>cluster_CoreModule_declarations</title>
<polygon fill="none" stroke="black" points="263,-78 263,-130 1136,-130 1136,-78 263,-78"/>
</g>
<g id="clust9" class="cluster">
<title>cluster_CoreModule_imports</title>
<polygon fill="none" stroke="black" points="16,-78 16,-130 255,-130 255,-78 16,-78"/>
</g>
<!-- ConfigComponent -->
<g id="node1" class="node">
<title>ConfigComponent</title>
<polygon fill="#ffffb3" stroke="black" points="1128.22,-122 1007.78,-122 1007.78,-86 1128.22,-86 1128.22,-122"/>
<text text-anchor="middle" x="1068" y="-99.8" font-family="Times,serif" font-size="14.00">ConfigComponent</text>
</g>
<!-- CoreModule -->
<g id="node7" class="node">
<title>CoreModule</title>
<polygon fill="#8dd3c7" stroke="black" points="658.26,-187 655.26,-191 634.26,-191 631.26,-187 571.74,-187 571.74,-151 658.26,-151 658.26,-187"/>
<text text-anchor="middle" x="615" y="-164.8" font-family="Times,serif" font-size="14.00">CoreModule</text>
</g>
<!-- ConfigComponent&#45;&gt;CoreModule -->
<g id="edge1" class="edge">
<title>ConfigComponent&#45;&gt;CoreModule</title>
<path fill="none" stroke="black" d="M1068,-122.13C1068,-142.57 1068,-173 1068,-173 1068,-173 668.44,-173 668.44,-173"/>
<polygon fill="black" stroke="black" points="668.44,-169.5 658.44,-173 668.44,-176.5 668.44,-169.5"/>
</g>
<!-- ConfigurationComponent -->
<g id="node2" class="node">
<title>ConfigurationComponent</title>
<polygon fill="#ffffb3" stroke="black" points="989.88,-122 830.12,-122 830.12,-86 989.88,-86 989.88,-122"/>
<text text-anchor="middle" x="910" y="-99.8" font-family="Times,serif" font-size="14.00">ConfigurationComponent</text>
</g>
<!-- ConfigurationComponent&#45;&gt;CoreModule -->
<g id="edge2" class="edge">
<title>ConfigurationComponent&#45;&gt;CoreModule</title>
<path fill="none" stroke="black" d="M910,-122.27C910,-140.56 910,-166 910,-166 910,-166 668.53,-166 668.53,-166"/>
<polygon fill="black" stroke="black" points="668.53,-162.5 658.53,-166 668.53,-169.5 668.53,-162.5"/>
</g>
<!-- FooterComponent -->
<g id="node3" class="node">
<title>FooterComponent</title>
<polygon fill="#ffffb3" stroke="black" points="811.88,-122 694.12,-122 694.12,-86 811.88,-86 811.88,-122"/>
<text text-anchor="middle" x="753" y="-99.8" font-family="Times,serif" font-size="14.00">FooterComponent</text>
</g>
<!-- FooterComponent&#45;&gt;CoreModule -->
<g id="edge3" class="edge">
<title>FooterComponent&#45;&gt;CoreModule</title>
<path fill="none" stroke="black" d="M753,-122.01C753,-138.05 753,-159 753,-159 753,-159 668.29,-159 668.29,-159"/>
<polygon fill="black" stroke="black" points="668.29,-155.5 658.29,-159 668.29,-162.5 668.29,-155.5"/>
</g>
<!-- HeaderComponent -->
<g id="node4" class="node">
<title>HeaderComponent</title>
<polygon fill="#ffffb3" stroke="black" points="675.74,-122 554.26,-122 554.26,-86 675.74,-86 675.74,-122"/>
<text text-anchor="middle" x="615" y="-99.8" font-family="Times,serif" font-size="14.00">HeaderComponent</text>
</g>
<!-- HeaderComponent&#45;&gt;CoreModule -->
<g id="edge4" class="edge">
<title>HeaderComponent&#45;&gt;CoreModule</title>
<path fill="none" stroke="black" d="M615,-122.11C615,-122.11 615,-140.99 615,-140.99"/>
<polygon fill="black" stroke="black" points="611.5,-140.99 615,-150.99 618.5,-140.99 611.5,-140.99"/>
</g>
<!-- LayoutComponent -->
<g id="node5" class="node">
<title>LayoutComponent</title>
<polygon fill="#ffffb3" stroke="black" points="536.49,-122 415.51,-122 415.51,-86 536.49,-86 536.49,-122"/>
<text text-anchor="middle" x="476" y="-99.8" font-family="Times,serif" font-size="14.00">LayoutComponent</text>
</g>
<!-- LayoutComponent&#45;&gt;CoreModule -->
<g id="edge5" class="edge">
<title>LayoutComponent&#45;&gt;CoreModule</title>
<path fill="none" stroke="black" d="M476,-122.01C476,-138.05 476,-159 476,-159 476,-159 561.4,-159 561.4,-159"/>
<polygon fill="black" stroke="black" points="561.4,-162.5 571.4,-159 561.4,-155.5 561.4,-162.5"/>
</g>
<!-- SidenavComponent -->
<g id="node6" class="node">
<title>SidenavComponent</title>
<polygon fill="#ffffb3" stroke="black" points="397.44,-122 270.56,-122 270.56,-86 397.44,-86 397.44,-122"/>
<text text-anchor="middle" x="334" y="-99.8" font-family="Times,serif" font-size="14.00">SidenavComponent</text>
</g>
<!-- SidenavComponent&#45;&gt;CoreModule -->
<g id="edge6" class="edge">
<title>SidenavComponent&#45;&gt;CoreModule</title>
<path fill="none" stroke="black" d="M334,-122.27C334,-140.56 334,-166 334,-166 334,-166 561.71,-166 561.71,-166"/>
<polygon fill="black" stroke="black" points="561.71,-169.5 571.71,-166 561.71,-162.5 561.71,-169.5"/>
</g>
<!-- MaterialModule -->
<g id="node8" class="node">
<title>MaterialModule</title>
<polygon fill="#8dd3c7" stroke="black" points="247.47,-122 244.47,-126 223.47,-126 220.47,-122 140.53,-122 140.53,-86 247.47,-86 247.47,-122"/>
<text text-anchor="middle" x="194" y="-99.8" font-family="Times,serif" font-size="14.00">MaterialModule</text>
</g>
<!-- MaterialModule&#45;&gt;CoreModule -->
<g id="edge7" class="edge">
<title>MaterialModule&#45;&gt;CoreModule</title>
<path fill="none" stroke="black" d="M194,-122.13C194,-142.57 194,-173 194,-173 194,-173 561.53,-173 561.53,-173"/>
<polygon fill="black" stroke="black" points="561.53,-176.5 571.53,-173 561.53,-169.5 561.53,-176.5"/>
</g>
<!-- SharedModule -->
<g id="node9" class="node">
<title>SharedModule</title>
<polygon fill="#8dd3c7" stroke="black" points="122.42,-122 119.42,-126 98.42,-126 95.42,-122 23.58,-122 23.58,-86 122.42,-86 122.42,-122"/>
<text text-anchor="middle" x="73" y="-99.8" font-family="Times,serif" font-size="14.00">SharedModule</text>
</g>
<!-- SharedModule&#45;&gt;CoreModule -->
<g id="edge8" class="edge">
<title>SharedModule&#45;&gt;CoreModule</title>
<path fill="none" stroke="black" d="M73,-122.01C73,-144.49 73,-180 73,-180 73,-180 561.56,-180 561.56,-180"/>
<polygon fill="black" stroke="black" points="561.56,-183.5 571.56,-180 561.56,-176.5 561.56,-183.5"/>
</g>
<!-- LayoutService -->
<g id="node10" class="node">
<title>LayoutService</title>
<ellipse fill="#fdb462" stroke="black" cx="1219" cy="-104" rx="67.19" ry="18"/>
<text text-anchor="middle" x="1219" y="-99.8" font-family="Times,serif" font-size="14.00">LayoutService</text>
</g>
<!-- LayoutService&#45;&gt;CoreModule -->
<g id="edge9" class="edge">
<title>LayoutService&#45;&gt;CoreModule</title>
<path fill="none" stroke="black" d="M1219,-122.01C1219,-144.49 1219,-180 1219,-180 1219,-180 668.44,-180 668.44,-180"/>
<polygon fill="black" stroke="black" points="668.44,-176.5 658.44,-180 668.44,-183.5 668.44,-176.5"/>
</g>
</g>
</svg>
