<?xml version="1.0" encoding="UTF-8" standalone="no"?>
<!DOCTYPE svg PUBLIC "-//W3C//DTD SVG 1.1//EN"
 "http://www.w3.org/Graphics/SVG/1.1/DTD/svg11.dtd">
<!-- Generated by graphviz version 2.44.1 (20200629.0846)
 -->
<!-- Title: dependencies Pages: 1 -->
<svg width="1453pt" height="211pt"
 viewBox="0.00 0.00 1453.00 211.00" xmlns="http://www.w3.org/2000/svg" xmlns:xlink="http://www.w3.org/1999/xlink">
<g id="graph0" class="graph" transform="scale(1 1) rotate(0) translate(4 207)">
<title>dependencies</title>
<polygon fill="white" stroke="transparent" points="-4,4 -4,-207 1449,-207 1449,4 -4,4"/>
<text text-anchor="start" x="701.51" y="-42.4" font-family="sans-serif" font-weight="bold" font-size="14.00">Legend</text>
<polygon fill="#ffffb3" stroke="transparent" points="488.5,-10 488.5,-30 508.5,-30 508.5,-10 488.5,-10"/>
<text text-anchor="start" x="512.13" y="-15.4" font-family="sans-serif" font-size="14.00"> &#160;Declarations</text>
<polygon fill="#8dd3c7" stroke="transparent" points="601.5,-10 601.5,-30 621.5,-30 621.5,-10 601.5,-10"/>
<text text-anchor="start" x="625.23" y="-15.4" font-family="sans-serif" font-size="14.00"> &#160;Module</text>
<polygon fill="#80b1d3" stroke="transparent" points="687.5,-10 687.5,-30 707.5,-30 707.5,-10 687.5,-10"/>
<text text-anchor="start" x="711.28" y="-15.4" font-family="sans-serif" font-size="14.00"> &#160;Bootstrap</text>
<polygon fill="#fdb462" stroke="transparent" points="784.5,-10 784.5,-30 804.5,-30 804.5,-10 784.5,-10"/>
<text text-anchor="start" x="808.17" y="-15.4" font-family="sans-serif" font-size="14.00"> &#160;Providers</text>
<polygon fill="#fb8072" stroke="transparent" points="880.5,-10 880.5,-30 900.5,-30 900.5,-10 880.5,-10"/>
<text text-anchor="start" x="904.23" y="-15.4" font-family="sans-serif" font-size="14.00"> &#160;Exports</text>
<g id="clust1" class="cluster">
<title>cluster_CoreModule</title>
<polygon fill="none" stroke="black" stroke-dasharray="1,5" points="8,-70 8,-195 1437,-195 1437,-70 8,-70"/>
</g>
<g id="clust13" class="cluster">
<title>cluster_CoreModule_providers</title>
<polygon fill="none" stroke="black" points="1279,-78 1279,-130 1429,-130 1429,-78 1279,-78"/>
</g>
<g id="clust10" class="cluster">
<title>cluster_CoreModule_imports</title>
<polygon fill="none" stroke="black" points="1032,-78 1032,-130 1271,-130 1271,-78 1032,-78"/>
</g>
<g id="clust2" class="cluster">
<title>cluster_CoreModule_declarations</title>
<polygon fill="none" stroke="black" points="16,-78 16,-130 1024,-130 1024,-78 16,-78"/>
</g>
<!-- DashboardComponent -->
<g id="node1" class="node">
<title>DashboardComponent</title>
<polygon fill="#ffffb3" stroke="black" points="1015.97,-122 874.03,-122 874.03,-86 1015.97,-86 1015.97,-122"/>
<text text-anchor="middle" x="945" y="-99.8" font-family="Times,serif" font-size="14.00">DashboardComponent</text>
</g>
<!-- CoreModule -->
<g id="node8" class="node">
<title>CoreModule</title>
<polygon fill="#8dd3c7" stroke="black" points="771.26,-187 768.26,-191 747.26,-191 744.26,-187 684.74,-187 684.74,-151 771.26,-151 771.26,-187"/>
<text text-anchor="middle" x="728" y="-164.8" font-family="Times,serif" font-size="14.00">CoreModule</text>
</g>
<!-- DashboardComponent&#45;&gt;CoreModule -->
<g id="edge1" class="edge">
<title>DashboardComponent&#45;&gt;CoreModule</title>
<path fill="none" stroke="black" d="M945,-122.01C945,-138.05 945,-159 945,-159 945,-159 781.39,-159 781.39,-159"/>
<polygon fill="black" stroke="black" points="781.39,-155.5 771.39,-159 781.39,-162.5 781.39,-155.5"/>
</g>
<!-- FooterComponent -->
<g id="node2" class="node">
<title>FooterComponent</title>
<polygon fill="#ffffb3" stroke="black" points="855.88,-122 738.12,-122 738.12,-86 855.88,-86 855.88,-122"/>
<text text-anchor="middle" x="797" y="-99.8" font-family="Times,serif" font-size="14.00">FooterComponent</text>
</g>
<!-- FooterComponent&#45;&gt;CoreModule -->
<g id="edge2" class="edge">
<title>FooterComponent&#45;&gt;CoreModule</title>
<path fill="none" stroke="black" d="M754.72,-122.11C754.72,-122.11 754.72,-140.99 754.72,-140.99"/>
<polygon fill="black" stroke="black" points="751.22,-140.99 754.72,-150.99 758.22,-140.99 751.22,-140.99"/>
</g>
<!-- HeaderComponent -->
<g id="node3" class="node">
<title>HeaderComponent</title>
<polygon fill="#ffffb3" stroke="black" points="719.74,-122 598.26,-122 598.26,-86 719.74,-86 719.74,-122"/>
<text text-anchor="middle" x="659" y="-99.8" font-family="Times,serif" font-size="14.00">HeaderComponent</text>
</g>
<!-- HeaderComponent&#45;&gt;CoreModule -->
<g id="edge3" class="edge">
<title>HeaderComponent&#45;&gt;CoreModule</title>
<path fill="none" stroke="black" d="M702.25,-122.11C702.25,-122.11 702.25,-140.99 702.25,-140.99"/>
<polygon fill="black" stroke="black" points="698.75,-140.99 702.25,-150.99 705.75,-140.99 698.75,-140.99"/>
</g>
<!-- HomeComponent -->
<g id="node4" class="node">
<title>HomeComponent</title>
<polygon fill="#ffffb3" stroke="black" points="579.55,-122 464.45,-122 464.45,-86 579.55,-86 579.55,-122"/>
<text text-anchor="middle" x="522" y="-99.8" font-family="Times,serif" font-size="14.00">HomeComponent</text>
</g>
<!-- HomeComponent&#45;&gt;CoreModule -->
<g id="edge4" class="edge">
<title>HomeComponent&#45;&gt;CoreModule</title>
<path fill="none" stroke="black" d="M522,-122.01C522,-138.05 522,-159 522,-159 522,-159 674.56,-159 674.56,-159"/>
<polygon fill="black" stroke="black" points="674.56,-162.5 684.56,-159 674.56,-155.5 674.56,-162.5"/>
</g>
<!-- LayoutComponent -->
<g id="node5" class="node">
<title>LayoutComponent</title>
<polygon fill="#ffffb3" stroke="black" points="446.49,-122 325.51,-122 325.51,-86 446.49,-86 446.49,-122"/>
<text text-anchor="middle" x="386" y="-99.8" font-family="Times,serif" font-size="14.00">LayoutComponent</text>
</g>
<!-- LayoutComponent&#45;&gt;CoreModule -->
<g id="edge5" class="edge">
<title>LayoutComponent&#45;&gt;CoreModule</title>
<path fill="none" stroke="black" d="M386,-122.27C386,-140.56 386,-166 386,-166 386,-166 674.69,-166 674.69,-166"/>
<polygon fill="black" stroke="black" points="674.69,-169.5 684.69,-166 674.69,-162.5 674.69,-169.5"/>
</g>
<!-- SidenavComponent -->
<g id="node6" class="node">
<title>SidenavComponent</title>
<polygon fill="#ffffb3" stroke="black" points="307.44,-122 180.56,-122 180.56,-86 307.44,-86 307.44,-122"/>
<text text-anchor="middle" x="244" y="-99.8" font-family="Times,serif" font-size="14.00">SidenavComponent</text>
</g>
<!-- SidenavComponent&#45;&gt;CoreModule -->
<g id="edge6" class="edge">
<title>SidenavComponent&#45;&gt;CoreModule</title>
<path fill="none" stroke="black" d="M244,-122.13C244,-142.57 244,-173 244,-173 244,-173 674.62,-173 674.62,-173"/>
<polygon fill="black" stroke="black" points="674.62,-176.5 684.62,-173 674.62,-169.5 674.62,-176.5"/>
</g>
<!-- WellcomeComponent -->
<g id="node7" class="node">
<title>WellcomeComponent</title>
<polygon fill="#ffffb3" stroke="black" points="162.36,-122 23.64,-122 23.64,-86 162.36,-86 162.36,-122"/>
<text text-anchor="middle" x="93" y="-99.8" font-family="Times,serif" font-size="14.00">WellcomeComponent</text>
</g>
<!-- WellcomeComponent&#45;&gt;CoreModule -->
<g id="edge7" class="edge">
<title>WellcomeComponent&#45;&gt;CoreModule</title>
<path fill="none" stroke="black" d="M93,-122.01C93,-144.49 93,-180 93,-180 93,-180 674.35,-180 674.35,-180"/>
<polygon fill="black" stroke="black" points="674.35,-183.5 684.35,-180 674.35,-176.5 674.35,-183.5"/>
</g>
<!-- MaterialModule -->
<g id="node9" class="node">
<title>MaterialModule</title>
<polygon fill="#8dd3c7" stroke="black" points="1263.47,-122 1260.47,-126 1239.47,-126 1236.47,-122 1156.53,-122 1156.53,-86 1263.47,-86 1263.47,-122"/>
<text text-anchor="middle" x="1210" y="-99.8" font-family="Times,serif" font-size="14.00">MaterialModule</text>
</g>
<!-- MaterialModule&#45;&gt;CoreModule -->
<g id="edge8" class="edge">
<title>MaterialModule&#45;&gt;CoreModule</title>
<path fill="none" stroke="black" d="M1210,-122.13C1210,-142.57 1210,-173 1210,-173 1210,-173 781.62,-173 781.62,-173"/>
<polygon fill="black" stroke="black" points="781.62,-169.5 771.62,-173 781.62,-176.5 781.62,-169.5"/>
</g>
<!-- SharedModule -->
<g id="node10" class="node">
<title>SharedModule</title>
<polygon fill="#8dd3c7" stroke="black" points="1138.42,-122 1135.42,-126 1114.42,-126 1111.42,-122 1039.58,-122 1039.58,-86 1138.42,-86 1138.42,-122"/>
<text text-anchor="middle" x="1089" y="-99.8" font-family="Times,serif" font-size="14.00">SharedModule</text>
</g>
<!-- SharedModule&#45;&gt;CoreModule -->
<g id="edge9" class="edge">
<title>SharedModule&#45;&gt;CoreModule</title>
<path fill="none" stroke="black" d="M1089,-122.27C1089,-140.56 1089,-166 1089,-166 1089,-166 781.55,-166 781.55,-166"/>
<polygon fill="black" stroke="black" points="781.55,-162.5 771.55,-166 781.54,-169.5 781.55,-162.5"/>
</g>
<!-- LayoutService -->
<g id="node11" class="node">
<title>LayoutService</title>
<ellipse fill="#fdb462" stroke="black" cx="1354" cy="-104" rx="67.19" ry="18"/>
<text text-anchor="middle" x="1354" y="-99.8" font-family="Times,serif" font-size="14.00">LayoutService</text>
</g>
<!-- LayoutService&#45;&gt;CoreModule -->
<g id="edge10" class="edge">
<title>LayoutService&#45;&gt;CoreModule</title>
<path fill="none" stroke="black" d="M1354,-122.01C1354,-144.49 1354,-180 1354,-180 1354,-180 781.52,-180 781.52,-180"/>
<polygon fill="black" stroke="black" points="781.52,-176.5 771.52,-180 781.52,-183.5 781.52,-176.5"/>
</g>
</g>
</svg>
