<?xml version="1.0" encoding="UTF-8" standalone="no"?>
<!DOCTYPE svg PUBLIC "-//W3C//DTD SVG 1.1//EN"
 "http://www.w3.org/Graphics/SVG/1.1/DTD/svg11.dtd">
<!-- Generated by graphviz version 2.46.0 (20210119.1425)
 -->
<!-- Title: dependencies Pages: 1 -->
<svg width="1002pt" height="211pt"
 viewBox="0.00 0.00 1002.00 211.00" xmlns="http://www.w3.org/2000/svg" xmlns:xlink="http://www.w3.org/1999/xlink">
<g id="graph0" class="graph" transform="scale(1 1) rotate(0) translate(4 207)">
<title>dependencies</title>
<polygon fill="white" stroke="transparent" points="-4,4 -4,-207 998,-207 998,4 -4,4"/>
<text text-anchor="start" x="476.01" y="-42.4" font-family="sans-serif" font-weight="bold" font-size="14.00">Legend</text>
<polygon fill="#ffffb3" stroke="transparent" points="263,-10 263,-30 283,-30 283,-10 263,-10"/>
<text text-anchor="start" x="286.63" y="-15.4" font-family="sans-serif" font-size="14.00"> &#160;Declarations</text>
<polygon fill="#8dd3c7" stroke="transparent" points="376,-10 376,-30 396,-30 396,-10 376,-10"/>
<text text-anchor="start" x="399.73" y="-15.4" font-family="sans-serif" font-size="14.00"> &#160;Module</text>
<polygon fill="#80b1d3" stroke="transparent" points="462,-10 462,-30 482,-30 482,-10 462,-10"/>
<text text-anchor="start" x="485.78" y="-15.4" font-family="sans-serif" font-size="14.00"> &#160;Bootstrap</text>
<polygon fill="#fdb462" stroke="transparent" points="559,-10 559,-30 579,-30 579,-10 559,-10"/>
<text text-anchor="start" x="582.67" y="-15.4" font-family="sans-serif" font-size="14.00"> &#160;Providers</text>
<polygon fill="#fb8072" stroke="transparent" points="655,-10 655,-30 675,-30 675,-10 655,-10"/>
<text text-anchor="start" x="678.73" y="-15.4" font-family="sans-serif" font-size="14.00"> &#160;Exports</text>
<g id="clust1" class="cluster">
<title>cluster_CoreModule</title>
<polygon fill="none" stroke="black" stroke-dasharray="1,5" points="8,-70 8,-195 986,-195 986,-70 8,-70"/>
</g>
<g id="clust2" class="cluster">
<title>cluster_CoreModule_declarations</title>
<polygon fill="none" stroke="black" points="421,-78 421,-130 978,-130 978,-78 421,-78"/>
</g>
<g id="clust7" class="cluster">
<title>cluster_CoreModule_imports</title>
<polygon fill="none" stroke="black" points="174,-78 174,-130 413,-130 413,-78 174,-78"/>
</g>
<g id="clust10" class="cluster">
<title>cluster_CoreModule_providers</title>
<polygon fill="none" stroke="black" points="16,-78 16,-130 166,-130 166,-78 16,-78"/>
</g>
<!-- FooterComponent -->
<g id="node1" class="node">
<title>FooterComponent</title>
<polygon fill="#ffffb3" stroke="black" points="969.88,-122 852.12,-122 852.12,-86 969.88,-86 969.88,-122"/>
<text text-anchor="middle" x="911" y="-99.8" font-family="Times,serif" font-size="14.00">FooterComponent</text>
</g>
<!-- CoreModule -->
<g id="node5" class="node">
<title>CoreModule</title>
<polygon fill="#8dd3c7" stroke="black" points="535.26,-187 532.26,-191 511.26,-191 508.26,-187 448.74,-187 448.74,-151 535.26,-151 535.26,-187"/>
<text text-anchor="middle" x="492" y="-164.8" font-family="Times,serif" font-size="14.00">CoreModule</text>
</g>
<!-- FooterComponent&#45;&gt;CoreModule -->
<g id="edge1" class="edge">
<title>FooterComponent&#45;&gt;CoreModule</title>
<path fill="none" stroke="black" d="M911,-122.29C911,-144.21 911,-178 911,-178 911,-178 545.26,-178 545.26,-178"/>
<polygon fill="black" stroke="black" points="545.26,-174.5 535.26,-178 545.26,-181.5 545.26,-174.5"/>
</g>
<!-- HeaderComponent -->
<g id="node2" class="node">
<title>HeaderComponent</title>
<polygon fill="#ffffb3" stroke="black" points="833.74,-122 712.26,-122 712.26,-86 833.74,-86 833.74,-122"/>
<text text-anchor="middle" x="773" y="-99.8" font-family="Times,serif" font-size="14.00">HeaderComponent</text>
</g>
<!-- HeaderComponent&#45;&gt;CoreModule -->
<g id="edge2" class="edge">
<title>HeaderComponent&#45;&gt;CoreModule</title>
<path fill="none" stroke="black" d="M773,-122.11C773,-141.34 773,-169 773,-169 773,-169 545.29,-169 545.29,-169"/>
<polygon fill="black" stroke="black" points="545.29,-165.5 535.29,-169 545.29,-172.5 545.29,-165.5"/>
</g>
<!-- LayoutComponent -->
<g id="node3" class="node">
<title>LayoutComponent</title>
<polygon fill="#ffffb3" stroke="black" points="694.49,-122 573.51,-122 573.51,-86 694.49,-86 694.49,-122"/>
<text text-anchor="middle" x="634" y="-99.8" font-family="Times,serif" font-size="14.00">LayoutComponent</text>
</g>
<!-- LayoutComponent&#45;&gt;CoreModule -->
<g id="edge3" class="edge">
<title>LayoutComponent&#45;&gt;CoreModule</title>
<path fill="none" stroke="black" d="M634,-122.03C634,-138.4 634,-160 634,-160 634,-160 545.38,-160 545.38,-160"/>
<polygon fill="black" stroke="black" points="545.38,-156.5 535.38,-160 545.38,-163.5 545.38,-156.5"/>
</g>
<!-- SidenavComponent -->
<g id="node4" class="node">
<title>SidenavComponent</title>
<polygon fill="#ffffb3" stroke="black" points="555.44,-122 428.56,-122 428.56,-86 555.44,-86 555.44,-122"/>
<text text-anchor="middle" x="492" y="-99.8" font-family="Times,serif" font-size="14.00">SidenavComponent</text>
</g>
<!-- SidenavComponent&#45;&gt;CoreModule -->
<g id="edge4" class="edge">
<title>SidenavComponent&#45;&gt;CoreModule</title>
<path fill="none" stroke="black" d="M492,-122.11C492,-122.11 492,-140.99 492,-140.99"/>
<polygon fill="black" stroke="black" points="488.5,-140.99 492,-150.99 495.5,-140.99 488.5,-140.99"/>
</g>
<!-- MaterialModule -->
<g id="node6" class="node">
<title>MaterialModule</title>
<polygon fill="#8dd3c7" stroke="black" points="405.47,-122 402.47,-126 381.47,-126 378.47,-122 298.53,-122 298.53,-86 405.47,-86 405.47,-122"/>
<text text-anchor="middle" x="352" y="-99.8" font-family="Times,serif" font-size="14.00">MaterialModule</text>
</g>
<!-- MaterialModule&#45;&gt;CoreModule -->
<g id="edge5" class="edge">
<title>MaterialModule&#45;&gt;CoreModule</title>
<path fill="none" stroke="black" d="M352,-122.03C352,-138.4 352,-160 352,-160 352,-160 438.47,-160 438.47,-160"/>
<polygon fill="black" stroke="black" points="438.47,-163.5 448.47,-160 438.47,-156.5 438.47,-163.5"/>
</g>
<!-- SharedModule -->
<g id="node7" class="node">
<title>SharedModule</title>
<polygon fill="#8dd3c7" stroke="black" points="280.42,-122 277.42,-126 256.42,-126 253.42,-122 181.58,-122 181.58,-86 280.42,-86 280.42,-122"/>
<text text-anchor="middle" x="231" y="-99.8" font-family="Times,serif" font-size="14.00">SharedModule</text>
</g>
<!-- SharedModule&#45;&gt;CoreModule -->
<g id="edge6" class="edge">
<title>SharedModule&#45;&gt;CoreModule</title>
<path fill="none" stroke="black" d="M231,-122.11C231,-141.34 231,-169 231,-169 231,-169 438.61,-169 438.61,-169"/>
<polygon fill="black" stroke="black" points="438.61,-172.5 448.61,-169 438.61,-165.5 438.61,-172.5"/>
</g>
<!-- LayoutService -->
<g id="node8" class="node">
<title>LayoutService</title>
<ellipse fill="#fdb462" stroke="black" cx="91" cy="-104" rx="67.19" ry="18"/>
<text text-anchor="middle" x="91" y="-99.8" font-family="Times,serif" font-size="14.00">LayoutService</text>
</g>
<!-- LayoutService&#45;&gt;CoreModule -->
<g id="edge7" class="edge">
<title>LayoutService&#45;&gt;CoreModule</title>
<path fill="none" stroke="black" d="M91,-122.29C91,-144.21 91,-178 91,-178 91,-178 438.7,-178 438.7,-178"/>
<polygon fill="black" stroke="black" points="438.71,-181.5 448.7,-178 438.7,-174.5 438.71,-181.5"/>
</g>
</g>
</svg>
