<?xml version="1.0" encoding="UTF-8" standalone="no"?>
<!DOCTYPE svg PUBLIC "-//W3C//DTD SVG 1.1//EN"
 "http://www.w3.org/Graphics/SVG/1.1/DTD/svg11.dtd">
<!-- Generated by graphviz version 2.44.1 (20200629.0846)
 -->
<!-- Title: dependencies Pages: 1 -->
<svg width="1002pt" height="211pt"
 viewBox="0.00 0.00 1002.00 211.00" xmlns="http://www.w3.org/2000/svg" xmlns:xlink="http://www.w3.org/1999/xlink">
<g id="graph0" class="graph" transform="scale(1 1) rotate(0) translate(4 207)">
<title>dependencies</title>
<polygon fill="white" stroke="transparent" points="-4,4 -4,-207 998,-207 998,4 -4,4"/>
<text text-anchor="start" x="476.01" y="-42.4" font-family="sans-serif" font-weight="bold" font-size="14.00">Legend</text>
<polygon fill="#ffffb3" stroke="transparent" points="263,-10 263,-30 283,-30 283,-10 263,-10"/>
<text text-anchor="start" x="286.63" y="-15.4" font-family="sans-serif" font-size="14.00"> &#160;Declarations</text>
<polygon fill="#8dd3c7" stroke="transparent" points="376,-10 376,-30 396,-30 396,-10 376,-10"/>
<text text-anchor="start" x="399.73" y="-15.4" font-family="sans-serif" font-size="14.00"> &#160;Module</text>
<polygon fill="#80b1d3" stroke="transparent" points="462,-10 462,-30 482,-30 482,-10 462,-10"/>
<text text-anchor="start" x="485.78" y="-15.4" font-family="sans-serif" font-size="14.00"> &#160;Bootstrap</text>
<polygon fill="#fdb462" stroke="transparent" points="559,-10 559,-30 579,-30 579,-10 559,-10"/>
<text text-anchor="start" x="582.67" y="-15.4" font-family="sans-serif" font-size="14.00"> &#160;Providers</text>
<polygon fill="#fb8072" stroke="transparent" points="655,-10 655,-30 675,-30 675,-10 655,-10"/>
<text text-anchor="start" x="678.73" y="-15.4" font-family="sans-serif" font-size="14.00"> &#160;Exports</text>
<g id="clust1" class="cluster">
<title>cluster_CoreModule</title>
<polygon fill="none" stroke="black" stroke-dasharray="1,5" points="8,-70 8,-195 986,-195 986,-70 8,-70"/>
</g>
<g id="clust7" class="cluster">
<title>cluster_CoreModule_imports</title>
<polygon fill="none" stroke="black" points="739,-78 739,-130 978,-130 978,-78 739,-78"/>
</g>
<g id="clust10" class="cluster">
<title>cluster_CoreModule_providers</title>
<polygon fill="none" stroke="black" points="581,-78 581,-130 731,-130 731,-78 581,-78"/>
</g>
<g id="clust2" class="cluster">
<title>cluster_CoreModule_declarations</title>
<polygon fill="none" stroke="black" points="16,-78 16,-130 573,-130 573,-78 16,-78"/>
</g>
<!-- FooterComponent -->
<g id="node1" class="node">
<title>FooterComponent</title>
<polygon fill="#ffffb3" stroke="black" points="564.88,-122 447.12,-122 447.12,-86 564.88,-86 564.88,-122"/>
<text text-anchor="middle" x="506" y="-99.8" font-family="Times,serif" font-size="14.00">FooterComponent</text>
</g>
<!-- CoreModule -->
<g id="node5" class="node">
<title>CoreModule</title>
<polygon fill="#8dd3c7" stroke="black" points="549.26,-187 546.26,-191 525.26,-191 522.26,-187 462.74,-187 462.74,-151 549.26,-151 549.26,-187"/>
<text text-anchor="middle" x="506" y="-164.8" font-family="Times,serif" font-size="14.00">CoreModule</text>
</g>
<!-- FooterComponent&#45;&gt;CoreModule -->
<g id="edge1" class="edge">
<title>FooterComponent&#45;&gt;CoreModule</title>
<path fill="none" stroke="black" d="M506,-122.11C506,-122.11 506,-140.99 506,-140.99"/>
<polygon fill="black" stroke="black" points="502.5,-140.99 506,-150.99 509.5,-140.99 502.5,-140.99"/>
</g>
<!-- HeaderComponent -->
<g id="node2" class="node">
<title>HeaderComponent</title>
<polygon fill="#ffffb3" stroke="black" points="428.74,-122 307.26,-122 307.26,-86 428.74,-86 428.74,-122"/>
<text text-anchor="middle" x="368" y="-99.8" font-family="Times,serif" font-size="14.00">HeaderComponent</text>
</g>
<!-- HeaderComponent&#45;&gt;CoreModule -->
<g id="edge2" class="edge">
<title>HeaderComponent&#45;&gt;CoreModule</title>
<path fill="none" stroke="black" d="M368,-122.03C368,-138.4 368,-160 368,-160 368,-160 452.71,-160 452.71,-160"/>
<polygon fill="black" stroke="black" points="452.71,-163.5 462.71,-160 452.71,-156.5 452.71,-163.5"/>
</g>
<!-- LayoutComponent -->
<g id="node3" class="node">
<title>LayoutComponent</title>
<polygon fill="#ffffb3" stroke="black" points="289.49,-122 168.51,-122 168.51,-86 289.49,-86 289.49,-122"/>
<text text-anchor="middle" x="229" y="-99.8" font-family="Times,serif" font-size="14.00">LayoutComponent</text>
</g>
<!-- LayoutComponent&#45;&gt;CoreModule -->
<g id="edge3" class="edge">
<title>LayoutComponent&#45;&gt;CoreModule</title>
<path fill="none" stroke="black" d="M229,-122.11C229,-141.34 229,-169 229,-169 229,-169 452.72,-169 452.72,-169"/>
<polygon fill="black" stroke="black" points="452.72,-172.5 462.72,-169 452.72,-165.5 452.72,-172.5"/>
</g>
<!-- SidenavComponent -->
<g id="node4" class="node">
<title>SidenavComponent</title>
<polygon fill="#ffffb3" stroke="black" points="150.44,-122 23.56,-122 23.56,-86 150.44,-86 150.44,-122"/>
<text text-anchor="middle" x="87" y="-99.8" font-family="Times,serif" font-size="14.00">SidenavComponent</text>
</g>
<!-- SidenavComponent&#45;&gt;CoreModule -->
<g id="edge4" class="edge">
<title>SidenavComponent&#45;&gt;CoreModule</title>
<path fill="none" stroke="black" d="M87,-122.29C87,-144.21 87,-178 87,-178 87,-178 452.74,-178 452.74,-178"/>
<polygon fill="black" stroke="black" points="452.74,-181.5 462.74,-178 452.74,-174.5 452.74,-181.5"/>
</g>
<!-- MaterialModule -->
<g id="node6" class="node">
<title>MaterialModule</title>
<polygon fill="#8dd3c7" stroke="black" points="970.47,-122 967.47,-126 946.47,-126 943.47,-122 863.53,-122 863.53,-86 970.47,-86 970.47,-122"/>
<text text-anchor="middle" x="917" y="-99.8" font-family="Times,serif" font-size="14.00">MaterialModule</text>
</g>
<!-- MaterialModule&#45;&gt;CoreModule -->
<g id="edge5" class="edge">
<title>MaterialModule&#45;&gt;CoreModule</title>
<path fill="none" stroke="black" d="M917,-122.29C917,-144.21 917,-178 917,-178 917,-178 559.6,-178 559.6,-178"/>
<polygon fill="black" stroke="black" points="559.6,-174.5 549.6,-178 559.6,-181.5 559.6,-174.5"/>
</g>
<!-- SharedModule -->
<g id="node7" class="node">
<title>SharedModule</title>
<polygon fill="#8dd3c7" stroke="black" points="845.42,-122 842.42,-126 821.42,-126 818.42,-122 746.58,-122 746.58,-86 845.42,-86 845.42,-122"/>
<text text-anchor="middle" x="796" y="-99.8" font-family="Times,serif" font-size="14.00">SharedModule</text>
</g>
<!-- SharedModule&#45;&gt;CoreModule -->
<g id="edge6" class="edge">
<title>SharedModule&#45;&gt;CoreModule</title>
<path fill="none" stroke="black" d="M796,-122.11C796,-141.34 796,-169 796,-169 796,-169 559.42,-169 559.42,-169"/>
<polygon fill="black" stroke="black" points="559.42,-165.5 549.42,-169 559.42,-172.5 559.42,-165.5"/>
</g>
<!-- LayoutService -->
<g id="node8" class="node">
<title>LayoutService</title>
<ellipse fill="#fdb462" stroke="black" cx="656" cy="-104" rx="67.19" ry="18"/>
<text text-anchor="middle" x="656" y="-99.8" font-family="Times,serif" font-size="14.00">LayoutService</text>
</g>
<!-- LayoutService&#45;&gt;CoreModule -->
<g id="edge7" class="edge">
<title>LayoutService&#45;&gt;CoreModule</title>
<path fill="none" stroke="black" d="M656,-122.03C656,-138.4 656,-160 656,-160 656,-160 559.39,-160 559.39,-160"/>
<polygon fill="black" stroke="black" points="559.39,-156.5 549.39,-160 559.39,-163.5 559.39,-156.5"/>
</g>
</g>
</svg>
