<?xml version="1.0" encoding="UTF-8" standalone="no"?>
<!DOCTYPE svg PUBLIC "-//W3C//DTD SVG 1.1//EN"
 "http://www.w3.org/Graphics/SVG/1.1/DTD/svg11.dtd">
<!-- Generated by graphviz version 2.46.0 (20210119.1425)
 -->
<!-- Title: dependencies Pages: 1 -->
<svg width="931pt" height="284pt"
 viewBox="0.00 0.00 931.00 284.00" xmlns="http://www.w3.org/2000/svg" xmlns:xlink="http://www.w3.org/1999/xlink">
<g id="graph0" class="graph" transform="scale(1 1) rotate(0) translate(4 280)">
<title>dependencies</title>
<polygon fill="white" stroke="transparent" points="-4,4 -4,-280 927,-280 927,4 -4,4"/>
<text text-anchor="start" x="440.51" y="-42.4" font-family="sans-serif" font-weight="bold" font-size="14.00">Legend</text>
<polygon fill="#ffffb3" stroke="transparent" points="227.5,-10 227.5,-30 247.5,-30 247.5,-10 227.5,-10"/>
<text text-anchor="start" x="251.13" y="-15.4" font-family="sans-serif" font-size="14.00"> &#160;Declarations</text>
<polygon fill="#8dd3c7" stroke="transparent" points="340.5,-10 340.5,-30 360.5,-30 360.5,-10 340.5,-10"/>
<text text-anchor="start" x="364.23" y="-15.4" font-family="sans-serif" font-size="14.00"> &#160;Module</text>
<polygon fill="#80b1d3" stroke="transparent" points="426.5,-10 426.5,-30 446.5,-30 446.5,-10 426.5,-10"/>
<text text-anchor="start" x="450.28" y="-15.4" font-family="sans-serif" font-size="14.00"> &#160;Bootstrap</text>
<polygon fill="#fdb462" stroke="transparent" points="523.5,-10 523.5,-30 543.5,-30 543.5,-10 523.5,-10"/>
<text text-anchor="start" x="547.17" y="-15.4" font-family="sans-serif" font-size="14.00"> &#160;Providers</text>
<polygon fill="#fb8072" stroke="transparent" points="619.5,-10 619.5,-30 639.5,-30 639.5,-10 619.5,-10"/>
<text text-anchor="start" x="643.23" y="-15.4" font-family="sans-serif" font-size="14.00"> &#160;Exports</text>
<g id="clust1" class="cluster">
<title>cluster_StudentsModule</title>
<polygon fill="none" stroke="black" stroke-dasharray="1,5" points="8,-70 8,-268 915,-268 915,-70 8,-70"/>
</g>
<g id="clust4" class="cluster">
<title>cluster_StudentsModule_imports</title>
<polygon fill="none" stroke="black" points="614,-78 614,-130 907,-130 907,-78 614,-78"/>
</g>
<g id="clust7" class="cluster">
<title>cluster_StudentsModule_providers</title>
<polygon fill="none" stroke="black" points="210,-78 210,-130 606,-130 606,-78 210,-78"/>
</g>
<g id="clust2" class="cluster">
<title>cluster_StudentsModule_declarations</title>
<polygon fill="none" stroke="black" points="16,-78 16,-130 202,-130 202,-78 16,-78"/>
</g>
<g id="clust5" class="cluster">
<title>cluster_StudentsModule_exports</title>
<polygon fill="none" stroke="black" points="416,-208 416,-260 604,-260 604,-208 416,-208"/>
</g>
<!-- CourseStudentsComponent -->
<g id="node1" class="node">
<title>CourseStudentsComponent</title>
<polygon fill="#ffffb3" stroke="black" points="193.71,-122 24.29,-122 24.29,-86 193.71,-86 193.71,-122"/>
<text text-anchor="middle" x="109" y="-99.8" font-family="Times,serif" font-size="14.00">CourseStudentsComponent</text>
</g>
<!-- StudentsModule -->
<g id="node2" class="node">
<title>StudentsModule</title>
<polygon fill="#8dd3c7" stroke="black" points="563.77,-187 560.77,-191 539.77,-191 536.77,-187 456.23,-187 456.23,-151 563.77,-151 563.77,-187"/>
<text text-anchor="middle" x="510" y="-164.8" font-family="Times,serif" font-size="14.00">StudentsModule</text>
</g>
<!-- CourseStudentsComponent&#45;&gt;StudentsModule -->
<g id="edge1" class="edge">
<title>CourseStudentsComponent&#45;&gt;StudentsModule</title>
<path fill="none" stroke="black" d="M109,-122.28C109,-143.32 109,-175 109,-175 109,-175 445.92,-175 445.92,-175"/>
<polygon fill="black" stroke="black" points="445.92,-178.5 455.92,-175 445.92,-171.5 445.92,-178.5"/>
</g>
<!-- CourseStudentsComponent  -->
<g id="node5" class="node">
<title>CourseStudentsComponent </title>
<polygon fill="#fb8072" stroke="black" points="596.21,-252 423.79,-252 423.79,-216 596.21,-216 596.21,-252"/>
<text text-anchor="middle" x="510" y="-229.8" font-family="Times,serif" font-size="14.00">CourseStudentsComponent </text>
</g>
<!-- StudentsModule&#45;&gt;CourseStudentsComponent  -->
<g id="edge4" class="edge">
<title>StudentsModule&#45;&gt;CourseStudentsComponent </title>
<path fill="none" stroke="black" stroke-dasharray="5,2" d="M510,-187.11C510,-187.11 510,-205.99 510,-205.99"/>
<polygon fill="black" stroke="black" points="506.5,-205.99 510,-215.99 513.5,-205.99 506.5,-205.99"/>
</g>
<!-- MaterialModule -->
<g id="node3" class="node">
<title>MaterialModule</title>
<polygon fill="#8dd3c7" stroke="black" points="899.47,-122 896.47,-126 875.47,-126 872.47,-122 792.53,-122 792.53,-86 899.47,-86 899.47,-122"/>
<text text-anchor="middle" x="846" y="-99.8" font-family="Times,serif" font-size="14.00">MaterialModule</text>
</g>
<!-- MaterialModule&#45;&gt;StudentsModule -->
<g id="edge2" class="edge">
<title>MaterialModule&#45;&gt;StudentsModule</title>
<path fill="none" stroke="black" d="M846,-122.28C846,-143.32 846,-175 846,-175 846,-175 573.98,-175 573.98,-175"/>
<polygon fill="black" stroke="black" points="573.98,-171.5 563.98,-175 573.98,-178.5 573.98,-171.5"/>
</g>
<!-- StudentsRoutingModule -->
<g id="node4" class="node">
<title>StudentsRoutingModule</title>
<polygon fill="#8dd3c7" stroke="black" points="774.39,-122 771.39,-126 750.39,-126 747.39,-122 621.61,-122 621.61,-86 774.39,-86 774.39,-122"/>
<text text-anchor="middle" x="698" y="-99.8" font-family="Times,serif" font-size="14.00">StudentsRoutingModule</text>
</g>
<!-- StudentsRoutingModule&#45;&gt;StudentsModule -->
<g id="edge3" class="edge">
<title>StudentsRoutingModule&#45;&gt;StudentsModule</title>
<path fill="none" stroke="black" d="M698,-122.02C698,-139.37 698,-163 698,-163 698,-163 573.87,-163 573.87,-163"/>
<polygon fill="black" stroke="black" points="573.87,-159.5 563.87,-163 573.87,-166.5 573.87,-159.5"/>
</g>
<!-- StudentDataService -->
<g id="node6" class="node">
<title>StudentDataService</title>
<ellipse fill="#fdb462" stroke="black" cx="510" cy="-104" rx="87.96" ry="18"/>
<text text-anchor="middle" x="510" y="-99.8" font-family="Times,serif" font-size="14.00">StudentDataService</text>
</g>
<!-- StudentDataService&#45;&gt;StudentsModule -->
<g id="edge5" class="edge">
<title>StudentDataService&#45;&gt;StudentsModule</title>
<path fill="none" stroke="black" d="M510,-122.11C510,-122.11 510,-140.99 510,-140.99"/>
<polygon fill="black" stroke="black" points="506.5,-140.99 510,-150.99 513.5,-140.99 506.5,-140.99"/>
</g>
<!-- StudentEntityService -->
<g id="node7" class="node">
<title>StudentEntityService</title>
<ellipse fill="#fdb462" stroke="black" cx="311" cy="-104" rx="93.21" ry="18"/>
<text text-anchor="middle" x="311" y="-99.8" font-family="Times,serif" font-size="14.00">StudentEntityService</text>
</g>
<!-- StudentEntityService&#45;&gt;StudentsModule -->
<g id="edge6" class="edge">
<title>StudentEntityService&#45;&gt;StudentsModule</title>
<path fill="none" stroke="black" d="M311,-122.02C311,-139.37 311,-163 311,-163 311,-163 446.15,-163 446.15,-163"/>
<polygon fill="black" stroke="black" points="446.15,-166.5 456.15,-163 446.15,-159.5 446.15,-166.5"/>
</g>
</g>
</svg>
