<?xml version="1.0" encoding="UTF-8" standalone="no"?>
<!DOCTYPE svg PUBLIC "-//W3C//DTD SVG 1.1//EN"
 "http://www.w3.org/Graphics/SVG/1.1/DTD/svg11.dtd">
<!-- Generated by graphviz version 2.46.0 (20210119.1425)
 -->
<!-- Title: dependencies Pages: 1 -->
<svg width="1264pt" height="284pt"
 viewBox="0.00 0.00 1264.00 284.00" xmlns="http://www.w3.org/2000/svg" xmlns:xlink="http://www.w3.org/1999/xlink">
<g id="graph0" class="graph" transform="scale(1 1) rotate(0) translate(4 280)">
<title>dependencies</title>
<polygon fill="white" stroke="transparent" points="-4,4 -4,-280 1260,-280 1260,4 -4,4"/>
<text text-anchor="start" x="607.01" y="-42.4" font-family="sans-serif" font-weight="bold" font-size="14.00">Legend</text>
<polygon fill="#ffffb3" stroke="transparent" points="394,-10 394,-30 414,-30 414,-10 394,-10"/>
<text text-anchor="start" x="417.63" y="-15.4" font-family="sans-serif" font-size="14.00"> &#160;Declarations</text>
<polygon fill="#8dd3c7" stroke="transparent" points="507,-10 507,-30 527,-30 527,-10 507,-10"/>
<text text-anchor="start" x="530.73" y="-15.4" font-family="sans-serif" font-size="14.00"> &#160;Module</text>
<polygon fill="#80b1d3" stroke="transparent" points="593,-10 593,-30 613,-30 613,-10 593,-10"/>
<text text-anchor="start" x="616.78" y="-15.4" font-family="sans-serif" font-size="14.00"> &#160;Bootstrap</text>
<polygon fill="#fdb462" stroke="transparent" points="690,-10 690,-30 710,-30 710,-10 690,-10"/>
<text text-anchor="start" x="713.67" y="-15.4" font-family="sans-serif" font-size="14.00"> &#160;Providers</text>
<polygon fill="#fb8072" stroke="transparent" points="786,-10 786,-30 806,-30 806,-10 786,-10"/>
<text text-anchor="start" x="809.73" y="-15.4" font-family="sans-serif" font-size="14.00"> &#160;Exports</text>
<g id="clust1" class="cluster">
<title>cluster_StudentsModule</title>
<polygon fill="none" stroke="black" stroke-dasharray="1,5" points="8,-70 8,-268 1248,-268 1248,-70 8,-70"/>
</g>
<g id="clust6" class="cluster">
<title>cluster_StudentsModule_exports</title>
<polygon fill="none" stroke="black" points="554,-208 554,-260 742,-260 742,-208 554,-208"/>
</g>
<g id="clust2" class="cluster">
<title>cluster_StudentsModule_declarations</title>
<polygon fill="none" stroke="black" points="838,-78 838,-130 1240,-130 1240,-78 838,-78"/>
</g>
<g id="clust5" class="cluster">
<title>cluster_StudentsModule_imports</title>
<polygon fill="none" stroke="black" points="420,-78 420,-130 830,-130 830,-78 420,-78"/>
</g>
<g id="clust8" class="cluster">
<title>cluster_StudentsModule_providers</title>
<polygon fill="none" stroke="black" points="16,-78 16,-130 412,-130 412,-78 16,-78"/>
</g>
<!-- CourseStudentsComponent -->
<g id="node1" class="node">
<title>CourseStudentsComponent</title>
<polygon fill="#ffffb3" stroke="black" points="1231.71,-122 1062.29,-122 1062.29,-86 1231.71,-86 1231.71,-122"/>
<text text-anchor="middle" x="1147" y="-99.8" font-family="Times,serif" font-size="14.00">CourseStudentsComponent</text>
</g>
<!-- StudentsModule -->
<g id="node3" class="node">
<title>StudentsModule</title>
<polygon fill="#8dd3c7" stroke="black" points="701.77,-187 698.77,-191 677.77,-191 674.77,-187 594.23,-187 594.23,-151 701.77,-151 701.77,-187"/>
<text text-anchor="middle" x="648" y="-164.8" font-family="Times,serif" font-size="14.00">StudentsModule</text>
</g>
<!-- CourseStudentsComponent&#45;&gt;StudentsModule -->
<g id="edge1" class="edge">
<title>CourseStudentsComponent&#45;&gt;StudentsModule</title>
<path fill="none" stroke="black" d="M1147,-122.29C1147,-144.21 1147,-178 1147,-178 1147,-178 711.88,-178 711.88,-178"/>
<polygon fill="black" stroke="black" points="711.88,-174.5 701.88,-178 711.88,-181.5 711.88,-174.5"/>
</g>
<!-- GuardiansListDialogComponent -->
<g id="node2" class="node">
<title>GuardiansListDialogComponent</title>
<polygon fill="#ffffb3" stroke="black" points="1044.24,-122 845.76,-122 845.76,-86 1044.24,-86 1044.24,-122"/>
<text text-anchor="middle" x="945" y="-99.8" font-family="Times,serif" font-size="14.00">GuardiansListDialogComponent</text>
</g>
<!-- GuardiansListDialogComponent&#45;&gt;StudentsModule -->
<g id="edge2" class="edge">
<title>GuardiansListDialogComponent&#45;&gt;StudentsModule</title>
<path fill="none" stroke="black" d="M945,-122.11C945,-141.34 945,-169 945,-169 945,-169 711.78,-169 711.78,-169"/>
<polygon fill="black" stroke="black" points="711.78,-165.5 701.78,-169 711.78,-172.5 711.78,-165.5"/>
</g>
<!-- CourseStudentsComponent  -->
<g id="node7" class="node">
<title>CourseStudentsComponent </title>
<polygon fill="#fb8072" stroke="black" points="734.21,-252 561.79,-252 561.79,-216 734.21,-216 734.21,-252"/>
<text text-anchor="middle" x="648" y="-229.8" font-family="Times,serif" font-size="14.00">CourseStudentsComponent </text>
</g>
<!-- StudentsModule&#45;&gt;CourseStudentsComponent  -->
<g id="edge6" class="edge">
<title>StudentsModule&#45;&gt;CourseStudentsComponent </title>
<path fill="none" stroke="black" stroke-dasharray="5,2" d="M648,-187.11C648,-187.11 648,-205.99 648,-205.99"/>
<polygon fill="black" stroke="black" points="644.5,-205.99 648,-215.99 651.5,-205.99 644.5,-205.99"/>
</g>
<!-- MaterialModule -->
<g id="node4" class="node">
<title>MaterialModule</title>
<polygon fill="#8dd3c7" stroke="black" points="822.47,-122 819.47,-126 798.47,-126 795.47,-122 715.53,-122 715.53,-86 822.47,-86 822.47,-122"/>
<text text-anchor="middle" x="769" y="-99.8" font-family="Times,serif" font-size="14.00">MaterialModule</text>
</g>
<!-- MaterialModule&#45;&gt;StudentsModule -->
<g id="edge3" class="edge">
<title>MaterialModule&#45;&gt;StudentsModule</title>
<path fill="none" stroke="black" d="M724.94,-122.03C724.94,-138.4 724.94,-160 724.94,-160 724.94,-160 711.85,-160 711.85,-160"/>
<polygon fill="black" stroke="black" points="711.85,-156.5 701.85,-160 711.85,-163.5 711.85,-156.5"/>
</g>
<!-- SharedModule -->
<g id="node5" class="node">
<title>SharedModule</title>
<polygon fill="#8dd3c7" stroke="black" points="697.42,-122 694.42,-126 673.42,-126 670.42,-122 598.58,-122 598.58,-86 697.42,-86 697.42,-122"/>
<text text-anchor="middle" x="648" y="-99.8" font-family="Times,serif" font-size="14.00">SharedModule</text>
</g>
<!-- SharedModule&#45;&gt;StudentsModule -->
<g id="edge4" class="edge">
<title>SharedModule&#45;&gt;StudentsModule</title>
<path fill="none" stroke="black" d="M648,-122.11C648,-122.11 648,-140.99 648,-140.99"/>
<polygon fill="black" stroke="black" points="644.5,-140.99 648,-150.99 651.5,-140.99 644.5,-140.99"/>
</g>
<!-- StudentsRoutingModule -->
<g id="node6" class="node">
<title>StudentsRoutingModule</title>
<polygon fill="#8dd3c7" stroke="black" points="580.39,-122 577.39,-126 556.39,-126 553.39,-122 427.61,-122 427.61,-86 580.39,-86 580.39,-122"/>
<text text-anchor="middle" x="504" y="-99.8" font-family="Times,serif" font-size="14.00">StudentsRoutingModule</text>
</g>
<!-- StudentsRoutingModule&#45;&gt;StudentsModule -->
<g id="edge5" class="edge">
<title>StudentsRoutingModule&#45;&gt;StudentsModule</title>
<path fill="none" stroke="black" d="M571.04,-122.03C571.04,-138.4 571.04,-160 571.04,-160 571.04,-160 584.13,-160 584.13,-160"/>
<polygon fill="black" stroke="black" points="584.13,-163.5 594.13,-160 584.13,-156.5 584.13,-163.5"/>
</g>
<!-- StudentDataService -->
<g id="node8" class="node">
<title>StudentDataService</title>
<ellipse fill="#fdb462" stroke="black" cx="316" cy="-104" rx="87.96" ry="18"/>
<text text-anchor="middle" x="316" y="-99.8" font-family="Times,serif" font-size="14.00">StudentDataService</text>
</g>
<!-- StudentDataService&#45;&gt;StudentsModule -->
<g id="edge7" class="edge">
<title>StudentDataService&#45;&gt;StudentsModule</title>
<path fill="none" stroke="black" d="M316,-122.11C316,-141.34 316,-169 316,-169 316,-169 583.92,-169 583.92,-169"/>
<polygon fill="black" stroke="black" points="583.92,-172.5 593.92,-169 583.92,-165.5 583.92,-172.5"/>
</g>
<!-- StudentEntityService -->
<g id="node9" class="node">
<title>StudentEntityService</title>
<ellipse fill="#fdb462" stroke="black" cx="117" cy="-104" rx="93.21" ry="18"/>
<text text-anchor="middle" x="117" y="-99.8" font-family="Times,serif" font-size="14.00">StudentEntityService</text>
</g>
<!-- StudentEntityService&#45;&gt;StudentsModule -->
<g id="edge8" class="edge">
<title>StudentEntityService&#45;&gt;StudentsModule</title>
<path fill="none" stroke="black" d="M117,-122.29C117,-144.21 117,-178 117,-178 117,-178 584.16,-178 584.16,-178"/>
<polygon fill="black" stroke="black" points="584.16,-181.5 594.16,-178 584.16,-174.5 584.16,-181.5"/>
</g>
</g>
</svg>
