<?xml version="1.0" encoding="UTF-8" standalone="no"?>
<!DOCTYPE svg PUBLIC "-//W3C//DTD SVG 1.1//EN"
 "http://www.w3.org/Graphics/SVG/1.1/DTD/svg11.dtd">
<!-- Generated by graphviz version 2.46.0 (20210119.1425)
 -->
<!-- Title: dependencies Pages: 1 -->
<svg width="1264pt" height="284pt"
 viewBox="0.00 0.00 1264.00 284.00" xmlns="http://www.w3.org/2000/svg" xmlns:xlink="http://www.w3.org/1999/xlink">
<g id="graph0" class="graph" transform="scale(1 1) rotate(0) translate(4 280)">
<title>dependencies</title>
<polygon fill="white" stroke="transparent" points="-4,4 -4,-280 1260,-280 1260,4 -4,4"/>
<text text-anchor="start" x="607.01" y="-42.4" font-family="sans-serif" font-weight="bold" font-size="14.00">Legend</text>
<polygon fill="#ffffb3" stroke="transparent" points="394,-10 394,-30 414,-30 414,-10 394,-10"/>
<text text-anchor="start" x="417.63" y="-15.4" font-family="sans-serif" font-size="14.00"> &#160;Declarations</text>
<polygon fill="#8dd3c7" stroke="transparent" points="507,-10 507,-30 527,-30 527,-10 507,-10"/>
<text text-anchor="start" x="530.73" y="-15.4" font-family="sans-serif" font-size="14.00"> &#160;Module</text>
<polygon fill="#80b1d3" stroke="transparent" points="593,-10 593,-30 613,-30 613,-10 593,-10"/>
<text text-anchor="start" x="616.78" y="-15.4" font-family="sans-serif" font-size="14.00"> &#160;Bootstrap</text>
<polygon fill="#fdb462" stroke="transparent" points="690,-10 690,-30 710,-30 710,-10 690,-10"/>
<text text-anchor="start" x="713.67" y="-15.4" font-family="sans-serif" font-size="14.00"> &#160;Providers</text>
<polygon fill="#fb8072" stroke="transparent" points="786,-10 786,-30 806,-30 806,-10 786,-10"/>
<text text-anchor="start" x="809.73" y="-15.4" font-family="sans-serif" font-size="14.00"> &#160;Exports</text>
<g id="clust1" class="cluster">
<title>cluster_StudentsModule</title>
<polygon fill="none" stroke="black" stroke-dasharray="1,5" points="8,-70 8,-268 1248,-268 1248,-70 8,-70"/>
</g>
<g id="clust5" class="cluster">
<title>cluster_StudentsModule_imports</title>
<polygon fill="none" stroke="black" points="830,-78 830,-130 1240,-130 1240,-78 830,-78"/>
</g>
<g id="clust2" class="cluster">
<title>cluster_StudentsModule_declarations</title>
<polygon fill="none" stroke="black" points="420,-78 420,-130 822,-130 822,-78 420,-78"/>
</g>
<g id="clust8" class="cluster">
<title>cluster_StudentsModule_providers</title>
<polygon fill="none" stroke="black" points="16,-78 16,-130 412,-130 412,-78 16,-78"/>
</g>
<g id="clust6" class="cluster">
<title>cluster_StudentsModule_exports</title>
<polygon fill="none" stroke="black" points="635,-208 635,-260 823,-260 823,-208 635,-208"/>
</g>
<!-- CourseStudentsComponent -->
<g id="node1" class="node">
<title>CourseStudentsComponent</title>
<polygon fill="#ffffb3" stroke="black" points="813.71,-122 644.29,-122 644.29,-86 813.71,-86 813.71,-122"/>
<text text-anchor="middle" x="729" y="-99.8" font-family="Times,serif" font-size="14.00">CourseStudentsComponent</text>
</g>
<!-- StudentsModule -->
<g id="node3" class="node">
<title>StudentsModule</title>
<polygon fill="#8dd3c7" stroke="black" points="782.77,-187 779.77,-191 758.77,-191 755.77,-187 675.23,-187 675.23,-151 782.77,-151 782.77,-187"/>
<text text-anchor="middle" x="729" y="-164.8" font-family="Times,serif" font-size="14.00">StudentsModule</text>
</g>
<!-- CourseStudentsComponent&#45;&gt;StudentsModule -->
<g id="edge1" class="edge">
<title>CourseStudentsComponent&#45;&gt;StudentsModule</title>
<path fill="none" stroke="black" d="M729,-122.11C729,-122.11 729,-140.99 729,-140.99"/>
<polygon fill="black" stroke="black" points="725.5,-140.99 729,-150.99 732.5,-140.99 725.5,-140.99"/>
</g>
<!-- GuardiansListDialogComponent -->
<g id="node2" class="node">
<title>GuardiansListDialogComponent</title>
<polygon fill="#ffffb3" stroke="black" points="626.24,-122 427.76,-122 427.76,-86 626.24,-86 626.24,-122"/>
<text text-anchor="middle" x="527" y="-99.8" font-family="Times,serif" font-size="14.00">GuardiansListDialogComponent</text>
</g>
<!-- GuardiansListDialogComponent&#45;&gt;StudentsModule -->
<g id="edge2" class="edge">
<title>GuardiansListDialogComponent&#45;&gt;StudentsModule</title>
<path fill="none" stroke="black" d="M527,-122.03C527,-138.4 527,-160 527,-160 527,-160 665.13,-160 665.13,-160"/>
<polygon fill="black" stroke="black" points="665.13,-163.5 675.13,-160 665.13,-156.5 665.13,-163.5"/>
</g>
<!-- CourseStudentsComponent  -->
<g id="node7" class="node">
<title>CourseStudentsComponent </title>
<polygon fill="#fb8072" stroke="black" points="815.21,-252 642.79,-252 642.79,-216 815.21,-216 815.21,-252"/>
<text text-anchor="middle" x="729" y="-229.8" font-family="Times,serif" font-size="14.00">CourseStudentsComponent </text>
</g>
<!-- StudentsModule&#45;&gt;CourseStudentsComponent  -->
<g id="edge6" class="edge">
<title>StudentsModule&#45;&gt;CourseStudentsComponent </title>
<path fill="none" stroke="black" stroke-dasharray="5,2" d="M729,-187.11C729,-187.11 729,-205.99 729,-205.99"/>
<polygon fill="black" stroke="black" points="725.5,-205.99 729,-215.99 732.5,-205.99 725.5,-205.99"/>
</g>
<!-- MaterialModule -->
<g id="node4" class="node">
<title>MaterialModule</title>
<polygon fill="#8dd3c7" stroke="black" points="1232.47,-122 1229.47,-126 1208.47,-126 1205.47,-122 1125.53,-122 1125.53,-86 1232.47,-86 1232.47,-122"/>
<text text-anchor="middle" x="1179" y="-99.8" font-family="Times,serif" font-size="14.00">MaterialModule</text>
</g>
<!-- MaterialModule&#45;&gt;StudentsModule -->
<g id="edge3" class="edge">
<title>MaterialModule&#45;&gt;StudentsModule</title>
<path fill="none" stroke="black" d="M1179,-122.29C1179,-144.21 1179,-178 1179,-178 1179,-178 792.83,-178 792.83,-178"/>
<polygon fill="black" stroke="black" points="792.83,-174.5 782.83,-178 792.83,-181.5 792.83,-174.5"/>
</g>
<!-- SharedModule -->
<g id="node5" class="node">
<title>SharedModule</title>
<polygon fill="#8dd3c7" stroke="black" points="1107.42,-122 1104.42,-126 1083.42,-126 1080.42,-122 1008.58,-122 1008.58,-86 1107.42,-86 1107.42,-122"/>
<text text-anchor="middle" x="1058" y="-99.8" font-family="Times,serif" font-size="14.00">SharedModule</text>
</g>
<!-- SharedModule&#45;&gt;StudentsModule -->
<g id="edge4" class="edge">
<title>SharedModule&#45;&gt;StudentsModule</title>
<path fill="none" stroke="black" d="M1058,-122.11C1058,-141.34 1058,-169 1058,-169 1058,-169 792.96,-169 792.96,-169"/>
<polygon fill="black" stroke="black" points="792.96,-165.5 782.96,-169 792.96,-172.5 792.96,-165.5"/>
</g>
<!-- StudentsRoutingModule -->
<g id="node6" class="node">
<title>StudentsRoutingModule</title>
<polygon fill="#8dd3c7" stroke="black" points="990.39,-122 987.39,-126 966.39,-126 963.39,-122 837.61,-122 837.61,-86 990.39,-86 990.39,-122"/>
<text text-anchor="middle" x="914" y="-99.8" font-family="Times,serif" font-size="14.00">StudentsRoutingModule</text>
</g>
<!-- StudentsRoutingModule&#45;&gt;StudentsModule -->
<g id="edge5" class="edge">
<title>StudentsRoutingModule&#45;&gt;StudentsModule</title>
<path fill="none" stroke="black" d="M914,-122.03C914,-138.4 914,-160 914,-160 914,-160 793.01,-160 793.01,-160"/>
<polygon fill="black" stroke="black" points="793.01,-156.5 783.01,-160 793.01,-163.5 793.01,-156.5"/>
</g>
<!-- StudentDataService -->
<g id="node8" class="node">
<title>StudentDataService</title>
<ellipse fill="#fdb462" stroke="black" cx="316" cy="-104" rx="87.96" ry="18"/>
<text text-anchor="middle" x="316" y="-99.8" font-family="Times,serif" font-size="14.00">StudentDataService</text>
</g>
<!-- StudentDataService&#45;&gt;StudentsModule -->
<g id="edge7" class="edge">
<title>StudentDataService&#45;&gt;StudentsModule</title>
<path fill="none" stroke="black" d="M316,-122.11C316,-141.34 316,-169 316,-169 316,-169 665.01,-169 665.01,-169"/>
<polygon fill="black" stroke="black" points="665.01,-172.5 675.01,-169 665.01,-165.5 665.01,-172.5"/>
</g>
<!-- StudentEntityService -->
<g id="node9" class="node">
<title>StudentEntityService</title>
<ellipse fill="#fdb462" stroke="black" cx="117" cy="-104" rx="93.21" ry="18"/>
<text text-anchor="middle" x="117" y="-99.8" font-family="Times,serif" font-size="14.00">StudentEntityService</text>
</g>
<!-- StudentEntityService&#45;&gt;StudentsModule -->
<g id="edge8" class="edge">
<title>StudentEntityService&#45;&gt;StudentsModule</title>
<path fill="none" stroke="black" d="M117,-122.29C117,-144.21 117,-178 117,-178 117,-178 665.23,-178 665.23,-178"/>
<polygon fill="black" stroke="black" points="665.23,-181.5 675.23,-178 665.23,-174.5 665.23,-181.5"/>
</g>
</g>
</svg>
