<?xml version="1.0" encoding="UTF-8" standalone="no"?>
<!DOCTYPE svg PUBLIC "-//W3C//DTD SVG 1.1//EN"
 "http://www.w3.org/Graphics/SVG/1.1/DTD/svg11.dtd">
<!-- Generated by graphviz version 2.46.0 (20210119.1425)
 -->
<!-- Title: dependencies Pages: 1 -->
<svg width="1264pt" height="284pt"
 viewBox="0.00 0.00 1264.00 284.00" xmlns="http://www.w3.org/2000/svg" xmlns:xlink="http://www.w3.org/1999/xlink">
<g id="graph0" class="graph" transform="scale(1 1) rotate(0) translate(4 280)">
<title>dependencies</title>
<polygon fill="white" stroke="transparent" points="-4,4 -4,-280 1260,-280 1260,4 -4,4"/>
<text text-anchor="start" x="607.01" y="-42.4" font-family="sans-serif" font-weight="bold" font-size="14.00">Legend</text>
<polygon fill="#ffffb3" stroke="transparent" points="394,-10 394,-30 414,-30 414,-10 394,-10"/>
<text text-anchor="start" x="417.63" y="-15.4" font-family="sans-serif" font-size="14.00"> &#160;Declarations</text>
<polygon fill="#8dd3c7" stroke="transparent" points="507,-10 507,-30 527,-30 527,-10 507,-10"/>
<text text-anchor="start" x="530.73" y="-15.4" font-family="sans-serif" font-size="14.00"> &#160;Module</text>
<polygon fill="#80b1d3" stroke="transparent" points="593,-10 593,-30 613,-30 613,-10 593,-10"/>
<text text-anchor="start" x="616.78" y="-15.4" font-family="sans-serif" font-size="14.00"> &#160;Bootstrap</text>
<polygon fill="#fdb462" stroke="transparent" points="690,-10 690,-30 710,-30 710,-10 690,-10"/>
<text text-anchor="start" x="713.67" y="-15.4" font-family="sans-serif" font-size="14.00"> &#160;Providers</text>
<polygon fill="#fb8072" stroke="transparent" points="786,-10 786,-30 806,-30 806,-10 786,-10"/>
<text text-anchor="start" x="809.73" y="-15.4" font-family="sans-serif" font-size="14.00"> &#160;Exports</text>
<g id="clust1" class="cluster">
<title>cluster_StudentsModule</title>
<polygon fill="none" stroke="black" stroke-dasharray="1,5" points="8,-70 8,-268 1248,-268 1248,-70 8,-70"/>
</g>
<g id="clust8" class="cluster">
<title>cluster_StudentsModule_providers</title>
<polygon fill="none" stroke="black" points="844,-78 844,-130 1240,-130 1240,-78 844,-78"/>
</g>
<g id="clust5" class="cluster">
<title>cluster_StudentsModule_imports</title>
<polygon fill="none" stroke="black" points="426,-78 426,-130 836,-130 836,-78 426,-78"/>
</g>
<g id="clust6" class="cluster">
<title>cluster_StudentsModule_exports</title>
<polygon fill="none" stroke="black" points="560,-208 560,-260 748,-260 748,-208 560,-208"/>
</g>
<g id="clust2" class="cluster">
<title>cluster_StudentsModule_declarations</title>
<polygon fill="none" stroke="black" points="16,-78 16,-130 418,-130 418,-78 16,-78"/>
</g>
<!-- CourseStudentsComponent -->
<g id="node1" class="node">
<title>CourseStudentsComponent</title>
<polygon fill="#ffffb3" stroke="black" points="409.71,-122 240.29,-122 240.29,-86 409.71,-86 409.71,-122"/>
<text text-anchor="middle" x="325" y="-99.8" font-family="Times,serif" font-size="14.00">CourseStudentsComponent</text>
</g>
<!-- StudentsModule -->
<g id="node3" class="node">
<title>StudentsModule</title>
<polygon fill="#8dd3c7" stroke="black" points="707.77,-187 704.77,-191 683.77,-191 680.77,-187 600.23,-187 600.23,-151 707.77,-151 707.77,-187"/>
<text text-anchor="middle" x="654" y="-164.8" font-family="Times,serif" font-size="14.00">StudentsModule</text>
</g>
<!-- CourseStudentsComponent&#45;&gt;StudentsModule -->
<g id="edge1" class="edge">
<title>CourseStudentsComponent&#45;&gt;StudentsModule</title>
<path fill="none" stroke="black" d="M325,-122.11C325,-141.34 325,-169 325,-169 325,-169 590.04,-169 590.04,-169"/>
<polygon fill="black" stroke="black" points="590.04,-172.5 600.04,-169 590.04,-165.5 590.04,-172.5"/>
</g>
<!-- GuardiansListDialogComponent -->
<g id="node2" class="node">
<title>GuardiansListDialogComponent</title>
<polygon fill="#ffffb3" stroke="black" points="222.24,-122 23.76,-122 23.76,-86 222.24,-86 222.24,-122"/>
<text text-anchor="middle" x="123" y="-99.8" font-family="Times,serif" font-size="14.00">GuardiansListDialogComponent</text>
</g>
<!-- GuardiansListDialogComponent&#45;&gt;StudentsModule -->
<g id="edge2" class="edge">
<title>GuardiansListDialogComponent&#45;&gt;StudentsModule</title>
<path fill="none" stroke="black" d="M123,-122.29C123,-144.21 123,-178 123,-178 123,-178 590.16,-178 590.16,-178"/>
<polygon fill="black" stroke="black" points="590.16,-181.5 600.16,-178 590.16,-174.5 590.16,-181.5"/>
</g>
<!-- CourseStudentsComponent  -->
<g id="node7" class="node">
<title>CourseStudentsComponent </title>
<polygon fill="#fb8072" stroke="black" points="740.21,-252 567.79,-252 567.79,-216 740.21,-216 740.21,-252"/>
<text text-anchor="middle" x="654" y="-229.8" font-family="Times,serif" font-size="14.00">CourseStudentsComponent </text>
</g>
<!-- StudentsModule&#45;&gt;CourseStudentsComponent  -->
<g id="edge6" class="edge">
<title>StudentsModule&#45;&gt;CourseStudentsComponent </title>
<path fill="none" stroke="black" stroke-dasharray="5,2" d="M654,-187.11C654,-187.11 654,-205.99 654,-205.99"/>
<polygon fill="black" stroke="black" points="650.5,-205.99 654,-215.99 657.5,-205.99 650.5,-205.99"/>
</g>
<!-- MaterialModule -->
<g id="node4" class="node">
<title>MaterialModule</title>
<polygon fill="#8dd3c7" stroke="black" points="828.47,-122 825.47,-126 804.47,-126 801.47,-122 721.53,-122 721.53,-86 828.47,-86 828.47,-122"/>
<text text-anchor="middle" x="775" y="-99.8" font-family="Times,serif" font-size="14.00">MaterialModule</text>
</g>
<!-- MaterialModule&#45;&gt;StudentsModule -->
<g id="edge3" class="edge">
<title>MaterialModule&#45;&gt;StudentsModule</title>
<path fill="none" stroke="black" d="M730.94,-122.03C730.94,-138.4 730.94,-160 730.94,-160 730.94,-160 717.85,-160 717.85,-160"/>
<polygon fill="black" stroke="black" points="717.85,-156.5 707.85,-160 717.85,-163.5 717.85,-156.5"/>
</g>
<!-- SharedModule -->
<g id="node5" class="node">
<title>SharedModule</title>
<polygon fill="#8dd3c7" stroke="black" points="703.42,-122 700.42,-126 679.42,-126 676.42,-122 604.58,-122 604.58,-86 703.42,-86 703.42,-122"/>
<text text-anchor="middle" x="654" y="-99.8" font-family="Times,serif" font-size="14.00">SharedModule</text>
</g>
<!-- SharedModule&#45;&gt;StudentsModule -->
<g id="edge4" class="edge">
<title>SharedModule&#45;&gt;StudentsModule</title>
<path fill="none" stroke="black" d="M654,-122.11C654,-122.11 654,-140.99 654,-140.99"/>
<polygon fill="black" stroke="black" points="650.5,-140.99 654,-150.99 657.5,-140.99 650.5,-140.99"/>
</g>
<!-- StudentsRoutingModule -->
<g id="node6" class="node">
<title>StudentsRoutingModule</title>
<polygon fill="#8dd3c7" stroke="black" points="586.39,-122 583.39,-126 562.39,-126 559.39,-122 433.61,-122 433.61,-86 586.39,-86 586.39,-122"/>
<text text-anchor="middle" x="510" y="-99.8" font-family="Times,serif" font-size="14.00">StudentsRoutingModule</text>
</g>
<!-- StudentsRoutingModule&#45;&gt;StudentsModule -->
<g id="edge5" class="edge">
<title>StudentsRoutingModule&#45;&gt;StudentsModule</title>
<path fill="none" stroke="black" d="M577.04,-122.03C577.04,-138.4 577.04,-160 577.04,-160 577.04,-160 590.13,-160 590.13,-160"/>
<polygon fill="black" stroke="black" points="590.13,-163.5 600.13,-160 590.13,-156.5 590.13,-163.5"/>
</g>
<!-- StudentDataService -->
<g id="node8" class="node">
<title>StudentDataService</title>
<ellipse fill="#fdb462" stroke="black" cx="1144" cy="-104" rx="87.96" ry="18"/>
<text text-anchor="middle" x="1144" y="-99.8" font-family="Times,serif" font-size="14.00">StudentDataService</text>
</g>
<!-- StudentDataService&#45;&gt;StudentsModule -->
<g id="edge7" class="edge">
<title>StudentDataService&#45;&gt;StudentsModule</title>
<path fill="none" stroke="black" d="M1144,-122.29C1144,-144.21 1144,-178 1144,-178 1144,-178 717.84,-178 717.84,-178"/>
<polygon fill="black" stroke="black" points="717.84,-174.5 707.84,-178 717.84,-181.5 717.84,-174.5"/>
</g>
<!-- StudentEntityService -->
<g id="node9" class="node">
<title>StudentEntityService</title>
<ellipse fill="#fdb462" stroke="black" cx="945" cy="-104" rx="93.21" ry="18"/>
<text text-anchor="middle" x="945" y="-99.8" font-family="Times,serif" font-size="14.00">StudentEntityService</text>
</g>
<!-- StudentEntityService&#45;&gt;StudentsModule -->
<g id="edge8" class="edge">
<title>StudentEntityService&#45;&gt;StudentsModule</title>
<path fill="none" stroke="black" d="M945,-122.11C945,-141.34 945,-169 945,-169 945,-169 718.05,-169 718.05,-169"/>
<polygon fill="black" stroke="black" points="718.05,-165.5 708.05,-169 718.05,-172.5 718.05,-165.5"/>
</g>
</g>
</svg>
