<?xml version="1.0" encoding="UTF-8" standalone="no"?>
<!DOCTYPE svg PUBLIC "-//W3C//DTD SVG 1.1//EN"
 "http://www.w3.org/Graphics/SVG/1.1/DTD/svg11.dtd">
<!-- Generated by graphviz version 2.47.0 (20210316.0004)
 -->
<!-- Title: dependencies Pages: 1 -->
<svg width="3766pt" height="284pt"
 viewBox="0.00 0.00 3766.00 284.00" xmlns="http://www.w3.org/2000/svg" xmlns:xlink="http://www.w3.org/1999/xlink">
<g id="graph0" class="graph" transform="scale(1 1) rotate(0) translate(4 280)">
<title>dependencies</title>
<polygon fill="white" stroke="transparent" points="-4,4 -4,-280 3762,-280 3762,4 -4,4"/>
<text text-anchor="start" x="1858.01" y="-42.4" font-family="sans-serif" font-weight="bold" font-size="14.00">Legend</text>
<polygon fill="#ffffb3" stroke="transparent" points="1645,-10 1645,-30 1665,-30 1665,-10 1645,-10"/>
<text text-anchor="start" x="1668.63" y="-15.4" font-family="sans-serif" font-size="14.00"> &#160;Declarations</text>
<polygon fill="#8dd3c7" stroke="transparent" points="1758,-10 1758,-30 1778,-30 1778,-10 1758,-10"/>
<text text-anchor="start" x="1781.73" y="-15.4" font-family="sans-serif" font-size="14.00"> &#160;Module</text>
<polygon fill="#80b1d3" stroke="transparent" points="1844,-10 1844,-30 1864,-30 1864,-10 1844,-10"/>
<text text-anchor="start" x="1867.78" y="-15.4" font-family="sans-serif" font-size="14.00"> &#160;Bootstrap</text>
<polygon fill="#fdb462" stroke="transparent" points="1941,-10 1941,-30 1961,-30 1961,-10 1941,-10"/>
<text text-anchor="start" x="1964.67" y="-15.4" font-family="sans-serif" font-size="14.00"> &#160;Providers</text>
<polygon fill="#fb8072" stroke="transparent" points="2037,-10 2037,-30 2057,-30 2057,-10 2037,-10"/>
<text text-anchor="start" x="2060.73" y="-15.4" font-family="sans-serif" font-size="14.00"> &#160;Exports</text>
<g id="clust1" class="cluster">
<title>cluster_AdminModule</title>
<polygon fill="none" stroke="black" stroke-dasharray="1,5" points="8,-70 8,-268 3750,-268 3750,-70 8,-70"/>
</g>
<g id="clust2" class="cluster">
<title>cluster_AdminModule_declarations</title>
<polygon fill="none" stroke="black" points="1804,-78 1804,-130 3742,-130 3742,-78 1804,-78"/>
</g>
<g id="clust16" class="cluster">
<title>cluster_AdminModule_exports</title>
<polygon fill="none" stroke="black" points="1899,-208 1899,-260 2039,-260 2039,-208 1899,-208"/>
</g>
<g id="clust15" class="cluster">
<title>cluster_AdminModule_imports</title>
<polygon fill="none" stroke="black" points="1395,-78 1395,-130 1796,-130 1796,-78 1395,-78"/>
</g>
<g id="clust18" class="cluster">
<title>cluster_AdminModule_providers</title>
<polygon fill="none" stroke="black" points="16,-78 16,-130 1387,-130 1387,-78 16,-78"/>
</g>
<!-- AddUserGroupComponent -->
<g id="node1" class="node">
<title>AddUserGroupComponent</title>
<polygon fill="#ffffb3" stroke="black" points="3733.63,-122 3566.37,-122 3566.37,-86 3733.63,-86 3733.63,-122"/>
<text text-anchor="middle" x="3650" y="-99.8" font-family="Times,serif" font-size="14.00">AddUserGroupComponent</text>
</g>
<!-- AdminModule -->
<g id="node13" class="node">
<title>AdminModule</title>
<polygon fill="#8dd3c7" stroke="black" points="2018.44,-187 2015.44,-191 1994.44,-191 1991.44,-187 1919.56,-187 1919.56,-151 2018.44,-151 2018.44,-187"/>
<text text-anchor="middle" x="1969" y="-164.8" font-family="Times,serif" font-size="14.00">AdminModule</text>
</g>
<!-- AddUserGroupComponent&#45;&gt;AdminModule -->
<g id="edge1" class="edge">
<title>AddUserGroupComponent&#45;&gt;AdminModule</title>
<path fill="none" stroke="black" d="M3650,-122.15C3650,-145.76 3650,-184 3650,-184 3650,-184 2028.4,-184 2028.4,-184"/>
<polygon fill="black" stroke="black" points="2028.4,-180.5 2018.4,-184 2028.4,-187.5 2028.4,-180.5"/>
</g>
<!-- AdminComponent -->
<g id="node2" class="node">
<title>AdminComponent</title>
<polygon fill="#ffffb3" stroke="black" points="3548.22,-122 3427.78,-122 3427.78,-86 3548.22,-86 3548.22,-122"/>
<text text-anchor="middle" x="3488" y="-99.8" font-family="Times,serif" font-size="14.00">AdminComponent</text>
</g>
<!-- AdminComponent&#45;&gt;AdminModule -->
<g id="edge2" class="edge">
<title>AdminComponent&#45;&gt;AdminModule</title>
<path fill="none" stroke="black" d="M3488,-122.25C3488,-145.02 3488,-181 3488,-181 3488,-181 2028.25,-181 2028.25,-181"/>
<polygon fill="black" stroke="black" points="2028.25,-177.5 2018.25,-181 2028.25,-184.5 2028.25,-177.5"/>
</g>
<!-- AdminWellcomeComponent -->
<g id="node3" class="node">
<title>AdminWellcomeComponent</title>
<polygon fill="#ffffb3" stroke="black" points="3409.75,-122 3232.25,-122 3232.25,-86 3409.75,-86 3409.75,-122"/>
<text text-anchor="middle" x="3321" y="-99.8" font-family="Times,serif" font-size="14.00">AdminWellcomeComponent</text>
</g>
<!-- AdminWellcomeComponent&#45;&gt;AdminModule -->
<g id="edge3" class="edge">
<title>AdminWellcomeComponent&#45;&gt;AdminModule</title>
<path fill="none" stroke="black" d="M3321,-122.29C3321,-144.21 3321,-178 3321,-178 3321,-178 2028.32,-178 2028.32,-178"/>
<polygon fill="black" stroke="black" points="2028.32,-174.5 2018.32,-178 2028.32,-181.5 2028.32,-174.5"/>
</g>
<!-- GroupComponent -->
<g id="node4" class="node">
<title>GroupComponent</title>
<polygon fill="#ffffb3" stroke="black" points="3214.6,-122 3097.4,-122 3097.4,-86 3214.6,-86 3214.6,-122"/>
<text text-anchor="middle" x="3156" y="-99.8" font-family="Times,serif" font-size="14.00">GroupComponent</text>
</g>
<!-- GroupComponent&#45;&gt;AdminModule -->
<g id="edge4" class="edge">
<title>GroupComponent&#45;&gt;AdminModule</title>
<path fill="none" stroke="black" d="M3156,-122.03C3156,-142.77 3156,-174 3156,-174 3156,-174 2028.49,-174 2028.49,-174"/>
<polygon fill="black" stroke="black" points="2028.49,-170.5 2018.49,-174 2028.49,-177.5 2028.49,-170.5"/>
</g>
<!-- GroupDialogComponent -->
<g id="node5" class="node">
<title>GroupDialogComponent</title>
<polygon fill="#ffffb3" stroke="black" points="3079.7,-122 2924.3,-122 2924.3,-86 3079.7,-86 3079.7,-122"/>
<text text-anchor="middle" x="3002" y="-99.8" font-family="Times,serif" font-size="14.00">GroupDialogComponent</text>
</g>
<!-- GroupDialogComponent&#45;&gt;AdminModule -->
<g id="edge5" class="edge">
<title>GroupDialogComponent&#45;&gt;AdminModule</title>
<path fill="none" stroke="black" d="M3002,-122.31C3002,-142.15 3002,-171 3002,-171 3002,-171 2028.48,-171 2028.48,-171"/>
<polygon fill="black" stroke="black" points="2028.48,-167.5 2018.48,-171 2028.48,-174.5 2028.48,-167.5"/>
</g>
<!-- GroupTableComponent -->
<g id="node6" class="node">
<title>GroupTableComponent</title>
<polygon fill="#ffffb3" stroke="black" points="2906.47,-122 2757.53,-122 2757.53,-86 2906.47,-86 2906.47,-122"/>
<text text-anchor="middle" x="2832" y="-99.8" font-family="Times,serif" font-size="14.00">GroupTableComponent</text>
</g>
<!-- GroupTableComponent&#45;&gt;AdminModule -->
<g id="edge6" class="edge">
<title>GroupTableComponent&#45;&gt;AdminModule</title>
<path fill="none" stroke="black" d="M2832,-122.17C2832,-141.09 2832,-168 2832,-168 2832,-168 2028.5,-168 2028.5,-168"/>
<polygon fill="black" stroke="black" points="2028.5,-164.5 2018.5,-168 2028.5,-171.5 2028.5,-164.5"/>
</g>
<!-- GroupsComponent -->
<g id="node7" class="node">
<title>GroupsComponent</title>
<polygon fill="#ffffb3" stroke="black" points="2739.05,-122 2616.95,-122 2616.95,-86 2739.05,-86 2739.05,-122"/>
<text text-anchor="middle" x="2678" y="-99.8" font-family="Times,serif" font-size="14.00">GroupsComponent</text>
</g>
<!-- GroupsComponent&#45;&gt;AdminModule -->
<g id="edge7" class="edge">
<title>GroupsComponent&#45;&gt;AdminModule</title>
<path fill="none" stroke="black" d="M2678,-122.3C2678,-140.27 2678,-165 2678,-165 2678,-165 2028.29,-165 2028.29,-165"/>
<polygon fill="black" stroke="black" points="2028.29,-161.5 2018.29,-165 2028.29,-168.5 2028.29,-161.5"/>
</g>
<!-- SchoolHomeComponent -->
<g id="node8" class="node">
<title>SchoolHomeComponent</title>
<polygon fill="#ffffb3" stroke="black" points="2599.43,-122 2444.57,-122 2444.57,-86 2599.43,-86 2599.43,-122"/>
<text text-anchor="middle" x="2522" y="-99.8" font-family="Times,serif" font-size="14.00">SchoolHomeComponent</text>
</g>
<!-- SchoolHomeComponent&#45;&gt;AdminModule -->
<g id="edge8" class="edge">
<title>SchoolHomeComponent&#45;&gt;AdminModule</title>
<path fill="none" stroke="black" d="M2522,-122.04C2522,-138.73 2522,-161 2522,-161 2522,-161 2028.56,-161 2028.56,-161"/>
<polygon fill="black" stroke="black" points="2028.56,-157.5 2018.56,-161 2028.56,-164.5 2028.56,-157.5"/>
</g>
<!-- UserDetailsComponent -->
<g id="node9" class="node">
<title>UserDetailsComponent</title>
<polygon fill="#ffffb3" stroke="black" points="2426.91,-122 2279.09,-122 2279.09,-86 2426.91,-86 2426.91,-122"/>
<text text-anchor="middle" x="2353" y="-99.8" font-family="Times,serif" font-size="14.00">UserDetailsComponent</text>
</g>
<!-- UserDetailsComponent&#45;&gt;AdminModule -->
<g id="edge9" class="edge">
<title>UserDetailsComponent&#45;&gt;AdminModule</title>
<path fill="none" stroke="black" d="M2353,-122.28C2353,-137.95 2353,-158 2353,-158 2353,-158 2028.42,-158 2028.42,-158"/>
<polygon fill="black" stroke="black" points="2028.42,-154.5 2018.42,-158 2028.42,-161.5 2028.42,-154.5"/>
</g>
<!-- UsersComponent -->
<g id="node10" class="node">
<title>UsersComponent</title>
<polygon fill="#ffffb3" stroke="black" points="2261.7,-122 2148.3,-122 2148.3,-86 2261.7,-86 2261.7,-122"/>
<text text-anchor="middle" x="2205" y="-99.8" font-family="Times,serif" font-size="14.00">UsersComponent</text>
</g>
<!-- UsersComponent&#45;&gt;AdminModule -->
<g id="edge10" class="edge">
<title>UsersComponent&#45;&gt;AdminModule</title>
<path fill="none" stroke="black" d="M2205,-122.12C2205,-136.78 2205,-155 2205,-155 2205,-155 2028.47,-155 2028.47,-155"/>
<polygon fill="black" stroke="black" points="2028.47,-151.5 2018.47,-155 2028.47,-158.5 2028.47,-151.5"/>
</g>
<!-- UsersGroupsComponent -->
<g id="node11" class="node">
<title>UsersGroupsComponent</title>
<polygon fill="#ffffb3" stroke="black" points="2130.42,-122 1975.58,-122 1975.58,-86 2130.42,-86 2130.42,-122"/>
<text text-anchor="middle" x="2053" y="-99.8" font-family="Times,serif" font-size="14.00">UsersGroupsComponent</text>
</g>
<!-- UsersGroupsComponent&#45;&gt;AdminModule -->
<g id="edge11" class="edge">
<title>UsersGroupsComponent&#45;&gt;AdminModule</title>
<path fill="none" stroke="black" d="M1997.01,-122.11C1997.01,-122.11 1997.01,-140.99 1997.01,-140.99"/>
<polygon fill="black" stroke="black" points="1993.51,-140.99 1997.01,-150.99 2000.51,-140.99 1993.51,-140.99"/>
</g>
<!-- UsersTableComponent -->
<g id="node12" class="node">
<title>UsersTableComponent</title>
<polygon fill="#ffffb3" stroke="black" points="1957.58,-122 1812.42,-122 1812.42,-86 1957.58,-86 1957.58,-122"/>
<text text-anchor="middle" x="1885" y="-99.8" font-family="Times,serif" font-size="14.00">UsersTableComponent</text>
</g>
<!-- UsersTableComponent&#45;&gt;AdminModule -->
<g id="edge12" class="edge">
<title>UsersTableComponent&#45;&gt;AdminModule</title>
<path fill="none" stroke="black" d="M1938.66,-122.11C1938.66,-122.11 1938.66,-140.99 1938.66,-140.99"/>
<polygon fill="black" stroke="black" points="1935.16,-140.99 1938.66,-150.99 1942.16,-140.99 1935.16,-140.99"/>
</g>
<!-- AdminComponent  -->
<g id="node17" class="node">
<title>AdminComponent </title>
<polygon fill="#fb8072" stroke="black" points="2030.72,-252 1907.28,-252 1907.28,-216 2030.72,-216 2030.72,-252"/>
<text text-anchor="middle" x="1969" y="-229.8" font-family="Times,serif" font-size="14.00">AdminComponent </text>
</g>
<!-- AdminModule&#45;&gt;AdminComponent  -->
<g id="edge16" class="edge">
<title>AdminModule&#45;&gt;AdminComponent </title>
<path fill="none" stroke="black" stroke-dasharray="5,2" d="M1969,-187.11C1969,-187.11 1969,-205.99 1969,-205.99"/>
<polygon fill="black" stroke="black" points="1965.5,-205.99 1969,-215.99 1972.5,-205.99 1965.5,-205.99"/>
</g>
<!-- AdminRoutingModule -->
<g id="node14" class="node">
<title>AdminRoutingModule</title>
<polygon fill="#8dd3c7" stroke="black" points="1787.56,-122 1784.56,-126 1763.56,-126 1760.56,-122 1644.44,-122 1644.44,-86 1787.56,-86 1787.56,-122"/>
<text text-anchor="middle" x="1716" y="-99.8" font-family="Times,serif" font-size="14.00">AdminRoutingModule</text>
</g>
<!-- AdminRoutingModule&#45;&gt;AdminModule -->
<g id="edge13" class="edge">
<title>AdminRoutingModule&#45;&gt;AdminModule</title>
<path fill="none" stroke="black" d="M1716,-122.12C1716,-136.78 1716,-155 1716,-155 1716,-155 1909.62,-155 1909.62,-155"/>
<polygon fill="black" stroke="black" points="1909.62,-158.5 1919.62,-155 1909.62,-151.5 1909.62,-158.5"/>
</g>
<!-- MaterialModule -->
<g id="node15" class="node">
<title>MaterialModule</title>
<polygon fill="#8dd3c7" stroke="black" points="1626.47,-122 1623.47,-126 1602.47,-126 1599.47,-122 1519.53,-122 1519.53,-86 1626.47,-86 1626.47,-122"/>
<text text-anchor="middle" x="1573" y="-99.8" font-family="Times,serif" font-size="14.00">MaterialModule</text>
</g>
<!-- MaterialModule&#45;&gt;AdminModule -->
<g id="edge14" class="edge">
<title>MaterialModule&#45;&gt;AdminModule</title>
<path fill="none" stroke="black" d="M1573,-122.28C1573,-137.95 1573,-158 1573,-158 1573,-158 1909.65,-158 1909.65,-158"/>
<polygon fill="black" stroke="black" points="1909.65,-161.5 1919.65,-158 1909.65,-154.5 1909.65,-161.5"/>
</g>
<!-- SharedModule -->
<g id="node16" class="node">
<title>SharedModule</title>
<polygon fill="#8dd3c7" stroke="black" points="1501.42,-122 1498.42,-126 1477.42,-126 1474.42,-122 1402.58,-122 1402.58,-86 1501.42,-86 1501.42,-122"/>
<text text-anchor="middle" x="1452" y="-99.8" font-family="Times,serif" font-size="14.00">SharedModule</text>
</g>
<!-- SharedModule&#45;&gt;AdminModule -->
<g id="edge15" class="edge">
<title>SharedModule&#45;&gt;AdminModule</title>
<path fill="none" stroke="black" d="M1452,-122.04C1452,-138.73 1452,-161 1452,-161 1452,-161 1909.43,-161 1909.43,-161"/>
<polygon fill="black" stroke="black" points="1909.43,-164.5 1919.43,-161 1909.43,-157.5 1909.43,-164.5"/>
</g>
<!-- AdminApiService -->
<g id="node18" class="node">
<title>AdminApiService</title>
<ellipse fill="#fdb462" stroke="black" cx="1298" cy="-104" rx="81.1" ry="18"/>
<text text-anchor="middle" x="1298" y="-99.8" font-family="Times,serif" font-size="14.00">AdminApiService</text>
</g>
<!-- AdminApiService&#45;&gt;AdminModule -->
<g id="edge17" class="edge">
<title>AdminApiService&#45;&gt;AdminModule</title>
<path fill="none" stroke="black" d="M1298,-122.3C1298,-140.27 1298,-165 1298,-165 1298,-165 1909.66,-165 1909.66,-165"/>
<polygon fill="black" stroke="black" points="1909.66,-168.5 1919.66,-165 1909.66,-161.5 1909.66,-168.5"/>
</g>
<!-- AdminFireService -->
<g id="node19" class="node">
<title>AdminFireService</title>
<ellipse fill="#fdb462" stroke="black" cx="1116" cy="-104" rx="82.24" ry="18"/>
<text text-anchor="middle" x="1116" y="-99.8" font-family="Times,serif" font-size="14.00">AdminFireService</text>
</g>
<!-- AdminFireService&#45;&gt;AdminModule -->
<g id="edge18" class="edge">
<title>AdminFireService&#45;&gt;AdminModule</title>
<path fill="none" stroke="black" d="M1116,-122.17C1116,-141.09 1116,-168 1116,-168 1116,-168 1909.76,-168 1909.76,-168"/>
<polygon fill="black" stroke="black" points="1909.76,-171.5 1919.76,-168 1909.76,-164.5 1909.76,-171.5"/>
</g>
<!-- GroupDataService -->
<g id="node20" class="node">
<title>GroupDataService</title>
<ellipse fill="#fdb462" stroke="black" cx="933" cy="-104" rx="82.78" ry="18"/>
<text text-anchor="middle" x="933" y="-99.8" font-family="Times,serif" font-size="14.00">GroupDataService</text>
</g>
<!-- GroupDataService&#45;&gt;AdminModule -->
<g id="edge19" class="edge">
<title>GroupDataService&#45;&gt;AdminModule</title>
<path fill="none" stroke="black" d="M933,-122.31C933,-142.15 933,-171 933,-171 933,-171 1909.73,-171 1909.73,-171"/>
<polygon fill="black" stroke="black" points="1909.73,-174.5 1919.73,-171 1909.73,-167.5 1909.73,-174.5"/>
</g>
<!-- GroupEntityService -->
<g id="node21" class="node">
<title>GroupEntityService</title>
<ellipse fill="#fdb462" stroke="black" cx="744" cy="-104" rx="88.04" ry="18"/>
<text text-anchor="middle" x="744" y="-99.8" font-family="Times,serif" font-size="14.00">GroupEntityService</text>
</g>
<!-- GroupEntityService&#45;&gt;AdminModule -->
<g id="edge20" class="edge">
<title>GroupEntityService&#45;&gt;AdminModule</title>
<path fill="none" stroke="black" d="M744,-122.03C744,-142.77 744,-174 744,-174 744,-174 1909.46,-174 1909.46,-174"/>
<polygon fill="black" stroke="black" points="1909.46,-177.5 1919.46,-174 1909.46,-170.5 1909.46,-177.5"/>
</g>
<!-- GroupsService -->
<g id="node22" class="node">
<title>GroupsService</title>
<ellipse fill="#fdb462" stroke="black" cx="569" cy="-104" rx="68.34" ry="18"/>
<text text-anchor="middle" x="569" y="-99.8" font-family="Times,serif" font-size="14.00">GroupsService</text>
</g>
<!-- GroupsService&#45;&gt;AdminModule -->
<g id="edge21" class="edge">
<title>GroupsService&#45;&gt;AdminModule</title>
<path fill="none" stroke="black" d="M569,-122.29C569,-144.21 569,-178 569,-178 569,-178 1909.58,-178 1909.58,-178"/>
<polygon fill="black" stroke="black" points="1909.58,-181.5 1919.58,-178 1909.58,-174.5 1909.58,-181.5"/>
</g>
<!-- UserDomainDataService -->
<g id="node23" class="node">
<title>UserDomainDataService</title>
<ellipse fill="#fdb462" stroke="black" cx="375" cy="-104" rx="107.62" ry="18"/>
<text text-anchor="middle" x="375" y="-99.8" font-family="Times,serif" font-size="14.00">UserDomainDataService</text>
</g>
<!-- UserDomainDataService&#45;&gt;AdminModule -->
<g id="edge22" class="edge">
<title>UserDomainDataService&#45;&gt;AdminModule</title>
<path fill="none" stroke="black" d="M375,-122.25C375,-145.02 375,-181 375,-181 375,-181 1909.55,-181 1909.55,-181"/>
<polygon fill="black" stroke="black" points="1909.55,-184.5 1919.55,-181 1909.55,-177.5 1909.55,-184.5"/>
</g>
<!-- UserDomainEntityService -->
<g id="node24" class="node">
<title>UserDomainEntityService</title>
<ellipse fill="#fdb462" stroke="black" cx="137" cy="-104" rx="112.88" ry="18"/>
<text text-anchor="middle" x="137" y="-99.8" font-family="Times,serif" font-size="14.00">UserDomainEntityService</text>
</g>
<!-- UserDomainEntityService&#45;&gt;AdminModule -->
<g id="edge23" class="edge">
<title>UserDomainEntityService&#45;&gt;AdminModule</title>
<path fill="none" stroke="black" d="M137,-122.15C137,-145.76 137,-184 137,-184 137,-184 1909.52,-184 1909.52,-184"/>
<polygon fill="black" stroke="black" points="1909.52,-187.5 1919.52,-184 1909.52,-180.5 1909.52,-187.5"/>
</g>
</g>
</svg>
