<?xml version="1.0" encoding="UTF-8" standalone="no"?>
<!DOCTYPE svg PUBLIC "-//W3C//DTD SVG 1.1//EN"
 "http://www.w3.org/Graphics/SVG/1.1/DTD/svg11.dtd">
<!-- Generated by graphviz version 2.47.0 (20210316.0004)
 -->
<!-- Title: dependencies Pages: 1 -->
<svg width="2187pt" height="284pt"
 viewBox="0.00 0.00 2187.00 284.00" xmlns="http://www.w3.org/2000/svg" xmlns:xlink="http://www.w3.org/1999/xlink">
<g id="graph0" class="graph" transform="scale(1 1) rotate(0) translate(4 280)">
<title>dependencies</title>
<polygon fill="white" stroke="transparent" points="-4,4 -4,-280 2183,-280 2183,4 -4,4"/>
<text text-anchor="start" x="1068.51" y="-42.4" font-family="sans-serif" font-weight="bold" font-size="14.00">Legend</text>
<polygon fill="#ffffb3" stroke="transparent" points="855.5,-10 855.5,-30 875.5,-30 875.5,-10 855.5,-10"/>
<text text-anchor="start" x="879.13" y="-15.4" font-family="sans-serif" font-size="14.00"> &#160;Declarations</text>
<polygon fill="#8dd3c7" stroke="transparent" points="968.5,-10 968.5,-30 988.5,-30 988.5,-10 968.5,-10"/>
<text text-anchor="start" x="992.23" y="-15.4" font-family="sans-serif" font-size="14.00"> &#160;Module</text>
<polygon fill="#80b1d3" stroke="transparent" points="1054.5,-10 1054.5,-30 1074.5,-30 1074.5,-10 1054.5,-10"/>
<text text-anchor="start" x="1078.28" y="-15.4" font-family="sans-serif" font-size="14.00"> &#160;Bootstrap</text>
<polygon fill="#fdb462" stroke="transparent" points="1151.5,-10 1151.5,-30 1171.5,-30 1171.5,-10 1151.5,-10"/>
<text text-anchor="start" x="1175.17" y="-15.4" font-family="sans-serif" font-size="14.00"> &#160;Providers</text>
<polygon fill="#fb8072" stroke="transparent" points="1247.5,-10 1247.5,-30 1267.5,-30 1267.5,-10 1247.5,-10"/>
<text text-anchor="start" x="1271.23" y="-15.4" font-family="sans-serif" font-size="14.00"> &#160;Exports</text>
<g id="clust1" class="cluster">
<title>cluster_AdminModule</title>
<polygon fill="none" stroke="black" stroke-dasharray="1,5" points="8,-70 8,-268 2171,-268 2171,-70 8,-70"/>
</g>
<g id="clust2" class="cluster">
<title>cluster_AdminModule_declarations</title>
<polygon fill="none" stroke="black" points="1286,-78 1286,-130 2163,-130 2163,-78 1286,-78"/>
</g>
<g id="clust8" class="cluster">
<title>cluster_AdminModule_exports</title>
<polygon fill="none" stroke="black" points="920,-208 920,-260 1190,-260 1190,-208 920,-208"/>
</g>
<g id="clust7" class="cluster">
<title>cluster_AdminModule_imports</title>
<polygon fill="none" stroke="black" points="877,-78 877,-130 1278,-130 1278,-78 877,-78"/>
</g>
<g id="clust10" class="cluster">
<title>cluster_AdminModule_providers</title>
<polygon fill="none" stroke="black" points="16,-78 16,-130 869,-130 869,-78 16,-78"/>
</g>
<!-- GroupTableComponent -->
<g id="node1" class="node">
<title>GroupTableComponent</title>
<polygon fill="#ffffb3" stroke="black" points="2155.47,-122 2006.53,-122 2006.53,-86 2155.47,-86 2155.47,-122"/>
<text text-anchor="middle" x="2081" y="-99.8" font-family="Times,serif" font-size="14.00">GroupTableComponent</text>
</g>
<!-- AdminModule -->
<g id="node5" class="node">
<title>AdminModule</title>
<polygon fill="#8dd3c7" stroke="black" points="1104.44,-187 1101.44,-191 1080.44,-191 1077.44,-187 1005.56,-187 1005.56,-151 1104.44,-151 1104.44,-187"/>
<text text-anchor="middle" x="1055" y="-164.8" font-family="Times,serif" font-size="14.00">AdminModule</text>
</g>
<!-- GroupTableComponent&#45;&gt;AdminModule -->
<g id="edge1" class="edge">
<title>GroupTableComponent&#45;&gt;AdminModule</title>
<path fill="none" stroke="black" d="M2081,-122.25C2081,-145.02 2081,-181 2081,-181 2081,-181 1114.49,-181 1114.49,-181"/>
<polygon fill="black" stroke="black" points="1114.49,-177.5 1104.49,-181 1114.49,-184.5 1114.49,-177.5"/>
</g>
<!-- SchoolHomeComponent -->
<g id="node2" class="node">
<title>SchoolHomeComponent</title>
<polygon fill="#ffffb3" stroke="black" points="1988.43,-122 1833.57,-122 1833.57,-86 1988.43,-86 1988.43,-122"/>
<text text-anchor="middle" x="1911" y="-99.8" font-family="Times,serif" font-size="14.00">SchoolHomeComponent</text>
</g>
<!-- SchoolHomeComponent&#45;&gt;AdminModule -->
<g id="edge2" class="edge">
<title>SchoolHomeComponent&#45;&gt;AdminModule</title>
<path fill="none" stroke="black" d="M1911,-122.28C1911,-143.32 1911,-175 1911,-175 1911,-175 1114.41,-175 1114.41,-175"/>
<polygon fill="black" stroke="black" points="1114.41,-171.5 1104.41,-175 1114.41,-178.5 1114.41,-171.5"/>
</g>
<!-- fromAdminComponents.adminComponents -->
<g id="node3" class="node">
<title>fromAdminComponents.adminComponents</title>
<polygon fill="#ffffb3" stroke="black" points="1816.15,-122 1553.85,-122 1553.85,-86 1816.15,-86 1816.15,-122"/>
<text text-anchor="middle" x="1685" y="-99.8" font-family="Times,serif" font-size="14.00">fromAdminComponents.adminComponents</text>
</g>
<!-- fromAdminComponents.adminComponents&#45;&gt;AdminModule -->
<g id="edge3" class="edge">
<title>fromAdminComponents.adminComponents&#45;&gt;AdminModule</title>
<path fill="none" stroke="black" d="M1685,-122.11C1685,-141.34 1685,-169 1685,-169 1685,-169 1114.44,-169 1114.44,-169"/>
<polygon fill="black" stroke="black" points="1114.44,-165.5 1104.44,-169 1114.44,-172.5 1114.44,-165.5"/>
</g>
<!-- fromAdminContainers.adminContainers -->
<g id="node4" class="node">
<title>fromAdminContainers.adminContainers</title>
<polygon fill="#ffffb3" stroke="black" points="1535.9,-122 1294.1,-122 1294.1,-86 1535.9,-86 1535.9,-122"/>
<text text-anchor="middle" x="1415" y="-99.8" font-family="Times,serif" font-size="14.00">fromAdminContainers.adminContainers</text>
</g>
<!-- fromAdminContainers.adminContainers&#45;&gt;AdminModule -->
<g id="edge4" class="edge">
<title>fromAdminContainers.adminContainers&#45;&gt;AdminModule</title>
<path fill="none" stroke="black" d="M1415,-122.02C1415,-139.37 1415,-163 1415,-163 1415,-163 1114.3,-163 1114.3,-163"/>
<polygon fill="black" stroke="black" points="1114.3,-159.5 1104.3,-163 1114.3,-166.5 1114.3,-159.5"/>
</g>
<!-- fromAdminContainers.AdminComponent  -->
<g id="node9" class="node">
<title>fromAdminContainers.AdminComponent </title>
<polygon fill="#fb8072" stroke="black" points="1181.97,-252 928.03,-252 928.03,-216 1181.97,-216 1181.97,-252"/>
<text text-anchor="middle" x="1055" y="-229.8" font-family="Times,serif" font-size="14.00">fromAdminContainers.AdminComponent </text>
</g>
<!-- AdminModule&#45;&gt;fromAdminContainers.AdminComponent  -->
<g id="edge8" class="edge">
<title>AdminModule&#45;&gt;fromAdminContainers.AdminComponent </title>
<path fill="none" stroke="black" stroke-dasharray="5,2" d="M1055,-187.11C1055,-187.11 1055,-205.99 1055,-205.99"/>
<polygon fill="black" stroke="black" points="1051.5,-205.99 1055,-215.99 1058.5,-205.99 1051.5,-205.99"/>
</g>
<!-- AdminRoutingModule -->
<g id="node6" class="node">
<title>AdminRoutingModule</title>
<polygon fill="#8dd3c7" stroke="black" points="1269.56,-122 1266.56,-126 1245.56,-126 1242.56,-122 1126.44,-122 1126.44,-86 1269.56,-86 1269.56,-122"/>
<text text-anchor="middle" x="1198" y="-99.8" font-family="Times,serif" font-size="14.00">AdminRoutingModule</text>
</g>
<!-- AdminRoutingModule&#45;&gt;AdminModule -->
<g id="edge5" class="edge">
<title>AdminRoutingModule&#45;&gt;AdminModule</title>
<path fill="none" stroke="black" d="M1154.1,-122.24C1154.1,-137.57 1154.1,-157 1154.1,-157 1154.1,-157 1114.26,-157 1114.26,-157"/>
<polygon fill="black" stroke="black" points="1114.26,-153.5 1104.26,-157 1114.26,-160.5 1114.26,-153.5"/>
</g>
<!-- MaterialModule -->
<g id="node7" class="node">
<title>MaterialModule</title>
<polygon fill="#8dd3c7" stroke="black" points="1108.47,-122 1105.47,-126 1084.47,-126 1081.47,-122 1001.53,-122 1001.53,-86 1108.47,-86 1108.47,-122"/>
<text text-anchor="middle" x="1055" y="-99.8" font-family="Times,serif" font-size="14.00">MaterialModule</text>
</g>
<!-- MaterialModule&#45;&gt;AdminModule -->
<g id="edge6" class="edge">
<title>MaterialModule&#45;&gt;AdminModule</title>
<path fill="none" stroke="black" d="M1055,-122.11C1055,-122.11 1055,-140.99 1055,-140.99"/>
<polygon fill="black" stroke="black" points="1051.5,-140.99 1055,-150.99 1058.5,-140.99 1051.5,-140.99"/>
</g>
<!-- SharedModule -->
<g id="node8" class="node">
<title>SharedModule</title>
<polygon fill="#8dd3c7" stroke="black" points="983.42,-122 980.42,-126 959.42,-126 956.42,-122 884.58,-122 884.58,-86 983.42,-86 983.42,-122"/>
<text text-anchor="middle" x="934" y="-99.8" font-family="Times,serif" font-size="14.00">SharedModule</text>
</g>
<!-- SharedModule&#45;&gt;AdminModule -->
<g id="edge7" class="edge">
<title>SharedModule&#45;&gt;AdminModule</title>
<path fill="none" stroke="black" d="M955.61,-122.24C955.61,-137.57 955.61,-157 955.61,-157 955.61,-157 995.6,-157 995.6,-157"/>
<polygon fill="black" stroke="black" points="995.6,-160.5 1005.6,-157 995.6,-153.5 995.6,-160.5"/>
</g>
<!-- GroupDataService -->
<g id="node10" class="node">
<title>GroupDataService</title>
<ellipse fill="#fdb462" stroke="black" cx="778" cy="-104" rx="82.78" ry="18"/>
<text text-anchor="middle" x="778" y="-99.8" font-family="Times,serif" font-size="14.00">GroupDataService</text>
</g>
<!-- GroupDataService&#45;&gt;AdminModule -->
<g id="edge9" class="edge">
<title>GroupDataService&#45;&gt;AdminModule</title>
<path fill="none" stroke="black" d="M778,-122.02C778,-139.37 778,-163 778,-163 778,-163 995.48,-163 995.48,-163"/>
<polygon fill="black" stroke="black" points="995.48,-166.5 1005.48,-163 995.48,-159.5 995.48,-166.5"/>
</g>
<!-- GroupEntityService -->
<g id="node11" class="node">
<title>GroupEntityService</title>
<ellipse fill="#fdb462" stroke="black" cx="589" cy="-104" rx="88.04" ry="18"/>
<text text-anchor="middle" x="589" y="-99.8" font-family="Times,serif" font-size="14.00">GroupEntityService</text>
</g>
<!-- GroupEntityService&#45;&gt;AdminModule -->
<g id="edge10" class="edge">
<title>GroupEntityService&#45;&gt;AdminModule</title>
<path fill="none" stroke="black" d="M589,-122.11C589,-141.34 589,-169 589,-169 589,-169 995.57,-169 995.57,-169"/>
<polygon fill="black" stroke="black" points="995.57,-172.5 1005.57,-169 995.57,-165.5 995.57,-172.5"/>
</g>
<!-- UserDomainDataService -->
<g id="node12" class="node">
<title>UserDomainDataService</title>
<ellipse fill="#fdb462" stroke="black" cx="375" cy="-104" rx="107.62" ry="18"/>
<text text-anchor="middle" x="375" y="-99.8" font-family="Times,serif" font-size="14.00">UserDomainDataService</text>
</g>
<!-- UserDomainDataService&#45;&gt;AdminModule -->
<g id="edge11" class="edge">
<title>UserDomainDataService&#45;&gt;AdminModule</title>
<path fill="none" stroke="black" d="M375,-122.28C375,-143.32 375,-175 375,-175 375,-175 995.55,-175 995.55,-175"/>
<polygon fill="black" stroke="black" points="995.55,-178.5 1005.55,-175 995.55,-171.5 995.55,-178.5"/>
</g>
<!-- UserDomainEntityService -->
<g id="node13" class="node">
<title>UserDomainEntityService</title>
<ellipse fill="#fdb462" stroke="black" cx="137" cy="-104" rx="112.88" ry="18"/>
<text text-anchor="middle" x="137" y="-99.8" font-family="Times,serif" font-size="14.00">UserDomainEntityService</text>
</g>
<!-- UserDomainEntityService&#45;&gt;AdminModule -->
<g id="edge12" class="edge">
<title>UserDomainEntityService&#45;&gt;AdminModule</title>
<path fill="none" stroke="black" d="M137,-122.25C137,-145.02 137,-181 137,-181 137,-181 995.64,-181 995.64,-181"/>
<polygon fill="black" stroke="black" points="995.64,-184.5 1005.64,-181 995.64,-177.5 995.64,-184.5"/>
</g>
</g>
</svg>
