<?xml version="1.0" standalone="no"?>
<!DOCTYPE svg PUBLIC "-//W3C//DTD SVG 20010904//EN"
 "http://www.w3.org/TR/2001/REC-SVG-20010904/DTD/svg10.dtd">
<svg version="1.0" xmlns="http://www.w3.org/2000/svg"
 width="523.000000pt" height="523.000000pt" viewBox="0 0 523.000000 523.000000"
 preserveAspectRatio="xMidYMid meet">
<metadata>
Created by potrace 1.11, written by Peter Selinger 2001-2013
</metadata>
<g transform="translate(0.000000,523.000000) scale(0.100000,-0.100000)"
fill="#000000" stroke="none">
<path d="M2318 5143 c-25 -2 -51 -9 -56 -16 -11 -13 9 -344 22 -365 10 -17 61
-15 76 3 8 9 10 28 5 55 -6 37 -5 40 17 40 12 0 33 3 45 6 18 5 26 -2 48 -45
30 -60 46 -69 80 -47 31 21 31 37 0 90 -24 40 -24 45 -10 72 20 39 19 109 -2
145 -10 16 -36 38 -58 49 -40 19 -62 21 -167 13z m130 -99 c24 -17 29 -56 10
-72 -7 -6 -33 -12 -58 -14 l-45 -3 -3 47 c-3 42 -1 47 20 51 43 8 54 7 76 -9z"/>
<path d="M3013 5111 c-18 -12 -37 -35 -44 -55 -8 -21 -20 -36 -29 -36 -41 0
-58 -77 -20 -87 21 -6 21 -9 -1 -93 -20 -80 -9 -110 41 -110 25 0 32 13 50
100 l16 75 39 0 c34 0 41 4 49 27 12 33 -6 58 -41 58 -20 0 -24 4 -21 23 2 17
9 21 27 19 32 -3 51 15 51 49 0 22 -6 32 -26 39 -37 14 -55 12 -91 -9z"/>
<path d="M2645 5021 c-38 -22 -62 -57 -70 -102 -17 -92 83 -186 161 -150 13 6
24 7 24 2 0 -5 14 -12 31 -16 51 -11 58 4 61 145 l3 125 -34 3 c-19 2 -37 -2
-41 -9 -6 -9 -14 -8 -31 5 -31 21 -67 20 -104 -3z m99 -87 c31 -30 9 -84 -34
-84 -17 0 -50 34 -50 52 0 13 39 48 54 48 8 0 22 -7 30 -16z"/>
<path d="M1556 4957 c-19 -14 -19 -18 29 -143 27 -71 59 -150 72 -176 23 -46
25 -48 67 -48 27 0 52 7 64 18 20 16 20 19 7 50 -11 26 -19 32 -34 27 -25 -8
-27 -5 -86 150 -45 114 -54 130 -75 133 -14 2 -34 -4 -44 -11z"/>
<path d="M1930 4940 c-14 -14 -28 -18 -44 -14 -37 9 -85 -22 -107 -69 -23 -53
-23 -71 1 -125 33 -74 138 -104 185 -53 9 11 24 17 35 14 31 -8 70 6 70 24 0
9 -16 68 -35 130 -33 104 -38 113 -60 113 -14 0 -34 -9 -45 -20z m8 -112 c7
-7 12 -21 12 -33 0 -29 -19 -45 -52 -45 -36 0 -56 36 -39 69 13 23 59 29 79 9z"/>
<path d="M3175 4920 c-62 -41 -83 -126 -45 -187 26 -43 62 -65 100 -61 17 1
34 -2 38 -9 10 -16 56 -33 69 -25 6 4 28 60 49 125 38 117 39 119 19 133 -11
9 -33 13 -49 11 -19 -3 -35 2 -48 15 -25 25 -94 24 -133 -2z m109 -86 c9 -8
16 -22 16 -30 0 -15 -35 -54 -48 -54 -18 0 -52 33 -52 50 0 24 26 50 50 50 10
0 26 -7 34 -16z"/>
<path d="M3459 4803 c-60 -51 -76 -135 -36 -193 29 -44 101 -82 147 -78 31 3
35 6 38 35 3 29 0 32 -32 39 -41 7 -86 39 -86 60 0 19 2 18 70 -16 73 -37 83
-37 109 -4 28 35 27 93 -1 129 -47 60 -153 74 -209 28z m129 -65 c16 -16 15
-48 0 -48 -7 1 -28 9 -47 19 -32 17 -33 19 -15 29 25 15 47 15 62 0z"/>
<path d="M3838 4803 c-9 -10 -52 -74 -97 -141 -94 -144 -99 -164 -45 -211 41
-36 53 -36 74 2 13 22 13 30 2 48 -12 19 -6 32 67 143 45 67 81 129 81 139 0
17 -28 37 -53 37 -8 0 -21 -8 -29 -17z"/>
<path d="M1425 4744 c-40 -21 -64 -43 -81 -76 -44 -85 31 -208 127 -208 63 1
159 60 159 98 0 41 -45 55 -74 23 -26 -28 -71 -45 -92 -33 -14 8 -6 16 49 46
74 41 85 61 62 105 -28 55 -93 75 -150 45z m72 -90 c3 -10 -54 -54 -71 -54
-11 0 -6 25 10 48 16 24 54 27 61 6z"/>
<path d="M1207 4602 c-24 -27 -22 -37 23 -96 44 -58 48 -76 24 -100 -27 -28
-59 -19 -88 23 -15 21 -38 49 -51 61 -23 22 -25 22 -50 6 -35 -23 -32 -43 21
-113 57 -78 112 -104 171 -82 24 9 44 26 53 44 10 20 21 29 33 27 21 -4 57 24
57 45 0 23 -141 203 -160 203 -9 0 -24 -8 -33 -18z"/>
<path d="M4006 4481 c-68 -76 -116 -137 -116 -149 0 -26 119 -129 158 -138 15
-3 33 -7 40 -10 7 -2 36 1 65 7 39 9 62 22 93 53 54 53 70 108 54 180 -10 43
-23 62 -81 119 -37 37 -74 67 -82 67 -8 0 -67 -58 -131 -129z m173 -26 c24
-27 31 -45 31 -76 0 -90 -103 -132 -172 -71 -28 26 -30 31 -17 49 23 32 113
132 120 132 4 1 21 -15 38 -34z"/>
<path d="M975 4393 c-62 -16 -105 -76 -105 -148 0 -39 5 -52 38 -86 28 -31 47
-42 79 -46 79 -10 163 52 163 121 0 47 -71 62 -87 19 -18 -52 -57 -67 -88 -33
-26 29 -13 67 30 84 27 11 35 21 35 40 0 23 -24 57 -38 55 -4 -1 -16 -4 -27
-6z"/>
<path d="M4382 4338 c-28 -28 -12 -54 62 -98 38 -23 39 -23 52 -5 24 32 16 52
-34 84 -54 34 -63 36 -80 19z"/>
<path d="M4222 4194 c-50 -41 -92 -81 -92 -88 0 -22 47 -59 63 -49 50 30 187
149 187 163 0 20 -31 50 -51 50 -8 0 -56 -34 -107 -76z"/>
<path d="M2568 4215 c-27 -20 -48 -39 -48 -43 0 -5 16 -23 35 -42 l35 -34 28
27 c40 38 69 35 119 -15 l43 -42 29 34 29 35 -26 28 c-88 93 -166 109 -244 52z"/>
<path d="M739 4157 c-40 -26 -82 -102 -73 -132 9 -31 55 -65 90 -65 19 0 48
12 73 31 24 17 45 28 48 25 12 -11 -8 -36 -47 -61 -34 -21 -40 -30 -34 -48 14
-48 41 -46 100 5 40 36 64 77 64 111 0 24 -41 69 -73 80 -20 8 -70 -15 -105
-46 -17 -16 -25 -18 -34 -9 -8 8 -2 20 25 45 39 35 45 55 25 75 -16 16 -20 16
-59 -11z"/>
<path d="M2450 4126 c0 -8 6 -17 13 -19 9 -4 9 -8 -1 -15 -22 -15 -11 -56 16
-60 21 -3 52 17 52 35 0 11 -63 73 -73 73 -4 0 -7 -6 -7 -14z m48 -64 c2 -7
-3 -12 -12 -12 -9 0 -16 7 -16 16 0 17 22 14 28 -4z"/>
<path d="M4296 4110 c-40 -36 -61 -88 -52 -133 7 -35 42 -77 64 -77 9 0 12 -6
8 -16 -8 -21 19 -64 41 -64 17 0 179 111 200 138 17 20 -10 72 -37 72 -14 0
-20 7 -20 21 0 53 -50 89 -124 89 -36 0 -52 -6 -80 -30z m122 -72 c19 -19 14
-55 -10 -72 -12 -9 -26 -16 -30 -16 -13 0 -48 39 -48 54 0 37 61 61 88 34z"/>
<path d="M2891 4066 c-10 -11 -10 -20 -1 -36 15 -28 3 -41 -16 -16 -7 11 -17
16 -21 12 -12 -11 12 -41 36 -44 26 -4 39 23 22 49 -9 15 -8 19 3 19 8 0 16
-6 19 -12 2 -7 8 -10 12 -6 8 8 -22 48 -35 48 -4 0 -13 -6 -19 -14z"/>
<path d="M2398 4028 c-22 -27 -22 -32 -2 -52 21 -21 36 -20 58 5 17 20 17 22
-5 45 -27 29 -30 29 -51 2z m32 -28 c0 -5 -4 -10 -10 -10 -5 0 -10 5 -10 10 0
6 5 10 10 10 6 0 10 -4 10 -10z"/>
<path d="M2977 4023 c-4 -3 -7 -11 -7 -17 0 -6 5 -5 12 2 6 6 9 14 7 17 -3 3
-9 2 -12 -2z"/>
<path d="M488 4003 c-26 -31 -128 -210 -128 -226 0 -19 23 -35 182 -126 70
-40 134 -71 142 -68 14 6 133 206 138 234 2 8 -9 25 -24 36 -34 26 -43 19 -99
-76 -23 -40 -44 -74 -46 -76 -1 -2 -14 1 -27 9 l-24 12 34 64 35 63 -20 20
c-35 35 -56 27 -91 -34 -38 -66 -41 -68 -68 -49 -21 14 -21 15 22 87 59 100
59 103 29 127 -31 24 -36 25 -55 3z"/>
<path d="M2320 4001 c0 -6 4 -12 10 -16 6 -4 5 -15 -2 -30 -21 -46 30 -75 64
-36 15 18 14 21 -21 55 -37 36 -51 44 -51 27z m50 -60 c0 -6 -4 -13 -10 -16
-5 -3 -10 1 -10 9 0 9 5 16 10 16 6 0 10 -4 10 -9z"/>
<path d="M2922 3977 c-12 -13 -19 -27 -15 -30 7 -8 53 31 53 45 0 15 -16 8
-38 -15z"/>
<path d="M2949 3951 c-28 -23 -18 -41 12 -22 27 16 37 6 20 -20 -13 -22 -9
-35 8 -24 26 15 31 42 12 64 -22 26 -23 26 -52 2z"/>
<path d="M2260 3940 c0 -5 5 -10 10 -10 6 0 10 5 10 10 0 6 -4 10 -10 10 -5 0
-10 -4 -10 -10z"/>
<path d="M2305 3890 c17 -17 31 -26 33 -20 5 15 -27 50 -46 50 -11 0 -7 -9 13
-30z"/>
<path d="M2257 3869 c22 -23 46 -38 52 -35 15 10 14 26 -2 26 -8 0 -24 11 -37
25 -13 14 -31 25 -39 25 -10 0 -1 -15 26 -41z"/>
<path d="M4573 3898 c-28 -14 -29 -37 -3 -88 11 -22 19 -40 17 -40 -2 0 -40
14 -86 30 -88 33 -121 30 -121 -11 0 -28 99 -219 117 -226 23 -9 63 14 63 37
0 12 -9 39 -21 61 -11 23 -19 43 -16 45 2 2 38 -8 80 -23 85 -31 110 -27 115
18 3 29 -89 203 -109 206 -8 1 -24 -3 -36 -9z"/>
<path d="M3009 3884 c-10 -12 -10 -20 -1 -35 18 -29 14 -34 -9 -13 -21 19 -21
19 -18 0 2 -10 12 -24 21 -30 14 -8 24 -4 52 23 32 31 33 34 18 52 -20 23 -45
24 -63 3z m41 -19 c0 -8 -4 -15 -9 -15 -13 0 -22 16 -14 24 11 11 23 6 23 -9z"/>
<path d="M2200 3874 c0 -8 5 -12 10 -9 6 4 8 11 5 16 -9 14 -15 11 -15 -7z"/>
<path d="M2220 3852 c0 -14 49 -56 57 -49 3 4 -4 18 -17 32 -24 25 -40 32 -40
17z"/>
<path d="M3077 3822 c-21 -23 -21 -24 3 -52 l21 -24 26 27 c31 30 24 50 -7 22
-24 -22 -39 -12 -22 15 22 35 7 43 -21 12z"/>
<path d="M2136 3822 c-3 -5 13 -26 34 -47 l40 -39 20 24 c25 28 25 33 1 54
-18 17 -51 13 -51 -7 0 -5 -9 -2 -19 7 -10 10 -22 13 -25 8z m82 -33 c-2 -6
-8 -10 -13 -10 -5 0 -11 4 -13 10 -2 6 4 11 13 11 9 0 15 -5 13 -11z"/>
<path d="M3156 3778 c-21 -21 -36 -43 -34 -50 6 -17 28 -22 28 -7 0 7 12 25
26 40 43 44 23 60 -20 17z"/>
<path d="M2122 3754 c-20 -22 -11 -58 16 -62 20 -3 52 17 52 32 0 9 -39 46
-47 46 -5 -1 -14 -7 -21 -16z m30 -29 c0 -5 -5 -11 -11 -13 -6 -2 -11 4 -11
13 0 9 5 15 11 13 6 -2 11 -8 11 -13z"/>
<path d="M3178 3729 c-24 -13 -23 -42 2 -64 20 -18 21 -18 45 5 l25 24 -22 23
c-24 26 -26 26 -50 12z m30 -30 c-2 -6 -8 -10 -13 -10 -5 0 -11 4 -13 10 -2 6
4 11 13 11 9 0 15 -5 13 -11z"/>
<path d="M2060 3695 c-19 -23 -5 -48 22 -39 20 6 21 5 9 -10 -11 -14 -11 -16
2 -16 22 0 39 34 25 48 -8 8 -17 8 -30 1 -12 -6 -18 -6 -18 1 0 5 5 10 10 10
6 0 10 5 10 10 0 15 -16 12 -30 -5z"/>
<path d="M3232 3657 c-26 -27 -17 -45 10 -21 14 13 21 14 32 5 8 -7 17 -8 20
-3 4 7 -27 42 -37 42 -2 0 -13 -10 -25 -23z"/>
<path d="M3326 3651 c-4 -5 -2 -12 3 -15 5 -4 12 -2 15 3 4 5 2 12 -3 15 -5 4
-12 2 -15 -3z"/>
<path d="M1996 3629 c-18 -21 -17 -22 8 -47 29 -29 44 -25 25 7 -17 26 -7 36
20 20 30 -19 40 -1 12 22 -30 24 -42 24 -65 -2z"/>
<path d="M3282 3610 c-22 -21 -29 -40 -14 -40 10 0 52 43 52 53 0 13 -16 7
-38 -13z"/>
<path d="M1945 3577 c-10 -8 -16 -23 -13 -38 2 -19 9 -24 33 -24 25 0 31 4 33
27 4 34 -26 54 -53 35z m35 -33 c0 -9 -5 -14 -12 -12 -18 6 -21 28 -4 28 9 0
16 -7 16 -16z"/>
<path d="M3307 3583 c-12 -11 -8 -44 8 -59 13 -13 19 -11 55 17 22 18 40 36
40 41 0 12 -24 10 -38 -4 -9 -9 -12 -9 -12 0 0 13 -42 17 -53 5z m41 -25 c-6
-18 -28 -21 -28 -4 0 9 7 16 16 16 9 0 14 -5 12 -12z"/>
<path d="M3373 3523 c-19 -7 -16 -48 5 -66 17 -16 20 -15 42 8 23 24 23 25 5
45 -18 20 -29 23 -52 13z m37 -34 c0 -5 -7 -9 -15 -9 -15 0 -20 12 -9 23 8 8
24 -1 24 -14z"/>
<path d="M1873 3505 c-19 -21 -17 -28 21 -64 32 -31 55 -32 36 -1 -5 7 -4 20
2 30 25 39 -29 70 -59 35z m45 -16 c-2 -6 -8 -10 -13 -10 -5 0 -11 4 -13 10
-2 6 4 11 13 11 9 0 15 -5 13 -11z"/>
<path d="M4793 3500 c-43 -26 -53 -48 -53 -119 0 -75 -6 -91 -36 -91 -38 0
-51 39 -30 90 19 49 19 45 0 64 -44 44 -96 -8 -96 -94 0 -54 28 -110 68 -137
35 -22 117 -13 149 17 22 21 25 32 25 100 0 93 18 121 55 84 12 -13 15 -26 10
-56 -8 -47 6 -68 45 -68 74 0 56 162 -23 210 -40 25 -73 25 -114 0z"/>
<path d="M1820 3455 c-19 -23 -5 -48 22 -39 20 6 21 5 9 -10 -11 -14 -11 -16
2 -16 22 0 39 34 25 48 -8 8 -17 8 -30 1 -12 -6 -18 -6 -18 1 0 5 5 10 10 10
6 0 10 5 10 10 0 15 -16 12 -30 -5z"/>
<path d="M3437 3459 c-23 -13 -22 -42 3 -64 20 -18 21 -18 55 15 39 38 45 54
15 45 -10 -3 -27 -2 -37 4 -12 6 -25 6 -36 0z m33 -29 c0 -5 -7 -10 -15 -10
-8 0 -15 5 -15 10 0 6 7 10 15 10 8 0 15 -4 15 -10z"/>
<path d="M1777 3409 c-23 -13 -22 -56 2 -69 15 -7 25 -5 43 9 12 11 20 23 16
27 -4 4 -14 1 -22 -5 -16 -13 -36 -7 -36 11 0 5 7 8 15 5 19 -8 28 8 12 21 -8
7 -18 7 -30 1z"/>
<path d="M3547 3352 c-15 -15 -27 -32 -27 -37 0 -5 32 -41 70 -81 40 -41 70
-81 70 -92 0 -11 -14 -32 -31 -46 l-30 -26 27 -34 28 -35 27 20 c77 55 99 121
60 186 -22 34 -149 173 -160 173 -4 0 -19 -13 -34 -28z"/>
<path d="M1675 3350 c-18 -20 -18 -21 15 -55 40 -42 55 -44 46 -9 -6 24 -5 26
18 22 18 -4 26 -1 26 8 0 8 -6 14 -14 14 -7 0 -16 9 -19 20 -7 26 -48 26 -72
0z m55 -9 c0 -14 -18 -23 -30 -16 -6 4 -8 11 -5 16 8 12 35 12 35 0z"/>
<path d="M1596 3228 c-23 -36 -27 -51 -23 -93 4 -42 10 -54 43 -82 22 -18 63
-45 93 -60 54 -28 104 -68 112 -90 3 -7 20 -9 52 -6 51 6 51 5 26 69 -4 12
-43 43 -86 69 -144 87 -161 107 -131 155 11 17 8 24 -17 50 -16 16 -31 30 -35
30 -3 0 -18 -19 -34 -42z"/>
<path d="M4734 3166 c-39 -17 -72 -59 -80 -102 -8 -44 12 -128 37 -149 17 -17
20 -17 44 -1 15 10 24 23 21 29 -24 58 -29 88 -17 114 16 36 27 18 36 -59 8
-65 24 -88 61 -88 62 0 109 52 108 119 -3 114 -107 182 -210 137z m124 -130
c2 -17 -2 -28 -13 -32 -22 -9 -26 -3 -32 47 l-6 44 24 -16 c13 -9 25 -28 27
-43z"/>
<path d="M3525 3011 c-3 -5 -1 -12 5 -16 14 -9 -6 -45 -25 -45 -8 0 -15 -4
-15 -10 0 -5 11 -10 24 -10 13 0 38 -3 55 -6 39 -8 40 6 5 58 -27 39 -38 45
-49 29z m35 -51 c0 -5 -5 -10 -11 -10 -5 0 -7 5 -4 10 3 6 8 10 11 10 2 0 4
-4 4 -10z"/>
<path d="M3474 2912 c-6 -4 -14 -17 -18 -29 -6 -18 -2 -25 18 -35 32 -14 47
-3 21 16 -25 18 -11 40 15 24 26 -16 38 -1 14 17 -21 16 -34 18 -50 7z"/>
<path d="M4795 2861 l-100 -6 0 -40 0 -40 90 -5 90 -5 5 -49 c4 -43 9 -51 33
-59 19 -6 32 -5 42 3 19 16 19 70 0 97 -13 19 -13 22 0 27 9 3 15 18 15 35 0
32 -24 53 -57 49 -10 -1 -63 -4 -118 -7z"/>
<path d="M1827 2853 c-22 -6 -12 -23 14 -23 10 0 18 -3 18 -7 -3 -21 3 -31 20
-36 26 -7 52 23 44 51 -4 18 -12 22 -42 21 -20 -1 -44 -3 -54 -6z m73 -28 c0
-8 -4 -15 -10 -15 -5 0 -10 7 -10 15 0 8 5 15 10 15 6 0 10 -7 10 -15z"/>
<path d="M3426 2823 c-13 -13 -5 -23 17 -20 13 1 21 -3 20 -10 -3 -15 16 -17
35 -5 22 15 3 39 -32 40 -18 1 -36 -2 -40 -5z"/>
<path d="M735 2781 c-3 -5 1 -29 10 -53 19 -57 19 -122 -1 -142 -12 -13 -38
-16 -120 -16 -58 0 -124 4 -147 9 -72 16 -265 34 -291 27 -32 -8 -35 -41 -6
-56 11 -6 82 -26 156 -45 147 -37 172 -49 152 -72 -17 -21 -51 -37 -158 -72
-106 -36 -180 -75 -180 -95 0 -42 50 -44 230 -8 171 33 335 62 358 62 11 0 23
-4 26 -8 3 -5 -6 -41 -19 -81 -35 -104 -34 -114 23 -148 26 -16 63 -35 82 -43
36 -14 80 -48 80 -61 0 -20 -133 -63 -260 -83 -242 -39 -320 -62 -320 -95 0
-27 37 -36 224 -54 81 -9 153 -20 159 -26 21 -21 1 -41 -183 -179 -43 -33 -72
-63 -76 -79 -8 -32 10 -45 51 -37 35 6 206 89 350 169 135 75 196 104 233 111
30 6 32 5 32 -22 0 -16 -7 -56 -14 -89 -19 -77 -10 -95 47 -95 23 0 76 9 117
20 91 24 130 25 130 5 0 -19 -39 -39 -175 -85 -159 -55 -225 -86 -225 -105 0
-9 11 -26 25 -39 27 -25 31 -36 15 -36 -21 0 -221 -123 -240 -148 -42 -53 -19
-75 58 -55 31 8 62 16 67 17 29 7 101 30 110 37 6 4 42 15 81 24 125 30 143
-6 67 -130 -20 -33 -51 -78 -69 -100 -65 -81 -90 -165 -50 -165 26 0 105 60
187 143 79 81 88 87 126 87 36 0 47 6 97 58 31 31 84 96 119 144 68 95 97 118
151 118 40 0 63 -9 166 -67 85 -49 108 -52 218 -24 116 29 192 41 218 35 49
-12 32 -45 -126 -249 -14 -18 -38 -50 -55 -71 -16 -22 -32 -41 -35 -44 -3 -3
-37 -45 -74 -93 -38 -49 -98 -120 -133 -159 -66 -72 -123 -152 -123 -174 0 -7
7 -19 15 -28 30 -30 92 13 270 183 138 132 205 178 240 165 20 -8 26 -33 16
-74 -20 -76 -50 -169 -69 -213 -11 -25 -28 -79 -37 -119 -9 -40 -21 -83 -26
-96 -12 -30 -11 -84 1 -117 7 -19 16 -26 32 -23 26 4 99 126 142 238 15 41 36
93 46 115 10 23 33 79 50 125 18 47 36 90 40 95 5 6 20 46 35 90 15 44 37 100
49 125 13 25 28 64 36 87 17 57 65 113 95 113 16 0 52 -26 108 -80 47 -44 93
-80 104 -80 25 0 81 47 225 188 81 80 121 113 132 109 26 -10 19 -33 -45 -148
-68 -123 -119 -233 -119 -256 0 -8 9 -32 21 -52 l21 -37 -46 -108 c-25 -59
-46 -110 -46 -113 0 -4 -9 -25 -19 -47 -75 -158 -80 -303 -10 -281 37 12 76
59 189 225 119 175 177 240 215 240 47 0 69 -62 85 -245 11 -127 21 -182 52
-281 22 -71 60 -114 85 -98 28 17 34 59 38 259 3 105 10 237 17 294 11 95 15
106 42 132 37 34 44 80 45 279 1 161 11 214 44 232 12 6 63 24 112 39 136 42
258 85 299 104 31 15 37 22 34 44 l-3 26 -250 0 c-234 0 -253 1 -290 21 -54
28 -58 59 -11 108 45 49 54 99 28 159 -27 60 -71 90 -143 95 -145 11 -234
-123 -156 -235 15 -22 27 -49 27 -61 0 -26 -21 -38 -110 -61 -38 -10 -90 -31
-116 -46 -72 -42 -174 -152 -264 -285 -45 -66 -85 -118 -89 -116 -4 3 -32 45
-62 93 -30 48 -80 114 -111 146 -32 32 -58 60 -58 62 0 3 18 16 41 30 53 34
75 83 59 131 -32 97 -148 122 -226 49 -41 -39 -45 -80 -13 -132 33 -53 26 -56
-146 -53 -125 1 -190 -16 -313 -80 l-92 -49 -34 37 c-110 121 -194 225 -190
237 3 7 27 16 54 20 68 9 100 41 100 97 0 56 -21 85 -72 98 -71 20 -138 -15
-138 -71 0 -15 -3 -34 -6 -43 -9 -23 -67 -20 -117 6 -66 35 -202 30 -330 -12
-53 -17 -101 -30 -106 -28 -5 2 9 44 32 93 31 71 40 103 41 150 l1 60 38 -3
c51 -5 89 12 110 47 32 54 15 106 -43 136 -66 34 -131 5 -150 -66 l-11 -40
-34 21 c-18 11 -71 34 -117 50 -156 54 -281 105 -285 116 -2 6 24 48 57 94 63
84 74 105 85 154 5 24 9 27 28 21 59 -19 83 -17 115 10 56 47 38 119 -36 144
-40 13 -64 3 -103 -41 -32 -37 -35 -34 -89 102 -22 58 -47 120 -55 138 -14 31
-38 42 -50 23z"/>
<path d="M3418 2769 c-27 -15 -22 -48 8 -61 22 -11 28 -10 40 7 18 24 18 30
-2 49 -18 19 -23 19 -46 5z m32 -34 c0 -8 -4 -15 -9 -15 -13 0 -22 16 -14 24
11 11 23 6 23 -9z"/>
<path d="M1860 2740 c0 -18 7 -33 18 -39 27 -14 52 5 52 39 0 28 -3 30 -35 30
-32 0 -35 -2 -35 -30z m50 -5 c0 -8 -4 -15 -9 -15 -13 0 -22 16 -14 24 11 11
23 6 23 -9z"/>
<path d="M3385 2680 c3 -5 15 -10 26 -10 10 0 19 -7 19 -15 0 -9 -9 -15 -25
-15 -14 0 -25 -4 -25 -10 0 -14 56 -12 67 3 5 6 10 22 11 35 1 19 -4 22 -39
22 -24 0 -38 -4 -34 -10z"/>
<path d="M1870 2670 c0 -5 -7 -10 -15 -10 -21 0 -19 -17 4 -23 28 -7 72 4 78
20 8 21 -4 28 -23 12 -13 -11 -18 -11 -21 -1 -5 14 -23 16 -23 2z"/>
<path d="M4747 2611 c-47 -31 -60 -57 -55 -112 3 -27 1 -52 -3 -55 -5 -3 -9
-21 -9 -39 0 -42 -4 -41 180 -55 74 -6 149 -13 167 -15 48 -8 79 34 54 74 -5
8 -35 15 -75 18 -57 5 -66 8 -60 22 16 36 16 92 0 117 -41 61 -141 84 -199 45z
m113 -85 c15 -19 9 -56 -11 -69 -21 -13 -65 -1 -73 19 -17 43 54 85 84 50z"/>
<path d="M1877 2613 c-3 -5 -3 -20 0 -32 4 -18 12 -21 36 -19 36 4 50 28 16
28 -12 0 -27 7 -34 17 -7 9 -15 12 -18 6z"/>
<path d="M3384 2586 c-12 -31 0 -51 31 -51 27 0 30 3 30 30 0 25 -4 30 -28 33
-17 2 -29 -2 -33 -12z m46 -21 c0 -8 -7 -15 -15 -15 -8 0 -15 7 -15 15 0 8 7
15 15 15 8 0 15 -7 15 -15z"/>
<path d="M1885 2539 c-4 -5 -4 -21 -1 -35 11 -43 83 -23 74 21 -4 21 -24 18
-21 -3 2 -11 -2 -9 -9 6 -12 23 -32 29 -43 11z m35 -30 c0 -5 -4 -9 -10 -9 -5
0 -10 7 -10 16 0 8 5 12 10 9 6 -3 10 -10 10 -16z"/>
<path d="M3370 2500 c0 -5 11 -10 25 -10 14 0 25 -4 25 -10 0 -5 -11 -10 -25
-10 -30 0 -34 -17 -5 -22 29 -4 30 -22 3 -26 -34 -5 -28 -22 7 -22 33 0 36 4
43 68 l5 42 -39 0 c-21 0 -39 -4 -39 -10z"/>
<path d="M1908 2459 c-10 -5 -18 -19 -18 -29 0 -11 -7 -20 -15 -20 -8 0 -15
-5 -15 -11 0 -6 21 -9 53 -7 49 3 52 4 49 28 -4 25 -19 50 -31 50 -3 0 -14 -5
-23 -11z m30 -30 c-2 -6 -8 -10 -13 -10 -5 0 -11 4 -13 10 -2 6 4 11 13 11 9
0 15 -5 13 -11z"/>
<path d="M3370 2381 c0 -11 25 -21 51 -21 23 0 25 15 3 24 -23 9 -54 7 -54 -3z"/>
<path d="M3456 2382 c-2 -4 -1 -14 5 -22 7 -12 9 -10 9 8 0 23 -5 28 -14 14z"/>
<path d="M1913 2373 c-20 -7 -15 -23 6 -23 26 0 51 10 51 21 0 9 -36 11 -57 2z"/>
<path d="M1860 2360 c0 -5 5 -10 10 -10 6 0 10 5 10 10 0 6 -4 10 -10 10 -5 0
-10 -4 -10 -10z"/>
<path d="M3373 2338 c-5 -7 -10 -23 -11 -35 0 -16 7 -23 29 -28 35 -8 42 -3
45 28 2 27 -13 47 -36 47 -10 0 -22 -6 -27 -12z m39 -23 c0 -5 -5 -11 -11 -13
-6 -2 -11 4 -11 13 0 9 5 15 11 13 6 -2 11 -8 11 -13z"/>
<path d="M1961 2319 c-1 -24 -6 -27 -47 -34 -31 -4 -43 -10 -36 -17 5 -5 29
-7 56 -3 48 8 54 18 36 60 -8 18 -9 17 -9 -6z"/>
<path d="M4736 2320 c-62 -19 -110 -95 -87 -139 7 -13 5 -20 -10 -29 -15 -10
-19 -22 -17 -45 l3 -31 115 -28 c63 -15 121 -25 128 -23 20 7 34 55 21 71 -8
10 -6 20 10 40 44 55 13 140 -62 174 -46 21 -58 22 -101 10z m74 -100 c24 -24
25 -43 4 -65 -25 -25 -67 -15 -79 19 -8 24 -6 31 14 47 29 24 36 24 61 -1z"/>
<path d="M1937 2230 c-20 -4 -40 -10 -44 -13 -11 -11 29 -87 59 -112 39 -33
88 -45 186 -45 l82 0 0 54 0 54 -91 4 c-88 4 -93 6 -120 36 -16 18 -30 31 -31
31 -2 -1 -20 -5 -41 -9z"/>
<path d="M3318 2211 c-19 -34 -66 -51 -145 -51 l-53 0 0 -50 0 -50 88 0 c136
1 188 26 218 107 20 52 15 59 -46 68 -42 6 -46 4 -62 -24z"/>
<path d="M2650 2174 c0 -8 5 -12 10 -9 6 4 8 11 5 16 -9 14 -15 11 -15 -7z"/>
<path d="M2940 2174 c0 -8 5 -12 10 -9 6 3 10 10 10 16 0 5 -4 9 -10 9 -5 0
-10 -7 -10 -16z"/>
<path d="M4950 2138 c0 -84 7 -100 44 -96 36 4 41 17 31 94 -6 53 -7 54 -41
54 l-34 0 0 -52z"/>
<path d="M2295 2156 c-13 -19 -14 -29 -5 -45 13 -26 44 -43 64 -35 25 9 19 22
-11 26 -18 2 -29 10 -31 22 -4 21 16 38 36 31 20 -7 37 6 21 16 -26 16 -58 9
-74 -15z"/>
<path d="M2392 2133 c-12 -23 -5 -40 19 -53 27 -15 64 22 49 50 -13 25 -56 26
-68 3z m48 -24 c0 -5 -7 -9 -15 -9 -15 0 -20 12 -9 23 8 8 24 -1 24 -14z"/>
<path d="M2480 2115 c0 -39 17 -48 22 -12 2 12 8 22 13 22 6 0 11 -10 13 -22
4 -28 22 -31 22 -4 0 37 -12 51 -41 51 -26 0 -29 -3 -29 -35z"/>
<path d="M2570 2131 c-8 -17 -7 -24 10 -41 11 -11 26 -17 35 -14 22 9 18 24
-6 24 -12 0 -19 5 -16 13 2 6 12 11 22 9 10 -2 15 2 13 10 -8 22 -46 21 -58
-1z"/>
<path d="M2650 2115 c0 -19 5 -35 10 -35 6 0 10 16 10 35 0 19 -4 35 -10 35
-5 0 -10 -16 -10 -35z"/>
<path d="M2690 2135 c-25 -31 25 -84 53 -56 8 8 5 11 -11 11 -12 0 -22 5 -22
10 0 6 11 10 25 10 27 0 32 9 13 28 -16 16 -43 15 -58 -3z"/>
<path d="M2770 2114 c0 -38 17 -47 22 -11 2 12 8 22 13 22 6 0 11 -10 13 -22
5 -36 24 -27 20 10 -3 28 -7 32 -35 34 -31 1 -33 -1 -33 -33z"/>
<path d="M2867 2143 c-25 -24 8 -77 41 -66 20 7 14 23 -9 23 -12 0 -19 5 -16
13 2 6 11 11 21 9 9 -2 16 4 16 13 0 15 -40 22 -53 8z"/>
<path d="M2940 2115 c0 -19 5 -35 10 -35 6 0 10 16 10 35 0 19 -4 35 -10 35
-5 0 -10 -16 -10 -35z"/>
<path d="M2980 2135 c-6 -8 -9 -23 -5 -35 5 -15 15 -20 41 -20 32 0 34 2 34
35 0 32 -3 35 -29 35 -16 0 -34 -7 -41 -15z m40 -20 c0 -8 -4 -15 -9 -15 -13
0 -22 16 -14 24 11 11 23 6 23 -9z"/>
<path d="M4600 2029 c-22 -40 -9 -61 53 -84 72 -27 92 -45 83 -79 -9 -36 -42
-41 -104 -17 -70 28 -90 27 -104 -5 -17 -37 -2 -53 73 -82 124 -46 215 -11
213 83 0 24 4 43 9 42 15 -3 41 47 35 65 -6 13 -208 98 -235 98 -7 0 -17 -9
-23 -21z"/>
</g>
</svg>
