<?xml version="1.0" encoding="UTF-8" standalone="no"?>
<!DOCTYPE svg PUBLIC "-//W3C//DTD SVG 1.1//EN"
 "http://www.w3.org/Graphics/SVG/1.1/DTD/svg11.dtd">
<!-- Generated by graphviz version 2.46.0 (20210119.1425)
 -->
<!-- Title: dependencies Pages: 1 -->
<svg width="897pt" height="284pt"
 viewBox="0.00 0.00 897.00 284.00" xmlns="http://www.w3.org/2000/svg" xmlns:xlink="http://www.w3.org/1999/xlink">
<g id="graph0" class="graph" transform="scale(1 1) rotate(0) translate(4 280)">
<title>dependencies</title>
<polygon fill="white" stroke="transparent" points="-4,4 -4,-280 893,-280 893,4 -4,4"/>
<text text-anchor="start" x="423.51" y="-42.4" font-family="sans-serif" font-weight="bold" font-size="14.00">Legend</text>
<polygon fill="#ffffb3" stroke="transparent" points="210.5,-10 210.5,-30 230.5,-30 230.5,-10 210.5,-10"/>
<text text-anchor="start" x="234.13" y="-15.4" font-family="sans-serif" font-size="14.00"> &#160;Declarations</text>
<polygon fill="#8dd3c7" stroke="transparent" points="323.5,-10 323.5,-30 343.5,-30 343.5,-10 323.5,-10"/>
<text text-anchor="start" x="347.23" y="-15.4" font-family="sans-serif" font-size="14.00"> &#160;Module</text>
<polygon fill="#80b1d3" stroke="transparent" points="409.5,-10 409.5,-30 429.5,-30 429.5,-10 409.5,-10"/>
<text text-anchor="start" x="433.28" y="-15.4" font-family="sans-serif" font-size="14.00"> &#160;Bootstrap</text>
<polygon fill="#fdb462" stroke="transparent" points="506.5,-10 506.5,-30 526.5,-30 526.5,-10 506.5,-10"/>
<text text-anchor="start" x="530.17" y="-15.4" font-family="sans-serif" font-size="14.00"> &#160;Providers</text>
<polygon fill="#fb8072" stroke="transparent" points="602.5,-10 602.5,-30 622.5,-30 622.5,-10 602.5,-10"/>
<text text-anchor="start" x="626.23" y="-15.4" font-family="sans-serif" font-size="14.00"> &#160;Exports</text>
<g id="clust1" class="cluster">
<title>cluster_AppModule</title>
<polygon fill="none" stroke="black" stroke-dasharray="1,5" points="8,-70 8,-268 881,-268 881,-70 8,-70"/>
</g>
<g id="clust6" class="cluster">
<title>cluster_AppModule_bootstrap</title>
<polygon fill="none" stroke="black" points="377,-208 377,-260 501,-260 501,-208 377,-208"/>
</g>
<g id="clust4" class="cluster">
<title>cluster_AppModule_imports</title>
<polygon fill="none" stroke="black" points="146,-78 146,-130 873,-130 873,-78 146,-78"/>
</g>
<g id="clust2" class="cluster">
<title>cluster_AppModule_declarations</title>
<polygon fill="none" stroke="black" points="16,-78 16,-130 138,-130 138,-78 16,-78"/>
</g>
<!-- AppComponent -->
<g id="node1" class="node">
<title>AppComponent</title>
<polygon fill="#ffffb3" stroke="black" points="129.94,-122 24.06,-122 24.06,-86 129.94,-86 129.94,-122"/>
<text text-anchor="middle" x="77" y="-99.8" font-family="Times,serif" font-size="14.00">AppComponent</text>
</g>
<!-- AppModule -->
<g id="node2" class="node">
<title>AppModule</title>
<polygon fill="#8dd3c7" stroke="black" points="480.66,-187 477.66,-191 456.66,-191 453.66,-187 397.34,-187 397.34,-151 480.66,-151 480.66,-187"/>
<text text-anchor="middle" x="439" y="-164.8" font-family="Times,serif" font-size="14.00">AppModule</text>
</g>
<!-- AppComponent&#45;&gt;AppModule -->
<g id="edge1" class="edge">
<title>AppComponent&#45;&gt;AppModule</title>
<path fill="none" stroke="black" d="M77,-122.29C77,-144.21 77,-178 77,-178 77,-178 387.12,-178 387.12,-178"/>
<polygon fill="black" stroke="black" points="387.12,-181.5 397.12,-178 387.12,-174.5 387.12,-181.5"/>
</g>
<!-- AppComponent  -->
<g id="node9" class="node">
<title>AppComponent </title>
<polygon fill="#80b1d3" stroke="black" points="493.44,-252 384.56,-252 384.56,-216 493.44,-216 493.44,-252"/>
<text text-anchor="middle" x="439" y="-229.8" font-family="Times,serif" font-size="14.00">AppComponent </text>
</g>
<!-- AppModule&#45;&gt;AppComponent  -->
<g id="edge8" class="edge">
<title>AppModule&#45;&gt;AppComponent </title>
<path fill="none" stroke="black" stroke-dasharray="1,5" d="M439,-187.11C439,-187.11 439,-205.99 439,-205.99"/>
<polygon fill="black" stroke="black" points="435.5,-205.99 439,-215.99 442.5,-205.99 435.5,-205.99"/>
</g>
<!-- AppRoutingModule -->
<g id="node3" class="node">
<title>AppRoutingModule</title>
<polygon fill="#8dd3c7" stroke="black" points="865.27,-122 862.27,-126 841.27,-126 838.27,-122 736.73,-122 736.73,-86 865.27,-86 865.27,-122"/>
<text text-anchor="middle" x="801" y="-99.8" font-family="Times,serif" font-size="14.00">AppRoutingModule</text>
</g>
<!-- AppRoutingModule&#45;&gt;AppModule -->
<g id="edge2" class="edge">
<title>AppRoutingModule&#45;&gt;AppModule</title>
<path fill="none" stroke="black" d="M801,-122.29C801,-144.21 801,-178 801,-178 801,-178 490.88,-178 490.88,-178"/>
<polygon fill="black" stroke="black" points="490.88,-174.5 480.88,-178 490.88,-181.5 490.88,-174.5"/>
</g>
<!-- AppStoreModule -->
<g id="node4" class="node">
<title>AppStoreModule</title>
<polygon fill="#8dd3c7" stroke="black" points="718.7,-122 715.7,-126 694.7,-126 691.7,-122 605.3,-122 605.3,-86 718.7,-86 718.7,-122"/>
<text text-anchor="middle" x="662" y="-99.8" font-family="Times,serif" font-size="14.00">AppStoreModule</text>
</g>
<!-- AppStoreModule&#45;&gt;AppModule -->
<g id="edge3" class="edge">
<title>AppStoreModule&#45;&gt;AppModule</title>
<path fill="none" stroke="black" d="M662,-122.11C662,-141.34 662,-169 662,-169 662,-169 490.68,-169 490.68,-169"/>
<polygon fill="black" stroke="black" points="490.68,-165.5 480.68,-169 490.68,-172.5 490.68,-165.5"/>
</g>
<!-- AuthModule -->
<g id="node5" class="node">
<title>AuthModule</title>
<polygon fill="#8dd3c7" stroke="black" points="587.55,-122 584.55,-126 563.55,-126 560.55,-122 500.45,-122 500.45,-86 587.55,-86 587.55,-122"/>
<text text-anchor="middle" x="544" y="-99.8" font-family="Times,serif" font-size="14.00">AuthModule</text>
</g>
<!-- AuthModule&#45;&gt;AppModule -->
<g id="edge4" class="edge">
<title>AuthModule&#45;&gt;AppModule</title>
<path fill="none" stroke="black" d="M544,-122.03C544,-138.4 544,-160 544,-160 544,-160 490.8,-160 490.8,-160"/>
<polygon fill="black" stroke="black" points="490.8,-156.5 480.8,-160 490.8,-163.5 490.8,-156.5"/>
</g>
<!-- CoreModule -->
<g id="node6" class="node">
<title>CoreModule</title>
<polygon fill="#8dd3c7" stroke="black" points="482.26,-122 479.26,-126 458.26,-126 455.26,-122 395.74,-122 395.74,-86 482.26,-86 482.26,-122"/>
<text text-anchor="middle" x="439" y="-99.8" font-family="Times,serif" font-size="14.00">CoreModule</text>
</g>
<!-- CoreModule&#45;&gt;AppModule -->
<g id="edge5" class="edge">
<title>CoreModule&#45;&gt;AppModule</title>
<path fill="none" stroke="black" d="M439,-122.11C439,-122.11 439,-140.99 439,-140.99"/>
<polygon fill="black" stroke="black" points="435.5,-140.99 439,-150.99 442.5,-140.99 435.5,-140.99"/>
</g>
<!-- MaterialModule -->
<g id="node7" class="node">
<title>MaterialModule</title>
<polygon fill="#8dd3c7" stroke="black" points="377.47,-122 374.47,-126 353.47,-126 350.47,-122 270.53,-122 270.53,-86 377.47,-86 377.47,-122"/>
<text text-anchor="middle" x="324" y="-99.8" font-family="Times,serif" font-size="14.00">MaterialModule</text>
</g>
<!-- MaterialModule&#45;&gt;AppModule -->
<g id="edge6" class="edge">
<title>MaterialModule&#45;&gt;AppModule</title>
<path fill="none" stroke="black" d="M324,-122.03C324,-138.4 324,-160 324,-160 324,-160 387.16,-160 387.16,-160"/>
<polygon fill="black" stroke="black" points="387.16,-163.5 397.16,-160 387.16,-156.5 387.16,-163.5"/>
</g>
<!-- SharedModule -->
<g id="node8" class="node">
<title>SharedModule</title>
<polygon fill="#8dd3c7" stroke="black" points="252.42,-122 249.42,-126 228.42,-126 225.42,-122 153.58,-122 153.58,-86 252.42,-86 252.42,-122"/>
<text text-anchor="middle" x="203" y="-99.8" font-family="Times,serif" font-size="14.00">SharedModule</text>
</g>
<!-- SharedModule&#45;&gt;AppModule -->
<g id="edge7" class="edge">
<title>SharedModule&#45;&gt;AppModule</title>
<path fill="none" stroke="black" d="M203,-122.11C203,-141.34 203,-169 203,-169 203,-169 387.08,-169 387.08,-169"/>
<polygon fill="black" stroke="black" points="387.08,-172.5 397.08,-169 387.08,-165.5 387.08,-172.5"/>
</g>
</g>
</svg>
