<?xml version="1.0" encoding="UTF-8" standalone="no"?>
<!DOCTYPE svg PUBLIC "-//W3C//DTD SVG 1.1//EN"
 "http://www.w3.org/Graphics/SVG/1.1/DTD/svg11.dtd">
<!-- Generated by graphviz version 2.46.0 (20210119.1425)
 -->
<!-- Title: dependencies Pages: 1 -->
<svg width="897pt" height="284pt"
 viewBox="0.00 0.00 897.00 284.00" xmlns="http://www.w3.org/2000/svg" xmlns:xlink="http://www.w3.org/1999/xlink">
<g id="graph0" class="graph" transform="scale(1 1) rotate(0) translate(4 280)">
<title>dependencies</title>
<polygon fill="white" stroke="transparent" points="-4,4 -4,-280 893,-280 893,4 -4,4"/>
<text text-anchor="start" x="423.51" y="-42.4" font-family="sans-serif" font-weight="bold" font-size="14.00">Legend</text>
<polygon fill="#ffffb3" stroke="transparent" points="210.5,-10 210.5,-30 230.5,-30 230.5,-10 210.5,-10"/>
<text text-anchor="start" x="234.13" y="-15.4" font-family="sans-serif" font-size="14.00"> &#160;Declarations</text>
<polygon fill="#8dd3c7" stroke="transparent" points="323.5,-10 323.5,-30 343.5,-30 343.5,-10 323.5,-10"/>
<text text-anchor="start" x="347.23" y="-15.4" font-family="sans-serif" font-size="14.00"> &#160;Module</text>
<polygon fill="#80b1d3" stroke="transparent" points="409.5,-10 409.5,-30 429.5,-30 429.5,-10 409.5,-10"/>
<text text-anchor="start" x="433.28" y="-15.4" font-family="sans-serif" font-size="14.00"> &#160;Bootstrap</text>
<polygon fill="#fdb462" stroke="transparent" points="506.5,-10 506.5,-30 526.5,-30 526.5,-10 506.5,-10"/>
<text text-anchor="start" x="530.17" y="-15.4" font-family="sans-serif" font-size="14.00"> &#160;Providers</text>
<polygon fill="#fb8072" stroke="transparent" points="602.5,-10 602.5,-30 622.5,-30 622.5,-10 602.5,-10"/>
<text text-anchor="start" x="626.23" y="-15.4" font-family="sans-serif" font-size="14.00"> &#160;Exports</text>
<g id="clust1" class="cluster">
<title>cluster_AppModule</title>
<polygon fill="none" stroke="black" stroke-dasharray="1,5" points="8,-70 8,-268 881,-268 881,-70 8,-70"/>
</g>
<g id="clust2" class="cluster">
<title>cluster_AppModule_declarations</title>
<polygon fill="none" stroke="black" points="751,-78 751,-130 873,-130 873,-78 751,-78"/>
</g>
<g id="clust4" class="cluster">
<title>cluster_AppModule_imports</title>
<polygon fill="none" stroke="black" points="16,-78 16,-130 743,-130 743,-78 16,-78"/>
</g>
<g id="clust6" class="cluster">
<title>cluster_AppModule_bootstrap</title>
<polygon fill="none" stroke="black" points="352,-208 352,-260 476,-260 476,-208 352,-208"/>
</g>
<!-- AppComponent -->
<g id="node1" class="node">
<title>AppComponent</title>
<polygon fill="#ffffb3" stroke="black" points="864.94,-122 759.06,-122 759.06,-86 864.94,-86 864.94,-122"/>
<text text-anchor="middle" x="812" y="-99.8" font-family="Times,serif" font-size="14.00">AppComponent</text>
</g>
<!-- AppModule -->
<g id="node2" class="node">
<title>AppModule</title>
<polygon fill="#8dd3c7" stroke="black" points="455.66,-187 452.66,-191 431.66,-191 428.66,-187 372.34,-187 372.34,-151 455.66,-151 455.66,-187"/>
<text text-anchor="middle" x="414" y="-164.8" font-family="Times,serif" font-size="14.00">AppModule</text>
</g>
<!-- AppComponent&#45;&gt;AppModule -->
<g id="edge1" class="edge">
<title>AppComponent&#45;&gt;AppModule</title>
<path fill="none" stroke="black" d="M812,-122.29C812,-144.21 812,-178 812,-178 812,-178 465.84,-178 465.84,-178"/>
<polygon fill="black" stroke="black" points="465.84,-174.5 455.84,-178 465.84,-181.5 465.84,-174.5"/>
</g>
<!-- AppComponent  -->
<g id="node9" class="node">
<title>AppComponent </title>
<polygon fill="#80b1d3" stroke="black" points="468.44,-252 359.56,-252 359.56,-216 468.44,-216 468.44,-252"/>
<text text-anchor="middle" x="414" y="-229.8" font-family="Times,serif" font-size="14.00">AppComponent </text>
</g>
<!-- AppModule&#45;&gt;AppComponent  -->
<g id="edge8" class="edge">
<title>AppModule&#45;&gt;AppComponent </title>
<path fill="none" stroke="black" stroke-dasharray="1,5" d="M414,-187.11C414,-187.11 414,-205.99 414,-205.99"/>
<polygon fill="black" stroke="black" points="410.5,-205.99 414,-215.99 417.5,-205.99 410.5,-205.99"/>
</g>
<!-- AppRoutingModule -->
<g id="node3" class="node">
<title>AppRoutingModule</title>
<polygon fill="#8dd3c7" stroke="black" points="735.27,-122 732.27,-126 711.27,-126 708.27,-122 606.73,-122 606.73,-86 735.27,-86 735.27,-122"/>
<text text-anchor="middle" x="671" y="-99.8" font-family="Times,serif" font-size="14.00">AppRoutingModule</text>
</g>
<!-- AppRoutingModule&#45;&gt;AppModule -->
<g id="edge2" class="edge">
<title>AppRoutingModule&#45;&gt;AppModule</title>
<path fill="none" stroke="black" d="M671,-122.11C671,-141.34 671,-169 671,-169 671,-169 465.86,-169 465.86,-169"/>
<polygon fill="black" stroke="black" points="465.86,-165.5 455.86,-169 465.86,-172.5 465.86,-165.5"/>
</g>
<!-- AppStoreModule -->
<g id="node4" class="node">
<title>AppStoreModule</title>
<polygon fill="#8dd3c7" stroke="black" points="588.7,-122 585.7,-126 564.7,-126 561.7,-122 475.3,-122 475.3,-86 588.7,-86 588.7,-122"/>
<text text-anchor="middle" x="532" y="-99.8" font-family="Times,serif" font-size="14.00">AppStoreModule</text>
</g>
<!-- AppStoreModule&#45;&gt;AppModule -->
<g id="edge3" class="edge">
<title>AppStoreModule&#45;&gt;AppModule</title>
<path fill="none" stroke="black" d="M532,-122.03C532,-138.4 532,-160 532,-160 532,-160 465.93,-160 465.93,-160"/>
<polygon fill="black" stroke="black" points="465.93,-156.5 455.93,-160 465.93,-163.5 465.93,-156.5"/>
</g>
<!-- AuthModule -->
<g id="node5" class="node">
<title>AuthModule</title>
<polygon fill="#8dd3c7" stroke="black" points="457.55,-122 454.55,-126 433.55,-126 430.55,-122 370.45,-122 370.45,-86 457.55,-86 457.55,-122"/>
<text text-anchor="middle" x="414" y="-99.8" font-family="Times,serif" font-size="14.00">AuthModule</text>
</g>
<!-- AuthModule&#45;&gt;AppModule -->
<g id="edge4" class="edge">
<title>AuthModule&#45;&gt;AppModule</title>
<path fill="none" stroke="black" d="M414,-122.11C414,-122.11 414,-140.99 414,-140.99"/>
<polygon fill="black" stroke="black" points="410.5,-140.99 414,-150.99 417.5,-140.99 410.5,-140.99"/>
</g>
<!-- CoreModule -->
<g id="node6" class="node">
<title>CoreModule</title>
<polygon fill="#8dd3c7" stroke="black" points="352.26,-122 349.26,-126 328.26,-126 325.26,-122 265.74,-122 265.74,-86 352.26,-86 352.26,-122"/>
<text text-anchor="middle" x="309" y="-99.8" font-family="Times,serif" font-size="14.00">CoreModule</text>
</g>
<!-- CoreModule&#45;&gt;AppModule -->
<g id="edge5" class="edge">
<title>CoreModule&#45;&gt;AppModule</title>
<path fill="none" stroke="black" d="M309,-122.03C309,-138.4 309,-160 309,-160 309,-160 362.2,-160 362.2,-160"/>
<polygon fill="black" stroke="black" points="362.2,-163.5 372.2,-160 362.2,-156.5 362.2,-163.5"/>
</g>
<!-- MaterialModule -->
<g id="node7" class="node">
<title>MaterialModule</title>
<polygon fill="#8dd3c7" stroke="black" points="247.47,-122 244.47,-126 223.47,-126 220.47,-122 140.53,-122 140.53,-86 247.47,-86 247.47,-122"/>
<text text-anchor="middle" x="194" y="-99.8" font-family="Times,serif" font-size="14.00">MaterialModule</text>
</g>
<!-- MaterialModule&#45;&gt;AppModule -->
<g id="edge6" class="edge">
<title>MaterialModule&#45;&gt;AppModule</title>
<path fill="none" stroke="black" d="M194,-122.11C194,-141.34 194,-169 194,-169 194,-169 362.1,-169 362.1,-169"/>
<polygon fill="black" stroke="black" points="362.1,-172.5 372.1,-169 362.1,-165.5 362.1,-172.5"/>
</g>
<!-- SharedModule -->
<g id="node8" class="node">
<title>SharedModule</title>
<polygon fill="#8dd3c7" stroke="black" points="122.42,-122 119.42,-126 98.42,-126 95.42,-122 23.58,-122 23.58,-86 122.42,-86 122.42,-122"/>
<text text-anchor="middle" x="73" y="-99.8" font-family="Times,serif" font-size="14.00">SharedModule</text>
</g>
<!-- SharedModule&#45;&gt;AppModule -->
<g id="edge7" class="edge">
<title>SharedModule&#45;&gt;AppModule</title>
<path fill="none" stroke="black" d="M73,-122.29C73,-144.21 73,-178 73,-178 73,-178 362.19,-178 362.19,-178"/>
<polygon fill="black" stroke="black" points="362.19,-181.5 372.19,-178 362.19,-174.5 362.19,-181.5"/>
</g>
</g>
</svg>
