<?xml version="1.0" encoding="UTF-8" standalone="no"?>
<!DOCTYPE svg PUBLIC "-//W3C//DTD SVG 1.1//EN"
 "http://www.w3.org/Graphics/SVG/1.1/DTD/svg11.dtd">
<!-- Generated by graphviz version 2.46.0 (20210119.1425)
 -->
<!-- Title: dependencies Pages: 1 -->
<svg width="1800pt" height="284pt"
 viewBox="0.00 0.00 1800.00 284.00" xmlns="http://www.w3.org/2000/svg" xmlns:xlink="http://www.w3.org/1999/xlink">
<g id="graph0" class="graph" transform="scale(1 1) rotate(0) translate(4 280)">
<title>dependencies</title>
<polygon fill="white" stroke="transparent" points="-4,4 -4,-280 1796,-280 1796,4 -4,4"/>
<text text-anchor="start" x="875.01" y="-42.4" font-family="sans-serif" font-weight="bold" font-size="14.00">Legend</text>
<polygon fill="#ffffb3" stroke="transparent" points="662,-10 662,-30 682,-30 682,-10 662,-10"/>
<text text-anchor="start" x="685.63" y="-15.4" font-family="sans-serif" font-size="14.00"> &#160;Declarations</text>
<polygon fill="#8dd3c7" stroke="transparent" points="775,-10 775,-30 795,-30 795,-10 775,-10"/>
<text text-anchor="start" x="798.73" y="-15.4" font-family="sans-serif" font-size="14.00"> &#160;Module</text>
<polygon fill="#80b1d3" stroke="transparent" points="861,-10 861,-30 881,-30 881,-10 861,-10"/>
<text text-anchor="start" x="884.78" y="-15.4" font-family="sans-serif" font-size="14.00"> &#160;Bootstrap</text>
<polygon fill="#fdb462" stroke="transparent" points="958,-10 958,-30 978,-30 978,-10 958,-10"/>
<text text-anchor="start" x="981.67" y="-15.4" font-family="sans-serif" font-size="14.00"> &#160;Providers</text>
<polygon fill="#fb8072" stroke="transparent" points="1054,-10 1054,-30 1074,-30 1074,-10 1054,-10"/>
<text text-anchor="start" x="1077.73" y="-15.4" font-family="sans-serif" font-size="14.00"> &#160;Exports</text>
<g id="clust1" class="cluster">
<title>cluster_AnnouncementsModule</title>
<polygon fill="none" stroke="black" stroke-dasharray="1,5" points="8,-70 8,-268 1784,-268 1784,-70 8,-70"/>
</g>
<g id="clust2" class="cluster">
<title>cluster_AnnouncementsModule_declarations</title>
<polygon fill="none" stroke="black" points="1105,-78 1105,-130 1776,-130 1776,-78 1105,-78"/>
</g>
<g id="clust7" class="cluster">
<title>cluster_AnnouncementsModule_exports</title>
<polygon fill="none" stroke="black" points="561,-208 561,-260 1243,-260 1243,-208 561,-208"/>
</g>
<g id="clust6" class="cluster">
<title>cluster_AnnouncementsModule_imports</title>
<polygon fill="none" stroke="black" points="761,-78 761,-130 1097,-130 1097,-78 761,-78"/>
</g>
<g id="clust9" class="cluster">
<title>cluster_AnnouncementsModule_providers</title>
<polygon fill="none" stroke="black" points="16,-78 16,-130 753,-130 753,-78 16,-78"/>
</g>
<!-- AnnouncementDialogComponent -->
<g id="node1" class="node">
<title>AnnouncementDialogComponent</title>
<polygon fill="#ffffb3" stroke="black" points="1768.47,-122 1563.53,-122 1563.53,-86 1768.47,-86 1768.47,-122"/>
<text text-anchor="middle" x="1666" y="-99.8" font-family="Times,serif" font-size="14.00">AnnouncementDialogComponent</text>
</g>
<!-- AnnouncementsModule -->
<g id="node4" class="node">
<title>AnnouncementsModule</title>
<polygon fill="#8dd3c7" stroke="black" points="981.03,-187 978.03,-191 957.03,-191 954.03,-187 830.97,-187 830.97,-151 981.03,-151 981.03,-187"/>
<text text-anchor="middle" x="906" y="-164.8" font-family="Times,serif" font-size="14.00">AnnouncementsModule</text>
</g>
<!-- AnnouncementDialogComponent&#45;&gt;AnnouncementsModule -->
<g id="edge1" class="edge">
<title>AnnouncementDialogComponent&#45;&gt;AnnouncementsModule</title>
<path fill="none" stroke="black" d="M1666,-122.13C1666,-142.57 1666,-173 1666,-173 1666,-173 991.3,-173 991.3,-173"/>
<polygon fill="black" stroke="black" points="991.3,-169.5 981.3,-173 991.3,-176.5 991.3,-169.5"/>
</g>
<!-- AnnouncementResultComponent -->
<g id="node2" class="node">
<title>AnnouncementResultComponent</title>
<polygon fill="#ffffb3" stroke="black" points="1545.14,-122 1342.86,-122 1342.86,-86 1545.14,-86 1545.14,-122"/>
<text text-anchor="middle" x="1444" y="-99.8" font-family="Times,serif" font-size="14.00">AnnouncementResultComponent</text>
</g>
<!-- AnnouncementResultComponent&#45;&gt;AnnouncementsModule -->
<g id="edge2" class="edge">
<title>AnnouncementResultComponent&#45;&gt;AnnouncementsModule</title>
<path fill="none" stroke="black" d="M1444,-122.27C1444,-140.56 1444,-166 1444,-166 1444,-166 991.09,-166 991.09,-166"/>
<polygon fill="black" stroke="black" points="991.09,-162.5 981.09,-166 991.09,-169.5 991.09,-162.5"/>
</g>
<!-- CourseAnnouncementsComponent -->
<g id="node3" class="node">
<title>CourseAnnouncementsComponent</title>
<polygon fill="#ffffb3" stroke="black" points="1324.97,-122 1113.03,-122 1113.03,-86 1324.97,-86 1324.97,-122"/>
<text text-anchor="middle" x="1219" y="-99.8" font-family="Times,serif" font-size="14.00">CourseAnnouncementsComponent</text>
</g>
<!-- CourseAnnouncementsComponent&#45;&gt;AnnouncementsModule -->
<g id="edge3" class="edge">
<title>CourseAnnouncementsComponent&#45;&gt;AnnouncementsModule</title>
<path fill="none" stroke="black" d="M1174.13,-122.01C1174.13,-138.05 1174.13,-159 1174.13,-159 1174.13,-159 991.04,-159 991.04,-159"/>
<polygon fill="black" stroke="black" points="991.04,-155.5 981.04,-159 991.04,-162.5 991.04,-155.5"/>
</g>
<!-- AnnouncementDialogComponent  -->
<g id="node7" class="node">
<title>AnnouncementDialogComponent </title>
<polygon fill="#fb8072" stroke="black" points="1235.47,-252 1026.53,-252 1026.53,-216 1235.47,-216 1235.47,-252"/>
<text text-anchor="middle" x="1131" y="-229.8" font-family="Times,serif" font-size="14.00">AnnouncementDialogComponent </text>
</g>
<!-- AnnouncementsModule&#45;&gt;AnnouncementDialogComponent  -->
<g id="edge6" class="edge">
<title>AnnouncementsModule&#45;&gt;AnnouncementDialogComponent </title>
<path fill="none" stroke="black" stroke-dasharray="5,2" d="M981.45,-180C1019.55,-180 1057.79,-180 1057.79,-180 1057.79,-180 1057.79,-205.72 1057.79,-205.72"/>
<polygon fill="black" stroke="black" points="1054.29,-205.72 1057.79,-215.72 1061.29,-205.72 1054.29,-205.72"/>
</g>
<!-- AnnouncementResultComponent  -->
<g id="node8" class="node">
<title>AnnouncementResultComponent </title>
<polygon fill="#fb8072" stroke="black" points="1009.14,-252 802.86,-252 802.86,-216 1009.14,-216 1009.14,-252"/>
<text text-anchor="middle" x="906" y="-229.8" font-family="Times,serif" font-size="14.00">AnnouncementResultComponent </text>
</g>
<!-- AnnouncementsModule&#45;&gt;AnnouncementResultComponent  -->
<g id="edge7" class="edge">
<title>AnnouncementsModule&#45;&gt;AnnouncementResultComponent </title>
<path fill="none" stroke="black" stroke-dasharray="5,2" d="M906,-187.11C906,-187.11 906,-205.99 906,-205.99"/>
<polygon fill="black" stroke="black" points="902.5,-205.99 906,-215.99 909.5,-205.99 902.5,-205.99"/>
</g>
<!-- CourseAnnouncementsComponent  -->
<g id="node9" class="node">
<title>CourseAnnouncementsComponent </title>
<polygon fill="#fb8072" stroke="black" points="784.97,-252 569.03,-252 569.03,-216 784.97,-216 784.97,-252"/>
<text text-anchor="middle" x="677" y="-229.8" font-family="Times,serif" font-size="14.00">CourseAnnouncementsComponent </text>
</g>
<!-- AnnouncementsModule&#45;&gt;CourseAnnouncementsComponent  -->
<g id="edge8" class="edge">
<title>AnnouncementsModule&#45;&gt;CourseAnnouncementsComponent </title>
<path fill="none" stroke="black" stroke-dasharray="5,2" d="M830.74,-180C802.28,-180 776.62,-180 776.62,-180 776.62,-180 776.62,-205.72 776.62,-205.72"/>
<polygon fill="black" stroke="black" points="773.12,-205.72 776.62,-215.72 780.12,-205.72 773.12,-205.72"/>
</g>
<!-- AnnouncementsRoutingModule -->
<g id="node5" class="node">
<title>AnnouncementsRoutingModule</title>
<polygon fill="#8dd3c7" stroke="black" points="1088.64,-122 1085.64,-126 1064.64,-126 1061.64,-122 893.36,-122 893.36,-86 1088.64,-86 1088.64,-122"/>
<text text-anchor="middle" x="991" y="-99.8" font-family="Times,serif" font-size="14.00">AnnouncementsRoutingModule</text>
</g>
<!-- AnnouncementsRoutingModule&#45;&gt;AnnouncementsModule -->
<g id="edge4" class="edge">
<title>AnnouncementsRoutingModule&#45;&gt;AnnouncementsModule</title>
<path fill="none" stroke="black" d="M937.22,-122.11C937.22,-122.11 937.22,-140.99 937.22,-140.99"/>
<polygon fill="black" stroke="black" points="933.72,-140.99 937.22,-150.99 940.72,-140.99 933.72,-140.99"/>
</g>
<!-- MaterialModule -->
<g id="node6" class="node">
<title>MaterialModule</title>
<polygon fill="#8dd3c7" stroke="black" points="875.47,-122 872.47,-126 851.47,-126 848.47,-122 768.53,-122 768.53,-86 875.47,-86 875.47,-122"/>
<text text-anchor="middle" x="822" y="-99.8" font-family="Times,serif" font-size="14.00">MaterialModule</text>
</g>
<!-- MaterialModule&#45;&gt;AnnouncementsModule -->
<g id="edge5" class="edge">
<title>MaterialModule&#45;&gt;AnnouncementsModule</title>
<path fill="none" stroke="black" d="M853.11,-122.11C853.11,-122.11 853.11,-140.99 853.11,-140.99"/>
<polygon fill="black" stroke="black" points="849.61,-140.99 853.11,-150.99 856.61,-140.99 849.61,-140.99"/>
</g>
<!-- AnnouncementDataService -->
<g id="node10" class="node">
<title>AnnouncementDataService</title>
<ellipse fill="#fdb462" stroke="black" cx="628" cy="-104" rx="117.44" ry="18"/>
<text text-anchor="middle" x="628" y="-99.8" font-family="Times,serif" font-size="14.00">AnnouncementDataService</text>
</g>
<!-- AnnouncementDataService&#45;&gt;AnnouncementsModule -->
<g id="edge9" class="edge">
<title>AnnouncementDataService&#45;&gt;AnnouncementsModule</title>
<path fill="none" stroke="black" d="M657.24,-121.71C657.24,-137.78 657.24,-159 657.24,-159 657.24,-159 820.69,-159 820.69,-159"/>
<polygon fill="black" stroke="black" points="820.69,-162.5 830.69,-159 820.69,-155.5 820.69,-162.5"/>
</g>
<!-- AnnouncementEntityService -->
<g id="node11" class="node">
<title>AnnouncementEntityService</title>
<ellipse fill="#fdb462" stroke="black" cx="370" cy="-104" rx="122.69" ry="18"/>
<text text-anchor="middle" x="370" y="-99.8" font-family="Times,serif" font-size="14.00">AnnouncementEntityService</text>
</g>
<!-- AnnouncementEntityService&#45;&gt;AnnouncementsModule -->
<g id="edge10" class="edge">
<title>AnnouncementEntityService&#45;&gt;AnnouncementsModule</title>
<path fill="none" stroke="black" d="M370,-122.27C370,-140.56 370,-166 370,-166 370,-166 820.91,-166 820.91,-166"/>
<polygon fill="black" stroke="black" points="820.91,-169.5 830.91,-166 820.91,-162.5 820.91,-169.5"/>
</g>
<!-- AnnouncementsService -->
<g id="node12" class="node">
<title>AnnouncementsService</title>
<ellipse fill="#fdb462" stroke="black" cx="127" cy="-104" rx="102.99" ry="18"/>
<text text-anchor="middle" x="127" y="-99.8" font-family="Times,serif" font-size="14.00">AnnouncementsService</text>
</g>
<!-- AnnouncementsService&#45;&gt;AnnouncementsModule -->
<g id="edge11" class="edge">
<title>AnnouncementsService&#45;&gt;AnnouncementsModule</title>
<path fill="none" stroke="black" d="M127,-122.13C127,-142.57 127,-173 127,-173 127,-173 820.95,-173 820.95,-173"/>
<polygon fill="black" stroke="black" points="820.95,-176.5 830.95,-173 820.95,-169.5 820.95,-176.5"/>
</g>
</g>
</svg>
