<?xml version="1.0" encoding="UTF-8" standalone="no"?>
<!DOCTYPE svg PUBLIC "-//W3C//DTD SVG 1.1//EN"
 "http://www.w3.org/Graphics/SVG/1.1/DTD/svg11.dtd">
<!-- Generated by graphviz version 2.46.0 (20210119.1425)
 -->
<!-- Title: dependencies Pages: 1 -->
<svg width="1577pt" height="284pt"
 viewBox="0.00 0.00 1577.00 284.00" xmlns="http://www.w3.org/2000/svg" xmlns:xlink="http://www.w3.org/1999/xlink">
<g id="graph0" class="graph" transform="scale(1 1) rotate(0) translate(4 280)">
<title>dependencies</title>
<polygon fill="white" stroke="transparent" points="-4,4 -4,-280 1573,-280 1573,4 -4,4"/>
<text text-anchor="start" x="763.51" y="-42.4" font-family="sans-serif" font-weight="bold" font-size="14.00">Legend</text>
<polygon fill="#ffffb3" stroke="transparent" points="550.5,-10 550.5,-30 570.5,-30 570.5,-10 550.5,-10"/>
<text text-anchor="start" x="574.13" y="-15.4" font-family="sans-serif" font-size="14.00"> &#160;Declarations</text>
<polygon fill="#8dd3c7" stroke="transparent" points="663.5,-10 663.5,-30 683.5,-30 683.5,-10 663.5,-10"/>
<text text-anchor="start" x="687.23" y="-15.4" font-family="sans-serif" font-size="14.00"> &#160;Module</text>
<polygon fill="#80b1d3" stroke="transparent" points="749.5,-10 749.5,-30 769.5,-30 769.5,-10 749.5,-10"/>
<text text-anchor="start" x="773.28" y="-15.4" font-family="sans-serif" font-size="14.00"> &#160;Bootstrap</text>
<polygon fill="#fdb462" stroke="transparent" points="846.5,-10 846.5,-30 866.5,-30 866.5,-10 846.5,-10"/>
<text text-anchor="start" x="870.17" y="-15.4" font-family="sans-serif" font-size="14.00"> &#160;Providers</text>
<polygon fill="#fb8072" stroke="transparent" points="942.5,-10 942.5,-30 962.5,-30 962.5,-10 942.5,-10"/>
<text text-anchor="start" x="966.23" y="-15.4" font-family="sans-serif" font-size="14.00"> &#160;Exports</text>
<g id="clust1" class="cluster">
<title>cluster_AnnouncementsModule</title>
<polygon fill="none" stroke="black" stroke-dasharray="1,5" points="8,-70 8,-268 1561,-268 1561,-70 8,-70"/>
</g>
<g id="clust2" class="cluster">
<title>cluster_AnnouncementsModule_declarations</title>
<polygon fill="none" stroke="black" points="882,-78 882,-130 1553,-130 1553,-78 882,-78"/>
</g>
<g id="clust9" class="cluster">
<title>cluster_AnnouncementsModule_providers</title>
<polygon fill="none" stroke="black" points="360,-78 360,-130 874,-130 874,-78 360,-78"/>
</g>
<g id="clust6" class="cluster">
<title>cluster_AnnouncementsModule_imports</title>
<polygon fill="none" stroke="black" points="16,-78 16,-130 352,-130 352,-78 16,-78"/>
</g>
<g id="clust7" class="cluster">
<title>cluster_AnnouncementsModule_exports</title>
<polygon fill="none" stroke="black" points="404,-208 404,-260 1086,-260 1086,-208 404,-208"/>
</g>
<!-- AnnouncementDialogComponent -->
<g id="node1" class="node">
<title>AnnouncementDialogComponent</title>
<polygon fill="#ffffb3" stroke="black" points="1545.47,-122 1340.53,-122 1340.53,-86 1545.47,-86 1545.47,-122"/>
<text text-anchor="middle" x="1443" y="-99.8" font-family="Times,serif" font-size="14.00">AnnouncementDialogComponent</text>
</g>
<!-- AnnouncementsModule -->
<g id="node4" class="node">
<title>AnnouncementsModule</title>
<polygon fill="#8dd3c7" stroke="black" points="824.03,-187 821.03,-191 800.03,-191 797.03,-187 673.97,-187 673.97,-151 824.03,-151 824.03,-187"/>
<text text-anchor="middle" x="749" y="-164.8" font-family="Times,serif" font-size="14.00">AnnouncementsModule</text>
</g>
<!-- AnnouncementDialogComponent&#45;&gt;AnnouncementsModule -->
<g id="edge1" class="edge">
<title>AnnouncementDialogComponent&#45;&gt;AnnouncementsModule</title>
<path fill="none" stroke="black" d="M1443,-122.13C1443,-142.57 1443,-173 1443,-173 1443,-173 834.26,-173 834.26,-173"/>
<polygon fill="black" stroke="black" points="834.26,-169.5 824.26,-173 834.26,-176.5 834.26,-169.5"/>
</g>
<!-- AnnouncementResultComponent -->
<g id="node2" class="node">
<title>AnnouncementResultComponent</title>
<polygon fill="#ffffb3" stroke="black" points="1322.14,-122 1119.86,-122 1119.86,-86 1322.14,-86 1322.14,-122"/>
<text text-anchor="middle" x="1221" y="-99.8" font-family="Times,serif" font-size="14.00">AnnouncementResultComponent</text>
</g>
<!-- AnnouncementResultComponent&#45;&gt;AnnouncementsModule -->
<g id="edge2" class="edge">
<title>AnnouncementResultComponent&#45;&gt;AnnouncementsModule</title>
<path fill="none" stroke="black" d="M1221,-122.27C1221,-140.56 1221,-166 1221,-166 1221,-166 834.05,-166 834.05,-166"/>
<polygon fill="black" stroke="black" points="834.05,-162.5 824.05,-166 834.05,-169.5 834.05,-162.5"/>
</g>
<!-- CourseAnnouncementsComponent -->
<g id="node3" class="node">
<title>CourseAnnouncementsComponent</title>
<polygon fill="#ffffb3" stroke="black" points="1101.97,-122 890.03,-122 890.03,-86 1101.97,-86 1101.97,-122"/>
<text text-anchor="middle" x="996" y="-99.8" font-family="Times,serif" font-size="14.00">CourseAnnouncementsComponent</text>
</g>
<!-- CourseAnnouncementsComponent&#45;&gt;AnnouncementsModule -->
<g id="edge3" class="edge">
<title>CourseAnnouncementsComponent&#45;&gt;AnnouncementsModule</title>
<path fill="none" stroke="black" d="M984.13,-122.01C984.13,-138.05 984.13,-159 984.13,-159 984.13,-159 834.04,-159 834.04,-159"/>
<polygon fill="black" stroke="black" points="834.04,-155.5 824.04,-159 834.04,-162.5 834.04,-155.5"/>
</g>
<!-- AnnouncementDialogComponent  -->
<g id="node7" class="node">
<title>AnnouncementDialogComponent </title>
<polygon fill="#fb8072" stroke="black" points="1078.47,-252 869.53,-252 869.53,-216 1078.47,-216 1078.47,-252"/>
<text text-anchor="middle" x="974" y="-229.8" font-family="Times,serif" font-size="14.00">AnnouncementDialogComponent </text>
</g>
<!-- AnnouncementsModule&#45;&gt;AnnouncementDialogComponent  -->
<g id="edge6" class="edge">
<title>AnnouncementsModule&#45;&gt;AnnouncementDialogComponent </title>
<path fill="none" stroke="black" stroke-dasharray="5,2" d="M824.38,-180C853.48,-180 879.89,-180 879.89,-180 879.89,-180 879.89,-205.72 879.89,-205.72"/>
<polygon fill="black" stroke="black" points="876.39,-205.72 879.89,-215.72 883.39,-205.72 876.39,-205.72"/>
</g>
<!-- AnnouncementResultComponent  -->
<g id="node8" class="node">
<title>AnnouncementResultComponent </title>
<polygon fill="#fb8072" stroke="black" points="852.14,-252 645.86,-252 645.86,-216 852.14,-216 852.14,-252"/>
<text text-anchor="middle" x="749" y="-229.8" font-family="Times,serif" font-size="14.00">AnnouncementResultComponent </text>
</g>
<!-- AnnouncementsModule&#45;&gt;AnnouncementResultComponent  -->
<g id="edge7" class="edge">
<title>AnnouncementsModule&#45;&gt;AnnouncementResultComponent </title>
<path fill="none" stroke="black" stroke-dasharray="5,2" d="M749,-187.11C749,-187.11 749,-205.99 749,-205.99"/>
<polygon fill="black" stroke="black" points="745.5,-205.99 749,-215.99 752.5,-205.99 745.5,-205.99"/>
</g>
<!-- CourseAnnouncementsComponent  -->
<g id="node9" class="node">
<title>CourseAnnouncementsComponent </title>
<polygon fill="#fb8072" stroke="black" points="627.97,-252 412.03,-252 412.03,-216 627.97,-216 627.97,-252"/>
<text text-anchor="middle" x="520" y="-229.8" font-family="Times,serif" font-size="14.00">CourseAnnouncementsComponent </text>
</g>
<!-- AnnouncementsModule&#45;&gt;CourseAnnouncementsComponent  -->
<g id="edge8" class="edge">
<title>AnnouncementsModule&#45;&gt;CourseAnnouncementsComponent </title>
<path fill="none" stroke="black" stroke-dasharray="5,2" d="M673.6,-180C645.67,-180 620.66,-180 620.66,-180 620.66,-180 620.66,-205.72 620.66,-205.72"/>
<polygon fill="black" stroke="black" points="617.17,-205.72 620.66,-215.72 624.17,-205.72 617.17,-205.72"/>
</g>
<!-- AnnouncementsRoutingModule -->
<g id="node5" class="node">
<title>AnnouncementsRoutingModule</title>
<polygon fill="#8dd3c7" stroke="black" points="343.64,-122 340.64,-126 319.64,-126 316.64,-122 148.36,-122 148.36,-86 343.64,-86 343.64,-122"/>
<text text-anchor="middle" x="246" y="-99.8" font-family="Times,serif" font-size="14.00">AnnouncementsRoutingModule</text>
</g>
<!-- AnnouncementsRoutingModule&#45;&gt;AnnouncementsModule -->
<g id="edge4" class="edge">
<title>AnnouncementsRoutingModule&#45;&gt;AnnouncementsModule</title>
<path fill="none" stroke="black" d="M246,-122.27C246,-140.56 246,-166 246,-166 246,-166 663.97,-166 663.97,-166"/>
<polygon fill="black" stroke="black" points="663.97,-169.5 673.97,-166 663.97,-162.5 663.97,-169.5"/>
</g>
<!-- MaterialModule -->
<g id="node6" class="node">
<title>MaterialModule</title>
<polygon fill="#8dd3c7" stroke="black" points="130.47,-122 127.47,-126 106.47,-126 103.47,-122 23.53,-122 23.53,-86 130.47,-86 130.47,-122"/>
<text text-anchor="middle" x="77" y="-99.8" font-family="Times,serif" font-size="14.00">MaterialModule</text>
</g>
<!-- MaterialModule&#45;&gt;AnnouncementsModule -->
<g id="edge5" class="edge">
<title>MaterialModule&#45;&gt;AnnouncementsModule</title>
<path fill="none" stroke="black" d="M77,-122.13C77,-142.57 77,-173 77,-173 77,-173 663.87,-173 663.87,-173"/>
<polygon fill="black" stroke="black" points="663.87,-176.5 673.87,-173 663.87,-169.5 663.87,-176.5"/>
</g>
<!-- AnnouncementDataService -->
<g id="node10" class="node">
<title>AnnouncementDataService</title>
<ellipse fill="#fdb462" stroke="black" cx="749" cy="-104" rx="117.44" ry="18"/>
<text text-anchor="middle" x="749" y="-99.8" font-family="Times,serif" font-size="14.00">AnnouncementDataService</text>
</g>
<!-- AnnouncementDataService&#45;&gt;AnnouncementsModule -->
<g id="edge9" class="edge">
<title>AnnouncementDataService&#45;&gt;AnnouncementsModule</title>
<path fill="none" stroke="black" d="M749,-122.11C749,-122.11 749,-140.99 749,-140.99"/>
<polygon fill="black" stroke="black" points="745.5,-140.99 749,-150.99 752.5,-140.99 745.5,-140.99"/>
</g>
<!-- AnnouncementEntityService -->
<g id="node11" class="node">
<title>AnnouncementEntityService</title>
<ellipse fill="#fdb462" stroke="black" cx="491" cy="-104" rx="122.69" ry="18"/>
<text text-anchor="middle" x="491" y="-99.8" font-family="Times,serif" font-size="14.00">AnnouncementEntityService</text>
</g>
<!-- AnnouncementEntityService&#45;&gt;AnnouncementsModule -->
<g id="edge10" class="edge">
<title>AnnouncementEntityService&#45;&gt;AnnouncementsModule</title>
<path fill="none" stroke="black" d="M512.93,-122.01C512.93,-138.05 512.93,-159 512.93,-159 512.93,-159 663.66,-159 663.66,-159"/>
<polygon fill="black" stroke="black" points="663.66,-162.5 673.66,-159 663.66,-155.5 663.66,-162.5"/>
</g>
</g>
</svg>
