<?xml version="1.0" encoding="UTF-8" standalone="no"?>
<!DOCTYPE svg PUBLIC "-//W3C//DTD SVG 1.1//EN"
 "http://www.w3.org/Graphics/SVG/1.1/DTD/svg11.dtd">
<!-- Generated by graphviz version 2.46.0 (20210119.1425)
 -->
<!-- Title: dependencies Pages: 1 -->
<svg width="1800pt" height="284pt"
 viewBox="0.00 0.00 1800.00 284.00" xmlns="http://www.w3.org/2000/svg" xmlns:xlink="http://www.w3.org/1999/xlink">
<g id="graph0" class="graph" transform="scale(1 1) rotate(0) translate(4 280)">
<title>dependencies</title>
<polygon fill="white" stroke="transparent" points="-4,4 -4,-280 1796,-280 1796,4 -4,4"/>
<text text-anchor="start" x="875.01" y="-42.4" font-family="sans-serif" font-weight="bold" font-size="14.00">Legend</text>
<polygon fill="#ffffb3" stroke="transparent" points="662,-10 662,-30 682,-30 682,-10 662,-10"/>
<text text-anchor="start" x="685.63" y="-15.4" font-family="sans-serif" font-size="14.00"> &#160;Declarations</text>
<polygon fill="#8dd3c7" stroke="transparent" points="775,-10 775,-30 795,-30 795,-10 775,-10"/>
<text text-anchor="start" x="798.73" y="-15.4" font-family="sans-serif" font-size="14.00"> &#160;Module</text>
<polygon fill="#80b1d3" stroke="transparent" points="861,-10 861,-30 881,-30 881,-10 861,-10"/>
<text text-anchor="start" x="884.78" y="-15.4" font-family="sans-serif" font-size="14.00"> &#160;Bootstrap</text>
<polygon fill="#fdb462" stroke="transparent" points="958,-10 958,-30 978,-30 978,-10 958,-10"/>
<text text-anchor="start" x="981.67" y="-15.4" font-family="sans-serif" font-size="14.00"> &#160;Providers</text>
<polygon fill="#fb8072" stroke="transparent" points="1054,-10 1054,-30 1074,-30 1074,-10 1054,-10"/>
<text text-anchor="start" x="1077.73" y="-15.4" font-family="sans-serif" font-size="14.00"> &#160;Exports</text>
<g id="clust1" class="cluster">
<title>cluster_AnnouncementsModule</title>
<polygon fill="none" stroke="black" stroke-dasharray="1,5" points="8,-70 8,-268 1784,-268 1784,-70 8,-70"/>
</g>
<g id="clust7" class="cluster">
<title>cluster_AnnouncementsModule_exports</title>
<polygon fill="none" stroke="black" points="642,-208 642,-260 1324,-260 1324,-208 642,-208"/>
</g>
<g id="clust6" class="cluster">
<title>cluster_AnnouncementsModule_imports</title>
<polygon fill="none" stroke="black" points="1440,-78 1440,-130 1776,-130 1776,-78 1440,-78"/>
</g>
<g id="clust2" class="cluster">
<title>cluster_AnnouncementsModule_declarations</title>
<polygon fill="none" stroke="black" points="761,-78 761,-130 1432,-130 1432,-78 761,-78"/>
</g>
<g id="clust9" class="cluster">
<title>cluster_AnnouncementsModule_providers</title>
<polygon fill="none" stroke="black" points="16,-78 16,-130 753,-130 753,-78 16,-78"/>
</g>
<!-- AnnouncementDialogComponent -->
<g id="node1" class="node">
<title>AnnouncementDialogComponent</title>
<polygon fill="#ffffb3" stroke="black" points="1424.47,-122 1219.53,-122 1219.53,-86 1424.47,-86 1424.47,-122"/>
<text text-anchor="middle" x="1322" y="-99.8" font-family="Times,serif" font-size="14.00">AnnouncementDialogComponent</text>
</g>
<!-- AnnouncementsModule -->
<g id="node4" class="node">
<title>AnnouncementsModule</title>
<polygon fill="#8dd3c7" stroke="black" points="1062.03,-187 1059.03,-191 1038.03,-191 1035.03,-187 911.97,-187 911.97,-151 1062.03,-151 1062.03,-187"/>
<text text-anchor="middle" x="987" y="-164.8" font-family="Times,serif" font-size="14.00">AnnouncementsModule</text>
</g>
<!-- AnnouncementDialogComponent&#45;&gt;AnnouncementsModule -->
<g id="edge1" class="edge">
<title>AnnouncementDialogComponent&#45;&gt;AnnouncementsModule</title>
<path fill="none" stroke="black" d="M1267.88,-122.01C1267.88,-138.05 1267.88,-159 1267.88,-159 1267.88,-159 1072.27,-159 1072.27,-159"/>
<polygon fill="black" stroke="black" points="1072.27,-155.5 1062.27,-159 1072.27,-162.5 1072.27,-155.5"/>
</g>
<!-- AnnouncementResultComponent -->
<g id="node2" class="node">
<title>AnnouncementResultComponent</title>
<polygon fill="#ffffb3" stroke="black" points="1201.14,-122 998.86,-122 998.86,-86 1201.14,-86 1201.14,-122"/>
<text text-anchor="middle" x="1100" y="-99.8" font-family="Times,serif" font-size="14.00">AnnouncementResultComponent</text>
</g>
<!-- AnnouncementResultComponent&#45;&gt;AnnouncementsModule -->
<g id="edge2" class="edge">
<title>AnnouncementResultComponent&#45;&gt;AnnouncementsModule</title>
<path fill="none" stroke="black" d="M1030.47,-122.11C1030.47,-122.11 1030.47,-140.99 1030.47,-140.99"/>
<polygon fill="black" stroke="black" points="1026.97,-140.99 1030.47,-150.99 1033.97,-140.99 1026.97,-140.99"/>
</g>
<!-- CourseAnnouncementsComponent -->
<g id="node3" class="node">
<title>CourseAnnouncementsComponent</title>
<polygon fill="#ffffb3" stroke="black" points="980.97,-122 769.03,-122 769.03,-86 980.97,-86 980.97,-122"/>
<text text-anchor="middle" x="875" y="-99.8" font-family="Times,serif" font-size="14.00">CourseAnnouncementsComponent</text>
</g>
<!-- CourseAnnouncementsComponent&#45;&gt;AnnouncementsModule -->
<g id="edge3" class="edge">
<title>CourseAnnouncementsComponent&#45;&gt;AnnouncementsModule</title>
<path fill="none" stroke="black" d="M946.36,-122.11C946.36,-122.11 946.36,-140.99 946.36,-140.99"/>
<polygon fill="black" stroke="black" points="942.86,-140.99 946.36,-150.99 949.86,-140.99 942.86,-140.99"/>
</g>
<!-- AnnouncementDialogComponent  -->
<g id="node7" class="node">
<title>AnnouncementDialogComponent </title>
<polygon fill="#fb8072" stroke="black" points="1316.47,-252 1107.53,-252 1107.53,-216 1316.47,-216 1316.47,-252"/>
<text text-anchor="middle" x="1212" y="-229.8" font-family="Times,serif" font-size="14.00">AnnouncementDialogComponent </text>
</g>
<!-- AnnouncementsModule&#45;&gt;AnnouncementDialogComponent  -->
<g id="edge6" class="edge">
<title>AnnouncementsModule&#45;&gt;AnnouncementDialogComponent </title>
<path fill="none" stroke="black" stroke-dasharray="5,2" d="M1062.44,-180C1106.91,-180 1154.54,-180 1154.54,-180 1154.54,-180 1154.54,-205.72 1154.54,-205.72"/>
<polygon fill="black" stroke="black" points="1151.04,-205.72 1154.54,-215.72 1158.04,-205.72 1151.04,-205.72"/>
</g>
<!-- AnnouncementResultComponent  -->
<g id="node8" class="node">
<title>AnnouncementResultComponent </title>
<polygon fill="#fb8072" stroke="black" points="1090.14,-252 883.86,-252 883.86,-216 1090.14,-216 1090.14,-252"/>
<text text-anchor="middle" x="987" y="-229.8" font-family="Times,serif" font-size="14.00">AnnouncementResultComponent </text>
</g>
<!-- AnnouncementsModule&#45;&gt;AnnouncementResultComponent  -->
<g id="edge7" class="edge">
<title>AnnouncementsModule&#45;&gt;AnnouncementResultComponent </title>
<path fill="none" stroke="black" stroke-dasharray="5,2" d="M987,-187.11C987,-187.11 987,-205.99 987,-205.99"/>
<polygon fill="black" stroke="black" points="983.5,-205.99 987,-215.99 990.5,-205.99 983.5,-205.99"/>
</g>
<!-- CourseAnnouncementsComponent  -->
<g id="node9" class="node">
<title>CourseAnnouncementsComponent </title>
<polygon fill="#fb8072" stroke="black" points="865.97,-252 650.03,-252 650.03,-216 865.97,-216 865.97,-252"/>
<text text-anchor="middle" x="758" y="-229.8" font-family="Times,serif" font-size="14.00">CourseAnnouncementsComponent </text>
</g>
<!-- AnnouncementsModule&#45;&gt;CourseAnnouncementsComponent  -->
<g id="edge8" class="edge">
<title>AnnouncementsModule&#45;&gt;CourseAnnouncementsComponent </title>
<path fill="none" stroke="black" stroke-dasharray="5,2" d="M911.61,-180C866.31,-180 817.38,-180 817.38,-180 817.38,-180 817.38,-205.72 817.38,-205.72"/>
<polygon fill="black" stroke="black" points="813.88,-205.72 817.38,-215.72 820.88,-205.72 813.88,-205.72"/>
</g>
<!-- AnnouncementsRoutingModule -->
<g id="node5" class="node">
<title>AnnouncementsRoutingModule</title>
<polygon fill="#8dd3c7" stroke="black" points="1767.64,-122 1764.64,-126 1743.64,-126 1740.64,-122 1572.36,-122 1572.36,-86 1767.64,-86 1767.64,-122"/>
<text text-anchor="middle" x="1670" y="-99.8" font-family="Times,serif" font-size="14.00">AnnouncementsRoutingModule</text>
</g>
<!-- AnnouncementsRoutingModule&#45;&gt;AnnouncementsModule -->
<g id="edge4" class="edge">
<title>AnnouncementsRoutingModule&#45;&gt;AnnouncementsModule</title>
<path fill="none" stroke="black" d="M1670,-122.13C1670,-142.57 1670,-173 1670,-173 1670,-173 1072.05,-173 1072.05,-173"/>
<polygon fill="black" stroke="black" points="1072.05,-169.5 1062.05,-173 1072.05,-176.5 1072.05,-169.5"/>
</g>
<!-- MaterialModule -->
<g id="node6" class="node">
<title>MaterialModule</title>
<polygon fill="#8dd3c7" stroke="black" points="1554.47,-122 1551.47,-126 1530.47,-126 1527.47,-122 1447.53,-122 1447.53,-86 1554.47,-86 1554.47,-122"/>
<text text-anchor="middle" x="1501" y="-99.8" font-family="Times,serif" font-size="14.00">MaterialModule</text>
</g>
<!-- MaterialModule&#45;&gt;AnnouncementsModule -->
<g id="edge5" class="edge">
<title>MaterialModule&#45;&gt;AnnouncementsModule</title>
<path fill="none" stroke="black" d="M1501,-122.27C1501,-140.56 1501,-166 1501,-166 1501,-166 1072.29,-166 1072.29,-166"/>
<polygon fill="black" stroke="black" points="1072.29,-162.5 1062.29,-166 1072.29,-169.5 1072.29,-162.5"/>
</g>
<!-- AnnouncementDataService -->
<g id="node10" class="node">
<title>AnnouncementDataService</title>
<ellipse fill="#fdb462" stroke="black" cx="628" cy="-104" rx="117.44" ry="18"/>
<text text-anchor="middle" x="628" y="-99.8" font-family="Times,serif" font-size="14.00">AnnouncementDataService</text>
</g>
<!-- AnnouncementDataService&#45;&gt;AnnouncementsModule -->
<g id="edge9" class="edge">
<title>AnnouncementDataService&#45;&gt;AnnouncementsModule</title>
<path fill="none" stroke="black" d="M697.74,-118.74C697.74,-135.03 697.74,-159 697.74,-159 697.74,-159 901.76,-159 901.76,-159"/>
<polygon fill="black" stroke="black" points="901.76,-162.5 911.76,-159 901.76,-155.5 901.76,-162.5"/>
</g>
<!-- AnnouncementEntityService -->
<g id="node11" class="node">
<title>AnnouncementEntityService</title>
<ellipse fill="#fdb462" stroke="black" cx="370" cy="-104" rx="122.69" ry="18"/>
<text text-anchor="middle" x="370" y="-99.8" font-family="Times,serif" font-size="14.00">AnnouncementEntityService</text>
</g>
<!-- AnnouncementEntityService&#45;&gt;AnnouncementsModule -->
<g id="edge10" class="edge">
<title>AnnouncementEntityService&#45;&gt;AnnouncementsModule</title>
<path fill="none" stroke="black" d="M370,-122.27C370,-140.56 370,-166 370,-166 370,-166 901.96,-166 901.96,-166"/>
<polygon fill="black" stroke="black" points="901.96,-169.5 911.96,-166 901.96,-162.5 901.96,-169.5"/>
</g>
<!-- AnnouncementsService -->
<g id="node12" class="node">
<title>AnnouncementsService</title>
<ellipse fill="#fdb462" stroke="black" cx="127" cy="-104" rx="102.99" ry="18"/>
<text text-anchor="middle" x="127" y="-99.8" font-family="Times,serif" font-size="14.00">AnnouncementsService</text>
</g>
<!-- AnnouncementsService&#45;&gt;AnnouncementsModule -->
<g id="edge11" class="edge">
<title>AnnouncementsService&#45;&gt;AnnouncementsModule</title>
<path fill="none" stroke="black" d="M127,-122.13C127,-142.57 127,-173 127,-173 127,-173 901.81,-173 901.81,-173"/>
<polygon fill="black" stroke="black" points="901.81,-176.5 911.81,-173 901.81,-169.5 901.81,-176.5"/>
</g>
</g>
</svg>
