<?xml version="1.0" encoding="UTF-8" standalone="no"?>
<!DOCTYPE svg PUBLIC "-//W3C//DTD SVG 1.1//EN"
 "http://www.w3.org/Graphics/SVG/1.1/DTD/svg11.dtd">
<!-- Generated by graphviz version 2.46.0 (20210119.1425)
 -->
<!-- Title: dependencies Pages: 1 -->
<svg width="2424pt" height="211pt"
 viewBox="0.00 0.00 2424.00 211.00" xmlns="http://www.w3.org/2000/svg" xmlns:xlink="http://www.w3.org/1999/xlink">
<g id="graph0" class="graph" transform="scale(1 1) rotate(0) translate(4 207)">
<title>dependencies</title>
<polygon fill="white" stroke="transparent" points="-4,4 -4,-207 2420,-207 2420,4 -4,4"/>
<text text-anchor="start" x="1187.01" y="-42.4" font-family="sans-serif" font-weight="bold" font-size="14.00">Legend</text>
<polygon fill="#ffffb3" stroke="transparent" points="974,-10 974,-30 994,-30 994,-10 974,-10"/>
<text text-anchor="start" x="997.63" y="-15.4" font-family="sans-serif" font-size="14.00"> &#160;Declarations</text>
<polygon fill="#8dd3c7" stroke="transparent" points="1087,-10 1087,-30 1107,-30 1107,-10 1087,-10"/>
<text text-anchor="start" x="1110.73" y="-15.4" font-family="sans-serif" font-size="14.00"> &#160;Module</text>
<polygon fill="#80b1d3" stroke="transparent" points="1173,-10 1173,-30 1193,-30 1193,-10 1173,-10"/>
<text text-anchor="start" x="1196.78" y="-15.4" font-family="sans-serif" font-size="14.00"> &#160;Bootstrap</text>
<polygon fill="#fdb462" stroke="transparent" points="1270,-10 1270,-30 1290,-30 1290,-10 1270,-10"/>
<text text-anchor="start" x="1293.67" y="-15.4" font-family="sans-serif" font-size="14.00"> &#160;Providers</text>
<polygon fill="#fb8072" stroke="transparent" points="1366,-10 1366,-30 1386,-30 1386,-10 1366,-10"/>
<text text-anchor="start" x="1389.73" y="-15.4" font-family="sans-serif" font-size="14.00"> &#160;Exports</text>
<g id="clust1" class="cluster">
<title>cluster_CoursesModule</title>
<polygon fill="none" stroke="black" stroke-dasharray="1,5" points="8,-70 8,-195 2408,-195 2408,-70 8,-70"/>
</g>
<g id="clust8" class="cluster">
<title>cluster_CoursesModule_imports</title>
<polygon fill="none" stroke="black" points="1865,-78 1865,-130 2400,-130 2400,-78 1865,-78"/>
</g>
<g id="clust11" class="cluster">
<title>cluster_CoursesModule_providers</title>
<polygon fill="none" stroke="black" points="851,-78 851,-130 1857,-130 1857,-78 851,-78"/>
</g>
<g id="clust2" class="cluster">
<title>cluster_CoursesModule_declarations</title>
<polygon fill="none" stroke="black" points="16,-78 16,-130 843,-130 843,-78 16,-78"/>
</g>
<!-- CourseComponent -->
<g id="node1" class="node">
<title>CourseComponent</title>
<polygon fill="#ffffb3" stroke="black" points="835.49,-122 714.51,-122 714.51,-86 835.49,-86 835.49,-122"/>
<text text-anchor="middle" x="775" y="-99.8" font-family="Times,serif" font-size="14.00">CourseComponent</text>
</g>
<!-- CoursesModule -->
<g id="node6" class="node">
<title>CoursesModule</title>
<polygon fill="#8dd3c7" stroke="black" points="1344.15,-187 1341.15,-191 1320.15,-191 1317.15,-187 1239.85,-187 1239.85,-151 1344.15,-151 1344.15,-187"/>
<text text-anchor="middle" x="1292" y="-164.8" font-family="Times,serif" font-size="14.00">CoursesModule</text>
</g>
<!-- CourseComponent&#45;&gt;CoursesModule -->
<g id="edge1" class="edge">
<title>CourseComponent&#45;&gt;CoursesModule</title>
<path fill="none" stroke="black" d="M775,-122.03C775,-139.06 775,-162 775,-162 775,-162 1229.58,-162 1229.58,-162"/>
<polygon fill="black" stroke="black" points="1229.58,-165.5 1239.58,-162 1229.58,-158.5 1229.58,-165.5"/>
</g>
<!-- CourseDialogComponent -->
<g id="node2" class="node">
<title>CourseDialogComponent</title>
<polygon fill="#ffffb3" stroke="black" points="696.59,-122 537.41,-122 537.41,-86 696.59,-86 696.59,-122"/>
<text text-anchor="middle" x="617" y="-99.8" font-family="Times,serif" font-size="14.00">CourseDialogComponent</text>
</g>
<!-- CourseDialogComponent&#45;&gt;CoursesModule -->
<g id="edge2" class="edge">
<title>CourseDialogComponent&#45;&gt;CoursesModule</title>
<path fill="none" stroke="black" d="M617,-122.22C617,-140.83 617,-167 617,-167 617,-167 1229.6,-167 1229.6,-167"/>
<polygon fill="black" stroke="black" points="1229.6,-170.5 1239.6,-167 1229.6,-163.5 1229.6,-170.5"/>
</g>
<!-- CourseUserDialogComponent -->
<g id="node3" class="node">
<title>CourseUserDialogComponent</title>
<polygon fill="#ffffb3" stroke="black" points="519.52,-122 334.48,-122 334.48,-86 519.52,-86 519.52,-122"/>
<text text-anchor="middle" x="427" y="-99.8" font-family="Times,serif" font-size="14.00">CourseUserDialogComponent</text>
</g>
<!-- CourseUserDialogComponent&#45;&gt;CoursesModule -->
<g id="edge3" class="edge">
<title>CourseUserDialogComponent&#45;&gt;CoursesModule</title>
<path fill="none" stroke="black" d="M427,-122.22C427,-142.37 427,-172 427,-172 427,-172 1229.84,-172 1229.84,-172"/>
<polygon fill="black" stroke="black" points="1229.84,-175.5 1239.84,-172 1229.84,-168.5 1229.84,-175.5"/>
</g>
<!-- CoursesComponent -->
<g id="node4" class="node">
<title>CoursesComponent</title>
<polygon fill="#ffffb3" stroke="black" points="316.43,-122 189.57,-122 189.57,-86 316.43,-86 316.43,-122"/>
<text text-anchor="middle" x="253" y="-99.8" font-family="Times,serif" font-size="14.00">CoursesComponent</text>
</g>
<!-- CoursesComponent&#45;&gt;CoursesModule -->
<g id="edge4" class="edge">
<title>CoursesComponent&#45;&gt;CoursesModule</title>
<path fill="none" stroke="black" d="M253,-122.04C253,-143.66 253,-177 253,-177 253,-177 1229.76,-177 1229.76,-177"/>
<polygon fill="black" stroke="black" points="1229.76,-180.5 1239.76,-177 1229.76,-173.5 1229.76,-180.5"/>
</g>
<!-- CoursesListComponent -->
<g id="node5" class="node">
<title>CoursesListComponent</title>
<polygon fill="#ffffb3" stroke="black" points="172.21,-122 23.79,-122 23.79,-86 172.21,-86 172.21,-122"/>
<text text-anchor="middle" x="98" y="-99.8" font-family="Times,serif" font-size="14.00">CoursesListComponent</text>
</g>
<!-- CoursesListComponent&#45;&gt;CoursesModule -->
<g id="edge5" class="edge">
<title>CoursesListComponent&#45;&gt;CoursesModule</title>
<path fill="none" stroke="black" d="M98,-122.09C98,-145.13 98,-182 98,-182 98,-182 1229.54,-182 1229.54,-182"/>
<polygon fill="black" stroke="black" points="1229.54,-185.5 1239.54,-182 1229.54,-178.5 1229.54,-185.5"/>
</g>
<!-- CoursesRoutingModule -->
<g id="node7" class="node">
<title>CoursesRoutingModule</title>
<polygon fill="#8dd3c7" stroke="black" points="2391.77,-122 2388.77,-126 2367.77,-126 2364.77,-122 2242.23,-122 2242.23,-86 2391.77,-86 2391.77,-122"/>
<text text-anchor="middle" x="2317" y="-99.8" font-family="Times,serif" font-size="14.00">CoursesRoutingModule</text>
</g>
<!-- CoursesRoutingModule&#45;&gt;CoursesModule -->
<g id="edge6" class="edge">
<title>CoursesRoutingModule&#45;&gt;CoursesModule</title>
<path fill="none" stroke="black" d="M2317,-122.09C2317,-145.13 2317,-182 2317,-182 2317,-182 1354.24,-182 1354.24,-182"/>
<polygon fill="black" stroke="black" points="1354.24,-178.5 1344.24,-182 1354.24,-185.5 1354.24,-178.5"/>
</g>
<!-- MaterialModule -->
<g id="node8" class="node">
<title>MaterialModule</title>
<polygon fill="#8dd3c7" stroke="black" points="2224.47,-122 2221.47,-126 2200.47,-126 2197.47,-122 2117.53,-122 2117.53,-86 2224.47,-86 2224.47,-122"/>
<text text-anchor="middle" x="2171" y="-99.8" font-family="Times,serif" font-size="14.00">MaterialModule</text>
</g>
<!-- MaterialModule&#45;&gt;CoursesModule -->
<g id="edge7" class="edge">
<title>MaterialModule&#45;&gt;CoursesModule</title>
<path fill="none" stroke="black" d="M2171,-122.04C2171,-143.66 2171,-177 2171,-177 2171,-177 1354.35,-177 1354.35,-177"/>
<polygon fill="black" stroke="black" points="1354.35,-173.5 1344.35,-177 1354.35,-180.5 1354.35,-173.5"/>
</g>
<!-- SharedModule -->
<g id="node9" class="node">
<title>SharedModule</title>
<polygon fill="#8dd3c7" stroke="black" points="2099.42,-122 2096.42,-126 2075.42,-126 2072.42,-122 2000.58,-122 2000.58,-86 2099.42,-86 2099.42,-122"/>
<text text-anchor="middle" x="2050" y="-99.8" font-family="Times,serif" font-size="14.00">SharedModule</text>
</g>
<!-- SharedModule&#45;&gt;CoursesModule -->
<g id="edge8" class="edge">
<title>SharedModule&#45;&gt;CoursesModule</title>
<path fill="none" stroke="black" d="M2050,-122.22C2050,-142.37 2050,-172 2050,-172 2050,-172 1354.4,-172 1354.4,-172"/>
<polygon fill="black" stroke="black" points="1354.4,-168.5 1344.4,-172 1354.4,-175.5 1354.4,-168.5"/>
</g>
<!-- TeachersModule -->
<g id="node10" class="node">
<title>TeachersModule</title>
<polygon fill="#8dd3c7" stroke="black" points="1983.07,-122 1980.07,-126 1959.07,-126 1956.07,-122 1872.93,-122 1872.93,-86 1983.07,-86 1983.07,-122"/>
<text text-anchor="middle" x="1928" y="-99.8" font-family="Times,serif" font-size="14.00">TeachersModule</text>
</g>
<!-- TeachersModule&#45;&gt;CoursesModule -->
<g id="edge9" class="edge">
<title>TeachersModule&#45;&gt;CoursesModule</title>
<path fill="none" stroke="black" d="M1928,-122.22C1928,-140.83 1928,-167 1928,-167 1928,-167 1354.32,-167 1354.32,-167"/>
<polygon fill="black" stroke="black" points="1354.32,-163.5 1344.32,-167 1354.32,-170.5 1354.32,-163.5"/>
</g>
<!-- CourseDataService -->
<g id="node11" class="node">
<title>CourseDataService</title>
<ellipse fill="#fdb462" stroke="black" cx="1763" cy="-104" rx="85.65" ry="18"/>
<text text-anchor="middle" x="1763" y="-99.8" font-family="Times,serif" font-size="14.00">CourseDataService</text>
</g>
<!-- CourseDataService&#45;&gt;CoursesModule -->
<g id="edge10" class="edge">
<title>CourseDataService&#45;&gt;CoursesModule</title>
<path fill="none" stroke="black" d="M1763,-122.03C1763,-139.06 1763,-162 1763,-162 1763,-162 1354.2,-162 1354.2,-162"/>
<polygon fill="black" stroke="black" points="1354.2,-158.5 1344.2,-162 1354.2,-165.5 1354.2,-158.5"/>
</g>
<!-- CourseEntityService -->
<g id="node12" class="node">
<title>CourseEntityService</title>
<ellipse fill="#fdb462" stroke="black" cx="1568" cy="-104" rx="90.91" ry="18"/>
<text text-anchor="middle" x="1568" y="-99.8" font-family="Times,serif" font-size="14.00">CourseEntityService</text>
</g>
<!-- CourseEntityService&#45;&gt;CoursesModule -->
<g id="edge11" class="edge">
<title>CourseEntityService&#45;&gt;CoursesModule</title>
<path fill="none" stroke="black" d="M1568,-122.24C1568,-137.57 1568,-157 1568,-157 1568,-157 1354.24,-157 1354.24,-157"/>
<polygon fill="black" stroke="black" points="1354.24,-153.5 1344.24,-157 1354.24,-160.5 1354.24,-153.5"/>
</g>
<!-- CoursesService -->
<g id="node13" class="node">
<title>CoursesService</title>
<ellipse fill="#fdb462" stroke="black" cx="1388" cy="-104" rx="71.2" ry="18"/>
<text text-anchor="middle" x="1388" y="-99.8" font-family="Times,serif" font-size="14.00">CoursesService</text>
</g>
<!-- CoursesService&#45;&gt;CoursesModule -->
<g id="edge12" class="edge">
<title>CoursesService&#45;&gt;CoursesModule</title>
<path fill="none" stroke="black" d="M1330.61,-114.73C1330.61,-114.73 1330.61,-140.87 1330.61,-140.87"/>
<polygon fill="black" stroke="black" points="1327.11,-140.87 1330.61,-150.87 1334.11,-140.87 1327.11,-140.87"/>
</g>
<!-- UserProfileDataService -->
<g id="node14" class="node">
<title>UserProfileDataService</title>
<ellipse fill="#fdb462" stroke="black" cx="1196" cy="-104" rx="102.96" ry="18"/>
<text text-anchor="middle" x="1196" y="-99.8" font-family="Times,serif" font-size="14.00">UserProfileDataService</text>
</g>
<!-- UserProfileDataService&#45;&gt;CoursesModule -->
<g id="edge13" class="edge">
<title>UserProfileDataService&#45;&gt;CoursesModule</title>
<path fill="none" stroke="black" d="M1269.2,-116.84C1269.2,-116.84 1269.2,-140.52 1269.2,-140.52"/>
<polygon fill="black" stroke="black" points="1265.7,-140.52 1269.2,-150.52 1272.7,-140.52 1265.7,-140.52"/>
</g>
<!-- UserProfileEntityService -->
<g id="node15" class="node">
<title>UserProfileEntityService</title>
<ellipse fill="#fdb462" stroke="black" cx="967" cy="-104" rx="108.22" ry="18"/>
<text text-anchor="middle" x="967" y="-99.8" font-family="Times,serif" font-size="14.00">UserProfileEntityService</text>
</g>
<!-- UserProfileEntityService&#45;&gt;CoursesModule -->
<g id="edge14" class="edge">
<title>UserProfileEntityService&#45;&gt;CoursesModule</title>
<path fill="none" stroke="black" d="M967,-122.24C967,-137.57 967,-157 967,-157 967,-157 1229.78,-157 1229.78,-157"/>
<polygon fill="black" stroke="black" points="1229.78,-160.5 1239.78,-157 1229.78,-153.5 1229.78,-160.5"/>
</g>
</g>
</svg>
