<?xml version="1.0" encoding="UTF-8" standalone="no"?>
<!DOCTYPE svg PUBLIC "-//W3C//DTD SVG 1.1//EN"
 "http://www.w3.org/Graphics/SVG/1.1/DTD/svg11.dtd">
<!-- Generated by graphviz version 2.47.0 (20210316.0004)
 -->
<!-- Title: dependencies Pages: 1 -->
<svg width="1544pt" height="284pt"
 viewBox="0.00 0.00 1544.00 284.00" xmlns="http://www.w3.org/2000/svg" xmlns:xlink="http://www.w3.org/1999/xlink">
<g id="graph0" class="graph" transform="scale(1 1) rotate(0) translate(4 280)">
<title>dependencies</title>
<polygon fill="white" stroke="transparent" points="-4,4 -4,-280 1540,-280 1540,4 -4,4"/>
<text text-anchor="start" x="747.01" y="-42.4" font-family="sans-serif" font-weight="bold" font-size="14.00">Legend</text>
<polygon fill="#ffffb3" stroke="transparent" points="534,-10 534,-30 554,-30 554,-10 534,-10"/>
<text text-anchor="start" x="557.63" y="-15.4" font-family="sans-serif" font-size="14.00"> &#160;Declarations</text>
<polygon fill="#8dd3c7" stroke="transparent" points="647,-10 647,-30 667,-30 667,-10 647,-10"/>
<text text-anchor="start" x="670.73" y="-15.4" font-family="sans-serif" font-size="14.00"> &#160;Module</text>
<polygon fill="#80b1d3" stroke="transparent" points="733,-10 733,-30 753,-30 753,-10 733,-10"/>
<text text-anchor="start" x="756.78" y="-15.4" font-family="sans-serif" font-size="14.00"> &#160;Bootstrap</text>
<polygon fill="#fdb462" stroke="transparent" points="830,-10 830,-30 850,-30 850,-10 830,-10"/>
<text text-anchor="start" x="853.67" y="-15.4" font-family="sans-serif" font-size="14.00"> &#160;Providers</text>
<polygon fill="#fb8072" stroke="transparent" points="926,-10 926,-30 946,-30 946,-10 926,-10"/>
<text text-anchor="start" x="949.73" y="-15.4" font-family="sans-serif" font-size="14.00"> &#160;Exports</text>
<g id="clust1" class="cluster">
<title>cluster_CoursesModule</title>
<polygon fill="none" stroke="black" stroke-dasharray="1,5" points="8,-70 8,-268 1528,-268 1528,-70 8,-70"/>
</g>
<g id="clust2" class="cluster">
<title>cluster_CoursesModule_declarations</title>
<polygon fill="none" stroke="black" points="870,-78 870,-130 1520,-130 1520,-78 870,-78"/>
</g>
<g id="clust8" class="cluster">
<title>cluster_CoursesModule_exports</title>
<polygon fill="none" stroke="black" points="695,-208 695,-260 863,-260 863,-208 695,-208"/>
</g>
<g id="clust7" class="cluster">
<title>cluster_CoursesModule_imports</title>
<polygon fill="none" stroke="black" points="572,-78 572,-130 862,-130 862,-78 572,-78"/>
</g>
<g id="clust10" class="cluster">
<title>cluster_CoursesModule_providers</title>
<polygon fill="none" stroke="black" points="16,-78 16,-130 564,-130 564,-78 16,-78"/>
</g>
<!-- CourseComponent -->
<g id="node1" class="node">
<title>CourseComponent</title>
<polygon fill="#ffffb3" stroke="black" points="1512.49,-122 1391.51,-122 1391.51,-86 1512.49,-86 1512.49,-122"/>
<text text-anchor="middle" x="1452" y="-99.8" font-family="Times,serif" font-size="14.00">CourseComponent</text>
</g>
<!-- CoursesModule -->
<g id="node5" class="node">
<title>CoursesModule</title>
<polygon fill="#8dd3c7" stroke="black" points="831.15,-187 828.15,-191 807.15,-191 804.15,-187 726.85,-187 726.85,-151 831.15,-151 831.15,-187"/>
<text text-anchor="middle" x="779" y="-164.8" font-family="Times,serif" font-size="14.00">CoursesModule</text>
</g>
<!-- CourseComponent&#45;&gt;CoursesModule -->
<g id="edge1" class="edge">
<title>CourseComponent&#45;&gt;CoursesModule</title>
<path fill="none" stroke="black" d="M1452,-122.01C1452,-144.49 1452,-180 1452,-180 1452,-180 841.25,-180 841.25,-180"/>
<polygon fill="black" stroke="black" points="841.25,-176.5 831.25,-180 841.25,-183.5 841.25,-176.5"/>
</g>
<!-- CourseUserDialogComponent -->
<g id="node2" class="node">
<title>CourseUserDialogComponent</title>
<polygon fill="#ffffb3" stroke="black" points="1373.52,-122 1188.48,-122 1188.48,-86 1373.52,-86 1373.52,-122"/>
<text text-anchor="middle" x="1281" y="-99.8" font-family="Times,serif" font-size="14.00">CourseUserDialogComponent</text>
</g>
<!-- CourseUserDialogComponent&#45;&gt;CoursesModule -->
<g id="edge2" class="edge">
<title>CourseUserDialogComponent&#45;&gt;CoursesModule</title>
<path fill="none" stroke="black" d="M1281,-122.13C1281,-142.57 1281,-173 1281,-173 1281,-173 841.3,-173 841.3,-173"/>
<polygon fill="black" stroke="black" points="841.3,-169.5 831.3,-173 841.3,-176.5 841.3,-169.5"/>
</g>
<!-- CoursesComponent -->
<g id="node3" class="node">
<title>CoursesComponent</title>
<polygon fill="#ffffb3" stroke="black" points="1170.43,-122 1043.57,-122 1043.57,-86 1170.43,-86 1170.43,-122"/>
<text text-anchor="middle" x="1107" y="-99.8" font-family="Times,serif" font-size="14.00">CoursesComponent</text>
</g>
<!-- CoursesComponent&#45;&gt;CoursesModule -->
<g id="edge3" class="edge">
<title>CoursesComponent&#45;&gt;CoursesModule</title>
<path fill="none" stroke="black" d="M1107,-122.27C1107,-140.56 1107,-166 1107,-166 1107,-166 841.34,-166 841.34,-166"/>
<polygon fill="black" stroke="black" points="841.34,-162.5 831.34,-166 841.34,-169.5 841.34,-162.5"/>
</g>
<!-- CoursesListComponent -->
<g id="node4" class="node">
<title>CoursesListComponent</title>
<polygon fill="#ffffb3" stroke="black" points="1026.21,-122 877.79,-122 877.79,-86 1026.21,-86 1026.21,-122"/>
<text text-anchor="middle" x="952" y="-99.8" font-family="Times,serif" font-size="14.00">CoursesListComponent</text>
</g>
<!-- CoursesListComponent&#45;&gt;CoursesModule -->
<g id="edge4" class="edge">
<title>CoursesListComponent&#45;&gt;CoursesModule</title>
<path fill="none" stroke="black" d="M952,-122.01C952,-138.05 952,-159 952,-159 952,-159 841.38,-159 841.38,-159"/>
<polygon fill="black" stroke="black" points="841.38,-155.5 831.38,-159 841.38,-162.5 841.38,-155.5"/>
</g>
<!-- CoursesListComponent  -->
<g id="node8" class="node">
<title>CoursesListComponent </title>
<polygon fill="#fb8072" stroke="black" points="854.71,-252 703.29,-252 703.29,-216 854.71,-216 854.71,-252"/>
<text text-anchor="middle" x="779" y="-229.8" font-family="Times,serif" font-size="14.00">CoursesListComponent </text>
</g>
<!-- CoursesModule&#45;&gt;CoursesListComponent  -->
<g id="edge7" class="edge">
<title>CoursesModule&#45;&gt;CoursesListComponent </title>
<path fill="none" stroke="black" stroke-dasharray="5,2" d="M779,-187.11C779,-187.11 779,-205.99 779,-205.99"/>
<polygon fill="black" stroke="black" points="775.5,-205.99 779,-215.99 782.5,-205.99 775.5,-205.99"/>
</g>
<!-- CoursesRoutingModule -->
<g id="node6" class="node">
<title>CoursesRoutingModule</title>
<polygon fill="#8dd3c7" stroke="black" points="853.77,-122 850.77,-126 829.77,-126 826.77,-122 704.23,-122 704.23,-86 853.77,-86 853.77,-122"/>
<text text-anchor="middle" x="779" y="-99.8" font-family="Times,serif" font-size="14.00">CoursesRoutingModule</text>
</g>
<!-- CoursesRoutingModule&#45;&gt;CoursesModule -->
<g id="edge5" class="edge">
<title>CoursesRoutingModule&#45;&gt;CoursesModule</title>
<path fill="none" stroke="black" d="M779,-122.11C779,-122.11 779,-140.99 779,-140.99"/>
<polygon fill="black" stroke="black" points="775.5,-140.99 779,-150.99 782.5,-140.99 775.5,-140.99"/>
</g>
<!-- MaterialModule -->
<g id="node7" class="node">
<title>MaterialModule</title>
<polygon fill="#8dd3c7" stroke="black" points="686.47,-122 683.47,-126 662.47,-126 659.47,-122 579.53,-122 579.53,-86 686.47,-86 686.47,-122"/>
<text text-anchor="middle" x="633" y="-99.8" font-family="Times,serif" font-size="14.00">MaterialModule</text>
</g>
<!-- MaterialModule&#45;&gt;CoursesModule -->
<g id="edge6" class="edge">
<title>MaterialModule&#45;&gt;CoursesModule</title>
<path fill="none" stroke="black" d="M633,-122.01C633,-138.05 633,-159 633,-159 633,-159 716.7,-159 716.7,-159"/>
<polygon fill="black" stroke="black" points="716.7,-162.5 726.7,-159 716.7,-155.5 716.7,-162.5"/>
</g>
<!-- CourseDataService -->
<g id="node9" class="node">
<title>CourseDataService</title>
<ellipse fill="#fdb462" stroke="black" cx="470" cy="-104" rx="85.65" ry="18"/>
<text text-anchor="middle" x="470" y="-99.8" font-family="Times,serif" font-size="14.00">CourseDataService</text>
</g>
<!-- CourseDataService&#45;&gt;CoursesModule -->
<g id="edge8" class="edge">
<title>CourseDataService&#45;&gt;CoursesModule</title>
<path fill="none" stroke="black" d="M470,-122.27C470,-140.56 470,-166 470,-166 470,-166 716.58,-166 716.58,-166"/>
<polygon fill="black" stroke="black" points="716.58,-169.5 726.58,-166 716.58,-162.5 716.58,-169.5"/>
</g>
<!-- CourseEntityService -->
<g id="node10" class="node">
<title>CourseEntityService</title>
<ellipse fill="#fdb462" stroke="black" cx="275" cy="-104" rx="90.91" ry="18"/>
<text text-anchor="middle" x="275" y="-99.8" font-family="Times,serif" font-size="14.00">CourseEntityService</text>
</g>
<!-- CourseEntityService&#45;&gt;CoursesModule -->
<g id="edge9" class="edge">
<title>CourseEntityService&#45;&gt;CoursesModule</title>
<path fill="none" stroke="black" d="M275,-122.13C275,-142.57 275,-173 275,-173 275,-173 716.49,-173 716.49,-173"/>
<polygon fill="black" stroke="black" points="716.49,-176.5 726.49,-173 716.49,-169.5 716.49,-176.5"/>
</g>
<!-- CoursesService -->
<g id="node11" class="node">
<title>CoursesService</title>
<ellipse fill="#fdb462" stroke="black" cx="95" cy="-104" rx="71.2" ry="18"/>
<text text-anchor="middle" x="95" y="-99.8" font-family="Times,serif" font-size="14.00">CoursesService</text>
</g>
<!-- CoursesService&#45;&gt;CoursesModule -->
<g id="edge10" class="edge">
<title>CoursesService&#45;&gt;CoursesModule</title>
<path fill="none" stroke="black" d="M95,-122.01C95,-144.49 95,-180 95,-180 95,-180 716.75,-180 716.75,-180"/>
<polygon fill="black" stroke="black" points="716.75,-183.5 726.75,-180 716.75,-176.5 716.75,-183.5"/>
</g>
</g>
</svg>
