<?xml version="1.0" encoding="UTF-8" standalone="no"?>
<!DOCTYPE svg PUBLIC "-//W3C//DTD SVG 1.1//EN"
 "http://www.w3.org/Graphics/SVG/1.1/DTD/svg11.dtd">
<!-- Generated by graphviz version 2.44.1 (20200629.0846)
 -->
<!-- Title: dependencies Pages: 1 -->
<svg width="2354pt" height="211pt"
 viewBox="0.00 0.00 2354.00 211.00" xmlns="http://www.w3.org/2000/svg" xmlns:xlink="http://www.w3.org/1999/xlink">
<g id="graph0" class="graph" transform="scale(1 1) rotate(0) translate(4 207)">
<title>dependencies</title>
<polygon fill="white" stroke="transparent" points="-4,4 -4,-207 2350,-207 2350,4 -4,4"/>
<text text-anchor="start" x="1152.01" y="-42.4" font-family="sans-serif" font-weight="bold" font-size="14.00">Legend</text>
<polygon fill="#ffffb3" stroke="transparent" points="939,-10 939,-30 959,-30 959,-10 939,-10"/>
<text text-anchor="start" x="962.63" y="-15.4" font-family="sans-serif" font-size="14.00"> &#160;Declarations</text>
<polygon fill="#8dd3c7" stroke="transparent" points="1052,-10 1052,-30 1072,-30 1072,-10 1052,-10"/>
<text text-anchor="start" x="1075.73" y="-15.4" font-family="sans-serif" font-size="14.00"> &#160;Module</text>
<polygon fill="#80b1d3" stroke="transparent" points="1138,-10 1138,-30 1158,-30 1158,-10 1138,-10"/>
<text text-anchor="start" x="1161.78" y="-15.4" font-family="sans-serif" font-size="14.00"> &#160;Bootstrap</text>
<polygon fill="#fdb462" stroke="transparent" points="1235,-10 1235,-30 1255,-30 1255,-10 1235,-10"/>
<text text-anchor="start" x="1258.67" y="-15.4" font-family="sans-serif" font-size="14.00"> &#160;Providers</text>
<polygon fill="#fb8072" stroke="transparent" points="1331,-10 1331,-30 1351,-30 1351,-10 1331,-10"/>
<text text-anchor="start" x="1354.73" y="-15.4" font-family="sans-serif" font-size="14.00"> &#160;Exports</text>
<g id="clust1" class="cluster">
<title>cluster_CoursesModule</title>
<polygon fill="none" stroke="black" stroke-dasharray="1,5" points="8,-70 8,-195 2338,-195 2338,-70 8,-70"/>
</g>
<g id="clust2" class="cluster">
<title>cluster_CoursesModule_declarations</title>
<polygon fill="none" stroke="black" points="876,-78 876,-130 2330,-130 2330,-78 876,-78"/>
</g>
<g id="clust11" class="cluster">
<title>cluster_CoursesModule_imports</title>
<polygon fill="none" stroke="black" points="578,-78 578,-130 868,-130 868,-78 578,-78"/>
</g>
<g id="clust14" class="cluster">
<title>cluster_CoursesModule_providers</title>
<polygon fill="none" stroke="black" points="16,-78 16,-130 570,-130 570,-78 16,-78"/>
</g>
<!-- AnnouncementDialogComponent -->
<g id="node1" class="node">
<title>AnnouncementDialogComponent</title>
<polygon fill="#ffffb3" stroke="black" points="2322.47,-122 2117.53,-122 2117.53,-86 2322.47,-86 2322.47,-122"/>
<text text-anchor="middle" x="2220" y="-99.8" font-family="Times,serif" font-size="14.00">AnnouncementDialogComponent</text>
</g>
<!-- CoursesModule -->
<g id="node9" class="node">
<title>CoursesModule</title>
<polygon fill="#8dd3c7" stroke="black" points="1175.15,-187 1172.15,-191 1151.15,-191 1148.15,-187 1070.85,-187 1070.85,-151 1175.15,-151 1175.15,-187"/>
<text text-anchor="middle" x="1123" y="-164.8" font-family="Times,serif" font-size="14.00">CoursesModule</text>
</g>
<!-- AnnouncementDialogComponent&#45;&gt;CoursesModule -->
<g id="edge1" class="edge">
<title>AnnouncementDialogComponent&#45;&gt;CoursesModule</title>
<path fill="none" stroke="black" d="M2220,-122.09C2220,-145.13 2220,-182 2220,-182 2220,-182 1185.17,-182 1185.17,-182"/>
<polygon fill="black" stroke="black" points="1185.17,-178.5 1175.17,-182 1185.17,-185.5 1185.17,-178.5"/>
</g>
<!-- AnnouncementResultComponent -->
<g id="node2" class="node">
<title>AnnouncementResultComponent</title>
<polygon fill="#ffffb3" stroke="black" points="2099.14,-122 1896.86,-122 1896.86,-86 2099.14,-86 2099.14,-122"/>
<text text-anchor="middle" x="1998" y="-99.8" font-family="Times,serif" font-size="14.00">AnnouncementResultComponent</text>
</g>
<!-- AnnouncementResultComponent&#45;&gt;CoursesModule -->
<g id="edge2" class="edge">
<title>AnnouncementResultComponent&#45;&gt;CoursesModule</title>
<path fill="none" stroke="black" d="M1998,-122.04C1998,-143.66 1998,-177 1998,-177 1998,-177 1185.44,-177 1185.44,-177"/>
<polygon fill="black" stroke="black" points="1185.44,-173.5 1175.44,-177 1185.44,-180.5 1185.44,-173.5"/>
</g>
<!-- CourseComponent -->
<g id="node3" class="node">
<title>CourseComponent</title>
<polygon fill="#ffffb3" stroke="black" points="1878.49,-122 1757.51,-122 1757.51,-86 1878.49,-86 1878.49,-122"/>
<text text-anchor="middle" x="1818" y="-99.8" font-family="Times,serif" font-size="14.00">CourseComponent</text>
</g>
<!-- CourseComponent&#45;&gt;CoursesModule -->
<g id="edge3" class="edge">
<title>CourseComponent&#45;&gt;CoursesModule</title>
<path fill="none" stroke="black" d="M1818,-122.22C1818,-142.37 1818,-172 1818,-172 1818,-172 1185.24,-172 1185.24,-172"/>
<polygon fill="black" stroke="black" points="1185.24,-168.5 1175.24,-172 1185.24,-175.5 1185.24,-168.5"/>
</g>
<!-- CourseDialogComponent -->
<g id="node4" class="node">
<title>CourseDialogComponent</title>
<polygon fill="#ffffb3" stroke="black" points="1739.59,-122 1580.41,-122 1580.41,-86 1739.59,-86 1739.59,-122"/>
<text text-anchor="middle" x="1660" y="-99.8" font-family="Times,serif" font-size="14.00">CourseDialogComponent</text>
</g>
<!-- CourseDialogComponent&#45;&gt;CoursesModule -->
<g id="edge4" class="edge">
<title>CourseDialogComponent&#45;&gt;CoursesModule</title>
<path fill="none" stroke="black" d="M1660,-122.22C1660,-140.83 1660,-167 1660,-167 1660,-167 1185.47,-167 1185.47,-167"/>
<polygon fill="black" stroke="black" points="1185.47,-163.5 1175.47,-167 1185.47,-170.5 1185.47,-163.5"/>
</g>
<!-- CourseStudentsComponent -->
<g id="node5" class="node">
<title>CourseStudentsComponent</title>
<polygon fill="#ffffb3" stroke="black" points="1562.71,-122 1393.29,-122 1393.29,-86 1562.71,-86 1562.71,-122"/>
<text text-anchor="middle" x="1478" y="-99.8" font-family="Times,serif" font-size="14.00">CourseStudentsComponent</text>
</g>
<!-- CourseStudentsComponent&#45;&gt;CoursesModule -->
<g id="edge5" class="edge">
<title>CourseStudentsComponent&#45;&gt;CoursesModule</title>
<path fill="none" stroke="black" d="M1478,-122.03C1478,-139.06 1478,-162 1478,-162 1478,-162 1185.38,-162 1185.38,-162"/>
<polygon fill="black" stroke="black" points="1185.38,-158.5 1175.38,-162 1185.38,-165.5 1185.38,-158.5"/>
</g>
<!-- CourseTeachersComponent -->
<g id="node6" class="node">
<title>CourseTeachersComponent</title>
<polygon fill="#ffffb3" stroke="black" points="1375.51,-122 1204.49,-122 1204.49,-86 1375.51,-86 1375.51,-122"/>
<text text-anchor="middle" x="1290" y="-99.8" font-family="Times,serif" font-size="14.00">CourseTeachersComponent</text>
</g>
<!-- CourseTeachersComponent&#45;&gt;CoursesModule -->
<g id="edge6" class="edge">
<title>CourseTeachersComponent&#45;&gt;CoursesModule</title>
<path fill="none" stroke="black" d="M1290,-122.24C1290,-137.57 1290,-157 1290,-157 1290,-157 1185.38,-157 1185.38,-157"/>
<polygon fill="black" stroke="black" points="1185.38,-153.5 1175.38,-157 1185.38,-160.5 1185.38,-153.5"/>
</g>
<!-- CoursesComponent -->
<g id="node7" class="node">
<title>CoursesComponent</title>
<polygon fill="#ffffb3" stroke="black" points="1186.43,-122 1059.57,-122 1059.57,-86 1186.43,-86 1186.43,-122"/>
<text text-anchor="middle" x="1123" y="-99.8" font-family="Times,serif" font-size="14.00">CoursesComponent</text>
</g>
<!-- CoursesComponent&#45;&gt;CoursesModule -->
<g id="edge7" class="edge">
<title>CoursesComponent&#45;&gt;CoursesModule</title>
<path fill="none" stroke="black" d="M1123,-122.11C1123,-122.11 1123,-140.99 1123,-140.99"/>
<polygon fill="black" stroke="black" points="1119.5,-140.99 1123,-150.99 1126.5,-140.99 1119.5,-140.99"/>
</g>
<!-- CoursesTableComponent -->
<g id="node8" class="node">
<title>CoursesTableComponent</title>
<polygon fill="#ffffb3" stroke="black" points="1042.31,-122 883.69,-122 883.69,-86 1042.31,-86 1042.31,-122"/>
<text text-anchor="middle" x="963" y="-99.8" font-family="Times,serif" font-size="14.00">CoursesTableComponent</text>
</g>
<!-- CoursesTableComponent&#45;&gt;CoursesModule -->
<g id="edge8" class="edge">
<title>CoursesTableComponent&#45;&gt;CoursesModule</title>
<path fill="none" stroke="black" d="M963,-122.24C963,-137.57 963,-157 963,-157 963,-157 1060.61,-157 1060.61,-157"/>
<polygon fill="black" stroke="black" points="1060.61,-160.5 1070.61,-157 1060.61,-153.5 1060.61,-160.5"/>
</g>
<!-- CoursesRoutingModule -->
<g id="node10" class="node">
<title>CoursesRoutingModule</title>
<polygon fill="#8dd3c7" stroke="black" points="859.77,-122 856.77,-126 835.77,-126 832.77,-122 710.23,-122 710.23,-86 859.77,-86 859.77,-122"/>
<text text-anchor="middle" x="785" y="-99.8" font-family="Times,serif" font-size="14.00">CoursesRoutingModule</text>
</g>
<!-- CoursesRoutingModule&#45;&gt;CoursesModule -->
<g id="edge9" class="edge">
<title>CoursesRoutingModule&#45;&gt;CoursesModule</title>
<path fill="none" stroke="black" d="M785,-122.03C785,-139.06 785,-162 785,-162 785,-162 1060.56,-162 1060.56,-162"/>
<polygon fill="black" stroke="black" points="1060.56,-165.5 1070.56,-162 1060.56,-158.5 1060.56,-165.5"/>
</g>
<!-- MaterialModule -->
<g id="node11" class="node">
<title>MaterialModule</title>
<polygon fill="#8dd3c7" stroke="black" points="692.47,-122 689.47,-126 668.47,-126 665.47,-122 585.53,-122 585.53,-86 692.47,-86 692.47,-122"/>
<text text-anchor="middle" x="639" y="-99.8" font-family="Times,serif" font-size="14.00">MaterialModule</text>
</g>
<!-- MaterialModule&#45;&gt;CoursesModule -->
<g id="edge10" class="edge">
<title>MaterialModule&#45;&gt;CoursesModule</title>
<path fill="none" stroke="black" d="M639,-122.22C639,-140.83 639,-167 639,-167 639,-167 1060.74,-167 1060.74,-167"/>
<polygon fill="black" stroke="black" points="1060.74,-170.5 1070.74,-167 1060.74,-163.5 1060.74,-170.5"/>
</g>
<!-- CourseEntityService -->
<g id="node12" class="node">
<title>CourseEntityService</title>
<ellipse fill="#fdb462" stroke="black" cx="471" cy="-104" rx="90.91" ry="18"/>
<text text-anchor="middle" x="471" y="-99.8" font-family="Times,serif" font-size="14.00">CourseEntityService</text>
</g>
<!-- CourseEntityService&#45;&gt;CoursesModule -->
<g id="edge11" class="edge">
<title>CourseEntityService&#45;&gt;CoursesModule</title>
<path fill="none" stroke="black" d="M471,-122.22C471,-142.37 471,-172 471,-172 471,-172 1060.75,-172 1060.75,-172"/>
<polygon fill="black" stroke="black" points="1060.75,-175.5 1070.75,-172 1060.75,-168.5 1060.75,-175.5"/>
</g>
<!-- CoursesDataService -->
<g id="node13" class="node">
<title>CoursesDataService</title>
<ellipse fill="#fdb462" stroke="black" cx="273" cy="-104" rx="89.16" ry="18"/>
<text text-anchor="middle" x="273" y="-99.8" font-family="Times,serif" font-size="14.00">CoursesDataService</text>
</g>
<!-- CoursesDataService&#45;&gt;CoursesModule -->
<g id="edge12" class="edge">
<title>CoursesDataService&#45;&gt;CoursesModule</title>
<path fill="none" stroke="black" d="M273,-122.04C273,-143.66 273,-177 273,-177 273,-177 1060.79,-177 1060.79,-177"/>
<polygon fill="black" stroke="black" points="1060.79,-180.5 1070.79,-177 1060.79,-173.5 1060.79,-180.5"/>
</g>
<!-- CoursesService -->
<g id="node14" class="node">
<title>CoursesService</title>
<ellipse fill="#fdb462" stroke="black" cx="95" cy="-104" rx="71.2" ry="18"/>
<text text-anchor="middle" x="95" y="-99.8" font-family="Times,serif" font-size="14.00">CoursesService</text>
</g>
<!-- CoursesService&#45;&gt;CoursesModule -->
<g id="edge13" class="edge">
<title>CoursesService&#45;&gt;CoursesModule</title>
<path fill="none" stroke="black" d="M95,-122.09C95,-145.13 95,-182 95,-182 95,-182 1060.61,-182 1060.61,-182"/>
<polygon fill="black" stroke="black" points="1060.61,-185.5 1070.61,-182 1060.61,-178.5 1060.61,-185.5"/>
</g>
</g>
</svg>
