<?xml version="1.0" encoding="UTF-8" standalone="no"?>
<!DOCTYPE svg PUBLIC "-//W3C//DTD SVG 1.1//EN"
 "http://www.w3.org/Graphics/SVG/1.1/DTD/svg11.dtd">
<!-- Generated by graphviz version 2.46.0 (20210119.1425)
 -->
<!-- Title: dependencies Pages: 1 -->
<svg width="1721pt" height="284pt"
 viewBox="0.00 0.00 1721.00 284.00" xmlns="http://www.w3.org/2000/svg" xmlns:xlink="http://www.w3.org/1999/xlink">
<g id="graph0" class="graph" transform="scale(1 1) rotate(0) translate(4 280)">
<title>dependencies</title>
<polygon fill="white" stroke="transparent" points="-4,4 -4,-280 1717,-280 1717,4 -4,4"/>
<text text-anchor="start" x="835.51" y="-42.4" font-family="sans-serif" font-weight="bold" font-size="14.00">Legend</text>
<polygon fill="#ffffb3" stroke="transparent" points="622.5,-10 622.5,-30 642.5,-30 642.5,-10 622.5,-10"/>
<text text-anchor="start" x="646.13" y="-15.4" font-family="sans-serif" font-size="14.00"> &#160;Declarations</text>
<polygon fill="#8dd3c7" stroke="transparent" points="735.5,-10 735.5,-30 755.5,-30 755.5,-10 735.5,-10"/>
<text text-anchor="start" x="759.23" y="-15.4" font-family="sans-serif" font-size="14.00"> &#160;Module</text>
<polygon fill="#80b1d3" stroke="transparent" points="821.5,-10 821.5,-30 841.5,-30 841.5,-10 821.5,-10"/>
<text text-anchor="start" x="845.28" y="-15.4" font-family="sans-serif" font-size="14.00"> &#160;Bootstrap</text>
<polygon fill="#fdb462" stroke="transparent" points="918.5,-10 918.5,-30 938.5,-30 938.5,-10 918.5,-10"/>
<text text-anchor="start" x="942.17" y="-15.4" font-family="sans-serif" font-size="14.00"> &#160;Providers</text>
<polygon fill="#fb8072" stroke="transparent" points="1014.5,-10 1014.5,-30 1034.5,-30 1034.5,-10 1014.5,-10"/>
<text text-anchor="start" x="1038.23" y="-15.4" font-family="sans-serif" font-size="14.00"> &#160;Exports</text>
<g id="clust1" class="cluster">
<title>cluster_CoursesModule</title>
<polygon fill="none" stroke="black" stroke-dasharray="1,5" points="8,-70 8,-268 1705,-268 1705,-70 8,-70"/>
</g>
<g id="clust9" class="cluster">
<title>cluster_CoursesModule_exports</title>
<polygon fill="none" stroke="black" points="681,-208 681,-260 1029,-260 1029,-208 681,-208"/>
</g>
<g id="clust8" class="cluster">
<title>cluster_CoursesModule_imports</title>
<polygon fill="none" stroke="black" points="1407,-78 1407,-130 1697,-130 1697,-78 1407,-78"/>
</g>
<g id="clust11" class="cluster">
<title>cluster_CoursesModule_providers</title>
<polygon fill="none" stroke="black" points="851,-78 851,-130 1399,-130 1399,-78 851,-78"/>
</g>
<g id="clust2" class="cluster">
<title>cluster_CoursesModule_declarations</title>
<polygon fill="none" stroke="black" points="16,-78 16,-130 843,-130 843,-78 16,-78"/>
</g>
<!-- CourseComponent -->
<g id="node1" class="node">
<title>CourseComponent</title>
<polygon fill="#ffffb3" stroke="black" points="835.49,-122 714.51,-122 714.51,-86 835.49,-86 835.49,-122"/>
<text text-anchor="middle" x="775" y="-99.8" font-family="Times,serif" font-size="14.00">CourseComponent</text>
</g>
<!-- CoursesModule -->
<g id="node6" class="node">
<title>CoursesModule</title>
<polygon fill="#8dd3c7" stroke="black" points="904.15,-187 901.15,-191 880.15,-191 877.15,-187 799.85,-187 799.85,-151 904.15,-151 904.15,-187"/>
<text text-anchor="middle" x="852" y="-164.8" font-family="Times,serif" font-size="14.00">CoursesModule</text>
</g>
<!-- CourseComponent&#45;&gt;CoursesModule -->
<g id="edge1" class="edge">
<title>CourseComponent&#45;&gt;CoursesModule</title>
<path fill="none" stroke="black" d="M817.58,-122.11C817.58,-122.11 817.58,-140.99 817.58,-140.99"/>
<polygon fill="black" stroke="black" points="814.08,-140.99 817.58,-150.99 821.08,-140.99 814.08,-140.99"/>
</g>
<!-- CourseDialogComponent -->
<g id="node2" class="node">
<title>CourseDialogComponent</title>
<polygon fill="#ffffb3" stroke="black" points="696.59,-122 537.41,-122 537.41,-86 696.59,-86 696.59,-122"/>
<text text-anchor="middle" x="617" y="-99.8" font-family="Times,serif" font-size="14.00">CourseDialogComponent</text>
</g>
<!-- CourseDialogComponent&#45;&gt;CoursesModule -->
<g id="edge2" class="edge">
<title>CourseDialogComponent&#45;&gt;CoursesModule</title>
<path fill="none" stroke="black" d="M692.84,-122.01C692.84,-138.05 692.84,-159 692.84,-159 692.84,-159 789.45,-159 789.45,-159"/>
<polygon fill="black" stroke="black" points="789.45,-162.5 799.45,-159 789.45,-155.5 789.45,-162.5"/>
</g>
<!-- CourseUserDialogComponent -->
<g id="node3" class="node">
<title>CourseUserDialogComponent</title>
<polygon fill="#ffffb3" stroke="black" points="519.52,-122 334.48,-122 334.48,-86 519.52,-86 519.52,-122"/>
<text text-anchor="middle" x="427" y="-99.8" font-family="Times,serif" font-size="14.00">CourseUserDialogComponent</text>
</g>
<!-- CourseUserDialogComponent&#45;&gt;CoursesModule -->
<g id="edge3" class="edge">
<title>CourseUserDialogComponent&#45;&gt;CoursesModule</title>
<path fill="none" stroke="black" d="M427,-122.27C427,-140.56 427,-166 427,-166 427,-166 789.46,-166 789.46,-166"/>
<polygon fill="black" stroke="black" points="789.46,-169.5 799.46,-166 789.46,-162.5 789.46,-169.5"/>
</g>
<!-- CoursesComponent -->
<g id="node4" class="node">
<title>CoursesComponent</title>
<polygon fill="#ffffb3" stroke="black" points="316.43,-122 189.57,-122 189.57,-86 316.43,-86 316.43,-122"/>
<text text-anchor="middle" x="253" y="-99.8" font-family="Times,serif" font-size="14.00">CoursesComponent</text>
</g>
<!-- CoursesComponent&#45;&gt;CoursesModule -->
<g id="edge4" class="edge">
<title>CoursesComponent&#45;&gt;CoursesModule</title>
<path fill="none" stroke="black" d="M253,-122.13C253,-142.57 253,-173 253,-173 253,-173 789.63,-173 789.63,-173"/>
<polygon fill="black" stroke="black" points="789.63,-176.5 799.63,-173 789.63,-169.5 789.63,-176.5"/>
</g>
<!-- CoursesListComponent -->
<g id="node5" class="node">
<title>CoursesListComponent</title>
<polygon fill="#ffffb3" stroke="black" points="172.21,-122 23.79,-122 23.79,-86 172.21,-86 172.21,-122"/>
<text text-anchor="middle" x="98" y="-99.8" font-family="Times,serif" font-size="14.00">CoursesListComponent</text>
</g>
<!-- CoursesListComponent&#45;&gt;CoursesModule -->
<g id="edge5" class="edge">
<title>CoursesListComponent&#45;&gt;CoursesModule</title>
<path fill="none" stroke="black" d="M98,-122.01C98,-144.49 98,-180 98,-180 98,-180 789.58,-180 789.58,-180"/>
<polygon fill="black" stroke="black" points="789.58,-183.5 799.58,-180 789.58,-176.5 789.58,-183.5"/>
</g>
<!-- CourseDialogComponent  -->
<g id="node9" class="node">
<title>CourseDialogComponent </title>
<polygon fill="#fb8072" stroke="black" points="1021.09,-252 858.91,-252 858.91,-216 1021.09,-216 1021.09,-252"/>
<text text-anchor="middle" x="940" y="-229.8" font-family="Times,serif" font-size="14.00">CourseDialogComponent </text>
</g>
<!-- CoursesModule&#45;&gt;CourseDialogComponent  -->
<g id="edge8" class="edge">
<title>CoursesModule&#45;&gt;CourseDialogComponent </title>
<path fill="none" stroke="black" stroke-dasharray="5,2" d="M881.51,-187.11C881.51,-187.11 881.51,-205.99 881.51,-205.99"/>
<polygon fill="black" stroke="black" points="878.01,-205.99 881.51,-215.99 885.01,-205.99 878.01,-205.99"/>
</g>
<!-- CoursesListComponent  -->
<g id="node10" class="node">
<title>CoursesListComponent </title>
<polygon fill="#fb8072" stroke="black" points="840.71,-252 689.29,-252 689.29,-216 840.71,-216 840.71,-252"/>
<text text-anchor="middle" x="765" y="-229.8" font-family="Times,serif" font-size="14.00">CoursesListComponent </text>
</g>
<!-- CoursesModule&#45;&gt;CoursesListComponent  -->
<g id="edge9" class="edge">
<title>CoursesModule&#45;&gt;CoursesListComponent </title>
<path fill="none" stroke="black" stroke-dasharray="5,2" d="M820.27,-187.11C820.27,-187.11 820.27,-205.99 820.27,-205.99"/>
<polygon fill="black" stroke="black" points="816.77,-205.99 820.27,-215.99 823.77,-205.99 816.77,-205.99"/>
</g>
<!-- CoursesRoutingModule -->
<g id="node7" class="node">
<title>CoursesRoutingModule</title>
<polygon fill="#8dd3c7" stroke="black" points="1688.77,-122 1685.77,-126 1664.77,-126 1661.77,-122 1539.23,-122 1539.23,-86 1688.77,-86 1688.77,-122"/>
<text text-anchor="middle" x="1614" y="-99.8" font-family="Times,serif" font-size="14.00">CoursesRoutingModule</text>
</g>
<!-- CoursesRoutingModule&#45;&gt;CoursesModule -->
<g id="edge6" class="edge">
<title>CoursesRoutingModule&#45;&gt;CoursesModule</title>
<path fill="none" stroke="black" d="M1614,-122.01C1614,-144.49 1614,-180 1614,-180 1614,-180 914.38,-180 914.38,-180"/>
<polygon fill="black" stroke="black" points="914.38,-176.5 904.38,-180 914.38,-183.5 914.38,-176.5"/>
</g>
<!-- MaterialModule -->
<g id="node8" class="node">
<title>MaterialModule</title>
<polygon fill="#8dd3c7" stroke="black" points="1521.47,-122 1518.47,-126 1497.47,-126 1494.47,-122 1414.53,-122 1414.53,-86 1521.47,-86 1521.47,-122"/>
<text text-anchor="middle" x="1468" y="-99.8" font-family="Times,serif" font-size="14.00">MaterialModule</text>
</g>
<!-- MaterialModule&#45;&gt;CoursesModule -->
<g id="edge7" class="edge">
<title>MaterialModule&#45;&gt;CoursesModule</title>
<path fill="none" stroke="black" d="M1468,-122.13C1468,-142.57 1468,-173 1468,-173 1468,-173 914.25,-173 914.25,-173"/>
<polygon fill="black" stroke="black" points="914.25,-169.5 904.25,-173 914.25,-176.5 914.25,-169.5"/>
</g>
<!-- CourseDataService -->
<g id="node11" class="node">
<title>CourseDataService</title>
<ellipse fill="#fdb462" stroke="black" cx="1305" cy="-104" rx="85.65" ry="18"/>
<text text-anchor="middle" x="1305" y="-99.8" font-family="Times,serif" font-size="14.00">CourseDataService</text>
</g>
<!-- CourseDataService&#45;&gt;CoursesModule -->
<g id="edge10" class="edge">
<title>CourseDataService&#45;&gt;CoursesModule</title>
<path fill="none" stroke="black" d="M1305,-122.27C1305,-140.56 1305,-166 1305,-166 1305,-166 914.41,-166 914.41,-166"/>
<polygon fill="black" stroke="black" points="914.41,-162.5 904.41,-166 914.41,-169.5 914.41,-162.5"/>
</g>
<!-- CourseEntityService -->
<g id="node12" class="node">
<title>CourseEntityService</title>
<ellipse fill="#fdb462" stroke="black" cx="1110" cy="-104" rx="90.91" ry="18"/>
<text text-anchor="middle" x="1110" y="-99.8" font-family="Times,serif" font-size="14.00">CourseEntityService</text>
</g>
<!-- CourseEntityService&#45;&gt;CoursesModule -->
<g id="edge11" class="edge">
<title>CourseEntityService&#45;&gt;CoursesModule</title>
<path fill="none" stroke="black" d="M1111.12,-122.01C1111.12,-138.05 1111.12,-159 1111.12,-159 1111.12,-159 914.44,-159 914.44,-159"/>
<polygon fill="black" stroke="black" points="914.44,-155.5 904.44,-159 914.44,-162.5 914.44,-155.5"/>
</g>
<!-- CoursesService -->
<g id="node13" class="node">
<title>CoursesService</title>
<ellipse fill="#fdb462" stroke="black" cx="930" cy="-104" rx="71.2" ry="18"/>
<text text-anchor="middle" x="930" y="-99.8" font-family="Times,serif" font-size="14.00">CoursesService</text>
</g>
<!-- CoursesService&#45;&gt;CoursesModule -->
<g id="edge12" class="edge">
<title>CoursesService&#45;&gt;CoursesModule</title>
<path fill="none" stroke="black" d="M881.61,-117.47C881.61,-117.47 881.61,-140.86 881.61,-140.86"/>
<polygon fill="black" stroke="black" points="878.11,-140.86 881.61,-150.86 885.11,-140.86 878.11,-140.86"/>
</g>
</g>
</svg>
