<?xml version="1.0" encoding="UTF-8" standalone="no"?>
<!DOCTYPE svg PUBLIC "-//W3C//DTD SVG 1.1//EN"
 "http://www.w3.org/Graphics/SVG/1.1/DTD/svg11.dtd">
<!-- Generated by graphviz version 2.44.1 (20200629.0846)
 -->
<!-- Title: dependencies Pages: 1 -->
<svg width="2354pt" height="211pt"
 viewBox="0.00 0.00 2354.00 211.00" xmlns="http://www.w3.org/2000/svg" xmlns:xlink="http://www.w3.org/1999/xlink">
<g id="graph0" class="graph" transform="scale(1 1) rotate(0) translate(4 207)">
<title>dependencies</title>
<polygon fill="white" stroke="transparent" points="-4,4 -4,-207 2350,-207 2350,4 -4,4"/>
<text text-anchor="start" x="1152.01" y="-42.4" font-family="sans-serif" font-weight="bold" font-size="14.00">Legend</text>
<polygon fill="#ffffb3" stroke="transparent" points="939,-10 939,-30 959,-30 959,-10 939,-10"/>
<text text-anchor="start" x="962.63" y="-15.4" font-family="sans-serif" font-size="14.00"> &#160;Declarations</text>
<polygon fill="#8dd3c7" stroke="transparent" points="1052,-10 1052,-30 1072,-30 1072,-10 1052,-10"/>
<text text-anchor="start" x="1075.73" y="-15.4" font-family="sans-serif" font-size="14.00"> &#160;Module</text>
<polygon fill="#80b1d3" stroke="transparent" points="1138,-10 1138,-30 1158,-30 1158,-10 1138,-10"/>
<text text-anchor="start" x="1161.78" y="-15.4" font-family="sans-serif" font-size="14.00"> &#160;Bootstrap</text>
<polygon fill="#fdb462" stroke="transparent" points="1235,-10 1235,-30 1255,-30 1255,-10 1235,-10"/>
<text text-anchor="start" x="1258.67" y="-15.4" font-family="sans-serif" font-size="14.00"> &#160;Providers</text>
<polygon fill="#fb8072" stroke="transparent" points="1331,-10 1331,-30 1351,-30 1351,-10 1331,-10"/>
<text text-anchor="start" x="1354.73" y="-15.4" font-family="sans-serif" font-size="14.00"> &#160;Exports</text>
<g id="clust1" class="cluster">
<title>cluster_CoursesModule</title>
<polygon fill="none" stroke="black" stroke-dasharray="1,5" points="8,-70 8,-195 2338,-195 2338,-70 8,-70"/>
</g>
<g id="clust11" class="cluster">
<title>cluster_CoursesModule_imports</title>
<polygon fill="none" stroke="black" points="2040,-78 2040,-130 2330,-130 2330,-78 2040,-78"/>
</g>
<g id="clust14" class="cluster">
<title>cluster_CoursesModule_providers</title>
<polygon fill="none" stroke="black" points="1478,-78 1478,-130 2032,-130 2032,-78 1478,-78"/>
</g>
<g id="clust2" class="cluster">
<title>cluster_CoursesModule_declarations</title>
<polygon fill="none" stroke="black" points="16,-78 16,-130 1470,-130 1470,-78 16,-78"/>
</g>
<!-- AnnouncementDialogComponent -->
<g id="node1" class="node">
<title>AnnouncementDialogComponent</title>
<polygon fill="#ffffb3" stroke="black" points="1462.47,-122 1257.53,-122 1257.53,-86 1462.47,-86 1462.47,-122"/>
<text text-anchor="middle" x="1360" y="-99.8" font-family="Times,serif" font-size="14.00">AnnouncementDialogComponent</text>
</g>
<!-- CoursesModule -->
<g id="node9" class="node">
<title>CoursesModule</title>
<polygon fill="#8dd3c7" stroke="black" points="1190.15,-187 1187.15,-191 1166.15,-191 1163.15,-187 1085.85,-187 1085.85,-151 1190.15,-151 1190.15,-187"/>
<text text-anchor="middle" x="1138" y="-164.8" font-family="Times,serif" font-size="14.00">CoursesModule</text>
</g>
<!-- AnnouncementDialogComponent&#45;&gt;CoursesModule -->
<g id="edge1" class="edge">
<title>AnnouncementDialogComponent&#45;&gt;CoursesModule</title>
<path fill="none" stroke="black" d="M1360,-122.24C1360,-137.57 1360,-157 1360,-157 1360,-157 1200.33,-157 1200.33,-157"/>
<polygon fill="black" stroke="black" points="1200.33,-153.5 1190.33,-157 1200.33,-160.5 1200.33,-153.5"/>
</g>
<!-- AnnouncementResultComponent -->
<g id="node2" class="node">
<title>AnnouncementResultComponent</title>
<polygon fill="#ffffb3" stroke="black" points="1239.14,-122 1036.86,-122 1036.86,-86 1239.14,-86 1239.14,-122"/>
<text text-anchor="middle" x="1138" y="-99.8" font-family="Times,serif" font-size="14.00">AnnouncementResultComponent</text>
</g>
<!-- AnnouncementResultComponent&#45;&gt;CoursesModule -->
<g id="edge2" class="edge">
<title>AnnouncementResultComponent&#45;&gt;CoursesModule</title>
<path fill="none" stroke="black" d="M1138,-122.11C1138,-122.11 1138,-140.99 1138,-140.99"/>
<polygon fill="black" stroke="black" points="1134.5,-140.99 1138,-150.99 1141.5,-140.99 1134.5,-140.99"/>
</g>
<!-- CourseComponent -->
<g id="node3" class="node">
<title>CourseComponent</title>
<polygon fill="#ffffb3" stroke="black" points="1018.49,-122 897.51,-122 897.51,-86 1018.49,-86 1018.49,-122"/>
<text text-anchor="middle" x="958" y="-99.8" font-family="Times,serif" font-size="14.00">CourseComponent</text>
</g>
<!-- CourseComponent&#45;&gt;CoursesModule -->
<g id="edge3" class="edge">
<title>CourseComponent&#45;&gt;CoursesModule</title>
<path fill="none" stroke="black" d="M958,-122.24C958,-137.57 958,-157 958,-157 958,-157 1075.45,-157 1075.45,-157"/>
<polygon fill="black" stroke="black" points="1075.45,-160.5 1085.45,-157 1075.45,-153.5 1075.45,-160.5"/>
</g>
<!-- CourseDialogComponent -->
<g id="node4" class="node">
<title>CourseDialogComponent</title>
<polygon fill="#ffffb3" stroke="black" points="879.59,-122 720.41,-122 720.41,-86 879.59,-86 879.59,-122"/>
<text text-anchor="middle" x="800" y="-99.8" font-family="Times,serif" font-size="14.00">CourseDialogComponent</text>
</g>
<!-- CourseDialogComponent&#45;&gt;CoursesModule -->
<g id="edge4" class="edge">
<title>CourseDialogComponent&#45;&gt;CoursesModule</title>
<path fill="none" stroke="black" d="M800,-122.03C800,-139.06 800,-162 800,-162 800,-162 1075.56,-162 1075.56,-162"/>
<polygon fill="black" stroke="black" points="1075.56,-165.5 1085.56,-162 1075.56,-158.5 1075.56,-165.5"/>
</g>
<!-- CourseStudentsComponent -->
<g id="node5" class="node">
<title>CourseStudentsComponent</title>
<polygon fill="#ffffb3" stroke="black" points="702.71,-122 533.29,-122 533.29,-86 702.71,-86 702.71,-122"/>
<text text-anchor="middle" x="618" y="-99.8" font-family="Times,serif" font-size="14.00">CourseStudentsComponent</text>
</g>
<!-- CourseStudentsComponent&#45;&gt;CoursesModule -->
<g id="edge5" class="edge">
<title>CourseStudentsComponent&#45;&gt;CoursesModule</title>
<path fill="none" stroke="black" d="M618,-122.22C618,-140.83 618,-167 618,-167 618,-167 1075.76,-167 1075.76,-167"/>
<polygon fill="black" stroke="black" points="1075.76,-170.5 1085.76,-167 1075.76,-163.5 1075.76,-170.5"/>
</g>
<!-- CourseTeachersComponent -->
<g id="node6" class="node">
<title>CourseTeachersComponent</title>
<polygon fill="#ffffb3" stroke="black" points="515.51,-122 344.49,-122 344.49,-86 515.51,-86 515.51,-122"/>
<text text-anchor="middle" x="430" y="-99.8" font-family="Times,serif" font-size="14.00">CourseTeachersComponent</text>
</g>
<!-- CourseTeachersComponent&#45;&gt;CoursesModule -->
<g id="edge6" class="edge">
<title>CourseTeachersComponent&#45;&gt;CoursesModule</title>
<path fill="none" stroke="black" d="M430,-122.22C430,-142.37 430,-172 430,-172 430,-172 1075.65,-172 1075.65,-172"/>
<polygon fill="black" stroke="black" points="1075.65,-175.5 1085.65,-172 1075.65,-168.5 1075.65,-175.5"/>
</g>
<!-- CoursesComponent -->
<g id="node7" class="node">
<title>CoursesComponent</title>
<polygon fill="#ffffb3" stroke="black" points="326.43,-122 199.57,-122 199.57,-86 326.43,-86 326.43,-122"/>
<text text-anchor="middle" x="263" y="-99.8" font-family="Times,serif" font-size="14.00">CoursesComponent</text>
</g>
<!-- CoursesComponent&#45;&gt;CoursesModule -->
<g id="edge7" class="edge">
<title>CoursesComponent&#45;&gt;CoursesModule</title>
<path fill="none" stroke="black" d="M263,-122.04C263,-143.66 263,-177 263,-177 263,-177 1075.56,-177 1075.56,-177"/>
<polygon fill="black" stroke="black" points="1075.56,-180.5 1085.56,-177 1075.56,-173.5 1075.56,-180.5"/>
</g>
<!-- CoursesTableComponent -->
<g id="node8" class="node">
<title>CoursesTableComponent</title>
<polygon fill="#ffffb3" stroke="black" points="182.31,-122 23.69,-122 23.69,-86 182.31,-86 182.31,-122"/>
<text text-anchor="middle" x="103" y="-99.8" font-family="Times,serif" font-size="14.00">CoursesTableComponent</text>
</g>
<!-- CoursesTableComponent&#45;&gt;CoursesModule -->
<g id="edge8" class="edge">
<title>CoursesTableComponent&#45;&gt;CoursesModule</title>
<path fill="none" stroke="black" d="M103,-122.09C103,-145.13 103,-182 103,-182 103,-182 1075.61,-182 1075.61,-182"/>
<polygon fill="black" stroke="black" points="1075.61,-185.5 1085.61,-182 1075.61,-178.5 1075.61,-185.5"/>
</g>
<!-- CoursesRoutingModule -->
<g id="node10" class="node">
<title>CoursesRoutingModule</title>
<polygon fill="#8dd3c7" stroke="black" points="2321.77,-122 2318.77,-126 2297.77,-126 2294.77,-122 2172.23,-122 2172.23,-86 2321.77,-86 2321.77,-122"/>
<text text-anchor="middle" x="2247" y="-99.8" font-family="Times,serif" font-size="14.00">CoursesRoutingModule</text>
</g>
<!-- CoursesRoutingModule&#45;&gt;CoursesModule -->
<g id="edge9" class="edge">
<title>CoursesRoutingModule&#45;&gt;CoursesModule</title>
<path fill="none" stroke="black" d="M2247,-122.09C2247,-145.13 2247,-182 2247,-182 2247,-182 1200.37,-182 1200.37,-182"/>
<polygon fill="black" stroke="black" points="1200.37,-178.5 1190.37,-182 1200.37,-185.5 1200.37,-178.5"/>
</g>
<!-- MaterialModule -->
<g id="node11" class="node">
<title>MaterialModule</title>
<polygon fill="#8dd3c7" stroke="black" points="2154.47,-122 2151.47,-126 2130.47,-126 2127.47,-122 2047.53,-122 2047.53,-86 2154.47,-86 2154.47,-122"/>
<text text-anchor="middle" x="2101" y="-99.8" font-family="Times,serif" font-size="14.00">MaterialModule</text>
</g>
<!-- MaterialModule&#45;&gt;CoursesModule -->
<g id="edge10" class="edge">
<title>MaterialModule&#45;&gt;CoursesModule</title>
<path fill="none" stroke="black" d="M2101,-122.04C2101,-143.66 2101,-177 2101,-177 2101,-177 1200.46,-177 1200.46,-177"/>
<polygon fill="black" stroke="black" points="1200.46,-173.5 1190.46,-177 1200.46,-180.5 1200.46,-173.5"/>
</g>
<!-- CourseEntityService -->
<g id="node12" class="node">
<title>CourseEntityService</title>
<ellipse fill="#fdb462" stroke="black" cx="1933" cy="-104" rx="90.91" ry="18"/>
<text text-anchor="middle" x="1933" y="-99.8" font-family="Times,serif" font-size="14.00">CourseEntityService</text>
</g>
<!-- CourseEntityService&#45;&gt;CoursesModule -->
<g id="edge11" class="edge">
<title>CourseEntityService&#45;&gt;CoursesModule</title>
<path fill="none" stroke="black" d="M1933,-122.22C1933,-142.37 1933,-172 1933,-172 1933,-172 1200.16,-172 1200.16,-172"/>
<polygon fill="black" stroke="black" points="1200.16,-168.5 1190.16,-172 1200.16,-175.5 1200.16,-168.5"/>
</g>
<!-- CoursesDataService -->
<g id="node13" class="node">
<title>CoursesDataService</title>
<ellipse fill="#fdb462" stroke="black" cx="1735" cy="-104" rx="89.16" ry="18"/>
<text text-anchor="middle" x="1735" y="-99.8" font-family="Times,serif" font-size="14.00">CoursesDataService</text>
</g>
<!-- CoursesDataService&#45;&gt;CoursesModule -->
<g id="edge12" class="edge">
<title>CoursesDataService&#45;&gt;CoursesModule</title>
<path fill="none" stroke="black" d="M1735,-122.22C1735,-140.83 1735,-167 1735,-167 1735,-167 1200.2,-167 1200.2,-167"/>
<polygon fill="black" stroke="black" points="1200.2,-163.5 1190.2,-167 1200.2,-170.5 1200.2,-163.5"/>
</g>
<!-- CoursesService -->
<g id="node14" class="node">
<title>CoursesService</title>
<ellipse fill="#fdb462" stroke="black" cx="1557" cy="-104" rx="71.2" ry="18"/>
<text text-anchor="middle" x="1557" y="-99.8" font-family="Times,serif" font-size="14.00">CoursesService</text>
</g>
<!-- CoursesService&#45;&gt;CoursesModule -->
<g id="edge13" class="edge">
<title>CoursesService&#45;&gt;CoursesModule</title>
<path fill="none" stroke="black" d="M1557,-122.03C1557,-139.06 1557,-162 1557,-162 1557,-162 1200.22,-162 1200.22,-162"/>
<polygon fill="black" stroke="black" points="1200.22,-158.5 1190.22,-162 1200.22,-165.5 1200.22,-158.5"/>
</g>
</g>
</svg>
