<?xml version="1.0" encoding="UTF-8" standalone="no"?>
<!DOCTYPE svg PUBLIC "-//W3C//DTD SVG 1.1//EN"
 "http://www.w3.org/Graphics/SVG/1.1/DTD/svg11.dtd">
<!-- Generated by graphviz version 2.46.0 (20210119.1425)
 -->
<!-- Title: dependencies Pages: 1 -->
<svg width="5143pt" height="211pt"
 viewBox="0.00 0.00 5143.00 211.00" xmlns="http://www.w3.org/2000/svg" xmlns:xlink="http://www.w3.org/1999/xlink">
<g id="graph0" class="graph" transform="scale(1 1) rotate(0) translate(4 207)">
<title>dependencies</title>
<polygon fill="white" stroke="transparent" points="-4,4 -4,-207 5139,-207 5139,4 -4,4"/>
<text text-anchor="start" x="2546.51" y="-42.4" font-family="sans-serif" font-weight="bold" font-size="14.00">Legend</text>
<polygon fill="#ffffb3" stroke="transparent" points="2333.5,-10 2333.5,-30 2353.5,-30 2353.5,-10 2333.5,-10"/>
<text text-anchor="start" x="2357.13" y="-15.4" font-family="sans-serif" font-size="14.00"> &#160;Declarations</text>
<polygon fill="#8dd3c7" stroke="transparent" points="2446.5,-10 2446.5,-30 2466.5,-30 2466.5,-10 2446.5,-10"/>
<text text-anchor="start" x="2470.23" y="-15.4" font-family="sans-serif" font-size="14.00"> &#160;Module</text>
<polygon fill="#80b1d3" stroke="transparent" points="2532.5,-10 2532.5,-30 2552.5,-30 2552.5,-10 2532.5,-10"/>
<text text-anchor="start" x="2556.28" y="-15.4" font-family="sans-serif" font-size="14.00"> &#160;Bootstrap</text>
<polygon fill="#fdb462" stroke="transparent" points="2629.5,-10 2629.5,-30 2649.5,-30 2649.5,-10 2629.5,-10"/>
<text text-anchor="start" x="2653.17" y="-15.4" font-family="sans-serif" font-size="14.00"> &#160;Providers</text>
<polygon fill="#fb8072" stroke="transparent" points="2725.5,-10 2725.5,-30 2745.5,-30 2745.5,-10 2725.5,-10"/>
<text text-anchor="start" x="2749.23" y="-15.4" font-family="sans-serif" font-size="14.00"> &#160;Exports</text>
<g id="clust1" class="cluster">
<title>cluster_CoursesModule</title>
<polygon fill="none" stroke="black" stroke-dasharray="1,5" points="8,-70 8,-195 5127,-195 5127,-70 8,-70"/>
</g>
<g id="clust17" class="cluster">
<title>cluster_CoursesModule_providers</title>
<polygon fill="none" stroke="black" points="2319,-78 2319,-130 5119,-130 5119,-78 2319,-78"/>
</g>
<g id="clust2" class="cluster">
<title>cluster_CoursesModule_declarations</title>
<polygon fill="none" stroke="black" points="314,-78 314,-130 2311,-130 2311,-78 314,-78"/>
</g>
<g id="clust14" class="cluster">
<title>cluster_CoursesModule_imports</title>
<polygon fill="none" stroke="black" points="16,-78 16,-130 306,-130 306,-78 16,-78"/>
</g>
<!-- AnnouncementDialogComponent -->
<g id="node1" class="node">
<title>AnnouncementDialogComponent</title>
<polygon fill="#ffffb3" stroke="black" points="2303.47,-122 2098.53,-122 2098.53,-86 2303.47,-86 2303.47,-122"/>
<text text-anchor="middle" x="2201" y="-99.8" font-family="Times,serif" font-size="14.00">AnnouncementDialogComponent</text>
</g>
<!-- CoursesModule -->
<g id="node12" class="node">
<title>CoursesModule</title>
<polygon fill="#8dd3c7" stroke="black" points="2370.15,-187 2367.15,-191 2346.15,-191 2343.15,-187 2265.85,-187 2265.85,-151 2370.15,-151 2370.15,-187"/>
<text text-anchor="middle" x="2318" y="-164.8" font-family="Times,serif" font-size="14.00">CoursesModule</text>
</g>
<!-- AnnouncementDialogComponent&#45;&gt;CoursesModule -->
<g id="edge1" class="edge">
<title>AnnouncementDialogComponent&#45;&gt;CoursesModule</title>
<path fill="none" stroke="black" d="M2284.58,-122.11C2284.58,-122.11 2284.58,-140.99 2284.58,-140.99"/>
<polygon fill="black" stroke="black" points="2281.08,-140.99 2284.58,-150.99 2288.08,-140.99 2281.08,-140.99"/>
</g>
<!-- AnnouncementResultComponent -->
<g id="node2" class="node">
<title>AnnouncementResultComponent</title>
<polygon fill="#ffffb3" stroke="black" points="2080.14,-122 1877.86,-122 1877.86,-86 2080.14,-86 2080.14,-122"/>
<text text-anchor="middle" x="1979" y="-99.8" font-family="Times,serif" font-size="14.00">AnnouncementResultComponent</text>
</g>
<!-- AnnouncementResultComponent&#45;&gt;CoursesModule -->
<g id="edge2" class="edge">
<title>AnnouncementResultComponent&#45;&gt;CoursesModule</title>
<path fill="none" stroke="black" d="M1979,-122.05C1979,-136.37 1979,-154 1979,-154 1979,-154 2255.77,-154 2255.77,-154"/>
<polygon fill="black" stroke="black" points="2255.77,-157.5 2265.77,-154 2255.77,-150.5 2255.77,-157.5"/>
</g>
<!-- CourseAnnouncementsComponent -->
<g id="node3" class="node">
<title>CourseAnnouncementsComponent</title>
<polygon fill="#ffffb3" stroke="black" points="1859.97,-122 1648.03,-122 1648.03,-86 1859.97,-86 1859.97,-122"/>
<text text-anchor="middle" x="1754" y="-99.8" font-family="Times,serif" font-size="14.00">CourseAnnouncementsComponent</text>
</g>
<!-- CourseAnnouncementsComponent&#45;&gt;CoursesModule -->
<g id="edge3" class="edge">
<title>CourseAnnouncementsComponent&#45;&gt;CoursesModule</title>
<path fill="none" stroke="black" d="M1754,-122.24C1754,-137.57 1754,-157 1754,-157 1754,-157 2255.7,-157 2255.7,-157"/>
<polygon fill="black" stroke="black" points="2255.7,-160.5 2265.7,-157 2255.7,-153.5 2255.7,-160.5"/>
</g>
<!-- CourseComponent -->
<g id="node4" class="node">
<title>CourseComponent</title>
<polygon fill="#ffffb3" stroke="black" points="1630.49,-122 1509.51,-122 1509.51,-86 1630.49,-86 1630.49,-122"/>
<text text-anchor="middle" x="1570" y="-99.8" font-family="Times,serif" font-size="14.00">CourseComponent</text>
</g>
<!-- CourseComponent&#45;&gt;CoursesModule -->
<g id="edge4" class="edge">
<title>CourseComponent&#45;&gt;CoursesModule</title>
<path fill="none" stroke="black" d="M1570,-122.03C1570,-138.4 1570,-160 1570,-160 1570,-160 2255.7,-160 2255.7,-160"/>
<polygon fill="black" stroke="black" points="2255.7,-163.5 2265.7,-160 2255.7,-156.5 2255.7,-163.5"/>
</g>
<!-- CourseDialogComponent -->
<g id="node5" class="node">
<title>CourseDialogComponent</title>
<polygon fill="#ffffb3" stroke="black" points="1491.59,-122 1332.41,-122 1332.41,-86 1491.59,-86 1491.59,-122"/>
<text text-anchor="middle" x="1412" y="-99.8" font-family="Times,serif" font-size="14.00">CourseDialogComponent</text>
</g>
<!-- CourseDialogComponent&#45;&gt;CoursesModule -->
<g id="edge5" class="edge">
<title>CourseDialogComponent&#45;&gt;CoursesModule</title>
<path fill="none" stroke="black" d="M1412,-122.02C1412,-139.37 1412,-163 1412,-163 1412,-163 2255.7,-163 2255.7,-163"/>
<polygon fill="black" stroke="black" points="2255.7,-166.5 2265.7,-163 2255.7,-159.5 2255.7,-166.5"/>
</g>
<!-- CourseStudentsComponent -->
<g id="node6" class="node">
<title>CourseStudentsComponent</title>
<polygon fill="#ffffb3" stroke="black" points="1314.71,-122 1145.29,-122 1145.29,-86 1314.71,-86 1314.71,-122"/>
<text text-anchor="middle" x="1230" y="-99.8" font-family="Times,serif" font-size="14.00">CourseStudentsComponent</text>
</g>
<!-- CourseStudentsComponent&#45;&gt;CoursesModule -->
<g id="edge6" class="edge">
<title>CourseStudentsComponent&#45;&gt;CoursesModule</title>
<path fill="none" stroke="black" d="M1230,-122.3C1230,-140.27 1230,-165 1230,-165 1230,-165 2255.52,-165 2255.52,-165"/>
<polygon fill="black" stroke="black" points="2255.52,-168.5 2265.52,-165 2255.52,-161.5 2255.52,-168.5"/>
</g>
<!-- CourseTeachersComponent -->
<g id="node7" class="node">
<title>CourseTeachersComponent</title>
<polygon fill="#ffffb3" stroke="black" points="1127.51,-122 956.49,-122 956.49,-86 1127.51,-86 1127.51,-122"/>
<text text-anchor="middle" x="1042" y="-99.8" font-family="Times,serif" font-size="14.00">CourseTeachersComponent</text>
</g>
<!-- CourseTeachersComponent&#45;&gt;CoursesModule -->
<g id="edge7" class="edge">
<title>CourseTeachersComponent&#45;&gt;CoursesModule</title>
<path fill="none" stroke="black" d="M1042,-122.17C1042,-141.09 1042,-168 1042,-168 1042,-168 2255.6,-168 2255.6,-168"/>
<polygon fill="black" stroke="black" points="2255.6,-171.5 2265.6,-168 2255.6,-164.5 2255.6,-171.5"/>
</g>
<!-- CourseWorkComponent -->
<g id="node8" class="node">
<title>CourseWorkComponent</title>
<polygon fill="#ffffb3" stroke="black" points="938.36,-122 785.64,-122 785.64,-86 938.36,-86 938.36,-122"/>
<text text-anchor="middle" x="862" y="-99.8" font-family="Times,serif" font-size="14.00">CourseWorkComponent</text>
</g>
<!-- CourseWorkComponent&#45;&gt;CoursesModule -->
<g id="edge8" class="edge">
<title>CourseWorkComponent&#45;&gt;CoursesModule</title>
<path fill="none" stroke="black" d="M862,-122.31C862,-142.15 862,-171 862,-171 862,-171 2255.75,-171 2255.75,-171"/>
<polygon fill="black" stroke="black" points="2255.75,-174.5 2265.75,-171 2255.75,-167.5 2255.75,-174.5"/>
</g>
<!-- CoursesComponent -->
<g id="node9" class="node">
<title>CoursesComponent</title>
<polygon fill="#ffffb3" stroke="black" points="767.43,-122 640.57,-122 640.57,-86 767.43,-86 767.43,-122"/>
<text text-anchor="middle" x="704" y="-99.8" font-family="Times,serif" font-size="14.00">CoursesComponent</text>
</g>
<!-- CoursesComponent&#45;&gt;CoursesModule -->
<g id="edge9" class="edge">
<title>CoursesComponent&#45;&gt;CoursesModule</title>
<path fill="none" stroke="black" d="M704,-122.03C704,-142.77 704,-174 704,-174 704,-174 2255.67,-174 2255.67,-174"/>
<polygon fill="black" stroke="black" points="2255.67,-177.5 2265.67,-174 2255.67,-170.5 2255.67,-177.5"/>
</g>
<!-- CoursesListComponent -->
<g id="node10" class="node">
<title>CoursesListComponent</title>
<polygon fill="#ffffb3" stroke="black" points="623.21,-122 474.79,-122 474.79,-86 623.21,-86 623.21,-122"/>
<text text-anchor="middle" x="549" y="-99.8" font-family="Times,serif" font-size="14.00">CoursesListComponent</text>
</g>
<!-- CoursesListComponent&#45;&gt;CoursesModule -->
<g id="edge10" class="edge">
<title>CoursesListComponent&#45;&gt;CoursesModule</title>
<path fill="none" stroke="black" d="M549,-122.17C549,-143.5 549,-176 549,-176 549,-176 2255.54,-176 2255.54,-176"/>
<polygon fill="black" stroke="black" points="2255.54,-179.5 2265.54,-176 2255.54,-172.5 2255.54,-179.5"/>
</g>
<!-- UserCardComponent -->
<g id="node11" class="node">
<title>UserCardComponent</title>
<polygon fill="#ffffb3" stroke="black" points="456.47,-122 321.53,-122 321.53,-86 456.47,-86 456.47,-122"/>
<text text-anchor="middle" x="389" y="-99.8" font-family="Times,serif" font-size="14.00">UserCardComponent</text>
</g>
<!-- UserCardComponent&#45;&gt;CoursesModule -->
<g id="edge11" class="edge">
<title>UserCardComponent&#45;&gt;CoursesModule</title>
<path fill="none" stroke="black" d="M389,-122.16C389,-144.35 389,-179 389,-179 389,-179 2255.65,-179 2255.65,-179"/>
<polygon fill="black" stroke="black" points="2255.65,-182.5 2265.65,-179 2255.65,-175.5 2255.65,-182.5"/>
</g>
<!-- CoursesRoutingModule -->
<g id="node13" class="node">
<title>CoursesRoutingModule</title>
<polygon fill="#8dd3c7" stroke="black" points="297.77,-122 294.77,-126 273.77,-126 270.77,-122 148.23,-122 148.23,-86 297.77,-86 297.77,-122"/>
<text text-anchor="middle" x="223" y="-99.8" font-family="Times,serif" font-size="14.00">CoursesRoutingModule</text>
</g>
<!-- CoursesRoutingModule&#45;&gt;CoursesModule -->
<g id="edge12" class="edge">
<title>CoursesRoutingModule&#45;&gt;CoursesModule</title>
<path fill="none" stroke="black" d="M223,-122.09C223,-145.13 223,-182 223,-182 223,-182 2255.69,-182 2255.69,-182"/>
<polygon fill="black" stroke="black" points="2255.69,-185.5 2265.69,-182 2255.69,-178.5 2255.69,-185.5"/>
</g>
<!-- MaterialModule -->
<g id="node14" class="node">
<title>MaterialModule</title>
<polygon fill="#8dd3c7" stroke="black" points="130.47,-122 127.47,-126 106.47,-126 103.47,-122 23.53,-122 23.53,-86 130.47,-86 130.47,-122"/>
<text text-anchor="middle" x="77" y="-99.8" font-family="Times,serif" font-size="14.00">MaterialModule</text>
</g>
<!-- MaterialModule&#45;&gt;CoursesModule -->
<g id="edge13" class="edge">
<title>MaterialModule&#45;&gt;CoursesModule</title>
<path fill="none" stroke="black" d="M77,-122.38C77,-146.28 77,-185 77,-185 77,-185 2255.63,-185 2255.63,-185"/>
<polygon fill="black" stroke="black" points="2255.63,-188.5 2265.63,-185 2255.63,-181.5 2255.63,-188.5"/>
</g>
<!-- AnnouncementDataService -->
<g id="node15" class="node">
<title>AnnouncementDataService</title>
<ellipse fill="#fdb462" stroke="black" cx="4994" cy="-104" rx="117.44" ry="18"/>
<text text-anchor="middle" x="4994" y="-99.8" font-family="Times,serif" font-size="14.00">AnnouncementDataService</text>
</g>
<!-- AnnouncementDataService&#45;&gt;CoursesModule -->
<g id="edge14" class="edge">
<title>AnnouncementDataService&#45;&gt;CoursesModule</title>
<path fill="none" stroke="black" d="M4994,-122.38C4994,-146.28 4994,-185 4994,-185 4994,-185 2380.25,-185 2380.25,-185"/>
<polygon fill="black" stroke="black" points="2380.25,-181.5 2370.25,-185 2380.25,-188.5 2380.25,-181.5"/>
</g>
<!-- AnnouncementEntityService -->
<g id="node16" class="node">
<title>AnnouncementEntityService</title>
<ellipse fill="#fdb462" stroke="black" cx="4736" cy="-104" rx="122.69" ry="18"/>
<text text-anchor="middle" x="4736" y="-99.8" font-family="Times,serif" font-size="14.00">AnnouncementEntityService</text>
</g>
<!-- AnnouncementEntityService&#45;&gt;CoursesModule -->
<g id="edge15" class="edge">
<title>AnnouncementEntityService&#45;&gt;CoursesModule</title>
<path fill="none" stroke="black" d="M4736,-122.09C4736,-145.13 4736,-182 4736,-182 4736,-182 2380.19,-182 2380.19,-182"/>
<polygon fill="black" stroke="black" points="2380.19,-178.5 2370.19,-182 2380.19,-185.5 2380.19,-178.5"/>
</g>
<!-- CourseDataService -->
<g id="node17" class="node">
<title>CourseDataService</title>
<ellipse fill="#fdb462" stroke="black" cx="4510" cy="-104" rx="85.65" ry="18"/>
<text text-anchor="middle" x="4510" y="-99.8" font-family="Times,serif" font-size="14.00">CourseDataService</text>
</g>
<!-- CourseDataService&#45;&gt;CoursesModule -->
<g id="edge16" class="edge">
<title>CourseDataService&#45;&gt;CoursesModule</title>
<path fill="none" stroke="black" d="M4510,-122.16C4510,-144.35 4510,-179 4510,-179 4510,-179 2380.29,-179 2380.29,-179"/>
<polygon fill="black" stroke="black" points="2380.29,-175.5 2370.29,-179 2380.29,-182.5 2380.29,-175.5"/>
</g>
<!-- CourseEntityService -->
<g id="node18" class="node">
<title>CourseEntityService</title>
<ellipse fill="#fdb462" stroke="black" cx="4315" cy="-104" rx="90.91" ry="18"/>
<text text-anchor="middle" x="4315" y="-99.8" font-family="Times,serif" font-size="14.00">CourseEntityService</text>
</g>
<!-- CourseEntityService&#45;&gt;CoursesModule -->
<g id="edge17" class="edge">
<title>CourseEntityService&#45;&gt;CoursesModule</title>
<path fill="none" stroke="black" d="M4315,-122.17C4315,-143.5 4315,-176 4315,-176 4315,-176 2380.39,-176 2380.39,-176"/>
<polygon fill="black" stroke="black" points="2380.39,-172.5 2370.39,-176 2380.39,-179.5 2380.39,-172.5"/>
</g>
<!-- CourseWorkDataService -->
<g id="node19" class="node">
<title>CourseWorkDataService</title>
<ellipse fill="#fdb462" stroke="black" cx="4098" cy="-104" rx="107.62" ry="18"/>
<text text-anchor="middle" x="4098" y="-99.8" font-family="Times,serif" font-size="14.00">CourseWorkDataService</text>
</g>
<!-- CourseWorkDataService&#45;&gt;CoursesModule -->
<g id="edge18" class="edge">
<title>CourseWorkDataService&#45;&gt;CoursesModule</title>
<path fill="none" stroke="black" d="M4098,-122.03C4098,-142.77 4098,-174 4098,-174 4098,-174 2380.31,-174 2380.31,-174"/>
<polygon fill="black" stroke="black" points="2380.31,-170.5 2370.31,-174 2380.31,-177.5 2380.31,-170.5"/>
</g>
<!-- CourseWorkEntityService -->
<g id="node20" class="node">
<title>CourseWorkEntityService</title>
<ellipse fill="#fdb462" stroke="black" cx="3859" cy="-104" rx="112.88" ry="18"/>
<text text-anchor="middle" x="3859" y="-99.8" font-family="Times,serif" font-size="14.00">CourseWorkEntityService</text>
</g>
<!-- CourseWorkEntityService&#45;&gt;CoursesModule -->
<g id="edge19" class="edge">
<title>CourseWorkEntityService&#45;&gt;CoursesModule</title>
<path fill="none" stroke="black" d="M3859,-122.31C3859,-142.15 3859,-171 3859,-171 3859,-171 2380.15,-171 2380.15,-171"/>
<polygon fill="black" stroke="black" points="2380.15,-167.5 2370.15,-171 2380.15,-174.5 2380.15,-167.5"/>
</g>
<!-- CoursesService -->
<g id="node21" class="node">
<title>CoursesService</title>
<ellipse fill="#fdb462" stroke="black" cx="3657" cy="-104" rx="71.2" ry="18"/>
<text text-anchor="middle" x="3657" y="-99.8" font-family="Times,serif" font-size="14.00">CoursesService</text>
</g>
<!-- CoursesService&#45;&gt;CoursesModule -->
<g id="edge20" class="edge">
<title>CoursesService&#45;&gt;CoursesModule</title>
<path fill="none" stroke="black" d="M3657,-122.17C3657,-141.09 3657,-168 3657,-168 3657,-168 2380.49,-168 2380.49,-168"/>
<polygon fill="black" stroke="black" points="2380.49,-164.5 2370.49,-168 2380.49,-171.5 2380.49,-164.5"/>
</g>
<!-- StudentDataService -->
<g id="node22" class="node">
<title>StudentDataService</title>
<ellipse fill="#fdb462" stroke="black" cx="3480" cy="-104" rx="87.96" ry="18"/>
<text text-anchor="middle" x="3480" y="-99.8" font-family="Times,serif" font-size="14.00">StudentDataService</text>
</g>
<!-- StudentDataService&#45;&gt;CoursesModule -->
<g id="edge21" class="edge">
<title>StudentDataService&#45;&gt;CoursesModule</title>
<path fill="none" stroke="black" d="M3480,-122.3C3480,-140.27 3480,-165 3480,-165 3480,-165 2380.19,-165 2380.19,-165"/>
<polygon fill="black" stroke="black" points="2380.19,-161.5 2370.19,-165 2380.19,-168.5 2380.19,-161.5"/>
</g>
<!-- StudentEntityService -->
<g id="node23" class="node">
<title>StudentEntityService</title>
<ellipse fill="#fdb462" stroke="black" cx="3281" cy="-104" rx="93.21" ry="18"/>
<text text-anchor="middle" x="3281" y="-99.8" font-family="Times,serif" font-size="14.00">StudentEntityService</text>
</g>
<!-- StudentEntityService&#45;&gt;CoursesModule -->
<g id="edge22" class="edge">
<title>StudentEntityService&#45;&gt;CoursesModule</title>
<path fill="none" stroke="black" d="M3281,-122.02C3281,-139.37 3281,-163 3281,-163 3281,-163 2380.46,-163 2380.46,-163"/>
<polygon fill="black" stroke="black" points="2380.46,-159.5 2370.46,-163 2380.46,-166.5 2380.46,-159.5"/>
</g>
<!-- TeacherDataService -->
<g id="node24" class="node">
<title>TeacherDataService</title>
<ellipse fill="#fdb462" stroke="black" cx="3081" cy="-104" rx="89.12" ry="18"/>
<text text-anchor="middle" x="3081" y="-99.8" font-family="Times,serif" font-size="14.00">TeacherDataService</text>
</g>
<!-- TeacherDataService&#45;&gt;CoursesModule -->
<g id="edge23" class="edge">
<title>TeacherDataService&#45;&gt;CoursesModule</title>
<path fill="none" stroke="black" d="M3081,-122.03C3081,-138.4 3081,-160 3081,-160 3081,-160 2380.44,-160 2380.44,-160"/>
<polygon fill="black" stroke="black" points="2380.44,-156.5 2370.44,-160 2380.44,-163.5 2380.44,-156.5"/>
</g>
<!-- TeacherEntityService -->
<g id="node25" class="node">
<title>TeacherEntityService</title>
<ellipse fill="#fdb462" stroke="black" cx="2879" cy="-104" rx="94.88" ry="18"/>
<text text-anchor="middle" x="2879" y="-99.8" font-family="Times,serif" font-size="14.00">TeacherEntityService</text>
</g>
<!-- TeacherEntityService&#45;&gt;CoursesModule -->
<g id="edge24" class="edge">
<title>TeacherEntityService&#45;&gt;CoursesModule</title>
<path fill="none" stroke="black" d="M2879,-122.24C2879,-137.57 2879,-157 2879,-157 2879,-157 2380.27,-157 2380.27,-157"/>
<polygon fill="black" stroke="black" points="2380.27,-153.5 2370.27,-157 2380.27,-160.5 2380.27,-153.5"/>
</g>
<!-- UserProfileDataService -->
<g id="node26" class="node">
<title>UserProfileDataService</title>
<ellipse fill="#fdb462" stroke="black" cx="2664" cy="-104" rx="102.96" ry="18"/>
<text text-anchor="middle" x="2664" y="-99.8" font-family="Times,serif" font-size="14.00">UserProfileDataService</text>
</g>
<!-- UserProfileDataService&#45;&gt;CoursesModule -->
<g id="edge25" class="edge">
<title>UserProfileDataService&#45;&gt;CoursesModule</title>
<path fill="none" stroke="black" d="M2664,-122.05C2664,-136.37 2664,-154 2664,-154 2664,-154 2380.17,-154 2380.17,-154"/>
<polygon fill="black" stroke="black" points="2380.17,-150.5 2370.17,-154 2380.17,-157.5 2380.17,-150.5"/>
</g>
<!-- UserProfileEntityService -->
<g id="node27" class="node">
<title>UserProfileEntityService</title>
<ellipse fill="#fdb462" stroke="black" cx="2435" cy="-104" rx="108.22" ry="18"/>
<text text-anchor="middle" x="2435" y="-99.8" font-family="Times,serif" font-size="14.00">UserProfileEntityService</text>
</g>
<!-- UserProfileEntityService&#45;&gt;CoursesModule -->
<g id="edge26" class="edge">
<title>UserProfileEntityService&#45;&gt;CoursesModule</title>
<path fill="none" stroke="black" d="M2348.61,-115.03C2348.61,-115.03 2348.61,-140.78 2348.61,-140.78"/>
<polygon fill="black" stroke="black" points="2345.11,-140.78 2348.61,-150.78 2352.11,-140.78 2345.11,-140.78"/>
</g>
</g>
</svg>
