<?xml version="1.0" encoding="UTF-8" standalone="no"?>
<!DOCTYPE svg PUBLIC "-//W3C//DTD SVG 1.1//EN"
 "http://www.w3.org/Graphics/SVG/1.1/DTD/svg11.dtd">
<!-- Generated by graphviz version 2.46.0 (20210119.1425)
 -->
<!-- Title: dependencies Pages: 1 -->
<svg width="3479pt" height="284pt"
 viewBox="0.00 0.00 3479.00 284.00" xmlns="http://www.w3.org/2000/svg" xmlns:xlink="http://www.w3.org/1999/xlink">
<g id="graph0" class="graph" transform="scale(1 1) rotate(0) translate(4 280)">
<title>dependencies</title>
<polygon fill="white" stroke="transparent" points="-4,4 -4,-280 3475,-280 3475,4 -4,4"/>
<text text-anchor="start" x="1714.51" y="-42.4" font-family="sans-serif" font-weight="bold" font-size="14.00">Legend</text>
<polygon fill="#ffffb3" stroke="transparent" points="1501.5,-10 1501.5,-30 1521.5,-30 1521.5,-10 1501.5,-10"/>
<text text-anchor="start" x="1525.13" y="-15.4" font-family="sans-serif" font-size="14.00"> &#160;Declarations</text>
<polygon fill="#8dd3c7" stroke="transparent" points="1614.5,-10 1614.5,-30 1634.5,-30 1634.5,-10 1614.5,-10"/>
<text text-anchor="start" x="1638.23" y="-15.4" font-family="sans-serif" font-size="14.00"> &#160;Module</text>
<polygon fill="#80b1d3" stroke="transparent" points="1700.5,-10 1700.5,-30 1720.5,-30 1720.5,-10 1700.5,-10"/>
<text text-anchor="start" x="1724.28" y="-15.4" font-family="sans-serif" font-size="14.00"> &#160;Bootstrap</text>
<polygon fill="#fdb462" stroke="transparent" points="1797.5,-10 1797.5,-30 1817.5,-30 1817.5,-10 1797.5,-10"/>
<text text-anchor="start" x="1821.17" y="-15.4" font-family="sans-serif" font-size="14.00"> &#160;Providers</text>
<polygon fill="#fb8072" stroke="transparent" points="1893.5,-10 1893.5,-30 1913.5,-30 1913.5,-10 1893.5,-10"/>
<text text-anchor="start" x="1917.23" y="-15.4" font-family="sans-serif" font-size="14.00"> &#160;Exports</text>
<g id="clust1" class="cluster">
<title>cluster_CoursesModule</title>
<polygon fill="none" stroke="black" stroke-dasharray="1,5" points="8,-70 8,-268 3463,-268 3463,-70 8,-70"/>
</g>
<g id="clust16" class="cluster">
<title>cluster_CoursesModule_providers</title>
<polygon fill="none" stroke="black" points="2105,-78 2105,-130 3455,-130 3455,-78 2105,-78"/>
</g>
<g id="clust2" class="cluster">
<title>cluster_CoursesModule_declarations</title>
<polygon fill="none" stroke="black" points="314,-78 314,-130 2097,-130 2097,-78 314,-78"/>
</g>
<g id="clust13" class="cluster">
<title>cluster_CoursesModule_imports</title>
<polygon fill="none" stroke="black" points="16,-78 16,-130 306,-130 306,-78 16,-78"/>
</g>
<g id="clust14" class="cluster">
<title>cluster_CoursesModule_exports</title>
<polygon fill="none" stroke="black" points="1496,-208 1496,-260 1674,-260 1674,-208 1496,-208"/>
</g>
<!-- AnnouncementDialogComponent -->
<g id="node1" class="node">
<title>AnnouncementDialogComponent</title>
<polygon fill="#ffffb3" stroke="black" points="2089.47,-122 1884.53,-122 1884.53,-86 2089.47,-86 2089.47,-122"/>
<text text-anchor="middle" x="1987" y="-99.8" font-family="Times,serif" font-size="14.00">AnnouncementDialogComponent</text>
</g>
<!-- CoursesModule -->
<g id="node11" class="node">
<title>CoursesModule</title>
<polygon fill="#8dd3c7" stroke="black" points="1637.15,-187 1634.15,-191 1613.15,-191 1610.15,-187 1532.85,-187 1532.85,-151 1637.15,-151 1637.15,-187"/>
<text text-anchor="middle" x="1585" y="-164.8" font-family="Times,serif" font-size="14.00">CoursesModule</text>
</g>
<!-- AnnouncementDialogComponent&#45;&gt;CoursesModule -->
<g id="edge1" class="edge">
<title>AnnouncementDialogComponent&#45;&gt;CoursesModule</title>
<path fill="none" stroke="black" d="M1987,-122.01C1987,-138.05 1987,-159 1987,-159 1987,-159 1647.55,-159 1647.55,-159"/>
<polygon fill="black" stroke="black" points="1647.55,-155.5 1637.55,-159 1647.55,-162.5 1647.55,-155.5"/>
</g>
<!-- AnnouncementResultComponent -->
<g id="node2" class="node">
<title>AnnouncementResultComponent</title>
<polygon fill="#ffffb3" stroke="black" points="1866.14,-122 1663.86,-122 1663.86,-86 1866.14,-86 1866.14,-122"/>
<text text-anchor="middle" x="1765" y="-99.8" font-family="Times,serif" font-size="14.00">AnnouncementResultComponent</text>
</g>
<!-- AnnouncementResultComponent&#45;&gt;CoursesModule -->
<g id="edge2" class="edge">
<title>AnnouncementResultComponent&#45;&gt;CoursesModule</title>
<path fill="none" stroke="black" d="M1766.11,-122.12C1766.11,-136.78 1766.11,-155 1766.11,-155 1766.11,-155 1647.39,-155 1647.39,-155"/>
<polygon fill="black" stroke="black" points="1647.39,-151.5 1637.39,-155 1647.38,-158.5 1647.39,-151.5"/>
</g>
<!-- CourseComponent -->
<g id="node3" class="node">
<title>CourseComponent</title>
<polygon fill="#ffffb3" stroke="black" points="1645.49,-122 1524.51,-122 1524.51,-86 1645.49,-86 1645.49,-122"/>
<text text-anchor="middle" x="1585" y="-99.8" font-family="Times,serif" font-size="14.00">CourseComponent</text>
</g>
<!-- CourseComponent&#45;&gt;CoursesModule -->
<g id="edge3" class="edge">
<title>CourseComponent&#45;&gt;CoursesModule</title>
<path fill="none" stroke="black" d="M1585,-122.11C1585,-122.11 1585,-140.99 1585,-140.99"/>
<polygon fill="black" stroke="black" points="1581.5,-140.99 1585,-150.99 1588.5,-140.99 1581.5,-140.99"/>
</g>
<!-- CourseDialogComponent -->
<g id="node4" class="node">
<title>CourseDialogComponent</title>
<polygon fill="#ffffb3" stroke="black" points="1506.59,-122 1347.41,-122 1347.41,-86 1506.59,-86 1506.59,-122"/>
<text text-anchor="middle" x="1427" y="-99.8" font-family="Times,serif" font-size="14.00">CourseDialogComponent</text>
</g>
<!-- CourseDialogComponent&#45;&gt;CoursesModule -->
<g id="edge4" class="edge">
<title>CourseDialogComponent&#45;&gt;CoursesModule</title>
<path fill="none" stroke="black" d="M1425.78,-122.12C1425.78,-136.78 1425.78,-155 1425.78,-155 1425.78,-155 1522.42,-155 1522.42,-155"/>
<polygon fill="black" stroke="black" points="1522.42,-158.5 1532.42,-155 1522.42,-151.5 1522.42,-158.5"/>
</g>
<!-- CourseInfoComponent -->
<g id="node5" class="node">
<title>CourseInfoComponent</title>
<polygon fill="#ffffb3" stroke="black" points="1329.31,-122 1184.69,-122 1184.69,-86 1329.31,-86 1329.31,-122"/>
<text text-anchor="middle" x="1257" y="-99.8" font-family="Times,serif" font-size="14.00">CourseInfoComponent</text>
</g>
<!-- CourseInfoComponent&#45;&gt;CoursesModule -->
<g id="edge5" class="edge">
<title>CourseInfoComponent&#45;&gt;CoursesModule</title>
<path fill="none" stroke="black" d="M1257,-122.01C1257,-138.05 1257,-159 1257,-159 1257,-159 1522.66,-159 1522.66,-159"/>
<polygon fill="black" stroke="black" points="1522.66,-162.5 1532.66,-159 1522.66,-155.5 1522.66,-162.5"/>
</g>
<!-- CourseStudentsComponent -->
<g id="node6" class="node">
<title>CourseStudentsComponent</title>
<polygon fill="#ffffb3" stroke="black" points="1166.71,-122 997.29,-122 997.29,-86 1166.71,-86 1166.71,-122"/>
<text text-anchor="middle" x="1082" y="-99.8" font-family="Times,serif" font-size="14.00">CourseStudentsComponent</text>
</g>
<!-- CourseStudentsComponent&#45;&gt;CoursesModule -->
<g id="edge6" class="edge">
<title>CourseStudentsComponent&#45;&gt;CoursesModule</title>
<path fill="none" stroke="black" d="M1082,-122.03C1082,-139.06 1082,-162 1082,-162 1082,-162 1522.59,-162 1522.59,-162"/>
<polygon fill="black" stroke="black" points="1522.59,-165.5 1532.59,-162 1522.59,-158.5 1522.59,-165.5"/>
</g>
<!-- CourseTeachersComponent -->
<g id="node7" class="node">
<title>CourseTeachersComponent</title>
<polygon fill="#ffffb3" stroke="black" points="979.51,-122 808.49,-122 808.49,-86 979.51,-86 979.51,-122"/>
<text text-anchor="middle" x="894" y="-99.8" font-family="Times,serif" font-size="14.00">CourseTeachersComponent</text>
</g>
<!-- CourseTeachersComponent&#45;&gt;CoursesModule -->
<g id="edge7" class="edge">
<title>CourseTeachersComponent&#45;&gt;CoursesModule</title>
<path fill="none" stroke="black" d="M894,-122.27C894,-140.56 894,-166 894,-166 894,-166 1522.78,-166 1522.78,-166"/>
<polygon fill="black" stroke="black" points="1522.78,-169.5 1532.78,-166 1522.78,-162.5 1522.78,-169.5"/>
</g>
<!-- CoursesComponent -->
<g id="node8" class="node">
<title>CoursesComponent</title>
<polygon fill="#ffffb3" stroke="black" points="790.43,-122 663.57,-122 663.57,-86 790.43,-86 790.43,-122"/>
<text text-anchor="middle" x="727" y="-99.8" font-family="Times,serif" font-size="14.00">CoursesComponent</text>
</g>
<!-- CoursesComponent&#45;&gt;CoursesModule -->
<g id="edge8" class="edge">
<title>CoursesComponent&#45;&gt;CoursesModule</title>
<path fill="none" stroke="black" d="M727,-122.11C727,-141.34 727,-169 727,-169 727,-169 1522.62,-169 1522.62,-169"/>
<polygon fill="black" stroke="black" points="1522.62,-172.5 1532.62,-169 1522.62,-165.5 1522.62,-172.5"/>
</g>
<!-- CoursesListComponent -->
<g id="node9" class="node">
<title>CoursesListComponent</title>
<polygon fill="#ffffb3" stroke="black" points="646.21,-122 497.79,-122 497.79,-86 646.21,-86 646.21,-122"/>
<text text-anchor="middle" x="572" y="-99.8" font-family="Times,serif" font-size="14.00">CoursesListComponent</text>
</g>
<!-- CoursesListComponent&#45;&gt;CoursesModule -->
<g id="edge9" class="edge">
<title>CoursesListComponent&#45;&gt;CoursesModule</title>
<path fill="none" stroke="black" d="M572,-122.13C572,-142.57 572,-173 572,-173 572,-173 1522.67,-173 1522.67,-173"/>
<polygon fill="black" stroke="black" points="1522.67,-176.5 1532.67,-173 1522.67,-169.5 1522.67,-176.5"/>
</g>
<!-- CoursesTableComponent -->
<g id="node10" class="node">
<title>CoursesTableComponent</title>
<polygon fill="#ffffb3" stroke="black" points="480.31,-122 321.69,-122 321.69,-86 480.31,-86 480.31,-122"/>
<text text-anchor="middle" x="401" y="-99.8" font-family="Times,serif" font-size="14.00">CoursesTableComponent</text>
</g>
<!-- CoursesTableComponent&#45;&gt;CoursesModule -->
<g id="edge10" class="edge">
<title>CoursesTableComponent&#45;&gt;CoursesModule</title>
<path fill="none" stroke="black" d="M401,-122.04C401,-143.66 401,-177 401,-177 401,-177 1522.6,-177 1522.6,-177"/>
<polygon fill="black" stroke="black" points="1522.6,-180.5 1532.6,-177 1522.6,-173.5 1522.6,-180.5"/>
</g>
<!-- CoursesTableComponent  -->
<g id="node14" class="node">
<title>CoursesTableComponent </title>
<polygon fill="#fb8072" stroke="black" points="1665.81,-252 1504.19,-252 1504.19,-216 1665.81,-216 1665.81,-252"/>
<text text-anchor="middle" x="1585" y="-229.8" font-family="Times,serif" font-size="14.00">CoursesTableComponent </text>
</g>
<!-- CoursesModule&#45;&gt;CoursesTableComponent  -->
<g id="edge13" class="edge">
<title>CoursesModule&#45;&gt;CoursesTableComponent </title>
<path fill="none" stroke="black" stroke-dasharray="5,2" d="M1585,-187.11C1585,-187.11 1585,-205.99 1585,-205.99"/>
<polygon fill="black" stroke="black" points="1581.5,-205.99 1585,-215.99 1588.5,-205.99 1581.5,-205.99"/>
</g>
<!-- CoursesRoutingModule -->
<g id="node12" class="node">
<title>CoursesRoutingModule</title>
<polygon fill="#8dd3c7" stroke="black" points="297.77,-122 294.77,-126 273.77,-126 270.77,-122 148.23,-122 148.23,-86 297.77,-86 297.77,-122"/>
<text text-anchor="middle" x="223" y="-99.8" font-family="Times,serif" font-size="14.00">CoursesRoutingModule</text>
</g>
<!-- CoursesRoutingModule&#45;&gt;CoursesModule -->
<g id="edge11" class="edge">
<title>CoursesRoutingModule&#45;&gt;CoursesModule</title>
<path fill="none" stroke="black" d="M223,-122.01C223,-144.49 223,-180 223,-180 223,-180 1522.44,-180 1522.44,-180"/>
<polygon fill="black" stroke="black" points="1522.44,-183.5 1532.44,-180 1522.44,-176.5 1522.44,-183.5"/>
</g>
<!-- MaterialModule -->
<g id="node13" class="node">
<title>MaterialModule</title>
<polygon fill="#8dd3c7" stroke="black" points="130.47,-122 127.47,-126 106.47,-126 103.47,-122 23.53,-122 23.53,-86 130.47,-86 130.47,-122"/>
<text text-anchor="middle" x="77" y="-99.8" font-family="Times,serif" font-size="14.00">MaterialModule</text>
</g>
<!-- MaterialModule&#45;&gt;CoursesModule -->
<g id="edge12" class="edge">
<title>MaterialModule&#45;&gt;CoursesModule</title>
<path fill="none" stroke="black" d="M77,-122.15C77,-145.76 77,-184 77,-184 77,-184 1522.65,-184 1522.65,-184"/>
<polygon fill="black" stroke="black" points="1522.65,-187.5 1532.65,-184 1522.65,-180.5 1522.65,-187.5"/>
</g>
<!-- CourseDataService -->
<g id="node15" class="node">
<title>CourseDataService</title>
<ellipse fill="#fdb462" stroke="black" cx="3361" cy="-104" rx="85.65" ry="18"/>
<text text-anchor="middle" x="3361" y="-99.8" font-family="Times,serif" font-size="14.00">CourseDataService</text>
</g>
<!-- CourseDataService&#45;&gt;CoursesModule -->
<g id="edge14" class="edge">
<title>CourseDataService&#45;&gt;CoursesModule</title>
<path fill="none" stroke="black" d="M3361,-122.15C3361,-145.76 3361,-184 3361,-184 3361,-184 1647.19,-184 1647.19,-184"/>
<polygon fill="black" stroke="black" points="1647.19,-180.5 1637.19,-184 1647.19,-187.5 1647.19,-180.5"/>
</g>
<!-- CourseEntityService -->
<g id="node16" class="node">
<title>CourseEntityService</title>
<ellipse fill="#fdb462" stroke="black" cx="3166" cy="-104" rx="90.91" ry="18"/>
<text text-anchor="middle" x="3166" y="-99.8" font-family="Times,serif" font-size="14.00">CourseEntityService</text>
</g>
<!-- CourseEntityService&#45;&gt;CoursesModule -->
<g id="edge15" class="edge">
<title>CourseEntityService&#45;&gt;CoursesModule</title>
<path fill="none" stroke="black" d="M3166,-122.01C3166,-144.49 3166,-180 3166,-180 3166,-180 1647.15,-180 1647.15,-180"/>
<polygon fill="black" stroke="black" points="1647.15,-176.5 1637.15,-180 1647.15,-183.5 1647.15,-176.5"/>
</g>
<!-- CoursesService -->
<g id="node17" class="node">
<title>CoursesService</title>
<ellipse fill="#fdb462" stroke="black" cx="2986" cy="-104" rx="71.2" ry="18"/>
<text text-anchor="middle" x="2986" y="-99.8" font-family="Times,serif" font-size="14.00">CoursesService</text>
</g>
<!-- CoursesService&#45;&gt;CoursesModule -->
<g id="edge16" class="edge">
<title>CoursesService&#45;&gt;CoursesModule</title>
<path fill="none" stroke="black" d="M2986,-122.04C2986,-143.66 2986,-177 2986,-177 2986,-177 1647.36,-177 1647.36,-177"/>
<polygon fill="black" stroke="black" points="1647.36,-173.5 1637.36,-177 1647.36,-180.5 1647.36,-173.5"/>
</g>
<!-- StudentDataService -->
<g id="node18" class="node">
<title>StudentDataService</title>
<ellipse fill="#fdb462" stroke="black" cx="2809" cy="-104" rx="87.96" ry="18"/>
<text text-anchor="middle" x="2809" y="-99.8" font-family="Times,serif" font-size="14.00">StudentDataService</text>
</g>
<!-- StudentDataService&#45;&gt;CoursesModule -->
<g id="edge17" class="edge">
<title>StudentDataService&#45;&gt;CoursesModule</title>
<path fill="none" stroke="black" d="M2809,-122.13C2809,-142.57 2809,-173 2809,-173 2809,-173 1647.2,-173 1647.2,-173"/>
<polygon fill="black" stroke="black" points="1647.2,-169.5 1637.2,-173 1647.2,-176.5 1647.2,-169.5"/>
</g>
<!-- StudentEntityService -->
<g id="node19" class="node">
<title>StudentEntityService</title>
<ellipse fill="#fdb462" stroke="black" cx="2610" cy="-104" rx="93.21" ry="18"/>
<text text-anchor="middle" x="2610" y="-99.8" font-family="Times,serif" font-size="14.00">StudentEntityService</text>
</g>
<!-- StudentEntityService&#45;&gt;CoursesModule -->
<g id="edge18" class="edge">
<title>StudentEntityService&#45;&gt;CoursesModule</title>
<path fill="none" stroke="black" d="M2610,-122.11C2610,-141.34 2610,-169 2610,-169 2610,-169 1647.24,-169 1647.24,-169"/>
<polygon fill="black" stroke="black" points="1647.24,-165.5 1637.24,-169 1647.24,-172.5 1647.24,-165.5"/>
</g>
<!-- TeacherDataService -->
<g id="node20" class="node">
<title>TeacherDataService</title>
<ellipse fill="#fdb462" stroke="black" cx="2410" cy="-104" rx="89.12" ry="18"/>
<text text-anchor="middle" x="2410" y="-99.8" font-family="Times,serif" font-size="14.00">TeacherDataService</text>
</g>
<!-- TeacherDataService&#45;&gt;CoursesModule -->
<g id="edge19" class="edge">
<title>TeacherDataService&#45;&gt;CoursesModule</title>
<path fill="none" stroke="black" d="M2410,-122.27C2410,-140.56 2410,-166 2410,-166 2410,-166 1647.23,-166 1647.23,-166"/>
<polygon fill="black" stroke="black" points="1647.23,-162.5 1637.23,-166 1647.23,-169.5 1647.23,-162.5"/>
</g>
<!-- TeacherEntityService -->
<g id="node21" class="node">
<title>TeacherEntityService</title>
<ellipse fill="#fdb462" stroke="black" cx="2208" cy="-104" rx="94.88" ry="18"/>
<text text-anchor="middle" x="2208" y="-99.8" font-family="Times,serif" font-size="14.00">TeacherEntityService</text>
</g>
<!-- TeacherEntityService&#45;&gt;CoursesModule -->
<g id="edge20" class="edge">
<title>TeacherEntityService&#45;&gt;CoursesModule</title>
<path fill="none" stroke="black" d="M2208,-122.03C2208,-139.06 2208,-162 2208,-162 2208,-162 1647.31,-162 1647.31,-162"/>
<polygon fill="black" stroke="black" points="1647.31,-158.5 1637.31,-162 1647.31,-165.5 1647.31,-158.5"/>
</g>
</g>
</svg>
