<?xml version="1.0" encoding="UTF-8" standalone="no"?>
<!DOCTYPE svg PUBLIC "-//W3C//DTD SVG 1.1//EN"
 "http://www.w3.org/Graphics/SVG/1.1/DTD/svg11.dtd">
<!-- Generated by graphviz version 2.46.0 (20210119.1425)
 -->
<!-- Title: dependencies Pages: 1 -->
<svg width="3490pt" height="284pt"
 viewBox="0.00 0.00 3490.00 284.00" xmlns="http://www.w3.org/2000/svg" xmlns:xlink="http://www.w3.org/1999/xlink">
<g id="graph0" class="graph" transform="scale(1 1) rotate(0) translate(4 280)">
<title>dependencies</title>
<polygon fill="white" stroke="transparent" points="-4,4 -4,-280 3486,-280 3486,4 -4,4"/>
<text text-anchor="start" x="1720.01" y="-42.4" font-family="sans-serif" font-weight="bold" font-size="14.00">Legend</text>
<polygon fill="#ffffb3" stroke="transparent" points="1507,-10 1507,-30 1527,-30 1527,-10 1507,-10"/>
<text text-anchor="start" x="1530.63" y="-15.4" font-family="sans-serif" font-size="14.00"> &#160;Declarations</text>
<polygon fill="#8dd3c7" stroke="transparent" points="1620,-10 1620,-30 1640,-30 1640,-10 1620,-10"/>
<text text-anchor="start" x="1643.73" y="-15.4" font-family="sans-serif" font-size="14.00"> &#160;Module</text>
<polygon fill="#80b1d3" stroke="transparent" points="1706,-10 1706,-30 1726,-30 1726,-10 1706,-10"/>
<text text-anchor="start" x="1729.78" y="-15.4" font-family="sans-serif" font-size="14.00"> &#160;Bootstrap</text>
<polygon fill="#fdb462" stroke="transparent" points="1803,-10 1803,-30 1823,-30 1823,-10 1803,-10"/>
<text text-anchor="start" x="1826.67" y="-15.4" font-family="sans-serif" font-size="14.00"> &#160;Providers</text>
<polygon fill="#fb8072" stroke="transparent" points="1899,-10 1899,-30 1919,-30 1919,-10 1899,-10"/>
<text text-anchor="start" x="1922.73" y="-15.4" font-family="sans-serif" font-size="14.00"> &#160;Exports</text>
<g id="clust1" class="cluster">
<title>cluster_CoursesModule</title>
<polygon fill="none" stroke="black" stroke-dasharray="1,5" points="8,-70 8,-268 3474,-268 3474,-70 8,-70"/>
</g>
<g id="clust11" class="cluster">
<title>cluster_CoursesModule_providers</title>
<polygon fill="none" stroke="black" points="1843,-78 1843,-130 3466,-130 3466,-78 1843,-78"/>
</g>
<g id="clust9" class="cluster">
<title>cluster_CoursesModule_exports</title>
<polygon fill="none" stroke="black" points="1425,-208 1425,-260 1593,-260 1593,-208 1425,-208"/>
</g>
<g id="clust8" class="cluster">
<title>cluster_CoursesModule_imports</title>
<polygon fill="none" stroke="black" points="851,-78 851,-130 1835,-130 1835,-78 851,-78"/>
</g>
<g id="clust2" class="cluster">
<title>cluster_CoursesModule_declarations</title>
<polygon fill="none" stroke="black" points="16,-78 16,-130 843,-130 843,-78 16,-78"/>
</g>
<!-- CourseComponent -->
<g id="node1" class="node">
<title>CourseComponent</title>
<polygon fill="#ffffb3" stroke="black" points="835.49,-122 714.51,-122 714.51,-86 835.49,-86 835.49,-122"/>
<text text-anchor="middle" x="775" y="-99.8" font-family="Times,serif" font-size="14.00">CourseComponent</text>
</g>
<!-- CoursesModule -->
<g id="node6" class="node">
<title>CoursesModule</title>
<polygon fill="#8dd3c7" stroke="black" points="1561.15,-187 1558.15,-191 1537.15,-191 1534.15,-187 1456.85,-187 1456.85,-151 1561.15,-151 1561.15,-187"/>
<text text-anchor="middle" x="1509" y="-164.8" font-family="Times,serif" font-size="14.00">CoursesModule</text>
</g>
<!-- CourseComponent&#45;&gt;CoursesModule -->
<g id="edge1" class="edge">
<title>CourseComponent&#45;&gt;CoursesModule</title>
<path fill="none" stroke="black" d="M775,-122.11C775,-141.34 775,-169 775,-169 775,-169 1446.8,-169 1446.8,-169"/>
<polygon fill="black" stroke="black" points="1446.8,-172.5 1456.8,-169 1446.8,-165.5 1446.8,-172.5"/>
</g>
<!-- CourseDialogComponent -->
<g id="node2" class="node">
<title>CourseDialogComponent</title>
<polygon fill="#ffffb3" stroke="black" points="696.59,-122 537.41,-122 537.41,-86 696.59,-86 696.59,-122"/>
<text text-anchor="middle" x="617" y="-99.8" font-family="Times,serif" font-size="14.00">CourseDialogComponent</text>
</g>
<!-- CourseDialogComponent&#45;&gt;CoursesModule -->
<g id="edge2" class="edge">
<title>CourseDialogComponent&#45;&gt;CoursesModule</title>
<path fill="none" stroke="black" d="M617,-122.13C617,-142.57 617,-173 617,-173 617,-173 1446.53,-173 1446.53,-173"/>
<polygon fill="black" stroke="black" points="1446.53,-176.5 1456.53,-173 1446.53,-169.5 1446.53,-176.5"/>
</g>
<!-- CourseUserDialogComponent -->
<g id="node3" class="node">
<title>CourseUserDialogComponent</title>
<polygon fill="#ffffb3" stroke="black" points="519.52,-122 334.48,-122 334.48,-86 519.52,-86 519.52,-122"/>
<text text-anchor="middle" x="427" y="-99.8" font-family="Times,serif" font-size="14.00">CourseUserDialogComponent</text>
</g>
<!-- CourseUserDialogComponent&#45;&gt;CoursesModule -->
<g id="edge3" class="edge">
<title>CourseUserDialogComponent&#45;&gt;CoursesModule</title>
<path fill="none" stroke="black" d="M427,-122.04C427,-143.66 427,-177 427,-177 427,-177 1446.81,-177 1446.81,-177"/>
<polygon fill="black" stroke="black" points="1446.81,-180.5 1456.81,-177 1446.81,-173.5 1446.81,-180.5"/>
</g>
<!-- CoursesComponent -->
<g id="node4" class="node">
<title>CoursesComponent</title>
<polygon fill="#ffffb3" stroke="black" points="316.43,-122 189.57,-122 189.57,-86 316.43,-86 316.43,-122"/>
<text text-anchor="middle" x="253" y="-99.8" font-family="Times,serif" font-size="14.00">CoursesComponent</text>
</g>
<!-- CoursesComponent&#45;&gt;CoursesModule -->
<g id="edge4" class="edge">
<title>CoursesComponent&#45;&gt;CoursesModule</title>
<path fill="none" stroke="black" d="M253,-122.01C253,-144.49 253,-180 253,-180 253,-180 1446.63,-180 1446.63,-180"/>
<polygon fill="black" stroke="black" points="1446.63,-183.5 1456.63,-180 1446.63,-176.5 1446.63,-183.5"/>
</g>
<!-- CoursesListComponent -->
<g id="node5" class="node">
<title>CoursesListComponent</title>
<polygon fill="#ffffb3" stroke="black" points="172.21,-122 23.79,-122 23.79,-86 172.21,-86 172.21,-122"/>
<text text-anchor="middle" x="98" y="-99.8" font-family="Times,serif" font-size="14.00">CoursesListComponent</text>
</g>
<!-- CoursesListComponent&#45;&gt;CoursesModule -->
<g id="edge5" class="edge">
<title>CoursesListComponent&#45;&gt;CoursesModule</title>
<path fill="none" stroke="black" d="M98,-122.15C98,-145.76 98,-184 98,-184 98,-184 1446.69,-184 1446.69,-184"/>
<polygon fill="black" stroke="black" points="1446.69,-187.5 1456.69,-184 1446.69,-180.5 1446.69,-187.5"/>
</g>
<!-- CoursesListComponent  -->
<g id="node14" class="node">
<title>CoursesListComponent </title>
<polygon fill="#fb8072" stroke="black" points="1584.71,-252 1433.29,-252 1433.29,-216 1584.71,-216 1584.71,-252"/>
<text text-anchor="middle" x="1509" y="-229.8" font-family="Times,serif" font-size="14.00">CoursesListComponent </text>
</g>
<!-- CoursesModule&#45;&gt;CoursesListComponent  -->
<g id="edge13" class="edge">
<title>CoursesModule&#45;&gt;CoursesListComponent </title>
<path fill="none" stroke="black" stroke-dasharray="5,2" d="M1509,-187.11C1509,-187.11 1509,-205.99 1509,-205.99"/>
<polygon fill="black" stroke="black" points="1505.5,-205.99 1509,-215.99 1512.5,-205.99 1505.5,-205.99"/>
</g>
<!-- AnnouncementsModule -->
<g id="node7" class="node">
<title>AnnouncementsModule</title>
<polygon fill="#8dd3c7" stroke="black" points="1827.03,-122 1824.03,-126 1803.03,-126 1800.03,-122 1676.97,-122 1676.97,-86 1827.03,-86 1827.03,-122"/>
<text text-anchor="middle" x="1752" y="-99.8" font-family="Times,serif" font-size="14.00">AnnouncementsModule</text>
</g>
<!-- AnnouncementsModule&#45;&gt;CoursesModule -->
<g id="edge6" class="edge">
<title>AnnouncementsModule&#45;&gt;CoursesModule</title>
<path fill="none" stroke="black" d="M1752,-122.12C1752,-136.78 1752,-155 1752,-155 1752,-155 1571.43,-155 1571.43,-155"/>
<polygon fill="black" stroke="black" points="1571.43,-151.5 1561.43,-155 1571.43,-158.5 1571.43,-151.5"/>
</g>
<!-- CourseWorksModule -->
<g id="node8" class="node">
<title>CourseWorksModule</title>
<polygon fill="#8dd3c7" stroke="black" points="1658.03,-122 1655.03,-126 1634.03,-126 1631.03,-122 1521.97,-122 1521.97,-86 1658.03,-86 1658.03,-122"/>
<text text-anchor="middle" x="1590" y="-99.8" font-family="Times,serif" font-size="14.00">CourseWorksModule</text>
</g>
<!-- CourseWorksModule&#45;&gt;CoursesModule -->
<g id="edge7" class="edge">
<title>CourseWorksModule&#45;&gt;CoursesModule</title>
<path fill="none" stroke="black" d="M1541.53,-122.11C1541.53,-122.11 1541.53,-140.99 1541.53,-140.99"/>
<polygon fill="black" stroke="black" points="1538.03,-140.99 1541.53,-150.99 1545.03,-140.99 1538.03,-140.99"/>
</g>
<!-- CoursesRoutingModule -->
<g id="node9" class="node">
<title>CoursesRoutingModule</title>
<polygon fill="#8dd3c7" stroke="black" points="1503.77,-122 1500.77,-126 1479.77,-126 1476.77,-122 1354.23,-122 1354.23,-86 1503.77,-86 1503.77,-122"/>
<text text-anchor="middle" x="1429" y="-99.8" font-family="Times,serif" font-size="14.00">CoursesRoutingModule</text>
</g>
<!-- CoursesRoutingModule&#45;&gt;CoursesModule -->
<g id="edge8" class="edge">
<title>CoursesRoutingModule&#45;&gt;CoursesModule</title>
<path fill="none" stroke="black" d="M1480.28,-122.11C1480.28,-122.11 1480.28,-140.99 1480.28,-140.99"/>
<polygon fill="black" stroke="black" points="1476.78,-140.99 1480.28,-150.99 1483.78,-140.99 1476.78,-140.99"/>
</g>
<!-- MaterialModule -->
<g id="node10" class="node">
<title>MaterialModule</title>
<polygon fill="#8dd3c7" stroke="black" points="1336.47,-122 1333.47,-126 1312.47,-126 1309.47,-122 1229.53,-122 1229.53,-86 1336.47,-86 1336.47,-122"/>
<text text-anchor="middle" x="1283" y="-99.8" font-family="Times,serif" font-size="14.00">MaterialModule</text>
</g>
<!-- MaterialModule&#45;&gt;CoursesModule -->
<g id="edge9" class="edge">
<title>MaterialModule&#45;&gt;CoursesModule</title>
<path fill="none" stroke="black" d="M1283,-122.12C1283,-136.78 1283,-155 1283,-155 1283,-155 1446.58,-155 1446.58,-155"/>
<polygon fill="black" stroke="black" points="1446.58,-158.5 1456.58,-155 1446.58,-151.5 1446.58,-158.5"/>
</g>
<!-- SharedModule -->
<g id="node11" class="node">
<title>SharedModule</title>
<polygon fill="#8dd3c7" stroke="black" points="1211.42,-122 1208.42,-126 1187.42,-126 1184.42,-122 1112.58,-122 1112.58,-86 1211.42,-86 1211.42,-122"/>
<text text-anchor="middle" x="1162" y="-99.8" font-family="Times,serif" font-size="14.00">SharedModule</text>
</g>
<!-- SharedModule&#45;&gt;CoursesModule -->
<g id="edge10" class="edge">
<title>SharedModule&#45;&gt;CoursesModule</title>
<path fill="none" stroke="black" d="M1162,-122.01C1162,-138.05 1162,-159 1162,-159 1162,-159 1446.67,-159 1446.67,-159"/>
<polygon fill="black" stroke="black" points="1446.67,-162.5 1456.67,-159 1446.67,-155.5 1446.67,-162.5"/>
</g>
<!-- StudentsModule -->
<g id="node12" class="node">
<title>StudentsModule</title>
<polygon fill="#8dd3c7" stroke="black" points="1094.77,-122 1091.77,-126 1070.77,-126 1067.77,-122 987.23,-122 987.23,-86 1094.77,-86 1094.77,-122"/>
<text text-anchor="middle" x="1041" y="-99.8" font-family="Times,serif" font-size="14.00">StudentsModule</text>
</g>
<!-- StudentsModule&#45;&gt;CoursesModule -->
<g id="edge11" class="edge">
<title>StudentsModule&#45;&gt;CoursesModule</title>
<path fill="none" stroke="black" d="M1041,-122.03C1041,-139.06 1041,-162 1041,-162 1041,-162 1446.68,-162 1446.68,-162"/>
<polygon fill="black" stroke="black" points="1446.68,-165.5 1456.68,-162 1446.68,-158.5 1446.68,-165.5"/>
</g>
<!-- TeachersModule -->
<g id="node13" class="node">
<title>TeachersModule</title>
<polygon fill="#8dd3c7" stroke="black" points="969.07,-122 966.07,-126 945.07,-126 942.07,-122 858.93,-122 858.93,-86 969.07,-86 969.07,-122"/>
<text text-anchor="middle" x="914" y="-99.8" font-family="Times,serif" font-size="14.00">TeachersModule</text>
</g>
<!-- TeachersModule&#45;&gt;CoursesModule -->
<g id="edge12" class="edge">
<title>TeachersModule&#45;&gt;CoursesModule</title>
<path fill="none" stroke="black" d="M914,-122.27C914,-140.56 914,-166 914,-166 914,-166 1446.72,-166 1446.72,-166"/>
<polygon fill="black" stroke="black" points="1446.72,-169.5 1456.72,-166 1446.72,-162.5 1446.72,-169.5"/>
</g>
<!-- CourseDataService -->
<g id="node15" class="node">
<title>CourseDataService</title>
<ellipse fill="#fdb462" stroke="black" cx="3372" cy="-104" rx="85.65" ry="18"/>
<text text-anchor="middle" x="3372" y="-99.8" font-family="Times,serif" font-size="14.00">CourseDataService</text>
</g>
<!-- CourseDataService&#45;&gt;CoursesModule -->
<g id="edge14" class="edge">
<title>CourseDataService&#45;&gt;CoursesModule</title>
<path fill="none" stroke="black" d="M3372,-122.15C3372,-145.76 3372,-184 3372,-184 3372,-184 1571.26,-184 1571.26,-184"/>
<polygon fill="black" stroke="black" points="1571.26,-180.5 1561.26,-184 1571.26,-187.5 1571.26,-180.5"/>
</g>
<!-- CourseEntityService -->
<g id="node16" class="node">
<title>CourseEntityService</title>
<ellipse fill="#fdb462" stroke="black" cx="3177" cy="-104" rx="90.91" ry="18"/>
<text text-anchor="middle" x="3177" y="-99.8" font-family="Times,serif" font-size="14.00">CourseEntityService</text>
</g>
<!-- CourseEntityService&#45;&gt;CoursesModule -->
<g id="edge15" class="edge">
<title>CourseEntityService&#45;&gt;CoursesModule</title>
<path fill="none" stroke="black" d="M3177,-122.01C3177,-144.49 3177,-180 3177,-180 3177,-180 1571.21,-180 1571.21,-180"/>
<polygon fill="black" stroke="black" points="1571.21,-176.5 1561.21,-180 1571.21,-183.5 1571.21,-176.5"/>
</g>
<!-- CoursesService -->
<g id="node17" class="node">
<title>CoursesService</title>
<ellipse fill="#fdb462" stroke="black" cx="2997" cy="-104" rx="71.2" ry="18"/>
<text text-anchor="middle" x="2997" y="-99.8" font-family="Times,serif" font-size="14.00">CoursesService</text>
</g>
<!-- CoursesService&#45;&gt;CoursesModule -->
<g id="edge16" class="edge">
<title>CoursesService&#45;&gt;CoursesModule</title>
<path fill="none" stroke="black" d="M2997,-122.04C2997,-143.66 2997,-177 2997,-177 2997,-177 1571.52,-177 1571.52,-177"/>
<polygon fill="black" stroke="black" points="1571.52,-173.5 1561.52,-177 1571.52,-180.5 1571.52,-173.5"/>
</g>
<!-- GuardianDataService -->
<g id="node18" class="node">
<title>GuardianDataService</title>
<ellipse fill="#fdb462" stroke="black" cx="2814" cy="-104" rx="94.3" ry="18"/>
<text text-anchor="middle" x="2814" y="-99.8" font-family="Times,serif" font-size="14.00">GuardianDataService</text>
</g>
<!-- GuardianDataService&#45;&gt;CoursesModule -->
<g id="edge17" class="edge">
<title>GuardianDataService&#45;&gt;CoursesModule</title>
<path fill="none" stroke="black" d="M2814,-122.13C2814,-142.57 2814,-173 2814,-173 2814,-173 1571.37,-173 1571.37,-173"/>
<polygon fill="black" stroke="black" points="1571.37,-169.5 1561.37,-173 1571.37,-176.5 1571.37,-169.5"/>
</g>
<!-- GuardianEntityService -->
<g id="node19" class="node">
<title>GuardianEntityService</title>
<ellipse fill="#fdb462" stroke="black" cx="2602" cy="-104" rx="99.56" ry="18"/>
<text text-anchor="middle" x="2602" y="-99.8" font-family="Times,serif" font-size="14.00">GuardianEntityService</text>
</g>
<!-- GuardianEntityService&#45;&gt;CoursesModule -->
<g id="edge18" class="edge">
<title>GuardianEntityService&#45;&gt;CoursesModule</title>
<path fill="none" stroke="black" d="M2602,-122.11C2602,-141.34 2602,-169 2602,-169 2602,-169 1571.35,-169 1571.35,-169"/>
<polygon fill="black" stroke="black" points="1571.35,-165.5 1561.35,-169 1571.35,-172.5 1571.35,-165.5"/>
</g>
<!-- UserProfileDataService -->
<g id="node20" class="node">
<title>UserProfileDataService</title>
<ellipse fill="#fdb462" stroke="black" cx="2382" cy="-104" rx="102.96" ry="18"/>
<text text-anchor="middle" x="2382" y="-99.8" font-family="Times,serif" font-size="14.00">UserProfileDataService</text>
</g>
<!-- UserProfileDataService&#45;&gt;CoursesModule -->
<g id="edge19" class="edge">
<title>UserProfileDataService&#45;&gt;CoursesModule</title>
<path fill="none" stroke="black" d="M2382,-122.27C2382,-140.56 2382,-166 2382,-166 2382,-166 1571.32,-166 1571.32,-166"/>
<polygon fill="black" stroke="black" points="1571.32,-162.5 1561.32,-166 1571.32,-169.5 1571.32,-162.5"/>
</g>
<!-- UserProfileEntityService -->
<g id="node21" class="node">
<title>UserProfileEntityService</title>
<ellipse fill="#fdb462" stroke="black" cx="2153" cy="-104" rx="108.22" ry="18"/>
<text text-anchor="middle" x="2153" y="-99.8" font-family="Times,serif" font-size="14.00">UserProfileEntityService</text>
</g>
<!-- UserProfileEntityService&#45;&gt;CoursesModule -->
<g id="edge20" class="edge">
<title>UserProfileEntityService&#45;&gt;CoursesModule</title>
<path fill="none" stroke="black" d="M2153,-122.03C2153,-139.06 2153,-162 2153,-162 2153,-162 1571.16,-162 1571.16,-162"/>
<polygon fill="black" stroke="black" points="1571.16,-158.5 1561.16,-162 1571.16,-165.5 1571.16,-158.5"/>
</g>
<!-- UserProfilesService -->
<g id="node22" class="node">
<title>UserProfilesService</title>
<ellipse fill="#fdb462" stroke="black" cx="1939" cy="-104" rx="88.01" ry="18"/>
<text text-anchor="middle" x="1939" y="-99.8" font-family="Times,serif" font-size="14.00">UserProfilesService</text>
</g>
<!-- UserProfilesService&#45;&gt;CoursesModule -->
<g id="edge21" class="edge">
<title>UserProfilesService&#45;&gt;CoursesModule</title>
<path fill="none" stroke="black" d="M1939,-122.01C1939,-138.05 1939,-159 1939,-159 1939,-159 1571.3,-159 1571.3,-159"/>
<polygon fill="black" stroke="black" points="1571.3,-155.5 1561.3,-159 1571.3,-162.5 1571.3,-155.5"/>
</g>
</g>
</svg>
