<?xml version="1.0" encoding="UTF-8" standalone="no"?>
<!DOCTYPE svg PUBLIC "-//W3C//DTD SVG 1.1//EN"
 "http://www.w3.org/Graphics/SVG/1.1/DTD/svg11.dtd">
<!-- Generated by graphviz version 2.44.1 (20200629.0846)
 -->
<!-- Title: dependencies Pages: 1 -->
<svg width="2562pt" height="211pt"
 viewBox="0.00 0.00 2562.00 211.00" xmlns="http://www.w3.org/2000/svg" xmlns:xlink="http://www.w3.org/1999/xlink">
<g id="graph0" class="graph" transform="scale(1 1) rotate(0) translate(4 207)">
<title>dependencies</title>
<polygon fill="white" stroke="transparent" points="-4,4 -4,-207 2558,-207 2558,4 -4,4"/>
<text text-anchor="start" x="1256.01" y="-42.4" font-family="sans-serif" font-weight="bold" font-size="14.00">Legend</text>
<polygon fill="#ffffb3" stroke="transparent" points="1043,-10 1043,-30 1063,-30 1063,-10 1043,-10"/>
<text text-anchor="start" x="1066.63" y="-15.4" font-family="sans-serif" font-size="14.00"> &#160;Declarations</text>
<polygon fill="#8dd3c7" stroke="transparent" points="1156,-10 1156,-30 1176,-30 1176,-10 1156,-10"/>
<text text-anchor="start" x="1179.73" y="-15.4" font-family="sans-serif" font-size="14.00"> &#160;Module</text>
<polygon fill="#80b1d3" stroke="transparent" points="1242,-10 1242,-30 1262,-30 1262,-10 1242,-10"/>
<text text-anchor="start" x="1265.78" y="-15.4" font-family="sans-serif" font-size="14.00"> &#160;Bootstrap</text>
<polygon fill="#fdb462" stroke="transparent" points="1339,-10 1339,-30 1359,-30 1359,-10 1339,-10"/>
<text text-anchor="start" x="1362.67" y="-15.4" font-family="sans-serif" font-size="14.00"> &#160;Providers</text>
<polygon fill="#fb8072" stroke="transparent" points="1435,-10 1435,-30 1455,-30 1455,-10 1435,-10"/>
<text text-anchor="start" x="1458.73" y="-15.4" font-family="sans-serif" font-size="14.00"> &#160;Exports</text>
<g id="clust1" class="cluster">
<title>cluster_CoursesModule</title>
<polygon fill="none" stroke="black" stroke-dasharray="1,5" points="8,-70 8,-195 2546,-195 2546,-70 8,-70"/>
</g>
<g id="clust14" class="cluster">
<title>cluster_CoursesModule_providers</title>
<polygon fill="none" stroke="black" points="1776,-78 1776,-130 2538,-130 2538,-78 1776,-78"/>
</g>
<g id="clust11" class="cluster">
<title>cluster_CoursesModule_imports</title>
<polygon fill="none" stroke="black" points="1478,-78 1478,-130 1768,-130 1768,-78 1478,-78"/>
</g>
<g id="clust2" class="cluster">
<title>cluster_CoursesModule_declarations</title>
<polygon fill="none" stroke="black" points="16,-78 16,-130 1470,-130 1470,-78 16,-78"/>
</g>
<!-- AnnouncementDialogComponent -->
<g id="node1" class="node">
<title>AnnouncementDialogComponent</title>
<polygon fill="#ffffb3" stroke="black" points="1462.47,-122 1257.53,-122 1257.53,-86 1462.47,-86 1462.47,-122"/>
<text text-anchor="middle" x="1360" y="-99.8" font-family="Times,serif" font-size="14.00">AnnouncementDialogComponent</text>
</g>
<!-- CoursesModule -->
<g id="node9" class="node">
<title>CoursesModule</title>
<polygon fill="#8dd3c7" stroke="black" points="1301.15,-187 1298.15,-191 1277.15,-191 1274.15,-187 1196.85,-187 1196.85,-151 1301.15,-151 1301.15,-187"/>
<text text-anchor="middle" x="1249" y="-164.8" font-family="Times,serif" font-size="14.00">CoursesModule</text>
</g>
<!-- AnnouncementDialogComponent&#45;&gt;CoursesModule -->
<g id="edge1" class="edge">
<title>AnnouncementDialogComponent&#45;&gt;CoursesModule</title>
<path fill="none" stroke="black" d="M1279.42,-122.11C1279.42,-122.11 1279.42,-140.99 1279.42,-140.99"/>
<polygon fill="black" stroke="black" points="1275.92,-140.99 1279.42,-150.99 1282.92,-140.99 1275.92,-140.99"/>
</g>
<!-- AnnouncementResultComponent -->
<g id="node2" class="node">
<title>AnnouncementResultComponent</title>
<polygon fill="#ffffb3" stroke="black" points="1239.14,-122 1036.86,-122 1036.86,-86 1239.14,-86 1239.14,-122"/>
<text text-anchor="middle" x="1138" y="-99.8" font-family="Times,serif" font-size="14.00">AnnouncementResultComponent</text>
</g>
<!-- AnnouncementResultComponent&#45;&gt;CoursesModule -->
<g id="edge2" class="edge">
<title>AnnouncementResultComponent&#45;&gt;CoursesModule</title>
<path fill="none" stroke="black" d="M1218,-122.11C1218,-122.11 1218,-140.99 1218,-140.99"/>
<polygon fill="black" stroke="black" points="1214.5,-140.99 1218,-150.99 1221.5,-140.99 1214.5,-140.99"/>
</g>
<!-- CourseComponent -->
<g id="node3" class="node">
<title>CourseComponent</title>
<polygon fill="#ffffb3" stroke="black" points="1018.49,-122 897.51,-122 897.51,-86 1018.49,-86 1018.49,-122"/>
<text text-anchor="middle" x="958" y="-99.8" font-family="Times,serif" font-size="14.00">CourseComponent</text>
</g>
<!-- CourseComponent&#45;&gt;CoursesModule -->
<g id="edge3" class="edge">
<title>CourseComponent&#45;&gt;CoursesModule</title>
<path fill="none" stroke="black" d="M958,-122.24C958,-137.57 958,-157 958,-157 958,-157 1186.64,-157 1186.64,-157"/>
<polygon fill="black" stroke="black" points="1186.64,-160.5 1196.64,-157 1186.64,-153.5 1186.64,-160.5"/>
</g>
<!-- CourseDialogComponent -->
<g id="node4" class="node">
<title>CourseDialogComponent</title>
<polygon fill="#ffffb3" stroke="black" points="879.59,-122 720.41,-122 720.41,-86 879.59,-86 879.59,-122"/>
<text text-anchor="middle" x="800" y="-99.8" font-family="Times,serif" font-size="14.00">CourseDialogComponent</text>
</g>
<!-- CourseDialogComponent&#45;&gt;CoursesModule -->
<g id="edge4" class="edge">
<title>CourseDialogComponent&#45;&gt;CoursesModule</title>
<path fill="none" stroke="black" d="M800,-122.03C800,-139.06 800,-162 800,-162 800,-162 1186.62,-162 1186.62,-162"/>
<polygon fill="black" stroke="black" points="1186.62,-165.5 1196.62,-162 1186.62,-158.5 1186.62,-165.5"/>
</g>
<!-- CourseStudentsComponent -->
<g id="node5" class="node">
<title>CourseStudentsComponent</title>
<polygon fill="#ffffb3" stroke="black" points="702.71,-122 533.29,-122 533.29,-86 702.71,-86 702.71,-122"/>
<text text-anchor="middle" x="618" y="-99.8" font-family="Times,serif" font-size="14.00">CourseStudentsComponent</text>
</g>
<!-- CourseStudentsComponent&#45;&gt;CoursesModule -->
<g id="edge5" class="edge">
<title>CourseStudentsComponent&#45;&gt;CoursesModule</title>
<path fill="none" stroke="black" d="M618,-122.22C618,-140.83 618,-167 618,-167 618,-167 1186.83,-167 1186.83,-167"/>
<polygon fill="black" stroke="black" points="1186.83,-170.5 1196.83,-167 1186.83,-163.5 1186.83,-170.5"/>
</g>
<!-- CourseTeachersComponent -->
<g id="node6" class="node">
<title>CourseTeachersComponent</title>
<polygon fill="#ffffb3" stroke="black" points="515.51,-122 344.49,-122 344.49,-86 515.51,-86 515.51,-122"/>
<text text-anchor="middle" x="430" y="-99.8" font-family="Times,serif" font-size="14.00">CourseTeachersComponent</text>
</g>
<!-- CourseTeachersComponent&#45;&gt;CoursesModule -->
<g id="edge6" class="edge">
<title>CourseTeachersComponent&#45;&gt;CoursesModule</title>
<path fill="none" stroke="black" d="M430,-122.22C430,-142.37 430,-172 430,-172 430,-172 1186.83,-172 1186.83,-172"/>
<polygon fill="black" stroke="black" points="1186.83,-175.5 1196.83,-172 1186.83,-168.5 1186.83,-175.5"/>
</g>
<!-- CoursesComponent -->
<g id="node7" class="node">
<title>CoursesComponent</title>
<polygon fill="#ffffb3" stroke="black" points="326.43,-122 199.57,-122 199.57,-86 326.43,-86 326.43,-122"/>
<text text-anchor="middle" x="263" y="-99.8" font-family="Times,serif" font-size="14.00">CoursesComponent</text>
</g>
<!-- CoursesComponent&#45;&gt;CoursesModule -->
<g id="edge7" class="edge">
<title>CoursesComponent&#45;&gt;CoursesModule</title>
<path fill="none" stroke="black" d="M263,-122.04C263,-143.66 263,-177 263,-177 263,-177 1186.68,-177 1186.68,-177"/>
<polygon fill="black" stroke="black" points="1186.68,-180.5 1196.68,-177 1186.68,-173.5 1186.68,-180.5"/>
</g>
<!-- CoursesTableComponent -->
<g id="node8" class="node">
<title>CoursesTableComponent</title>
<polygon fill="#ffffb3" stroke="black" points="182.31,-122 23.69,-122 23.69,-86 182.31,-86 182.31,-122"/>
<text text-anchor="middle" x="103" y="-99.8" font-family="Times,serif" font-size="14.00">CoursesTableComponent</text>
</g>
<!-- CoursesTableComponent&#45;&gt;CoursesModule -->
<g id="edge8" class="edge">
<title>CoursesTableComponent&#45;&gt;CoursesModule</title>
<path fill="none" stroke="black" d="M103,-122.09C103,-145.13 103,-182 103,-182 103,-182 1186.78,-182 1186.78,-182"/>
<polygon fill="black" stroke="black" points="1186.78,-185.5 1196.78,-182 1186.78,-178.5 1186.78,-185.5"/>
</g>
<!-- CoursesRoutingModule -->
<g id="node10" class="node">
<title>CoursesRoutingModule</title>
<polygon fill="#8dd3c7" stroke="black" points="1759.77,-122 1756.77,-126 1735.77,-126 1732.77,-122 1610.23,-122 1610.23,-86 1759.77,-86 1759.77,-122"/>
<text text-anchor="middle" x="1685" y="-99.8" font-family="Times,serif" font-size="14.00">CoursesRoutingModule</text>
</g>
<!-- CoursesRoutingModule&#45;&gt;CoursesModule -->
<g id="edge9" class="edge">
<title>CoursesRoutingModule&#45;&gt;CoursesModule</title>
<path fill="none" stroke="black" d="M1685,-122.03C1685,-139.06 1685,-162 1685,-162 1685,-162 1311.16,-162 1311.16,-162"/>
<polygon fill="black" stroke="black" points="1311.16,-158.5 1301.16,-162 1311.16,-165.5 1311.16,-158.5"/>
</g>
<!-- MaterialModule -->
<g id="node11" class="node">
<title>MaterialModule</title>
<polygon fill="#8dd3c7" stroke="black" points="1592.47,-122 1589.47,-126 1568.47,-126 1565.47,-122 1485.53,-122 1485.53,-86 1592.47,-86 1592.47,-122"/>
<text text-anchor="middle" x="1539" y="-99.8" font-family="Times,serif" font-size="14.00">MaterialModule</text>
</g>
<!-- MaterialModule&#45;&gt;CoursesModule -->
<g id="edge10" class="edge">
<title>MaterialModule&#45;&gt;CoursesModule</title>
<path fill="none" stroke="black" d="M1539,-122.24C1539,-137.57 1539,-157 1539,-157 1539,-157 1311.18,-157 1311.18,-157"/>
<polygon fill="black" stroke="black" points="1311.18,-153.5 1301.18,-157 1311.18,-160.5 1311.18,-153.5"/>
</g>
<!-- CourseEntityService -->
<g id="node12" class="node">
<title>CourseEntityService</title>
<ellipse fill="#fdb462" stroke="black" cx="2439" cy="-104" rx="90.91" ry="18"/>
<text text-anchor="middle" x="2439" y="-99.8" font-family="Times,serif" font-size="14.00">CourseEntityService</text>
</g>
<!-- CourseEntityService&#45;&gt;CoursesModule -->
<g id="edge11" class="edge">
<title>CourseEntityService&#45;&gt;CoursesModule</title>
<path fill="none" stroke="black" d="M2439,-122.09C2439,-145.13 2439,-182 2439,-182 2439,-182 1311.28,-182 1311.28,-182"/>
<polygon fill="black" stroke="black" points="1311.28,-178.5 1301.28,-182 1311.28,-185.5 1311.28,-178.5"/>
</g>
<!-- CoursesDataService -->
<g id="node13" class="node">
<title>CoursesDataService</title>
<ellipse fill="#fdb462" stroke="black" cx="2241" cy="-104" rx="89.16" ry="18"/>
<text text-anchor="middle" x="2241" y="-99.8" font-family="Times,serif" font-size="14.00">CoursesDataService</text>
</g>
<!-- CoursesDataService&#45;&gt;CoursesModule -->
<g id="edge12" class="edge">
<title>CoursesDataService&#45;&gt;CoursesModule</title>
<path fill="none" stroke="black" d="M2241,-122.04C2241,-143.66 2241,-177 2241,-177 2241,-177 1311.29,-177 1311.29,-177"/>
<polygon fill="black" stroke="black" points="1311.29,-173.5 1301.29,-177 1311.29,-180.5 1311.29,-173.5"/>
</g>
<!-- CoursesService -->
<g id="node14" class="node">
<title>CoursesService</title>
<ellipse fill="#fdb462" stroke="black" cx="2063" cy="-104" rx="71.2" ry="18"/>
<text text-anchor="middle" x="2063" y="-99.8" font-family="Times,serif" font-size="14.00">CoursesService</text>
</g>
<!-- CoursesService&#45;&gt;CoursesModule -->
<g id="edge13" class="edge">
<title>CoursesService&#45;&gt;CoursesModule</title>
<path fill="none" stroke="black" d="M2063,-122.22C2063,-142.37 2063,-172 2063,-172 2063,-172 1311.16,-172 1311.16,-172"/>
<polygon fill="black" stroke="black" points="1311.16,-168.5 1301.16,-172 1311.16,-175.5 1311.16,-168.5"/>
</g>
<!-- TeacherEntityService -->
<g id="node15" class="node">
<title>TeacherEntityService</title>
<ellipse fill="#fdb462" stroke="black" cx="1879" cy="-104" rx="94.88" ry="18"/>
<text text-anchor="middle" x="1879" y="-99.8" font-family="Times,serif" font-size="14.00">TeacherEntityService</text>
</g>
<!-- TeacherEntityService&#45;&gt;CoursesModule -->
<g id="edge14" class="edge">
<title>TeacherEntityService&#45;&gt;CoursesModule</title>
<path fill="none" stroke="black" d="M1879,-122.22C1879,-140.83 1879,-167 1879,-167 1879,-167 1311.36,-167 1311.36,-167"/>
<polygon fill="black" stroke="black" points="1311.36,-163.5 1301.36,-167 1311.36,-170.5 1311.36,-163.5"/>
</g>
</g>
</svg>
