<?xml version="1.0" encoding="UTF-8" standalone="no"?>
<!DOCTYPE svg PUBLIC "-//W3C//DTD SVG 1.1//EN"
 "http://www.w3.org/Graphics/SVG/1.1/DTD/svg11.dtd">
<!-- Generated by graphviz version 2.46.0 (20210119.1425)
 -->
<!-- Title: dependencies Pages: 1 -->
<svg width="1721pt" height="284pt"
 viewBox="0.00 0.00 1721.00 284.00" xmlns="http://www.w3.org/2000/svg" xmlns:xlink="http://www.w3.org/1999/xlink">
<g id="graph0" class="graph" transform="scale(1 1) rotate(0) translate(4 280)">
<title>dependencies</title>
<polygon fill="white" stroke="transparent" points="-4,4 -4,-280 1717,-280 1717,4 -4,4"/>
<text text-anchor="start" x="835.51" y="-42.4" font-family="sans-serif" font-weight="bold" font-size="14.00">Legend</text>
<polygon fill="#ffffb3" stroke="transparent" points="622.5,-10 622.5,-30 642.5,-30 642.5,-10 622.5,-10"/>
<text text-anchor="start" x="646.13" y="-15.4" font-family="sans-serif" font-size="14.00"> &#160;Declarations</text>
<polygon fill="#8dd3c7" stroke="transparent" points="735.5,-10 735.5,-30 755.5,-30 755.5,-10 735.5,-10"/>
<text text-anchor="start" x="759.23" y="-15.4" font-family="sans-serif" font-size="14.00"> &#160;Module</text>
<polygon fill="#80b1d3" stroke="transparent" points="821.5,-10 821.5,-30 841.5,-30 841.5,-10 821.5,-10"/>
<text text-anchor="start" x="845.28" y="-15.4" font-family="sans-serif" font-size="14.00"> &#160;Bootstrap</text>
<polygon fill="#fdb462" stroke="transparent" points="918.5,-10 918.5,-30 938.5,-30 938.5,-10 918.5,-10"/>
<text text-anchor="start" x="942.17" y="-15.4" font-family="sans-serif" font-size="14.00"> &#160;Providers</text>
<polygon fill="#fb8072" stroke="transparent" points="1014.5,-10 1014.5,-30 1034.5,-30 1034.5,-10 1014.5,-10"/>
<text text-anchor="start" x="1038.23" y="-15.4" font-family="sans-serif" font-size="14.00"> &#160;Exports</text>
<g id="clust1" class="cluster">
<title>cluster_CoursesModule</title>
<polygon fill="none" stroke="black" stroke-dasharray="1,5" points="8,-70 8,-268 1705,-268 1705,-70 8,-70"/>
</g>
<g id="clust2" class="cluster">
<title>cluster_CoursesModule_declarations</title>
<polygon fill="none" stroke="black" points="870,-78 870,-130 1697,-130 1697,-78 870,-78"/>
</g>
<g id="clust9" class="cluster">
<title>cluster_CoursesModule_exports</title>
<polygon fill="none" stroke="black" points="694,-208 694,-260 1042,-260 1042,-208 694,-208"/>
</g>
<g id="clust8" class="cluster">
<title>cluster_CoursesModule_imports</title>
<polygon fill="none" stroke="black" points="572,-78 572,-130 862,-130 862,-78 572,-78"/>
</g>
<g id="clust11" class="cluster">
<title>cluster_CoursesModule_providers</title>
<polygon fill="none" stroke="black" points="16,-78 16,-130 564,-130 564,-78 16,-78"/>
</g>
<!-- CourseComponent -->
<g id="node1" class="node">
<title>CourseComponent</title>
<polygon fill="#ffffb3" stroke="black" points="1689.49,-122 1568.51,-122 1568.51,-86 1689.49,-86 1689.49,-122"/>
<text text-anchor="middle" x="1629" y="-99.8" font-family="Times,serif" font-size="14.00">CourseComponent</text>
</g>
<!-- CoursesModule -->
<g id="node6" class="node">
<title>CoursesModule</title>
<polygon fill="#8dd3c7" stroke="black" points="917.15,-187 914.15,-191 893.15,-191 890.15,-187 812.85,-187 812.85,-151 917.15,-151 917.15,-187"/>
<text text-anchor="middle" x="865" y="-164.8" font-family="Times,serif" font-size="14.00">CoursesModule</text>
</g>
<!-- CourseComponent&#45;&gt;CoursesModule -->
<g id="edge1" class="edge">
<title>CourseComponent&#45;&gt;CoursesModule</title>
<path fill="none" stroke="black" d="M1629,-122.01C1629,-144.49 1629,-180 1629,-180 1629,-180 927.21,-180 927.21,-180"/>
<polygon fill="black" stroke="black" points="927.21,-176.5 917.21,-180 927.21,-183.5 927.21,-176.5"/>
</g>
<!-- CourseDialogComponent -->
<g id="node2" class="node">
<title>CourseDialogComponent</title>
<polygon fill="#ffffb3" stroke="black" points="1550.59,-122 1391.41,-122 1391.41,-86 1550.59,-86 1550.59,-122"/>
<text text-anchor="middle" x="1471" y="-99.8" font-family="Times,serif" font-size="14.00">CourseDialogComponent</text>
</g>
<!-- CourseDialogComponent&#45;&gt;CoursesModule -->
<g id="edge2" class="edge">
<title>CourseDialogComponent&#45;&gt;CoursesModule</title>
<path fill="none" stroke="black" d="M1471,-122.13C1471,-142.57 1471,-173 1471,-173 1471,-173 927.19,-173 927.19,-173"/>
<polygon fill="black" stroke="black" points="927.19,-169.5 917.19,-173 927.19,-176.5 927.19,-169.5"/>
</g>
<!-- CourseUserDialogComponent -->
<g id="node3" class="node">
<title>CourseUserDialogComponent</title>
<polygon fill="#ffffb3" stroke="black" points="1373.52,-122 1188.48,-122 1188.48,-86 1373.52,-86 1373.52,-122"/>
<text text-anchor="middle" x="1281" y="-99.8" font-family="Times,serif" font-size="14.00">CourseUserDialogComponent</text>
</g>
<!-- CourseUserDialogComponent&#45;&gt;CoursesModule -->
<g id="edge3" class="edge">
<title>CourseUserDialogComponent&#45;&gt;CoursesModule</title>
<path fill="none" stroke="black" d="M1281,-122.27C1281,-140.56 1281,-166 1281,-166 1281,-166 927.27,-166 927.27,-166"/>
<polygon fill="black" stroke="black" points="927.27,-162.5 917.27,-166 927.27,-169.5 927.27,-162.5"/>
</g>
<!-- CoursesComponent -->
<g id="node4" class="node">
<title>CoursesComponent</title>
<polygon fill="#ffffb3" stroke="black" points="1170.43,-122 1043.57,-122 1043.57,-86 1170.43,-86 1170.43,-122"/>
<text text-anchor="middle" x="1107" y="-99.8" font-family="Times,serif" font-size="14.00">CoursesComponent</text>
</g>
<!-- CoursesComponent&#45;&gt;CoursesModule -->
<g id="edge4" class="edge">
<title>CoursesComponent&#45;&gt;CoursesModule</title>
<path fill="none" stroke="black" d="M1107,-122.01C1107,-138.05 1107,-159 1107,-159 1107,-159 927.21,-159 927.21,-159"/>
<polygon fill="black" stroke="black" points="927.21,-155.5 917.21,-159 927.21,-162.5 927.21,-155.5"/>
</g>
<!-- CoursesListComponent -->
<g id="node5" class="node">
<title>CoursesListComponent</title>
<polygon fill="#ffffb3" stroke="black" points="1026.21,-122 877.79,-122 877.79,-86 1026.21,-86 1026.21,-122"/>
<text text-anchor="middle" x="952" y="-99.8" font-family="Times,serif" font-size="14.00">CoursesListComponent</text>
</g>
<!-- CoursesListComponent&#45;&gt;CoursesModule -->
<g id="edge5" class="edge">
<title>CoursesListComponent&#45;&gt;CoursesModule</title>
<path fill="none" stroke="black" d="M897.61,-122.11C897.61,-122.11 897.61,-140.99 897.61,-140.99"/>
<polygon fill="black" stroke="black" points="894.11,-140.99 897.61,-150.99 901.11,-140.99 894.11,-140.99"/>
</g>
<!-- CourseDialogComponent  -->
<g id="node9" class="node">
<title>CourseDialogComponent </title>
<polygon fill="#fb8072" stroke="black" points="1034.09,-252 871.91,-252 871.91,-216 1034.09,-216 1034.09,-252"/>
<text text-anchor="middle" x="953" y="-229.8" font-family="Times,serif" font-size="14.00">CourseDialogComponent </text>
</g>
<!-- CoursesModule&#45;&gt;CourseDialogComponent  -->
<g id="edge8" class="edge">
<title>CoursesModule&#45;&gt;CourseDialogComponent </title>
<path fill="none" stroke="black" stroke-dasharray="5,2" d="M894.51,-187.11C894.51,-187.11 894.51,-205.99 894.51,-205.99"/>
<polygon fill="black" stroke="black" points="891.01,-205.99 894.51,-215.99 898.01,-205.99 891.01,-205.99"/>
</g>
<!-- CoursesListComponent  -->
<g id="node10" class="node">
<title>CoursesListComponent </title>
<polygon fill="#fb8072" stroke="black" points="853.71,-252 702.29,-252 702.29,-216 853.71,-216 853.71,-252"/>
<text text-anchor="middle" x="778" y="-229.8" font-family="Times,serif" font-size="14.00">CoursesListComponent </text>
</g>
<!-- CoursesModule&#45;&gt;CoursesListComponent  -->
<g id="edge9" class="edge">
<title>CoursesModule&#45;&gt;CoursesListComponent </title>
<path fill="none" stroke="black" stroke-dasharray="5,2" d="M833.27,-187.11C833.27,-187.11 833.27,-205.99 833.27,-205.99"/>
<polygon fill="black" stroke="black" points="829.77,-205.99 833.27,-215.99 836.77,-205.99 829.77,-205.99"/>
</g>
<!-- CoursesRoutingModule -->
<g id="node7" class="node">
<title>CoursesRoutingModule</title>
<polygon fill="#8dd3c7" stroke="black" points="853.77,-122 850.77,-126 829.77,-126 826.77,-122 704.23,-122 704.23,-86 853.77,-86 853.77,-122"/>
<text text-anchor="middle" x="779" y="-99.8" font-family="Times,serif" font-size="14.00">CoursesRoutingModule</text>
</g>
<!-- CoursesRoutingModule&#45;&gt;CoursesModule -->
<g id="edge6" class="edge">
<title>CoursesRoutingModule&#45;&gt;CoursesModule</title>
<path fill="none" stroke="black" d="M833.28,-122.11C833.28,-122.11 833.28,-140.99 833.28,-140.99"/>
<polygon fill="black" stroke="black" points="829.78,-140.99 833.28,-150.99 836.78,-140.99 829.78,-140.99"/>
</g>
<!-- MaterialModule -->
<g id="node8" class="node">
<title>MaterialModule</title>
<polygon fill="#8dd3c7" stroke="black" points="686.47,-122 683.47,-126 662.47,-126 659.47,-122 579.53,-122 579.53,-86 686.47,-86 686.47,-122"/>
<text text-anchor="middle" x="633" y="-99.8" font-family="Times,serif" font-size="14.00">MaterialModule</text>
</g>
<!-- MaterialModule&#45;&gt;CoursesModule -->
<g id="edge7" class="edge">
<title>MaterialModule&#45;&gt;CoursesModule</title>
<path fill="none" stroke="black" d="M633,-122.01C633,-138.05 633,-159 633,-159 633,-159 802.65,-159 802.65,-159"/>
<polygon fill="black" stroke="black" points="802.65,-162.5 812.65,-159 802.65,-155.5 802.65,-162.5"/>
</g>
<!-- CourseDataService -->
<g id="node11" class="node">
<title>CourseDataService</title>
<ellipse fill="#fdb462" stroke="black" cx="470" cy="-104" rx="85.65" ry="18"/>
<text text-anchor="middle" x="470" y="-99.8" font-family="Times,serif" font-size="14.00">CourseDataService</text>
</g>
<!-- CourseDataService&#45;&gt;CoursesModule -->
<g id="edge10" class="edge">
<title>CourseDataService&#45;&gt;CoursesModule</title>
<path fill="none" stroke="black" d="M470,-122.27C470,-140.56 470,-166 470,-166 470,-166 802.55,-166 802.55,-166"/>
<polygon fill="black" stroke="black" points="802.55,-169.5 812.55,-166 802.55,-162.5 802.55,-169.5"/>
</g>
<!-- CourseEntityService -->
<g id="node12" class="node">
<title>CourseEntityService</title>
<ellipse fill="#fdb462" stroke="black" cx="275" cy="-104" rx="90.91" ry="18"/>
<text text-anchor="middle" x="275" y="-99.8" font-family="Times,serif" font-size="14.00">CourseEntityService</text>
</g>
<!-- CourseEntityService&#45;&gt;CoursesModule -->
<g id="edge11" class="edge">
<title>CourseEntityService&#45;&gt;CoursesModule</title>
<path fill="none" stroke="black" d="M275,-122.13C275,-142.57 275,-173 275,-173 275,-173 802.64,-173 802.64,-173"/>
<polygon fill="black" stroke="black" points="802.64,-176.5 812.64,-173 802.64,-169.5 802.64,-176.5"/>
</g>
<!-- CoursesService -->
<g id="node13" class="node">
<title>CoursesService</title>
<ellipse fill="#fdb462" stroke="black" cx="95" cy="-104" rx="71.2" ry="18"/>
<text text-anchor="middle" x="95" y="-99.8" font-family="Times,serif" font-size="14.00">CoursesService</text>
</g>
<!-- CoursesService&#45;&gt;CoursesModule -->
<g id="edge12" class="edge">
<title>CoursesService&#45;&gt;CoursesModule</title>
<path fill="none" stroke="black" d="M95,-122.01C95,-144.49 95,-180 95,-180 95,-180 802.68,-180 802.68,-180"/>
<polygon fill="black" stroke="black" points="802.68,-183.5 812.68,-180 802.68,-176.5 802.68,-183.5"/>
</g>
</g>
</svg>
