<?xml version="1.0" encoding="UTF-8" standalone="no"?>
<!DOCTYPE svg PUBLIC "-//W3C//DTD SVG 1.1//EN"
 "http://www.w3.org/Graphics/SVG/1.1/DTD/svg11.dtd">
<!-- Generated by graphviz version 2.46.0 (20210119.1425)
 -->
<!-- Title: dependencies Pages: 1 -->
<svg width="1022pt" height="284pt"
 viewBox="0.00 0.00 1022.00 284.00" xmlns="http://www.w3.org/2000/svg" xmlns:xlink="http://www.w3.org/1999/xlink">
<g id="graph0" class="graph" transform="scale(1 1) rotate(0) translate(4 280)">
<title>dependencies</title>
<polygon fill="white" stroke="transparent" points="-4,4 -4,-280 1018,-280 1018,4 -4,4"/>
<text text-anchor="start" x="486.01" y="-42.4" font-family="sans-serif" font-weight="bold" font-size="14.00">Legend</text>
<polygon fill="#ffffb3" stroke="transparent" points="273,-10 273,-30 293,-30 293,-10 273,-10"/>
<text text-anchor="start" x="296.63" y="-15.4" font-family="sans-serif" font-size="14.00"> &#160;Declarations</text>
<polygon fill="#8dd3c7" stroke="transparent" points="386,-10 386,-30 406,-30 406,-10 386,-10"/>
<text text-anchor="start" x="409.73" y="-15.4" font-family="sans-serif" font-size="14.00"> &#160;Module</text>
<polygon fill="#80b1d3" stroke="transparent" points="472,-10 472,-30 492,-30 492,-10 472,-10"/>
<text text-anchor="start" x="495.78" y="-15.4" font-family="sans-serif" font-size="14.00"> &#160;Bootstrap</text>
<polygon fill="#fdb462" stroke="transparent" points="569,-10 569,-30 589,-30 589,-10 569,-10"/>
<text text-anchor="start" x="592.67" y="-15.4" font-family="sans-serif" font-size="14.00"> &#160;Providers</text>
<polygon fill="#fb8072" stroke="transparent" points="665,-10 665,-30 685,-30 685,-10 665,-10"/>
<text text-anchor="start" x="688.73" y="-15.4" font-family="sans-serif" font-size="14.00"> &#160;Exports</text>
<g id="clust1" class="cluster">
<title>cluster_CourseWorksModule</title>
<polygon fill="none" stroke="black" stroke-dasharray="1,5" points="8,-70 8,-268 1006,-268 1006,-70 8,-70"/>
</g>
<g id="clust5" class="cluster">
<title>cluster_CourseWorksModule_exports</title>
<polygon fill="none" stroke="black" points="329,-208 329,-260 501,-260 501,-208 329,-208"/>
</g>
<g id="clust7" class="cluster">
<title>cluster_CourseWorksModule_providers</title>
<polygon fill="none" stroke="black" points="522,-78 522,-130 998,-130 998,-78 522,-78"/>
</g>
<g id="clust4" class="cluster">
<title>cluster_CourseWorksModule_imports</title>
<polygon fill="none" stroke="black" points="192,-78 192,-130 514,-130 514,-78 192,-78"/>
</g>
<g id="clust2" class="cluster">
<title>cluster_CourseWorksModule_declarations</title>
<polygon fill="none" stroke="black" points="16,-78 16,-130 184,-130 184,-78 16,-78"/>
</g>
<!-- CourseWorkComponent -->
<g id="node1" class="node">
<title>CourseWorkComponent</title>
<polygon fill="#ffffb3" stroke="black" points="176.36,-122 23.64,-122 23.64,-86 176.36,-86 176.36,-122"/>
<text text-anchor="middle" x="100" y="-99.8" font-family="Times,serif" font-size="14.00">CourseWorkComponent</text>
</g>
<!-- CourseWorksModule -->
<g id="node2" class="node">
<title>CourseWorksModule</title>
<polygon fill="#8dd3c7" stroke="black" points="483.03,-187 480.03,-191 459.03,-191 456.03,-187 346.97,-187 346.97,-151 483.03,-151 483.03,-187"/>
<text text-anchor="middle" x="415" y="-164.8" font-family="Times,serif" font-size="14.00">CourseWorksModule</text>
</g>
<!-- CourseWorkComponent&#45;&gt;CourseWorksModule -->
<g id="edge1" class="edge">
<title>CourseWorkComponent&#45;&gt;CourseWorksModule</title>
<path fill="none" stroke="black" d="M100,-122.28C100,-143.32 100,-175 100,-175 100,-175 336.65,-175 336.65,-175"/>
<polygon fill="black" stroke="black" points="336.65,-178.5 346.65,-175 336.65,-171.5 336.65,-178.5"/>
</g>
<!-- CourseWorkComponent  -->
<g id="node5" class="node">
<title>CourseWorkComponent </title>
<polygon fill="#fb8072" stroke="black" points="493.36,-252 336.64,-252 336.64,-216 493.36,-216 493.36,-252"/>
<text text-anchor="middle" x="415" y="-229.8" font-family="Times,serif" font-size="14.00">CourseWorkComponent </text>
</g>
<!-- CourseWorksModule&#45;&gt;CourseWorkComponent  -->
<g id="edge4" class="edge">
<title>CourseWorksModule&#45;&gt;CourseWorkComponent </title>
<path fill="none" stroke="black" stroke-dasharray="5,2" d="M415,-187.11C415,-187.11 415,-205.99 415,-205.99"/>
<polygon fill="black" stroke="black" points="411.5,-205.99 415,-215.99 418.5,-205.99 411.5,-205.99"/>
</g>
<!-- CourseWorksRoutingModule -->
<g id="node3" class="node">
<title>CourseWorksRoutingModule</title>
<polygon fill="#8dd3c7" stroke="black" points="505.64,-122 502.64,-126 481.64,-126 478.64,-122 324.36,-122 324.36,-86 505.64,-86 505.64,-122"/>
<text text-anchor="middle" x="415" y="-99.8" font-family="Times,serif" font-size="14.00">CourseWorksRoutingModule</text>
</g>
<!-- CourseWorksRoutingModule&#45;&gt;CourseWorksModule -->
<g id="edge2" class="edge">
<title>CourseWorksRoutingModule&#45;&gt;CourseWorksModule</title>
<path fill="none" stroke="black" d="M415,-122.11C415,-122.11 415,-140.99 415,-140.99"/>
<polygon fill="black" stroke="black" points="411.5,-140.99 415,-150.99 418.5,-140.99 411.5,-140.99"/>
</g>
<!-- MaterialModule -->
<g id="node4" class="node">
<title>MaterialModule</title>
<polygon fill="#8dd3c7" stroke="black" points="306.47,-122 303.47,-126 282.47,-126 279.47,-122 199.53,-122 199.53,-86 306.47,-86 306.47,-122"/>
<text text-anchor="middle" x="253" y="-99.8" font-family="Times,serif" font-size="14.00">MaterialModule</text>
</g>
<!-- MaterialModule&#45;&gt;CourseWorksModule -->
<g id="edge3" class="edge">
<title>MaterialModule&#45;&gt;CourseWorksModule</title>
<path fill="none" stroke="black" d="M253,-122.02C253,-139.37 253,-163 253,-163 253,-163 336.77,-163 336.77,-163"/>
<polygon fill="black" stroke="black" points="336.77,-166.5 346.77,-163 336.77,-159.5 336.77,-166.5"/>
</g>
<!-- CourseWorkDataService -->
<g id="node6" class="node">
<title>CourseWorkDataService</title>
<ellipse fill="#fdb462" stroke="black" cx="882" cy="-104" rx="107.62" ry="18"/>
<text text-anchor="middle" x="882" y="-99.8" font-family="Times,serif" font-size="14.00">CourseWorkDataService</text>
</g>
<!-- CourseWorkDataService&#45;&gt;CourseWorksModule -->
<g id="edge5" class="edge">
<title>CourseWorkDataService&#45;&gt;CourseWorksModule</title>
<path fill="none" stroke="black" d="M882,-122.28C882,-143.32 882,-175 882,-175 882,-175 493.16,-175 493.16,-175"/>
<polygon fill="black" stroke="black" points="493.16,-171.5 483.16,-175 493.16,-178.5 493.16,-171.5"/>
</g>
<!-- CourseWorkEntityService -->
<g id="node7" class="node">
<title>CourseWorkEntityService</title>
<ellipse fill="#fdb462" stroke="black" cx="643" cy="-104" rx="112.88" ry="18"/>
<text text-anchor="middle" x="643" y="-99.8" font-family="Times,serif" font-size="14.00">CourseWorkEntityService</text>
</g>
<!-- CourseWorkEntityService&#45;&gt;CourseWorksModule -->
<g id="edge6" class="edge">
<title>CourseWorkEntityService&#45;&gt;CourseWorksModule</title>
<path fill="none" stroke="black" d="M643,-122.02C643,-139.37 643,-163 643,-163 643,-163 493.1,-163 493.1,-163"/>
<polygon fill="black" stroke="black" points="493.1,-159.5 483.1,-163 493.1,-166.5 493.1,-159.5"/>
</g>
</g>
</svg>
