<?xml version="1.0" encoding="UTF-8" standalone="no"?>
<!DOCTYPE svg PUBLIC "-//W3C//DTD SVG 1.1//EN"
 "http://www.w3.org/Graphics/SVG/1.1/DTD/svg11.dtd">
<!-- Generated by graphviz version 2.46.0 (20210119.1425)
 -->
<!-- Title: dependencies Pages: 1 -->
<svg width="1970pt" height="284pt"
 viewBox="0.00 0.00 1970.00 284.00" xmlns="http://www.w3.org/2000/svg" xmlns:xlink="http://www.w3.org/1999/xlink">
<g id="graph0" class="graph" transform="scale(1 1) rotate(0) translate(4 280)">
<title>dependencies</title>
<polygon fill="white" stroke="transparent" points="-4,4 -4,-280 1966,-280 1966,4 -4,4"/>
<text text-anchor="start" x="960.01" y="-42.4" font-family="sans-serif" font-weight="bold" font-size="14.00">Legend</text>
<polygon fill="#ffffb3" stroke="transparent" points="747,-10 747,-30 767,-30 767,-10 747,-10"/>
<text text-anchor="start" x="770.63" y="-15.4" font-family="sans-serif" font-size="14.00"> &#160;Declarations</text>
<polygon fill="#8dd3c7" stroke="transparent" points="860,-10 860,-30 880,-30 880,-10 860,-10"/>
<text text-anchor="start" x="883.73" y="-15.4" font-family="sans-serif" font-size="14.00"> &#160;Module</text>
<polygon fill="#80b1d3" stroke="transparent" points="946,-10 946,-30 966,-30 966,-10 946,-10"/>
<text text-anchor="start" x="969.78" y="-15.4" font-family="sans-serif" font-size="14.00"> &#160;Bootstrap</text>
<polygon fill="#fdb462" stroke="transparent" points="1043,-10 1043,-30 1063,-30 1063,-10 1043,-10"/>
<text text-anchor="start" x="1066.67" y="-15.4" font-family="sans-serif" font-size="14.00"> &#160;Providers</text>
<polygon fill="#fb8072" stroke="transparent" points="1139,-10 1139,-30 1159,-30 1159,-10 1139,-10"/>
<text text-anchor="start" x="1162.73" y="-15.4" font-family="sans-serif" font-size="14.00"> &#160;Exports</text>
<g id="clust1" class="cluster">
<title>cluster_CourseWorksModule</title>
<polygon fill="none" stroke="black" stroke-dasharray="1,5" points="8,-70 8,-268 1954,-268 1954,-70 8,-70"/>
</g>
<g id="clust2" class="cluster">
<title>cluster_CourseWorksModule_declarations</title>
<polygon fill="none" stroke="black" points="1778,-78 1778,-130 1946,-130 1946,-78 1778,-78"/>
</g>
<g id="clust5" class="cluster">
<title>cluster_CourseWorksModule_exports</title>
<polygon fill="none" stroke="black" points="776,-208 776,-260 948,-260 948,-208 776,-208"/>
</g>
<g id="clust7" class="cluster">
<title>cluster_CourseWorksModule_providers</title>
<polygon fill="none" stroke="black" points="346,-78 346,-130 1770,-130 1770,-78 346,-78"/>
</g>
<g id="clust4" class="cluster">
<title>cluster_CourseWorksModule_imports</title>
<polygon fill="none" stroke="black" points="16,-78 16,-130 338,-130 338,-78 16,-78"/>
</g>
<!-- CourseWorkComponent -->
<g id="node1" class="node">
<title>CourseWorkComponent</title>
<polygon fill="#ffffb3" stroke="black" points="1938.36,-122 1785.64,-122 1785.64,-86 1938.36,-86 1938.36,-122"/>
<text text-anchor="middle" x="1862" y="-99.8" font-family="Times,serif" font-size="14.00">CourseWorkComponent</text>
</g>
<!-- CourseWorksModule -->
<g id="node2" class="node">
<title>CourseWorksModule</title>
<polygon fill="#8dd3c7" stroke="black" points="930.03,-187 927.03,-191 906.03,-191 903.03,-187 793.97,-187 793.97,-151 930.03,-151 930.03,-187"/>
<text text-anchor="middle" x="862" y="-164.8" font-family="Times,serif" font-size="14.00">CourseWorksModule</text>
</g>
<!-- CourseWorkComponent&#45;&gt;CourseWorksModule -->
<g id="edge1" class="edge">
<title>CourseWorkComponent&#45;&gt;CourseWorksModule</title>
<path fill="none" stroke="black" d="M1862,-122.01C1862,-144.49 1862,-180 1862,-180 1862,-180 940.34,-180 940.34,-180"/>
<polygon fill="black" stroke="black" points="940.34,-176.5 930.34,-180 940.34,-183.5 940.34,-176.5"/>
</g>
<!-- CourseWorkComponent  -->
<g id="node5" class="node">
<title>CourseWorkComponent </title>
<polygon fill="#fb8072" stroke="black" points="940.36,-252 783.64,-252 783.64,-216 940.36,-216 940.36,-252"/>
<text text-anchor="middle" x="862" y="-229.8" font-family="Times,serif" font-size="14.00">CourseWorkComponent </text>
</g>
<!-- CourseWorksModule&#45;&gt;CourseWorkComponent  -->
<g id="edge4" class="edge">
<title>CourseWorksModule&#45;&gt;CourseWorkComponent </title>
<path fill="none" stroke="black" stroke-dasharray="5,2" d="M862,-187.11C862,-187.11 862,-205.99 862,-205.99"/>
<polygon fill="black" stroke="black" points="858.5,-205.99 862,-215.99 865.5,-205.99 858.5,-205.99"/>
</g>
<!-- CourseWorksRoutingModule -->
<g id="node3" class="node">
<title>CourseWorksRoutingModule</title>
<polygon fill="#8dd3c7" stroke="black" points="329.64,-122 326.64,-126 305.64,-126 302.64,-122 148.36,-122 148.36,-86 329.64,-86 329.64,-122"/>
<text text-anchor="middle" x="239" y="-99.8" font-family="Times,serif" font-size="14.00">CourseWorksRoutingModule</text>
</g>
<!-- CourseWorksRoutingModule&#45;&gt;CourseWorksModule -->
<g id="edge2" class="edge">
<title>CourseWorksRoutingModule&#45;&gt;CourseWorksModule</title>
<path fill="none" stroke="black" d="M239,-122.13C239,-142.57 239,-173 239,-173 239,-173 783.84,-173 783.84,-173"/>
<polygon fill="black" stroke="black" points="783.84,-176.5 793.84,-173 783.84,-169.5 783.84,-176.5"/>
</g>
<!-- MaterialModule -->
<g id="node4" class="node">
<title>MaterialModule</title>
<polygon fill="#8dd3c7" stroke="black" points="130.47,-122 127.47,-126 106.47,-126 103.47,-122 23.53,-122 23.53,-86 130.47,-86 130.47,-122"/>
<text text-anchor="middle" x="77" y="-99.8" font-family="Times,serif" font-size="14.00">MaterialModule</text>
</g>
<!-- MaterialModule&#45;&gt;CourseWorksModule -->
<g id="edge3" class="edge">
<title>MaterialModule&#45;&gt;CourseWorksModule</title>
<path fill="none" stroke="black" d="M77,-122.01C77,-144.49 77,-180 77,-180 77,-180 783.71,-180 783.71,-180"/>
<polygon fill="black" stroke="black" points="783.71,-183.5 793.71,-180 783.71,-176.5 783.71,-183.5"/>
</g>
<!-- CourseWorkDataService -->
<g id="node6" class="node">
<title>CourseWorkDataService</title>
<ellipse fill="#fdb462" stroke="black" cx="1654" cy="-104" rx="107.62" ry="18"/>
<text text-anchor="middle" x="1654" y="-99.8" font-family="Times,serif" font-size="14.00">CourseWorkDataService</text>
</g>
<!-- CourseWorkDataService&#45;&gt;CourseWorksModule -->
<g id="edge5" class="edge">
<title>CourseWorkDataService&#45;&gt;CourseWorksModule</title>
<path fill="none" stroke="black" d="M1654,-122.13C1654,-142.57 1654,-173 1654,-173 1654,-173 940.21,-173 940.21,-173"/>
<polygon fill="black" stroke="black" points="940.21,-169.5 930.21,-173 940.21,-176.5 940.21,-169.5"/>
</g>
<!-- CourseWorkEntityService -->
<g id="node7" class="node">
<title>CourseWorkEntityService</title>
<ellipse fill="#fdb462" stroke="black" cx="1415" cy="-104" rx="112.88" ry="18"/>
<text text-anchor="middle" x="1415" y="-99.8" font-family="Times,serif" font-size="14.00">CourseWorkEntityService</text>
</g>
<!-- CourseWorkEntityService&#45;&gt;CourseWorksModule -->
<g id="edge6" class="edge">
<title>CourseWorkEntityService&#45;&gt;CourseWorksModule</title>
<path fill="none" stroke="black" d="M1415,-122.27C1415,-140.56 1415,-166 1415,-166 1415,-166 940.09,-166 940.09,-166"/>
<polygon fill="black" stroke="black" points="940.09,-162.5 930.09,-166 940.09,-169.5 940.09,-162.5"/>
</g>
<!-- StudentSubmissionDataService -->
<g id="node8" class="node">
<title>StudentSubmissionDataService</title>
<ellipse fill="#fdb462" stroke="black" cx="1151" cy="-104" rx="132.6" ry="18"/>
<text text-anchor="middle" x="1151" y="-99.8" font-family="Times,serif" font-size="14.00">StudentSubmissionDataService</text>
</g>
<!-- StudentSubmissionDataService&#45;&gt;CourseWorksModule -->
<g id="edge7" class="edge">
<title>StudentSubmissionDataService&#45;&gt;CourseWorksModule</title>
<path fill="none" stroke="black" d="M1151,-122.01C1151,-138.05 1151,-159 1151,-159 1151,-159 940.12,-159 940.12,-159"/>
<polygon fill="black" stroke="black" points="940.12,-155.5 930.12,-159 940.12,-162.5 940.12,-155.5"/>
</g>
<!-- StudentSubmissionEntityService -->
<g id="node9" class="node">
<title>StudentSubmissionEntityService</title>
<ellipse fill="#fdb462" stroke="black" cx="862" cy="-104" rx="138.36" ry="18"/>
<text text-anchor="middle" x="862" y="-99.8" font-family="Times,serif" font-size="14.00">StudentSubmissionEntityService</text>
</g>
<!-- StudentSubmissionEntityService&#45;&gt;CourseWorksModule -->
<g id="edge8" class="edge">
<title>StudentSubmissionEntityService&#45;&gt;CourseWorksModule</title>
<path fill="none" stroke="black" d="M862,-122.11C862,-122.11 862,-140.99 862,-140.99"/>
<polygon fill="black" stroke="black" points="858.5,-140.99 862,-150.99 865.5,-140.99 858.5,-140.99"/>
</g>
<!-- TopicDataService -->
<g id="node10" class="node">
<title>TopicDataService</title>
<ellipse fill="#fdb462" stroke="black" cx="625" cy="-104" rx="80.99" ry="18"/>
<text text-anchor="middle" x="625" y="-99.8" font-family="Times,serif" font-size="14.00">TopicDataService</text>
</g>
<!-- TopicDataService&#45;&gt;CourseWorksModule -->
<g id="edge9" class="edge">
<title>TopicDataService&#45;&gt;CourseWorksModule</title>
<path fill="none" stroke="black" d="M625,-122.01C625,-138.05 625,-159 625,-159 625,-159 783.77,-159 783.77,-159"/>
<polygon fill="black" stroke="black" points="783.77,-162.5 793.77,-159 783.77,-155.5 783.77,-162.5"/>
</g>
<!-- TopicEntityService -->
<g id="node11" class="node">
<title>TopicEntityService</title>
<ellipse fill="#fdb462" stroke="black" cx="440" cy="-104" rx="86.25" ry="18"/>
<text text-anchor="middle" x="440" y="-99.8" font-family="Times,serif" font-size="14.00">TopicEntityService</text>
</g>
<!-- TopicEntityService&#45;&gt;CourseWorksModule -->
<g id="edge10" class="edge">
<title>TopicEntityService&#45;&gt;CourseWorksModule</title>
<path fill="none" stroke="black" d="M440,-122.27C440,-140.56 440,-166 440,-166 440,-166 783.73,-166 783.73,-166"/>
<polygon fill="black" stroke="black" points="783.73,-169.5 793.73,-166 783.73,-162.5 783.73,-169.5"/>
</g>
</g>
</svg>
