<?xml version="1.0" encoding="UTF-8" standalone="no"?>
<!DOCTYPE svg PUBLIC "-//W3C//DTD SVG 1.1//EN"
 "http://www.w3.org/Graphics/SVG/1.1/DTD/svg11.dtd">
<!-- Generated by graphviz version 2.47.0 (20210316.0004)
 -->
<!-- Title: dependencies Pages: 1 -->
<svg width="2174pt" height="284pt"
 viewBox="0.00 0.00 2174.00 284.00" xmlns="http://www.w3.org/2000/svg" xmlns:xlink="http://www.w3.org/1999/xlink">
<g id="graph0" class="graph" transform="scale(1 1) rotate(0) translate(4 280)">
<title>dependencies</title>
<polygon fill="white" stroke="transparent" points="-4,4 -4,-280 2170,-280 2170,4 -4,4"/>
<text text-anchor="start" x="1062.01" y="-42.4" font-family="sans-serif" font-weight="bold" font-size="14.00">Legend</text>
<polygon fill="#ffffb3" stroke="transparent" points="849,-10 849,-30 869,-30 869,-10 849,-10"/>
<text text-anchor="start" x="872.63" y="-15.4" font-family="sans-serif" font-size="14.00"> &#160;Declarations</text>
<polygon fill="#8dd3c7" stroke="transparent" points="962,-10 962,-30 982,-30 982,-10 962,-10"/>
<text text-anchor="start" x="985.73" y="-15.4" font-family="sans-serif" font-size="14.00"> &#160;Module</text>
<polygon fill="#80b1d3" stroke="transparent" points="1048,-10 1048,-30 1068,-30 1068,-10 1048,-10"/>
<text text-anchor="start" x="1071.78" y="-15.4" font-family="sans-serif" font-size="14.00"> &#160;Bootstrap</text>
<polygon fill="#fdb462" stroke="transparent" points="1145,-10 1145,-30 1165,-30 1165,-10 1145,-10"/>
<text text-anchor="start" x="1168.67" y="-15.4" font-family="sans-serif" font-size="14.00"> &#160;Providers</text>
<polygon fill="#fb8072" stroke="transparent" points="1241,-10 1241,-30 1261,-30 1261,-10 1241,-10"/>
<text text-anchor="start" x="1264.73" y="-15.4" font-family="sans-serif" font-size="14.00"> &#160;Exports</text>
<g id="clust1" class="cluster">
<title>cluster_CourseWorksModule</title>
<polygon fill="none" stroke="black" stroke-dasharray="1,5" points="8,-70 8,-268 2158,-268 2158,-70 8,-70"/>
</g>
<g id="clust2" class="cluster">
<title>cluster_CourseWorksModule_declarations</title>
<polygon fill="none" stroke="black" points="1982,-78 1982,-130 2150,-130 2150,-78 1982,-78"/>
</g>
<g id="clust5" class="cluster">
<title>cluster_CourseWorksModule_exports</title>
<polygon fill="none" stroke="black" points="1091,-208 1091,-260 1263,-260 1263,-208 1091,-208"/>
</g>
<g id="clust4" class="cluster">
<title>cluster_CourseWorksModule_imports</title>
<polygon fill="none" stroke="black" points="1652,-78 1652,-130 1974,-130 1974,-78 1652,-78"/>
</g>
<g id="clust7" class="cluster">
<title>cluster_CourseWorksModule_providers</title>
<polygon fill="none" stroke="black" points="16,-78 16,-130 1644,-130 1644,-78 16,-78"/>
</g>
<!-- CourseWorkComponent -->
<g id="node1" class="node">
<title>CourseWorkComponent</title>
<polygon fill="#ffffb3" stroke="black" points="2142.36,-122 1989.64,-122 1989.64,-86 2142.36,-86 2142.36,-122"/>
<text text-anchor="middle" x="2066" y="-99.8" font-family="Times,serif" font-size="14.00">CourseWorkComponent</text>
</g>
<!-- CourseWorksModule -->
<g id="node2" class="node">
<title>CourseWorksModule</title>
<polygon fill="#8dd3c7" stroke="black" points="1245.03,-187 1242.03,-191 1221.03,-191 1218.03,-187 1108.97,-187 1108.97,-151 1245.03,-151 1245.03,-187"/>
<text text-anchor="middle" x="1177" y="-164.8" font-family="Times,serif" font-size="14.00">CourseWorksModule</text>
</g>
<!-- CourseWorkComponent&#45;&gt;CourseWorksModule -->
<g id="edge1" class="edge">
<title>CourseWorkComponent&#45;&gt;CourseWorksModule</title>
<path fill="none" stroke="black" d="M2066,-122.01C2066,-144.49 2066,-180 2066,-180 2066,-180 1255.28,-180 1255.28,-180"/>
<polygon fill="black" stroke="black" points="1255.28,-176.5 1245.28,-180 1255.28,-183.5 1255.28,-176.5"/>
</g>
<!-- CourseWorkComponent  -->
<g id="node5" class="node">
<title>CourseWorkComponent </title>
<polygon fill="#fb8072" stroke="black" points="1255.36,-252 1098.64,-252 1098.64,-216 1255.36,-216 1255.36,-252"/>
<text text-anchor="middle" x="1177" y="-229.8" font-family="Times,serif" font-size="14.00">CourseWorkComponent </text>
</g>
<!-- CourseWorksModule&#45;&gt;CourseWorkComponent  -->
<g id="edge4" class="edge">
<title>CourseWorksModule&#45;&gt;CourseWorkComponent </title>
<path fill="none" stroke="black" stroke-dasharray="5,2" d="M1177,-187.11C1177,-187.11 1177,-205.99 1177,-205.99"/>
<polygon fill="black" stroke="black" points="1173.5,-205.99 1177,-215.99 1180.5,-205.99 1173.5,-205.99"/>
</g>
<!-- CourseWorksRoutingModule -->
<g id="node3" class="node">
<title>CourseWorksRoutingModule</title>
<polygon fill="#8dd3c7" stroke="black" points="1965.64,-122 1962.64,-126 1941.64,-126 1938.64,-122 1784.36,-122 1784.36,-86 1965.64,-86 1965.64,-122"/>
<text text-anchor="middle" x="1875" y="-99.8" font-family="Times,serif" font-size="14.00">CourseWorksRoutingModule</text>
</g>
<!-- CourseWorksRoutingModule&#45;&gt;CourseWorksModule -->
<g id="edge2" class="edge">
<title>CourseWorksRoutingModule&#45;&gt;CourseWorksModule</title>
<path fill="none" stroke="black" d="M1875,-122.13C1875,-142.57 1875,-173 1875,-173 1875,-173 1255.2,-173 1255.2,-173"/>
<polygon fill="black" stroke="black" points="1255.2,-169.5 1245.2,-173 1255.2,-176.5 1255.2,-169.5"/>
</g>
<!-- MaterialModule -->
<g id="node4" class="node">
<title>MaterialModule</title>
<polygon fill="#8dd3c7" stroke="black" points="1766.47,-122 1763.47,-126 1742.47,-126 1739.47,-122 1659.53,-122 1659.53,-86 1766.47,-86 1766.47,-122"/>
<text text-anchor="middle" x="1713" y="-99.8" font-family="Times,serif" font-size="14.00">MaterialModule</text>
</g>
<!-- MaterialModule&#45;&gt;CourseWorksModule -->
<g id="edge3" class="edge">
<title>MaterialModule&#45;&gt;CourseWorksModule</title>
<path fill="none" stroke="black" d="M1713,-122.27C1713,-140.56 1713,-166 1713,-166 1713,-166 1255.16,-166 1255.16,-166"/>
<polygon fill="black" stroke="black" points="1255.16,-162.5 1245.16,-166 1255.16,-169.5 1255.16,-162.5"/>
</g>
<!-- CourseWorkDataService -->
<g id="node6" class="node">
<title>CourseWorkDataService</title>
<ellipse fill="#fdb462" stroke="black" cx="1528" cy="-104" rx="107.62" ry="18"/>
<text text-anchor="middle" x="1528" y="-99.8" font-family="Times,serif" font-size="14.00">CourseWorkDataService</text>
</g>
<!-- CourseWorkDataService&#45;&gt;CourseWorksModule -->
<g id="edge5" class="edge">
<title>CourseWorkDataService&#45;&gt;CourseWorksModule</title>
<path fill="none" stroke="black" d="M1528,-122.01C1528,-138.05 1528,-159 1528,-159 1528,-159 1255.09,-159 1255.09,-159"/>
<polygon fill="black" stroke="black" points="1255.09,-155.5 1245.09,-159 1255.09,-162.5 1255.09,-155.5"/>
</g>
<!-- CourseWorkEntityService -->
<g id="node7" class="node">
<title>CourseWorkEntityService</title>
<ellipse fill="#fdb462" stroke="black" cx="1289" cy="-104" rx="112.88" ry="18"/>
<text text-anchor="middle" x="1289" y="-99.8" font-family="Times,serif" font-size="14.00">CourseWorkEntityService</text>
</g>
<!-- CourseWorkEntityService&#45;&gt;CourseWorksModule -->
<g id="edge6" class="edge">
<title>CourseWorkEntityService&#45;&gt;CourseWorksModule</title>
<path fill="none" stroke="black" d="M1210.66,-117.15C1210.66,-117.15 1210.66,-140.69 1210.66,-140.69"/>
<polygon fill="black" stroke="black" points="1207.16,-140.69 1210.66,-150.69 1214.16,-140.69 1207.16,-140.69"/>
</g>
<!-- CourseWorksService -->
<g id="node8" class="node">
<title>CourseWorksService</title>
<ellipse fill="#fdb462" stroke="black" cx="1065" cy="-104" rx="93.18" ry="18"/>
<text text-anchor="middle" x="1065" y="-99.8" font-family="Times,serif" font-size="14.00">CourseWorksService</text>
</g>
<!-- CourseWorksService&#45;&gt;CourseWorksModule -->
<g id="edge7" class="edge">
<title>CourseWorksService&#45;&gt;CourseWorksModule</title>
<path fill="none" stroke="black" d="M1133.41,-116.23C1133.41,-116.23 1133.41,-140.68 1133.41,-140.68"/>
<polygon fill="black" stroke="black" points="1129.91,-140.68 1133.41,-150.68 1136.91,-140.68 1129.91,-140.68"/>
</g>
<!-- StudentSubmissionDataService -->
<g id="node9" class="node">
<title>StudentSubmissionDataService</title>
<ellipse fill="#fdb462" stroke="black" cx="821" cy="-104" rx="132.6" ry="18"/>
<text text-anchor="middle" x="821" y="-99.8" font-family="Times,serif" font-size="14.00">StudentSubmissionDataService</text>
</g>
<!-- StudentSubmissionDataService&#45;&gt;CourseWorksModule -->
<g id="edge8" class="edge">
<title>StudentSubmissionDataService&#45;&gt;CourseWorksModule</title>
<path fill="none" stroke="black" d="M821,-122.01C821,-138.05 821,-159 821,-159 821,-159 1098.78,-159 1098.78,-159"/>
<polygon fill="black" stroke="black" points="1098.78,-162.5 1108.78,-159 1098.78,-155.5 1098.78,-162.5"/>
</g>
<!-- StudentSubmissionEntityService -->
<g id="node10" class="node">
<title>StudentSubmissionEntityService</title>
<ellipse fill="#fdb462" stroke="black" cx="532" cy="-104" rx="138.36" ry="18"/>
<text text-anchor="middle" x="532" y="-99.8" font-family="Times,serif" font-size="14.00">StudentSubmissionEntityService</text>
</g>
<!-- StudentSubmissionEntityService&#45;&gt;CourseWorksModule -->
<g id="edge9" class="edge">
<title>StudentSubmissionEntityService&#45;&gt;CourseWorksModule</title>
<path fill="none" stroke="black" d="M532,-122.27C532,-140.56 532,-166 532,-166 532,-166 1098.89,-166 1098.89,-166"/>
<polygon fill="black" stroke="black" points="1098.89,-169.5 1108.89,-166 1098.89,-162.5 1098.89,-169.5"/>
</g>
<!-- TopicDataService -->
<g id="node11" class="node">
<title>TopicDataService</title>
<ellipse fill="#fdb462" stroke="black" cx="295" cy="-104" rx="80.99" ry="18"/>
<text text-anchor="middle" x="295" y="-99.8" font-family="Times,serif" font-size="14.00">TopicDataService</text>
</g>
<!-- TopicDataService&#45;&gt;CourseWorksModule -->
<g id="edge10" class="edge">
<title>TopicDataService&#45;&gt;CourseWorksModule</title>
<path fill="none" stroke="black" d="M295,-122.13C295,-142.57 295,-173 295,-173 295,-173 1098.89,-173 1098.89,-173"/>
<polygon fill="black" stroke="black" points="1098.89,-176.5 1108.89,-173 1098.89,-169.5 1098.89,-176.5"/>
</g>
<!-- TopicEntityService -->
<g id="node12" class="node">
<title>TopicEntityService</title>
<ellipse fill="#fdb462" stroke="black" cx="110" cy="-104" rx="86.25" ry="18"/>
<text text-anchor="middle" x="110" y="-99.8" font-family="Times,serif" font-size="14.00">TopicEntityService</text>
</g>
<!-- TopicEntityService&#45;&gt;CourseWorksModule -->
<g id="edge11" class="edge">
<title>TopicEntityService&#45;&gt;CourseWorksModule</title>
<path fill="none" stroke="black" d="M110,-122.01C110,-144.49 110,-180 110,-180 110,-180 1098.63,-180 1098.63,-180"/>
<polygon fill="black" stroke="black" points="1098.63,-183.5 1108.63,-180 1098.63,-176.5 1098.63,-183.5"/>
</g>
</g>
</svg>
