<?xml version="1.0" encoding="UTF-8" standalone="no"?>
<!DOCTYPE svg PUBLIC "-//W3C//DTD SVG 1.1//EN"
 "http://www.w3.org/Graphics/SVG/1.1/DTD/svg11.dtd">
<!-- Generated by graphviz version 2.47.0 (20210316.0004)
 -->
<!-- Title: dependencies Pages: 1 -->
<svg width="504pt" height="284pt"
 viewBox="0.00 0.00 504.00 284.00" xmlns="http://www.w3.org/2000/svg" xmlns:xlink="http://www.w3.org/1999/xlink">
<g id="graph0" class="graph" transform="scale(1 1) rotate(0) translate(4 280)">
<title>dependencies</title>
<polygon fill="white" stroke="transparent" points="-4,4 -4,-280 500,-280 500,4 -4,4"/>
<text text-anchor="start" x="227.01" y="-42.4" font-family="sans-serif" font-weight="bold" font-size="14.00">Legend</text>
<polygon fill="#ffffb3" stroke="transparent" points="14,-10 14,-30 34,-30 34,-10 14,-10"/>
<text text-anchor="start" x="37.63" y="-15.4" font-family="sans-serif" font-size="14.00"> &#160;Declarations</text>
<polygon fill="#8dd3c7" stroke="transparent" points="127,-10 127,-30 147,-30 147,-10 127,-10"/>
<text text-anchor="start" x="150.73" y="-15.4" font-family="sans-serif" font-size="14.00"> &#160;Module</text>
<polygon fill="#80b1d3" stroke="transparent" points="213,-10 213,-30 233,-30 233,-10 213,-10"/>
<text text-anchor="start" x="236.78" y="-15.4" font-family="sans-serif" font-size="14.00"> &#160;Bootstrap</text>
<polygon fill="#fdb462" stroke="transparent" points="310,-10 310,-30 330,-30 330,-10 310,-10"/>
<text text-anchor="start" x="333.67" y="-15.4" font-family="sans-serif" font-size="14.00"> &#160;Providers</text>
<polygon fill="#fb8072" stroke="transparent" points="406,-10 406,-30 426,-30 426,-10 406,-10"/>
<text text-anchor="start" x="429.73" y="-15.4" font-family="sans-serif" font-size="14.00"> &#160;Exports</text>
<g id="clust1" class="cluster">
<title>cluster_MaterialModule</title>
<polygon fill="none" stroke="black" stroke-dasharray="1,5" points="78,-70 78,-268 418,-268 418,-70 78,-70"/>
</g>
<g id="clust2" class="cluster">
<title>cluster_MaterialModule_declarations</title>
<polygon fill="none" stroke="black" points="89,-78 89,-130 407,-130 407,-78 89,-78"/>
</g>
<g id="clust6" class="cluster">
<title>cluster_MaterialModule_exports</title>
<polygon fill="none" stroke="black" points="86,-208 86,-260 410,-260 410,-208 86,-208"/>
</g>
<!-- MaterialElevationDirective -->
<g id="node1" class="node">
<title>MaterialElevationDirective</title>
<polygon fill="#ffffb3" stroke="black" points="398.66,-122 229.34,-122 229.34,-86 398.66,-86 398.66,-122"/>
<text text-anchor="middle" x="314" y="-99.8" font-family="Times,serif" font-size="14.00">MaterialElevationDirective</text>
</g>
<!-- MaterialModule -->
<g id="node3" class="node">
<title>MaterialModule</title>
<polygon fill="#8dd3c7" stroke="black" points="208.47,-187 205.47,-191 184.47,-191 181.47,-187 101.53,-187 101.53,-151 208.47,-151 208.47,-187"/>
<text text-anchor="middle" x="155" y="-164.8" font-family="Times,serif" font-size="14.00">MaterialModule</text>
</g>
<!-- MaterialElevationDirective&#45;&gt;MaterialModule -->
<g id="edge1" class="edge">
<title>MaterialElevationDirective&#45;&gt;MaterialModule</title>
<path fill="none" stroke="black" d="M342.28,-122.02C342.28,-139.37 342.28,-163 342.28,-163 342.28,-163 218.67,-163 218.67,-163"/>
<polygon fill="black" stroke="black" points="218.67,-159.5 208.67,-163 218.67,-166.5 218.67,-159.5"/>
</g>
<!-- ParallaxDirective -->
<g id="node2" class="node">
<title>ParallaxDirective</title>
<polygon fill="#ffffb3" stroke="black" points="210.95,-122 97.05,-122 97.05,-86 210.95,-86 210.95,-122"/>
<text text-anchor="middle" x="154" y="-99.8" font-family="Times,serif" font-size="14.00">ParallaxDirective</text>
</g>
<!-- ParallaxDirective&#45;&gt;MaterialModule -->
<g id="edge2" class="edge">
<title>ParallaxDirective&#45;&gt;MaterialModule</title>
<path fill="none" stroke="black" d="M155,-122.11C155,-122.11 155,-140.99 155,-140.99"/>
<polygon fill="black" stroke="black" points="151.5,-140.99 155,-150.99 158.5,-140.99 151.5,-140.99"/>
</g>
<!-- MaterialElevationDirective  -->
<g id="node4" class="node">
<title>MaterialElevationDirective </title>
<polygon fill="#fb8072" stroke="black" points="402.16,-252 229.84,-252 229.84,-216 402.16,-216 402.16,-252"/>
<text text-anchor="middle" x="316" y="-229.8" font-family="Times,serif" font-size="14.00">MaterialElevationDirective </text>
</g>
<!-- MaterialModule&#45;&gt;MaterialElevationDirective  -->
<g id="edge3" class="edge">
<title>MaterialModule&#45;&gt;MaterialElevationDirective </title>
<path fill="none" stroke="black" stroke-dasharray="5,2" d="M208.65,-175C244.82,-175 285.97,-175 285.97,-175 285.97,-175 285.97,-205.98 285.97,-205.98"/>
<polygon fill="black" stroke="black" points="282.47,-205.98 285.97,-215.98 289.47,-205.98 282.47,-205.98"/>
</g>
<!-- ParallaxDirective  -->
<g id="node5" class="node">
<title>ParallaxDirective </title>
<polygon fill="#fb8072" stroke="black" points="211.95,-252 94.05,-252 94.05,-216 211.95,-216 211.95,-252"/>
<text text-anchor="middle" x="153" y="-229.8" font-family="Times,serif" font-size="14.00">ParallaxDirective </text>
</g>
<!-- MaterialModule&#45;&gt;ParallaxDirective  -->
<g id="edge4" class="edge">
<title>MaterialModule&#45;&gt;ParallaxDirective </title>
<path fill="none" stroke="black" stroke-dasharray="5,2" d="M155,-187.11C155,-187.11 155,-205.99 155,-205.99"/>
<polygon fill="black" stroke="black" points="151.5,-205.99 155,-215.99 158.5,-205.99 151.5,-205.99"/>
</g>
</g>
</svg>
